<svg id="Layer_1" data-name="Layer 1" xmlns="http://www.w3.org/2000/svg" viewBox="0 0 361.45 126.66"><defs><style>.cls-1{fill:#11a64a;}.cls-2{fill:#628a3c;stroke:#628a3c;stroke-miterlimit:10;stroke-width:4px;}</style></defs><path d="M67,108.45H20.79q0,5.89,16.59,5.89c.72,0,1.6,0,2.63,0l2,0v9.95H33.74q-14.08,0-19.27-4-5.38-4.12-5.39-9.94V95.49q0-7.56,7.9-11.2a34.27,34.27,0,0,1,14.51-2.76H48a27.28,27.28,0,0,1,12.42,2.64Q67,87.47,67,93.9ZM55.89,98.29V95q0-3.68-9.27-3.67H30.15q-9.75,0-9.74,3.59v3.34Z" transform="translate(-9.08 -8.72)"/><path d="M238.48,124H226.57V89.36l-25.44,31.35a8.56,8.56,0,0,1-6.92,3.38,8.66,8.66,0,0,1-7-3.38l-25.9-31.56v34.77l-11.91,0V75.88a5.58,5.58,0,0,1,1.8-4.39,6.65,6.65,0,0,1,4.62-1.61,8.08,8.08,0,0,1,6.51,2.87l32,37.86,31.22-37.9a7.83,7.83,0,0,1,6.34-2.91,6.57,6.57,0,0,1,4.77,1.79,6.2,6.2,0,0,1,1.86,4.67Z" transform="translate(-9.08 -8.72)"/><path d="M300.07,122.39q0,8.27-8.69,11.19-5.17,1.8-15.54,1.8l-7.77,0v-9.69h11.78q8.65,0,8.86-1.72H263.64q-21.13,0-21.13-13.2V81.49h11.32v28.82q0,3.76,9.81,3.76h25.07V81.49h11.36Z" transform="translate(-9.08 -8.72)"/><path d="M370.53,109q0,8-7.37,12-5.81,3-14.58,3H304.09V69.8h43.35a47.19,47.19,0,0,1,10.42.89,17.94,17.94,0,0,1,9.07,4.91,12.47,12.47,0,0,1,3.6,8.9,25.17,25.17,0,0,1-.8,7.41,7.9,7.9,0,0,1-5,5q3,.72,4.61,5A19.81,19.81,0,0,1,370.53,109Zm-21.82-6.7H316v11.4h31.78q10,0,10.64-3.81a9.61,9.61,0,0,0,.17-2,15.37,15.37,0,0,0-.09-1.9Q358.17,102.26,348.71,102.25Zm9.83-13.94V84.08q0-4.08-10.17-4.07H316.25V92h33.27Q358.54,92,358.54,88.31Z" transform="translate(-9.08 -8.72)"/><rect class="cls-1" x="233.42" y="116.92" width="21.5" height="9.61"/><rect class="cls-1" x="37.88" y="105.56" width="20.05" height="9.61"/><path class="cls-2" d="M50.94,56.46" transform="translate(-9.08 -8.72)"/><path class="cls-1" d="M109.23,90.14l-2,13.62v0h0L99.07,96.1,71,69.75H87.4l19.94,18.62Z" transform="translate(-9.08 -8.72)"/><path class="cls-1" d="M109.25,105.45,129,123.89h16.37L117.43,97.81Z" transform="translate(-9.08 -8.72)"/><path class="cls-1" d="M179.45,61.34c-.09-.13-.19-.26-.29-.38l.13.09Z" transform="translate(-9.08 -8.72)"/><path class="cls-1" d="M193.59,54.26A44.82,44.82,0,0,1,187.14,67c-1.3,1.87-2.65,3.72-4.09,5.74l-.18.25a24.33,24.33,0,0,0-1.2-7.27h0a16.18,16.18,0,0,0-2.22-4.41l-.16-.29-.13-.09A11,11,0,0,0,175.68,58h0l-.34-.17h0a11.36,11.36,0,0,0-3.41-1,22.55,22.55,0,0,0-14.58,2.08c-.32.11-.58.21-.77.29a39.67,39.67,0,0,0-5.23,3.45l-.84.79a19.34,19.34,0,0,0-1.57,1.46l0,0-4.3,4-37.34,34.84,2-13.62-1.89-1.77Q123.09,73.67,138.82,59l.06-.06,1.17-1.09s.6-.52,1.7-1.31c.28-.19.58-.41.92-.63l.17-.12c5-3.29,16-9,28.17-4.87a28.31,28.31,0,0,1,3.8,1.6h-.2a14.43,14.43,0,0,1,1.69.8l.48.27.06,0,.09.06a9.57,9.57,0,0,1,1.06.69,18.21,18.21,0,0,1,3.42,3.25l0,0a25.45,25.45,0,0,1,2.47,3.71c.12.21.24.43.37.64,0,0,.08.06.22.15a7.6,7.6,0,0,0,.43-.72,33.37,33.37,0,0,0,3.68-10.94c.5-4.26-.73-7.81-4.32-10.36a23.86,23.86,0,0,0-9.19-3.71,67.51,67.51,0,0,0-18.33-1.17q-3.81.25-7.6.62c-.52,0-.58-.24-.69-.58-.47-1.38-.87-2.79-1.44-4.13-2.31-5.48-6.43-9.13-11.76-11.55a44.88,44.88,0,0,0-12.07-3.36,89.57,89.57,0,0,0-16.85-.77,203.78,203.78,0,0,0-27,3.11A432.15,432.15,0,0,0,35.36,29s0,0-.2-.06c2.25-1,4.4-2,6.58-2.91A242.3,242.3,0,0,1,84.6,12.34c5.25-1.13,10.58-1.92,15.89-2.7a94.43,94.43,0,0,1,18.56-.78,52.57,52.57,0,0,1,19.68,4.33c6.57,3,11.68,7.59,14.69,14.28a.85.85,0,0,0,.92.57c3.3,0,6.61-.15,9.9,0,7,.33,13.9,1.33,20.26,4.57,4.15,2.12,7.47,5.1,9.1,9.61A18.87,18.87,0,0,1,193.59,54.26Z" transform="translate(-9.08 -8.72)"/><path class="cls-1" d="M150.48,63.44l-1.57,1.46A19.34,19.34,0,0,1,150.48,63.44Z" transform="translate(-9.08 -8.72)"/><path class="cls-1" d="M109.23,90.14l-2,13.62h0L73.5,135.25H57.18L99.07,96.1l8.27-7.73Z" transform="translate(-9.08 -8.72)"/><path class="cls-1" d="M126.37,28a3.61,3.61,0,0,1,0,6.24h0a6.76,6.76,0,0,1-6.6,0l-.13-.08a3.55,3.55,0,0,1,0-6.14l.13-.08a6.76,6.76,0,0,1,6.6,0Z" transform="translate(-9.08 -8.72)"/></svg>