<?xml version="1.0" encoding="utf-8"?>
<!-- Generator: Adobe Illustrator 25.4.1, SVG Export Plug-In . SVG Version: 6.00 Build 0)  -->
<svg version="1.1" id="Layer_1" xmlns="http://www.w3.org/2000/svg" xmlns:xlink="http://www.w3.org/1999/xlink" x="0px" y="0px"
	 viewBox="0 0 150 70" style="enable-background:new 0 0 150 70;" xml:space="preserve">
<style type="text/css">
	.st0{fill:#384438;}
</style>
<g>
	<path class="st0" d="M113.83,48.18c0-14.29,0-28.43,0-42.9c2.43,0.25,4.83,0.42,7.21,0.75c5.2,0.73,10.23,2.03,14.87,4.53
		c4.54,2.45,8.08,5.78,9.48,10.86c2.08,7.53-0.83,14.72-7.85,19.43c-5.6,3.76-11.96,5.54-18.56,6.65
		C117.32,47.77,115.64,47.94,113.83,48.18z"/>
	<path class="st0" d="M75.08,48.02c-11.71,0-23.06,0-34.62,0c0.33-17.12,5.21-32.89,13.43-48.23
		C61.02,16.01,67.99,31.89,75.08,48.02z"/>
	<path class="st0" d="M96.7-0.22c8.2,15.41,13.15,31.12,13.39,48.22c-11.6,0-22.98,0-34.57,0C82.55,31.99,89.51,16.13,96.7-0.22z"/>
	<path class="st0" d="M25.82,48.12C20.83,33.29,15.99,18.91,11.1,4.4c9.85,0,19.53,0,29.43,0C35.65,18.91,30.81,33.29,25.82,48.12z"
		/>
	<path class="st0" d="M47.98,58.56c0,3.69,0,7.37,0,11.06c-0.17,0-0.34,0.01-0.51,0.01c0-2.93,0-5.87,0-8.8
		c-0.16-0.05-0.32-0.11-0.48-0.16c-1.18,1.55-2.36,3.11-3.69,4.87c-1.32-1.76-2.48-3.29-3.63-4.83c-0.13,0.03-0.27,0.06-0.4,0.1
		c0,2.94,0,5.87,0,8.81c-0.24,0-0.48-0.01-0.72-0.01c-0.31-3.68-0.08-7.38-0.15-11.06c0.2-0.08,0.4-0.16,0.61-0.24
		c1.42,1.86,2.84,3.72,4.34,5.7c1.42-1.93,2.8-3.79,4.18-5.65C47.68,58.41,47.83,58.49,47.98,58.56z"/>
	<path class="st0" d="M148.62,64.23c0.66,1.83,1.21,3.39,1.77,4.95c-0.1,0.13-0.2,0.25-0.3,0.38c-0.39-0.37-0.99-0.68-1.13-1.12
		c-1.13-3.66-1.1-3.67-5.22-3.45c0,1.52,0,3.07,0,4.62c-0.19,0.02-0.38,0.05-0.57,0.07c-0.11-0.46-0.31-0.92-0.31-1.38
		c-0.03-2.84,0.03-5.69-0.04-8.53c-0.03-1.22,0.47-1.6,1.61-1.47c0.45,0.05,0.91,0.02,1.36,0.01c1.66-0.07,3.06,0.37,3.79,1.96
		C150.35,61.94,149.71,63.28,148.62,64.23z M143.86,59.29c0,1.58,0,3.04,0,4.64c1.68-0.22,3.59,0.78,4.67-1.09
		c0.37-0.64,0.37-1.83,0-2.45C147.44,58.57,145.55,59.42,143.86,59.29z"/>
	<path class="st0" d="M62.87,69.7c0-3.6-0.02-6.99,0.04-10.37c0.01-0.34,0.48-0.94,0.78-0.96c2.46-0.24,4.79,0.09,6.4,2.21
		c1.41,1.85,1.66,3.9,0.6,5.97c-1.15,2.26-3.13,3.26-5.7,3.16C64.38,69.68,63.76,69.7,62.87,69.7z M63.96,59.34c0,3.21,0,6.3,0,9.41
		c2.36,0.29,4.32-0.17,5.63-2.12c1.08-1.63,1.13-3.37,0.09-5.05C68.39,59.51,66.41,59,63.96,59.34z"/>
	<path class="st0" d="M98.26,69.65c-0.34-0.47-0.85-0.91-0.98-1.43c-0.81-3.25-1.31-3.6-5.04-3.16c-0.07,1.51-0.14,3.05-0.22,4.6
		c-0.2,0-0.41,0-0.61,0.01c-0.07-0.44-0.2-0.87-0.2-1.31c-0.02-2.89,0.02-5.79-0.03-8.68c-0.02-0.98,0.26-1.48,1.33-1.37
		c0.45,0.05,0.91,0.03,1.36,0c1.77-0.1,3.34,0.26,4.08,2.03c0.68,1.64,0.11,3.03-1,3.91c0.63,1.76,1.2,3.36,1.76,4.95
		C98.57,69.34,98.41,69.49,98.26,69.65z M92.15,59.4c0,0.79,0,1.5,0,2.22c0,0.75,0,1.5,0,2.22c3.82,0.26,5.26-0.38,5.15-2.25
		C97.21,60,96.45,58.81,92.15,59.4z"/>
	<path class="st0" d="M79.64,69.78c0-3.75-0.01-7.19,0.03-10.64c0-0.28,0.36-0.71,0.64-0.79c2.85-0.87,6.57,1.1,7.45,3.89
		c0.95,3.02-0.59,6.25-3.61,7.12C82.78,69.75,81.27,69.64,79.64,69.78z M80.69,59.36c0,3.13,0,6.21,0,9.37
		c2.3,0.31,4.24-0.11,5.58-2.04c1.16-1.68,1.2-3.45,0.1-5.17C85.06,59.49,83.09,58.99,80.69,59.36z"/>
	<path class="st0" d="M18.96,69.61c0-1.61,0-3.23,0-4.97c-2.01,0-3.8,0-5.98,0c0,1.63,0,3.32,0,5.02c-0.21-0.01-0.42-0.02-0.64-0.03
		c0-3.75,0-7.5,0-11.25c0.18-0.01,0.35-0.02,0.53-0.03c0,1.66,0,3.31,0,5.09c2.09,0,3.88,0,5.93,0c0-1.61,0-3.3,0-5.14
		C19.97,59.08,20.21,67.99,18.96,69.61z"/>
	<path class="st0" d="M51.48,69.45c1.39-3.69,2.79-7.38,4.18-11.07c0.21-0.02,0.42-0.04,0.63-0.06c1.42,3.67,2.84,7.33,4.25,11
		c-0.16,0.12-0.32,0.24-0.48,0.35c-0.29-0.41-0.75-0.79-0.84-1.23c-0.27-1.39-1.1-1.81-2.42-1.6c-0.22,0.03-0.46,0.03-0.68,0
		c-1.8-0.23-3.24,0.05-3.55,2.19c-0.03,0.24-0.38,0.45-0.58,0.67C51.82,69.61,51.65,69.53,51.48,69.45z M56.01,60.03
		c-0.83,2.19-1.49,3.94-2.19,5.79c1.58,0,2.9,0,4.4,0C57.5,63.93,56.83,62.18,56.01,60.03z"/>
	<path class="st0" d="M108.42,59.12c-1.86,0-3.73,0-5.7,0c0,1.58,0,2.88,0,4.52c1.68,0,3.36,0,5.03,0c0.01,0.24,0.01,0.47,0.02,0.71
		c-1.66,0.08-3.31,0.15-4.91,0.23c-0.1,0.2-0.19,0.29-0.2,0.38c-0.27,3.88-0.27,3.87,3.62,3.89c0.71,0,1.43,0.11,2.14,0.17
		c-0.01,0.16-0.02,0.32-0.03,0.47c-2.14,0-4.28,0-6.66,0c0-3.44-0.01-6.93,0.02-10.41c0-0.25,0.33-0.69,0.51-0.7
		c2.04-0.05,4.09-0.03,6.14-0.03C108.41,58.62,108.41,58.87,108.42,59.12z"/>
	<path class="st0" d="M121.87,67.35c1.18,0.53,2.07,1.02,3.02,1.31c0.68,0.21,1.47,0.3,2.16,0.16c1.26-0.24,2.54-0.76,2.58-2.25
		c0.04-1.46-1.28-1.83-2.42-2.18c-1.08-0.33-2.3-0.4-3.23-0.95c-0.76-0.45-1.63-1.47-1.62-2.22c0.02-0.85,0.78-1.96,1.55-2.46
		c1.93-1.26,4.82-0.53,6.19,1.71c-0.9-0.45-1.4-0.68-1.9-0.94c-1.42-0.74-2.84-0.79-4.2,0.07c-1.43,0.9-1.41,2.22,0.1,2.98
		c0.89,0.45,1.92,0.64,2.9,0.9c2.65,0.69,3.77,1.83,3.44,3.57c-0.31,1.63-2.26,2.76-4.59,2.63
		C124.02,69.59,122.61,68.83,121.87,67.35z"/>
	<path class="st0" d="M111.06,67.43c1.05,0.46,1.97,1.14,2.95,1.22c1.22,0.1,2.61-0.02,3.68-0.53c1.47-0.7,1.37-2.41-0.1-3.16
		c-0.94-0.48-2.04-0.63-3.05-0.99c-0.84-0.3-1.87-0.51-2.39-1.11c-0.53-0.61-0.92-1.75-0.72-2.49c0.41-1.49,1.8-2.03,3.31-2.15
		c1.88-0.15,3.42,0.54,4.26,2.19c-0.8-0.4-1.31-0.66-1.82-0.92c-1.36-0.7-2.73-0.73-4.05,0.05c-1.48,0.87-1.47,2.33,0.07,3.08
		c0.9,0.43,1.92,0.63,2.9,0.88c2.48,0.64,3.7,1.85,3.43,3.44c-0.27,1.61-2.09,2.76-4.35,2.74
		C113.14,69.66,111.59,68.86,111.06,67.43z"/>
	<path class="st0" d="M23.84,69.46c0-3.59,0-7.14,0-10.79c2.16,0,4.32,0,6.47,0c0.01,0.07,0.01,0.14,0.02,0.21
		c-1.93,0.17-3.86,0.34-5.79,0.51c-0.05,0.09-0.13,0.19-0.14,0.28c-0.16,4.15-0.15,4.14,4.05,4.23c0.32,0.01,0.63,0.05,0.95,0.4
		c-1.51,0-3.02,0-4.64,0c0,1.59,0,2.96,0,4.64c1.88,0,3.79,0,5.69,0c0,0.17,0,0.34,0,0.51C28.31,69.46,26.18,69.46,23.84,69.46z"/>
	<path class="st0" d="M9.07,59.12c-1.19,0.07-2.37,0.14-3.86,0.22c0,3.41,0,6.83,0,10.25c-0.19,0-0.39,0-0.58,0
		c0-3.37,0-6.75,0-10.21c-1.5-0.1-2.73-0.19-4.24-0.3C1.59,58.17,7.5,58.05,9.07,59.12z"/>
	<path class="st0" d="M133.53,58.62c2.16,0,4.19,0,6.23,0c0.01,0.11,0.02,0.21,0.03,0.32c-1.9,0.15-3.81,0.31-5.73,0.46
		c-0.04,0.07-0.14,0.16-0.14,0.25c-0.21,4.2-0.21,4.2,4.03,4.25c0.42,0.01,0.84,0.06,1.26,0.09c0,0.15,0.01,0.29,0.01,0.44
		c-1.73,0-3.47,0-5.26,0c0,1.64,0,2.95,0,4.51c2.06,0,4.05,0,6.03,0c0,0.16,0.01,0.32,0.01,0.48c-2.11,0-4.22,0-6.47,0
		C133.53,65.95,133.53,62.36,133.53,58.62z"/>
</g>
</svg>
