<?xml version="1.0" encoding="utf-8"?>
<!-- Generator: Adobe Illustrator 25.2.3, SVG Export Plug-In . SVG Version: 6.00 Build 0)  -->
<svg version="1.1" id="Layer_1" xmlns="http://www.w3.org/2000/svg" xmlns:xlink="http://www.w3.org/1999/xlink" x="0px" y="0px"
	 viewBox="0 0 150 70" style="enable-background:new 0 0 150 70;" xml:space="preserve">
<style type="text/css">
	.st0{fill:#3C8AD8;}
	.st1{display:none;fill:#FEFEFE;}
	.st2{fill:#34A752;}
	.st3{fill:#CBDFF4;}
	.st4{fill:#5B9DDE;}
	.st5{fill:#C3E4CB;}
	.st6{fill:#F1F8F2;}
	.st7{fill:#F9BB04;}
	.st8{fill:#DAC339;}
</style>
<g>
	<path class="st0" d="M113.06,57.28c0,0.03,0,0.06,0,0.09c-0.1,0.59-0.08,1.19-0.16,1.79c-0.24,1.73-0.98,3.25-1.96,4.66
		c-1.73,2.5-4.08,4.12-7,4.93c-0.78,0.22-1.59,0.2-2.39,0.24c-1.09,0.06-2.18,0.01-3.26-0.1c-1.51-0.15-2.86-0.77-4.14-1.55
		c-2.07-1.27-3.6-3.05-4.78-5.15c-1.77-3.13-3.58-6.24-5.38-9.36c-1.67-2.9-3.33-5.79-5.01-8.69c-0.86-1.49-1.71-2.98-2.58-4.46
		c-0.18-0.31-0.32-0.66-0.53-0.96c-1.11-1.95-2.23-3.9-3.35-5.85c-2.44-4.24-4.89-8.46-7.35-12.69c-1.4-2.41-1.98-5.01-1.75-7.79
		c0.05-0.57,0.12-1.15,0.35-1.69c0.1-0.23,0.08-0.48,0.08-0.72c0.56-1.59,1.31-3.07,2.4-4.37c1.69-2,3.76-3.43,6.31-4.11
		c0.65-0.18,1.34-0.11,2.01-0.25c0.27,0,0.55,0,0.82,0c0.4,0.07,0.79,0.07,1.19,0c0.18,0,0.36,0,0.55,0
		c0.4,0.09,0.81,0.08,1.21,0.12c2.18,0.22,3.99,1.24,5.67,2.58c1.6,1.28,2.66,2.97,3.62,4.74c1.25,2.31,2.57,4.58,3.89,6.85
		c1.56,2.69,3.12,5.39,4.67,8.09c1.31,2.28,2.63,4.55,3.94,6.83c1.81,3.15,3.62,6.29,5.43,9.43c1.85,3.22,3.69,6.46,5.55,9.68
		c0.49,0.86,0.96,1.72,1.33,2.64c0.5,1.24,0.57,2.53,0.59,3.84C113.04,56.49,112.96,56.89,113.06,57.28z"/>
	<path class="st1" d="M9.27-154.47c-1.68,0.91-3.6,0.79-5.39,1.23c-17.78,4.34-29.86,15.22-36.84,31.99
		c-0.38,0.93-0.76,1.85-1.14,2.78c-2.52,7.04-6.82,13.12-10.46,19.55c-6.78,11.96-13.74,23.83-20.62,35.74
		c-6.37,11.04-12.74,22.08-19.1,33.13c-6.96,12.08-13.91,24.16-20.86,36.25c-5.73,9.96-11.44,19.93-17.17,29.9
		c-0.72,1.26-1.68,2.34-2.46,3.56c-0.57,0.88-0.93,1.76-1.05,2.76c-3.36,4.95-6.47,10.03-8.48,15.71c-1.11,3.15-1.81,6.39-2.37,9.69
		c-0.18,1.07,0.25,2.66-1.57,2.94c0-74.47,0.01-148.94-0.04-223.41c0-1.49,0.24-1.86,1.81-1.86
		C-87.89-154.46-39.31-154.47,9.27-154.47z"/>
	<path class="st1" d="M168.15,71.85c-0.45-8.51-3.1-16.32-7.31-23.7c-27.23-47.78-54.8-95.36-82.27-143.01
		c-6.11-10.61-12.14-21.26-18.1-31.95c-8.77-15.74-21.96-24.94-39.86-27.29c-0.3-0.04-0.64-0.01-0.78-0.38
		c48.98,0,97.96,0.01,146.94-0.04c1.41,0,1.73,0.32,1.73,1.73c-0.04,74.88-0.04,149.77-0.04,224.65
		C168.35,72.14,168.24,72.13,168.15,71.85z"/>
	<path class="st1" d="M15.24,0.07c1.83,2.41,3.15,5.13,4.66,7.74c17.35,30.08,34.68,60.17,52,90.28
		c7.63,13.27,18.5,22.34,33.54,26.01c28.2,6.88,56.81-11.82,61.94-40.37c0.37-2.06,0.23-4.21,1.1-6.18
		c0,15.59-0.02,31.19,0.04,46.78c0,1.29-0.25,1.55-1.55,1.54c-84-0.04-168.01-0.04-252.01-0.04c-0.14-0.16-0.16-0.34-0.08-0.53
		c1.21-1.17,2.84-0.89,4.26-1.03c11.88-1.19,21.89-6.18,29.99-14.88c4.51-4.84,8.07-10.39,10.98-16.34
		c0.66-0.52,1.12-1.19,1.46-1.95c8.84-16.61,18.71-32.64,28.06-48.97C-2.59,28.5,5.38,15,13.3,1.45C13.73,0.71,14.08-0.2,15.24,0.07
		z"/>
	<path class="st2" d="M62.88,61.2c-1.27,2.57-2.94,4.77-5.47,6.24c-1.75,1.01-3.65,1.45-5.65,1.54c-0.22,0.06-0.45,0.02-0.67,0.03
		c-1.69,0.01-3.34-0.15-4.9-0.88c-2.54-1.17-4.51-2.94-5.85-5.39c-0.61-1.12-1.13-2.29-1.28-3.58c-0.07-0.62-0.06-1.25-0.16-1.87
		c0-0.06,0-0.12,0-0.18c0.07-0.4,0.07-0.79,0-1.19c0-0.06,0-0.12,0-0.18c0.22-0.53,0.19-1.11,0.31-1.66
		c0.43-1.97,1.37-3.7,2.53-5.33c0.75-1.2,1.82-2.07,2.99-2.81c1.68-1.06,3.52-1.68,5.52-1.83c3.44-0.27,6.48,0.7,9.14,2.87
		c2.61,2.13,4.08,4.92,4.41,8.25c0.15,1.54,0.12,3.1-0.35,4.61c-0.07,0.23-0.21,0.44-0.28,0.67C63.11,60.74,62.9,60.93,62.88,61.2z"
		/>
	<path class="st1" d="M-138.24,77.16c0.94,2.52,0.84,5.23,1.4,7.83c4.65,21.83,22.19,37.79,44.27,40.15c1.5,0.16,3,0.24,4.5,0.36
		c0.27,0.1,0.27,0.21,0.01,0.32c-16.29,0-32.57-0.01-48.86,0.03c-1.13,0-1.36-0.23-1.35-1.35
		C-138.22,108.72-138.24,92.94-138.24,77.16z"/>
	<path class="st3" d="M112.98,56c0.03,0,0.05,0,0.08,0.01c0,0.43,0,0.85,0,1.28C112.87,56.87,113.01,56.43,112.98,56z"/>
	<path class="st4" d="M76.57,1.28c-0.4,0.15-0.79,0.14-1.19,0C75.78,1.28,76.17,1.28,76.57,1.28z"/>
	<path class="st5" d="M38.9,55.92c0.15,0.4,0.15,0.79,0,1.19C38.9,56.71,38.9,56.31,38.9,55.92z"/>
	<path class="st6" d="M-88.06,125.82c0-0.11,0-0.21-0.01-0.32c1.01,0,2.02,0,3.03,0c0,0.11,0,0.21-0.01,0.32
		C-86.05,125.82-87.06,125.82-88.06,125.82z"/>
	<path class="st7" d="M63.05,60.58c0.42-1.53,0.66-3.08,0.58-4.68c-0.26-5.22-3.77-9.69-8.8-11.11c-4.42-1.24-8.38-0.32-11.82,2.74
		c-0.44,0.39-0.85,0.81-1.28,1.21c0.01-0.38,0.32-0.61,0.49-0.9c4.3-7.49,8.6-14.98,12.92-22.47c2.86-4.97,5.74-9.94,8.61-14.9
		c0.1-0.17,0.22-0.33,0.32-0.49c-0.14,0.9-0.39,1.78-0.46,2.69c-0.19,2.59,0.38,5.02,1.67,7.26c3.25,5.66,6.53,11.3,9.79,16.96
		c0.33,0.58,0.69,1.14,0.94,1.76c-1.03,1.75-2.06,3.5-3.08,5.26c-3.27,5.61-6.53,11.23-9.8,16.84C63,60.74,63.02,60.66,63.05,60.58z
		"/>
	<path class="st8" d="M63.05,60.58c0.03,0.06,0.05,0.11,0.08,0.17c-0.05,0.17-0.13,0.32-0.26,0.45
		C62.74,60.94,62.98,60.78,63.05,60.58z"/>
</g>
</svg>
