<svg xmlns="http://www.w3.org/2000/svg" viewBox="0 0 150 70" xmlns:v="https://vecta.io/nano"><path d="M10.46 46.27H4.89V32.41H1.11V27.9H4.9v-3.21c0-3.81 1.68-6.54 7.22-6.54 1.17 0 3.01.24 3.01.24v4.19H13.2c-1.97 0-2.74.6-2.74 2.26v3.06h4.6l-.41 4.51h-4.19v13.86zm12.75-18.73l-.25.01c-5.16 0-7.52 3.88-7.52 9.38 0 6.94 3.06 9.71 7.56 9.71 2.57 0 4.26-1.08 5.29-3.1v2.74h5.29V27.9H28.3v2.83c-.84-1.82-2.58-3.17-5.09-3.19zm1.35 4.34c2.17 0 3.47 1.51 3.47 4.08l.01 2.62c0 1.73-1.07 3.76-3.47 3.76-3.68 0-3.59-3.98-3.59-5.3-.01-4.46 1.96-5.16 3.58-5.16h0zm11.16 5.21c0-2.23-.11-9.54 9.41-9.54 3.82 0 5.42 1.21 5.42 1.21l-1.28 3.98s-1.59-.88-3.67-.88c-2.66 0-4.36 1.54-4.36 4.25v1.95c0 2.61 1.64 4.35 4.36 4.35 1.89 0 3.64-.89 3.64-.89l1.28 3.89s-1.46 1.22-5.36 1.22c-9.06.01-9.44-6.54-9.44-9.54h0zm45.84-9.55c5.16 0 7.55 3.88 7.55 9.38 0 6.94-3.06 9.71-7.56 9.71-2.57 0-4.47-1.08-5.5-3.1v2.74h-5.22V18.71l5.54-.48v12.25c.81-2.14 3.44-2.94 5.19-2.94h0zm-1.55 4.34c-2.17 0-3.63 1.51-3.63 4.08l-.01 2.62c0 1.73 1.01 3.76 3.63 3.76 3.68 0 3.59-3.98 3.59-5.3 0-4.46-1.96-5.16-3.58-5.16zm-19.84-4.32c-5.85 0-8.94 3.19-8.94 8.86v1.05c0 7.35 4.34 9.25 9.51 9.25 5.02 0 7.3-1.41 7.3-1.41L67 41.57s-2.68 1.14-5.6 1.14c-3.03 0-4.33-.77-4.66-3.68h11.74v-3c0-6.16-3.46-8.47-8.31-8.47h0zm.14 3.75c2.02 0 3.34 1.24 3.26 4.12h-6.83c.13-3.03 1.54-4.12 3.57-4.12h0zm39.86-3.78c-6.01 0-9.17 3.38-9.17 9.45 0 8.32 5.45 9.66 9.18 9.66 5.46 0 9.09-2.94 9.09-9.59 0-6.91-4.08-9.52-9.1-9.52zm-.07 4.37c2.64 0 3.69 1.98 3.69 4.23v1.93c0 2.73-1.46 4.3-3.7 4.3-2.09 0-3.56-1.47-3.56-4.3v-1.93c0-3.02 1.75-4.23 3.57-4.23zm20.22-4.37c-6.01 0-9.17 3.38-9.17 9.45 0 8.32 5.45 9.66 9.18 9.66 5.46 0 9.09-2.94 9.09-9.59-.01-6.91-4.09-9.52-9.1-9.52zm-.08 4.37c2.64 0 3.69 1.98 3.69 4.23v1.93c0 2.73-1.46 4.3-3.7 4.3-2.09 0-3.56-1.47-3.56-4.3v-1.93c0-3.02 1.75-4.23 3.57-4.23zm11.27 14.37V18.71l5.56-.48V36.7l5.52-8.8h5.87l-5.76 9.12 5.98 9.26h-5.89l-5.72-8.99v8.99h-5.56z" fill="#4373b9"/></svg>