<svg xmlns="http://www.w3.org/2000/svg" viewBox="0 0 150 70" xmlns:v="https://vecta.io/nano"><path d="M15.29 20.38c.78-1.73 1.81-3.23 3.61-4.1 3.15-1.52 6.99-.48 8.76 2.53l13.59 23.37c1.94 3.36.77 7.36-2.58 9.25-3.2 1.79-7.24.66-9.16-2.6L22.27 36.4c-.11-.18-.24-.35-.36-.52-.31-.06-.42-.33-.55-.57l-5.29-9.1c-.73-1.26-1.23-2.58-1.19-4.07.01-.63.1-1.22.41-1.76z" fill="#557ebf"/><path d="M15.29 20.38c-.5 2.37.15 4.45 1.4 6.48 1.82 2.96 3.49 6 5.22 9.01l-6.43 10.96c-.17.29-.37.56-.55.84-.28-.33-.12-.7-.09-1.05.37-3.47-1.45-6.41-4.65-7.28-2-.54-3.95-.26-5.69.99-.33.23-.62.64-1.13.43l5.66-9.8 5.94-10.29c.06-.12.21-.2.32-.29z" fill="#f9bc17"/><path d="M3.36 40.75c1.1-.62 2.08-1.43 3.37-1.75 4.86-1.2 9.32 3.05 8.3 7.94-.05.24-.07.48-.1.72-1.25 2.75-3.26 4.5-6.39 4.59-5.11.15-8.48-5.2-6.18-9.76.29-.6.66-1.16 1-1.74z" fill="#36a852"/><path d="M58.54 34.12l2.85-.02c.67-.05.91.18.97.84.34 3.61-1.82 6.75-5.31 7.68-5.27 1.41-10.57-2.55-10.44-7.88.08-3.28 1.72-5.71 4.69-7.1 2.95-1.38 5.82-1.09 8.48.89.57.42.54.71.02 1.08a1.19 1.19 0 0 0-.2.19c-.49.68-.91.73-1.67.19-2.43-1.73-5.87-1.09-7.71 1.3a5.87 5.87 0 0 0 .82 8.01c2.25 1.93 5.74 1.84 7.79-.19.61-.61.93-1.35 1.15-2.15.12-.47 0-.66-.53-.65-1.29.03-2.57-.01-3.86.02-.57.02-.88-.12-.79-.75a2.97 2.97 0 0 0 0-.73c-.06-.54.13-.76.71-.74 1 .04 2.02.01 3.03.01zm35.77 7.71c-2.3 1.58-4.76 1.29-6.48-.68a5.22 5.22 0 0 1 .03-6.87c1.73-1.95 4.18-2.25 6.32-.76.26-.53 1.65-.94 2.16-.64.2.11.18.3.18.48l-.08 9.79c-.16 2.3-1.44 3.74-3.53 4.24-2.21.53-4.33-.3-5.54-2.12-.35-.53-.45-.82.3-1.12.79-.31 1.32-.54 1.92.39.61.95 1.7 1.12 2.8.85 1.07-.27 1.64-.98 1.86-2.04.11-.48.18-.95.06-1.52zm34.94.75c-.51 0-.97-.03-1.42.01s-.65-.16-.78-.57l-.94-2.68c-.14-.46-.38-.61-.86-.61h-4.68c-.47-.01-.72.13-.87.59-.23.76-.62 1.47-.79 2.24-.2.87-.67 1.14-1.49 1.01-.26-.04-.54-.01-.93-.01l1.06-2.82 4.03-10.7c.28-.76.77-.63 1.29-.63s1.04-.14 1.31.61l4.87 12.92c.09.2.13.37.2.64zm8.26-8.61l-.02-4.81c-.04-.86.48-.71.99-.74.58-.04.88.05.87.76l-.01 12.46c0 .54.07.99-.76.97-.72-.02-1.11-.14-.96-.94.01-.07-.03-.16-.06-.25-2.27 1.92-4.67 1.99-6.47.2-1.91-1.89-2.09-5.21-.39-7.29 1.74-2.15 3.94-2.26 6.81-.36zm-63.69 3.8c-.01 2.93-2.27 5.16-5.19 5.12-2.86-.03-5.07-2.29-5.06-5.17.01-2.93 2.26-5.19 5.16-5.18s5.1 2.27 5.09 5.23zm33.11 5.12c-2.77-.01-4.9-2.04-5.03-4.79-.15-3.1 1.59-5.25 4.48-5.54 2.09-.2 4.48 1.53 4.9 3.53.1.49-.26.49-.5.59l-5.68 2.33c-.69.27-.58.52-.2.94 1.06 1.18 2.86 1.2 4.11.07.2-.18.31-.65.68-.46.54.28 1.04.64 1.5 1.04.13.12-.16.35-.29.5-.94 1.14-2.41 1.79-3.97 1.79zm-31.85-5.17c0-2.94 2.26-5.22 5.14-5.18 2.87.04 5.1 2.27 5.13 5.14.04 2.89-2.23 5.2-5.13 5.22-2.91 0-5.14-2.24-5.14-5.18zm70.24 5.21c-2.23.01-3.53-.66-4.41-2.07-.15-.23-.61-.6-.07-.79.48-.17 1.03-.96 1.56-.12.69 1.09 1.67 1.47 2.9 1.32.75-.09 1.4-.43 1.46-1.26.05-.77-.54-1.11-1.2-1.29l-2.22-.56c-.98-.3-1.9-.75-2.33-1.77-.4-.95-.06-2.11.77-2.81 1.69-1.44 4.87-1.25 6.17.39.2.26.77.66.29.94-.43.25-.98.97-1.65.15-.69-.84-2.13-1.06-3.11-.58-.44.22-.76.52-.72 1.06.03.5.38.78.8.9l2.66.68c2.02.57 3 2.32 2.16 3.96-.75 1.43-2.11 1.82-3.06 1.85zm-47.07-7.99l-.02-6.69c-.02-.74.22-1 .93-.89a1.69 1.69 0 0 0 .55 0c.64-.09.84.16.83.81l-.01 7.05.01 6.5c.01.61-.12.86-.79.85-1.49-.03-1.49.01-1.49-1.5l-.01-6.13z" fill="#606469"/><path d="M91.69 34.63c1.6-.02 2.8 1.27 2.84 3.06.04 1.71-1.22 3.15-2.76 3.17-1.58.02-2.87-1.34-2.89-3.05-.03-1.81 1.16-3.17 2.81-3.18z" fill="#f7f7f8"/><path d="M122.9 30.6l2.34 6.42h-4.68l2.34-6.42z" fill="#f7f7f7"/><path d="M131.38 37.79c-.01-2.02 1.29-3.49 3.09-3.5 1.82-.01 3.12 1.43 3.13 3.45.01 2-1.31 3.51-3.08 3.52-1.78.01-3.13-1.48-3.14-3.47zm-65.54-.19c.05-1.76 1.28-3 2.94-2.97 1.63.03 2.86 1.44 2.81 3.22-.06 1.69-1.42 3.08-2.96 3.02-1.62-.08-2.84-1.5-2.79-3.27z" fill="#f7f7f8"/><path d="M104.13 36.92c.18-1.81 2.47-2.97 3.94-2 .23.15.5.31.5.61s-.34.31-.55.39l-3.37 1.4c-.47.2-.61.05-.52-.4z" fill="#f5f5f5"/><path d="M83.05 37.7c.01 1.78-1.28 3.18-2.89 3.15-1.56-.03-2.85-1.43-2.85-3.12-.01-1.78 1.25-3.12 2.91-3.11 1.64.02 2.82 1.3 2.83 3.08z" fill="#f7f7f8"/></svg>