<?xml version="1.0" encoding="utf-8"?>
<!-- Generator: Adobe Illustrator 25.2.3, SVG Export Plug-In . SVG Version: 6.00 Build 0)  -->
<svg version="1.1" id="Layer_1" xmlns="http://www.w3.org/2000/svg" xmlns:xlink="http://www.w3.org/1999/xlink" x="0px" y="0px"
	 viewBox="0 0 150 70" style="enable-background:new 0 0 150 70;" xml:space="preserve">
<style type="text/css">
	.st0{display:none;}
	.st1{fill:#FEFEFE;}
	.st2{fill:#757575;}
	.st3{display:inline;fill:#858585;}
	.st4{display:inline;fill:#384438;}
	.st5{fill:#384438;}
	.st6{display:inline;fill:#FEFEFE;}
	.st7{display:inline;fill:#E7DEDE;}
</style>
<g class="st0">
	<path class="st1" d="M67.01,92.33c-10.33,0-20.67,0-31,0.01c-0.35,0-0.4-0.1-0.4-0.42c0.01-2.67,0.01-5.33,0.01-8
		c0.23,0.02,0.21,0.22,0.25,0.36c0.73,2.54,2.41,4.05,5.01,4.42c2.4,0.34,4.65-0.7,5.63-2.9c0.37-0.83,0.5-1.72,0.47-2.63
		c-0.02-0.46-0.11-0.54-0.56-0.55c-1.4,0-2.8,0.01-4.2-0.01c-0.37,0-0.49,0.14-0.48,0.5c0.02,0.97-0.06,0.85,0.86,0.86
		c0.8,0,1.59-0.01,2.39,0c0.51,0.01,0.6,0.13,0.48,0.63c-0.34,1.52-1.7,2.64-3.37,2.78c-2.7,0.23-4.91-1.79-4.82-4.49
		c0.06-1.69,0.85-3.01,2.38-3.76c1.48-0.73,2.96-0.64,4.37,0.27c0.17,0.11,0.32,0.35,0.53,0.23c0.31-0.17,0.57-0.43,0.74-0.74
		c0.1-0.18-0.1-0.28-0.22-0.39c-0.75-0.64-1.62-1.04-2.59-1.15c-2.49-0.29-4.48,0.61-5.89,2.7c-0.34,0.5-0.57,1.06-0.72,1.66
		c-0.04,0.17-0.02,0.4-0.27,0.44c0-26.67,0-53.33-0.01-80c0-0.38,0.1-0.42,0.44-0.42c23.92,0.01,47.83,0.01,71.75,0
		c0.35,0,0.43,0.07,0.43,0.43c-0.01,29.91-0.01,59.82,0,89.73c0,0.39-0.1,0.44-0.46,0.44c-13.11-0.01-26.23-0.01-39.34-0.01
		c0-0.21,0.19-0.21,0.31-0.24c1.55-0.41,2.34-1.7,2.38-3.25c0.06-2.21,0.01-4.42,0.02-6.63c0-0.35-0.13-0.49-0.47-0.46
		c-0.35,0.04-0.77-0.15-0.99,0.35c-0.08,0.18-0.29,0.01-0.42-0.08c-1.12-0.79-2.25-0.68-3.35,0.01c-1.96,1.24-2.27,3.96-0.68,5.65
		c0.94,0.99,2.28,1.35,3.42,0.92c0.28-0.11,0.51-0.29,0.75-0.45c0.17-0.12,0.31-0.1,0.35,0.13c0.23,1.48-0.54,2.55-1.88,2.66
		c-0.77,0.06-1.39-0.25-1.83-0.87c-0.23-0.32-0.42-0.37-0.77-0.21c-0.77,0.34-0.81,0.47-0.24,1.1c0.45,0.5,0.95,0.92,1.62,1.11
		C66.81,92.09,67.01,92.11,67.01,92.33z"/>
	<path class="st2" d="M35.62,82.16c0.15-0.14,0.13-0.35,0.18-0.52c1.01-4.06,6.01-5.81,9.32-3.26c0.01,0.01,0.02,0.02,0.03,0.03
		c0.5,0.4,0.5,0.4,0.05,0.85c-0.22,0.22-0.41,0.55-0.67,0.61c-0.24,0.06-0.45-0.31-0.7-0.46c-1.38-0.86-3.28-0.81-4.63,0.14
		c-1.4,0.98-2.07,2.73-1.7,4.44c0.35,1.63,1.68,2.94,3.32,3.23c1.32,0.23,2.51-0.02,3.56-0.89c0.6-0.5,0.88-1.16,1.04-1.89
		c0.06-0.26,0-0.34-0.27-0.33c-1.03,0.01-2.06-0.01-3.09,0.01c-0.31,0.01-0.47-0.06-0.43-0.41c0.04-0.38-0.15-0.87,0.08-1.11
		c0.23-0.25,0.72-0.08,1.1-0.08c1.25-0.01,2.51,0.01,3.76-0.01c0.38-0.01,0.51,0.1,0.54,0.47c0.27,3.52-2.08,5.77-5.04,5.91
		c-3.14,0.15-5.54-1.67-6.32-4.72c-0.02-0.08,0-0.18-0.11-0.22c0-0.12,0-0.24,0-0.35c0.08-0.35,0.08-0.71,0-1.06
		C35.62,82.39,35.62,82.28,35.62,82.16z"/>
	<path class="st2" d="M67.01,92.33c-0.11-0.14-0.29-0.12-0.43-0.17c-0.92-0.32-1.6-0.92-2.06-1.77c-0.11-0.2-0.1-0.33,0.14-0.4
		c0.07-0.02,0.14-0.05,0.2-0.08c0.29-0.12,0.57-0.32,0.86-0.34c0.34-0.02,0.36,0.43,0.57,0.63c0.64,0.62,1.38,0.78,2.2,0.49
		c0.77-0.27,1.11-0.88,1.19-1.66c0.03-0.3,0-0.6,0-0.92c-1.48,1.02-2.82,1.03-4.07,0.07c-1.3-0.99-1.82-2.72-1.29-4.28
		c0.51-1.52,1.92-2.56,3.42-2.55c0.74,0.01,1.36,0.3,1.97,0.86c-0.1-0.62,0.22-0.61,0.61-0.6c0.96,0.02,0.96,0.01,0.96,0.96
		c0,1.89,0,3.77,0,5.66c0,0.52-0.03,1.03-0.16,1.53c-0.34,1.32-1.16,2.15-2.5,2.46c-0.07,0.02-0.15,0-0.18,0.09
		C67.96,92.33,67.49,92.33,67.01,92.33z"/>
	<path class="st3" d="M35.62,82.51"/>
	<path class="st4" d="M60.38,10.28c0.57-1.46,1.26-2.85,2.26-4.07c5.21-6.37,15.4-5.66,19.51,1.48c3.93,6.83,7.85,13.66,11.77,20.49
		c4.09,7.13,8.18,14.25,12.26,21.38c3.54,6.19,1.04,13.98-5.45,16.88c-5.36,2.39-11.82,0.71-15.15-4.82
		c-2.39-3.97-4.65-8.03-6.96-12.05c-2.12-3.67-4.23-7.35-6.35-11.02c-0.1-0.16-0.21-0.32-0.32-0.47c-0.41-0.37-0.56-0.89-0.82-1.35
		c-3.19-5.55-6.4-11.08-9.6-16.62c-0.9-1.55-1.51-3.21-1.66-5C59.73,13.48,59.75,11.84,60.38,10.28z"/>
	<path class="st4" d="M60.38,10.28C60.25,11.15,60,12,59.94,12.89c-0.19,2.66,0.48,5.1,1.81,7.39c3.1,5.35,6.19,10.7,9.28,16.06
		c0.33,0.57,0.68,1.13,0.93,1.74c-0.94,1.6-1.88,3.19-2.81,4.79c-3.22,5.54-6.45,11.09-9.67,16.63c-0.13,0-0.14-0.11-0.16-0.2
		c0.11-0.8,0.37-1.57,0.45-2.38c0.33-3.33-0.42-6.35-2.58-8.96c-2.01-2.43-4.62-3.82-7.73-4.21c-3.56-0.44-6.7,0.58-9.36,3
		c-0.37,0.34-0.78,0.63-1.08,1.04c-0.06,0.08-0.15,0.2-0.29,0.09c-0.02-0.33,0.26-0.52,0.4-0.76c3.85-6.72,7.71-13.43,11.57-20.14
		c3.14-5.45,6.29-10.89,9.43-16.33C60.21,10.51,60.3,10.4,60.38,10.28z"/>
	<path class="st4" d="M38.73,47.88c0.6-0.6,1.21-1.19,1.87-1.72c4.35-3.56,10.81-3.5,15.11,0.14c3.19,2.7,4.51,6.19,4.23,10.32
		c-0.06,0.93-0.3,1.82-0.53,2.72c0.01,0.22-0.17,0.39-0.18,0.61c-1.17,2.36-2.68,4.44-4.96,5.84C48.04,69.62,38.39,67,36.34,58.1
		c-0.76-3.28-0.14-6.34,1.68-9.16C38.24,48.58,38.49,48.23,38.73,47.88z"/>
	<path class="st2" d="M84.89,88.62c0.18-0.49,0.34-0.93,0.51-1.36c1.06-2.81,2.12-5.61,3.16-8.43c0.1-0.28,0.23-0.38,0.53-0.38
		c1.07,0.01,1.07,0,1.45,1.02c1.08,2.86,2.16,5.72,3.23,8.59c0.06,0.16,0.11,0.33,0.19,0.56c-0.44,0-0.84-0.01-1.25,0
		c-0.23,0.01-0.25-0.18-0.3-0.32c-0.26-0.7-0.51-1.41-0.75-2.12c-0.08-0.23-0.19-0.31-0.44-0.31c-1.21,0.01-2.42,0.01-3.62,0
		c-0.23,0-0.34,0.08-0.41,0.29c-0.24,0.72-0.51,1.44-0.76,2.16c-0.07,0.2-0.16,0.32-0.4,0.3C85.68,88.61,85.31,88.62,84.89,88.62z"
		/>
	<path class="st2" d="M100.05,82.56c-0.07-1.21,0-2.41-0.04-3.62c-0.01-0.4,0.12-0.5,0.5-0.49c0.82,0.03,0.82,0.01,0.82,0.81
		c0,2.98-0.01,5.96,0.01,8.93c0,0.36-0.1,0.44-0.44,0.43c-0.74-0.02-0.75,0-0.84-0.95c-0.48,0.58-1.04,0.99-1.76,1.11
		c-1.88,0.33-3.57-0.95-3.86-2.88c-0.13-0.85-0.06-1.68,0.3-2.46C95.89,80.94,98.75,80.94,100.05,82.56z"/>
	<path class="st2" d="M78.71,88.99c-1.92-0.01-3.49-1.37-3.73-3.22c-0.26-2,0.78-3.74,2.56-4.26c1.92-0.56,3.64,0.48,4.37,2.51
		c0.1,0.29-0.12,0.28-0.26,0.34c-1.44,0.6-2.88,1.19-4.32,1.78c-0.5,0.2-0.5,0.24-0.17,0.65c0.79,0.96,2.33,0.95,3.19-0.04
		c0.22-0.25,0.36-0.28,0.6-0.08c0.18,0.15,0.38,0.29,0.59,0.39c0.41,0.19,0.31,0.38,0.07,0.64C80.82,88.57,79.87,89,78.71,88.99z"/>
	<path class="st2" d="M59.55,88.99c-2.12-0.01-3.75-1.66-3.75-3.81c0-2.16,1.65-3.83,3.79-3.82c2.11,0.01,3.73,1.68,3.72,3.83
		C63.3,87.35,61.67,89,59.55,88.99z"/>
	<path class="st2" d="M51.4,88.99c-2.12,0-3.75-1.65-3.75-3.8c0-2.16,1.65-3.84,3.78-3.82c2.1,0.01,3.74,1.7,3.73,3.84
		C55.16,87.35,53.53,89,51.4,88.99z"/>
	<path class="st2" d="M105.42,81.45c0.94,0.05,1.86,0.36,2.46,1.3c0.14,0.22,0.16,0.37-0.13,0.45c-0.11,0.03-0.22,0.08-0.33,0.14
		c-0.32,0.19-0.54,0.22-0.82-0.15c-0.5-0.66-1.6-0.76-2.29-0.3c-0.56,0.36-0.53,0.94,0.07,1.24c0.46,0.24,0.99,0.28,1.48,0.42
		c0.47,0.13,0.94,0.25,1.36,0.51c1.11,0.7,1.25,2.12,0.3,3.02c-1.46,1.37-4.11,0.88-5-0.91c-0.13-0.26-0.08-0.37,0.18-0.44
		c0.04-0.01,0.08-0.04,0.12-0.06c0.22-0.09,0.44-0.26,0.65-0.24c0.24,0.01,0.27,0.35,0.41,0.52c0.59,0.73,1.59,0.96,2.43,0.53
		c0.61-0.31,0.67-0.91,0.14-1.35c-0.32-0.26-0.71-0.34-1.1-0.43c-0.54-0.13-1.09-0.24-1.6-0.48c-0.67-0.32-1.13-0.81-1.16-1.59
		c-0.03-0.78,0.34-1.35,1-1.74C104.11,81.57,104.7,81.46,105.42,81.45z"/>
	<path class="st2" d="M74.12,83.27c0,1.71-0.01,3.42,0.01,5.12c0,0.34-0.09,0.44-0.42,0.41c-0.31-0.03-0.62-0.02-0.93,0
		c-0.24,0.01-0.3-0.08-0.3-0.31c0.01-3.52,0.01-7.04,0-10.56c0-0.23,0.07-0.32,0.3-0.3c0.42,0.03,0.95-0.17,1.24,0.07
		c0.28,0.24,0.08,0.78,0.09,1.18C74.13,80.35,74.12,81.81,74.12,83.27z"/>
	<path class="st5" d="M59.22,59.95c-0.15-0.27,0.12-0.41,0.18-0.61c0.03,0.06,0.05,0.11,0.08,0.17
		C59.43,59.67,59.34,59.82,59.22,59.95z"/>
</g>
<g class="st0">
	<path class="st1" d="M77.38,89.69c-17.57,0-35.15-0.01-52.72,0.03c-1.16,0-1.39-0.23-1.38-1.38c0.04-35.26,0.04-70.52,0-105.78
		c0-1.16,0.23-1.39,1.38-1.38c35.26,0.04,70.52,0.04,105.78,0c1.16,0,1.39,0.23,1.38,1.38c-0.04,35.26-0.04,70.52,0,105.78
		c0,1.16-0.22,1.39-1.38,1.39C112.76,89.68,95.07,89.69,77.38,89.69z"/>
	<path class="st4" d="M122.02,56.98c-0.36,1.89-1.04,3.63-2.33,5.1c-0.95,0.21-1.91,0.11-2.86,0.11c-25.78,0-51.56,0-77.35,0
		c-1.13,0-2.25,0.01-3.36,0.22c-1.55-1.61-2.28-3.62-2.7-5.76c-0.34-0.92,0.35-1.05,0.95-1.2c0.72-0.17,1.46-0.11,2.19-0.11
		c27.44,0,54.89,0,82.33,0c0.73,0,1.46-0.03,2.19,0.1C121.94,55.61,122.4,56.04,122.02,56.98z"/>
	<path class="st4" d="M33.77,12.63c0.54-2.28,1.54-4.28,3.47-5.72c0.63-0.31,1.32-0.24,1.98-0.24c25.57,0.02,51.14,0,76.71,0.01
		c0.79,0,1.58-0.02,2.34,0.22c2.18,1.6,3.12,3.91,3.72,6.42C93.49,13.03,65,13.26,36.5,13.17C35.57,13.17,34.56,13.37,33.77,12.63z"
		/>
	<path class="st4" d="M123.38,46.88c0.01,1.55,0.04,3.1-0.38,4.62c-0.93,0.76-2.04,0.54-3.08,0.54
		c-24.54,0.01-49.09,0.01-73.63,0.01c-3.49,0-6.98,0.04-10.47-0.02c-1.26-0.02-2.32,0.23-3.1,1.27c-0.4-1.09-0.33-2.22-0.32-3.35
		c-0.4-3.24-0.28-3.39,2.9-3.39c10.79-0.01,21.58,0.01,32.36-0.02c0.87,0.06,1.55-0.47,2.3-0.77c0.57-0.23,1.13-0.4,1.75-0.23
		c16.08,0.01,32.16,0,48.24,0.01c0.84,0,1.69-0.07,2.52,0.11C123.1,45.8,123.72,45.99,123.38,46.88z"/>
	<path class="st4" d="M33.77,12.63c28.65,0,57.29,0,85.94,0.01c0.82,0,1.71-0.19,2.29,0.67c0.64,1.63,1.01,3.31,0.99,5.06
		c-28.76-0.28-57.52-0.04-86.29-0.13c-1.47,0-2.91-0.02-4.21,0.81C32.53,16.83,32.89,14.68,33.77,12.63z"/>
	<path class="st4" d="M36.12,62.41c0.07-0.54,0.37-0.78,0.91-0.77c0.45,0.01,0.9,0,1.35,0c26.37,0,52.74,0,79.1,0.02
		c0.74,0,1.59-0.34,2.21,0.43c-2.36,3.23-5.78,4.33-9.53,4.57c-17.88,1.14-35.77,1.17-53.66,0.54c-4.72-0.17-9.46-0.14-14.11-1.15
		C39.92,65.51,37.7,64.49,36.12,62.41z"/>
	<path class="st4" d="M32.48,19.05c0.29-1.03,0.88-1.38,2.03-1.38c28.84,0.04,57.67,0.04,86.51,0.03c0.73,0,1.48-0.09,1.95,0.67
		c0.23,1.23,0.45,2.46,0.34,3.72c-0.58,0.31-1.21,0.21-1.82,0.21c-15.57-0.01-31.14,0-46.71,0.01c-1.06,0-2.14-0.16-3.13,0.39
		c-0.38,0.29-0.88,0.44-1.23,0.18c-1.17-0.87-1.9-0.19-2.65,0.61c-0.77,0.21-1.56,0.17-2.35,0.17c-10.55,0.01-21.1-0.01-31.64,0.01
		c-0.56,0-1.13,0.07-1.65-0.21C32.01,21.96,32.26,20.5,32.48,19.05z"/>
	<path class="st4" d="M32.72,53.3c-0.18-1.5,0.51-1.83,1.95-1.83c29.45,0.04,58.89,0.03,88.34,0.03c-0.01,0.23-0.03,0.46-0.04,0.69
		c-0.29,0.57,0.02,1.23-0.26,1.8c0.01,1.05-0.21,2.05-0.69,2.99c-0.01-0.62-0.14-1.13-0.94-1.08c-0.34,0.02-0.67,0-1.01,0
		c-28.24,0-56.48,0-84.72,0.02c-0.68,0-1.66-0.48-1.93,0.73C32.94,55.58,32.7,54.47,32.72,53.3z"/>
	<path class="st4" d="M123.38,46.88c-0.24-1.22-1.22-0.77-1.91-0.77c-16.04-0.02-32.08-0.01-48.13-0.03c-0.69,0-1.48,0.31-2.06-0.37
		c0-0.64,0.52-0.82,0.95-1.05c3.55-1.9,7.1-3.8,10.73-5.55c0.67-0.32,1.35-0.55,2.11-0.37c11.9,0.12,23.8,0.01,35.7,0.06
		c0.99,0,2.04-0.19,2.91,0.54C123.75,41.86,123.85,44.38,123.38,46.88z"/>
	<path class="st4" d="M118.27,6.89c-0.61,0.38-1.29,0.34-1.96,0.34c-25.59,0-51.17,0-76.76,0.01c-0.8,0-1.56-0.13-2.32-0.33
		c2.16-2.14,4.9-2.85,7.81-3.07c9.65-0.73,19.32-0.91,29-0.98c12.15-0.09,24.3,0.12,36.42,0.98C113.37,4.05,116.11,4.74,118.27,6.89
		z"/>
	<path class="st4" d="M123.62,26.49c0.14,2.14,0.23,4.28,0.06,6.42c-0.82,0.69-1.81,0.53-2.75,0.53c-8.5,0.01-17,0.01-25.5,0.01
		c-1.01,0-2.03-0.02-3.03,0.13c-0.68,0.34-1.3,0.06-1.91-0.23c-3.23-1.52-6.32-3.29-9.48-4.94c-0.56-0.29-1.28-0.61-0.88-1.52
		c0.59-0.87,1.51-0.93,2.41-0.93c13.06-0.03,26.12-0.02,39.19,0C122.4,25.96,123.09,25.95,123.62,26.49z"/>
	<path class="st4" d="M31.81,35.95c0-2.25,0.01-4.51,0.01-6.76c0.63-0.62,1.45-0.54,2.22-0.54c10.71-0.01,21.42-0.02,32.13,0
		c0.73,0,1.47-0.02,2.11,0.42c0.85,2.32,0.77,4.64,0.05,6.97c-0.74,0.54-1.6,0.46-2.44,0.46c-10.56,0.01-21.13,0.01-31.69,0
		C33.37,36.5,32.5,36.61,31.81,35.95z"/>
	<path class="st4" d="M123.62,26.49c-13.73,0-27.46,0-41.19-0.01c-0.93,0-1.82-0.01-2.34,0.94c-0.44,0.36-0.87,0.09-1.24-0.1
		c-2.53-1.3-5.06-2.61-7.52-4.04c-0.11-0.14-0.12-0.3-0.05-0.46c-0.26-0.58,0.06-0.87,0.55-0.95c0.55-0.09,1.11-0.11,1.67-0.11
		c15.89-0.01,31.79,0,47.68,0c0.72,0,1.47-0.11,2.13,0.33C123.51,23.55,123.73,25.01,123.62,26.49z"/>
	<path class="st4" d="M31.81,35.95c12.13,0,24.27,0,36.4,0c0.98,2.03,0.77,4.09,0.13,6.16c-0.85,0.61-1.83,0.46-2.77,0.46
		c-9.85,0.01-19.7,0.01-29.54,0.01c-0.56,0-1.13,0.02-1.69,0.01c-1.09-0.03-1.7,0.4-1.73,1.55c-0.02,0.5-0.11,1.02-0.55,1.36
		C31.55,42.33,31.77,39.14,31.81,35.95z"/>
	<path class="st4" d="M91.92,33.57c0.3-1.09,1.2-0.63,1.83-0.63c9.98-0.03,19.96-0.02,29.94-0.02c0,2.14,0,4.28,0,6.42
		c-12.29,0-24.59,0-36.88,0c-0.84,0-1.69,0.08-2.45-0.4c0.41-1.14,1.54-1.36,2.43-1.87c0.92-0.51,1.88-0.97,2.83-1.43
		c0.6-0.28,1.18-0.61,1.8-0.86C92.01,34.52,92.06,34.1,91.92,33.57z"/>
	<path class="st4" d="M68.21,29.19c-12.13,0-24.26,0-36.4,0c-0.11-1.93,0.05-3.84,0.31-5.75c0.66-0.44,1.41-0.33,2.13-0.33
		c11.32,0,22.63,0,33.95,0C69.12,25.14,69.12,27.17,68.21,29.19z"/>
	<path class="st4" d="M32.06,45.5c0.14-3.47,0.14-3.47,3.64-3.47c10.84,0,21.68,0,32.52,0c0.95,1.66,0.71,3.34,0.12,5.04
		c-11.01,0.01-22.01,0.02-33.02,0.03c-2.81,0-2.81,0-2.91,2.85C31.96,48.49,32.07,46.99,32.06,45.5z"/>
	<path class="st4" d="M122.71,53.99c0.03-0.61-0.25-1.26,0.26-1.8C123.01,52.8,123.07,53.43,122.71,53.99z"/>
	<path class="st6" d="M68.33,47.07c-0.04-1.68-0.08-3.36-0.12-5.04c0-2.03,0-4.06,0-6.08c0-2.25,0-4.51,0-6.76c0-2.03,0-4.06,0-6.08
		c0.04-0.49,0.07-0.98,0.12-1.62c1.02,0.46,1.98,0.9,2.95,1.33c0.01,0.08,0.02,0.16,0.04,0.24c5.81,3.54,11.4,7.43,17.06,11.19
		c0.61,0.4,1.52,0.62,1.48,1.64c-1.84,1.02-3.67,2.03-5.51,3.05c-4.43,2.11-8.79,4.37-13.07,6.77
		C70.3,46.16,69.31,46.62,68.33,47.07z"/>
	<path class="st7" d="M89.86,35.89c-4.14-3.14-8.63-5.77-12.87-8.76c-1.9-1.34-4.07-2.32-5.68-4.06c2.92,1.45,5.85,2.91,8.77,4.36
		c3.94,2.05,7.88,4.09,11.83,6.14c0.64,0.42,1.32,0.82,0.05,1.33C91.25,35.18,90.56,35.55,89.86,35.89z"/>
</g>
<g class="st0">
	<path class="st1" d="M16.43,35.03c0-19.94,0-39.87-0.01-59.81c0-0.27,0.06-0.33,0.33-0.33c40.12,0.01,80.24,0.01,120.36,0
		c0.27,0,0.33,0.06,0.33,0.33c-0.01,39.87-0.01,79.75,0,119.62c0,0.27-0.06,0.33-0.33,0.33c-40.12-0.01-80.24-0.01-120.36,0
		c-0.27,0-0.33-0.06-0.33-0.33C16.43,74.91,16.43,54.97,16.43,35.03z"/>
	<path class="st4" d="M39.01,60.02c1.08,0.05,2.16,0.05,3.24,0c0.21-0.06,0.43,0.03,0.64-0.05c1.28-0.04,2.53-0.23,3.79-0.45
		c1.85-0.33,3.65-0.82,5.42-1.46c2.12-0.77,4.14-1.74,6.06-2.91c1.01-0.61,1.97-1.29,2.93-1.98c0.05-0.04,0.09-0.11,0.14-0.16
		c-0.11-0.08-0.22-0.05-0.32-0.04c-0.12-0.06-0.26,0-0.38-0.05c-3.02-0.21-5.79-1.15-8.29-2.86c-0.96-0.66-1.86-1.4-2.67-2.24
		c-1.49-1.55-2.6-3.34-3.43-5.3c-0.13-0.3-0.26-0.6-0.34-0.92c-0.05-0.18-0.04-0.23,0.17-0.19c1.28,0.23,2.57,0.3,3.87,0.23
		c0.12-0.05,0.26,0.01,0.38-0.05c0.96-0.01,1.88-0.22,2.89-0.45c-0.41-0.21-0.8-0.24-1.16-0.35c-1.9-0.55-3.64-1.4-5.23-2.57
		c-0.75-0.55-1.47-1.14-2.11-1.81c-1.42-1.46-2.53-3.12-3.35-4.98c-0.59-1.34-0.96-2.75-1.22-4.19c-0.07-0.39-0.07-0.8-0.1-1.19
		c-0.06-0.21,0.03-0.43-0.05-0.64c0-0.27,0-0.54,0-0.85c0.87,0.47,1.72,0.86,2.6,1.16c1.36,0.46,2.74,0.81,4.18,0.85
		c0.12,0.06,0.25,0,0.37,0.05c0.09,0,0.19,0,0.26,0c-4.27-3.08-6.76-7.19-7.23-12.46c-0.06-0.19,0.03-0.39-0.05-0.57
		c0-0.52,0-1.04,0-1.56c0.09-0.18,0-0.38,0.05-0.57c0.2-2.37,0.87-4.6,2.02-6.68c0.21-0.39,0.21-0.39,0.48-0.06
		c1.91,2.29,4.02,4.38,6.32,6.28c3.14,2.6,6.56,4.75,10.26,6.47c2.45,1.14,4.99,2.05,7.6,2.76c1.72,0.47,3.47,0.82,5.23,1.11
		c0.5,0.08,1,0.2,1.52,0.16c0.11,0.08,0.25,0,0.36,0.06c0.09,0.01,0.19,0.01,0.28,0.02c0.11,0.08,0.25,0,0.36,0.05
		c0.12,0.01,0.24,0.01,0.36,0.02c0.14,0.08,0.29,0,0.43,0.06c0.14,0.01,0.28,0.01,0.43,0.02c0.16,0.08,0.34,0,0.5,0.05
		c0.04,0.01,0.07,0.01,0.11,0.02c0.48,0.03,0.46,0.03,0.37-0.44c-0.09-0.47-0.13-0.95-0.2-1.42c-0.05-0.11,0.02-0.25-0.05-0.36
		c-0.01-0.14-0.01-0.28-0.02-0.42c-0.04-0.73-0.03-1.47,0-2.2c0.07-1.51,0.37-2.98,0.88-4.41c0.65-1.85,1.58-3.54,2.83-5.05
		c1.66-2.01,3.67-3.59,6.07-4.65c1.6-0.71,3.27-1.15,5.01-1.37c0.12-0.05,0.25,0.02,0.37-0.05c0.16-0.01,0.33-0.01,0.49-0.02
		c0.74-0.03,1.48-0.03,2.21,0c0.14,0.01,0.28,0.01,0.43,0.02c0.11,0.07,0.24,0,0.36,0.05c2,0.27,3.92,0.8,5.72,1.73
		c1.59,0.82,3.05,1.84,4.28,3.14c0.21,0.22,0.4,0.29,0.71,0.22c1.65-0.36,3.28-0.82,4.86-1.42c1.68-0.63,3.32-1.38,4.87-2.29
		c0.14-0.08,0.29-0.15,0.53-0.27c-1.33,3.94-3.71,6.94-7.18,9.12c0.51,0.09,2.76-0.33,4.75-0.88c1.55-0.42,3.06-0.99,4.57-1.57
		c-0.29,0.57-0.68,1.05-1.05,1.55c-1.23,1.66-2.65,3.13-4.15,4.54c-0.94,0.89-1.97,1.66-2.99,2.45c-0.06,0.24-0.05,0.49,0,0.73
		c0,0.92,0,1.84,0,2.76c-0.09,0.3,0.01,0.62-0.06,0.93c-0.01,0.21-0.01,0.42-0.02,0.63c-0.08,0.16,0.01,0.34-0.05,0.51
		c-0.01,0.14-0.01,0.28-0.02,0.42c-0.08,0.14,0,0.29-0.06,0.43c-0.42,3.93-1.25,7.78-2.58,11.51c-1.27,3.54-2.89,6.92-4.92,10.1
		c-1.3,2.04-2.73,3.97-4.33,5.79c-0.9,1.03-1.82,2.04-2.81,2.98c-2.03,1.93-4.21,3.68-6.56,5.22c-1.69,1.11-3.45,2.12-5.28,2.98
		c-2.48,1.17-5.04,2.11-7.68,2.83c-2.09,0.56-4.2,0.98-6.34,1.27c-0.39,0.05-0.77,0.1-1.16,0.15c-0.12,0.06-0.25-0.02-0.36,0.05
		c-0.12,0.01-0.24,0.01-0.35,0.02c-0.14,0.06-0.29-0.03-0.43,0.06c-0.14,0.01-0.29,0.01-0.43,0.02c-0.16,0.06-0.34-0.03-0.5,0.05
		c-0.17,0-0.33,0.01-0.5,0.01c-0.24,0.06-0.49-0.03-0.72,0.05c-0.33,0.01-0.67,0.01-1,0.02c-0.98,0.03-1.95,0.03-2.93,0
		c-0.31-0.01-0.62-0.01-0.93-0.02c-0.21-0.08-0.43,0-0.65-0.05c-0.19-0.01-0.38-0.01-0.56-0.02c-0.14-0.07-0.3,0-0.44-0.05
		c-0.14-0.01-0.28-0.01-0.42-0.02c-0.12-0.07-0.25,0-0.37-0.05c-1.81-0.12-3.58-0.46-5.35-0.81c-1.13-0.23-2.25-0.53-3.36-0.87
		c-2.26-0.69-4.47-1.49-6.62-2.48c-1.84-0.85-3.61-1.83-5.33-2.9c-0.07-0.04-0.22-0.05-0.2-0.19c0-0.01,0.09-0.02,0.13-0.03
		c0.11,0.07,0.25,0,0.36,0.05c0.12,0.01,0.23,0.01,0.35,0.02c0.12,0.07,0.25,0.01,0.37,0.05c0.17,0.01,0.33,0.01,0.5,0.02
		C38.57,60.06,38.8,59.96,39.01,60.02z"/>
	<path class="st4" d="M60.88,67.32c0.98,0,1.95,0,2.93,0c-0.16,0.11-0.35,0.05-0.52,0.05c-0.69,0.01-1.38,0-2.07,0
		C61.11,67.38,60.99,67.41,60.88,67.32z"/>
	<path class="st4" d="M94.28,1.39c-0.74,0-1.48,0-2.21,0C92.81,1.3,93.54,1.29,94.28,1.39z"/>
	<path class="st4" d="M76.42,16.94c0,0.73,0,1.47,0,2.2c-0.13-0.32-0.05-0.65-0.05-0.98C76.37,17.76,76.3,17.34,76.42,16.94z"/>
	<path class="st4" d="M109.93,22.2c0.01-0.31-0.04-0.62,0.06-0.93C109.95,21.59,110.05,21.9,109.93,22.2z"/>
	<path class="st4" d="M109.98,18.52c-0.06-0.24-0.1-0.49,0-0.73C109.98,18.03,109.98,18.27,109.98,18.52z"/>
	<path class="st4" d="M64.81,67.3c0.24-0.08,0.48-0.05,0.72-0.05C65.3,67.37,65.05,67.28,64.81,67.3z"/>
	<path class="st4" d="M39.88,25.41c0.08,0.21,0.05,0.43,0.05,0.64C39.82,25.84,39.9,25.62,39.88,25.41z"/>
	<path class="st4" d="M39.01,60.02c-0.22,0-0.44,0.04-0.65-0.05C38.58,59.99,38.8,59.91,39.01,60.02z"/>
	<path class="st4" d="M42.89,59.97c-0.21,0.09-0.43,0.05-0.64,0.05C42.45,59.91,42.67,59.99,42.89,59.97z"/>
	<path class="st4" d="M59.31,67.25c0.22,0,0.44-0.04,0.65,0.05C59.74,67.28,59.51,67.36,59.31,67.25z"/>
	<path class="st4" d="M40.07,11.46c0,0.19,0.04,0.38-0.05,0.57C40.04,11.83,39.96,11.64,40.07,11.46z"/>
	<path class="st4" d="M40.02,13.58c0.09,0.18,0.05,0.38,0.05,0.57C39.96,13.97,40.04,13.77,40.02,13.58z"/>
	<path class="st4" d="M76.21,21.76c-0.17,0.01-0.34,0.03-0.5-0.05C75.88,21.73,76.05,21.66,76.21,21.76z"/>
	<path class="st4" d="M109.86,23.34c0-0.17-0.03-0.35,0.05-0.51C109.89,23,109.97,23.18,109.86,23.34z"/>
	<path class="st4" d="M66.04,67.23c0.16-0.09,0.33-0.05,0.5-0.05C66.38,67.29,66.2,67.21,66.04,67.23z"/>
	<path class="st4" d="M75.28,21.7c-0.15,0-0.3,0.03-0.43-0.06C75,21.66,75.15,21.59,75.28,21.7z"/>
	<path class="st4" d="M66.97,67.16c0.13-0.08,0.28-0.06,0.43-0.06C67.27,67.21,67.11,67.15,66.97,67.16z"/>
	<path class="st4" d="M58.3,67.18c0.15,0,0.3-0.03,0.44,0.05C58.59,67.22,58.44,67.28,58.3,67.18z"/>
	<path class="st4" d="M109.78,24.2c0-0.15-0.03-0.3,0.06-0.43C109.82,23.91,109.89,24.07,109.78,24.2z"/>
	<path class="st4" d="M91.57,1.41c-0.11,0.07-0.24,0.06-0.37,0.05C91.32,1.36,91.45,1.42,91.57,1.41z"/>
	<path class="st4" d="M95.07,1.46c-0.12,0.01-0.25,0.02-0.36-0.05C94.83,1.42,94.96,1.36,95.07,1.46z"/>
	<path class="st4" d="M76.44,19.56c0.08,0.11,0.06,0.24,0.05,0.36C76.39,19.81,76.45,19.68,76.44,19.56z"/>
	<path class="st4" d="M73.85,21.55c-0.12,0-0.25,0.02-0.36-0.06C73.61,21.51,73.74,21.45,73.85,21.55z"/>
	<path class="st4" d="M74.49,21.62c-0.12,0.01-0.25,0.02-0.36-0.05C74.25,21.58,74.39,21.53,74.49,21.62z"/>
	<path class="st4" d="M47.04,26.61c-0.13,0-0.26,0.03-0.37-0.05C46.79,26.57,46.93,26.51,47.04,26.61z"/>
	<path class="st4" d="M50.22,41.59c-0.12,0.08-0.25,0.05-0.38,0.05C49.96,41.54,50.09,41.6,50.22,41.59z"/>
	<path class="st4" d="M60.52,52.93c0.13,0,0.26-0.04,0.38,0.05C60.78,52.97,60.64,53.03,60.52,52.93z"/>
	<path class="st4" d="M37.15,59.88c-0.13,0-0.25,0.02-0.36-0.05C36.9,59.84,37.04,59.78,37.15,59.88z"/>
	<path class="st4" d="M37.86,59.95c-0.13,0.01-0.25,0.02-0.37-0.05C37.62,59.91,37.75,59.86,37.86,59.95z"/>
	<path class="st4" d="M67.75,67.09c0.11-0.07,0.24-0.06,0.36-0.05C68.01,67.13,67.87,67.08,67.75,67.09z"/>
	<path class="st4" d="M57.51,67.11c0.13-0.01,0.25-0.02,0.37,0.05C57.76,67.15,57.62,67.21,57.51,67.11z"/>
</g>
<g>
	<path class="st5" d="M105.04,68.31c-19.11,0-38.21,0-57.32,0c-0.51-0.22-1.09-0.12-1.58-0.38c-1.86-0.99-3.15-2.39-3.28-4.62
		c-0.04-0.72-0.05-1.44-0.05-2.16c0-17.97,0-35.93,0.01-53.9c0-0.95-0.01-1.93,0.43-2.82c1.14-2.27,2.96-3.39,5.53-3.36
		c2.71,0.04,5.42,0.01,8.13,0.01c15.69,0,31.38,0,47.08,0.01c0.97,0,1.98-0.01,2.88,0.48c1.67,0.92,2.9,2.17,3.09,4.18
		c0.01,0.13,0,0.27,0.09,0.38c0,19.11,0,38.22,0,57.33c-0.23,0.52-0.12,1.13-0.41,1.63c-0.91,1.63-2.09,2.89-4.08,3.11
		C105.37,68.22,105.18,68.2,105.04,68.31z"/>
	<path class="st1" d="M110.02,6.13c-0.34-0.44-0.34-1.01-0.58-1.49c-1.22-2.34-3.16-3.48-5.77-3.49c-4.44-0.01-8.87,0-13.31,0
		c-13.68,0-27.36,0-41.04,0c-2.63,0-4.63,1.09-5.84,3.47c-0.45,0.87-0.6,1.82-0.6,2.79c0,18.21-0.01,36.41,0,54.62
		c0,2.95,1.61,5.1,4.43,6.03c0.16,0.05,0.35,0.05,0.42,0.25c-1.55,0-3.1-0.01-4.65,0.01c-0.28,0-0.39-0.05-0.33-0.33
		c0.02-0.11,0-0.22,0-0.33c0-22.01,0-44.01-0.01-66.02c0-0.53,0.11-0.64,0.64-0.64c22.03,0.02,44.05,0.02,66.08,0
		c0.5,0,0.61,0.12,0.6,0.61C110,3.11,110.02,4.62,110.02,6.13z"/>
	<path class="st1" d="M105.04,68.31c0.42-0.32,0.96-0.32,1.42-0.55c1.63-0.82,2.77-2.06,3.3-3.82c0.05-0.18,0.05-0.4,0.27-0.48
		c0,1.51-0.01,3.02,0.01,4.53c0,0.28-0.05,0.34-0.34,0.34C108.14,68.3,106.59,68.31,105.04,68.31z"/>
	<path class="st1" d="M79.7,29.95c0.89-1.01,1.75-1.96,2.83-2.69c1.52-1.02,3.21-1.56,5.01-1.79c2.61-0.33,5.2-0.26,7.7,0.63
		c3.11,1.11,5.08,3.36,6.26,6.37c1.13,2.9,1.4,5.94,1.43,9.01c0.05,5.84,0.03,11.67,0.03,17.51c0,1.29-0.63,1.91-1.94,1.92
		c-2.47,0.01-4.94,0.01-7.41,0c-1.34,0-1.96-0.64-1.96-1.97c0-5.49,0.01-10.97-0.01-16.46c0-1.38-0.15-2.75-0.62-4.06
		c-0.79-2.19-2.37-3.42-4.46-3.57c-2.55-0.19-4.48,0.73-5.67,3.03c-0.83,1.6-1.2,3.31-1.19,5.11c0.01,5.27,0,10.54,0,15.8
		c0,1.5-0.61,2.11-2.1,2.11c-2.32,0-4.63,0-6.95,0c-1.4,0-2.03-0.63-2.03-2.04c0-10.34,0-20.68,0-31.02c0-1.4,0.64-2.03,2.04-2.03
		c2.32,0,4.63,0,6.95,0c1.48,0,2.09,0.62,2.09,2.12C79.7,28.61,79.7,29.28,79.7,29.95z"/>
	<path class="st1" d="M63.64,43.4c0,5.07,0,10.14,0,15.21c0,1.7-0.59,2.3-2.27,2.3c-2.21,0-4.41,0-6.62,0
		c-1.51,0-2.17-0.66-2.17-2.15c0-10.27,0-20.54,0-30.81c0-1.45,0.68-2.13,2.12-2.13c2.27,0,4.55,0,6.82,0
		c1.46,0,2.12,0.66,2.12,2.12C63.64,33.09,63.64,38.25,63.64,43.4z"/>
	<path class="st1" d="M58.13,22.84c-3.94,0.01-7.13-3.15-7.15-7.09c-0.02-3.97,3.16-7.18,7.12-7.19c3.93-0.02,7.19,3.23,7.17,7.17
		C65.25,19.65,62.06,22.83,58.13,22.84z"/>
</g>
</svg>
