<svg xmlns="http://www.w3.org/2000/svg" viewBox="0 0 150 70" xmlns:v="https://vecta.io/nano"><g fill="#010101"><path d="M145.95 45.67c.39-.1.58-.29.58-.68 0-.49-.29-.68-.88-.68h-.97v2.44h.39v-1.07h.39l.68 1.07h.39l-.58-1.08zm-.39-.3h-.39v-.78h.49c.29 0 .58 0 .58.39.01.39-.29.39-.68.39h0z"/><path d="M145.66 43.23c-1.27 0-2.34.97-2.34 2.34 0 1.27.97 2.34 2.34 2.34 1.27 0 2.34-.97 2.34-2.34-.1-1.37-1.07-2.34-2.34-2.34zm0 4.29c-1.07 0-1.95-.88-1.95-2.05s.88-2.05 1.95-2.05 1.95.88 1.95 2.05-.88 2.05-1.95 2.05zM3.4 22.48h5.46v19.78h9.94v4.97H3.4V22.48zm17.83 7.99h5.16v16.76h-5.16V30.47zm2.63-8.38a3.03 3.03 0 0 1 3.02 3.02 3.03 3.03 0 0 1-3.02 3.02 3.03 3.03 0 0 1-3.02-3.02 2.97 2.97 0 0 1 3.02-3.02m24.27.39h5.26v14.81l5.85-6.82h6.43l-6.82 7.7 6.63 9.06h-6.53l-5.55-8.28v8.28h-5.26l-.01-24.75zm-18.81 7.99h4.97v2.24h.1c.68-1.36 2.44-2.73 4.97-2.73 5.26 0 6.24 3.51 6.24 7.99v9.16h-5.16v-8.18c0-1.95 0-4.48-2.73-4.48s-3.12 2.14-3.12 4.29v8.28h-5.16V30.47h-.11zm47.26 6.43c0-1.75-1.36-3.22-3.22-3.22-2.24 0-3.51 1.56-3.7 3.22h6.92zm4.38 7.4c-1.66 2.14-4.38 3.31-7.11 3.31-5.16 0-9.35-3.51-9.35-8.87s4.19-8.87 9.35-8.87c4.87 0 7.89 3.51 7.89 8.87v1.66H69.66c.39 1.95 1.95 3.22 3.9 3.22 1.66 0 2.83-.88 3.7-2.05l3.7 2.73zm11.6-9.84c-2.63 0-4.19 1.75-4.19 4.29s1.56 4.29 4.19 4.29 4.19-1.75 4.19-4.29-1.56-4.29-4.19-4.29m8.96 12.77h-4.77v-2.24h-.1c-.78 1.17-2.83 2.63-5.16 2.63-4.97 0-8.28-3.61-8.28-8.67 0-4.68 2.92-8.96 7.7-8.96 2.14 0 4.19.58 5.36 2.24h.1v-9.74h5.16v24.74z"/></g><path d="M139.23 17.31h-29.91c-1.46 0-2.63 1.17-2.63 2.53v30.01c0 1.36 1.17 2.53 2.63 2.53h29.91c1.46 0 2.63-1.17 2.63-2.53v-30c0-1.37-1.17-2.54-2.63-2.54z" fill="#006293"/><path d="M111.95 30.47h5.16v16.76h-5.16V30.47zm2.63-8.29a3.03 3.03 0 0 1 3.02 3.02 3.03 3.03 0 0 1-3.02 3.02 3.03 3.03 0 0 1-3.02-3.02 2.97 2.97 0 0 1 3.02-3.02m5.84 8.29h4.97v2.24h.1c.68-1.36 2.44-2.73 4.97-2.73 5.26 0 6.24 3.51 6.24 7.99v9.16h-5.16v-8.18c0-1.95 0-4.48-2.73-4.48s-3.12 2.14-3.12 4.29v8.28h-5.16V30.47h-.11z" fill="#fff"/></svg>