<svg xmlns="http://www.w3.org/2000/svg" viewBox="0 0 150 70" xmlns:v="https://vecta.io/nano"><path d="M24.8 54.12c-5.74-.12-10.28-2.82-13.74-7.5-.49-.67-.92-1.09-1.84-1.21-2.98-.39-5.07-3.39-4.54-6.37.13-.71.16-1.22-.57-1.66-2.25-1.34-2.64-3.23-1.53-6.58 1.3-3.93 3.73-7.2 6.54-10.19 2.05-2.17 4.25-4.15 7.05-5.35 2.01-.86 3.93-.95 5.59.75.45.46.86.47 1.44.13 1.69-.97 3.5-1.64 5.48-1.65 2.79-.02 4.38 1.84 3.97 4.58-.24 1.6-.84 3.06-1.68 4.42-.24.39-.28.67.06 1.04 1.71 1.87 2.48 4.09 2.45 6.6-.01.58.18.95.77 1.17 1.31.48 2.32 1.45 3.5 2.15.96.57 1.12 1.67.56 2.66-.38.68-.07 1.75.62 2.15 1.02.58 1.39 1.34.99 2.46-.93 2.62-1.99 5.18-3.85 7.34-2.91 3.4-6.63 5.01-11.27 5.06z" fill="#674c45"/><path d="M129.95 36c.51-.84.88-1.55 1.51-2.07.74-.62 1.57-.85 2.48-.45.87.38 1.13 1.16 1.12 2.04l-.1 2.48c-.02.44-.22 1.01.35 1.2.52.17.82-.32 1.08-.69.82-1.16 1.22-2.52 1.76-3.82.25-.6.12-1.62 1.08-1.58.86.04.67 1.03.97 1.59.21.4.33.84.54 1.4l.98-1.37c1.39-1.8 3.09-2.3 4.62-1.37 1.54.94 2.15 3.4 1.28 5.17-.81 1.63-2.81 2.37-4.65 1.72-.33-.12-.65-.28-1.07-.47.3 1.44.7 2.76.74 4.14.02.67.05 1.35-.19 2-.38 1.03-1.18 1.6-2.23 1.58-.93-.02-1.65-.61-1.98-1.64s-.21-2.06.02-3.08c.26-1.2.63-2.36 1.08-3.5.66-1.71.66-1.71-.24-3.51l-.88 2.03c-.43.92-.92 1.81-1.74 2.44-.62.48-1.32.64-2.07.31-.77-.34-.95-1.02-.95-1.74l.14-2.84c.02-.46.01-.97-.55-1.14-.55-.17-.95.15-1.24.58-.8 1.15-1.11 2.51-1.52 3.81l-.25.88c-.12.33-.3.64-.72.57-.41-.07-.5-.41-.52-.76l-.18-3.48c-.05-.65.01-1.53-.77-1.7-.84-.19-1.15.66-1.48 1.26-.58 1.05-.94 2.19-1.27 3.33l-.26.78c-.13.35-.39.57-.77.55-.45-.02-.52-.41-.53-.74l.01-2.11v-2.35l-.95 1.84c-.43.82-.9 1.6-1.59 2.24-1.38 1.27-2.86.97-3.61-.74-.16-.36-.27-.74-.43-1.19-.44.6-.8 1.16-1.3 1.6-.73.64-1.54 1.08-2.51.66-.93-.39-1.07-1.28-1.11-2.16l.01-2.2c0-.46.01-.98-.51-1.18-.58-.22-1.01.1-1.35.53-.89 1.1-1.25 2.44-1.64 3.75l-.27 1.07c-.13.45-.28.91-.9.83-.6-.07-.68-.5-.71-1l-.31-3.85c-.38.04-.45.34-.61.54-1.1 1.37-2.31 2.62-3.83 3.54-4.05 2.47-8.68.72-10.09-3.8-1.35-4.32.55-9.57 4.35-12.05 1.37-.89 2.86-1.4 4.53-1.21 2.23.26 3.62 2.34 2.86 4.29-.18.47-.45.87-.86 1.16-.34.23-.74.45-1.09.12-.33-.32.05-.61.2-.89.44-.8.62-1.62.07-2.43-.55-.8-1.4-.95-2.29-.86-1.61.16-2.92.95-3.97 2.12-2.47 2.75-3.18 5.97-2.18 9.48.99 3.47 4.38 4.78 7.53 3.01 2.16-1.22 3.75-3.04 5.19-5 .22-.31.16-.64.18-.97.13-2.66.31-5.32 1.09-7.89.31-1.03.72-2.02 1.46-2.83.66-.72 1.45-1.06 2.4-.73.93.32 1.24 1.11 1.32 2.03.12 1.48-.26 2.85-.85 4.18-.76 1.72-1.69 3.36-2.94 4.74-1.17 1.29-1.2 2.64-.78 4.2.42-.71.8-1.4 1.22-2.06.19-.31.45-.58.71-.83.63-.61 1.39-.97 2.26-.67.91.31 1.17 1.13 1.24 1.98.07.88.03 1.77.05 2.66.01.43.03.91.5 1.1.51.19.88-.16 1.19-.51.8-.92 1.21-2.04 1.64-3.16l.71-1.79c.18-.42.49-.62.96-.5.43.11.58.43.54.84l-.29 2.83c-.06.58-.11 1.16.06 1.73.24.8.8.98 1.46.45.49-.39.81-.92 1.12-1.45.66-1.14 1.15-2.36 1.65-3.58.14-.34.29-.67.49-.98.21-.31.55-.37.91-.28.43.11.33.46.32.75-.06 1.16-.14 2.31-.07 3.52l.66-1.14c.32-.52.68-1.02 1.15-1.42 1.4-1.22 2.78-.8 3.23 1 .01.32.08.64.18 1.11zm-82.44-2.84l-.05.53c-.12.45.13.93-.13 1.37.16-.31.06-.72.34-.98.93-3 1.52-6.13 3.36-8.79a3.78 3.78 0 0 1 1.05-1.02c1.42-.93 3.15-.44 3.82 1.12.58 1.35.56 2.8.54 4.24l-.12 3.48c-.12.5-.07 1.01-.01 1.51-.05.22-.16.44-.15.68a.88.88 0 0 1-.02.17c.02-.08.02-.15.03-.24a1.36 1.36 0 0 1 .35-.79c.62-1.76 1.17-3.54 2.03-5.21.54-1.04 1.13-2.04 2.03-2.82.93-.8 1.99-1.11 3.16-.67 1.13.42 1.47 1.42 1.52 2.51.1 2.01-.42 3.94-.7 5.91-.18 1.24-.45 2.47-.47 3.73-.01.64.13 1.23.77 1.55.67.33 1.25.06 1.8-.32.36-.25.47-.55.46-1.01-.05-1.85.61-3.41 2.05-4.61 1.38-1.15 2.54-1.21 4.01-.2l.27-.76c.26-.58.75-.69 1.31-.54.61.16.45.67.38 1.06l-.63 2.96c-.11.54-.15 1.1-.03 1.64.22 1 1.08 1.28 1.88.62.53-.44.87-1.03 1.19-1.62.56-1.05.99-2.17 1.38-3.3.2-.58.49-1.01 1.19-.86.71.15.53.72.49 1.19-.1 1.22-.14 2.45.08 3.66.31 1.73 1.39 2.17 2.84 1.16.82-.57 1.2-1.11.97-2.32-.67-3.53-.47-7.07.67-10.51.26-.79.64-1.53 1.23-2.13 1.33-1.35 3.12-.94 3.65.87.48 1.63.32 3.28-.03 4.91-.59 2.68-1.63 5.19-3.22 7.45-.43.61-.59 1.08-.07 1.69.56.66 1.21.92 2.04.63.44-.15.79-.46 1.14-.76.18-.16.37-.38.63-.19.25.19.22.47.14.75-.38 1.31-2.33 2.07-3.69 1.43-.42-.2-.84-.46-1.06-.85-.46-.81-.86-.63-1.43-.1-.66.62-1.47 1.02-2.39 1.05-1.22.04-2.2-.7-2.75-2.06-.18-.44-.31-.9-.52-1.53l-.61.99c-.45.7-.95 1.36-1.65 1.84-1.22.83-2.54.54-3.33-.71-.13-.2-.15-.48-.42-.6-.32.66-.7 1.28-1.29 1.74-1.2.97-2.4 1.01-3.59.04-.35-.28-.53-.25-.84 0-.93.74-1.97 1.03-3.08.44-1.15-.61-1.46-1.69-1.4-2.88.12-2.39.69-4.72 1-7.08.1-.79.21-1.58.12-2.38-.13-1.18-1.08-1.59-2.06-.91-.72.51-1.16 1.25-1.56 2.02-1.35 2.58-2.22 5.36-3.23 8.08-.27.72-.5 1.44-.79 2.15-.16.41-.4.8-.93.73-.58-.07-.63-.59-.62-.98.04-1.77.11-3.55.21-5.32.12-2.02.17-4.04.08-6.06-.02-.45-.1-.92-.22-1.36-.37-1.29-1.4-1.54-2.35-.56-.74.77-1.13 1.74-1.48 2.72-1.22 3.33-2.03 6.79-3.09 10.17-.1.32-.19.65-.3.96-.19.55-.56.91-1.18.79-.6-.11-.49-.67-.48-1.05l.35-6.88c.1-2.32.47-4.64.13-6.96-.12-.79-.34-1.53-1.24-1.74-.91-.2-1.52.31-2 1-.39.55-.63 1.18-.87 1.82-.11.28-.06.8-.53.7-.38-.08-.48-.52-.54-.89-.18-1.27.8-2.99 2.07-3.64 2.07-1.08 4.16-.02 4.57 2.28.33 1.84.04 3.67-.01 5.5l-.02.83c-.2.49.03 1.02-.15 1.52z" fill="#373736"/><path d="M118.7 27.99c.71.01 1.08.37 1.16.99.07.58-.47 1.11-1.1 1.09-.65-.02-1.04-.38-1.05-1.03 0-.65.41-.97.99-1.05z" fill="#3c3c3c"/><path d="M80.46 27.98c.68.06 1.09.39 1.1 1.04.01.64-.38 1.03-1.03 1.05-.7.02-1.12-.39-1.12-1.06.01-.63.45-.97 1.05-1.03z" fill="#3c3b3b"/><path d="M32.73 33.15c1.29.56 2.6 1.07 3.49 2.24.13.8-.44 1.29-.87 1.82-.94 1.16-2.3 1.69-3.6 2.29-1.48.68-3.02 1.16-4.66 1.3-.61.05-1.2.23-1.78.42-.67.25-.85.77-.8 1.42.02 2.02.87 2.87 2.9 2.96 2.91.13 5.5-.73 7.8-2.49l.97-.7c.25-.12.4-.33.54-.56.42-.36.27-1 .66-1.38.5-.16.99-.13 1.27.35.35.6-.12 1.06-.4 1.54-1.29 2.11-3.27 3.38-5.47 4.38l-.93.37c-.53.21-.45.43-.08.77.34.3.93.35.99.94-2.43 1.31-4.98 1.6-7.63.84-1.21-.35-2.07-1.14-2.69-2.22-.07-.13-.01-1.06-.61-.26-.12.16-.2-.15-.25-.25-.28-.62-.37-1.28-.47-1.97-.37.02-.25.54-.69.57-.21-1.15-.57-2.31-.61-3.48-.06-1.64.77-2.98 1.93-4.11.53-1.09 1.6-1.39 2.62-1.63.8-.19 1.48-.56 2.18-.92.35-.18.52-.47.63-.85.38-1.33 1.25-2.12 2.63-2.34.42-.02.84.03 1.23.19.54.31 1.08.63 1.7.76z" fill="#f4dcb9"/><path d="M25.02 16.61a.22.22 0 0 0 .16 0c.19-.24.52-.2.74-.36l.23-.03c.18-.23.49-.19.71-.33h.17c.77-.37 1.57-.35 2.39-.18 1.97.95 2.39 1.96 1.77 4.2-.26.94-.71 1.8-1.15 2.67-.19.37-.4.52-.77.28-.93-.68-2-.99-3.11-1.19l-.63.13c-.48.12-.99-.17-1.45.15-.45.42-1.04.12-1.54.32l-.88.23c-.16.06-.41-.01-.4.28a.56.56 0 0 1-.1.33c-.22.19-.48.3-.72.47-.82 1.5-2.44 2.15-3.58 3.32l-.34.51c-.37.38-.68.81-1.1 1.14-1.2 1.76-2.38 3.53-3.14 5.53-.22.58-.49.81-1.15.58-1.24-.41-2.45-.11-3.63.34-.34-.41-.11-.81.05-1.2.75-1.84 1.58-3.64 2.74-5.26 1.55-2.17 3.21-4.24 5.24-6 .3-.26.55-.6 1.01-.54.14.04.23.13.28.26-.02.58-.48.92-.81 1.29-1.02 1.14-1.93 2.37-2.85 3.59l3.47-4.01c1.51-1.7 3.27-3.12 5.1-4.46.69-.5 1.31-1.1 2.09-1.47.4-.17.8-.36 1.2-.59z" fill="#14202f"/><path d="M29.85 32.38c-1.47.3-2.2 1.01-2.46 2.42a.78.78 0 0 1-.47.62c-.84.39-1.57.97-2.57 1.1-.99.14-1.86.72-2.62 1.4-.05-.11-.07-.28-.14-.31-1.28-.52-1.57-1.86-2.34-2.8-.33-.4-.35-.78.27-.95.09-.48.02-.96.04-1.44.01-.24-.02-.49.03-.73.59-1.79 2.2-2.34 3.87-2.18 1.82.18 3.61.18 5.15-1.04.48-.38.85-.88 1.29-1.3.3-.29.61-.53 1.05-.28.92.73.88 1.82 1.03 2.83l.25 2.37c.05.4.21.76.5 1.05-.73.28-1.2-.19-1.7-.58-.23-.3-.19-.7-.34-1.02-.13-.28-.16-.68-.61-.67-.45.39-.04.86-.12 1.28-.02.09-.05.16-.11.23z" fill="#eabd8c"/><path d="M6.37 26.53c.59-1.5 1.7-2.64 2.71-3.83 1.88-2.2 4.03-4.1 6.56-5.54.15-.09.34-.12.51-.17.33-.2.58-.13.74.23a1.4 1.4 0 0 1 .06.28 4.69 4.69 0 0 0 .14 1.11c.52 1.55-.01 2.58-1.35 3.54-2.23 1.59-3.97 3.7-5.51 5.97-.81.96-.84.99-1.83.22-.72-.57-1.56-.98-2.03-1.81z" fill="#47b8e0"/><path d="M6.37 26.53l2.09 1.6c.63.56 1.13.67 1.61-.12.66-.15.52.23.39.59-1.04 1.78-2.08 3.57-2.77 5.53-.1.29-.2.57-.2.88-.26.2-.49.45-.77.6-.52.28-.87 1.28-1.3 1.03-.89-.51-1.9-1.12-1.99-2.38-.22-.37-.22-.74 0-1.1.45-2.1 1.25-4.07 2.4-5.88.14-.25.07-.72.54-.75z" fill="#1288bf"/><path d="M37.38 40.46c-.05.55.02 1.14-.54 1.5-.22.18-.42.39-.68.52-1.85 1.37-3.87 2.35-6.16 2.75-1.07.18-2.15.18-3.21.07-1.08-.11-1.58-.61-1.65-1.46.25-.31.58-.24.92-.23.7.02 1.4.06 2.09-.05.59.04 1.16-.11 1.73-.25.27-.05.53-.09.78-.21.34-.19.76-.15 1.1-.35l.25-.08c-.22 0-.41.15-.62.19-.45.04-.84.27-1.27.37-.19.02-.37.08-.56.09-.63.06-1.25.2-1.88.29-.92-.04-1.88.23-2.69-.44-.11-.86.22-1.27 1.21-1.4.82-.11 1.65-.07 2.47-.2 2.56-.42 4.91-1.32 6.94-2.95.27-.21.55-.39.88-.47.84.57.58 1.55.89 2.31z" fill="#fdfcfb"/><path d="M12.69 38.26l.31-.54c.16-.03.18.06.2.15l.23 1.26c.05.19-.21.7.42.44.16-.07.12.34.12.53.01 1.67-1.09 3.28-2.63 3.85-1.56.58-3.33.1-4.41-1.18-1.14-1.35-1.32-3.45-.43-4.98.88-1.51 2.59-2.28 4.2-2 1.37.25 1.68 1.27 1.99 2.47z" fill="#f4dbb9"/><path d="M36.5 38.14c-2.1 2.1-4.72 3.11-7.57 3.66-.88.17-1.77.21-2.66.23-.69.02-1.2.25-1.23 1.04.24.27.1.59.12.9.38.91 1.21 1.07 2.04 1.13 2.78.21 5.31-.57 7.65-2.02l1.33-.77c.21-.1.23.03.24.18-2.67 2.27-5.68 3.59-9.26 3.36-2.08-.14-3.01-1.21-2.86-3.28.2-1.27 1.2-1.38 2.2-1.51 2.25-.11 4.43-.54 6.45-1.58.76-.39 1.48-.85 2.15-1.4.27-.23.52-.55.95-.4.01.3.18.44.45.46z" fill="#6a4f48"/><path d="M30.95 26.9c-.55-.05-.84.36-1.1.71-1.57 2.07-3.76 2.52-6.13 2.2-1.84-.25-3.12.36-4.07 1.87-.12-.13-.1-.26-.03-.4.44-1.72 1.81-2.84 3.55-2.89.55-.02 1.1-.02 1.65.03 1.46.12 2.69-.3 3.77-1.31.83-.79 1.52-.81 2.36-.21z" fill="#f4dbb9"/><path d="M32.76 48.8l-1.42-.98c-.45-.34-.53-.6.13-.83 2.28-.79 4.29-2.01 5.94-3.81l.83-.84c-.84 2.99-2.71 5.11-5.48 6.46z" fill="#e9bd8c"/><path d="M36.04 37.69c-2.21 1.87-4.72 3.08-7.62 3.45-.63.08-1.27.08-1.91.11-.46.05-.95.31-1.33-.2 1.27-.66 2.72-.51 4.06-.9 1.76-.52 3.42-1.26 4.97-2.23.95-.6 1.56-1.52 2.02-2.54.4-.08.73.04.91.4.2.38-.02.69-.27.97l-.83.94z" fill="#e8bd8c"/><path d="M24.08 21.76c.44-.46.97-.09 1.45-.16.27.14.46.04.6-.19 1.09.37 2.41.27 3.12 1.46-1.86-.28-3.71-.32-5.5.36l-2.81 1.11c-.74.04-.78-.03-.55-.92.21-.21.48-.29.75-.36.11-.18.37-.17.45-.37-.04-.12-.17-.21-.08-.35l.91-.21c.44-.15.9-.03 1.35-.07.17-.04.39.01.31-.3z" fill="#9c7157"/><path d="M23.89 17.33c-2.11 1.53-4.26 3.02-6.08 4.89l-5.26 5.6c1.16-2.01 2.67-3.74 4.17-5.48.09-.42.43-.68.62-1.03.36-.51.95-.74 1.37-1.17l.49-.52c.24-.19.54-.3.76-.52.21-.16.43-.31.67-.43a1.67 1.67 0 0 0 .44-.31l.53-.37.47-.24c.06-.03.13-.05.2-.05l1.23-.55c.22-.11.37-.11.39.18z" fill="#f3f3f3"/><path d="M21.13 18.46c-.02.22-.12.35-.36.35-.14-.09-.3.05-.42 0-.58-.26-.29.19-.32.38 0 .48-.47.39-.71.57-.32.01-.54-.15-.73-.39-.13-.2-.33-.34-.52-.47-.44-.48-1.08-.76-1.35-1.39v-.13c.34-.55.83-.65 1.41-.45.28.1.58.16.87.25.19.03.33.25.58.18.04-.32-.19-.62-.11-.94.02-.13.09-.23.18-.33.96-.44 1.33.38 1.87.85.09.22.34.26.48.42l.29.36-.04.03c-.19.15-.41.15-.63.16-.72-.3-.12.55-.49.55z" fill="#f8cc50"/><path d="M20.39 23.41c.06.38-.2.96.55.92-1.19.76-2.44 1.46-3.48 2.44-.17.16-.39.15-.6.13.76-1.28 2.07-1.93 3.18-2.81-.03-.27-.41 0-.44-.28.19-.25.54-.24.79-.4z" fill="#926d57"/><path d="M19.12 17.38c-.23-.03-.5 0-.7-.1-.6-.33-1.15-.25-1.7.1-.03-.37-.3-.39-.58-.39.59-.47 1.29-.66 2.02-.78.5-.15 1.01-.35 1.28.34-.02.3.18.7-.32.83z" fill="#4bb6dc"/><path d="M29.41 15.71c-.81-.1-1.59.11-2.39.18.11-.54.55-.35.87-.36.5-.02 1.01.02 1.51.03.01 0 .04.04.04.07 0 .02-.02.05-.03.08z" fill="#595052"/><path d="M19.31 16.62c-.15-.76-.78-.23-1.15-.42.45-.64.98-.18 1.48-.12l-.03.37c-.06.13-.14.22-.3.17z" fill="#5a707b"/><path d="M23.89 17.33l-.37-.16c.46-.28.9-.65 1.5-.55-.24.46-.69.58-1.13.71z" fill="#e2dfde"/><path d="M15.41 28.55a2.15 2.15 0 0 1 1.1-1.14c-.26.49-.41 1.07-1.1 1.14z" fill="#795e53"/><path d="M3.41 33.15v1.1c-.53-.36-.53-.73 0-1.1z" fill="#63504b"/><path d="M19.65 32.42c-.05.48.14.99-.13 1.45-.09-.48-.1-.97-.04-1.45.06-.08.11-.08.17 0z" fill="#ddb99b"/><path d="M25.92 16.25c-.15.32-.43.37-.74.36.04-.53.42-.38.74-.36z" fill="#c2c3c5"/><path d="M26.85 15.89c-.15.29-.42.33-.71.33.08-.46.42-.35.71-.33z" fill="#989ca4"/><path d="M19.65 32.42h-.09-.09c-.02-.39-.11-.79.15-1.14l.03.4v.74z" fill="#d6baa3"/><path d="M22 17.36c-.28 0-.51-.06-.48-.42.22.07.4.18.48.42z" fill="#ebc259"/><path d="M146.46 36.5c.01 1.95-1.36 3.01-3.07 2.6-.68-.16-1.23-.51-1.75-.95-.35-.3-.43-.6-.18-1.03.39-.66.76-1.32 1.29-1.88.65-.69 1.37-1.29 2.4-.86 1.02.43 1.26 1.34 1.31 2.12z" fill="#f4f4f4"/><path d="M107.82 31.34c.04-2.54.4-5 1.42-7.32.28-.64.59-1.58 1.5-1.3.93.29.58 1.27.45 1.92-.5 2.53-1.89 4.64-3.37 6.7z" fill="#f4f3f3"/><path d="M140.4 39.72c.5 1.82.96 3.36.9 4.99-.02.47-.1.93-.52 1.21-.69.46-1.45-.07-1.49-1.08-.06-1.48.41-2.88.8-4.28.06-.2.14-.39.31-.84z" fill="#f2f2f2"/><path d="M85.89 35.59c-.44-3.39-.41-6.73.9-9.92.24-.59.49-1.47 1.31-1.29.72.16.65 1.03.66 1.65.07 3.48-1.12 6.6-2.87 9.56zm-14.7-1.75c1.17.02 1.77.77 1.53 1.65-.28 1-.64 1.97-1.28 2.81-.4.53-.89.92-1.58 1-.42.05-.82-.03-1.04-.42-.61-1.08-.28-2.14.23-3.14.49-.98 1.17-1.78 2.14-1.9z" fill="#f4f4f4"/><path d="M29.85 32.38v-.16c.06-.56-.16-1.14.11-1.69.78.13 1.18.89 1.08 2.05-.39-.11-.78-.24-1.19-.2z" fill="#71554b"/><path d="M30.76 34.58c-.36.02-.72.04-.92.42-.31-.21-.59-.46-.79-.78.42-.79 1.02-1.09 1.88-.68.1.38.05.72-.17 1.04z" fill="#e8bf90"/><path d="M29.04 34.22c.44.09.78.26.79.78-.36.48-.74.32-1.04-.03-.25-.3-.17-.61.25-.75z" fill="#a1785b"/><path d="M25.18 41.06c.4.36.89.09 1.33.2-.94.1-1.81.32-2.22 1.32-.07-.72.1-1.31.89-1.52z" fill="#dcb78f"/><path d="M30.76 34.58c-.1-.37-.09-.72.16-1.04.44-.02.6.23.55.62-.05.43-.32.55-.71.42z" fill="#a2795c"/><path d="M36.42 42.49l-.24-.18c.15-.25.38-.35.66-.34-.06.24-.11.49-.42.52z" fill="#775f55"/><path d="M18.87 20.28c-.35.53-.96.74-1.4 1.15-.31.25-.53.62-.98.68-2.08 1.52-3.7 3.48-5.25 5.5l-.79.99c-.02-.27 0-.57-.39-.59 1.55-2.52 3.59-4.62 5.93-6.41.83-.64 1.4-1.22.93-2.32-.08-.18-.03-.42-.05-.64.99.16 1.49.9 2 1.64z" fill="#1088bd"/><path d="M24.08 21.76c.27.15.47.32-.04.35-.54.03-1.08 0-1.62-.01.48-.4 1.17.09 1.66-.34z" fill="#514643"/><path d="M16.49 22.1c.26-.31.53-.63.98-.68-.04.48-.44.66-.74.92-.08-.07-.16-.15-.24-.24z" fill="#263f51"/><path d="M21.86 22.69c-.11.39-.44.33-.72.36l-.01-.36c.24-.2.49-.14.73 0z" fill="#382c29"/><path d="M21.86 22.69h-.73c-.14-.4.17-.33.38-.36l.35.36z" fill="#625b5d"/><path d="M26.13 21.41c.02.75-.35.28-.6.19l.6-.19z" fill="#443a36"/><path d="M22.02 34.15c1.2-1.56 3.29-1.59 4.05-.13-.7.04-1.29-.38-1.97-.34-.69.04-1.28.41-2.08.47z" fill="#a27759"/><path d="M26.03 34.96c-.84.03-1.58.19-2.38.42.61-1 1.4-1.14 2.38-.42z" fill="#a87e5d"/><path d="M29.96 30.52c-.03.57.15 1.14-.11 1.69-.18-.57-.41-1.16.11-1.69z" fill="#71513f"/><path d="M18.87 20.28l-2-1.64c-.18-.36-.21-.74-.15-1.13.53.37 1.06.75 1.49 1.24.06.26.33.29.49.44.12.29.54.24.63.56l-.46.53z" fill="#25303a"/><path d="M25.17 43.97c-.26-.27-.15-.59-.12-.9.87.39 1.79.37 2.71.36.37-.12.74-.13 1.12.01-.06.41-.42.19-.56.36-1.05.16-2.12-.15-3.15.17z" fill="#dfb78b"/><path d="M28.32 43.8l.46-.31-1.02-.05c.59-.24 1.22-.3 1.85-.34-.02.29.33.18.4.37-.54.26-1.09.4-1.69.33z" fill="#eacba5"/><path d="M30.13 43.06c.4-.26.83-.37 1.3-.36.23-.1.42-.14.41.22l-1.1.37c-.22-.05-.47 0-.61-.23z" fill="#eacca7"/><path d="M30.13 43.06c.22.03.46-.01.6.23-.21.21-.48.15-.73.17l-.59-.09.19-.28.53-.03z" fill="#eac49a"/><path d="M31.84 42.92c-.08-.17-.24-.2-.41-.22.36-.22.73-.42 1.21-.3-.15.4-.51.41-.8.52z" fill="#ead1b2"/><path d="M11.5 38.87l-.66-.02c-.51.64.08.91.43 1.24.7.67.76 1.21.21 1.81-.09.1-.2.13-.31.03-.93-.43-1.91-.72-2.38-1.82-.18-.43.01-.93-.38-1.27.24-.78.9-1.19 1.79-1.12.76.05 1.21.44 1.3 1.15z" fill="#e9bd8c"/><path d="M11.5 38.87c-.81-1.25-2.03-1.26-3.1-.03-.28.35-.31.79-.32 1.2-.01.38.08.76.15 1.37-.91-.77-.95-1.57-.74-2.42.38-1.52 2.14-2.32 3.5-1.59.51.27.9.66.93 1.27.01.29-.09.52-.42.2z" fill="#9f7559"/><path d="M11.16 41.93c.71-.85.69-1.05-.17-1.73-.72-.57-.76-.91-.15-1.35-.1.66.48.76.85 1.03.66.47.81 1.31.37 2.01s-1.04.82-1.89.39c.3-.25.73-.06.99-.35z" fill="#a2795b"/><path d="M20.04 19.18c-.14-.3-.43-.44-.82-.68.68-.1 1.12.09 1.56.31-.23.17-.4.43-.74.37z" fill="#413c2c"/><path d="M21.13 18.46c-.02-.14-.02-.3-.08-.43-.26-.58.15-.33.37-.3.17.07.35.14.33.38-.14.22-.33.36-.62.35z" fill="#5e5439"/><path d="M21.75 18.1l-.33-.38.82.02c-.01.33-.24.36-.49.36z" fill="#f0d178"/><path d="M19.31 16.62l.3-.17c.06.2.14.39.16.6.03.21.29.48-.01.62-.26.13-.52-.02-.65-.29.29-.2.08-.52.2-.76z" fill="#314750"/><path d="M18.7 19.19c-.3.01-.54-.06-.49-.44.22.08.43.18.49.44z" fill="#273139"/></svg>