<svg xmlns="http://www.w3.org/2000/svg" viewBox="0 0 150 70" xmlns:v="https://vecta.io/nano"><path d="M49.84 29.17l-.02-18.91c0-.84.18-1.11 1.07-1.1h27.87c.84 0 1.14.17 1.1 1.07v5.33c.03.81-.21 1.04-1.03 1.03-6.74-.03-13.47 0-20.21-.04-.97-.01-1.35.16-1.31 1.24.1 2.28.07 4.56.01 6.84-.02.82.22 1.03 1.03 1.03l19.51-.04c.96-.01 1.27.24 1.21 1.21-.09 1.54-.09 3.1 0 4.64.06 1.01-.23 1.31-1.28 1.3-6.35-.05-12.7.01-19.04-.06-1.22-.01-1.49.35-1.44 1.49.09 2.12.07 4.25 0 6.38-.03.88.23 1.09 1.1 1.09l20.21-.05c1.08-.01 1.28.32 1.24 1.29-.08 1.74-.05 3.48-.01 5.22.02.71-.12 1-.93 1-9.37-.03-18.74-.03-28.1 0-.86 0-1-.31-.99-1.07l.01-18.89z" fill="#f8bc18"/><path d="M122.28 50.63l-3.94-3.93c-.59-.62-.98-.7-1.72-.15-10.49 7.71-25.36 4.42-31.52-7.05-7.1-13.23 1.11-29.15 15.76-31.29 5.65-.82 10.81.45 15.51 3.67.66.45.84.79.36 1.53a53.32 53.32 0 0 0-2.44 4.2c-.42.8-.69.91-1.47.31-7.66-5.98-19.07-2.58-22.28 6.61-2.77 7.93 1.78 16.47 9.94 18.62 8.12 2.14 16.26-3.12 17.73-11.46.29-1.65.29-3.3-.01-4.95-.09-.51-.24-1 .09-1.55 1.34-2.21 2.61-4.46 3.97-6.8 1.35 2.01 2.19 4.15 2.62 6.41 1.16 6.12.14 11.83-3.53 16.95-.5.7-.43 1.08.17 1.64 1.3 1.21 2.52 2.51 3.77 3.77-.74 1.39-1.71 2.58-3.01 3.47z" fill="#ea4535"/><path d="M44.13 37.36c.02 5.29-2.64 9.28-7.76 11.21-5.93 2.23-11.96 2.21-17.94.2-3.77-1.27-6.42-3.9-8.14-7.48-.33-.68-.36-1.05.41-1.41 1.64-.78 3.24-1.63 4.84-2.49.48-.26.71-.22.98.29 1.9 3.72 5.22 5.15 9.15 5.63 2.14.26 4.24.07 6.3-.51 1.01-.28 1.96-.71 2.78-1.4 2.85-2.38 2.48-6.32-.77-8.09-2.29-1.25-4.84-1.51-7.37-1.84-3.27-.42-6.45-1.09-9.46-2.54-6.86-3.3-7.36-13.82-1.05-17.99 4.12-2.74 8.7-3.41 13.52-3.04 3.08.24 6.02.95 8.66 2.64 1.8 1.15 3.19 2.66 4.27 4.49.34.58.25.83-.35 1.11-1.53.73-3.04 1.52-4.55 2.31-.51.27-.81.29-1.26-.22-2.66-3-6.13-3.98-10.02-3.8-1.32.06-2.61.28-3.84.78-.87.35-1.65.84-2.28 1.55-1.82 2.03-1.39 4.87.98 6.2 2.18 1.22 4.62 1.44 7.03 1.76 2.95.39 5.89.85 8.67 1.99 4.9 2 7.18 5.37 7.2 10.65z" fill="#557ebf"/><path d="M122.28 50.63l3-3.46c.29.16.51.4.93.16 1.36-.77 2.43-.15 3.4.82l11.7 11.76 1.84 1.76c.79.75.82 1.84.04 2.62l-4.42 4.44c-.63.65-1.12.59-1.75-.04l-14.05-14c-1.06-1.04-1.5-2.12-.71-3.5.09-.15.02-.37.02-.56z" fill="#48515a"/><path d="M119.26 6.67l8.7-4.11-.77 9.37c-.53.05-.87-.32-1.18-.6-.88-.82-1.28-.5-1.81.44l-11.74 20.35c-.39.69-.69.83-1.41.45l-7.75-3.92c-.79-.42-1.18-.41-1.73.4-2.09 3.1-4.28 6.15-6.46 9.19-.18.26-.31 1.02-.87.5-.38-.35-1.07-.63-.65-1.49l6.7-13.84c.35-.73.71-.48 1.17-.25l7.86 3.96c.8.43 1.14.3 1.58-.46l9.98-17.21c.54-.91.63-1.47-.42-1.95-.38-.17-.7-.47-1.2-.83z" fill="#33a850"/></svg>