<svg xmlns="http://www.w3.org/2000/svg" viewBox="0 0 150 70" xmlns:v="https://vecta.io/nano"><path d="M110.43 47.05c3.99.17 7.58-.93 10.88-3.37-.81-.18-1.52-.28-2.2-.5-2.22-.71-3.83-2.15-4.88-4.23-.31-.6-.41-1.02.55-.91.57.07 1.17-.02 1.75-.03.1-.13.48.06.36-.32-2.8-.97-4.77-2.75-5.59-5.65-.18-.64-.6-1.44-.2-1.93.3-.37 1 .3 1.56.38.57.09 1.14.23 2 .41-3.62-3.11-4.52-6.6-2.58-10.84 1.31 1.26 2.4 2.51 3.72 3.53 3.62 2.82 7.74 4.36 12.28 4.85.61.07.75-.1.69-.73-.33-3.3.78-5.99 3.58-7.86 3.08-2.07 7-1.74 9.9.8.37.32.65.42 1.14.29 1.16-.32 2.29-.7 3.37-1.24.23-.12.52-.42.74-.2.26.26-.05.57-.18.81-.64 1.24-1.53 2.28-2.95 3.18 1.61-.05 2.85-.56 4.16-.85-.81 1.4-1.95 2.46-3.15 3.45a1.25 1.25 0 0 0-.51 1.08c0 6.94-2.52 12.82-7.58 17.56-3.65 3.41-8.05 5.2-13.03 5.69-5.15.51-9.9-.63-14.34-3.18.01-.46.31-.19.51-.19zm-91.89-9.62l.01-2.77c.04-1.37.81-2.26 2.42-2.34 1.33-.07 2.25.95 2.28 2.36l.11 4.68c.08 1.45 1.15 2.52 2.35 2.45 1.31-.08 2.28-1.16 2.3-2.63l.01-4.43c.02-.99.39-1.82 1.36-2.22 1-.42 2.21-.07 2.93.74.44.5.5 1.11.5 1.72l.01 4.15c.01 1.55 1 2.68 2.34 2.67 1.29-.01 2.3-1.18 2.31-2.7v-4.33c.01-1.42.9-2.37 2.32-2.5 1.09-.1 2.42.96 2.45 2.17.06 2.27.3 4.57-.23 6.79-.52 2.16-1.92 3.76-4 4.65-2.52 1.07-4.92.79-7.14-.84-.34-.25-.6-.27-.98 0-2.38 1.72-4.95 1.96-7.54.59-2.49-1.31-3.76-3.45-3.8-6.28l-.01-1.93zM2.31 33.95v-4.89c.01-1.65 1.16-2.89 2.63-2.85 1.48.04 2.5 1.18 2.52 2.84.03 2.29.03 2.29 2.33 2.29h5.09c1.59.01 2.6.97 2.6 2.47 0 1.52-.98 2.5-2.56 2.51-2.19.01-4.38.03-6.57-.01-.69-.01-.96.19-.89.89.05.52 0 1.04.01 1.57.02 1.6 1.09 2.69 2.73 2.71l4.72.01c1.6.01 2.57.96 2.57 2.48s-.99 2.49-2.57 2.5c-1.66.01-3.33-.02-4.99.01-3.88.07-7.53-3.19-7.6-7.54-.05-1.67-.02-3.33-.02-4.99zm69.64-.39h2.03c1.36.05 2.34 1.09 2.35 2.45.01 1.44-.96 2.51-2.34 2.54l-3.97.01c-.57-.01-.77.21-.7.77.18 1.42 1 2.15 2.46 2.15l2.22.01c1.39.05 2.35 1.1 2.34 2.54-.01 1.34-1.03 2.45-2.36 2.43-1.74-.03-3.5.23-5.21-.42-2.28-.86-3.56-2.54-4.12-4.82-1.01-4.12-.98-8.32-.76-12.52.08-1.43 1.18-2.49 2.56-2.51 1.4-.02 2.55 1.14 2.6 2.69a62.42 62.42 0 0 1-.01 3.87c-.02.58.15.84.78.8.71-.03 1.42.01 2.13.01zm15 7.21h-3.6c-.26 0-.61-.12-.73.22s.14.58.38.77c.86.7 1.89.76 2.95.76 1.4.01 2.51-.94 3.85-1.15.67-.11 1.24 0 1.68.46.49.5.56 1.11.26 1.78-.44.98-1.2 1.65-2.16 2.02-2.56 1-5.22 1.33-7.8.24-2.45-1.04-4.09-2.8-4.41-5.63-.25-2.2.22-4.11 1.72-5.76 1.07-1.18 2.47-1.7 3.98-1.92 2.43-.35 4.81-.18 6.9 1.27 1.73 1.2 2.77 2.82 2.66 5.04-.06 1.23-.61 1.85-1.88 1.88l-3.8.02zM55.44 30.6v2.21c0 .52.22.77.79.76l3.79-.01c1.8.01 2.8.94 2.8 2.57-.01 1.45-1.09 2.4-2.76 2.41-1.17.01-2.34.01-3.51-.01-.56-.01-.86.07-.7.79.35 1.66.9 2.16 2.6 2.16l2.13.01c1.19.06 2.18 1.05 2.25 2.17.08 1.41-.65 2.65-1.9 2.74-2.08.15-4.2.33-6.18-.59-1.7-.79-2.82-2.15-3.36-3.95-.61-2-.8-4.07-1-6.15-.21-2.24-.05-4.46.03-6.69.09-2.2 1.8-3.34 3.72-2.48.8.36 1.25.98 1.29 1.85l.01 2.21zm42.88 11.17v2.3c-.02 1.23-.9 2.3-1.98 2.4-1.46.14-2.57-.56-2.68-1.98-.19-2.28-.36-4.6.2-6.86.76-3.08 3.49-5.16 6.68-5.18h3.69c1.27.02 2.25 1.03 2.26 2.3.01 1.28-.93 2.29-2.22 2.33l-3.42.01c-1.54.02-2.51 1.01-2.52 2.55l-.01 2.13zm-54.59-1.93v-4.05c.02-1.49.91-2.5 2.22-2.57 1.62-.08 2.86.77 2.9 2.29l-.08 8.83c-.14 1.43-1.3 2.25-2.81 2.14-1.26-.09-2.21-1.14-2.22-2.49l-.01-4.15z" fill="#60addf"/><path d="M46.21 31.2c-1.38 0-2.48-1.08-2.47-2.4.01-1.43 1.15-2.6 2.53-2.6 1.49 0 2.51 1.05 2.51 2.56-.01 1.51-1 2.45-2.57 2.44z" fill="#60ade0"/><path d="M116.83 42.39c-.18.07-.42-.03-.54.2-.13-.05-.35-.17-.24-.26.23-.19.53-.14.78.06z" fill="#b4d8f3"/><path d="M85.08 37.62h-1.84c-.2 0-.45.09-.58-.15-.14-.27.06-.47.22-.65.73-.8 1.71-.93 2.69-.79.68.09 1.41.21 1.8.93.23.43.22.68-.37.66-.63-.02-1.28 0-1.92 0z" fill="#fafdfe"/></svg>