<?xml version="1.0" encoding="utf-8"?>
<!-- Generator: Adobe Illustrator 25.4.1, SVG Export Plug-In . SVG Version: 6.00 Build 0)  -->
<svg version="1.1" xmlns="http://www.w3.org/2000/svg" xmlns:xlink="http://www.w3.org/1999/xlink" x="0px" y="0px"
	 viewBox="0 0 150 70" style="enable-background:new 0 0 150 70;" xml:space="preserve">
<style type="text/css">
	.st0{display:none;}
	.st1{display:inline;}
	.st2{fill:#02D8FF;}
	.st3{fill:#FFFFFF;}
	.st4{fill:#FEFFFF;}
	.st5{fill:#FCFFFF;}
	.st6{fill:#0AD9FE;}
	.st7{fill:#0CD9FE;}
	.st8{fill:#0BD9FE;}
	.st9{fill:#0CDAFE;}
	.st10{fill:#01D8FF;}
	.st11{fill:#95BE46;}
	.st12{fill:#5E8E3E;}
</style>
<g id="Layer_1" class="st0">
	<g class="st1">
		<path class="st2" d="M40.91,10.05c0.3,0.07,0.6,0.11,0.89,0.21c1.19,0.38,2.04,1.17,2.67,2.22c0.56,0.93,0.88,1.94,1.08,2.99
			c0.32,1.71,0.35,3.44,0.2,5.18c-0.13,1.53-0.39,3.05-0.74,4.54c-0.07,0.28-0.04,0.26,0.2,0.33c1.65,0.48,3.25,1.08,4.79,1.83
			c1.45,0.71,2.82,1.54,4.03,2.61c0.75,0.66,1.4,1.4,1.89,2.27c0.91,1.64,0.88,3.27-0.03,4.89c-0.6,1.08-1.45,1.95-2.4,2.71
			c-1.44,1.17-3.06,2.04-4.75,2.78c-1.1,0.48-2.22,0.88-3.36,1.23c-0.05,0.01-0.09,0.04-0.14,0.04c-0.16,0.02-0.18,0.11-0.14,0.25
			c0.14,0.54,0.25,1.09,0.35,1.63c0.38,1.98,0.55,3.98,0.43,5.99c-0.08,1.44-0.33,2.86-0.92,4.19c-0.33,0.76-0.76,1.45-1.36,2.04
			c-0.69,0.67-1.51,1.08-2.45,1.25c-0.13,0.02-0.25,0.05-0.38,0.07c-0.43,0-0.86,0-1.29,0.01c-0.73-0.09-1.45-0.24-2.14-0.47
			c-1.6-0.53-3.06-1.34-4.44-2.29c-1.35-0.92-2.58-1.97-3.76-3.08c-0.21-0.2-0.2-0.17-0.37,0c-0.01,0.01-0.03,0.03-0.04,0.04
			c-1.49,1.41-3.09,2.68-4.85,3.73c-1.77,1.05-3.64,1.85-5.72,2.06c-0.37,0-0.74,0-1.12,0c-0.52-0.08-1.04-0.17-1.54-0.37
			c-1.11-0.46-1.89-1.27-2.46-2.3c-0.65-1.18-0.95-2.46-1.1-3.78c-0.2-1.74-0.11-3.48,0.12-5.21c0.15-1.13,0.38-2.24,0.64-3.34
			c0.05-0.23,0.05-0.23-0.17-0.3c-0.91-0.27-1.81-0.57-2.69-0.93c-1.91-0.77-3.72-1.7-5.35-2.97c-0.99-0.77-1.87-1.64-2.52-2.72
			c-0.48-0.78-0.79-1.62-0.84-2.54c-0.05-0.94,0.2-1.82,0.65-2.64c0.62-1.13,1.5-2.03,2.5-2.81c1.5-1.18,3.19-2.06,4.95-2.78
			c1.08-0.44,2.18-0.81,3.3-1.14c0.27-0.08,0.26-0.08,0.21-0.34c-0.08-0.37-0.17-0.74-0.25-1.12c-0.33-1.5-0.53-3.03-0.6-4.56
			c-0.06-1.21-0.03-2.43,0.17-3.63c0.17-1.07,0.45-2.1,0.97-3.06c0.96-1.79,2.45-2.69,4.47-2.7c1.06-0.01,2.08,0.22,3.07,0.57
			c1.54,0.53,2.95,1.31,4.29,2.22c1.37,0.92,2.63,1.97,3.84,3.1c0.21,0.19,0.17,0.2,0.39,0c0.5-0.47,1-0.93,1.53-1.38
			c1.44-1.22,2.97-2.31,4.65-3.17c1.11-0.57,2.27-1.02,3.5-1.25c0.25-0.05,0.5-0.04,0.74-0.14c0.31,0,0.63,0,0.94,0
			C40.6,10,40.75,10.07,40.91,10.05z M28.57,43.61c1.84,0,3.47-0.05,5.1-0.16c0.2-0.01,0.31-0.09,0.42-0.25
			c1.75-2.66,3.34-5.42,4.76-8.27c0.1-0.21,0.09-0.37-0.01-0.57c-1.07-2.11-2.21-4.17-3.46-6.17c-0.43-0.7-0.89-1.38-1.34-2.07
			c-0.08-0.13-0.17-0.19-0.33-0.2c-1.26-0.08-2.52-0.14-3.79-0.17c-1.98-0.03-3.96,0.03-5.93,0.16c-0.16,0.01-0.24,0.08-0.32,0.2
			c-1.8,2.66-3.4,5.45-4.81,8.34c-0.08,0.17-0.08,0.3,0,0.47c1.41,2.89,3.02,5.66,4.82,8.33c0.1,0.15,0.21,0.21,0.38,0.22
			c0.43,0.02,0.86,0.06,1.29,0.07C26.5,43.57,27.64,43.63,28.57,43.61z M3.51,34.62c0,0.23,0.03,0.45,0.09,0.65
			c0.18,0.6,0.52,1.12,0.91,1.59c0.75,0.9,1.66,1.6,2.64,2.22c1.55,0.98,3.21,1.71,4.94,2.3c0.38,0.13,0.77,0.23,1.15,0.36
			c0.14,0.05,0.2,0.01,0.23-0.12c0.01-0.03,0.02-0.06,0.03-0.08c0.69-2.23,1.54-4.39,2.51-6.51c0.11-0.23,0.12-0.42,0.01-0.66
			c-0.56-1.19-1.05-2.4-1.52-3.63c-0.35-0.93-0.68-1.88-0.98-2.83c-0.07-0.22-0.07-0.22-0.24-0.17c-1.98,0.57-3.9,1.29-5.7,2.31
			c-1.01,0.57-1.96,1.23-2.77,2.07c-0.43,0.44-0.8,0.91-1.06,1.47C3.6,33.92,3.5,34.27,3.51,34.62z M14.21,51.08
			c-0.01,0.79,0.07,1.8,0.31,2.8c0.18,0.77,0.45,1.5,0.94,2.13c0.35,0.45,0.8,0.74,1.36,0.86c0.44,0.09,0.89,0.1,1.34,0.05
			c0.9-0.1,1.76-0.37,2.59-0.73c2.43-1.06,4.5-2.64,6.41-4.44c0.14-0.14,0.14-0.14,0-0.3c-0.94-1.02-1.84-2.08-2.7-3.17
			c-0.61-0.77-1.2-1.55-1.76-2.35c-0.1-0.14-0.2-0.21-0.38-0.22c-0.53-0.04-1.05-0.1-1.58-0.15c-1.12-0.11-2.23-0.27-3.34-0.46
			c-0.7-0.12-1.4-0.25-2.1-0.4c-0.21-0.04-0.22-0.04-0.27,0.17c-0.08,0.34-0.16,0.69-0.23,1.03C14.44,47.54,14.22,49.18,14.21,51.08
			z M43.56,50.34c0.01-0.93-0.1-2.01-0.25-3.09c-0.12-0.85-0.29-1.7-0.49-2.53c-0.03-0.13-0.07-0.18-0.22-0.14
			c-0.89,0.21-1.8,0.39-2.7,0.54c-1.45,0.24-2.9,0.44-4.36,0.56c-0.18,0.01-0.3,0.08-0.41,0.23c-1.34,1.93-2.77,3.79-4.35,5.53
			c-0.15,0.17-0.15,0.17,0.01,0.32c0.85,0.81,1.74,1.58,2.68,2.28c1.26,0.94,2.58,1.77,4.05,2.35c0.87,0.34,1.76,0.59,2.71,0.57
			c0.94-0.01,1.66-0.39,2.17-1.18c0.35-0.54,0.59-1.13,0.75-1.74C43.46,52.88,43.56,51.7,43.56,50.34z M17.48,12.43
			c-0.11,0.01-0.3,0.02-0.48,0.04c-0.54,0.07-1.01,0.29-1.39,0.7c-0.4,0.44-0.66,0.97-0.85,1.53c-0.37,1.07-0.49,2.17-0.52,3.29
			c-0.04,1.23,0.07,2.44,0.24,3.66c0.14,1,0.34,1.99,0.58,2.96c0.05,0.21,0.05,0.21,0.25,0.17c1.01-0.22,2.03-0.41,3.05-0.58
			c1.27-0.21,2.56-0.37,3.84-0.49c0.22-0.02,0.35-0.09,0.48-0.27c1.35-1.9,2.81-3.72,4.39-5.43c0.16-0.18,0.2-0.16-0.02-0.36
			c-1-0.94-2.05-1.82-3.18-2.6c-1.23-0.86-2.52-1.61-3.94-2.13C19.16,12.64,18.37,12.45,17.48,12.43z M30.56,17.82
			c0.04,0.05,0.05,0.07,0.07,0.09c0.83,0.9,1.62,1.83,2.39,2.79c0.72,0.9,1.41,1.83,2.08,2.77c0.08,0.11,0.15,0.21,0.32,0.22
			c0.51,0.04,1.01,0.11,1.52,0.16c1.45,0.17,2.89,0.4,4.32,0.69c0.4,0.08,0.8,0.17,1.2,0.26c0.14,0.03,0.22,0.01,0.25-0.15
			c0.03-0.18,0.08-0.36,0.12-0.54c0.47-2.14,0.72-4.3,0.61-6.5c-0.05-0.92-0.18-1.83-0.46-2.71c-0.18-0.55-0.41-1.08-0.76-1.55
			c-0.36-0.48-0.82-0.81-1.42-0.91c-0.58-0.1-1.15-0.06-1.72,0.06c-0.96,0.2-1.85,0.56-2.72,1.01c-1.5,0.77-2.86,1.74-4.14,2.82
			C31.64,16.79,31.1,17.28,30.56,17.82z M54.21,34.67c0-0.27-0.04-0.5-0.11-0.72c-0.13-0.4-0.34-0.75-0.58-1.08
			c-0.62-0.84-1.41-1.49-2.27-2.07c-1.66-1.13-3.47-1.92-5.36-2.57c-0.44-0.15-0.89-0.29-1.34-0.42c-0.23-0.07-0.24-0.07-0.32,0.18
			c-0.01,0.02-0.01,0.04-0.02,0.06c-0.69,2.18-1.53,4.29-2.49,6.36c-0.09,0.19-0.08,0.33,0.01,0.52c0.79,1.67,1.52,3.37,2.13,5.12
			c0.17,0.48,0.34,0.96,0.49,1.44c0.05,0.15,0.11,0.19,0.25,0.14c0.03-0.01,0.06-0.02,0.08-0.03c1.38-0.42,2.72-0.93,4.02-1.56
			c1.34-0.65,2.62-1.41,3.74-2.41c0.62-0.56,1.17-1.18,1.53-1.95C54.12,35.33,54.22,35,54.21,34.67z M36.96,43.14
			c0.25-0.03,0.45-0.04,0.65-0.07c1.35-0.19,2.69-0.41,4.02-0.69c0.11-0.02,0.21-0.05,0.32-0.07c0.12-0.02,0.18-0.08,0.13-0.2
			c-0.01-0.04-0.03-0.07-0.04-0.11c-0.48-1.49-1.05-2.95-1.68-4.38c-0.02-0.05-0.02-0.14-0.13-0.15
			C39.22,39.38,38.13,41.26,36.96,43.14z M32.21,45.91c-2.22,0.09-4.37,0.08-6.52,0.02c0,0.11,0.06,0.16,0.11,0.22
			c0.88,1.15,1.81,2.26,2.77,3.34c0.1,0.11,0.2,0.21,0.3,0.32c0.06,0.06,0.11,0.07,0.17,0c0.05-0.05,0.09-0.1,0.14-0.15
			c0.87-0.98,1.7-1.99,2.5-3.04C31.84,46.41,32,46.19,32.21,45.91z M17.52,37.5c-0.05,0.09-0.07,0.13-0.09,0.16
			c-0.61,1.47-1.17,2.96-1.65,4.48c-0.01,0.04-0.02,0.08-0.03,0.11c-0.02,0.07,0,0.11,0.08,0.13c0.06,0.01,0.11,0.03,0.17,0.04
			c1.51,0.31,3.04,0.56,4.57,0.72c0.06,0.01,0.13,0.05,0.2-0.04C19.61,41.31,18.54,39.46,17.52,37.5z M25.6,23.45
			c2.21-0.09,4.35-0.09,6.48,0c0.01-0.12-0.06-0.17-0.1-0.23c-0.75-1-1.55-1.97-2.37-2.91c-0.2-0.23-0.41-0.45-0.61-0.68
			c-0.07-0.08-0.14-0.09-0.21,0c-0.04,0.05-0.08,0.09-0.12,0.13c-0.81,0.89-1.59,1.81-2.34,2.75C26.09,22.8,25.87,23.1,25.6,23.45z
			 M36.99,26.29c1.17,1.84,2.22,3.69,3.25,5.6c0.05-0.11,0.08-0.16,0.1-0.21c0.59-1.37,1.11-2.77,1.57-4.2
			c0.11-0.35,0.11-0.35-0.25-0.43c-1.3-0.28-2.61-0.51-3.92-0.7C37.51,26.32,37.28,26.25,36.99,26.29z M17.51,31.82
			c1.01-1.88,2.07-3.72,3.19-5.54c-1.67,0.18-3.31,0.45-4.95,0.83C16.25,28.73,16.83,30.29,17.51,31.82z"/>
		<path class="st3" d="M39.5,10c-0.24,0.1-0.49,0.09-0.74,0.14c-1.23,0.24-2.39,0.69-3.5,1.25c-1.68,0.86-3.21,1.95-4.65,3.17
			c-0.52,0.44-1.03,0.9-1.53,1.38c-0.21,0.2-0.18,0.2-0.39,0c-1.2-1.12-2.47-2.17-3.84-3.1c-1.34-0.91-2.75-1.69-4.29-2.22
			c-1-0.34-2.01-0.57-3.07-0.57c-2.03,0.01-3.52,0.92-4.47,2.7c-0.51,0.96-0.79,2-0.97,3.06c-0.2,1.2-0.22,2.42-0.17,3.63
			c0.07,1.54,0.28,3.06,0.6,4.56c0.08,0.37,0.17,0.74,0.25,1.12c0.06,0.26,0.06,0.26-0.21,0.34c-1.12,0.33-2.22,0.7-3.3,1.14
			c-1.76,0.73-3.45,1.6-4.95,2.78c-1,0.79-1.88,1.68-2.5,2.81c-0.45,0.82-0.71,1.7-0.65,2.64c0.05,0.92,0.37,1.76,0.84,2.54
			c0.66,1.08,1.54,1.95,2.52,2.72c1.63,1.27,3.44,2.2,5.35,2.97c0.88,0.35,1.78,0.66,2.69,0.93c0.22,0.07,0.22,0.07,0.17,0.3
			c-0.26,1.1-0.49,2.22-0.64,3.34c-0.23,1.73-0.32,3.47-0.12,5.21c0.15,1.32,0.45,2.6,1.1,3.78c0.57,1.03,1.35,1.84,2.46,2.3
			c0.49,0.2,1.01,0.29,1.54,0.37c0,0.02,0,0.03,0,0.05c-5.35,0-10.7,0-16.05,0C1,42.91,1,26.45,1,10C13.83,10,26.67,10,39.5,10z"/>
		<path class="st4" d="M18.16,59.32c2.08-0.21,3.94-1.01,5.72-2.06c1.77-1.05,3.37-2.32,4.85-3.73c0.01-0.01,0.03-0.03,0.04-0.04
			c0.17-0.17,0.16-0.2,0.37,0c1.18,1.12,2.42,2.17,3.76,3.08c1.39,0.95,2.84,1.76,4.44,2.29c0.7,0.23,1.41,0.38,2.14,0.47
			c0,0.01,0,0.03,0,0.04c-7.11,0-14.22,0-21.34,0C18.16,59.35,18.16,59.33,18.16,59.32z"/>
		<path class="st5" d="M39.5,59.36c0-0.01,0-0.03,0-0.04c0.43,0,0.86,0,1.29-0.01c0,0.02,0,0.03,0,0.05
			C40.36,59.36,39.93,59.36,39.5,59.36z"/>
		<path class="st5" d="M18.16,59.32c0,0.02,0,0.03,0,0.05c-0.37,0-0.74,0-1.12,0c0-0.02,0-0.03,0-0.05
			C17.42,59.31,17.79,59.32,18.16,59.32z"/>
		<path class="st5" d="M40.91,10.05C40.75,10.07,40.6,10,40.44,10c0.16,0,0.31,0,0.47,0C40.91,10.02,40.91,10.03,40.91,10.05z"/>
		<path class="st6" d="M75.73,36.63c2.09,3.16,4.16,6.28,6.23,9.41c-0.11,0.08-0.2,0.05-0.28,0.05c-0.95,0-1.9,0-2.85,0.01
			c-0.19,0-0.3-0.06-0.4-0.22c-1.68-2.64-3.37-5.28-5.05-7.93c-0.2-0.31-0.4-0.62-0.6-0.94c-0.07-0.11-0.15-0.16-0.28-0.16
			c-1.42,0-2.84,0-4.26,0c-0.22,0-0.23,0.01-0.23,0.29c0,2.61,0,5.23,0,7.84c0,0.29,0,0.59,0,0.88c0,0.21-0.01,0.22-0.21,0.22
			c-0.82,0-1.65,0-2.47,0c-0.2,0-0.2-0.01-0.21-0.22c0-0.06,0-0.12,0-0.18c0-7.49,0-14.98,0-22.47c0-0.44-0.06-0.4,0.38-0.4
			c2.91,0,5.82,0,8.73,0c1.16,0,2.31,0.13,3.39,0.59c2.34,0.97,3.69,2.73,4.08,5.22c0.19,1.22,0.12,2.42-0.27,3.6
			c-0.67,2.01-2.03,3.32-4.01,4.02C76.89,36.45,76.34,36.54,75.73,36.63z M68.01,29.85C68.01,29.85,68.01,29.85,68.01,29.85
			c0,1.4,0,2.8,0,4.2c0,0.27,0,0.27,0.27,0.27c1.94,0,3.88,0,5.82,0c0.6,0,1.19-0.08,1.76-0.28c1.3-0.46,2.21-1.31,2.66-2.62
			c0.27-0.77,0.32-1.57,0.18-2.37c-0.25-1.52-1.09-2.59-2.5-3.21c-0.72-0.32-1.49-0.41-2.27-0.41c-1.89-0.01-3.78,0-5.67,0
			c-0.26,0-0.26,0-0.26,0.26c0,0.04,0,0.08,0,0.12C68.01,27.14,68.01,28.5,68.01,29.85z"/>
		<path class="st7" d="M98.28,42.23c0.07,0.02,0.09,0.08,0.12,0.12c0.34,0.46,0.67,0.91,1.01,1.37c0.13,0.17,0.13,0.18-0.04,0.33
			c-0.78,0.73-1.66,1.31-2.65,1.72c-1.11,0.46-2.28,0.69-3.48,0.73c-1.06,0.03-2.11-0.06-3.13-0.37c-2.48-0.77-4.26-2.35-5.19-4.78
			c-1.05-2.74-0.98-5.48,0.38-8.1c1.24-2.39,3.22-3.88,5.89-4.3c2.29-0.36,4.43,0.06,6.29,1.53c1.19,0.93,1.98,2.15,2.5,3.56
			c0.52,1.39,0.68,2.83,0.65,4.3c0,0.16-0.06,0.21-0.21,0.2c-0.08-0.01-0.16,0-0.23,0c-4.26,0-8.52,0-12.78,0
			c-0.4,0-0.41-0.08-0.35,0.4c0.17,1.38,0.68,2.61,1.64,3.63c0.86,0.92,1.92,1.48,3.16,1.68c2.02,0.32,3.87-0.11,5.54-1.3
			c0.25-0.18,0.48-0.37,0.7-0.58C98.16,42.32,98.2,42.24,98.28,42.23z M92.48,36.57c1.76,0,3.53,0,5.29,0c0.27,0,0.28,0,0.26-0.27
			c-0.05-0.7-0.2-1.37-0.48-2.02c-0.52-1.19-1.31-2.13-2.49-2.71c-0.96-0.48-1.99-0.62-3.05-0.54c-1.51,0.12-2.73,0.77-3.67,1.95
			c-0.75,0.95-1.17,2.04-1.31,3.25c-0.05,0.41-0.01,0.34,0.29,0.34C89.04,36.57,90.76,36.57,92.48,36.57z"/>
		<path class="st7" d="M115.3,37.62c0.09-0.06,0.08-0.11,0.08-0.14c0-1,0.02-2-0.01-3c-0.03-1.04-0.47-1.89-1.31-2.51
			c-0.56-0.41-1.18-0.65-1.86-0.75c-2.35-0.35-4.37,0.31-6.03,2.03c-0.05,0.05-0.09,0.1-0.14,0.15c-0.01,0.01-0.03,0.01-0.06,0.02
			c-0.08-0.03-0.11-0.11-0.15-0.17c-0.32-0.47-0.64-0.94-0.95-1.41c-0.12-0.19-0.12-0.19,0.02-0.34c1.36-1.37,2.98-2.23,4.9-2.52
			c1.23-0.18,2.46-0.17,3.68,0.06c0.71,0.14,1.4,0.37,2.03,0.74c1.37,0.8,2.14,2,2.4,3.55c0.08,0.46,0.1,0.93,0.1,1.4
			c0,3.67,0,7.34,0,11.02c0,0.39,0.04,0.37-0.36,0.37c-0.67,0-1.33,0-2,0c-0.27,0-0.27,0-0.27-0.28c0-0.43,0-0.86,0-1.29
			c0-0.09,0-0.17,0-0.25c-0.11-0.02-0.14,0.05-0.18,0.1c-1.16,1.18-2.57,1.83-4.19,2.05c-1.09,0.15-2.17,0.11-3.22-0.24
			c-1.35-0.46-2.43-1.25-3.15-2.49c-0.56-0.97-0.75-2.03-0.69-3.14c0.04-0.71,0.19-1.39,0.49-2.04c0.58-1.25,1.54-2.1,2.8-2.62
			c1.03-0.42,2.11-0.56,3.22-0.48c0.77,0.06,1.51,0.18,2.24,0.44c0.96,0.34,1.8,0.87,2.5,1.6C115.24,37.51,115.27,37.57,115.3,37.62
			z M115.38,40.95c0-0.42-0.02-0.84,0.01-1.26c0.02-0.28-0.09-0.48-0.27-0.68c-0.69-0.74-1.53-1.21-2.5-1.47
			c-1.16-0.31-2.32-0.37-3.47,0c-2.33,0.77-2.98,2.99-2.29,4.77c0.41,1.07,1.23,1.73,2.29,2.08c1.13,0.37,2.28,0.32,3.41,0.01
			c1.04-0.28,1.95-0.8,2.65-1.65c0.11-0.14,0.17-0.27,0.16-0.45C115.37,41.86,115.38,41.4,115.38,40.95z"/>
		<path class="st8" d="M130.8,46.53c-2.05-0.01-3.86-0.56-5.41-1.84c-1.4-1.15-2.3-2.64-2.75-4.38c-0.54-2.1-0.49-4.2,0.31-6.23
			c1.09-2.76,3.09-4.48,6.01-5.07c1.66-0.33,3.32-0.24,4.91,0.39c1.17,0.46,2.11,1.23,2.88,2.21c0.13,0.16,0.12,0.17-0.03,0.3
			c-0.48,0.43-0.96,0.87-1.44,1.3c-0.14,0.13-0.15,0.13-0.26-0.02c-0.35-0.44-0.74-0.84-1.2-1.15c-0.73-0.5-1.54-0.76-2.42-0.83
			c-0.83-0.06-1.64,0-2.44,0.26c-1.49,0.49-2.54,1.48-3.22,2.86c-0.46,0.94-0.67,1.94-0.71,2.98c-0.04,1.09,0.09,2.15,0.48,3.17
			c0.59,1.52,1.57,2.7,3.12,3.29c1.82,0.7,3.61,0.62,5.26-0.53c0.43-0.3,0.79-0.67,1.11-1.08c0.13-0.16,0.14-0.17,0.29-0.02
			c0.48,0.44,0.96,0.89,1.45,1.33c0.12,0.11,0.11,0.18,0.02,0.29c-0.76,0.94-1.66,1.69-2.78,2.16c-0.83,0.35-1.69,0.54-2.59,0.59
			C131.17,46.51,130.96,46.52,130.8,46.53z"/>
		<path class="st9" d="M147.2,43.51c0.06,0.03,0.06,0.09,0.08,0.14c0.2,0.52,0.41,1.04,0.61,1.56c0.09,0.23,0.09,0.24-0.1,0.4
			c-0.38,0.32-0.81,0.55-1.28,0.69c-1.01,0.3-2.03,0.32-3.04,0.04c-1.12-0.32-1.82-1.06-2.15-2.17c-0.18-0.59-0.22-1.19-0.22-1.8
			c0-3.47,0-6.93,0-10.4c0-0.47,0.05-0.4-0.4-0.41c-0.71,0-1.41,0-2.12,0c-0.26,0-0.26,0-0.26-0.25c0-0.61,0-1.21,0-1.82
			c0-0.22,0-0.22,0.23-0.23c0.73,0,1.47,0,2.2,0c0.07,0,0.14,0,0.21,0c0.1,0,0.15-0.04,0.14-0.14c0-0.08,0-0.16,0-0.23
			c0-1.29,0-2.58,0-3.88c0-0.08,0-0.16,0-0.23c0-0.08,0.05-0.12,0.13-0.12c0.05,0,0.1,0,0.15,0c0.71,0,1.41,0,2.12,0
			c0.27,0,0.27,0,0.27,0.28c0,1.16,0,2.31,0,3.47c0,0.18,0,0.35,0,0.53c0,0.38-0.02,0.34,0.33,0.34c0.91,0,1.82,0,2.73,0
			c0.07,0,0.14,0,0.21,0c0.11-0.01,0.15,0.05,0.15,0.16c0,0.66-0.01,1.31,0,1.97c0,0.19-0.11,0.17-0.23,0.17c-0.87,0-1.74,0-2.61,0
			c-0.13,0-0.25,0.01-0.38,0c-0.13-0.01-0.2,0.04-0.19,0.18c0.01,0.06,0,0.12,0,0.18c0,3.31,0,6.62,0,9.93c0,0.28,0,0.57,0.06,0.85
			c0.23,1.18,1.05,1.7,2.22,1.41c0.38-0.09,0.72-0.26,1.01-0.51c0.04-0.03,0.08-0.06,0.11-0.09
			C147.17,43.51,147.18,43.51,147.2,43.51z"/>
		<path class="st10" d="M28.86,39.58c-2.73,0.03-4.98-2.27-4.95-4.98c0.03-2.74,2.24-4.92,4.99-4.92c2.7,0,4.95,2.27,4.92,4.98
			C33.78,37.39,31.58,39.59,28.86,39.58z"/>
	</g>
</g>
<g id="Layer_2">
	<g>
		<path class="st11" d="M79.81,67.29c-1.71-0.3-3.42-0.59-5.12-0.89c-3.52-0.63-7.04-1.27-10.56-1.92
			c-2.83-0.52-5.65-1.04-8.47-1.56c-3.54-0.64-7.08-1.27-10.61-1.93c-1.44-0.27-1.21,0.06-1.05-1.39c0.42-3.61,0.97-7.2,1.45-10.8
			c0.46-3.46,0.89-6.92,1.34-10.38c0.3-2.24,0.63-4.47,0.93-6.71c0.31-2.31,0.6-4.62,0.91-6.93c0.04-0.32,0.11-0.64,0.19-0.95
			c0.12-0.48,0.44-0.78,0.91-0.92c1.95-0.6,3.9-1.2,5.86-1.77c0.52-0.15,0.83-0.38,0.99-0.96c0.81-3.06,2-5.96,3.79-8.58
			c1.38-2.03,3.05-3.77,5.34-4.78c1.58-0.7,3.24-1.16,5-0.66c0.81,0.23,1.44,0.75,1.99,1.36c0.15,0.17,0.29,0.28,0.54,0.28
			c2.37,0.01,3.99,1.28,5.21,3.17c0.51,0.79,0.94,1.63,1.24,2.52c0.11,0.32,0.27,0.3,0.54,0.22c0.76-0.21,1.48-0.61,2.31-0.49
			c-0.04,1.26-0.03,2.53-0.13,3.79c-0.05,0.69-0.06,1.37-0.1,2.05c-0.13,2.19-0.31,4.39-0.41,6.58c-0.07,1.6-0.14,3.21-0.22,4.81
			c-0.1,1.98-0.23,3.96-0.32,5.94c-0.08,1.66-0.13,3.32-0.22,4.97c-0.1,1.94-0.22,3.89-0.32,5.83c-0.08,1.66-0.12,3.32-0.23,4.97
			c-0.11,1.75-0.12,3.5-0.25,5.24c-0.07,0.83-0.05,1.66-0.1,2.49C80.09,62.36,79.95,64.82,79.81,67.29z M68.01,26.97
			c-1.87,0.01-3.91,0.34-5.85,1.18c-1.95,0.85-3.55,2.11-4.75,3.88c-1.25,1.84-1.84,3.88-1.87,6.07c-0.03,1.92,0.49,3.67,1.81,5.14
			c0.96,1.07,2.13,1.89,3.22,2.81c0.9,0.76,1.69,1.58,1.93,2.8c0.26,1.3-0.55,2.53-1.84,2.82c-0.87,0.2-1.69,0.01-2.5-0.25
			c-1.39-0.45-2.62-1.21-3.77-2.09c-0.3-0.23-0.4-0.17-0.5,0.16c-0.47,1.5-0.95,2.99-1.42,4.49c-0.06,0.2-0.13,0.42,0.09,0.6
			c0.39,0.32,0.75,0.68,1.16,0.98c2.7,1.98,5.74,2.77,9.05,2.49c2.17-0.18,4.04-1.09,5.5-2.73c1.53-1.71,2.2-3.75,2.37-6.03
			c0.23-3.07-0.91-5.48-3.17-7.47c-1.28-1.12-2.74-1.99-4.03-3.09c-0.82-0.7-1.53-1.47-1.21-2.69c0.37-1.41,1.43-1.97,2.73-2.2
			c1.9-0.33,3.71,0.13,5.45,0.82c0.47,0.19,0.51-0.02,0.61-0.32c0.68-1.98,1.34-3.97,2.05-5.94c0.15-0.42,0.1-0.59-0.33-0.73
			C71.26,27.16,69.76,26.97,68.01,26.97z M70.38,8.42c-0.37-0.27-0.71-0.34-1.09-0.34c-0.92,0.01-1.79,0.21-2.63,0.58
			c-2,0.9-3.39,2.48-4.56,4.26c-1.36,2.08-2.32,4.36-3.05,6.73c-0.03,0.11-0.15,0.24-0.04,0.35c0.1,0.1,0.24,0.02,0.36-0.02
			c1.42-0.42,2.83-0.86,4.25-1.28c0.21-0.06,0.27-0.21,0.32-0.39c0.25-1.11,0.54-2.21,0.95-3.28c0.73-1.89,1.73-3.6,3.22-5.01
			C68.77,9.39,69.54,8.91,70.38,8.42z M72.65,14.88c-0.04-1.27-0.2-2.52-0.54-3.74c-0.26-0.93-0.31-0.93-1.14-0.4
			c-2.46,1.58-3.67,3.99-4.49,6.67c-0.13,0.43,0.12,0.41,0.4,0.33c1.59-0.48,3.18-0.96,4.76-1.46
			C72.67,15.95,72.66,15.93,72.65,14.88z M74.06,9.95c0.59,1.63,0.69,3.25,0.73,4.88c0.01,0.34,0.04,0.51,0.45,0.38
			c0.74-0.25,1.48-0.47,2.23-0.68c0.27-0.08,0.36-0.19,0.26-0.46c-0.41-1.07-0.88-2.11-1.64-2.98
			C75.57,10.51,74.96,10.02,74.06,9.95z"/>
		<path class="st12" d="M79.81,67.29c0.14-2.46,0.28-4.93,0.42-7.39c0.05-0.83,0.03-1.66,0.1-2.49c0.14-1.74,0.14-3.5,0.25-5.24
			c0.1-1.66,0.14-3.32,0.23-4.97c0.1-1.94,0.22-3.89,0.32-5.83c0.09-1.66,0.14-3.32,0.22-4.97c0.1-1.98,0.22-3.96,0.32-5.94
			c0.08-1.6,0.15-3.21,0.22-4.81c0.09-2.2,0.27-4.39,0.41-6.58c0.04-0.68,0.04-1.37,0.1-2.05c0.1-1.26,0.09-2.53,0.13-3.79
			c0.34-0.04,0.54,0.19,0.74,0.39c1.07,1.03,2.13,2.06,3.18,3.1c0.2,0.2,0.41,0.32,0.7,0.34c1.44,0.1,2.88,0.22,4.33,0.32
			c0.79,0.05,0.93,0.17,1.04,0.95c0.6,3.96,1.19,7.93,1.79,11.89c0.73,4.78,1.47,9.57,2.2,14.35c0.76,5,1.52,10,2.28,15
			c0.17,1.11,0.31,2.22,0.49,3.32c0.05,0.29-0.02,0.36-0.29,0.42c-3.57,0.74-7.13,1.51-10.7,2.26c-2.74,0.58-5.47,1.16-8.21,1.73
			C79.99,67.3,79.9,67.29,79.81,67.29z"/>
	</g>
</g>
</svg>
