<?xml version="1.0" encoding="utf-8"?>
<!-- Generator: Adobe Illustrator 25.4.1, SVG Export Plug-In . SVG Version: 6.00 Build 0)  -->
<svg version="1.1" xmlns="http://www.w3.org/2000/svg" xmlns:xlink="http://www.w3.org/1999/xlink" x="0px" y="0px"
	 viewBox="0 0 150 70" style="enable-background:new 0 0 150 70;" xml:space="preserve">
<style type="text/css">
	.st0{fill:#384438;}
	.st1{display:none;}
	.st2{display:inline;}
	.st3{fill:#02D8FF;}
	.st4{fill:#FFFFFF;}
	.st5{fill:#FEFFFF;}
	.st6{fill:#FCFFFF;}
	.st7{fill:#0AD9FE;}
	.st8{fill:#0CD9FE;}
	.st9{fill:#0BD9FE;}
	.st10{fill:#0CDAFE;}
	.st11{fill:#01D8FF;}
	.st12{fill:#95BE46;}
	.st13{fill:#5E8E3E;}
	.st14{fill:#070707;}
	.st15{fill:#4B4543;}
	.st16{fill:#4D4745;}
	.st17{fill:#13739B;}
	.st18{fill:#4C4644;}
	.st19{fill:#47413F;}
	.st20{fill:#46403E;}
</style>
<g id="Layer_5">
</g>
<g id="Layer_1" class="st1">
	<g class="st2">
		<path class="st3" d="M40.91,10.05c0.3,0.07,0.6,0.11,0.89,0.21c1.19,0.38,2.04,1.17,2.67,2.22c0.56,0.93,0.88,1.94,1.08,2.99
			c0.32,1.71,0.35,3.44,0.2,5.18c-0.13,1.53-0.39,3.05-0.74,4.54c-0.07,0.28-0.04,0.26,0.2,0.33c1.65,0.48,3.25,1.08,4.79,1.83
			c1.45,0.71,2.82,1.54,4.03,2.61c0.75,0.66,1.4,1.4,1.89,2.27c0.91,1.64,0.88,3.27-0.03,4.89c-0.6,1.08-1.45,1.95-2.4,2.71
			c-1.44,1.17-3.06,2.04-4.75,2.78c-1.1,0.48-2.22,0.88-3.36,1.23c-0.05,0.01-0.09,0.04-0.14,0.04c-0.16,0.02-0.18,0.11-0.14,0.25
			c0.14,0.54,0.25,1.09,0.35,1.63c0.38,1.98,0.55,3.98,0.43,5.99c-0.08,1.44-0.33,2.86-0.92,4.19c-0.33,0.76-0.76,1.45-1.36,2.04
			c-0.69,0.67-1.51,1.08-2.45,1.25c-0.13,0.02-0.25,0.05-0.38,0.07c-0.43,0-0.86,0-1.29,0.01c-0.73-0.09-1.45-0.24-2.14-0.47
			c-1.6-0.53-3.06-1.34-4.44-2.29c-1.35-0.92-2.58-1.97-3.76-3.08c-0.21-0.2-0.2-0.17-0.37,0c-0.01,0.01-0.03,0.03-0.04,0.04
			c-1.49,1.41-3.09,2.68-4.85,3.73c-1.77,1.05-3.64,1.85-5.72,2.06c-0.37,0-0.74,0-1.12,0c-0.52-0.08-1.04-0.17-1.54-0.37
			c-1.11-0.46-1.89-1.27-2.46-2.3c-0.65-1.18-0.95-2.46-1.1-3.78c-0.2-1.74-0.11-3.48,0.12-5.21c0.15-1.13,0.38-2.24,0.64-3.34
			c0.05-0.23,0.05-0.23-0.17-0.3c-0.91-0.27-1.81-0.57-2.69-0.93c-1.91-0.77-3.72-1.7-5.35-2.97c-0.99-0.77-1.87-1.64-2.52-2.72
			c-0.48-0.78-0.79-1.62-0.84-2.54c-0.05-0.94,0.2-1.82,0.65-2.64c0.62-1.13,1.5-2.03,2.5-2.81c1.5-1.18,3.19-2.06,4.95-2.78
			c1.08-0.44,2.18-0.81,3.3-1.14c0.27-0.08,0.26-0.08,0.21-0.34c-0.08-0.37-0.17-0.74-0.25-1.12c-0.33-1.5-0.53-3.03-0.6-4.56
			c-0.06-1.21-0.03-2.43,0.17-3.63c0.17-1.07,0.45-2.1,0.97-3.06c0.96-1.79,2.45-2.69,4.47-2.7c1.06-0.01,2.08,0.22,3.07,0.57
			c1.54,0.53,2.95,1.31,4.29,2.22c1.37,0.92,2.63,1.97,3.84,3.1c0.21,0.19,0.17,0.2,0.39,0c0.5-0.47,1-0.93,1.53-1.38
			c1.44-1.22,2.97-2.31,4.65-3.17c1.11-0.57,2.27-1.02,3.5-1.25c0.25-0.05,0.5-0.04,0.74-0.14c0.31,0,0.63,0,0.94,0
			C40.6,10,40.75,10.07,40.91,10.05z M28.57,43.61c1.84,0,3.47-0.05,5.1-0.16c0.2-0.01,0.31-0.09,0.42-0.25
			c1.75-2.66,3.34-5.42,4.76-8.27c0.1-0.21,0.09-0.37-0.01-0.57c-1.07-2.11-2.21-4.17-3.46-6.17c-0.43-0.7-0.89-1.38-1.34-2.07
			c-0.08-0.13-0.17-0.19-0.33-0.2c-1.26-0.08-2.52-0.14-3.79-0.17c-1.98-0.03-3.96,0.03-5.93,0.16c-0.16,0.01-0.24,0.08-0.32,0.2
			c-1.8,2.66-3.4,5.45-4.81,8.34c-0.08,0.17-0.08,0.3,0,0.47c1.41,2.89,3.02,5.66,4.82,8.33c0.1,0.15,0.21,0.21,0.38,0.22
			c0.43,0.02,0.86,0.06,1.29,0.07C26.5,43.57,27.64,43.63,28.57,43.61z M3.51,34.62c0,0.23,0.03,0.45,0.09,0.65
			c0.18,0.6,0.52,1.12,0.91,1.59c0.75,0.9,1.66,1.6,2.64,2.22c1.55,0.98,3.21,1.71,4.94,2.3c0.38,0.13,0.77,0.23,1.15,0.36
			c0.14,0.05,0.2,0.01,0.23-0.12c0.01-0.03,0.02-0.06,0.03-0.08c0.69-2.23,1.54-4.39,2.51-6.51c0.11-0.23,0.12-0.42,0.01-0.66
			c-0.56-1.19-1.05-2.4-1.52-3.63c-0.35-0.93-0.68-1.88-0.98-2.83c-0.07-0.22-0.07-0.22-0.24-0.17c-1.98,0.57-3.9,1.29-5.7,2.31
			c-1.01,0.57-1.96,1.23-2.77,2.07c-0.43,0.44-0.8,0.91-1.06,1.47C3.6,33.92,3.5,34.27,3.51,34.62z M14.21,51.08
			c-0.01,0.79,0.07,1.8,0.31,2.8c0.18,0.77,0.45,1.5,0.94,2.13c0.35,0.45,0.8,0.74,1.36,0.86c0.44,0.09,0.89,0.1,1.34,0.05
			c0.9-0.1,1.76-0.37,2.59-0.73c2.43-1.06,4.5-2.64,6.41-4.44c0.14-0.14,0.14-0.14,0-0.3c-0.94-1.02-1.84-2.08-2.7-3.17
			c-0.61-0.77-1.2-1.55-1.76-2.35c-0.1-0.14-0.2-0.21-0.38-0.22c-0.53-0.04-1.05-0.1-1.58-0.15c-1.12-0.11-2.23-0.27-3.34-0.46
			c-0.7-0.12-1.4-0.25-2.1-0.4c-0.21-0.04-0.22-0.04-0.27,0.17c-0.08,0.34-0.16,0.69-0.23,1.03C14.44,47.54,14.22,49.18,14.21,51.08
			z M43.56,50.34c0.01-0.93-0.1-2.01-0.25-3.09c-0.12-0.85-0.29-1.7-0.49-2.53c-0.03-0.13-0.07-0.18-0.22-0.14
			c-0.89,0.21-1.8,0.39-2.7,0.54c-1.45,0.24-2.9,0.44-4.36,0.56c-0.18,0.01-0.3,0.08-0.41,0.23c-1.34,1.93-2.77,3.79-4.35,5.53
			c-0.15,0.17-0.15,0.17,0.01,0.32c0.85,0.81,1.74,1.58,2.68,2.28c1.26,0.94,2.58,1.77,4.05,2.35c0.87,0.34,1.76,0.59,2.71,0.57
			c0.94-0.01,1.66-0.39,2.17-1.18c0.35-0.54,0.59-1.13,0.75-1.74C43.46,52.88,43.56,51.7,43.56,50.34z M17.48,12.43
			c-0.11,0.01-0.3,0.02-0.48,0.04c-0.54,0.07-1.01,0.29-1.39,0.7c-0.4,0.44-0.66,0.97-0.85,1.53c-0.37,1.07-0.49,2.17-0.52,3.29
			c-0.04,1.23,0.07,2.44,0.24,3.66c0.14,1,0.34,1.99,0.58,2.96c0.05,0.21,0.05,0.21,0.25,0.17c1.01-0.22,2.03-0.41,3.05-0.58
			c1.27-0.21,2.56-0.37,3.84-0.49c0.22-0.02,0.35-0.09,0.48-0.27c1.35-1.9,2.81-3.72,4.39-5.43c0.16-0.18,0.2-0.16-0.02-0.36
			c-1-0.94-2.05-1.82-3.18-2.6c-1.23-0.86-2.52-1.61-3.94-2.13C19.16,12.64,18.37,12.45,17.48,12.43z M30.56,17.82
			c0.04,0.05,0.05,0.07,0.07,0.09c0.83,0.9,1.62,1.83,2.39,2.79c0.72,0.9,1.41,1.83,2.08,2.77c0.08,0.11,0.15,0.21,0.32,0.22
			c0.51,0.04,1.01,0.11,1.52,0.16c1.45,0.17,2.89,0.4,4.32,0.69c0.4,0.08,0.8,0.17,1.2,0.26c0.14,0.03,0.22,0.01,0.25-0.15
			c0.03-0.18,0.08-0.36,0.12-0.54c0.47-2.14,0.72-4.3,0.61-6.5c-0.05-0.92-0.18-1.83-0.46-2.71c-0.18-0.55-0.41-1.08-0.76-1.55
			c-0.36-0.48-0.82-0.81-1.42-0.91c-0.58-0.1-1.15-0.06-1.72,0.06c-0.96,0.2-1.85,0.56-2.72,1.01c-1.5,0.77-2.86,1.74-4.14,2.82
			C31.64,16.79,31.1,17.28,30.56,17.82z M54.21,34.67c0-0.27-0.04-0.5-0.11-0.72c-0.13-0.4-0.34-0.75-0.58-1.08
			c-0.62-0.84-1.41-1.49-2.27-2.07c-1.66-1.13-3.47-1.92-5.36-2.57c-0.44-0.15-0.89-0.29-1.34-0.42c-0.23-0.07-0.24-0.07-0.32,0.18
			c-0.01,0.02-0.01,0.04-0.02,0.06c-0.69,2.18-1.53,4.29-2.49,6.36c-0.09,0.19-0.08,0.33,0.01,0.52c0.79,1.67,1.52,3.37,2.13,5.12
			c0.17,0.48,0.34,0.96,0.49,1.44c0.05,0.15,0.11,0.19,0.25,0.14c0.03-0.01,0.06-0.02,0.08-0.03c1.38-0.42,2.72-0.93,4.02-1.56
			c1.34-0.65,2.62-1.41,3.74-2.41c0.62-0.56,1.17-1.18,1.53-1.95C54.12,35.33,54.22,35,54.21,34.67z M36.96,43.14
			c0.25-0.03,0.45-0.04,0.65-0.07c1.35-0.19,2.69-0.41,4.02-0.69c0.11-0.02,0.21-0.05,0.32-0.07c0.12-0.02,0.18-0.08,0.13-0.2
			c-0.01-0.04-0.03-0.07-0.04-0.11c-0.48-1.49-1.05-2.95-1.68-4.38c-0.02-0.05-0.02-0.14-0.13-0.15
			C39.22,39.38,38.13,41.26,36.96,43.14z M32.21,45.91c-2.22,0.09-4.37,0.08-6.52,0.02c0,0.11,0.06,0.16,0.11,0.22
			c0.88,1.15,1.81,2.26,2.77,3.34c0.1,0.11,0.2,0.21,0.3,0.32c0.06,0.06,0.11,0.07,0.17,0c0.05-0.05,0.09-0.1,0.14-0.15
			c0.87-0.98,1.7-1.99,2.5-3.04C31.84,46.41,32,46.19,32.21,45.91z M17.52,37.5c-0.05,0.09-0.07,0.13-0.09,0.16
			c-0.61,1.47-1.17,2.96-1.65,4.48c-0.01,0.04-0.02,0.08-0.03,0.11c-0.02,0.07,0,0.11,0.08,0.13c0.06,0.01,0.11,0.03,0.17,0.04
			c1.51,0.31,3.04,0.56,4.57,0.72c0.06,0.01,0.13,0.05,0.2-0.04C19.61,41.31,18.54,39.46,17.52,37.5z M25.6,23.45
			c2.21-0.09,4.35-0.09,6.48,0c0.01-0.12-0.06-0.17-0.1-0.23c-0.75-1-1.55-1.97-2.37-2.91c-0.2-0.23-0.41-0.45-0.61-0.68
			c-0.07-0.08-0.14-0.09-0.21,0c-0.04,0.05-0.08,0.09-0.12,0.13c-0.81,0.89-1.59,1.81-2.34,2.75C26.09,22.8,25.87,23.1,25.6,23.45z
			 M36.99,26.29c1.17,1.84,2.22,3.69,3.25,5.6c0.05-0.11,0.08-0.16,0.1-0.21c0.59-1.37,1.11-2.77,1.57-4.2
			c0.11-0.35,0.11-0.35-0.25-0.43c-1.3-0.28-2.61-0.51-3.92-0.7C37.51,26.32,37.28,26.25,36.99,26.29z M17.51,31.82
			c1.01-1.88,2.07-3.72,3.19-5.54c-1.67,0.18-3.31,0.45-4.95,0.83C16.25,28.73,16.83,30.29,17.51,31.82z"/>
		<path class="st4" d="M39.5,10c-0.24,0.1-0.49,0.09-0.74,0.14c-1.23,0.24-2.39,0.69-3.5,1.25c-1.68,0.86-3.21,1.95-4.65,3.17
			c-0.52,0.44-1.03,0.9-1.53,1.38c-0.21,0.2-0.18,0.2-0.39,0c-1.2-1.12-2.47-2.17-3.84-3.1c-1.34-0.91-2.75-1.69-4.29-2.22
			c-1-0.34-2.01-0.57-3.07-0.57c-2.03,0.01-3.52,0.92-4.47,2.7c-0.51,0.96-0.79,2-0.97,3.06c-0.2,1.2-0.22,2.42-0.17,3.63
			c0.07,1.54,0.28,3.06,0.6,4.56c0.08,0.37,0.17,0.74,0.25,1.12c0.06,0.26,0.06,0.26-0.21,0.34c-1.12,0.33-2.22,0.7-3.3,1.14
			c-1.76,0.73-3.45,1.6-4.95,2.78c-1,0.79-1.88,1.68-2.5,2.81c-0.45,0.82-0.71,1.7-0.65,2.64c0.05,0.92,0.37,1.76,0.84,2.54
			c0.66,1.08,1.54,1.95,2.52,2.72c1.63,1.27,3.44,2.2,5.35,2.97c0.88,0.35,1.78,0.66,2.69,0.93c0.22,0.07,0.22,0.07,0.17,0.3
			c-0.26,1.1-0.49,2.22-0.64,3.34c-0.23,1.73-0.32,3.47-0.12,5.21c0.15,1.32,0.45,2.6,1.1,3.78c0.57,1.03,1.35,1.84,2.46,2.3
			c0.49,0.2,1.01,0.29,1.54,0.37c0,0.02,0,0.03,0,0.05c-5.35,0-10.7,0-16.05,0C1,42.91,1,26.45,1,10C13.83,10,26.67,10,39.5,10z"/>
		<path class="st5" d="M18.16,59.32c2.08-0.21,3.94-1.01,5.72-2.06c1.77-1.05,3.37-2.32,4.85-3.73c0.01-0.01,0.03-0.03,0.04-0.04
			c0.17-0.17,0.16-0.2,0.37,0c1.18,1.12,2.42,2.17,3.76,3.08c1.39,0.95,2.84,1.76,4.44,2.29c0.7,0.23,1.41,0.38,2.14,0.47
			c0,0.01,0,0.03,0,0.04c-7.11,0-14.22,0-21.34,0C18.16,59.35,18.16,59.33,18.16,59.32z"/>
		<path class="st6" d="M39.5,59.36c0-0.01,0-0.03,0-0.04c0.43,0,0.86,0,1.29-0.01c0,0.02,0,0.03,0,0.05
			C40.36,59.36,39.93,59.36,39.5,59.36z"/>
		<path class="st6" d="M18.16,59.32c0,0.02,0,0.03,0,0.05c-0.37,0-0.74,0-1.12,0c0-0.02,0-0.03,0-0.05
			C17.42,59.31,17.79,59.32,18.16,59.32z"/>
		<path class="st6" d="M40.91,10.05C40.75,10.07,40.6,10,40.44,10c0.16,0,0.31,0,0.47,0C40.91,10.02,40.91,10.03,40.91,10.05z"/>
		<path class="st7" d="M75.73,36.63c2.09,3.16,4.16,6.28,6.23,9.41c-0.11,0.08-0.2,0.05-0.28,0.05c-0.95,0-1.9,0-2.85,0.01
			c-0.19,0-0.3-0.06-0.4-0.22c-1.68-2.64-3.37-5.28-5.05-7.93c-0.2-0.31-0.4-0.62-0.6-0.94c-0.07-0.11-0.15-0.16-0.28-0.16
			c-1.42,0-2.84,0-4.26,0c-0.22,0-0.23,0.01-0.23,0.29c0,2.61,0,5.23,0,7.84c0,0.29,0,0.59,0,0.88c0,0.21-0.01,0.22-0.21,0.22
			c-0.82,0-1.65,0-2.47,0c-0.2,0-0.2-0.01-0.21-0.22c0-0.06,0-0.12,0-0.18c0-7.49,0-14.98,0-22.47c0-0.44-0.06-0.4,0.38-0.4
			c2.91,0,5.82,0,8.73,0c1.16,0,2.31,0.13,3.39,0.59c2.34,0.97,3.69,2.73,4.08,5.22c0.19,1.22,0.12,2.42-0.27,3.6
			c-0.67,2.01-2.03,3.32-4.01,4.02C76.89,36.45,76.34,36.54,75.73,36.63z M68.01,29.85C68.01,29.85,68.01,29.85,68.01,29.85
			c0,1.4,0,2.8,0,4.2c0,0.27,0,0.27,0.27,0.27c1.94,0,3.88,0,5.82,0c0.6,0,1.19-0.08,1.76-0.28c1.3-0.46,2.21-1.31,2.66-2.62
			c0.27-0.77,0.32-1.57,0.18-2.37c-0.25-1.52-1.09-2.59-2.5-3.21c-0.72-0.32-1.49-0.41-2.27-0.41c-1.89-0.01-3.78,0-5.67,0
			c-0.26,0-0.26,0-0.26,0.26c0,0.04,0,0.08,0,0.12C68.01,27.14,68.01,28.5,68.01,29.85z"/>
		<path class="st8" d="M98.28,42.23c0.07,0.02,0.09,0.08,0.12,0.12c0.34,0.46,0.67,0.91,1.01,1.37c0.13,0.17,0.13,0.18-0.04,0.33
			c-0.78,0.73-1.66,1.31-2.65,1.72c-1.11,0.46-2.28,0.69-3.48,0.73c-1.06,0.03-2.11-0.06-3.13-0.37c-2.48-0.77-4.26-2.35-5.19-4.78
			c-1.05-2.74-0.98-5.48,0.38-8.1c1.24-2.39,3.22-3.88,5.89-4.3c2.29-0.36,4.43,0.06,6.29,1.53c1.19,0.93,1.98,2.15,2.5,3.56
			c0.52,1.39,0.68,2.83,0.65,4.3c0,0.16-0.06,0.21-0.21,0.2c-0.08-0.01-0.16,0-0.23,0c-4.26,0-8.52,0-12.78,0
			c-0.4,0-0.41-0.08-0.35,0.4c0.17,1.38,0.68,2.61,1.64,3.63c0.86,0.92,1.92,1.48,3.16,1.68c2.02,0.32,3.87-0.11,5.54-1.3
			c0.25-0.18,0.48-0.37,0.7-0.58C98.16,42.32,98.2,42.24,98.28,42.23z M92.48,36.57c1.76,0,3.53,0,5.29,0c0.27,0,0.28,0,0.26-0.27
			c-0.05-0.7-0.2-1.37-0.48-2.02c-0.52-1.19-1.31-2.13-2.49-2.71c-0.96-0.48-1.99-0.62-3.05-0.54c-1.51,0.12-2.73,0.77-3.67,1.95
			c-0.75,0.95-1.17,2.04-1.31,3.25c-0.05,0.41-0.01,0.34,0.29,0.34C89.04,36.57,90.76,36.57,92.48,36.57z"/>
		<path class="st8" d="M115.3,37.62c0.09-0.06,0.08-0.11,0.08-0.14c0-1,0.02-2-0.01-3c-0.03-1.04-0.47-1.89-1.31-2.51
			c-0.56-0.41-1.18-0.65-1.86-0.75c-2.35-0.35-4.37,0.31-6.03,2.03c-0.05,0.05-0.09,0.1-0.14,0.15c-0.01,0.01-0.03,0.01-0.06,0.02
			c-0.08-0.03-0.11-0.11-0.15-0.17c-0.32-0.47-0.64-0.94-0.95-1.41c-0.12-0.19-0.12-0.19,0.02-0.34c1.36-1.37,2.98-2.23,4.9-2.52
			c1.23-0.18,2.46-0.17,3.68,0.06c0.71,0.14,1.4,0.37,2.03,0.74c1.37,0.8,2.14,2,2.4,3.55c0.08,0.46,0.1,0.93,0.1,1.4
			c0,3.67,0,7.34,0,11.02c0,0.39,0.04,0.37-0.36,0.37c-0.67,0-1.33,0-2,0c-0.27,0-0.27,0-0.27-0.28c0-0.43,0-0.86,0-1.29
			c0-0.09,0-0.17,0-0.25c-0.11-0.02-0.14,0.05-0.18,0.1c-1.16,1.18-2.57,1.83-4.19,2.05c-1.09,0.15-2.17,0.11-3.22-0.24
			c-1.35-0.46-2.43-1.25-3.15-2.49c-0.56-0.97-0.75-2.03-0.69-3.14c0.04-0.71,0.19-1.39,0.49-2.04c0.58-1.25,1.54-2.1,2.8-2.62
			c1.03-0.42,2.11-0.56,3.22-0.48c0.77,0.06,1.51,0.18,2.24,0.44c0.96,0.34,1.8,0.87,2.5,1.6C115.24,37.51,115.27,37.57,115.3,37.62
			z M115.38,40.95c0-0.42-0.02-0.84,0.01-1.26c0.02-0.28-0.09-0.48-0.27-0.68c-0.69-0.74-1.53-1.21-2.5-1.47
			c-1.16-0.31-2.32-0.37-3.47,0c-2.33,0.77-2.98,2.99-2.29,4.77c0.41,1.07,1.23,1.73,2.29,2.08c1.13,0.37,2.28,0.32,3.41,0.01
			c1.04-0.28,1.95-0.8,2.65-1.65c0.11-0.14,0.17-0.27,0.16-0.45C115.37,41.86,115.38,41.4,115.38,40.95z"/>
		<path class="st9" d="M130.8,46.53c-2.05-0.01-3.86-0.56-5.41-1.84c-1.4-1.15-2.3-2.64-2.75-4.38c-0.54-2.1-0.49-4.2,0.31-6.23
			c1.09-2.76,3.09-4.48,6.01-5.07c1.66-0.33,3.32-0.24,4.91,0.39c1.17,0.46,2.11,1.23,2.88,2.21c0.13,0.16,0.12,0.17-0.03,0.3
			c-0.48,0.43-0.96,0.87-1.44,1.3c-0.14,0.13-0.15,0.13-0.26-0.02c-0.35-0.44-0.74-0.84-1.2-1.15c-0.73-0.5-1.54-0.76-2.42-0.83
			c-0.83-0.06-1.64,0-2.44,0.26c-1.49,0.49-2.54,1.48-3.22,2.86c-0.46,0.94-0.67,1.94-0.71,2.98c-0.04,1.09,0.09,2.15,0.48,3.17
			c0.59,1.52,1.57,2.7,3.12,3.29c1.82,0.7,3.61,0.62,5.26-0.53c0.43-0.3,0.79-0.67,1.11-1.08c0.13-0.16,0.14-0.17,0.29-0.02
			c0.48,0.44,0.96,0.89,1.45,1.33c0.12,0.11,0.11,0.18,0.02,0.29c-0.76,0.94-1.66,1.69-2.78,2.16c-0.83,0.35-1.69,0.54-2.59,0.59
			C131.17,46.51,130.96,46.52,130.8,46.53z"/>
		<path class="st10" d="M147.2,43.51c0.06,0.03,0.06,0.09,0.08,0.14c0.2,0.52,0.41,1.04,0.61,1.56c0.09,0.23,0.09,0.24-0.1,0.4
			c-0.38,0.32-0.81,0.55-1.28,0.69c-1.01,0.3-2.03,0.32-3.04,0.04c-1.12-0.32-1.82-1.06-2.15-2.17c-0.18-0.59-0.22-1.19-0.22-1.8
			c0-3.47,0-6.93,0-10.4c0-0.47,0.05-0.4-0.4-0.41c-0.71,0-1.41,0-2.12,0c-0.26,0-0.26,0-0.26-0.25c0-0.61,0-1.21,0-1.82
			c0-0.22,0-0.22,0.23-0.23c0.73,0,1.47,0,2.2,0c0.07,0,0.14,0,0.21,0c0.1,0,0.15-0.04,0.14-0.14c0-0.08,0-0.16,0-0.23
			c0-1.29,0-2.58,0-3.88c0-0.08,0-0.16,0-0.23c0-0.08,0.05-0.12,0.13-0.12c0.05,0,0.1,0,0.15,0c0.71,0,1.41,0,2.12,0
			c0.27,0,0.27,0,0.27,0.28c0,1.16,0,2.31,0,3.47c0,0.18,0,0.35,0,0.53c0,0.38-0.02,0.34,0.33,0.34c0.91,0,1.82,0,2.73,0
			c0.07,0,0.14,0,0.21,0c0.11-0.01,0.15,0.05,0.15,0.16c0,0.66-0.01,1.31,0,1.97c0,0.19-0.11,0.17-0.23,0.17c-0.87,0-1.74,0-2.61,0
			c-0.13,0-0.25,0.01-0.38,0c-0.13-0.01-0.2,0.04-0.19,0.18c0.01,0.06,0,0.12,0,0.18c0,3.31,0,6.62,0,9.93c0,0.28,0,0.57,0.06,0.85
			c0.23,1.18,1.05,1.7,2.22,1.41c0.38-0.09,0.72-0.26,1.01-0.51c0.04-0.03,0.08-0.06,0.11-0.09
			C147.17,43.51,147.18,43.51,147.2,43.51z"/>
		<path class="st11" d="M28.86,39.58c-2.73,0.03-4.98-2.27-4.95-4.98c0.03-2.74,2.24-4.92,4.99-4.92c2.7,0,4.95,2.27,4.92,4.98
			C33.78,37.39,31.58,39.59,28.86,39.58z"/>
	</g>
</g>
<g id="Layer_1_copy" class="st1">
	<g class="st2">
		<path class="st0" d="M40.91,10.05c0.3,0.07,0.6,0.11,0.89,0.21c1.19,0.38,2.04,1.17,2.67,2.22c0.56,0.93,0.88,1.94,1.08,2.99
			c0.32,1.71,0.35,3.44,0.2,5.18c-0.13,1.53-0.39,3.05-0.74,4.54c-0.07,0.28-0.04,0.26,0.2,0.33c1.65,0.48,3.25,1.08,4.79,1.83
			c1.45,0.71,2.82,1.54,4.03,2.61c0.75,0.66,1.4,1.4,1.89,2.27c0.91,1.64,0.88,3.27-0.03,4.89c-0.6,1.08-1.45,1.95-2.4,2.71
			c-1.44,1.17-3.06,2.04-4.75,2.78c-1.1,0.48-2.22,0.88-3.36,1.23c-0.05,0.01-0.09,0.04-0.14,0.04c-0.16,0.02-0.18,0.11-0.14,0.25
			c0.14,0.54,0.25,1.09,0.35,1.63c0.38,1.98,0.55,3.98,0.43,5.99c-0.08,1.44-0.33,2.86-0.92,4.19c-0.33,0.76-0.76,1.45-1.36,2.04
			c-0.69,0.67-1.51,1.08-2.45,1.25c-0.13,0.02-0.25,0.05-0.38,0.07c-0.43,0-0.86,0-1.29,0.01c-0.73-0.09-1.45-0.24-2.14-0.47
			c-1.6-0.53-3.06-1.34-4.44-2.29c-1.35-0.92-2.58-1.97-3.76-3.08c-0.21-0.2-0.2-0.17-0.37,0c-0.01,0.01-0.03,0.03-0.04,0.04
			c-1.49,1.41-3.09,2.68-4.85,3.73c-1.77,1.05-3.64,1.85-5.72,2.06c-0.37,0-0.74,0-1.12,0c-0.52-0.08-1.04-0.17-1.54-0.37
			c-1.11-0.46-1.89-1.27-2.46-2.3c-0.65-1.18-0.95-2.46-1.1-3.78c-0.2-1.74-0.11-3.48,0.12-5.21c0.15-1.13,0.38-2.24,0.64-3.34
			c0.05-0.23,0.05-0.23-0.17-0.3c-0.91-0.27-1.81-0.57-2.69-0.93c-1.91-0.77-3.72-1.7-5.35-2.97c-0.99-0.77-1.87-1.64-2.52-2.72
			c-0.48-0.78-0.79-1.62-0.84-2.54c-0.05-0.94,0.2-1.82,0.65-2.64c0.62-1.13,1.5-2.03,2.5-2.81c1.5-1.18,3.19-2.06,4.95-2.78
			c1.08-0.44,2.18-0.81,3.3-1.14c0.27-0.08,0.26-0.08,0.21-0.34c-0.08-0.37-0.17-0.74-0.25-1.12c-0.33-1.5-0.53-3.03-0.6-4.56
			c-0.06-1.21-0.03-2.43,0.17-3.63c0.17-1.07,0.45-2.1,0.97-3.06c0.96-1.79,2.45-2.69,4.47-2.7c1.06-0.01,2.08,0.22,3.07,0.57
			c1.54,0.53,2.95,1.31,4.29,2.22c1.37,0.92,2.63,1.97,3.84,3.1c0.21,0.19,0.17,0.2,0.39,0c0.5-0.47,1-0.93,1.53-1.38
			c1.44-1.22,2.97-2.31,4.65-3.17c1.11-0.57,2.27-1.02,3.5-1.25c0.25-0.05,0.5-0.04,0.74-0.14c0.31,0,0.63,0,0.94,0
			C40.6,10,40.75,10.07,40.91,10.05z M28.57,43.61c1.84,0,3.47-0.05,5.1-0.16c0.2-0.01,0.31-0.09,0.42-0.25
			c1.75-2.66,3.34-5.42,4.76-8.27c0.1-0.21,0.09-0.37-0.01-0.57c-1.07-2.11-2.21-4.17-3.46-6.17c-0.43-0.7-0.89-1.38-1.34-2.07
			c-0.08-0.13-0.17-0.19-0.33-0.2c-1.26-0.08-2.52-0.14-3.79-0.17c-1.98-0.03-3.96,0.03-5.93,0.16c-0.16,0.01-0.24,0.08-0.32,0.2
			c-1.8,2.66-3.4,5.45-4.81,8.34c-0.08,0.17-0.08,0.3,0,0.47c1.41,2.89,3.02,5.66,4.82,8.33c0.1,0.15,0.21,0.21,0.38,0.22
			c0.43,0.02,0.86,0.06,1.29,0.07C26.5,43.57,27.64,43.63,28.57,43.61z M3.51,34.62c0,0.23,0.03,0.45,0.09,0.65
			c0.18,0.6,0.52,1.12,0.91,1.59c0.75,0.9,1.66,1.6,2.64,2.22c1.55,0.98,3.21,1.71,4.94,2.3c0.38,0.13,0.77,0.23,1.15,0.36
			c0.14,0.05,0.2,0.01,0.23-0.12c0.01-0.03,0.02-0.06,0.03-0.08c0.69-2.23,1.54-4.39,2.51-6.51c0.11-0.23,0.12-0.42,0.01-0.66
			c-0.56-1.19-1.05-2.4-1.52-3.63c-0.35-0.93-0.68-1.88-0.98-2.83c-0.07-0.22-0.07-0.22-0.24-0.17c-1.98,0.57-3.9,1.29-5.7,2.31
			c-1.01,0.57-1.96,1.23-2.77,2.07c-0.43,0.44-0.8,0.91-1.06,1.47C3.6,33.92,3.5,34.27,3.51,34.62z M14.21,51.08
			c-0.01,0.79,0.07,1.8,0.31,2.8c0.18,0.77,0.45,1.5,0.94,2.13c0.35,0.45,0.8,0.74,1.36,0.86c0.44,0.09,0.89,0.1,1.34,0.05
			c0.9-0.1,1.76-0.37,2.59-0.73c2.43-1.06,4.5-2.64,6.41-4.44c0.14-0.14,0.14-0.14,0-0.3c-0.94-1.02-1.84-2.08-2.7-3.17
			c-0.61-0.77-1.2-1.55-1.76-2.35c-0.1-0.14-0.2-0.21-0.38-0.22c-0.53-0.04-1.05-0.1-1.58-0.15c-1.12-0.11-2.23-0.27-3.34-0.46
			c-0.7-0.12-1.4-0.25-2.1-0.4c-0.21-0.04-0.22-0.04-0.27,0.17c-0.08,0.34-0.16,0.69-0.23,1.03C14.44,47.54,14.22,49.18,14.21,51.08
			z M43.56,50.34c0.01-0.93-0.1-2.01-0.25-3.09c-0.12-0.85-0.29-1.7-0.49-2.53c-0.03-0.13-0.07-0.18-0.22-0.14
			c-0.89,0.21-1.8,0.39-2.7,0.54c-1.45,0.24-2.9,0.44-4.36,0.56c-0.18,0.01-0.3,0.08-0.41,0.23c-1.34,1.93-2.77,3.79-4.35,5.53
			c-0.15,0.17-0.15,0.17,0.01,0.32c0.85,0.81,1.74,1.58,2.68,2.28c1.26,0.94,2.58,1.77,4.05,2.35c0.87,0.34,1.76,0.59,2.71,0.57
			c0.94-0.01,1.66-0.39,2.17-1.18c0.35-0.54,0.59-1.13,0.75-1.74C43.46,52.88,43.56,51.7,43.56,50.34z M17.48,12.43
			c-0.11,0.01-0.3,0.02-0.48,0.04c-0.54,0.07-1.01,0.29-1.39,0.7c-0.4,0.44-0.66,0.97-0.85,1.53c-0.37,1.07-0.49,2.17-0.52,3.29
			c-0.04,1.23,0.07,2.44,0.24,3.66c0.14,1,0.34,1.99,0.58,2.96c0.05,0.21,0.05,0.21,0.25,0.17c1.01-0.22,2.03-0.41,3.05-0.58
			c1.27-0.21,2.56-0.37,3.84-0.49c0.22-0.02,0.35-0.09,0.48-0.27c1.35-1.9,2.81-3.72,4.39-5.43c0.16-0.18,0.2-0.16-0.02-0.36
			c-1-0.94-2.05-1.82-3.18-2.6c-1.23-0.86-2.52-1.61-3.94-2.13C19.16,12.64,18.37,12.45,17.48,12.43z M30.56,17.82
			c0.04,0.05,0.05,0.07,0.07,0.09c0.83,0.9,1.62,1.83,2.39,2.79c0.72,0.9,1.41,1.83,2.08,2.77c0.08,0.11,0.15,0.21,0.32,0.22
			c0.51,0.04,1.01,0.11,1.52,0.16c1.45,0.17,2.89,0.4,4.32,0.69c0.4,0.08,0.8,0.17,1.2,0.26c0.14,0.03,0.22,0.01,0.25-0.15
			c0.03-0.18,0.08-0.36,0.12-0.54c0.47-2.14,0.72-4.3,0.61-6.5c-0.05-0.92-0.18-1.83-0.46-2.71c-0.18-0.55-0.41-1.08-0.76-1.55
			c-0.36-0.48-0.82-0.81-1.42-0.91c-0.58-0.1-1.15-0.06-1.72,0.06c-0.96,0.2-1.85,0.56-2.72,1.01c-1.5,0.77-2.86,1.74-4.14,2.82
			C31.64,16.79,31.1,17.28,30.56,17.82z M54.21,34.67c0-0.27-0.04-0.5-0.11-0.72c-0.13-0.4-0.34-0.75-0.58-1.08
			c-0.62-0.84-1.41-1.49-2.27-2.07c-1.66-1.13-3.47-1.92-5.36-2.57c-0.44-0.15-0.89-0.29-1.34-0.42c-0.23-0.07-0.24-0.07-0.32,0.18
			c-0.01,0.02-0.01,0.04-0.02,0.06c-0.69,2.18-1.53,4.29-2.49,6.36c-0.09,0.19-0.08,0.33,0.01,0.52c0.79,1.67,1.52,3.37,2.13,5.12
			c0.17,0.48,0.34,0.96,0.49,1.44c0.05,0.15,0.11,0.19,0.25,0.14c0.03-0.01,0.06-0.02,0.08-0.03c1.38-0.42,2.72-0.93,4.02-1.56
			c1.34-0.65,2.62-1.41,3.74-2.41c0.62-0.56,1.17-1.18,1.53-1.95C54.12,35.33,54.22,35,54.21,34.67z M36.96,43.14
			c0.25-0.03,0.45-0.04,0.65-0.07c1.35-0.19,2.69-0.41,4.02-0.69c0.11-0.02,0.21-0.05,0.32-0.07c0.12-0.02,0.18-0.08,0.13-0.2
			c-0.01-0.04-0.03-0.07-0.04-0.11c-0.48-1.49-1.05-2.95-1.68-4.38c-0.02-0.05-0.02-0.14-0.13-0.15
			C39.22,39.38,38.13,41.26,36.96,43.14z M32.21,45.91c-2.22,0.09-4.37,0.08-6.52,0.02c0,0.11,0.06,0.16,0.11,0.22
			c0.88,1.15,1.81,2.26,2.77,3.34c0.1,0.11,0.2,0.21,0.3,0.32c0.06,0.06,0.11,0.07,0.17,0c0.05-0.05,0.09-0.1,0.14-0.15
			c0.87-0.98,1.7-1.99,2.5-3.04C31.84,46.41,32,46.19,32.21,45.91z M17.52,37.5c-0.05,0.09-0.07,0.13-0.09,0.16
			c-0.61,1.47-1.17,2.96-1.65,4.48c-0.01,0.04-0.02,0.08-0.03,0.11c-0.02,0.07,0,0.11,0.08,0.13c0.06,0.01,0.11,0.03,0.17,0.04
			c1.51,0.31,3.04,0.56,4.57,0.72c0.06,0.01,0.13,0.05,0.2-0.04C19.61,41.31,18.54,39.46,17.52,37.5z M25.6,23.45
			c2.21-0.09,4.35-0.09,6.48,0c0.01-0.12-0.06-0.17-0.1-0.23c-0.75-1-1.55-1.97-2.37-2.91c-0.2-0.23-0.41-0.45-0.61-0.68
			c-0.07-0.08-0.14-0.09-0.21,0c-0.04,0.05-0.08,0.09-0.12,0.13c-0.81,0.89-1.59,1.81-2.34,2.75C26.09,22.8,25.87,23.1,25.6,23.45z
			 M36.99,26.29c1.17,1.84,2.22,3.69,3.25,5.6c0.05-0.11,0.08-0.16,0.1-0.21c0.59-1.37,1.11-2.77,1.57-4.2
			c0.11-0.35,0.11-0.35-0.25-0.43c-1.3-0.28-2.61-0.51-3.92-0.7C37.51,26.32,37.28,26.25,36.99,26.29z M17.51,31.82
			c1.01-1.88,2.07-3.72,3.19-5.54c-1.67,0.18-3.31,0.45-4.95,0.83C16.25,28.73,16.83,30.29,17.51,31.82z"/>
		<path class="st4" d="M39.5,10c-0.24,0.1-0.49,0.09-0.74,0.14c-1.23,0.24-2.39,0.69-3.5,1.25c-1.68,0.86-3.21,1.95-4.65,3.17
			c-0.52,0.44-1.03,0.9-1.53,1.38c-0.21,0.2-0.18,0.2-0.39,0c-1.2-1.12-2.47-2.17-3.84-3.1c-1.34-0.91-2.75-1.69-4.29-2.22
			c-1-0.34-2.01-0.57-3.07-0.57c-2.03,0.01-3.52,0.92-4.47,2.7c-0.51,0.96-0.79,2-0.97,3.06c-0.2,1.2-0.22,2.42-0.17,3.63
			c0.07,1.54,0.28,3.06,0.6,4.56c0.08,0.37,0.17,0.74,0.25,1.12c0.06,0.26,0.06,0.26-0.21,0.34c-1.12,0.33-2.22,0.7-3.3,1.14
			c-1.76,0.73-3.45,1.6-4.95,2.78c-1,0.79-1.88,1.68-2.5,2.81c-0.45,0.82-0.71,1.7-0.65,2.64c0.05,0.92,0.37,1.76,0.84,2.54
			c0.66,1.08,1.54,1.95,2.52,2.72c1.63,1.27,3.44,2.2,5.35,2.97c0.88,0.35,1.78,0.66,2.69,0.93c0.22,0.07,0.22,0.07,0.17,0.3
			c-0.26,1.1-0.49,2.22-0.64,3.34c-0.23,1.73-0.32,3.47-0.12,5.21c0.15,1.32,0.45,2.6,1.1,3.78c0.57,1.03,1.35,1.84,2.46,2.3
			c0.49,0.2,1.01,0.29,1.54,0.37c0,0.02,0,0.03,0,0.05c-5.35,0-10.7,0-16.05,0C1,42.91,1,26.45,1,10C13.83,10,26.67,10,39.5,10z"/>
		<path class="st5" d="M18.16,59.32c2.08-0.21,3.94-1.01,5.72-2.06c1.77-1.05,3.37-2.32,4.85-3.73c0.01-0.01,0.03-0.03,0.04-0.04
			c0.17-0.17,0.16-0.2,0.37,0c1.18,1.12,2.42,2.17,3.76,3.08c1.39,0.95,2.84,1.76,4.44,2.29c0.7,0.23,1.41,0.38,2.14,0.47
			c0,0.01,0,0.03,0,0.04c-7.11,0-14.22,0-21.34,0C18.16,59.35,18.16,59.33,18.16,59.32z"/>
		<path class="st6" d="M39.5,59.36c0-0.01,0-0.03,0-0.04c0.43,0,0.86,0,1.29-0.01c0,0.02,0,0.03,0,0.05
			C40.36,59.36,39.93,59.36,39.5,59.36z"/>
		<path class="st6" d="M18.16,59.32c0,0.02,0,0.03,0,0.05c-0.37,0-0.74,0-1.12,0c0-0.02,0-0.03,0-0.05
			C17.42,59.31,17.79,59.32,18.16,59.32z"/>
		<path class="st6" d="M40.91,10.05C40.75,10.07,40.6,10,40.44,10c0.16,0,0.31,0,0.47,0C40.91,10.02,40.91,10.03,40.91,10.05z"/>
		<path class="st0" d="M75.73,36.63c2.09,3.16,4.16,6.28,6.23,9.41c-0.11,0.08-0.2,0.05-0.28,0.05c-0.95,0-1.9,0-2.85,0.01
			c-0.19,0-0.3-0.06-0.4-0.22c-1.68-2.64-3.37-5.28-5.05-7.93c-0.2-0.31-0.4-0.62-0.6-0.94c-0.07-0.11-0.15-0.16-0.28-0.16
			c-1.42,0-2.84,0-4.26,0c-0.22,0-0.23,0.01-0.23,0.29c0,2.61,0,5.23,0,7.84c0,0.29,0,0.59,0,0.88c0,0.21-0.01,0.22-0.21,0.22
			c-0.82,0-1.65,0-2.47,0c-0.2,0-0.2-0.01-0.21-0.22c0-0.06,0-0.12,0-0.18c0-7.49,0-14.98,0-22.47c0-0.44-0.06-0.4,0.38-0.4
			c2.91,0,5.82,0,8.73,0c1.16,0,2.31,0.13,3.39,0.59c2.34,0.97,3.69,2.73,4.08,5.22c0.19,1.22,0.12,2.42-0.27,3.6
			c-0.67,2.01-2.03,3.32-4.01,4.02C76.89,36.45,76.34,36.54,75.73,36.63z M68.01,29.85C68.01,29.85,68.01,29.85,68.01,29.85
			c0,1.4,0,2.8,0,4.2c0,0.27,0,0.27,0.27,0.27c1.94,0,3.88,0,5.82,0c0.6,0,1.19-0.08,1.76-0.28c1.3-0.46,2.21-1.31,2.66-2.62
			c0.27-0.77,0.32-1.57,0.18-2.37c-0.25-1.52-1.09-2.59-2.5-3.21c-0.72-0.32-1.49-0.41-2.27-0.41c-1.89-0.01-3.78,0-5.67,0
			c-0.26,0-0.26,0-0.26,0.26c0,0.04,0,0.08,0,0.12C68.01,27.14,68.01,28.5,68.01,29.85z"/>
		<path class="st0" d="M98.28,42.23c0.07,0.02,0.09,0.08,0.12,0.12c0.34,0.46,0.67,0.91,1.01,1.37c0.13,0.17,0.13,0.18-0.04,0.33
			c-0.78,0.73-1.66,1.31-2.65,1.72c-1.11,0.46-2.28,0.69-3.48,0.73c-1.06,0.03-2.11-0.06-3.13-0.37c-2.48-0.77-4.26-2.35-5.19-4.78
			c-1.05-2.74-0.98-5.48,0.38-8.1c1.24-2.39,3.22-3.88,5.89-4.3c2.29-0.36,4.43,0.06,6.29,1.53c1.19,0.93,1.98,2.15,2.5,3.56
			c0.52,1.39,0.68,2.83,0.65,4.3c0,0.16-0.06,0.21-0.21,0.2c-0.08-0.01-0.16,0-0.23,0c-4.26,0-8.52,0-12.78,0
			c-0.4,0-0.41-0.08-0.35,0.4c0.17,1.38,0.68,2.61,1.64,3.63c0.86,0.92,1.92,1.48,3.16,1.68c2.02,0.32,3.87-0.11,5.54-1.3
			c0.25-0.18,0.48-0.37,0.7-0.58C98.16,42.32,98.2,42.24,98.28,42.23z M92.48,36.57c1.76,0,3.53,0,5.29,0c0.27,0,0.28,0,0.26-0.27
			c-0.05-0.7-0.2-1.37-0.48-2.02c-0.52-1.19-1.31-2.13-2.49-2.71c-0.96-0.48-1.99-0.62-3.05-0.54c-1.51,0.12-2.73,0.77-3.67,1.95
			c-0.75,0.95-1.17,2.04-1.31,3.25c-0.05,0.41-0.01,0.34,0.29,0.34C89.04,36.57,90.76,36.57,92.48,36.57z"/>
		<path class="st0" d="M115.3,37.62c0.09-0.06,0.08-0.11,0.08-0.14c0-1,0.02-2-0.01-3c-0.03-1.04-0.47-1.89-1.31-2.51
			c-0.56-0.41-1.18-0.65-1.86-0.75c-2.35-0.35-4.37,0.31-6.03,2.03c-0.05,0.05-0.09,0.1-0.14,0.15c-0.01,0.01-0.03,0.01-0.06,0.02
			c-0.08-0.03-0.11-0.11-0.15-0.17c-0.32-0.47-0.64-0.94-0.95-1.41c-0.12-0.19-0.12-0.19,0.02-0.34c1.36-1.37,2.98-2.23,4.9-2.52
			c1.23-0.18,2.46-0.17,3.68,0.06c0.71,0.14,1.4,0.37,2.03,0.74c1.37,0.8,2.14,2,2.4,3.55c0.08,0.46,0.1,0.93,0.1,1.4
			c0,3.67,0,7.34,0,11.02c0,0.39,0.04,0.37-0.36,0.37c-0.67,0-1.33,0-2,0c-0.27,0-0.27,0-0.27-0.28c0-0.43,0-0.86,0-1.29
			c0-0.09,0-0.17,0-0.25c-0.11-0.02-0.14,0.05-0.18,0.1c-1.16,1.18-2.57,1.83-4.19,2.05c-1.09,0.15-2.17,0.11-3.22-0.24
			c-1.35-0.46-2.43-1.25-3.15-2.49c-0.56-0.97-0.75-2.03-0.69-3.14c0.04-0.71,0.19-1.39,0.49-2.04c0.58-1.25,1.54-2.1,2.8-2.62
			c1.03-0.42,2.11-0.56,3.22-0.48c0.77,0.06,1.51,0.18,2.24,0.44c0.96,0.34,1.8,0.87,2.5,1.6C115.24,37.51,115.27,37.57,115.3,37.62
			z M115.38,40.95c0-0.42-0.02-0.84,0.01-1.26c0.02-0.28-0.09-0.48-0.27-0.68c-0.69-0.74-1.53-1.21-2.5-1.47
			c-1.16-0.31-2.32-0.37-3.47,0c-2.33,0.77-2.98,2.99-2.29,4.77c0.41,1.07,1.23,1.73,2.29,2.08c1.13,0.37,2.28,0.32,3.41,0.01
			c1.04-0.28,1.95-0.8,2.65-1.65c0.11-0.14,0.17-0.27,0.16-0.45C115.37,41.86,115.38,41.4,115.38,40.95z"/>
		<path class="st0" d="M130.8,46.53c-2.05-0.01-3.86-0.56-5.41-1.84c-1.4-1.15-2.3-2.64-2.75-4.38c-0.54-2.1-0.49-4.2,0.31-6.23
			c1.09-2.76,3.09-4.48,6.01-5.07c1.66-0.33,3.32-0.24,4.91,0.39c1.17,0.46,2.11,1.23,2.88,2.21c0.13,0.16,0.12,0.17-0.03,0.3
			c-0.48,0.43-0.96,0.87-1.44,1.3c-0.14,0.13-0.15,0.13-0.26-0.02c-0.35-0.44-0.74-0.84-1.2-1.15c-0.73-0.5-1.54-0.76-2.42-0.83
			c-0.83-0.06-1.64,0-2.44,0.26c-1.49,0.49-2.54,1.48-3.22,2.86c-0.46,0.94-0.67,1.94-0.71,2.98c-0.04,1.09,0.09,2.15,0.48,3.17
			c0.59,1.52,1.57,2.7,3.12,3.29c1.82,0.7,3.61,0.62,5.26-0.53c0.43-0.3,0.79-0.67,1.11-1.08c0.13-0.16,0.14-0.17,0.29-0.02
			c0.48,0.44,0.96,0.89,1.45,1.33c0.12,0.11,0.11,0.18,0.02,0.29c-0.76,0.94-1.66,1.69-2.78,2.16c-0.83,0.35-1.69,0.54-2.59,0.59
			C131.17,46.51,130.96,46.52,130.8,46.53z"/>
		<path class="st0" d="M147.2,43.51c0.06,0.03,0.06,0.09,0.08,0.14c0.2,0.52,0.41,1.04,0.61,1.56c0.09,0.23,0.09,0.24-0.1,0.4
			c-0.38,0.32-0.81,0.55-1.28,0.69c-1.01,0.3-2.03,0.32-3.04,0.04c-1.12-0.32-1.82-1.06-2.15-2.17c-0.18-0.59-0.22-1.19-0.22-1.8
			c0-3.47,0-6.93,0-10.4c0-0.47,0.05-0.4-0.4-0.41c-0.71,0-1.41,0-2.12,0c-0.26,0-0.26,0-0.26-0.25c0-0.61,0-1.21,0-1.82
			c0-0.22,0-0.22,0.23-0.23c0.73,0,1.47,0,2.2,0c0.07,0,0.14,0,0.21,0c0.1,0,0.15-0.04,0.14-0.14c0-0.08,0-0.16,0-0.23
			c0-1.29,0-2.58,0-3.88c0-0.08,0-0.16,0-0.23c0-0.08,0.05-0.12,0.13-0.12c0.05,0,0.1,0,0.15,0c0.71,0,1.41,0,2.12,0
			c0.27,0,0.27,0,0.27,0.28c0,1.16,0,2.31,0,3.47c0,0.18,0,0.35,0,0.53c0,0.38-0.02,0.34,0.33,0.34c0.91,0,1.82,0,2.73,0
			c0.07,0,0.14,0,0.21,0c0.11-0.01,0.15,0.05,0.15,0.16c0,0.66-0.01,1.31,0,1.97c0,0.19-0.11,0.17-0.23,0.17c-0.87,0-1.74,0-2.61,0
			c-0.13,0-0.25,0.01-0.38,0c-0.13-0.01-0.2,0.04-0.19,0.18c0.01,0.06,0,0.12,0,0.18c0,3.31,0,6.62,0,9.93c0,0.28,0,0.57,0.06,0.85
			c0.23,1.18,1.05,1.7,2.22,1.41c0.38-0.09,0.72-0.26,1.01-0.51c0.04-0.03,0.08-0.06,0.11-0.09
			C147.17,43.51,147.18,43.51,147.2,43.51z"/>
		<path class="st0" d="M28.86,39.58c-2.73,0.03-4.98-2.27-4.95-4.98c0.03-2.74,2.24-4.92,4.99-4.92c2.7,0,4.95,2.27,4.92,4.98
			C33.78,37.39,31.58,39.59,28.86,39.58z"/>
	</g>
</g>
<g id="Layer_2" class="st1">
	<g class="st2">
		<path class="st12" d="M79.81,67.29c-1.71-0.3-3.42-0.59-5.12-0.89c-3.52-0.63-7.04-1.27-10.56-1.92
			c-2.83-0.52-5.65-1.04-8.47-1.56c-3.54-0.64-7.08-1.27-10.61-1.93c-1.44-0.27-1.21,0.06-1.05-1.39c0.42-3.61,0.97-7.2,1.45-10.8
			c0.46-3.46,0.89-6.92,1.34-10.38c0.3-2.24,0.63-4.47,0.93-6.71c0.31-2.31,0.6-4.62,0.91-6.93c0.04-0.32,0.11-0.64,0.19-0.95
			c0.12-0.48,0.44-0.78,0.91-0.92c1.95-0.6,3.9-1.2,5.86-1.77c0.52-0.15,0.83-0.38,0.99-0.96c0.81-3.06,2-5.96,3.79-8.58
			c1.38-2.03,3.05-3.77,5.34-4.78c1.58-0.7,3.24-1.16,5-0.66c0.81,0.23,1.44,0.75,1.99,1.36c0.15,0.17,0.29,0.28,0.54,0.28
			c2.37,0.01,3.99,1.28,5.21,3.17c0.51,0.79,0.94,1.63,1.24,2.52c0.11,0.32,0.27,0.3,0.54,0.22c0.76-0.21,1.48-0.61,2.31-0.49
			c-0.04,1.26-0.03,2.53-0.13,3.79c-0.05,0.69-0.06,1.37-0.1,2.05c-0.13,2.19-0.31,4.39-0.41,6.58c-0.07,1.6-0.14,3.21-0.22,4.81
			c-0.1,1.98-0.23,3.96-0.32,5.94c-0.08,1.66-0.13,3.32-0.22,4.97c-0.1,1.94-0.22,3.89-0.32,5.83c-0.08,1.66-0.12,3.32-0.23,4.97
			c-0.11,1.75-0.12,3.5-0.25,5.24c-0.07,0.83-0.05,1.66-0.1,2.49C80.09,62.36,79.95,64.82,79.81,67.29z M68.01,26.97
			c-1.87,0.01-3.91,0.34-5.85,1.18c-1.95,0.85-3.55,2.11-4.75,3.88c-1.25,1.84-1.84,3.88-1.87,6.07c-0.03,1.92,0.49,3.67,1.81,5.14
			c0.96,1.07,2.13,1.89,3.22,2.81c0.9,0.76,1.69,1.58,1.93,2.8c0.26,1.3-0.55,2.53-1.84,2.82c-0.87,0.2-1.69,0.01-2.5-0.25
			c-1.39-0.45-2.62-1.21-3.77-2.09c-0.3-0.23-0.4-0.17-0.5,0.16c-0.47,1.5-0.95,2.99-1.42,4.49c-0.06,0.2-0.13,0.42,0.09,0.6
			c0.39,0.32,0.75,0.68,1.16,0.98c2.7,1.98,5.74,2.77,9.05,2.49c2.17-0.18,4.04-1.09,5.5-2.73c1.53-1.71,2.2-3.75,2.37-6.03
			c0.23-3.07-0.91-5.48-3.17-7.47c-1.28-1.12-2.74-1.99-4.03-3.09c-0.82-0.7-1.53-1.47-1.21-2.69c0.37-1.41,1.43-1.97,2.73-2.2
			c1.9-0.33,3.71,0.13,5.45,0.82c0.47,0.19,0.51-0.02,0.61-0.32c0.68-1.98,1.34-3.97,2.05-5.94c0.15-0.42,0.1-0.59-0.33-0.73
			C71.26,27.16,69.76,26.97,68.01,26.97z M70.38,8.42c-0.37-0.27-0.71-0.34-1.09-0.34c-0.92,0.01-1.79,0.21-2.63,0.58
			c-2,0.9-3.39,2.48-4.56,4.26c-1.36,2.08-2.32,4.36-3.05,6.73c-0.03,0.11-0.15,0.24-0.04,0.35c0.1,0.1,0.24,0.02,0.36-0.02
			c1.42-0.42,2.83-0.86,4.25-1.28c0.21-0.06,0.27-0.21,0.32-0.39c0.25-1.11,0.54-2.21,0.95-3.28c0.73-1.89,1.73-3.6,3.22-5.01
			C68.77,9.39,69.54,8.91,70.38,8.42z M72.65,14.88c-0.04-1.27-0.2-2.52-0.54-3.74c-0.26-0.93-0.31-0.93-1.14-0.4
			c-2.46,1.58-3.67,3.99-4.49,6.67c-0.13,0.43,0.12,0.41,0.4,0.33c1.59-0.48,3.18-0.96,4.76-1.46
			C72.67,15.95,72.66,15.93,72.65,14.88z M74.06,9.95c0.59,1.63,0.69,3.25,0.73,4.88c0.01,0.34,0.04,0.51,0.45,0.38
			c0.74-0.25,1.48-0.47,2.23-0.68c0.27-0.08,0.36-0.19,0.26-0.46c-0.41-1.07-0.88-2.11-1.64-2.98
			C75.57,10.51,74.96,10.02,74.06,9.95z"/>
		<path class="st13" d="M79.81,67.29c0.14-2.46,0.28-4.93,0.42-7.39c0.05-0.83,0.03-1.66,0.1-2.49c0.14-1.74,0.14-3.5,0.25-5.24
			c0.1-1.66,0.14-3.32,0.23-4.97c0.1-1.94,0.22-3.89,0.32-5.83c0.09-1.66,0.14-3.32,0.22-4.97c0.1-1.98,0.22-3.96,0.32-5.94
			c0.08-1.6,0.15-3.21,0.22-4.81c0.09-2.2,0.27-4.39,0.41-6.58c0.04-0.68,0.04-1.37,0.1-2.05c0.1-1.26,0.09-2.53,0.13-3.79
			c0.34-0.04,0.54,0.19,0.74,0.39c1.07,1.03,2.13,2.06,3.18,3.1c0.2,0.2,0.41,0.32,0.7,0.34c1.44,0.1,2.88,0.22,4.33,0.32
			c0.79,0.05,0.93,0.17,1.04,0.95c0.6,3.96,1.19,7.93,1.79,11.89c0.73,4.78,1.47,9.57,2.2,14.35c0.76,5,1.52,10,2.28,15
			c0.17,1.11,0.31,2.22,0.49,3.32c0.05,0.29-0.02,0.36-0.29,0.42c-3.57,0.74-7.13,1.51-10.7,2.26c-2.74,0.58-5.47,1.16-8.21,1.73
			C79.99,67.3,79.9,67.29,79.81,67.29z"/>
	</g>
</g>
<g id="Layer_2_copy" class="st1">
	<g class="st2">
		<path class="st0" d="M79.81,65.29c-1.71-0.3-3.42-0.59-5.12-0.89c-3.52-0.63-7.04-1.27-10.56-1.92c-2.83-0.52-5.65-1.04-8.47-1.56
			c-3.54-0.64-7.08-1.27-10.61-1.93c-1.44-0.27-1.21,0.06-1.05-1.39c0.42-3.61,0.97-7.2,1.45-10.8c0.46-3.46,0.89-6.92,1.34-10.38
			c0.3-2.24,0.63-4.47,0.93-6.71c0.31-2.31,0.6-4.62,0.91-6.93c0.04-0.32,0.11-0.64,0.19-0.95c0.12-0.48,0.44-0.78,0.91-0.92
			c1.95-0.6,3.9-1.2,5.86-1.77c0.52-0.15,0.83-0.38,0.99-0.96c0.81-3.06,2-5.96,3.79-8.58c1.38-2.03,3.05-3.77,5.34-4.78
			c1.58-0.7,3.24-1.16,5-0.66c0.81,0.23,1.44,0.75,1.99,1.36c0.15,0.17,0.29,0.28,0.54,0.28c2.37,0.01,3.99,1.28,5.21,3.17
			c0.51,0.79,0.94,1.63,1.24,2.52c0.11,0.32,0.27,0.3,0.54,0.22c0.76-0.21,1.48-0.61,2.31-0.49c-0.04,1.26-0.03,2.53-0.13,3.79
			c-0.05,0.69-0.06,1.37-0.1,2.05c-0.13,2.19-0.31,4.39-0.41,6.58c-0.07,1.6-0.14,3.21-0.22,4.81c-0.1,1.98-0.23,3.96-0.32,5.94
			c-0.08,1.66-0.13,3.32-0.22,4.97c-0.1,1.94-0.22,3.89-0.32,5.83c-0.08,1.66-0.12,3.32-0.23,4.97c-0.11,1.75-0.12,3.5-0.25,5.24
			c-0.07,0.83-0.05,1.66-0.1,2.49C80.09,60.36,79.95,62.82,79.81,65.29z M68.01,24.97c-1.87,0.01-3.91,0.34-5.85,1.18
			c-1.95,0.85-3.55,2.11-4.75,3.88c-1.25,1.84-1.84,3.88-1.87,6.07c-0.03,1.92,0.49,3.67,1.81,5.14c0.96,1.07,2.13,1.89,3.22,2.81
			c0.9,0.76,1.69,1.58,1.93,2.8c0.26,1.3-0.55,2.53-1.84,2.82c-0.87,0.2-1.69,0.01-2.5-0.25c-1.39-0.45-2.62-1.21-3.77-2.09
			c-0.3-0.23-0.4-0.17-0.5,0.16c-0.47,1.5-0.95,2.99-1.42,4.49c-0.06,0.2-0.13,0.42,0.09,0.6c0.39,0.32,0.75,0.68,1.16,0.98
			c2.7,1.98,5.74,2.77,9.05,2.49c2.17-0.18,4.04-1.09,5.5-2.73c1.53-1.71,2.2-3.75,2.37-6.03c0.23-3.07-0.91-5.48-3.17-7.47
			c-1.28-1.12-2.74-1.99-4.03-3.09c-0.82-0.7-1.53-1.47-1.21-2.69c0.37-1.41,1.43-1.97,2.73-2.2c1.9-0.33,3.71,0.13,5.45,0.82
			c0.47,0.19,0.51-0.02,0.61-0.32c0.68-1.98,1.34-3.97,2.05-5.94c0.15-0.42,0.1-0.59-0.33-0.73C71.26,25.16,69.76,24.97,68.01,24.97
			z M70.38,6.42c-0.37-0.27-0.71-0.34-1.09-0.34c-0.92,0.01-1.79,0.21-2.63,0.58c-2,0.9-3.39,2.48-4.56,4.26
			c-1.36,2.08-2.32,4.36-3.05,6.73c-0.03,0.11-0.15,0.24-0.04,0.35c0.1,0.1,0.24,0.02,0.36-0.02c1.42-0.42,2.83-0.86,4.25-1.28
			c0.21-0.06,0.27-0.21,0.32-0.39c0.25-1.11,0.54-2.21,0.95-3.28c0.73-1.89,1.73-3.6,3.22-5.01C68.77,7.39,69.54,6.91,70.38,6.42z
			 M72.65,12.88c-0.04-1.27-0.2-2.52-0.54-3.74c-0.26-0.93-0.31-0.93-1.14-0.4c-2.46,1.58-3.67,3.99-4.49,6.67
			c-0.13,0.43,0.12,0.41,0.4,0.33c1.59-0.48,3.18-0.96,4.76-1.46C72.67,13.95,72.66,13.93,72.65,12.88z M74.06,7.95
			c0.59,1.63,0.69,3.25,0.73,4.88c0.01,0.34,0.04,0.51,0.45,0.38c0.74-0.25,1.48-0.47,2.23-0.68c0.27-0.08,0.36-0.19,0.26-0.46
			c-0.41-1.07-0.88-2.11-1.64-2.98C75.57,8.51,74.96,8.02,74.06,7.95z"/>
		<path class="st14" d="M79.81,65.29c0.14-2.46,0.28-4.93,0.42-7.39c0.05-0.83,0.03-1.66,0.1-2.49c0.14-1.74,0.14-3.5,0.25-5.24
			c0.1-1.66,0.14-3.32,0.23-4.97c0.1-1.94,0.22-3.89,0.32-5.83c0.09-1.66,0.14-3.32,0.22-4.97c0.1-1.98,0.22-3.96,0.32-5.94
			c0.08-1.6,0.15-3.21,0.22-4.81c0.09-2.2,0.27-4.39,0.41-6.58c0.04-0.68,0.04-1.37,0.1-2.05c0.1-1.26,0.09-2.53,0.13-3.79
			c0.34-0.04,0.54,0.19,0.74,0.39c1.07,1.03,2.13,2.06,3.18,3.1c0.2,0.2,0.41,0.32,0.7,0.34c1.44,0.1,2.88,0.22,4.33,0.32
			c0.79,0.05,0.93,0.17,1.04,0.95c0.6,3.96,1.19,7.93,1.79,11.89c0.73,4.78,1.47,9.57,2.2,14.35c0.76,5,1.52,10,2.28,15
			c0.17,1.11,0.31,2.22,0.49,3.32c0.05,0.29-0.02,0.36-0.29,0.42c-3.57,0.74-7.13,1.51-10.7,2.26c-2.74,0.58-5.47,1.16-8.21,1.73
			C79.99,65.3,79.9,65.29,79.81,65.29z"/>
	</g>
</g>
<g id="Layer_6">
	<g>
		<path class="st15" d="M121.79,62.39c0.4,0.82,0.32,1.64,0.02,2.47c-0.3,0.46-0.63,0.89-1.05,1.24c-0.8,0.54-1.73,0.67-2.66,0.76
			c-0.82-0.15-1.62-0.37-2.3-0.88c-0.16-0.12-0.32-0.17-0.4,0.09c-0.08,0.13-0.18,0.25-0.22,0.39c-0.07,0.24-0.17,0.4-0.46,0.36
			c-0.36-0.05-0.22-0.32-0.23-0.51c-0.03-0.48-0.03-0.96-0.04-1.44c0.01-0.42-0.03-0.85,0.04-1.26c0.06-0.34-0.31-0.87,0.26-1
			c0.62-0.13,0.29,0.58,0.57,0.78c0.12,0.6,0.41,1.1,0.89,1.48c0.51,0.56,1.15,0.84,1.9,0.87c0.8,0.12,1.53,0.05,2.01-0.73
			c0.42-0.63,0.22-1.19-0.25-1.67c-0.48-0.5-1.08-0.84-1.75-1.05c-0.18-0.08-0.36-0.17-0.54-0.25c-0.69-0.43-1.47-0.71-2.11-1.23
			c-0.34-0.41-0.66-0.82-0.88-1.32c-0.23-0.97-0.08-1.85,0.58-2.63c0.09-0.09,0.18-0.17,0.28-0.26c0.8-0.57,1.71-0.75,2.68-0.75
			c0.3,0.07,0.61,0.12,0.9,0.21c0.66,0.19,1.34,0.1,1.75-0.27c0.73,0.13,0.22,0.74,0.41,1.07c-0.12,0.87,0.1,1.75-0.12,2.61
			c-0.1,0.01-0.19,0.02-0.29,0.02c-0.07,0-0.14,0-0.21,0c-0.11-0.34-0.2-0.68-0.34-1c-0.4-0.94-1.02-1.6-2.13-1.62
			c-0.98-0.07-1.69,0.29-1.86,0.93c-0.16,0.63,0.19,1.18,1.06,1.65c0.12,0.06,0.24,0.12,0.36,0.18c1.03,0.52,2.06,1.04,3.09,1.56
			C121.14,61.55,121.51,61.93,121.79,62.39z"/>
		<path class="st16" d="M62.09,1.98c1.66-0.47,3.37-0.67,5.07-0.92c0.09-0.01,0.18-0.02,0.26-0.04c0.67-0.01,1.34-0.02,2-0.03
			c1.11,0.13,2.21,0.25,3.32,0.38c0.89,0.21,1.78,0.42,2.66,0.63C76.3,2.34,77.19,2.67,78.08,3c0.49,0.24,0.98,0.48,1.47,0.72
			c0.4,0.23,0.8,0.45,1.2,0.68c0.86,0.61,1.71,1.22,2.57,1.83c0.96,0.86,1.89,1.74,2.77,2.68c1.42,1.69,2.6,3.53,3.58,5.49
			c0.33,0.83,0.65,1.66,0.98,2.49c0.2,0.72,0.41,1.43,0.61,2.15c0.03,0.18,0.06,0.37,0.09,0.55c0.13,0.88,0.25,1.76,0.38,2.64
			c0.03,0.89,0.05,1.78,0.08,2.66c-0.09,0.89-0.17,1.77-0.26,2.66c-0.15,0.48-0.22,0.97-0.26,1.47c-0.41,1.28-0.82,2.57-1.23,3.85
			c-0.44,0.88-0.88,1.77-1.32,2.65c-0.61,0.9-1.21,1.79-1.82,2.69c-0.28,0.34-0.56,0.68-0.84,1.02c-0.53,0.55-1.06,1.09-1.59,1.64
			c-0.35,0.31-0.71,0.62-1.06,0.93c-0.71,0.53-1.43,1.06-2.14,1.58c-0.17,0.1-0.35,0.21-0.52,0.31c-0.89,0.47-1.79,0.94-2.68,1.41
			c-0.81,0.3-1.62,0.6-2.43,0.9c-0.08,0.03-0.16,0.05-0.23,0.08c-0.89,0.22-1.78,0.43-2.66,0.65c-0.89,0.1-1.78,0.2-2.67,0.29
			c-0.89,0-1.77,0-2.66,0c-0.89-0.09-1.78-0.19-2.67-0.28c-0.89-0.21-1.78-0.42-2.67-0.64c-0.05,0-0.11,0.01-0.16,0.01
			c-0.72-0.43-1.54-0.58-2.3-0.91c-0.95-0.48-1.91-0.96-2.86-1.45c-0.13-0.08-0.26-0.17-0.39-0.25c-0.76-0.54-1.51-1.09-2.27-1.63
			c-0.4-0.35-0.79-0.69-1.19-1.04c-0.49-0.5-0.98-1.01-1.48-1.51c-0.32-0.38-0.64-0.76-0.96-1.14c-0.53-0.76-1.05-1.51-1.58-2.27
			c-0.08-0.14-0.15-0.28-0.23-0.42c-0.44-0.89-0.88-1.77-1.31-2.66c-0.38-1.15-0.77-2.3-1.15-3.44c-0.12-0.63-0.23-1.26-0.35-1.89
			c-0.08-0.88-0.16-1.77-0.25-2.65c0.02-0.89,0.03-1.77,0.05-2.66c0.13-0.89,0.26-1.78,0.39-2.67c0.05-0.27,0.1-0.53,0.15-0.8
			c0.18-0.62,0.36-1.24,0.54-1.86c0.35-0.89,0.71-1.78,1.06-2.66c0.98-1.9,2.14-3.67,3.49-5.32c0.04-0.04,0.08-0.09,0.12-0.13
			c0.89-0.85,1.77-1.7,2.66-2.54c0,0,0,0,0,0c0.89-0.63,1.78-1.25,2.67-1.88c0.34-0.18,0.72-0.27,0.94-0.62
			c0.64-0.11,1.16-0.5,1.73-0.78C60.32,2.63,61.2,2.3,62.09,1.98z M89.44,16.89c-0.19-0.44-0.2-0.95-0.51-1.35
			c-0.17-0.52-0.4-1.01-0.69-1.47c-0.57-1.21-1.27-2.32-2.14-3.33c-0.44-0.69-0.98-1.3-1.59-1.84c-0.31-0.41-0.68-0.76-1.09-1.06
			c-0.68-0.68-1.41-1.3-2.25-1.76C80.3,5.34,79.3,4.8,78.27,4.34c-1.74-0.9-3.58-1.5-5.51-1.81c-0.87-0.22-1.76-0.33-2.66-0.32
			c-0.89-0.13-1.79-0.13-2.68-0.01c-0.9,0-1.79,0.09-2.66,0.32c-1.87,0.28-3.66,0.83-5.34,1.71c-1.15,0.47-2.24,1.07-3.2,1.86
			c-0.8,0.43-1.48,1.01-2.12,1.64c-0.46,0.33-0.86,0.73-1.21,1.17c-0.56,0.51-1.05,1.07-1.48,1.7c-0.29,0.28-0.52,0.59-0.7,0.95
			c-0.65,0.83-1.18,1.72-1.6,2.68c-0.21,0.34-0.41,0.68-0.51,1.06c-0.26,0.43-0.43,0.91-0.56,1.39c-0.37,0.92-0.66,1.87-0.8,2.86
			c-0.26,0.88-0.36,1.78-0.42,2.68c-0.11,0.89-0.13,1.78-0.04,2.67c-0.04,0.9,0.07,1.78,0.26,2.66c0.1,0.91,0.3,1.81,0.6,2.68
			c0.52,1.91,1.31,3.69,2.41,5.34c0.32,0.63,0.72,1.21,1.2,1.73c0.2,0.34,0.43,0.65,0.73,0.91c0.62,0.8,1.32,1.52,2.11,2.15
			c0.16,0.23,0.38,0.41,0.63,0.54c0.6,0.6,1.29,1.08,2.02,1.5c0.72,0.51,1.46,0.98,2.29,1.28c0.95,0.58,1.98,0.97,3.05,1.25
			c0.86,0.34,1.75,0.56,2.67,0.66c0.88,0.23,1.77,0.32,2.68,0.33c0.89,0.09,1.78,0.09,2.67,0c0.9-0.02,1.8-0.11,2.68-0.34
			c0.92-0.1,1.8-0.33,2.65-0.68c1.04-0.25,2.02-0.65,2.94-1.2c0.87-0.32,1.65-0.8,2.39-1.34c0.64-0.35,1.23-0.77,1.75-1.29
			c0.36-0.21,0.68-0.47,0.94-0.8c0.76-0.59,1.41-1.28,1.99-2.04c0.33-0.31,0.61-0.66,0.83-1.06c0.46-0.48,0.81-1.04,1.12-1.62
			c0.57-0.83,1.04-1.71,1.4-2.65c0.1-0.06,0.12-0.16,0.12-0.27c0.4-0.76,0.66-1.57,0.88-2.4c0.29-0.87,0.5-1.75,0.58-2.67
			c0.22-0.88,0.3-1.77,0.27-2.67c0.11-0.89,0.04-1.78-0.04-2.67c-0.05-0.9-0.16-1.79-0.4-2.66C90.06,18.64,89.82,17.75,89.44,16.89z
			"/>
		<path class="st17" d="M19.59,59.78c-0.02-0.08-0.05-0.17-0.07-0.25c-0.23-0.91-0.52-1.8-0.88-2.67c-0.09-0.55-0.32-1.05-0.52-1.56
			c-0.39-0.96-1.09-1.46-2.13-1.5c-0.21-0.01-0.45,0.06-0.46-0.3c-0.01-0.4,0.25-0.33,0.49-0.34c0.24-0.01,0.48-0.02,0.73-0.03
			c0.89,0,1.78,0,2.67,0c0.89,0,1.78,0,2.67,0c0.31,0.04,0.32,0.26,0.28,0.48c-0.05,0.26-0.27,0.17-0.43,0.18
			c-1.37,0.13-1.69,0.56-1.34,1.83c0.11,0.42,0.28,0.83,0.43,1.24c0.56,1.76,1.12,3.52,1.68,5.27c0.06-0.01,0.12-0.02,0.18-0.03
			c0.27-0.86,0.54-1.72,0.81-2.58c0.34-0.86,0.66-1.73,0.88-2.63c0.16-0.31,0.26-0.63,0.32-0.97c0.28-0.54,0.45-1.12,0.59-1.71
			c0.18-0.18,0.06-0.45,0.23-0.66c0.15-0.18,0.18-0.43,0.51-0.4c0.3,0.03,0.32,0.26,0.4,0.45c0.08,0.2,0.16,0.41,0.24,0.61
			c0.09,0.46,0.22,0.9,0.45,1.31c0.08,0.48,0.25,0.93,0.44,1.38c0.27,0.88,0.51,1.77,0.88,2.62c0.21,0.9,0.54,1.76,0.9,2.81
			c0.33-1.03,0.61-1.91,0.89-2.79c0.37-0.87,0.67-1.76,0.9-2.67c0.24-0.4,0.33-0.86,0.45-1.3c0.34-1.21,0.02-1.68-1.25-1.76
			c-0.53-0.03-0.7-0.18-0.42-0.67c0.89,0,1.78-0.01,2.67-0.01c0.89,0,1.78,0,2.67,0c0.2,0.03,0.35,0.09,0.35,0.35
			c0,0.26-0.15,0.32-0.35,0.35c-1.12-0.07-1.92,0.39-2.35,1.44c-0.57,1.39-1.04,2.81-1.45,4.24c-0.3,0.88-0.6,1.77-0.91,2.65
			c-0.48,1.44-0.96,2.88-1.46,4.31c-0.06,0.19-0.04,0.49-0.35,0.49c-0.32,0-0.29-0.3-0.35-0.49c-0.49-1.44-0.97-2.88-1.45-4.33
			c-0.23-0.9-0.53-1.77-0.87-2.63c-0.14-0.67-0.36-1.31-0.69-2.09c-0.25,0.8-0.44,1.44-0.64,2.08c-0.14,0.25-0.25,0.51-0.27,0.8
			c-0.21,0.62-0.42,1.23-0.62,1.85c-0.29,0.89-0.58,1.78-0.87,2.67c-0.21,0.58-0.42,1.16-0.62,1.74c-0.07,0.22-0.13,0.43-0.42,0.41
			c-0.46-0.72-0.51-1.59-0.89-2.34c-0.22-0.85-0.47-1.68-0.82-2.48C20.18,61.36,19.92,60.56,19.59,59.78z"/>
		<path class="st15" d="M72.75,66.47c-0.66-0.01-1.32-0.03-1.99-0.03c-0.24,0-0.44-0.01-0.43-0.34c0.01-0.29,0.19-0.29,0.4-0.31
			c0.64-0.05,1.3-0.07,1.63-0.78c0.45-0.9,0.4-1.86,0.35-2.82c0.05-0.89,0.06-1.77,0-2.66c0.06-0.89,0.06-1.78,0-2.67
			c0-0.28,0.04-0.57,0-0.85c-0.09-0.66-0.04-1.39-0.7-1.83c-0.35-0.33-0.8-0.33-1.23-0.37c-0.22-0.02-0.45,0.03-0.45-0.32
			c0-0.34,0.22-0.32,0.44-0.32c0.66-0.01,1.32-0.02,1.97-0.03c0.89,0,1.78,0,2.67,0c0.89,0.04,1.78,0.08,2.67,0.12
			c0.15,0.05,0.29,0.1,0.44,0.14c1.9,0.5,2.82,1.52,3.09,3.47c-0.03,1.31-0.56,2.35-1.68,3.07c-0.57,0.37-1.21,0.54-1.85,0.71
			c-0.6,0.03-1.19,0.08-1.79,0.08c-1.47,0.01-1.47,0-1.31,1.48c-0.11,0.64-0.01,1.28,0.06,1.91c0.14,1.16,0.59,1.56,1.77,1.67
			c0.25,0.02,0.58-0.08,0.55,0.36c-0.03,0.4-0.33,0.27-0.55,0.28c-0.46,0.02-0.93,0.03-1.39,0.04
			C74.53,66.47,73.64,66.47,72.75,66.47z M74.98,59.39c0.03,0.23,0.03,0.23,0.44,0.16c0.92,0.08,1.85,0.2,2.68-0.36
			c0.87-0.54,1.12-1.36,1.04-2.32c0-1.6-0.91-2.54-2.48-2.57c-0.44-0.01-0.89,0.01-1.33,0c-0.27-0.01-0.41,0.08-0.4,0.38
			c0.03,0.73,0.03,1.46,0.05,2.19C74.9,57.7,74.91,58.55,74.98,59.39z"/>
		<path class="st17" d="M48.75,66.47c-0.57-0.01-1.15-0.02-1.72-0.03c-0.22,0-0.47,0.05-0.48-0.29c-0.01-0.33,0.22-0.32,0.45-0.34
			c0.64-0.04,1.26-0.13,1.37-0.94c0.26-0.88,0.16-1.78,0.13-2.67c0.06-0.89,0.05-1.77,0-2.66c0.07-0.51,0.04-1.02-0.04-1.52
			c-0.11-0.76-0.46-1.07-1.23-1.15c-0.22-0.02-0.44-0.03-0.66-0.04c-0.11-0.46,0.05-0.64,0.54-0.62c0.55,0.03,1.1-0.01,1.65-0.02
			c0.89,0.05,1.78,0.05,2.66,0c0.89,0.04,1.78,0.07,2.64,0.35c0.32,0.16,0.64,0.31,0.96,0.47c0.76,0.67,1.15,1.5,1.1,2.53
			c-0.32,1.52-1.44,2.19-2.88,2.6c0.34,0.34,0.6,0.6,0.86,0.86c0.57,0.73,1.22,1.4,1.95,1.98c0.71,0.56,1.52,0.89,2.46,0.83
			c1.01-0.06,1.4-0.41,1.46-1.43c0.04-0.73,0.01-1.46,0.01-2.19c0.06-0.89,0.05-1.78,0-2.67c0.01-0.33,0.03-0.66,0.01-0.99
			c-0.03-0.52,0-1.08-0.55-1.41c-0.41-0.36-0.92-0.24-1.39-0.3c-0.12-0.45,0.02-0.67,0.53-0.62c0.28,0.03,0.57-0.01,0.86-0.03
			c0.89,0.05,1.78,0.05,2.66,0c0.89,0.02,1.77,0.04,2.66,0.07c2.12,0.34,3.92,1.14,4.81,3.28c0.54,1.96,0.26,3.76-1.12,5.31
			c-0.34,0.25-0.68,0.5-1.02,0.75c-0.85,0.4-1.75,0.64-2.66,0.8c-0.89,0.03-1.77,0.05-2.66,0.08c-0.89-0.05-1.78-0.05-2.66,0
			c-0.89,0-1.78,0-2.67,0c-0.51-0.01-1.02-0.05-1.53-0.02c-0.41,0.02-0.73-0.07-0.98-0.4c-0.3-0.49-0.68-0.92-1.07-1.35
			c-0.49-0.7-1.02-1.36-1.59-1.99c-0.1-0.14-0.18-0.32-0.32-0.42c-0.28-0.21-0.56-0.22-0.58,0.23c-0.04,0.77-0.02,1.55,0.12,2.31
			c0.12,0.68,0.62,0.9,1.25,0.97c0.25,0.03,0.65-0.13,0.6,0.37c-0.05,0.43-0.4,0.22-0.63,0.26c-0.19,0.03-0.4,0.03-0.59,0.04
			C50.53,66.47,49.64,66.47,48.75,66.47z M50.72,59.53c-0.01,0.35,0,0.7-0.04,1.05c-0.06,0.6,0.2,0.75,0.73,0.6
			c1.46,0.16,2.28-0.39,2.43-1.64c0.29-1.54-0.68-2.48-2.42-2.36c-0.63-0.18-0.84,0.08-0.77,0.7C50.72,58.43,50.6,58.99,50.72,59.53
			z M64.79,57.32c-0.75-0.25-1.53-0.14-2.29-0.17c-0.3-0.01-0.38,0.13-0.37,0.4c0.02,0.66,0.03,1.32,0.05,1.97
			c-0.08,0.89-0.09,1.79,0,2.68c-0.05,0.89-0.13,1.77,0.08,2.65c0,0.33,0.22,0.46,0.49,0.54c2.19,0.7,4.42-0.88,4.52-3.21
			c0.19-0.91,0.12-1.81-0.18-2.69C66.76,58.31,66,57.57,64.79,57.32z"/>
		<path class="st17" d="M45.99,62.2c-0.02,0.13-0.04,0.26-0.06,0.39c-0.31,0.83-0.72,1.59-1.29,2.28c-0.41,0.34-0.83,0.68-1.24,1.02
			c-0.84,0.43-1.72,0.76-2.66,0.91c-0.9,0.09-1.78-0.03-2.66-0.18c-0.98-0.34-1.87-0.83-2.66-1.5c-0.09-0.09-0.17-0.17-0.26-0.26
			c-0.64-0.79-1.11-1.67-1.35-2.66c0.01-0.89-0.15-1.81,0.25-2.66c0.81-1.79,2.22-2.88,4.04-3.5c0.87-0.14,1.74-0.27,2.63-0.18
			c0.94,0.15,1.82,0.48,2.66,0.91c0.13,0.09,0.27,0.17,0.4,0.26C45.41,58.38,46.28,60.04,45.99,62.2z M40.77,65.7
			c0.64-0.07,1.18-0.34,1.6-0.83c1.35-1.37,1.54-3.03,1.19-4.82c0.01-0.19,0-0.37-0.14-0.53c-0.39-1.38-1.19-2.33-2.66-2.61
			c-0.94-0.22-1.85-0.16-2.68,0.37c-0.93,0.46-1.38,1.28-1.67,2.22c-0.28,0.88-0.43,1.77-0.19,2.68c0.12,1.13,0.48,2.13,1.45,2.83
			C38.57,65.87,39.63,65.94,40.77,65.7z"/>
		<path class="st18" d="M103.06,64.86c-0.02,0.22-0.07,0.44-0.06,0.66c0.05,0.67-0.17,1.05-0.91,0.95c-0.89-0.05-1.78-0.05-2.67,0
			c-0.89,0-1.78,0-2.66,0c-0.89-0.05-1.78-0.05-2.67,0c-0.89,0-1.78,0-2.66,0c-0.87,0.12-1.41-0.32-1.89-1
			c-0.73-1.02-1.57-1.97-2.35-2.96c-0.16-0.2-0.31-0.41-0.59-0.31c-0.29,0.1-0.18,0.37-0.18,0.57c0.01,0.7-0.06,1.41,0.17,2.1
			c0.11,0.76,0.68,0.88,1.3,0.94c0.22,0.02,0.52-0.06,0.51,0.33c-0.01,0.39-0.31,0.29-0.53,0.3c-0.59,0.02-1.18,0.02-1.77,0.04
			c-0.89,0-1.78,0-2.67,0c-0.24-0.01-0.48-0.03-0.73-0.03c-0.21,0-0.4,0-0.41-0.29c-0.01-0.27,0.13-0.33,0.37-0.34
			c0.26-0.01,0.53,0.01,0.77-0.15c0.43-0.09,0.64-0.37,0.68-0.8c0.26-0.88,0.16-1.78,0.13-2.67c0.06-0.89,0.05-1.77,0-2.66
			c0.08-0.53,0.04-1.06-0.05-1.58c-0.07-0.45-0.23-0.86-0.76-0.96c-0.35-0.2-0.73-0.14-1.1-0.15c-0.12-0.44-0.02-0.69,0.5-0.63
			c0.19,0.02,0.4-0.02,0.59-0.03c0.89,0.05,1.78,0.05,2.67,0c0.88,0.03,1.77,0.06,2.65,0.08c2.31,0.58,3.01,1.31,3.11,3.26
			c-0.15,0.39-0.3,0.78-0.44,1.16c-0.57,0.64-1.25,1.09-2.09,1.3c-0.47,0.12-0.24,0.29-0.02,0.44c0.61,0.72,1.22,1.43,1.95,2.05
			c0.19,0.23,0.4,0.44,0.68,0.57c0.64,0.48,1.32,0.85,2.16,0.7c0.58-0.03,0.95-0.3,1.04-0.9c0.25-0.87,0.15-1.77,0.12-2.65
			c0.06-0.89,0.06-1.78,0-2.68c0.06-0.53,0.04-1.05-0.06-1.58c-0.11-0.61-0.42-1.01-1.08-1.04c-0.25-0.1-0.51-0.08-0.78-0.06
			c-0.26-0.8,0.37-0.59,0.76-0.67c0.89,0.05,1.78,0.05,2.67,0c0.89,0.06,1.78,0.06,2.66,0c0.89,0.05,1.78,0.05,2.67,0
			c0.36,0.11,0.19,0.46,0.3,0.68c0.03,0.62,0.05,1.24,0.11,1.85c0.03,0.34-0.12,0.44-0.41,0.42c-0.18-0.21-0.19-0.49-0.26-0.73
			c-0.19-0.66-0.61-1.04-1.29-1.14c-0.37-0.05-0.73-0.14-1.11-0.08c-0.53-0.01-1.06-0.01-1.58-0.04c-0.36-0.02-0.45,0.15-0.44,0.47
			c0.02,0.64,0.02,1.28,0.03,1.91c-0.08,1.12-0.08,1.12,1.02,1.02c0.18-0.02,0.35-0.04,0.53-0.07c0.54-0.09,0.9-0.35,0.91-0.96
			c0.02-0.11,0.05-0.21,0.06-0.32c0.02-0.21-0.03-0.45,0.31-0.45c0.34,0,0.3,0.24,0.31,0.45c0,0.11,0.02,0.21,0.04,0.32
			c-0.06,0.89-0.06,1.77,0,2.66c-0.01,0.2-0.02,0.4-0.04,0.59c-0.02,0.22,0.11,0.53-0.29,0.55c-0.4,0.02-0.3-0.29-0.32-0.51
			c-0.08-0.86-0.32-1.11-1.18-1.23c-0.24-0.03-0.49-0.02-0.73-0.06c-0.54-0.08-0.75,0.12-0.6,0.66c0.01,0.96-0.24,1.95,0.36,2.83
			c0.43,0.57,1.04,0.42,1.61,0.4c0.94,0.03,1.91,0.21,2.67-0.56c0.1-0.06,0.15-0.15,0.15-0.26c0.23-0.23,0.22-0.56,0.32-0.84
			c0.06-0.17,0.17-0.24,0.35-0.22c0.23,0.03,0.19,0.19,0.19,0.34C103.09,64.21,103.07,64.53,103.06,64.86z M86.46,59.53
			c-0.12,0.44-0.03,0.88-0.04,1.32c-0.01,0.16,0,0.36,0.2,0.36c0.82-0.01,1.7,0.22,2.37-0.49c0.7-0.59,0.76-1.35,0.57-2.16
			c-0.17-0.69-0.57-1.18-1.33-1.28c-0.08-0.08-0.17-0.11-0.27-0.06c-0.33-0.02-0.66-0.02-0.99-0.06c-0.4-0.04-0.57,0.09-0.54,0.52
			C86.45,58.29,86.36,58.91,86.46,59.53z"/>
		<path class="st15" d="M111.7,59.39c-0.22,0.08-0.45,0.06-0.67,0c-0.11-0.65-0.28-1.27-0.77-1.75c-0.3-0.41-0.69-0.66-1.2-0.71
			c-0.33-0.14-0.66-0.13-0.99-0.04c-0.32,0.01-0.61,0.09-0.83,0.33c-0.7,0.66-0.64,1.3,0.2,1.91c0.27,0.25,0.57,0.44,0.93,0.54
			c0.56,0.32,1.12,0.62,1.73,0.83c0.82,0.43,1.62,0.89,2.17,1.68c0.39,0.79,0.47,1.6,0.19,2.44c-0.45,1.06-1.3,1.67-2.35,2.06
			c-1.32,0.26-2.57,0.11-3.68-0.68c-0.31-0.22-0.43-0.08-0.55,0.17c-0.07,0.14-0.12,0.28-0.17,0.43c-0.07,0.22-0.25,0.23-0.43,0.21
			c-0.21-0.02-0.23-0.17-0.23-0.34c0-1.2,0.01-2.39,0.01-3.59c0-0.18,0.05-0.3,0.26-0.3c0.18,0,0.36-0.02,0.4,0.23
			c0.03,0.2,0.08,0.39,0.14,0.58c0.49,1.57,1.99,2.57,3.57,2.37c0.66-0.08,1.2-0.37,1.42-1.04c0.21-0.62-0.03-1.12-0.53-1.51
			c-0.83-0.77-1.89-1.11-2.88-1.58c-0.99-0.47-1.8-1.1-2.26-2.12c-0.23-0.9-0.13-1.74,0.42-2.51c0.51-0.55,1.16-0.87,1.86-1.11
			c0.91-0.09,1.8-0.03,2.66,0.3c0.38,0.33,0.75,0.6,0.95-0.16c0.05-0.21,0.23-0.23,0.42-0.22c0.27,0.02,0.23,0.21,0.23,0.38
			c0.01,0.22,0.02,0.44,0.03,0.65C111.71,57.71,111.7,58.55,111.7,59.39z"/>
		<path class="st19" d="M56.75,39.82c-0.62-0.53-1.24-1.07-1.87-1.6c-0.23-0.3-0.49-0.58-0.79-0.81c-0.51-0.63-1.02-1.26-1.53-1.89
			c-0.34-0.52-0.68-1.04-1.02-1.56c-0.19-0.37-0.39-0.73-0.58-1.1c-0.36-0.88-0.73-1.76-1.09-2.64c-0.23-0.89-0.45-1.78-0.68-2.67
			c-0.26-2.14-0.36-4.28-0.04-6.42c0.08-0.52,0.17-1.04,0.26-1.57c0.27-0.89,0.54-1.77,0.82-2.66c0.12-0.22,0.24-0.45,0.42-0.78
			c0.47,1.21,0.9,2.33,1.33,3.44c0.33,0.9,0.65,1.79,0.98,2.69c0.67,1.83,1.35,3.67,2.02,5.5c0.3,0.83,0.61,1.66,0.91,2.5
			c0.2,0.67,0.4,1.34,0.74,1.97c0.04,0.24,0.1,0.47,0.24,0.67c0.26,0.99,0.65,1.93,1.03,2.87c0.41,1.28,0.87,2.54,1.4,3.78
			c0.1,0.47,0.26,0.92,0.48,1.35c-0.03,0.27,0.26,0.49,0.13,0.8c-0.17-0.05-0.33-0.11-0.49-0.16c-0.39-0.22-0.78-0.45-1.16-0.67
			C57.76,40.51,57.25,40.16,56.75,39.82z"/>
		<path class="st20" d="M80.76,8.36c0.19,0.23,0.41,0.4,0.67,0.54c0.14,0.16,0.29,0.31,0.47,0.51c-0.47,0.19-0.96,0.1-1.34,0.38
			c-0.84,0.33-1.41,0.92-1.73,1.76c-0.43,0.88-0.45,1.78-0.11,2.69c0.21,1.01,0.75,1.85,1.32,2.68c0.17,0.41,0.41,0.77,0.68,1.12
			c0.24,0.51,0.48,1.01,0.72,1.52c0.27,0.88,0.48,1.77,0.64,2.67c-0.04,0.88-0.09,1.77-0.13,2.65c-0.22,0.89-0.44,1.78-0.66,2.66
			c-0.27,0.61-0.51,1.22-0.65,1.87c-0.45,1.13-0.79,2.29-1.06,3.46c-0.33,0.87-0.61,1.75-0.8,2.66c-0.15,0.32-0.27,0.26-0.37-0.03
			c-0.31-0.89-0.61-1.77-0.92-2.66c-0.27-0.96-0.58-1.91-0.96-2.83c-0.53-1.73-1.1-3.45-1.75-5.15c-0.23-0.91-0.55-1.79-0.88-2.67
			c-0.6-1.77-1.21-3.54-1.81-5.32c-0.19-0.58-0.38-1.15-0.57-1.73c-0.01-0.13-0.03-0.25-0.04-0.38c0.71-0.05,1.42-0.08,2.12-0.15
			c0.54-0.05,0.86-0.33,0.78-0.92c0.06-0.18-0.01-0.3-0.16-0.4c-0.42-0.53-0.97-0.23-1.47-0.23c-0.88,0.05-1.77,0.1-2.65,0.16
			c-0.89,0.02-1.78,0.03-2.67,0.05c-0.89-0.12-1.78-0.13-2.67-0.12c-0.39-0.11-0.8-0.11-1.2-0.1c-1.12-0.13-1.53,0.28-1.18,1.17
			c0.08,0.27,0.31,0.37,0.55,0.39c0.61,0.05,1.21,0.19,1.83,0.14c0.31,0.02,0.36,0.26,0.45,0.49c0.21,0.55,0.43,1.1,0.64,1.65
			c0.41,1.31,0.87,2.61,1.44,3.86c0.11,0.51,0.27,1.01,0.52,1.47c0.36,0.74,0.26,1.47-0.08,2.19c-0.06,0.14-0.08,0.29-0.11,0.44
			c-0.16,0.27-0.23,0.56-0.27,0.86c-0.29,0.58-0.49,1.19-0.62,1.82c-0.35,0.88-0.66,1.77-0.89,2.68c-0.36,0.87-0.66,1.76-0.9,2.67
			c-0.16,0.29-0.24,0.61-0.3,0.93c-0.27,0.54-0.46,1.12-0.58,1.71c-0.15,0.1-0.06,0.39-0.31,0.42c-0.07-0.14-0.14-0.27-0.2-0.4
			c-0.55-1.8-1.13-3.59-1.8-5.35c-0.29-0.88-0.59-1.77-0.88-2.65c-0.58-1.79-1.12-3.59-1.82-5.34c-0.23-0.92-0.54-1.8-0.89-2.68
			c-0.46-1.4-0.92-2.79-1.37-4.19c-0.06-0.18-0.3-0.38-0.02-0.58c0.86-0.05,1.74,0.08,2.54-0.38c0.37-0.25,0.36-0.6,0.21-0.94
			c-0.15-0.34-0.46-0.46-0.83-0.43c-0.64,0.05-1.28,0.1-1.92,0.16c-0.89,0-1.78,0.01-2.67,0.12c-0.6,0-1.2,0-1.96,0
			c0.48-0.68,0.84-1.19,1.2-1.7c0.3-0.26,0.57-0.56,0.78-0.9c0.62-0.59,1.24-1.18,1.86-1.78c0.31-0.16,0.57-0.38,0.8-0.64
			c1.66-1.16,3.43-2.11,5.32-2.85c0.89-0.25,1.79-0.49,2.68-0.74c0.88-0.11,1.77-0.22,2.65-0.33c0.89,0,1.77,0,2.66,0.01
			c0.89,0.12,1.79,0.24,2.68,0.37c0.89,0.25,1.77,0.49,2.66,0.74C77.31,6.22,79.1,7.18,80.76,8.36z"/>
		<path class="st19" d="M87.55,30.22c-0.37,0.88-0.73,1.77-1.1,2.65c-0.22,0.29-0.39,0.6-0.5,0.95c-0.37,0.57-0.74,1.14-1.11,1.71
			c-0.47,0.59-0.95,1.17-1.42,1.76c-0.3,0.31-0.61,0.63-0.91,0.94c-0.59,0.51-1.19,1.03-1.78,1.54c-0.53,0.37-1.07,0.74-1.61,1.1
			c-0.15,0.07-0.29,0.26-0.45,0.02c0.36-0.87,0.68-1.75,0.92-2.66c0.42-0.85,0.59-1.79,0.93-2.67c0.18-0.34,0.32-0.69,0.38-1.07
			c0.17-0.49,0.34-0.98,0.51-1.47c0.36-0.91,0.72-1.83,0.96-2.79c0.37-0.87,0.69-1.75,0.93-2.67c0.16-0.24,0.26-0.5,0.29-0.79
			c0.27-0.6,0.49-1.23,0.64-1.88c0.34-0.88,0.72-1.74,0.95-2.66c0.36-0.85,0.6-1.74,0.7-2.66c0.23-0.88,0.33-1.78,0.29-2.68
			c0.12-0.57-0.16-1.13-0.06-1.71c0.32-0.1,0.36,0.17,0.44,0.35c0.24,0.51,0.47,1.03,0.7,1.55c0.25,0.82,0.49,1.65,0.74,2.47
			c0.15,0.89,0.3,1.79,0.45,2.68c0.02,0.22,0.03,0.44,0.05,0.65c-0.07,0.09-0.07,0.18,0.01,0.26c0,0.58,0.01,1.15,0.01,1.73
			c-0.1,0.89-0.19,1.78-0.29,2.67C87.99,28.44,87.77,29.33,87.55,30.22z"/>
		<path class="st19" d="M70.08,43.78c-0.88,0-1.77,0-2.65,0.01c-0.86-0.12-1.72-0.23-2.59-0.35c-0.03,0-0.04,0.01-0.05,0.04
			c-0.37-0.26-0.83-0.25-1.24-0.37c-0.31-0.09-0.44-0.2-0.3-0.55c0.21-0.55,0.37-1.12,0.55-1.68c0.36-0.87,0.68-1.76,0.92-2.67
			c0.06-0.18,0.11-0.35,0.17-0.53c0.34-0.68,0.56-1.4,0.76-2.14c0.3-0.88,0.61-1.76,0.91-2.64c0.45-0.84,0.48-1.82,0.91-2.67
			l0.01-0.05c0.38-0.85,0.71-1.71,0.89-2.62c0.22-0.53,0.44-1.06,0.69-1.66c0.33,0.79,0.62,1.49,0.91,2.19
			c0.17,0.75,0.45,1.45,0.77,2.15c0.25,0.91,0.59,1.79,0.96,2.66c0.27,0.93,0.59,1.83,1,2.71c0.23,0.91,0.61,1.77,0.94,2.64
			c0.33,0.88,0.66,1.76,0.99,2.64c0.11,0.51,0.3,1,0.53,1.47c0.11,0.32-0.1,0.41-0.34,0.48c-0.69,0.19-1.37,0.39-2.06,0.59
			C71.86,43.54,70.97,43.66,70.08,43.78z"/>
	</g>
</g>
</svg>
