<?xml version="1.0" encoding="utf-8"?>
<!-- Generator: Adobe Illustrator 25.4.1, SVG Export Plug-In . SVG Version: 6.00 Build 0)  -->
<svg version="1.1" id="Layer_1" xmlns="http://www.w3.org/2000/svg" xmlns:xlink="http://www.w3.org/1999/xlink" x="0px" y="0px"
	 viewBox="0 0 855 336" style="enable-background:new 0 0 855 336;" xml:space="preserve">
<style type="text/css">
	.st0{fill:#11A64A;}
	.st1{fill:#FFFFFF;}
</style>
<g>
	<path d="M452.7,273.86h4.47c1.72,0,2.99-0.24,3.8-0.71c0.81-0.47,1.55-1.59,2.23-3.37l1.72-4.78l-16.53-43.41h9.4l9.95,27.97
		c0.52,1.41,0.91,3.11,1.17,5.09h0.94c0.16-1.67,0.52-3.37,1.1-5.09l9.25-27.97h9.32l-18.18,50.53c-1.25,3.5-2.74,5.92-4.47,7.25
		c-1.72,1.33-4.15,2-7.29,2h-6.89V273.86z"/>
	<path d="M385.95,84h40.71v8.06h-32.31v19.06h28.84v8.14h-28.84v19.32h33.52v8.06h-41.92V84z"/>
	<path d="M472.05,146.62h-9.7l-27.29-35.86h9.96L472.05,146.62z M453.17,133.29l-9.53,13.34h-8.14l13.77-18.71L453.17,133.29z
		 M453.95,124.1l8.58-13.34h8.23l-13.86,19.23L453.95,124.1z"/>
	<path d="M501.85,147.49c-2.71,0-5.33-0.64-7.84-1.91c-2.51-1.27-4.43-2.97-5.76-5.11l0.43-2.51v25.9h-8.06v-53.62h7.02l1.13,9.18
		l-0.87-2.6c1.73-2.19,3.93-4,6.58-5.41c2.66-1.42,5.63-2.12,8.92-2.12c3.35,0,6.37,0.79,9.05,2.38c2.68,1.59,4.81,3.84,6.37,6.76
		c1.56,2.92,2.34,6.31,2.34,10.18c0,3.81-0.84,7.15-2.51,10c-1.68,2.86-3.97,5.05-6.89,6.58
		C508.85,146.72,505.54,147.49,501.85,147.49z M500.29,141.08c2.31,0,4.42-0.53,6.32-1.6c1.91-1.07,3.45-2.54,4.63-4.42
		c1.18-1.88,1.78-4,1.78-6.37c0-2.43-0.55-4.58-1.65-6.45c-1.1-1.88-2.56-3.35-4.37-4.42c-1.82-1.07-3.86-1.6-6.11-1.6
		c-2.08,0-3.96,0.39-5.63,1.17c-1.68,0.78-3.06,1.86-4.16,3.25c-1.1,1.39-1.88,3.03-2.34,4.94v6.06c0.29,1.73,0.98,3.32,2.08,4.76
		c1.1,1.45,2.47,2.59,4.12,3.42C496.61,140.66,498.38,141.08,500.29,141.08z"/>
	<path d="M546.98,147.49c-3.35,0-6.4-0.72-9.14-2.17c-2.74-1.44-4.92-3.57-6.54-6.37c-1.62-2.8-2.43-6.22-2.43-10.26
		c0-4.04,0.84-7.51,2.51-10.4c1.67-2.89,3.93-5.11,6.76-6.67c2.83-1.56,5.92-2.34,9.27-2.34c3.35,0,6.19,0.77,8.53,2.3
		c2.34,1.53,4.09,3.33,5.24,5.41l-0.52,1.3l0.78-7.54h7.45v35.86h-8.06v-9.35l0.95,2.08c-0.29,0.58-0.84,1.31-1.65,2.21
		c-0.81,0.9-1.83,1.8-3.08,2.73c-1.24,0.92-2.7,1.69-4.37,2.29C551.02,147.19,549.11,147.49,546.98,147.49z M549.14,140.82
		c2.02,0,3.84-0.38,5.46-1.13c1.62-0.75,2.96-1.82,4.03-3.21c1.07-1.39,1.8-3,2.21-4.85v-7.02c-0.46-1.73-1.27-3.25-2.43-4.55
		c-1.16-1.3-2.54-2.31-4.16-3.03c-1.62-0.72-3.38-1.08-5.28-1.08c-2.2,0-4.19,0.52-5.98,1.56c-1.79,1.04-3.22,2.48-4.29,4.33
		c-1.07,1.85-1.6,4.01-1.6,6.5c0,2.31,0.55,4.42,1.65,6.32c1.1,1.91,2.57,3.41,4.42,4.5C545.01,140.27,547,140.82,549.14,140.82z"/>
	<path d="M590.11,110.76l0.61,8.75l-0.26-1.39c1.1-2.66,2.95-4.78,5.54-6.37c2.6-1.59,5.63-2.38,9.1-2.38c3.35,0,6.11,1,8.27,2.99
		c2.17,1.99,3.28,4.58,3.33,7.75v26.51h-8.14v-23.73c-0.06-1.91-0.62-3.48-1.69-4.72c-1.07-1.24-2.73-1.86-4.98-1.86
		c-2.02,0-3.89,0.58-5.59,1.73c-1.7,1.16-3.03,2.74-3.98,4.76c-0.95,2.02-1.43,4.36-1.43,7.02v16.8h-8.14v-35.86H590.11z"/>
	<path d="M645.29,147.49c-3.35,0-6.35-0.79-9.01-2.38c-2.66-1.59-4.78-3.84-6.37-6.76c-1.59-2.91-2.38-6.28-2.38-10.09
		c0-3.98,0.84-7.39,2.51-10.22c1.67-2.83,3.93-4.99,6.76-6.5c2.83-1.5,6.01-2.25,9.53-2.25c2.83,0,5.53,0.61,8.1,1.82
		c2.57,1.21,4.58,2.89,6.02,5.02l-0.43,2.86V79.58h8.06v67.05h-8.06v-8.92l0.95,2.25c-1.73,2.2-3.94,4-6.63,5.41
		C651.66,146.78,648.64,147.49,645.29,147.49z M647.8,140.65c2.14,0,4.03-0.4,5.67-1.21c1.65-0.81,3.03-1.89,4.16-3.25
		c1.13-1.36,1.92-2.96,2.38-4.81v-6.84c-0.46-1.73-1.29-3.26-2.47-4.59c-1.18-1.33-2.6-2.35-4.24-3.08
		c-1.65-0.72-3.48-1.08-5.5-1.08c-2.14,0-4.13,0.52-5.98,1.56c-1.85,1.04-3.32,2.48-4.42,4.33c-1.1,1.85-1.65,3.98-1.65,6.41
		c0,2.37,0.55,4.49,1.65,6.37c1.1,1.88,2.57,3.38,4.42,4.5C643.67,140.08,645.67,140.65,647.8,140.65z"/>
	<path d="M432.03,262.39v-48.61l2.77,0.61l-19.06,29.02c-0.4,0.52-0.94,0.97-1.6,1.34c-0.67,0.38-1.31,0.56-1.95,0.56
		c-0.64,0-1.29-0.19-1.95-0.56c-0.66-0.38-1.2-0.82-1.6-1.34l-18.36-28.58l2.08-3.46l-0.29,51.04h-8.11v-56.58
		c0-1.15,0.45-2.18,1.34-3.08c0.9-0.89,1.95-1.34,3.16-1.34c0.69,0,1.42,0.19,2.17,0.56c0.75,0.38,1.33,0.85,1.73,1.43l22,33.52
		l-3.72-0.17l22.44-33.35c0.92-1.33,2.11-1.99,3.55-1.99c1.16,0,2.18,0.42,3.08,1.26c0.9,0.84,1.34,1.89,1.34,3.16v56.58"/>
	<g>
		<path d="M532.83,199.49c6.29,0,11.25,1.29,14.86,3.85c3.61,2.57,5.41,6.54,5.41,11.91c0,3.35-0.75,6.24-2.25,8.66
			c-1.5,2.42-3.59,4.33-6.28,5.72c-2.68,1.39-5.85,2.2-9.48,2.42l-1.21-4.42c4.21,0.12,8,0.87,11.35,2.25
			c3.35,1.39,6.01,3.32,7.97,5.81c1.96,2.48,2.94,5.43,2.94,8.83c0,3.12-0.56,5.79-1.69,8.01c-1.13,2.22-2.68,4.04-4.68,5.46
			c-1.99,1.42-4.22,2.45-6.67,3.12c-2.45,0.66-5.04,1-7.75,1h-18.62v-62.63H532.83z M534.56,226.86c3.46,0,5.98-0.95,7.54-2.86
			c1.56-1.91,2.34-4.21,2.34-6.93c0-3.35-1.01-5.77-3.03-7.28c-2.02-1.5-4.74-2.25-8.14-2.25h-8.14v19.32H534.56z M534.91,254.32
			c2.37,0,4.5-0.35,6.41-1.04c1.91-0.69,3.42-1.77,4.55-3.25c1.13-1.47,1.69-3.28,1.69-5.41c0-2.42-0.65-4.33-1.95-5.72
			c-1.3-1.39-2.96-2.38-4.98-2.99c-2.02-0.61-4.1-0.91-6.24-0.91h-9.27v19.32H534.91z"/>
		<path d="M579.69,263.5c-3.35,0-6.08-1-8.19-2.99c-2.11-1.99-3.22-4.58-3.34-7.75v-26.51h8.14v23.65c0.11,1.91,0.69,3.48,1.73,4.72
			c1.04,1.24,2.66,1.89,4.85,1.95c1.96,0,3.74-0.59,5.33-1.77c1.59-1.18,2.87-2.8,3.85-4.85c0.98-2.05,1.47-4.37,1.47-6.97v-16.72
			h8.06v35.86h-7.36l-0.69-8.84l0.52,1.65c-0.75,1.62-1.82,3.08-3.2,4.38c-1.39,1.3-3.05,2.32-4.98,3.07
			C583.95,263.13,581.89,263.5,579.69,263.5z"/>
		<path d="M625.6,262.81c-2.54,0-5.01-0.45-7.41-1.34c-2.4-0.89-4.37-2.24-5.93-4.03l3.38-4.68c1.56,1.44,3.12,2.53,4.68,3.25
			c1.56,0.72,3.12,1.08,4.68,1.08c1.15,0,2.22-0.14,3.2-0.43c0.98-0.29,1.78-0.78,2.38-1.47c0.61-0.69,0.91-1.59,0.91-2.69
			c0-1.33-0.42-2.35-1.26-3.08c-0.84-0.72-1.89-1.31-3.16-1.77c-1.27-0.46-2.66-0.9-4.16-1.3c-2.94-0.98-5.2-2.34-6.76-4.07
			c-1.56-1.73-2.34-3.84-2.34-6.32c0-1.91,0.48-3.68,1.43-5.33c0.95-1.65,2.38-3,4.29-4.07c1.91-1.07,4.21-1.6,6.93-1.6
			c2.48,0,4.71,0.3,6.67,0.91c1.96,0.61,3.81,1.63,5.54,3.08l-3.2,5.02c-1.04-1.1-2.27-1.92-3.68-2.47
			c-1.42-0.55-2.7-0.82-3.86-0.82c-1.04,0-2.01,0.16-2.9,0.48c-0.9,0.32-1.62,0.78-2.17,1.39c-0.55,0.61-0.82,1.37-0.82,2.29
			c-0.06,1.21,0.33,2.18,1.17,2.9c0.84,0.72,1.89,1.31,3.16,1.77c1.27,0.46,2.57,0.93,3.9,1.39c1.73,0.52,3.29,1.21,4.68,2.08
			c1.39,0.87,2.5,1.94,3.33,3.21c0.84,1.27,1.26,2.86,1.26,4.76c0,2.14-0.51,4.12-1.52,5.93c-1.01,1.82-2.54,3.26-4.59,4.33
			C631.39,262.28,628.78,262.81,625.6,262.81z"/>
		<path d="M650.2,213.26c0-1.27,0.5-2.34,1.52-3.2c1.01-0.87,2.12-1.3,3.34-1.3c1.21,0,2.31,0.43,3.29,1.3
			c0.98,0.87,1.47,1.94,1.47,3.2c0,1.33-0.49,2.41-1.47,3.25c-0.98,0.84-2.08,1.26-3.29,1.26c-1.21,0-2.33-0.42-3.34-1.26
			C650.7,215.68,650.2,214.59,650.2,213.26z M650.72,226.26h8.14v35.86h-8.14V226.26z"/>
		<path d="M680.08,226.26l0.61,8.75l-0.26-1.39c1.1-2.66,2.95-4.78,5.54-6.37c2.6-1.59,5.63-2.38,9.1-2.38c3.35,0,6.11,1,8.27,2.99
			c2.16,1.99,3.28,4.58,3.33,7.75v26.51h-8.14v-23.73c-0.06-1.91-0.62-3.48-1.69-4.72c-1.07-1.24-2.73-1.86-4.98-1.86
			c-2.02,0-3.89,0.58-5.59,1.73c-1.7,1.16-3.03,2.74-3.98,4.76c-0.95,2.02-1.43,4.36-1.43,7.02v16.8h-8.14v-35.86H680.08z"/>
		<path d="M737.34,262.99c-4.1,0-7.62-0.82-10.57-2.47c-2.94-1.65-5.23-3.9-6.84-6.76c-1.62-2.86-2.43-6.14-2.43-9.83
			c0-3.52,0.91-6.73,2.73-9.62c1.82-2.89,4.23-5.2,7.23-6.93c3-1.73,6.35-2.6,10.05-2.6c4.73,0,8.66,1.39,11.78,4.16
			s5.25,6.58,6.41,11.43l-29.62,10.39l-1.91-4.76l24.17-8.92l-1.65,1.21c-0.69-1.91-1.85-3.55-3.46-4.94
			c-1.62-1.39-3.72-2.08-6.32-2.08c-2.2,0-4.14,0.52-5.85,1.56c-1.7,1.04-3.05,2.47-4.03,4.29c-0.98,1.82-1.47,3.94-1.47,6.37
			c0,2.43,0.5,4.59,1.52,6.5c1.01,1.91,2.42,3.39,4.24,4.46c1.82,1.07,3.88,1.6,6.19,1.6c1.56,0,3.07-0.29,4.55-0.87
			c1.47-0.58,2.87-1.33,4.2-2.25l3.64,5.98c-1.79,1.21-3.8,2.2-6.02,2.95C741.66,262.61,739.48,262.99,737.34,262.99z"/>
		<path d="M775.8,262.81c-2.54,0-5.01-0.45-7.41-1.34c-2.4-0.89-4.37-2.24-5.93-4.03l3.38-4.68c1.56,1.44,3.12,2.53,4.68,3.25
			c1.56,0.72,3.12,1.08,4.68,1.08c1.15,0,2.22-0.14,3.2-0.43c0.98-0.29,1.78-0.78,2.38-1.47c0.61-0.69,0.91-1.59,0.91-2.69
			c0-1.33-0.42-2.35-1.26-3.08c-0.84-0.72-1.89-1.31-3.16-1.77c-1.27-0.46-2.66-0.9-4.16-1.3c-2.94-0.98-5.2-2.34-6.76-4.07
			c-1.56-1.73-2.34-3.84-2.34-6.32c0-1.91,0.48-3.68,1.43-5.33c0.95-1.65,2.38-3,4.29-4.07c1.91-1.07,4.21-1.6,6.93-1.6
			c2.48,0,4.71,0.3,6.67,0.91c1.96,0.61,3.81,1.63,5.54,3.08l-3.2,5.02c-1.04-1.1-2.27-1.92-3.68-2.47
			c-1.42-0.55-2.7-0.82-3.86-0.82c-1.04,0-2.01,0.16-2.9,0.48c-0.9,0.32-1.62,0.78-2.17,1.39c-0.55,0.61-0.82,1.37-0.82,2.29
			c-0.06,1.21,0.33,2.18,1.17,2.9c0.84,0.72,1.89,1.31,3.16,1.77c1.27,0.46,2.57,0.93,3.9,1.39c1.73,0.52,3.29,1.21,4.68,2.08
			c1.39,0.87,2.5,1.94,3.33,3.21c0.84,1.27,1.26,2.86,1.26,4.76c0,2.14-0.51,4.12-1.52,5.93c-1.01,1.82-2.54,3.26-4.59,4.33
			C781.59,262.28,778.97,262.81,775.8,262.81z"/>
		<path d="M811.05,262.81c-2.54,0-5.01-0.45-7.41-1.34c-2.4-0.89-4.37-2.24-5.93-4.03l3.38-4.68c1.56,1.44,3.12,2.53,4.68,3.25
			c1.56,0.72,3.12,1.08,4.68,1.08c1.15,0,2.22-0.14,3.2-0.43c0.98-0.29,1.78-0.78,2.38-1.47c0.61-0.69,0.91-1.59,0.91-2.69
			c0-1.33-0.42-2.35-1.26-3.08c-0.84-0.72-1.89-1.31-3.16-1.77c-1.27-0.46-2.66-0.9-4.16-1.3c-2.94-0.98-5.2-2.34-6.76-4.07
			c-1.56-1.73-2.34-3.84-2.34-6.32c0-1.91,0.48-3.68,1.43-5.33c0.95-1.65,2.38-3,4.29-4.07c1.91-1.07,4.21-1.6,6.93-1.6
			c2.48,0,4.71,0.3,6.67,0.91c1.96,0.61,3.81,1.63,5.54,3.08l-3.2,5.02c-1.04-1.1-2.27-1.92-3.68-2.47
			c-1.42-0.55-2.7-0.82-3.86-0.82c-1.04,0-2.01,0.16-2.9,0.48c-0.9,0.32-1.62,0.78-2.17,1.39c-0.55,0.61-0.82,1.37-0.82,2.29
			c-0.06,1.21,0.33,2.18,1.17,2.9c0.84,0.72,1.89,1.31,3.16,1.77c1.27,0.46,2.57,0.93,3.9,1.39c1.73,0.52,3.29,1.21,4.68,2.08
			c1.39,0.87,2.5,1.94,3.33,3.21c0.84,1.27,1.26,2.86,1.26,4.76c0,2.14-0.51,4.12-1.52,5.93c-1.01,1.82-2.54,3.26-4.59,4.33
			C816.84,262.28,814.23,262.81,811.05,262.81z"/>
	</g>
	<path class="st0" d="M292.95,325.11H90.81C61.65,325.11,38,301.46,38,272.3c0,0,0-50.56,0-101.12c0-16.85,0-33.71,0-48.53
		c0-15.14,0-28.25,0-37.61s0-14.98,0-14.98c0-29.16,23.64-52.81,52.81-52.81h202.14c29.16,0,52.81,23.64,52.81,52.81V272.3
		C345.76,301.46,322.12,325.11,292.95,325.11z"/>
	<g>
		<g>
			<path class="st1" d="M130.1,279.59c0,0.03,0,0.03,0,0.05l-0.02-0.02C130.08,279.62,130.1,279.62,130.1,279.59z"/>
			<path class="st1" d="M134.55,284.08l43.91,41.02h36.41l-62.11-58.02C146.69,272.75,140.62,278.42,134.55,284.08z"/>
		</g>
		<path class="st1" d="M322.13,169.49c-3.03,10.35-8.25,19.62-14.33,28.43c-2.9,4.15-5.9,8.27-9.1,12.77
			c-0.13,0.18-0.27,0.38-0.4,0.55c0,0,0.13-7.78-2.67-16.17v-0.02c-1.12-3.32-2.7-6.75-4.95-9.82c-0.1-0.22-0.22-0.42-0.35-0.63
			c-0.08-0.07-0.18-0.13-0.28-0.2c-2.05-2.58-4.57-4.85-7.75-6.55h-0.02c-0.25-0.13-0.48-0.23-0.75-0.37
			c-0.03,0-0.03-0.03-0.05-0.03c-2.2-1.07-4.72-1.85-7.58-2.25c-12.45-2.6-23.68,0.38-32.43,4.63c-0.72,0.25-1.28,0.47-1.72,0.65
			c-5.73,3.17-9.92,6.32-11.63,7.67c-0.62,0.58-1.23,1.15-1.87,1.75c-2.02,1.72-3.22,2.97-3.48,3.25c-0.02,0.03-0.05,0.05-0.05,0.05
			l-9.57,8.9c-27.68,25.85-55.35,51.67-83.05,77.48c0,0.03-0.02,0.03-0.02,0.03c-9.35,8.73-30.35,28.32-47.98,44.77
			c-15.32-2.38-24.52-11.05-24.52-11.05c0.23-0.23,0.47-0.45,0.72-0.67l0.3-0.3c20.82-19.45,43.52-40.65,53.32-49.82
			c-20.78-19.55-41.58-39.08-62.35-58.6h36.38l44.35,41.4c23.37-21.78,46.68-43.62,70.01-65.43c0,0,0.05-0.03,0.13-0.13
			c0.87-0.8,1.73-1.6,2.6-2.42c0,0,1.35-1.17,3.78-2.92c0.63-0.42,1.3-0.92,2.05-1.4c0.12-0.08,0.25-0.18,0.38-0.27
			c11.05-7.32,35.57-19.97,62.65-10.83c2.78,0.93,5.6,2.12,8.45,3.57l-0.43,0.02c1.27,0.52,2.53,1.08,3.75,1.78
			c0.35,0.17,0.72,0.37,1.07,0.6c0,0,0.05,0.02,0.13,0.08c0.07,0.05,0.13,0.08,0.2,0.13c0.8,0.45,1.58,0.95,2.37,1.53
			c2.88,2.1,5.4,4.53,7.6,7.23c0.02,0.03,0.07,0.08,0.08,0.1c2.07,2.57,3.88,5.32,5.5,8.27c0.27,0.47,0.53,0.95,0.82,1.42
			c0.05,0.08,0.18,0.13,0.5,0.33c0.33-0.53,0.68-1.05,0.95-1.6c3.85-7.73,7.17-15.63,8.18-24.33c1.12-9.48-1.62-17.37-9.6-23.05
			c-6.15-4.37-13.17-6.73-20.45-8.25c-13.45-2.78-27.07-3.53-40.77-2.6c-5.65,0.38-11.27,0.85-16.9,1.38
			c-1.17,0.12-1.3-0.53-1.53-1.28c-1.05-3.08-1.93-6.22-3.2-9.2c-5.15-12.18-14.3-20.3-26.17-25.68c-8.57-3.9-17.58-6.1-26.85-7.47
			c-12.43-1.85-24.93-2.23-37.47-1.72c-20.15,0.82-40.13,3.42-59.98,6.92c-10.1,1.78-20.15,3.78-30.17,5.97v-8.9
			c13.73-4.25,27.63-7.92,41.73-10.95c11.67-2.52,23.53-4.27,35.33-6c13.68-2.03,27.5-2.43,41.28-1.73
			c15.1,0.73,29.9,3.25,43.77,9.63c14.62,6.73,25.98,16.87,32.68,31.75c0.43,0.98,0.97,1.27,2.03,1.27c7.35-0.07,14.72-0.33,22.03,0
			c15.58,0.73,30.92,2.97,45.05,10.17c9.23,4.72,16.62,11.35,20.25,21.38C325.38,151.61,324.76,160.61,322.13,169.49z"/>
		<g>
			<path class="st1" d="M172.62,111.19c5.32,3.02,5.32,10.84,0,13.86c-0.02,0.01-0.05,0.03-0.07,0.04c-2.45,1.35-4.89,1.9-7.34,1.92
				c-2.45,0-4.89-0.56-7.34-1.9c-0.1-0.06-0.2-0.11-0.3-0.17c-5.21-3.02-5.21-10.62,0-13.65c0.1-0.06,0.2-0.12,0.3-0.17
				c2.45-1.34,4.89-1.9,7.34-1.9c2.45,0.02,4.89,0.58,7.34,1.92C172.57,111.16,172.6,111.17,172.62,111.19z"/>
		</g>
	</g>
</g>
</svg>
