<?xml version="1.0" encoding="utf-8"?>
<!-- Generator: Adobe Illustrator 25.4.1, SVG Export Plug-In . SVG Version: 6.00 Build 0)  -->
<svg version="1.1" xmlns="http://www.w3.org/2000/svg" xmlns:xlink="http://www.w3.org/1999/xlink" x="0px" y="0px"
	 viewBox="0 0 936 378" style="enable-background:new 0 0 936 378;" xml:space="preserve">
<style type="text/css">
	.st0{fill:#11A64A;}
	.st1{fill:#FFFFFF;}
	.st2{display:none;}
	.st3{display:inline;}
	.st4{fill:none;stroke:#000000;stroke-width:7;stroke-linecap:round;stroke-linejoin:round;stroke-miterlimit:10;}
</style>
<g id="Layer_1">
	<g>
		<path d="M471.7,299.68h4.47c1.72,0,2.99-0.24,3.8-0.71c0.81-0.47,1.55-1.59,2.23-3.37l1.72-4.78l-16.53-43.41h9.4l9.95,27.97
			c0.52,1.41,0.91,3.11,1.17,5.09h0.94c0.16-1.67,0.52-3.37,1.1-5.09l9.25-27.97h9.32l-18.18,50.53c-1.25,3.5-2.74,5.92-4.47,7.25
			c-1.72,1.33-4.15,2-7.29,2h-6.89V299.68z"/>
		<path d="M404.95,109.82h40.71v8.06h-32.31v19.06h28.84v8.14h-28.84v19.32h33.52v8.06h-41.92V109.82z"/>
		<path d="M491.05,172.45h-9.7l-27.29-35.86h9.96L491.05,172.45z M472.17,159.11l-9.53,13.34h-8.14l13.77-18.71L472.17,159.11z
			 M472.95,149.92l8.58-13.34h8.23l-13.86,19.23L472.95,149.92z"/>
		<path d="M520.85,173.31c-2.71,0-5.33-0.64-7.84-1.91c-2.51-1.27-4.43-2.97-5.76-5.11l0.43-2.51v25.9h-8.06v-53.62h7.02l1.13,9.18
			l-0.87-2.6c1.73-2.19,3.93-4,6.58-5.41c2.66-1.42,5.63-2.12,8.92-2.12c3.35,0,6.37,0.79,9.05,2.38c2.68,1.59,4.81,3.84,6.37,6.76
			c1.56,2.92,2.34,6.31,2.34,10.18c0,3.81-0.84,7.15-2.51,10c-1.68,2.86-3.97,5.05-6.89,6.58
			C527.85,172.55,524.54,173.31,520.85,173.31z M519.29,166.9c2.31,0,4.42-0.53,6.32-1.6c1.91-1.07,3.45-2.54,4.63-4.42
			c1.18-1.88,1.78-4,1.78-6.37c0-2.43-0.55-4.58-1.65-6.45c-1.1-1.88-2.56-3.35-4.37-4.42c-1.82-1.07-3.86-1.6-6.11-1.6
			c-2.08,0-3.96,0.39-5.63,1.17c-1.68,0.78-3.06,1.86-4.16,3.25c-1.1,1.39-1.88,3.03-2.34,4.94v6.06c0.29,1.73,0.98,3.32,2.08,4.76
			c1.1,1.45,2.47,2.59,4.12,3.42C515.61,166.48,517.38,166.9,519.29,166.9z"/>
		<path d="M565.98,173.31c-3.35,0-6.4-0.72-9.14-2.17c-2.74-1.44-4.92-3.57-6.54-6.37c-1.62-2.8-2.43-6.22-2.43-10.26
			c0-4.04,0.84-7.51,2.51-10.4c1.67-2.89,3.93-5.11,6.76-6.67c2.83-1.56,5.92-2.34,9.27-2.34c3.35,0,6.19,0.77,8.53,2.3
			c2.34,1.53,4.09,3.33,5.24,5.41l-0.52,1.3l0.78-7.54h7.45v35.86h-8.06v-9.35l0.95,2.08c-0.29,0.58-0.84,1.31-1.65,2.21
			c-0.81,0.9-1.83,1.8-3.08,2.73c-1.24,0.92-2.7,1.69-4.37,2.29C570.02,173.01,568.11,173.31,565.98,173.31z M568.14,166.64
			c2.02,0,3.84-0.38,5.46-1.13c1.62-0.75,2.96-1.82,4.03-3.21c1.07-1.39,1.8-3,2.21-4.85v-7.02c-0.46-1.73-1.27-3.25-2.43-4.55
			c-1.16-1.3-2.54-2.31-4.16-3.03c-1.62-0.72-3.38-1.08-5.28-1.08c-2.2,0-4.19,0.52-5.98,1.56c-1.79,1.04-3.22,2.48-4.29,4.33
			c-1.07,1.85-1.6,4.01-1.6,6.5c0,2.31,0.55,4.42,1.65,6.32c1.1,1.91,2.57,3.41,4.42,4.5C564.01,166.09,566,166.64,568.14,166.64z"
			/>
		<path d="M609.11,136.58l0.61,8.75l-0.26-1.39c1.1-2.66,2.95-4.78,5.54-6.37c2.6-1.59,5.63-2.38,9.1-2.38c3.35,0,6.11,1,8.27,2.99
			c2.17,1.99,3.28,4.58,3.33,7.75v26.51h-8.14v-23.73c-0.06-1.91-0.62-3.48-1.69-4.72c-1.07-1.24-2.73-1.86-4.98-1.86
			c-2.02,0-3.89,0.58-5.59,1.73c-1.7,1.16-3.03,2.74-3.98,4.76c-0.95,2.02-1.43,4.36-1.43,7.02v16.8h-8.14v-35.86H609.11z"/>
		<path d="M664.29,173.31c-3.35,0-6.35-0.79-9.01-2.38c-2.66-1.59-4.78-3.84-6.37-6.76c-1.59-2.91-2.38-6.28-2.38-10.09
			c0-3.98,0.84-7.39,2.51-10.22c1.67-2.83,3.93-4.99,6.76-6.5c2.83-1.5,6.01-2.25,9.53-2.25c2.83,0,5.53,0.61,8.1,1.82
			c2.57,1.21,4.58,2.89,6.02,5.02l-0.43,2.86V105.4h8.06v67.05h-8.06v-8.92l0.95,2.25c-1.73,2.2-3.94,4-6.63,5.41
			C670.66,172.6,667.64,173.31,664.29,173.31z M666.8,166.47c2.14,0,4.03-0.4,5.67-1.21c1.65-0.81,3.03-1.89,4.16-3.25
			c1.13-1.36,1.92-2.96,2.38-4.81v-6.84c-0.46-1.73-1.29-3.26-2.47-4.59c-1.18-1.33-2.6-2.35-4.24-3.08
			c-1.65-0.72-3.48-1.08-5.5-1.08c-2.14,0-4.13,0.52-5.98,1.56c-1.85,1.04-3.32,2.48-4.42,4.33c-1.1,1.85-1.65,3.98-1.65,6.41
			c0,2.37,0.55,4.49,1.65,6.37c1.1,1.88,2.57,3.38,4.42,4.5C662.67,165.91,664.67,166.47,666.8,166.47z"/>
		<path d="M451.03,288.22v-48.61l2.77,0.61l-19.06,29.02c-0.4,0.52-0.94,0.97-1.6,1.34c-0.67,0.38-1.31,0.56-1.95,0.56
			c-0.64,0-1.29-0.19-1.95-0.56c-0.66-0.38-1.2-0.82-1.6-1.34l-18.36-28.58l2.08-3.46l-0.29,51.04h-8.11v-56.58
			c0-1.15,0.45-2.18,1.34-3.08c0.9-0.89,1.95-1.34,3.16-1.34c0.69,0,1.42,0.19,2.17,0.56c0.75,0.38,1.33,0.85,1.73,1.43l22,33.52
			l-3.72-0.17l22.44-33.35c0.92-1.33,2.11-1.99,3.55-1.99c1.16,0,2.18,0.42,3.08,1.26c0.9,0.84,1.34,1.89,1.34,3.16v56.58"/>
		<path d="M551.83,225.31c6.29,0,11.25,1.29,14.86,3.85c3.61,2.57,5.41,6.54,5.41,11.91c0,3.35-0.75,6.24-2.25,8.66
			c-1.5,2.42-3.59,4.33-6.28,5.72c-2.68,1.39-5.85,2.2-9.48,2.42l-1.21-4.42c4.21,0.12,8,0.87,11.35,2.25
			c3.35,1.39,6.01,3.32,7.97,5.81c1.96,2.48,2.94,5.43,2.94,8.83c0,3.12-0.56,5.79-1.69,8.01c-1.13,2.22-2.68,4.04-4.68,5.46
			c-1.99,1.42-4.22,2.45-6.67,3.12c-2.45,0.66-5.04,1-7.75,1h-18.62v-62.63H551.83z M553.56,252.69c3.46,0,5.98-0.95,7.54-2.86
			c1.56-1.91,2.34-4.21,2.34-6.93c0-3.35-1.01-5.77-3.03-7.28c-2.02-1.5-4.74-2.25-8.14-2.25h-8.14v19.32H553.56z M553.91,280.14
			c2.37,0,4.5-0.35,6.41-1.04c1.91-0.69,3.42-1.77,4.55-3.25c1.13-1.47,1.69-3.28,1.69-5.41c0-2.42-0.65-4.33-1.95-5.72
			c-1.3-1.39-2.96-2.38-4.98-2.99c-2.02-0.61-4.1-0.91-6.24-0.91h-9.27v19.32H553.91z"/>
		<path d="M598.69,289.33c-3.35,0-6.08-1-8.19-2.99c-2.11-1.99-3.22-4.58-3.34-7.75v-26.51h8.14v23.65
			c0.11,1.91,0.69,3.48,1.73,4.72c1.04,1.24,2.66,1.89,4.85,1.95c1.96,0,3.74-0.59,5.33-1.77c1.59-1.18,2.87-2.8,3.85-4.85
			c0.98-2.05,1.47-4.37,1.47-6.97v-16.72h8.06v35.86h-7.36l-0.69-8.84l0.52,1.65c-0.75,1.62-1.82,3.08-3.2,4.38
			c-1.39,1.3-3.05,2.32-4.98,3.07C602.95,288.95,600.89,289.33,598.69,289.33z"/>
		<path d="M644.6,288.63c-2.54,0-5.01-0.45-7.41-1.34c-2.4-0.89-4.37-2.24-5.93-4.03l3.38-4.68c1.56,1.44,3.12,2.53,4.68,3.25
			c1.56,0.72,3.12,1.08,4.68,1.08c1.15,0,2.22-0.14,3.2-0.43c0.98-0.29,1.78-0.78,2.38-1.47c0.61-0.69,0.91-1.59,0.91-2.69
			c0-1.33-0.42-2.35-1.26-3.08c-0.84-0.72-1.89-1.31-3.16-1.77c-1.27-0.46-2.66-0.9-4.16-1.3c-2.94-0.98-5.2-2.34-6.76-4.07
			c-1.56-1.73-2.34-3.84-2.34-6.32c0-1.91,0.48-3.68,1.43-5.33c0.95-1.65,2.38-3,4.29-4.07c1.91-1.07,4.21-1.6,6.93-1.6
			c2.48,0,4.71,0.3,6.67,0.91c1.96,0.61,3.81,1.63,5.54,3.08l-3.2,5.02c-1.04-1.1-2.27-1.92-3.68-2.47
			c-1.42-0.55-2.7-0.82-3.86-0.82c-1.04,0-2.01,0.16-2.9,0.48c-0.9,0.32-1.62,0.78-2.17,1.39c-0.55,0.61-0.82,1.37-0.82,2.29
			c-0.06,1.21,0.33,2.18,1.17,2.9c0.84,0.72,1.89,1.31,3.16,1.77c1.27,0.46,2.57,0.93,3.9,1.39c1.73,0.52,3.29,1.21,4.68,2.08
			c1.39,0.87,2.5,1.94,3.33,3.21c0.84,1.27,1.26,2.86,1.26,4.76c0,2.14-0.51,4.12-1.52,5.93c-1.01,1.82-2.54,3.26-4.59,4.33
			C650.39,288.1,647.78,288.63,644.6,288.63z"/>
		<path d="M669.2,239.09c0-1.27,0.5-2.34,1.52-3.2c1.01-0.87,2.12-1.3,3.34-1.3c1.21,0,2.31,0.43,3.29,1.3
			c0.98,0.87,1.47,1.94,1.47,3.2c0,1.33-0.49,2.41-1.47,3.25c-0.98,0.84-2.08,1.26-3.29,1.26c-1.21,0-2.33-0.42-3.34-1.26
			C669.7,241.5,669.2,240.41,669.2,239.09z M669.72,252.08h8.14v35.86h-8.14V252.08z"/>
		<path d="M699.08,252.08l0.61,8.75l-0.26-1.39c1.1-2.66,2.95-4.78,5.54-6.37c2.6-1.59,5.63-2.38,9.1-2.38c3.35,0,6.11,1,8.27,2.99
			c2.16,1.99,3.28,4.58,3.33,7.75v26.51h-8.14v-23.73c-0.06-1.91-0.62-3.48-1.69-4.72c-1.07-1.24-2.73-1.86-4.98-1.86
			c-2.02,0-3.89,0.58-5.59,1.73c-1.7,1.16-3.03,2.74-3.98,4.76c-0.95,2.02-1.43,4.36-1.43,7.02v16.8h-8.14v-35.86H699.08z"/>
		<path d="M787.95,288.74c-2.54,0-5.01-0.45-7.41-1.34c-2.4-0.89-4.37-2.24-5.93-4.03l3.38-4.68c1.56,1.44,3.12,2.53,4.68,3.25
			c1.56,0.72,3.12,1.08,4.68,1.08c1.15,0,2.22-0.14,3.2-0.43c0.98-0.29,1.78-0.78,2.38-1.47c0.61-0.69,0.91-1.59,0.91-2.69
			c0-1.33-0.42-2.35-1.26-3.08c-0.84-0.72-1.89-1.31-3.16-1.77c-1.27-0.46-2.66-0.9-4.16-1.3c-2.94-0.98-5.2-2.34-6.76-4.07
			c-1.56-1.73-2.34-3.84-2.34-6.32c0-1.91,0.48-3.68,1.43-5.33c0.95-1.65,2.38-3,4.29-4.07c1.91-1.07,4.21-1.6,6.93-1.6
			c2.48,0,4.71,0.3,6.67,0.91c1.96,0.61,3.81,1.63,5.54,3.08l-3.2,5.02c-1.04-1.1-2.27-1.92-3.68-2.47
			c-1.42-0.55-2.7-0.82-3.86-0.82c-1.04,0-2.01,0.16-2.9,0.48c-0.9,0.32-1.62,0.78-2.17,1.39c-0.55,0.61-0.82,1.37-0.82,2.29
			c-0.06,1.21,0.33,2.18,1.17,2.9c0.84,0.72,1.89,1.31,3.16,1.77c1.27,0.46,2.57,0.93,3.9,1.39c1.73,0.52,3.29,1.21,4.68,2.08
			c1.39,0.87,2.5,1.94,3.33,3.21c0.84,1.27,1.26,2.86,1.26,4.76c0,2.14-0.51,4.12-1.52,5.93c-1.01,1.82-2.54,3.26-4.59,4.33
			C793.74,288.2,791.12,288.74,787.95,288.74z"/>
		<path d="M822.05,288.63c-2.54,0-5.01-0.45-7.41-1.34c-2.4-0.89-4.37-2.24-5.93-4.03l3.38-4.68c1.56,1.44,3.12,2.53,4.68,3.25
			c1.56,0.72,3.12,1.08,4.68,1.08c1.15,0,2.22-0.14,3.2-0.43c0.98-0.29,1.78-0.78,2.38-1.47c0.61-0.69,0.91-1.59,0.91-2.69
			c0-1.33-0.42-2.35-1.26-3.08c-0.84-0.72-1.89-1.31-3.16-1.77c-1.27-0.46-2.66-0.9-4.16-1.3c-2.94-0.98-5.2-2.34-6.76-4.07
			c-1.56-1.73-2.34-3.84-2.34-6.32c0-1.91,0.48-3.68,1.43-5.33c0.95-1.65,2.38-3,4.29-4.07c1.91-1.07,4.21-1.6,6.93-1.6
			c2.48,0,4.71,0.3,6.67,0.91c1.96,0.61,3.81,1.63,5.54,3.08l-3.2,5.02c-1.04-1.1-2.27-1.92-3.68-2.47
			c-1.42-0.55-2.7-0.82-3.86-0.82c-1.04,0-2.01,0.16-2.9,0.48c-0.9,0.32-1.62,0.78-2.17,1.39c-0.55,0.61-0.82,1.37-0.82,2.29
			c-0.06,1.21,0.33,2.18,1.17,2.9c0.84,0.72,1.89,1.31,3.16,1.77c1.27,0.46,2.57,0.93,3.9,1.39c1.73,0.52,3.29,1.21,4.68,2.08
			c1.39,0.87,2.5,1.94,3.33,3.21c0.84,1.27,1.26,2.86,1.26,4.76c0,2.14-0.51,4.12-1.52,5.93c-1.01,1.82-2.54,3.26-4.59,4.33
			C827.84,288.1,825.23,288.63,822.05,288.63z"/>
		<path class="st0" d="M311.95,350.93H109.81c-29.16,0-52.81-23.64-52.81-52.81c0,0,0-50.56,0-101.12c0-16.85,0-33.71,0-48.53
			c0-15.14,0-28.25,0-37.61s0-14.98,0-14.98c0-29.16,23.64-52.81,52.81-52.81h202.14c29.16,0,52.81,23.64,52.81,52.81v202.24
			C364.76,327.28,341.12,350.93,311.95,350.93z"/>
		<g>
			<g>
				<path class="st1" d="M149.1,305.41c0,0.03,0,0.03,0,0.05l-0.02-0.02C149.08,305.45,149.1,305.45,149.1,305.41z"/>
				<path class="st1" d="M153.55,309.91l43.91,41.02h36.41l-62.11-58.02C165.69,298.57,159.62,304.24,153.55,309.91z"/>
			</g>
			<path class="st1" d="M341.13,195.32c-3.03,10.35-8.25,19.62-14.33,28.43c-2.9,4.15-5.9,8.27-9.1,12.77
				c-0.13,0.18-0.27,0.38-0.4,0.55c0,0,0.13-7.78-2.67-16.17v-0.02c-1.12-3.32-2.7-6.75-4.95-9.82c-0.1-0.22-0.22-0.42-0.35-0.63
				c-0.08-0.07-0.18-0.13-0.28-0.2c-2.05-2.58-4.57-4.85-7.75-6.55h-0.02c-0.25-0.13-0.48-0.23-0.75-0.37
				c-0.03,0-0.03-0.03-0.05-0.03c-2.2-1.07-4.72-1.85-7.58-2.25c-12.45-2.6-23.68,0.38-32.43,4.63c-0.72,0.25-1.28,0.47-1.72,0.65
				c-5.73,3.17-9.92,6.32-11.63,7.67c-0.62,0.58-1.23,1.15-1.87,1.75c-2.02,1.72-3.22,2.97-3.48,3.25
				c-0.02,0.03-0.05,0.05-0.05,0.05l-9.57,8.9c-27.68,25.85-55.35,51.67-83.05,77.48c0,0.03-0.02,0.03-0.02,0.03
				c-9.35,8.73-30.35,28.32-47.98,44.77c-15.32-2.38-24.52-11.05-24.52-11.05c0.23-0.23,0.47-0.45,0.72-0.67l0.3-0.3
				c20.82-19.45,43.52-40.65,53.32-49.82c-20.78-19.55-41.58-39.08-62.35-58.6h36.38l44.35,41.4
				c23.37-21.78,46.68-43.62,70.01-65.43c0,0,0.05-0.03,0.13-0.13c0.87-0.8,1.73-1.6,2.6-2.42c0,0,1.35-1.17,3.78-2.92
				c0.63-0.42,1.3-0.92,2.05-1.4c0.12-0.08,0.25-0.18,0.38-0.27c11.05-7.32,35.57-19.97,62.65-10.83c2.78,0.93,5.6,2.12,8.45,3.57
				l-0.43,0.02c1.27,0.52,2.53,1.08,3.75,1.78c0.35,0.17,0.72,0.37,1.07,0.6c0,0,0.05,0.02,0.13,0.08c0.07,0.05,0.13,0.08,0.2,0.13
				c0.8,0.45,1.58,0.95,2.37,1.53c2.88,2.1,5.4,4.53,7.6,7.23c0.02,0.03,0.07,0.08,0.08,0.1c2.07,2.57,3.88,5.32,5.5,8.27
				c0.27,0.47,0.53,0.95,0.82,1.42c0.05,0.08,0.18,0.13,0.5,0.33c0.33-0.53,0.68-1.05,0.95-1.6c3.85-7.73,7.17-15.63,8.18-24.33
				c1.12-9.48-1.62-17.37-9.6-23.05c-6.15-4.37-13.17-6.73-20.45-8.25c-13.45-2.78-27.07-3.53-40.77-2.6
				c-5.65,0.38-11.27,0.85-16.9,1.38c-1.17,0.12-1.3-0.53-1.53-1.28c-1.05-3.08-1.93-6.22-3.2-9.2
				c-5.15-12.18-14.3-20.3-26.17-25.68c-8.57-3.9-17.58-6.1-26.85-7.47c-12.43-1.85-24.93-2.23-37.47-1.72
				c-20.15,0.82-40.13,3.42-59.98,6.92c-10.1,1.78-20.15,3.78-30.17,5.97v-8.9c13.73-4.25,27.63-7.92,41.73-10.95
				c11.67-2.52,23.53-4.27,35.33-6c13.68-2.03,27.5-2.43,41.28-1.73c15.1,0.73,29.9,3.25,43.77,9.63
				c14.62,6.73,25.98,16.87,32.68,31.75c0.43,0.98,0.97,1.27,2.03,1.27c7.35-0.07,14.72-0.33,22.03,0
				c15.58,0.73,30.92,2.97,45.05,10.17c9.23,4.72,16.62,11.35,20.25,21.38C344.38,177.43,343.76,186.43,341.13,195.32z"/>
			<g>
				<path class="st1" d="M191.62,137.01c5.32,3.02,5.32,10.84,0,13.86c-0.02,0.01-0.05,0.03-0.07,0.04
					c-2.45,1.35-4.89,1.9-7.34,1.92c-2.45,0-4.89-0.56-7.34-1.9c-0.1-0.06-0.2-0.11-0.3-0.17c-5.21-3.02-5.21-10.62,0-13.65
					c0.1-0.06,0.2-0.12,0.3-0.17c2.45-1.34,4.89-1.9,7.34-1.9c2.45,0.02,4.89,0.58,7.34,1.92C191.57,136.98,191.6,137,191.62,137.01
					z"/>
			</g>
		</g>
		<g>
			<path d="M767.06,281.81c0,1.01-0.53,1.93-1.59,2.76c-1.3,1.2-3.09,2.25-5.37,3.17c-2.28,0.92-4.68,1.38-7.18,1.38
				c-3.99,0-7.45-0.79-10.38-2.38c-2.93-1.59-5.21-3.77-6.82-6.56c-1.61-2.78-2.42-5.97-2.42-9.56c0-4.05,0.85-7.51,2.56-10.38
				c1.71-2.87,3.93-5.08,6.67-6.62c2.74-1.54,5.65-2.31,8.73-2.31c2.35,0,4.59,0.45,6.71,1.35c2.11,0.9,4,2.14,5.66,3.73
				c1.66,1.59,2.97,3.45,3.93,5.59c0.96,2.14,1.47,4.47,1.51,7c-0.05,0.92-0.43,1.68-1.15,2.28c-0.72,0.6-1.56,0.9-2.52,0.9h-28.05
				l-1.73-5.86h27.12l-1.37,1.24v-1.72c-0.14-1.61-0.72-3.01-1.73-4.21s-2.25-2.14-3.71-2.83c-1.47-0.69-3.02-1.04-4.65-1.04
				c-1.44,0-2.83,0.22-4.15,0.66c-1.32,0.44-2.5,1.14-3.53,2.1c-1.03,0.97-1.85,2.24-2.45,3.83c-0.6,1.59-0.9,3.55-0.9,5.9
				c0,2.53,0.55,4.74,1.66,6.62c1.11,1.89,2.6,3.35,4.47,4.38s3.94,1.55,6.2,1.55c1.78,0,3.23-0.17,4.36-0.52
				c1.13-0.34,2.09-0.77,2.88-1.28c0.79-0.5,1.48-0.99,2.05-1.45"/>
		</g>
	</g>
</g>
<g id="Layer_3" class="st2">
	<g class="st3">
		<path d="M489.2,299.68h4.47c1.72,0,2.99-0.24,3.8-0.71c0.81-0.47,1.55-1.59,2.23-3.37l1.72-4.78l-16.53-43.41h9.4l9.95,27.97
			c0.52,1.41,0.91,3.11,1.17,5.09h0.94c0.16-1.67,0.52-3.37,1.1-5.09l9.25-27.97h9.32l-18.18,50.53c-1.25,3.5-2.74,5.92-4.47,7.25
			c-1.72,1.33-4.15,2-7.29,2h-6.89V299.68z"/>
		<path d="M422.45,109.82h40.71v8.06h-32.31v19.06h28.84v8.14h-28.84v19.32h33.52v8.06h-41.92V109.82z"/>
		<path d="M508.55,172.45h-9.7l-27.29-35.86h9.96L508.55,172.45z M489.67,159.11l-9.53,13.34H472l13.77-18.71L489.67,159.11z
			 M490.45,149.92l8.58-13.34h8.23l-13.86,19.23L490.45,149.92z"/>
		<path d="M538.35,173.31c-2.71,0-5.33-0.64-7.84-1.91c-2.51-1.27-4.43-2.97-5.76-5.11l0.43-2.51v25.9h-8.06v-53.62h7.02l1.13,9.18
			l-0.87-2.6c1.73-2.19,3.93-4,6.58-5.41c2.66-1.42,5.63-2.12,8.92-2.12c3.35,0,6.37,0.79,9.05,2.38c2.68,1.59,4.81,3.84,6.37,6.76
			c1.56,2.92,2.34,6.31,2.34,10.18c0,3.81-0.84,7.15-2.51,10c-1.68,2.86-3.97,5.05-6.89,6.58
			C545.35,172.55,542.04,173.31,538.35,173.31z M536.79,166.9c2.31,0,4.42-0.53,6.32-1.6c1.91-1.07,3.45-2.54,4.63-4.42
			c1.18-1.88,1.78-4,1.78-6.37c0-2.43-0.55-4.58-1.65-6.45c-1.1-1.88-2.56-3.35-4.37-4.42c-1.82-1.07-3.86-1.6-6.11-1.6
			c-2.08,0-3.96,0.39-5.63,1.17c-1.68,0.78-3.06,1.86-4.16,3.25c-1.1,1.39-1.88,3.03-2.34,4.94v6.06c0.29,1.73,0.98,3.32,2.08,4.76
			c1.1,1.45,2.47,2.59,4.12,3.42C533.11,166.48,534.88,166.9,536.79,166.9z"/>
		<path d="M583.48,173.31c-3.35,0-6.4-0.72-9.14-2.17c-2.74-1.44-4.92-3.57-6.54-6.37c-1.62-2.8-2.43-6.22-2.43-10.26
			c0-4.04,0.84-7.51,2.51-10.4c1.67-2.89,3.93-5.11,6.76-6.67c2.83-1.56,5.92-2.34,9.27-2.34c3.35,0,6.19,0.77,8.53,2.3
			c2.34,1.53,4.09,3.33,5.24,5.41l-0.52,1.3l0.78-7.54h7.45v35.86h-8.06v-9.35l0.95,2.08c-0.29,0.58-0.84,1.31-1.65,2.21
			c-0.81,0.9-1.83,1.8-3.08,2.73c-1.24,0.92-2.7,1.69-4.37,2.29C587.52,173.01,585.61,173.31,583.48,173.31z M585.64,166.64
			c2.02,0,3.84-0.38,5.46-1.13c1.62-0.75,2.96-1.82,4.03-3.21c1.07-1.39,1.8-3,2.21-4.85v-7.02c-0.46-1.73-1.27-3.25-2.43-4.55
			c-1.16-1.3-2.54-2.31-4.16-3.03c-1.62-0.72-3.38-1.08-5.28-1.08c-2.2,0-4.19,0.52-5.98,1.56c-1.79,1.04-3.22,2.48-4.29,4.33
			c-1.07,1.85-1.6,4.01-1.6,6.5c0,2.31,0.55,4.42,1.65,6.32c1.1,1.91,2.57,3.41,4.42,4.5C581.51,166.09,583.5,166.64,585.64,166.64z
			"/>
		<path d="M626.61,136.58l0.61,8.75l-0.26-1.39c1.1-2.66,2.95-4.78,5.54-6.37c2.6-1.59,5.63-2.38,9.1-2.38c3.35,0,6.11,1,8.27,2.99
			c2.17,1.99,3.28,4.58,3.33,7.75v26.51h-8.14v-23.73c-0.06-1.91-0.62-3.48-1.69-4.72c-1.07-1.24-2.73-1.86-4.98-1.86
			c-2.02,0-3.89,0.58-5.59,1.73c-1.7,1.16-3.03,2.74-3.98,4.76c-0.95,2.02-1.43,4.36-1.43,7.02v16.8h-8.14v-35.86H626.61z"/>
		<path d="M681.79,173.31c-3.35,0-6.35-0.79-9.01-2.38c-2.66-1.59-4.78-3.84-6.37-6.76c-1.59-2.91-2.38-6.28-2.38-10.09
			c0-3.98,0.84-7.39,2.51-10.22c1.67-2.83,3.93-4.99,6.76-6.5c2.83-1.5,6.01-2.25,9.53-2.25c2.83,0,5.53,0.61,8.1,1.82
			c2.57,1.21,4.58,2.89,6.02,5.02l-0.43,2.86V105.4h8.06v67.05h-8.06v-8.92l0.95,2.25c-1.73,2.2-3.94,4-6.63,5.41
			C688.16,172.6,685.14,173.31,681.79,173.31z M684.3,166.47c2.14,0,4.03-0.4,5.67-1.21c1.65-0.81,3.03-1.89,4.16-3.25
			c1.13-1.36,1.92-2.96,2.38-4.81v-6.84c-0.46-1.73-1.29-3.26-2.47-4.59c-1.18-1.33-2.6-2.35-4.24-3.08
			c-1.65-0.72-3.48-1.08-5.5-1.08c-2.14,0-4.13,0.52-5.98,1.56c-1.85,1.04-3.32,2.48-4.42,4.33c-1.1,1.85-1.65,3.98-1.65,6.41
			c0,2.37,0.55,4.49,1.65,6.37c1.1,1.88,2.57,3.38,4.42,4.5C680.17,165.91,682.17,166.47,684.3,166.47z"/>
		<path d="M468.53,288.22v-48.61l2.77,0.61l-19.06,29.02c-0.4,0.52-0.94,0.97-1.6,1.34c-0.67,0.38-1.31,0.56-1.95,0.56
			c-0.64,0-1.29-0.19-1.95-0.56c-0.66-0.38-1.2-0.82-1.6-1.34l-18.36-28.58l2.08-3.46l-0.29,51.04h-8.11v-56.58
			c0-1.15,0.45-2.18,1.34-3.08c0.9-0.89,1.95-1.34,3.16-1.34c0.69,0,1.42,0.19,2.17,0.56c0.75,0.38,1.33,0.85,1.73,1.43l22,33.52
			l-3.72-0.17l22.44-33.35c0.92-1.33,2.11-1.99,3.55-1.99c1.16,0,2.18,0.42,3.08,1.26c0.9,0.84,1.34,1.89,1.34,3.16v56.58"/>
		<path d="M569.33,225.31c6.29,0,11.25,1.29,14.86,3.85c3.61,2.57,5.41,6.54,5.41,11.91c0,3.35-0.75,6.24-2.25,8.66
			c-1.5,2.42-3.59,4.33-6.28,5.72c-2.68,1.39-5.85,2.2-9.48,2.42l-1.21-4.42c4.21,0.12,8,0.87,11.35,2.25
			c3.35,1.39,6.01,3.32,7.97,5.81c1.96,2.48,2.94,5.43,2.94,8.83c0,3.12-0.56,5.79-1.69,8.01c-1.13,2.22-2.68,4.04-4.68,5.46
			c-1.99,1.42-4.22,2.45-6.67,3.12c-2.45,0.66-5.04,1-7.75,1h-18.62v-62.63H569.33z M571.06,252.69c3.46,0,5.98-0.95,7.54-2.86
			c1.56-1.91,2.34-4.21,2.34-6.93c0-3.35-1.01-5.77-3.03-7.28c-2.02-1.5-4.74-2.25-8.14-2.25h-8.14v19.32H571.06z M571.41,280.14
			c2.37,0,4.5-0.35,6.41-1.04c1.91-0.69,3.42-1.77,4.55-3.25c1.13-1.47,1.69-3.28,1.69-5.41c0-2.42-0.65-4.33-1.95-5.72
			c-1.3-1.39-2.96-2.38-4.98-2.99c-2.02-0.61-4.1-0.91-6.24-0.91h-9.27v19.32H571.41z"/>
		<path d="M616.19,289.33c-3.35,0-6.08-1-8.19-2.99c-2.11-1.99-3.22-4.58-3.34-7.75v-26.51h8.14v23.65
			c0.11,1.91,0.69,3.48,1.73,4.72c1.04,1.24,2.66,1.89,4.85,1.95c1.96,0,3.74-0.59,5.33-1.77c1.59-1.18,2.87-2.8,3.85-4.85
			c0.98-2.05,1.47-4.37,1.47-6.97v-16.72h8.06v35.86h-7.36l-0.69-8.84l0.52,1.65c-0.75,1.62-1.82,3.08-3.2,4.38
			c-1.39,1.3-3.05,2.32-4.98,3.07C620.45,288.95,618.39,289.33,616.19,289.33z"/>
		<path d="M662.1,288.63c-2.54,0-5.01-0.45-7.41-1.34c-2.4-0.89-4.37-2.24-5.93-4.03l3.38-4.68c1.56,1.44,3.12,2.53,4.68,3.25
			c1.56,0.72,3.12,1.08,4.68,1.08c1.15,0,2.22-0.14,3.2-0.43c0.98-0.29,1.78-0.78,2.38-1.47c0.61-0.69,0.91-1.59,0.91-2.69
			c0-1.33-0.42-2.35-1.26-3.08c-0.84-0.72-1.89-1.31-3.16-1.77c-1.27-0.46-2.66-0.9-4.16-1.3c-2.94-0.98-5.2-2.34-6.76-4.07
			c-1.56-1.73-2.34-3.84-2.34-6.32c0-1.91,0.48-3.68,1.43-5.33c0.95-1.65,2.38-3,4.29-4.07c1.91-1.07,4.21-1.6,6.93-1.6
			c2.48,0,4.71,0.3,6.67,0.91c1.96,0.61,3.81,1.63,5.54,3.08l-3.2,5.02c-1.04-1.1-2.27-1.92-3.68-2.47
			c-1.42-0.55-2.7-0.82-3.86-0.82c-1.04,0-2.01,0.16-2.9,0.48c-0.9,0.32-1.62,0.78-2.17,1.39c-0.55,0.61-0.82,1.37-0.82,2.29
			c-0.06,1.21,0.33,2.18,1.17,2.9c0.84,0.72,1.89,1.31,3.16,1.77c1.27,0.46,2.57,0.93,3.9,1.39c1.73,0.52,3.29,1.21,4.68,2.08
			c1.39,0.87,2.5,1.94,3.33,3.21c0.84,1.27,1.26,2.86,1.26,4.76c0,2.14-0.51,4.12-1.52,5.93c-1.01,1.82-2.54,3.26-4.59,4.33
			C667.89,288.1,665.28,288.63,662.1,288.63z"/>
		<path d="M686.7,239.09c0-1.27,0.5-2.34,1.52-3.2c1.01-0.87,2.12-1.3,3.34-1.3c1.21,0,2.31,0.43,3.29,1.3
			c0.98,0.87,1.47,1.94,1.47,3.2c0,1.33-0.49,2.41-1.47,3.25c-0.98,0.84-2.08,1.26-3.29,1.26c-1.21,0-2.33-0.42-3.34-1.26
			C687.2,241.5,686.7,240.41,686.7,239.09z M687.22,252.08h8.14v35.86h-8.14V252.08z"/>
		<path d="M716.58,252.08l0.61,8.75l-0.26-1.39c1.1-2.66,2.95-4.78,5.54-6.37c2.6-1.59,5.63-2.38,9.1-2.38c3.35,0,6.11,1,8.27,2.99
			c2.16,1.99,3.28,4.58,3.33,7.75v26.51h-8.14v-23.73c-0.06-1.91-0.62-3.48-1.69-4.72c-1.07-1.24-2.73-1.86-4.98-1.86
			c-2.02,0-3.89,0.58-5.59,1.73c-1.7,1.16-3.03,2.74-3.98,4.76c-0.95,2.02-1.43,4.36-1.43,7.02v16.8h-8.14v-35.86H716.58z"/>
		<path d="M805.45,288.74c-2.54,0-5.01-0.45-7.41-1.34c-2.4-0.89-4.37-2.24-5.93-4.03l3.38-4.68c1.56,1.44,3.12,2.53,4.68,3.25
			c1.56,0.72,3.12,1.08,4.68,1.08c1.15,0,2.22-0.14,3.2-0.43c0.98-0.29,1.78-0.78,2.38-1.47c0.61-0.69,0.91-1.59,0.91-2.69
			c0-1.33-0.42-2.35-1.26-3.08c-0.84-0.72-1.89-1.31-3.16-1.77c-1.27-0.46-2.66-0.9-4.16-1.3c-2.94-0.98-5.2-2.34-6.76-4.07
			c-1.56-1.73-2.34-3.84-2.34-6.32c0-1.91,0.48-3.68,1.43-5.33c0.95-1.65,2.38-3,4.29-4.07c1.91-1.07,4.21-1.6,6.93-1.6
			c2.48,0,4.71,0.3,6.67,0.91c1.96,0.61,3.81,1.63,5.54,3.08l-3.2,5.02c-1.04-1.1-2.27-1.92-3.68-2.47
			c-1.42-0.55-2.7-0.82-3.86-0.82c-1.04,0-2.01,0.16-2.9,0.48c-0.9,0.32-1.62,0.78-2.17,1.39c-0.55,0.61-0.82,1.37-0.82,2.29
			c-0.06,1.21,0.33,2.18,1.17,2.9c0.84,0.72,1.89,1.31,3.16,1.77c1.27,0.46,2.57,0.93,3.9,1.39c1.73,0.52,3.29,1.21,4.68,2.08
			c1.39,0.87,2.5,1.94,3.33,3.21c0.84,1.27,1.26,2.86,1.26,4.76c0,2.14-0.51,4.12-1.52,5.93c-1.01,1.82-2.54,3.26-4.59,4.33
			C811.24,288.2,808.62,288.74,805.45,288.74z"/>
		<path d="M839.55,288.63c-2.54,0-5.01-0.45-7.41-1.34c-2.4-0.89-4.37-2.24-5.93-4.03l3.38-4.68c1.56,1.44,3.12,2.53,4.68,3.25
			c1.56,0.72,3.12,1.08,4.68,1.08c1.15,0,2.22-0.14,3.2-0.43c0.98-0.29,1.78-0.78,2.38-1.47c0.61-0.69,0.91-1.59,0.91-2.69
			c0-1.33-0.42-2.35-1.26-3.08c-0.84-0.72-1.89-1.31-3.16-1.77c-1.27-0.46-2.66-0.9-4.16-1.3c-2.94-0.98-5.2-2.34-6.76-4.07
			c-1.56-1.73-2.34-3.84-2.34-6.32c0-1.91,0.48-3.68,1.43-5.33c0.95-1.65,2.38-3,4.29-4.07c1.91-1.07,4.21-1.6,6.93-1.6
			c2.48,0,4.71,0.3,6.67,0.91c1.96,0.61,3.81,1.63,5.54,3.08l-3.2,5.02c-1.04-1.1-2.27-1.92-3.68-2.47
			c-1.42-0.55-2.7-0.82-3.86-0.82c-1.04,0-2.01,0.16-2.9,0.48c-0.9,0.32-1.62,0.78-2.17,1.39c-0.55,0.61-0.82,1.37-0.82,2.29
			c-0.06,1.21,0.33,2.18,1.17,2.9c0.84,0.72,1.89,1.31,3.16,1.77c1.27,0.46,2.57,0.93,3.9,1.39c1.73,0.52,3.29,1.21,4.68,2.08
			c1.39,0.87,2.5,1.94,3.33,3.21c0.84,1.27,1.26,2.86,1.26,4.76c0,2.14-0.51,4.12-1.52,5.93c-1.01,1.82-2.54,3.26-4.59,4.33
			C845.34,288.1,842.73,288.63,839.55,288.63z"/>
		<path class="st0" d="M329.45,350.93H127.31c-29.16,0-52.81-23.64-52.81-52.81c0,0,0-50.56,0-101.12c0-16.85,0-33.71,0-48.53
			c0-15.14,0-28.25,0-37.61s0-14.98,0-14.98c0-29.16,23.64-52.81,52.81-52.81h202.14c29.16,0,52.81,23.64,52.81,52.81v202.24
			C382.26,327.28,358.62,350.93,329.45,350.93z"/>
		<g>
			<g>
				<path class="st1" d="M166.6,305.41c0,0.03,0,0.03,0,0.05l-0.02-0.02C166.58,305.45,166.6,305.45,166.6,305.41z"/>
				<path class="st1" d="M171.05,309.91l43.91,41.02h36.41l-62.11-58.02C183.19,298.57,177.12,304.24,171.05,309.91z"/>
			</g>
			<path class="st1" d="M358.63,195.32c-3.03,10.35-8.25,19.62-14.33,28.43c-2.9,4.15-5.9,8.27-9.1,12.77
				c-0.13,0.18-0.27,0.38-0.4,0.55c0,0,0.13-7.78-2.67-16.17v-0.02c-1.12-3.32-2.7-6.75-4.95-9.82c-0.1-0.22-0.22-0.42-0.35-0.63
				c-0.08-0.07-0.18-0.13-0.28-0.2c-2.05-2.58-4.57-4.85-7.75-6.55h-0.02c-0.25-0.13-0.48-0.23-0.75-0.37
				c-0.03,0-0.03-0.03-0.05-0.03c-2.2-1.07-4.72-1.85-7.58-2.25c-12.45-2.6-23.68,0.38-32.43,4.63c-0.72,0.25-1.28,0.47-1.72,0.65
				c-5.73,3.17-9.92,6.32-11.63,7.67c-0.62,0.58-1.23,1.15-1.87,1.75c-2.02,1.72-3.22,2.97-3.48,3.25
				c-0.02,0.03-0.05,0.05-0.05,0.05l-9.57,8.9c-27.68,25.85-55.35,51.67-83.05,77.48c0,0.03-0.02,0.03-0.02,0.03
				c-9.35,8.73-30.35,28.32-47.98,44.77c-15.32-2.38-24.52-11.05-24.52-11.05c0.23-0.23,0.47-0.45,0.72-0.67l0.3-0.3
				c20.82-19.45,43.52-40.65,53.32-49.82c-20.78-19.55-41.58-39.08-62.35-58.6h36.38l44.35,41.4
				c23.37-21.78,46.68-43.62,70.01-65.43c0,0,0.05-0.03,0.13-0.13c0.87-0.8,1.73-1.6,2.6-2.42c0,0,1.35-1.17,3.78-2.92
				c0.63-0.42,1.3-0.92,2.05-1.4c0.12-0.08,0.25-0.18,0.38-0.27c11.05-7.32,35.57-19.97,62.65-10.83c2.78,0.93,5.6,2.12,8.45,3.57
				l-0.43,0.02c1.27,0.52,2.53,1.08,3.75,1.78c0.35,0.17,0.72,0.37,1.07,0.6c0,0,0.05,0.02,0.13,0.08c0.07,0.05,0.13,0.08,0.2,0.13
				c0.8,0.45,1.58,0.95,2.37,1.53c2.88,2.1,5.4,4.53,7.6,7.23c0.02,0.03,0.07,0.08,0.08,0.1c2.07,2.57,3.88,5.32,5.5,8.27
				c0.27,0.47,0.53,0.95,0.82,1.42c0.05,0.08,0.18,0.13,0.5,0.33c0.33-0.53,0.68-1.05,0.95-1.6c3.85-7.73,7.17-15.63,8.18-24.33
				c1.12-9.48-1.62-17.37-9.6-23.05c-6.15-4.37-13.17-6.73-20.45-8.25c-13.45-2.78-27.07-3.53-40.77-2.6
				c-5.65,0.38-11.27,0.85-16.9,1.38c-1.17,0.12-1.3-0.53-1.53-1.28c-1.05-3.08-1.93-6.22-3.2-9.2
				c-5.15-12.18-14.3-20.3-26.17-25.68c-8.57-3.9-17.58-6.1-26.85-7.47c-12.43-1.85-24.93-2.23-37.47-1.72
				c-20.15,0.82-40.13,3.42-59.98,6.92c-10.1,1.78-20.15,3.78-30.17,5.97v-8.9c13.73-4.25,27.63-7.92,41.73-10.95
				c11.67-2.52,23.53-4.27,35.33-6c13.68-2.03,27.5-2.43,41.28-1.73c15.1,0.73,29.9,3.25,43.77,9.63
				c14.62,6.73,25.98,16.87,32.68,31.75c0.43,0.98,0.97,1.27,2.03,1.27c7.35-0.07,14.72-0.33,22.03,0
				c15.58,0.73,30.92,2.97,45.05,10.17c9.23,4.72,16.62,11.35,20.25,21.38C361.88,177.43,361.26,186.43,358.63,195.32z"/>
			<g>
				<path class="st1" d="M209.12,137.01c5.32,3.02,5.32,10.84,0,13.86c-0.02,0.01-0.05,0.03-0.07,0.04
					c-2.45,1.35-4.89,1.9-7.34,1.92c-2.45,0-4.89-0.56-7.34-1.9c-0.1-0.06-0.2-0.11-0.3-0.17c-5.21-3.02-5.21-10.62,0-13.65
					c0.1-0.06,0.2-0.12,0.3-0.17c2.45-1.34,4.89-1.9,7.34-1.9c2.45,0.02,4.89,0.58,7.34,1.92C209.07,136.98,209.1,137,209.12,137.01
					z"/>
			</g>
		</g>
		<path class="st4" d="M756.5,267.82h23.14c0,0,1.86-15-12.14-14s-12,16.7-11,20.35s4,14.65,23,8.65"/>
	</g>
</g>
<g id="Layer_2" class="st2">
</g>
</svg>
