<?xml version="1.0" encoding="utf-8"?>
<!-- Generator: Adobe Illustrator 25.2.3, SVG Export Plug-In . SVG Version: 6.00 Build 0)  -->
<svg version="1.1" xmlns="http://www.w3.org/2000/svg" xmlns:xlink="http://www.w3.org/1999/xlink" x="0px" y="0px"
	 viewBox="0 0 500 500" style="enable-background:new 0 0 500 500;" xml:space="preserve">
<style type="text/css">
	.st0{display:none;}
	.st1{display:inline;fill:#FFFFFF;}
	.st2{fill:#383838;}
	.st3{fill:#FFFFFF;}
	.st4{fill:#3A81E8;}
	.st5{fill:#F9C293;}
	.st6{fill:#3A31AD;}
	.st7{fill:#033072;}
	.st8{fill:#A9AAAA;}
	.st9{fill:#0F527E;}
	.st10{fill:#F7B690;}
	.st11{fill:#2E53DB;}
	.st12{fill:#122129;stroke:#000000;stroke-width:2;stroke-miterlimit:10;}
</style>
<g id="BACKGROUND" class="st0">
	<rect class="st1" width="500" height="500"/>
</g>
<g id="OBJECTS">
	<g>
		<g>
			<path class="st2" d="M100.66,266.1c-2.1-1.75-3.62-4.42-3.53-7.14c0.09-2.73,2.95-5.38,5.46-4.31
				c-9.81-5.89-20.28-12.6-25.71-22.31c-2.23-3.98,0.72-8.89,5.28-8.86c0.51,0,1.02,0.04,1.52,0.11
				c-7.71-7.33-15.25-16.77-16.12-25.5c-0.72-7.18,3.59-9.95,7.79-8.51c2.84,0.97,5.53,2.47,7.92,4.28
				c4.75,3.58,8.51,8.27,12.22,12.91c-1.14-3.88-2.28-7.97-1-11.89c0.72-2.19,2.26-4.09,4.41-4.94c3.31-1.32,6,0.53,8.05,2.65
				c8.85,9.14,5.35,24.55,13.3,34.49c1.55-2.73,0.56-9.36,4.76-10.63c8.9-2.69,17.24,23.23,19.92,33.28
				c1.34,5.02,2.46,10.1,3.43,15.21c1.3,6.86,1.05,6.86-5.83,8.61C129.34,276.88,110.06,273.93,100.66,266.1z"/>
			<g>
				<path class="st3" d="M77.15,200c19.52,23.54,40.31,46,62.28,67.27c0.5,0.49,1.29-0.26,0.79-0.75
					c-21.97-21.27-42.76-43.73-62.28-67.27C77.49,198.71,76.7,199.47,77.15,200L77.15,200z"/>
			</g>
			<g>
				<path class="st3" d="M84.29,231.95c8.71,1.8,17.41,3.7,26.08,5.68c0.68,0.16,1-0.88,0.32-1.04c-8.67-1.98-17.37-3.87-26.08-5.68
					C83.93,230.77,83.61,231.81,84.29,231.95L84.29,231.95z"/>
			</g>
			<g>
				<path class="st3" d="M103.46,228.88c-0.06-5.67-0.29-11.34-0.59-17c-0.12-2.16-0.23-4.32-0.43-6.48
					c-0.06-0.71,0.03-1.92-0.45-2.51c-0.45-0.54-1.24,0.21-0.79,0.75c0.08,0.09,0.21,2.33,0.26,3.01c0.17,2.28,0.3,4.57,0.41,6.86
					c0.25,5.1,0.45,10.21,0.51,15.32C102.38,229.53,103.47,229.58,103.46,228.88L103.46,228.88z"/>
			</g>
			<g>
				<path class="st3" d="M110.81,263.72c8.36,2.39,17.05,2.68,25.55,0.84c0.68-0.15,0.43-1.21-0.25-1.06
					c-8.32,1.8-16.8,1.52-24.98-0.82C110.46,262.48,110.14,263.53,110.81,263.72L110.81,263.72z"/>
			</g>
			<g>
				<path class="st3" d="M130.72,257.43c0.58-8.79-1.06-17.55-1.93-26.26c-0.07-0.69-1.13-0.44-1.06,0.25
					c0.86,8.62,2.47,17.28,1.9,25.97C129.58,258.09,130.67,258.13,130.72,257.43L130.72,257.43z"/>
			</g>
		</g>
		<g>
			<g>
				<path class="st3" d="M363.46,329.87c-0.84,8.65,0.45,17.25,3.8,25.28c0.27,0.65,1.27,0.21,1-0.44
					c-3.28-7.86-4.54-16.24-3.71-24.71C364.61,329.3,363.52,329.17,363.46,329.87L363.46,329.87z"/>
			</g>
			<g>
				<path class="st3" d="M373.24,348.31c8.75-1.02,17.07-4.21,25.48-6.65c0.67-0.19,0.23-1.19-0.44-1
					c-8.32,2.41-16.55,5.55-25.2,6.57C372.38,347.32,372.54,348.39,373.24,348.31L373.24,348.31z"/>
			</g>
		</g>
		<g>
			<path class="st4" d="M392.94,86.79c14.39-6.41,30.89-5.14,46.58-3.75c-5.16,11.25-10.36,22.58-17.55,32.65
				c-7.19,10.07-15.02,16.51-26.58,20.93c-15.29,5.83-28.9-2.51-28.9-2.51C361.5,109.46,377.79,93.54,392.94,86.79z"/>
			<g>
				<path class="st3" d="M373.82,129.29c17.32-13.74,35.16-26.8,53.48-39.17c0.58-0.39-0.15-1.2-0.72-0.82
					c-18.32,12.36-36.16,25.43-53.48,39.17C372.55,128.91,373.28,129.72,373.82,129.29L373.82,129.29z"/>
			</g>
			<g>
				<path class="st3" d="M408.66,85.95c-2.08,6.08-3.29,12.22-3.67,18.64c-0.04,0.7,1.04,0.78,1.09,0.08
					c0.38-6.31,1.57-12.38,3.61-18.36C409.92,85.64,408.89,85.28,408.66,85.95L408.66,85.95z"/>
			</g>
			<g>
				<path class="st3" d="M401.26,108.23c6.03,0.72,12.08,0.98,18.03,2.28c0.68,0.15,1.04-0.88,0.35-1.03
					c-6.05-1.32-12.17-1.6-18.3-2.33C400.65,107.06,400.57,108.15,401.26,108.23L401.26,108.23z"/>
			</g>
			<g>
				<path class="st3" d="M388.18,95.75c-1.44,7.15-0.79,14.4-0.29,21.61c0.05,0.7,1.12,0.49,1.07-0.2
					c-0.5-7.13-1.12-14.27,0.3-21.33C389.4,95.15,388.32,95.07,388.18,95.75L388.18,95.75z"/>
			</g>
			<g>
				<path class="st3" d="M384.15,121.05c6.8,2.42,14,2.89,21.06,1.36c0.68-0.15,0.48-1.22-0.2-1.07c-6.89,1.49-13.86,1.04-20.5-1.32
					C383.84,119.78,383.49,120.81,384.15,121.05L384.15,121.05z"/>
			</g>
		</g>
		<g>
			<g>
				<path class="st3" d="M104.75,143.11c8.75,8.23,22.25,13.04,34.22,11.3c0.69-0.1,0.4-1.15-0.29-1.05
					c-11.56,1.68-24.72-3.08-33.16-11.02C105.01,141.86,104.24,142.63,104.75,143.11L104.75,143.11z"/>
			</g>
			<g>
				<path class="st3" d="M139.3,153.6c-6.2-14.25-13.06-28.31-20.08-42.17c-0.32-0.62-1.26-0.07-0.94,0.55
					c7.02,13.86,13.88,27.92,20.08,42.17C138.63,154.79,139.57,154.24,139.3,153.6L139.3,153.6z"/>
			</g>
			<g>
				<path class="st3" d="M139.21,154.26c10.47-8.69,14.35-24.28,13.3-37.4c-0.06-0.69-1.14-0.7-1.09,0
					c1.03,12.86-2.71,28.11-12.98,36.63C137.9,153.94,138.68,154.71,139.21,154.26L139.21,154.26z"/>
			</g>
		</g>
		<g>
			<g>
				<g>
					<path class="st5" d="M105.73,383.59c-0.47,1.73-0.8,3.64,0.05,5c0,0-1.47,1.15-2.34,0.46c-0.66-0.52-0.9-1.32-0.68-2.13
						c1.18-4.29,1.03-12.56,1.64-16.57c0.19-1.25,1.16-3.26,1.33-4.52c0.52-3.94-0.51-2.2-0.8-7.13c1.9,0.01,4.21,0.91,6.11,0.92
						c-0.25,4.05-0.63,5.95-1.2,8.52C108.54,373.92,107.58,376.79,105.73,383.59z"/>
					<path class="st5" d="M98.82,366.62c-1.93,6.26-0.6,9.36-2.07,20.02c-0.24,1.7-0.45,2.99,0.57,4.37c2.22,2.99,2.4-1.73,2.4-1.73
						c-0.6-1.41-0.72-2.83-0.59-3.9c0.26-2.15,1.05-4.97,2.26-9.47c0.54-1.99,1.97-7.65,2.14-8.65c0.2-1.14,0.3-6.9,0.76-10.15
						c0.17-1.2-5.91-1.28-6.05-0.1C97.83,360.68,99.72,363.72,98.82,366.62z"/>
					<path class="st6" d="M96.7,392.71c0.12,0.24,0.26,0.18,0.52,0.12c-0.1-0.48-0.18-1.16-0.12-1.65c0.63,0.69,1.28,1.64,2.44,1.91
						c2.27,0.54,2.68-0.45,2.51-0.66c-0.85-1.05-1.8-1.91-2.34-3.15c-0.69,0.29-1.13,0.49-1.78,0.11c-0.77-0.45-1.06-1.05-1.32-1.83
						C95.38,388.6,96.13,391.5,96.7,392.71z"/>
					<path class="st6" d="M102.83,391.92c0.11,0.24,0.26,0.18,0.51,0.12c-0.1-0.47-0.18-1.13-0.12-1.61
						c0.61,0.67,1.25,1.59,2.38,1.86c2.21,0.52,2.61-0.43,2.45-0.64c-0.83-1.02-1.75-1.86-2.28-3.07c-0.68,0.28-1.1,0.48-1.73,0.11
						c-0.75-0.44-1.04-1.03-1.29-1.78C101.54,387.92,102.27,390.74,102.83,391.92z"/>
				</g>
				<path class="st7" d="M98.3,362.37c3.12,0.55,11.53,1.32,12.89-0.54c0.57-3.45,3.57-11.32,3.46-20.01
					c0-0.35-18.66-3.42-18.66,1.85C95.99,348.82,98.4,354.51,98.3,362.37z"/>
			</g>
			<g>
				<path class="st5" d="M130.35,300.24c0.45-0.67,1.02-0.76,1.29,0c0.64,1.85-1.45,3.94-2.5,5.59
					c-2.43,3.83-8.58,10.96-12.65,12.22c-4.72,1.46-3.75-3.68-1.29-4.94c3.29-1.68,6.74-3.38,9.1-5.95
					C126.14,305.15,128.49,302.99,130.35,300.24z"/>
				<path class="st7" d="M88.81,326.66c1.57,0.44,3.72,0.63,5.29,1.07c0.69-1.23,0.99-1.35,1.39-2.1c0.5,5.18,3.4,6.2,3.27,8.9
					c-0.19,3.69-3.31,5.49-2.77,9.15c6.19-0.38,14.2,0.98,18.66-1.85c0-3.1-3.67-7.17-3.79-10.26c-0.13-3.22,2.29-4.19,1.74-6.48
					c-0.26-1.07-1.58-2.05-1.73-2.81c-0.34-1.7,4.19-3,5.62-4.22c-0.86-0.76-2.23-3.76-1.29-4.94c-4.43,1.75-8.26,1.59-9.83,1.93
					c-2.49,0.55-6.72,1.72-9.42,1.92c-1.94,0.14-4.55,2.22-5.62,5.24C90.15,322.71,88.81,326.66,88.81,326.66z"/>
				<path class="st5" d="M88.81,326.66c-0.51,2.16-1.69,8.09-1.68,9.56c0.01,1.91,8.94,4.3,10.91,4.3c2.18,0,3.22-2.93,1.16-3.11
					c-1.35-0.12-0.66,0.37-1.93,0.83c-1.28,0.46-6.38-3.32-6.07-4.03c0.87-1.95,1.53-3.26,2.91-6.48
					C92.68,325.58,89.13,325.31,88.81,326.66z"/>
			</g>
			<g>
				<path class="st2" d="M92.07,307.06c-0.04,3.75,1.15,5.95-0.47,8.27c6.58,3.5,14.6-0.83,15.77-3.19
					c1.86-3.71,0.84-7.95-3.1-11.03c-2.4-1.88-6.61-0.34-9.22,0.96C94.1,302.55,92.1,303.59,92.07,307.06z"/>
				<path class="st5" d="M105.15,305.52c-0.78-1.81-2.04-3.54-3.89-4.24c-1.84-0.7-5.57,0.96-6.31,2.49
					c-1.23,2.52,0.75,5.78,2.78,7.71c2.03,1.93,5.8,2.17,7.4-0.13C106.3,309.69,105.95,307.39,105.15,305.52z"/>
				<path class="st5" d="M105.37,315.05c-1.25-0.19-1.27-1.4-1.77-3c-0.37-1.21-4.04,0.1-4.04,0.1c0.67,1.86,1.07,3.31-0.45,4.28
					c0.83,1.49,1.55,1.86,2.67,2.21c1.12,0.35,2.43,0.27,3.32-0.49C105.99,317.39,106.52,315.22,105.37,315.05z"/>
				<path class="st2" d="M102.02,300.31c-0.98-1.39-3.09-1.17-4.76-0.82c-1.63,0.35-3.08,1.56-4.04,2.93
					c-1.33,1.88-1.4,3.91-0.92,6.17c0.08,0.39,2.11,1.51,2.44,1.43c2.13-0.52,3.52-2.8,3.76-4.98c0.25-2.24,3.03-2.55,3.54-2.23
					c0,0,2.67,4.44,3.87,4.2C105.92,301.02,102.46,300.94,102.02,300.31z"/>
			</g>
		</g>
		<g>
			<g>
				<path class="st7" d="M277.26,209.41c-0.41,8.76-7.82,15.87-16.58,15.95c-3.82,0.03-7.34-1.2-10.17-3.32v48.45h-48.45
					c2.12-2.83,3.35-6.35,3.32-10.17c-0.08-8.77-7.19-16.17-15.95-16.58c-9.63-0.45-17.56,7.21-17.56,16.74
					c0,3.76,1.23,7.23,3.32,10.02h-48.45V156.37c0-5.33,4.32-9.66,9.66-9.66H250.5v48.45c2.79-2.09,6.25-3.32,10.02-3.32
					C270.05,191.85,277.71,199.79,277.26,209.41z"/>
				<path class="st6" d="M177.02,236.38h73.49v34.11h-48.45c2.11-2.83,3.35-6.35,3.32-10.17c-0.08-8.77-7.19-16.17-15.96-16.59
					c-9.62-0.45-17.55,7.22-17.55,16.74c0,3.77,1.23,7.23,3.32,10.01h-48.45V156.38c0-5.34,4.33-9.66,9.66-9.66h12.06v61.1
					C148.45,223.59,161.24,236.38,177.02,236.38z"/>
			</g>
			<g>
				<path class="st6" d="M223.75,331.57c0.41-8.76,7.82-15.87,16.58-15.95c3.82-0.03,7.34,1.2,10.17,3.32v-48.45h48.45
					c-2.12,2.83-3.35,6.35-3.32,10.17c0.08,8.77,7.19,16.17,15.95,16.58c9.63,0.45,17.56-7.21,17.56-16.74
					c0-3.76-1.23-7.23-3.32-10.02h48.45v114.12c0,5.33-4.32,9.66-9.66,9.66H250.5v-48.45c-2.79,2.09-6.25,3.32-10.02,3.32
					C230.96,349.14,223.3,341.2,223.75,331.57z"/>
				<path class="st7" d="M374.28,372.54v12.07c0,5.33-4.32,9.65-9.65,9.65H250.51v-48.45c-2.8,2.09-6.26,3.32-10.02,3.32
					c-9.52,0-17.18-7.93-16.73-17.55c0.4-8.76,7.81-15.88,16.58-15.95c3.83-0.03,7.35,1.21,10.18,3.32v-48.45h23.41v76.85
					c0,13.92,11.29,25.21,25.21,25.21H374.28z"/>
			</g>
			<g>
				<path class="st8" d="M189.42,243.74c8.76,0.41,15.87,7.82,15.95,16.58c0.03,3.82-1.2,7.34-3.32,10.17h48.45v48.45
					c-2.83-2.12-6.35-3.35-10.17-3.32c-8.77,0.08-16.17,7.19-16.58,15.95c-0.45,9.63,7.21,17.56,16.74,17.56
					c3.76,0,7.23-1.23,10.02-3.32v48.45H136.39c-5.33,0-9.66-4.32-9.66-9.66V270.49h48.45c-2.09-2.79-3.32-6.25-3.32-10.02
					C171.86,250.95,179.8,243.29,189.42,243.74z"/>
				<path class="st2" d="M165.57,373.39h84.94v20.87H136.38c-5.33,0-9.65-4.32-9.65-9.65V270.49h17.09v81.15
					C143.82,363.65,153.56,373.39,165.57,373.39z"/>
			</g>
		</g>
		<g>
			<g>
				<path class="st9" d="M278.65,267.8c-0.41-1-0.2-2.05-0.21-2.36c-1.27,0-2.23-0.08-2.72-0.09c-0.71,1.94-1.6,3.31-1.24,4.53
					c2.11,1.5,4.43,2.4,6.98,2C281.88,270.99,278.74,268.03,278.65,267.8z"/>
				<path class="st9" d="M292.66,270.7c0.34-0.8-1.59-2.91-1.38-4.51c0.12-0.89-0.06-1.88-0.68-2.54c-0.43-0.46-1.19-0.61-1.74-0.39
					c0,0-2.68,2.99-2.33,3.41C288.38,268.89,292.07,272.12,292.66,270.7z"/>
				<path class="st8" d="M275.72,265.35c0.89,1.96,2.29,0.76,2.72,0.09c1.07-3.94,5.67-17.03,6.33-19.16
					c1.18-3.79,1.56-8.08,2.07-13.81c3.31,6.5,4.83,10.22,5.21,13.11c0.24,1.9-3.18,16.9-3.28,18.33c-0.1,1.4,1.8,2.28,2.22,1.26
					c2.45-5.68,7.04-16.59,7.06-21.31c0.02-7.21-3.92-15.6-6.51-24.26c0,0.57-14.27-0.97-15.1,0.76c-1.93,4.01,0.12,9.62,0.74,12.16
					c1.26,5.18,1.65,9.49,1.55,13.35C278.56,251.51,276.45,259.03,275.72,265.35z"/>
			</g>
			<g>
				<path class="st10" d="M269.94,227.54c-0.1,0.69-0.73,2.83-0.5,3.48c0.42,1.16,2.81,1.51,3.35,0.44
					c0.89-1.75-0.56-2.54-0.29-4.49c0.97-6.85,2.63-11.74,3.55-17.01c-0.68-0.24-4.81-1.47-4.85-0.75
					c-0.32,5.58-0.61,7.85-0.61,10.34C270.6,222.73,270.49,223.69,269.94,227.54z"/>
				<path class="st2" d="M276.07,209.96l0.85-4.49c-0.63,2.63-0.71,14.04-0.49,14.9c0.3,1.14,13.08,1.89,15.1-0.76
					c0.49-0.64,0.21-12.87,0.2-15.63c-0.02-4.29,3.85-8.85,5.5-14.91c-1.79-1.74-4.98-2.75-4.98-2.75
					c-1.24,1.82-2.34,4.58-3.81,5.96c-2.68,2.51-5.05,1.86-8.34,2.64c-2.89,0.68-5.91,1.84-6.81,4.53
					c-1.06,3.19-1.92,6.05-2.08,9.77C272.37,209.69,275.08,210.42,276.07,209.96z"/>
				<path class="st10" d="M295.09,179.78c-0.65-3.68-1.55-7.36-3.03-14.15c-0.11-0.49-0.04-1.1,0.39-1.38
					c0.69-0.44,1.44,0.47,1.75,1.23c1.58,3.86,3.16,7.73,4.73,11.59c0.4,0.98,0.81,2,0.73,3.06c-0.1,1.38-1.54,7.88-2.43,8.94
					c-0.76,0.9-5.77-1.11-4.98-2.75C293.14,184.48,295.39,181.49,295.09,179.78z"/>
			</g>
			<g>
				<path class="st10" d="M284.47,189.63c-0.68-0.49-3.56,0.22-3.56,0.22c0.39,2.27,0.54,5.13,0.61,5.37
					c0.57,1.95,4.47,2.57,4.47,0.12C285.81,193.99,285.14,190.11,284.47,189.63z"/>
				<path class="st10" d="M279.67,190.06c0,0,1.61,1.93,4.39,2.42c1.25,0.22,2.86,0.19,3.45-0.93c0.6-1.12,0.73-2.43,0.75-3.7
					c0.02-1.29-1.91-4.73-2.4-5.93c-0.75-1.81-1.46-2.27-3.38-2.62c-1.78-0.32-5.51,1.81-6.24,3.84
					C275.36,185.53,277.81,189.78,279.67,190.06z"/>
				<path class="st2" d="M278.24,184.84c0.44-1.09,1.97-2.05,2.99-2.7c0.86-0.55,3.36-2.18,4.62-0.22c0.3-0.94,0.54-2.28-0.21-3.82
					c-0.33-0.69-1.31-2.25-1.82-1.68c-1.68,1.85-5.18,2.97-6.81,4.28c-1.63,1.31-2.27,3.2-1.69,5.2c0.26,0.88,1.38,2.3,1.5,2.44
					c0.26,0.31,1.93,2.08,2.84,1.71c0,0-2.44-2.81-0.47-2.52C278.3,186.28,278.14,185.09,278.24,184.84z"/>
			</g>
		</g>
		<g>
			<path class="st2" d="M353.19,190.53c0.04,1.24-0.88,2.85-1.44,3.96c-0.45,0.89-1.33,1.47-1.96,2.24
				c-2.16,2.66,1.44,8.68-1.74,9.97c-3.47,1.41-2.87,5.3-2.13,7.16c3.1,6.56,4.8-0.96,7.64-0.56c2.87,0.41,5.49-1.8,8.01-3.22
				c2.89-1.63,5.95-3.44,7.34-6.45c0.9-1.94,0.98-4.14,1.05-6.28c0.13-4.07-0.44-7.32-2.31-10.94
				C362.85,177.15,352.9,181.23,353.19,190.53z"/>
			<g>
				<g>
					<path class="st5" d="M354.65,252.91c0.11,9.66-1.05,11.98-1.17,13.27c-0.27,2.96,3.89,4.23,4.12,3.25
						c-0.41-0.71-0.53-1.08-0.98-1.95c-0.89-1.71-0.26-4.36,0.39-7.16c1.19-5.17,2.28-10.37,3.26-15.58
						c0.58-3.09,3.92-11.78-1.92-11.15c-3.65,0.39-2.73,3.37-2.8,6.13C355.45,244.28,354.6,248.27,354.65,252.91z"/>
					<path class="st5" d="M363.94,266.81c-0.03,0.38,0.49,1.6,0.83,1.78c1.72,0.87,2.39,0.26,2.39-1.1
						c-0.2-0.42-1.01-1.54-0.96-4.16c0.13-6.58,1.52-14.96,1.43-21.55c-0.02-1.41-0.15-5.76-1.33-6.54
						c-0.82-0.54-2.01-0.44-2.72,0.24c-2.43,2.3-0.05,18.1,0.13,21.17C363.89,260.03,364.19,263.11,363.94,266.81z"/>
					<path class="st2" d="M352.7,267.79c-0.09,0.73,0.81,1.96,0.85,2.7c0.31,0.08,0.45,0,0.58,0c-0.01-0.65-0.22-1.68-0.02-1.53
						c0.74,0.58,1.11,1.42,1.36,1.47c0.77,0.13,2.89,0.01,3.67,0.05c-0.05-0.68-2.5-3.11-2.52-3c-0.07,0.64-0.73,0.74-1.1,0.64
						c-1.2-0.32-1.72-1.96-2.04-1.94C353,266.22,352.76,267.3,352.7,267.79z"/>
					<path class="st2" d="M363.23,267.79c-0.09,0.73,0.81,1.93,0.85,2.66c0.31,0.08,0.44,0.07,0.61,0.03
						c-0.01-0.65-0.25-1.68-0.05-1.53c0.74,0.58,1.28,1.49,1.53,1.53c0.77,0.13,2.72-0.05,3.5-0.01c-0.05-0.68-2.5-3.11-2.52-3
						c-0.07,0.64-0.73,0.74-1.1,0.64c-1.2-0.32-1.72-1.96-2.04-1.94C363.53,266.22,363.29,267.3,363.23,267.79z"/>
				</g>
				<path class="st2" d="M352.47,227.58c1.23,3.69,1.76,7.61,1.55,11.49c3.49,0.14,15.19,0.05,15.16-0.31
					c-0.36-3.71,0.45-8.29,0.8-11.74c0.58-5.74,0.78-10.86-1.98-15.14c-0.17-0.26-12.6-3.2-14.34,0.68
					C351.86,216.57,351.34,223.79,352.47,227.58z"/>
			</g>
			<g>
				<path class="st7" d="M349.33,178.4c-1.6,0.51-2.86,0.88-4.46,1.38c-0.54,2.3,0.73,5.95,1.25,7.57
					c2.31,7.22,7.91,11.17,8.55,18.72c0.19,2.2-0.16,4.45-1.01,6.49c8.09,4.67,15.03,0.75,14.91,0.27
					c-0.91-3.41-0.66-7.51,0.76-10.28c0.61-1.18-1.09-3.29-0.37-4.41c1.45-2.26,7.37-10.75,7.37-20.6
					c-1.23-0.08-2.85,0.24-4.08,0.16c-1.22,3.48-2.13,5.91-3.75,9.25c-0.9,1.85-2.17,4.48-3.1,5.55c-2.01,2.31-6.38,2.65-8.66,0.56
					C353.65,190.23,350.49,183.13,349.33,178.4z"/>
				<path class="st5" d="M349.69,160.1c0.62-0.09,1.24-0.23,1.82,0c0.58,0.22-1.28,3.9-2,8.71c-0.56,3.7-0.46,6.29-0.28,10.02
					c0.06,1.34-0.14,3.01-1.41,3.45c-0.76,0.26-1.62-0.1-2.16-0.69C342.74,178.4,348.65,160.25,349.69,160.1z"/>
				<path class="st5" d="M372.06,178.24c0.21-4.1-0.46-13.48-2.04-17.84c-0.8-0.26,0.32-0.3,2.05,0c2.45,4.27,4.25,15.74,4.25,17.15
					C376.33,183.19,371.79,183.55,372.06,178.24z"/>
			</g>
			<g>
				<path class="st5" d="M358.69,194.6c-0.05,0.42,0.2,0.81,0.48,1.09c0.98,0.99,2.51,1.18,3.65,0.45c0.42-0.27,0.82-0.73,0.78-1.28
					c-0.05-0.64-0.66-1.04-0.79-1.66c-0.08-0.42-0.11-0.86-0.1-1.27c0.04-1.77-3.69-1.84-3.94-0.45c-0.09,0.47,0.09,0.93,0.13,1.39
					C358.95,193.55,358.76,193.96,358.69,194.6z"/>
				<path class="st5" d="M361.75,181.23c-1.21-0.37-4.84,2.98-5.04,3.65c-0.63,2.11-0.96,3.98,0.04,5.94c0.94,1.84,3,2.99,4.99,2.82
					c1.4-0.12,3.73-2.22,3.66-4.64C365.22,183.15,362.96,181.6,361.75,181.23z"/>
				<g>
					<path class="st2" d="M360.75,179.79c-3.26,0.17-6.73,2.29-7.1,7.11c-0.11,1.47,6.29-0.9,9.2-3.29c1.4-1.15,3.08,2.23,4.8,2.81
						C366.71,182.49,364.01,179.62,360.75,179.79z"/>
				</g>
			</g>
		</g>
		<path class="st3" d="M367.54,390.69c-4.3-38.65-9.65-77.16-15.5-115.54c-0.28-1.8-2.76-1.14-2.48,0.66
			c0.74,4.87,1.48,9.74,2.2,14.61c-4.5,0.36-9,0.54-13.51,0.72c-0.71-5.25-1.42-10.49-2.15-15.74c-0.25-1.81-2.73-1.14-2.48,0.66
			c1.52,10.9,2.98,21.82,4.4,32.74c-0.05,0.34-0.01,0.7,0.13,0.98c3.62,27.88,6.95,55.81,10.01,83.77c0.2,1.81,2.68,1.14,2.48-0.66
			c-0.61-5.57-1.24-11.15-1.87-16.72c4.78-0.41,9.57-1.03,14.31-1.86c0.68,5.68,1.34,11.35,1.97,17.04
			C365.26,393.17,367.74,392.5,367.54,390.69z M344.88,343.03c0.04,0,0.09,0,0.13,0c4.56-0.56,9.13-1.12,13.69-1.68
			c0.08-0.01,0.15-0.03,0.22-0.05c0.61,4.62,1.21,9.24,1.8,13.86c-4.73,0.57-9.44,1.31-14.12,2.24
			C346.04,352.61,345.46,347.82,344.88,343.03z M342.89,326.88c4.61-0.65,9.21-1.3,13.82-1.96c0.63,4.56,1.25,9.12,1.86,13.69
			c-0.14-0.03-0.28-0.05-0.43-0.03c-4.53,0.55-9.06,1.11-13.59,1.66C344,335.79,343.45,331.33,342.89,326.88z M340.78,310.3
			c4.58-0.22,9.17-0.49,13.73-0.98c0.61,4.26,1.22,8.53,1.81,12.8c-4.59,0.65-9.19,1.3-13.78,1.95
			C341.96,319.48,341.37,314.89,340.78,310.3z M352.17,293.23c0.66,4.43,1.31,8.87,1.94,13.3c-4.56,0.49-9.13,0.74-13.7,0.95
			c-0.59-4.51-1.18-9.01-1.79-13.51C343.14,293.79,347.66,293.61,352.17,293.23z M348.45,373.36c-0.5-4.38-1-8.76-1.52-13.14
			c4.7-0.94,9.41-1.68,14.15-2.26c0.57,4.51,1.12,9.03,1.67,13.54C358.01,372.34,353.23,372.97,348.45,373.36z"/>
		<path class="st3" d="M230.96,150.36c-1.3,5.91-2.61,11.82-3.92,17.73c-4.99-0.05-9.95-0.68-14.89-1.5
			c1.23-5.26,2.45-10.52,3.69-15.77c0.42-1.79-1.9-2.61-2.32-0.82c-14.7,62.11-28.3,124.57-40.73,187.36
			c-3.5,17.69-6.92,35.41-10.28,53.14c-0.34,1.81,1.98,2.63,2.32,0.82c0.97-5.11,1.95-10.22,2.93-15.33
			c4.84,0.73,9.67,1.58,14.49,2.54c-0.97,5.01-1.93,10.03-2.88,15.04c-0.34,1.81,1.98,2.63,2.32,0.82
			c5.44-28.73,11.25-57.37,17.26-85.94c0.02-0.08,0.04-0.16,0.05-0.24c3.84-18.24,7.75-36.46,11.71-54.67
			c0.09-0.2,0.14-0.43,0.14-0.66c3.33-15.26,6.69-30.51,10.06-45.76c4.12-18.65,8.25-37.29,12.36-55.94
			C233.68,149.37,231.35,148.55,230.96,150.36z M226.4,170.97c-1,4.51-1.99,9.01-2.99,13.51c-5.03-0.58-10.07-0.93-15.1-1.37
			c1.06-4.58,2.12-9.16,3.19-13.74C216.45,170.21,221.41,170.87,226.4,170.97z M215.92,218.35c-5.14-0.24-10.28-0.25-15.4-0.92
			c0.86-3.85,1.71-7.71,2.58-11.56c0.26-1.14,0.52-2.27,0.78-3.41c3.08,0.43,6.16,0.83,9.25,1.12c1.87,0.18,3.99,0.55,5.97,0.37
			C218.04,208.76,216.98,213.56,215.92,218.35z M212.31,234.8c-5.14-0.53-10.29-0.79-15.45-0.79c1.01-4.59,2.02-9.17,3.04-13.75
			c5.11,0.72,10.25,0.74,15.39,0.96C214.29,225.74,213.3,230.27,212.31,234.8z M208.69,251.31c-5.16-0.2-10.31-0.4-15.47-0.61
			c0.99-4.61,2-9.21,3.01-13.82c5.16-0.02,10.31,0.23,15.45,0.74C210.68,242.19,209.68,246.75,208.69,251.31z M204.68,269.74
			c-5.06-0.86-10.13-1.29-15.25-1.27c1.05-4.97,2.1-9.93,3.17-14.9c5.15,0.2,10.31,0.4,15.46,0.61
			C206.93,259.37,205.8,264.55,204.68,269.74z M200.76,288c-3.25-0.81-6.6-1.09-9.91-1.27c-1.64-0.09-3.47-0.36-5.2-0.26
			c1.05-5.04,2.1-10.09,3.17-15.13c0.03,0,0.05,0.01,0.09,0.01c5.09-0.04,10.14,0.37,15.18,1.2
			C202.97,277.7,201.86,282.85,200.76,288z M196.91,306.19c-4.83-0.82-10.07-2.26-14.95-1.85c1.02-4.98,2.05-9.95,3.08-14.92
			c1.65-0.23,4.04,0.11,5.75,0.2c3.13,0.17,6.3,0.4,9.37,1.18C199.07,295.93,197.99,301.06,196.91,306.19z M193.06,324.64
			c-5.03,0.1-9.93-0.65-14.77-2.27c1.01-5.03,2.04-10.06,3.07-15.09c4.77-0.72,10.12,0.81,14.96,1.7
			C195.23,314.2,194.14,319.42,193.06,324.64z M189.76,340.66c-0.13,0.65-0.26,1.3-0.39,1.95c-4.68-1.51-9.84-1.69-14.66-2.26
			c1-5.06,2.01-10.11,3.02-15.17c4.83,1.6,9.72,2.38,14.74,2.34C191.56,331.91,190.65,336.28,189.76,340.66z M219.77,200.95
			c-2.33,0.52-5.14-0.1-7.39-0.33c-2.62-0.26-5.23-0.6-7.85-0.96c1.04-4.57,2.08-9.14,3.13-13.7c5.04,0.44,10.09,0.8,15.13,1.36
			C221.78,191.86,220.78,196.4,219.77,200.95z M174.14,343.18c4.8,0.61,9.99,0.72,14.66,2.25c-1.02,5.05-2.03,10.1-3.03,15.15
			c-4.66-1.71-9.66-1.91-14.45-2.94C172.25,352.82,173.19,348,174.14,343.18z M168.3,373.17c0.82-4.24,1.64-8.49,2.46-12.73
			c4.79,1.01,9.81,1.23,14.44,2.96c-0.81,4.1-1.61,8.21-2.41,12.31C177.98,374.76,173.15,373.91,168.3,373.17z"/>
		<g>
			<path class="st7" d="M250.46,83.19c2.26,0.06,3.18,0.2,5.4-0.28c3.85-0.84,6.62-1.95,9.06-3.25c1.53-0.81,8.56-5.07,8.2-6.11
				c-0.36-1.04-0.89-0.91-1.96-0.63c-1.63,0.43-8.32,3.82-11.28,4.56c-2.96,0.74-8.35,0.87-11.25-0.09
				c-1.39,0.08-2.88,0.48-3.28,1.81C244.43,82.39,248.69,83.4,250.46,83.19z"/>
			<g>
				<path class="st8" d="M321.61,194.96c-8.76-0.41-15.87-7.82-15.95-16.58c-0.03-3.82,1.2-7.34,3.32-10.17h-48.45v-48.45
					c2.83,2.12,6.35,3.35,10.17,3.32c8.77-0.08,16.17-7.19,16.58-15.95c0.45-9.63-7.21-17.56-16.74-17.56
					c-3.76,0-7.23,1.23-10.02,3.32V44.43h114.12c5.33,0,9.66,4.32,9.66,9.66v114.12h-48.45c2.09,2.79,3.32,6.25,3.32,10.02
					C339.18,187.75,331.24,195.41,321.61,194.96z"/>
				<path class="st2" d="M384.31,168.21h-48.45c2.09,2.8,3.32,6.26,3.32,10.02c0,9.52-7.93,17.18-17.55,16.73
					c-8.76-0.4-15.88-7.81-15.95-16.58c-0.03-3.83,1.21-7.35,3.32-10.18h-48.45v-48.45c2.83,2.12,6.35,3.35,10.18,3.32
					c8.76-0.08,16.17-7.18,16.58-15.94c0.46-9.63-7.2-17.57-16.73-17.57c-3.77,0-7.23,1.23-10.02,3.32V44.43h37.12v61.67
					c0,17.45,14.15,31.6,31.6,31.6h55.06V168.21z"/>
			</g>
			<g>
				<g>
					<path class="st10" d="M246.28,70.78c-0.89,1.06-1.78,2.12-2.68,3.19c-0.21,0.25-0.43,0.52-0.44,0.85
						c-0.01,0.28,0.13,0.54,0.27,0.79c0.86,1.46,1.94,2.79,3.19,3.93c0.57-2.02,1.87-3.83,3.61-5c-0.25-1.45-0.7-2.9-1.69-3.99
						C247.99,69.92,246.82,70.14,246.28,70.78z"/>
					<path class="st10" d="M256.24,63.42c-1.14-1.77-3.64-1.36-5.75-1.28c-3.8,0.14-4.95,4.03-4.95,4.03
						c-1.32,3.6,0.99,7.27,4.4,9.02c2.87,1.48,5.32-2.11,5.88-3.7C256.28,70.17,257.85,65.92,256.24,63.42z"/>
					<path class="st2" d="M245.32,68.6c0-0.84,1.15-1.24,1.79-0.68c-0.09-1.67,1.29-2.97,2.96-3.04c1.67-0.07,4.12,1.47,6.85,0.14
						c2.71-1.32,0.97-4.61,0.15-4.92c-1.16-0.44-1.2,0.2-2.23,0.88c-1.29,0.84-4.05,0.22-5.59,0.11c-1.53-0.11-3.33,0.08-4.16,1.37
						c-0.21,0.33-0.35,0.72-0.61,1.01c-0.22,0.25-0.53,0.42-0.72,0.7c-0.19,0.27-0.25,0.61-0.28,0.94
						c-0.15,1.83,0.81,5.76,2.52,5.26C245.28,69.64,245.32,68.89,245.32,68.6z"/>
				</g>
				<g>
					<path class="st8" d="M246.8,144.8c-0.4-1.29,0.2-1.95-0.38-3.17c-0.64-1.34-1.44-1.22-1.76-0.9c0,0-1.85,2.1-1.79,2.36
						c0.05,0.26,3.16,3.97,4.26,4.3C248.21,147.73,247.29,146.37,246.8,144.8z"/>
					<path class="st8" d="M236.05,146.67c-0.49-0.83,0.27-1.39-0.44-2.04s-1.17-1.17-1.92-0.57c-0.12,0.33-2.35,2.79-1.3,3.95
						c0.5,0.55,3.98,1.9,6.11,1.67C239.63,149.28,236.92,148.13,236.05,146.67z"/>
					<path class="st2" d="M256.02,122.45c0,2.74-7.84,16.3-9.28,18.66c-0.54,0.88-1,1.74-1.94,0.51c-1.23-1.6,5.28-17.41,5.09-18.1
						c-0.2-0.72-7.67-8.35-10.07-11.7c-0.95-1.32-1.87-2.87-1.55-4.46c0.83-4,3.97-6.08,6-3.64
						C247.24,107.28,256.02,121.02,256.02,122.45z"/>
					<path class="st2" d="M236.4,120.02c0.75,1.45,3.18,5.39,3.27,7.02c0.09,1.63-6.12,14.91-5.97,17.01
						c0.12,1.67,1.57,1.22,1.92,0.57c0.52-0.97,8.95-12.75,10.08-17.59c1.46-6.2-3.87-13.92-3.88-18.28
						c1.5-1.21,1.67-1.27,2.66-2.92c0.69-1.16,1.2-3.52,0.65-3.66c-2.33-0.59-14-5.33-14.44-4.08
						C227.96,105.89,234.67,116.68,236.4,120.02z"/>
				</g>
				<g>
					<path class="st10" d="M279.54,81.67c-0.23-0.15-4.11,0.04-5.36,0.03c0.49-0.53,1.1-0.67,1.06-1.39
						c-0.84-0.48-4.4,2.68-4.4,2.68c0.2,0.46-0.03,1.92,0.47,1.81c1.86-0.38,6.01-0.52,6.88-0.84
						C280.11,83.27,279.85,81.87,279.54,81.67z"/>
					<path class="st11" d="M233.09,84.81c-1.31,3.87-2.73,10.27-2.68,14.35c4.75,1.29,11.27,2.82,14.72,3.15
						c1.41-4.7,2.24-7.98,3.65-12.69c1.46-4.85,3.12-11.12-1.49-14.63C241.83,70.84,235.39,78.02,233.09,84.81z"/>
					<path class="st7" d="M253.55,87.99c5.92,2.36,15.18-1.57,18.05-3.05c0.76-0.39,0.23-2.45-0.39-2.41
						c-0.27,0.02-10.53,2.54-14.96,0.96c-2.27-0.81-7.4-7.65-8.96-8.49c-1.68-0.91-4.66-0.87-5.38,1.73
						C240.93,80.29,249.64,86.43,253.55,87.99z"/>
				</g>
			</g>
		</g>
	</g>
	<line class="st12" x1="45.63" y1="392.44" x2="444.7" y2="392.44"/>
</g>
<g id="DESIGNED_BY_FREEPIK">
</g>
</svg>
