<?xml version="1.0" encoding="utf-8"?>
<!-- Generator: Adobe Illustrator 25.2.3, SVG Export Plug-In . SVG Version: 6.00 Build 0)  -->
<svg version="1.1" xmlns="http://www.w3.org/2000/svg" xmlns:xlink="http://www.w3.org/1999/xlink" x="0px" y="0px"
	 viewBox="0 0 432.18 372.99" style="enable-background:new 0 0 432.18 372.99;" xml:space="preserve">
<style type="text/css">
	.st0{display:none;}
	.st1{display:inline;fill:#FFFFFF;}
	.st2{fill:none;stroke:#020202;stroke-miterlimit:10;}
	.st3{fill:#FFFFFF;stroke:#020202;stroke-miterlimit:10;}
	.st4{fill:#FFFFFF;}
	.st5{fill:none;stroke:#3A81E8;stroke-miterlimit:10;}
	.st6{fill:#0F527E;}
	.st7{fill:#F9C293;}
	.st8{fill:#3A31AD;}
	.st9{fill:#033072;}
	.st10{fill:#383838;}
	.st11{fill:none;stroke:#056093;stroke-miterlimit:10;}
	.st12{fill:none;stroke:#0F527E;stroke-miterlimit:10;}
	.st13{fill:none;stroke:#0C70A8;stroke-miterlimit:10;}
	.st14{fill:none;stroke:#7E8281;stroke-miterlimit:10;}
	.st15{fill:none;stroke:#122129;stroke-miterlimit:10;}
	.st16{fill:#A9AAAA;}
	.st17{fill:#F7B690;}
	.st18{fill:#122129;}
	.st19{fill:#07669B;}
	.st20{fill:#003959;}
	.st21{fill:#2E53DB;}
	.st22{fill:#122129;stroke:#000000;stroke-width:2;stroke-miterlimit:10;}
	.st23{fill:none;stroke:#FFFFFF;stroke-width:0.25;stroke-miterlimit:10;}
</style>
<g id="BACKGROUND" class="st0">
	<rect x="-60.63" y="-23.85" class="st1" width="500" height="500"/>
</g>
<g id="OBJECTS">
	<g>
		<g>
			<path class="st2" d="M42.72,231.91c-2.1-1.75-3.62-4.42-3.53-7.14c0.09-2.73,2.95-5.38,5.46-4.31
				c-9.81-5.89-20.28-12.6-25.71-22.31c-2.23-3.98,0.72-8.89,5.28-8.86c0.51,0,1.02,0.04,1.52,0.11
				c-7.71-7.33-15.25-16.77-16.12-25.5c-0.72-7.18,3.59-9.95,7.79-8.51c2.84,0.97,5.53,2.47,7.92,4.28
				c4.75,3.58,8.51,8.27,12.22,12.91c-1.14-3.88-2.28-7.97-1-11.89c0.72-2.19,2.26-4.09,4.41-4.94c3.31-1.32,6,0.53,8.05,2.65
				c8.85,9.14,5.35,24.55,13.3,34.49c1.55-2.73,0.56-9.36,4.76-10.63c8.9-2.69,17.24,23.23,19.92,33.28
				c1.34,5.02,2.46,10.1,3.43,15.21c1.3,6.86,1.05,6.86-5.83,8.61C71.4,242.68,52.11,239.73,42.72,231.91z"/>
			<g>
				<path class="st3" d="M19.2,165.81c19.52,23.54,40.31,46,62.28,67.27c0.5,0.49,1.29-0.26,0.79-0.75
					c-21.97-21.27-42.76-43.73-62.28-67.27C19.55,164.52,18.76,165.27,19.2,165.81L19.2,165.81z"/>
			</g>
			<g>
				<path class="st3" d="M26.35,197.75c8.71,1.8,17.41,3.7,26.08,5.68c0.68,0.16,1-0.88,0.32-1.04c-8.67-1.98-17.37-3.87-26.08-5.68
					C25.99,196.57,25.66,197.61,26.35,197.75L26.35,197.75z"/>
			</g>
			<g>
				<path class="st3" d="M45.52,194.68c-0.06-5.67-0.29-11.34-0.59-17c-0.12-2.16-0.23-4.32-0.43-6.48
					c-0.06-0.71,0.03-1.92-0.45-2.51c-0.45-0.54-1.24,0.21-0.79,0.75c0.08,0.09,0.21,2.33,0.26,3.01c0.17,2.29,0.3,4.57,0.41,6.86
					c0.25,5.1,0.45,10.21,0.51,15.31C44.44,195.34,45.53,195.38,45.52,194.68L45.52,194.68z"/>
			</g>
			<g>
				<path class="st3" d="M52.87,229.52c8.36,2.39,17.05,2.68,25.55,0.84c0.68-0.15,0.43-1.21-0.25-1.06
					c-8.32,1.8-16.8,1.52-24.98-0.82C52.52,228.29,52.2,229.33,52.87,229.52L52.87,229.52z"/>
			</g>
			<g>
				<path class="st3" d="M72.77,223.24c0.58-8.79-1.06-17.55-1.93-26.26c-0.07-0.69-1.13-0.44-1.06,0.25
					c0.86,8.62,2.47,17.28,1.9,25.97C71.64,223.9,72.73,223.94,72.77,223.24L72.77,223.24z"/>
			</g>
		</g>
		<g>
			<g>
				<path class="st4" d="M328.51,295.68c-0.84,8.65,0.45,17.25,3.8,25.28c0.27,0.65,1.27,0.21,1-0.44
					c-3.28-7.86-4.54-16.24-3.71-24.71C329.66,295.1,328.58,294.98,328.51,295.68L328.51,295.68z"/>
			</g>
			<g>
				<path class="st4" d="M338.29,314.12c8.75-1.02,17.07-4.21,25.48-6.65c0.67-0.19,0.23-1.19-0.44-1
					c-8.32,2.41-16.55,5.55-25.2,6.57C337.44,313.12,337.6,314.2,338.29,314.12L338.29,314.12z"/>
			</g>
		</g>
		<g>
			<path class="st5" d="M376.73,58.64c14.39-6.41,30.89-5.14,46.58-3.75c-5.16,11.25-10.36,22.58-17.55,32.65
				c-7.19,10.07-15.02,16.51-26.58,20.93c-15.29,5.83-28.9-2.51-28.9-2.51C345.29,81.3,361.59,65.38,376.73,58.64z"/>
			<g>
				<path class="st6" d="M350.88,103.09c17.32-13.74,35.16-26.8,53.48-39.17c0.58-0.39-0.15-1.2-0.72-0.82
					c-18.32,12.36-36.16,25.43-53.48,39.17C349.61,102.71,350.33,103.53,350.88,103.09L350.88,103.09z"/>
			</g>
			<g>
				<path class="st6" d="M385.72,59.75c-2.08,6.08-3.29,12.22-3.67,18.64c-0.04,0.7,1.04,0.78,1.09,0.08
					c0.38-6.31,1.57-12.38,3.61-18.36C386.97,59.44,385.94,59.09,385.72,59.75L385.72,59.75z"/>
			</g>
			<g>
				<path class="st6" d="M378.32,82.03c6.03,0.72,12.08,0.98,18.03,2.28c0.68,0.15,1.04-0.88,0.35-1.03
					c-6.05-1.32-12.17-1.6-18.3-2.33C377.7,80.86,377.63,81.95,378.32,82.03L378.32,82.03z"/>
			</g>
			<g>
				<path class="st6" d="M365.24,69.56c-1.44,7.15-0.79,14.4-0.29,21.61c0.05,0.7,1.12,0.49,1.07-0.2
					c-0.5-7.13-1.12-14.27,0.3-21.33C366.46,68.95,365.37,68.88,365.24,69.56L365.24,69.56z"/>
			</g>
			<g>
				<path class="st6" d="M361.21,94.85c6.8,2.42,14,2.89,21.06,1.36c0.68-0.15,0.48-1.22-0.2-1.07c-6.89,1.49-13.86,1.04-20.5-1.32
					C360.9,93.59,360.55,94.62,361.21,94.85L361.21,94.85z"/>
			</g>
		</g>
		<g>
			<g>
				<g>
					<path class="st7" d="M70.78,349.39c-0.47,1.73-0.8,3.64,0.05,5c0,0-1.47,1.15-2.34,0.46c-0.66-0.52-0.9-1.32-0.68-2.13
						c1.18-4.29,1.03-12.56,1.64-16.57c0.19-1.25,1.16-3.26,1.33-4.52c0.52-3.94-0.51-2.2-0.8-7.13c1.9,0.01,4.21,0.91,6.11,0.92
						c-0.25,4.05-0.63,5.95-1.2,8.52C73.6,339.73,72.64,342.6,70.78,349.39z"/>
					<path class="st7" d="M63.88,332.43c-1.93,6.26-0.6,9.36-2.07,20.02c-0.24,1.7-0.45,2.99,0.57,4.37c2.22,2.99,2.4-1.73,2.4-1.73
						c-0.6-1.41-0.72-2.83-0.59-3.9c0.26-2.15,1.05-4.97,2.26-9.47c0.54-1.99,1.97-7.65,2.14-8.65c0.2-1.14,0.3-6.9,0.76-10.15
						c0.17-1.2-5.91-1.28-6.05-0.1C62.89,326.48,64.78,329.53,63.88,332.43z"/>
					<path class="st8" d="M61.76,358.52c0.12,0.24,0.26,0.18,0.52,0.12c-0.1-0.48-0.18-1.16-0.12-1.65
						c0.63,0.69,1.28,1.64,2.44,1.91c2.27,0.54,2.68-0.45,2.51-0.66c-0.85-1.05-1.8-1.91-2.34-3.15c-0.69,0.29-1.13,0.49-1.78,0.11
						c-0.77-0.45-1.06-1.05-1.32-1.83C60.43,354.41,61.18,357.3,61.76,358.52z"/>
					<path class="st8" d="M67.89,357.72c0.11,0.24,0.26,0.18,0.51,0.12c-0.1-0.47-0.18-1.13-0.12-1.61
						c0.61,0.67,1.25,1.59,2.38,1.86c2.21,0.52,2.61-0.43,2.45-0.64c-0.82-1.02-1.75-1.86-2.28-3.07c-0.68,0.28-1.1,0.48-1.73,0.11
						c-0.75-0.44-1.04-1.03-1.29-1.78C66.6,353.72,67.33,356.54,67.89,357.72z"/>
				</g>
				<path class="st9" d="M63.36,328.18c3.12,0.55,11.53,1.32,12.89-0.54c0.57-3.45,3.57-11.32,3.46-20.01
					c0-0.35-18.66-3.42-18.66,1.85C61.05,314.63,63.46,320.31,63.36,328.18z"/>
			</g>
			<g>
				<path class="st7" d="M95.41,266.05c0.45-0.67,1.02-0.76,1.29,0c0.64,1.85-1.45,3.94-2.5,5.59c-2.43,3.83-8.58,10.96-12.65,12.22
					c-4.72,1.46-3.75-3.68-1.29-4.94c3.29-1.68,6.74-3.38,9.1-5.95C91.2,270.96,93.54,268.8,95.41,266.05z"/>
				<path class="st9" d="M53.87,292.46c1.57,0.44,3.72,0.63,5.29,1.07c0.69-1.23,0.99-1.35,1.39-2.1c0.5,5.18,3.4,6.2,3.27,8.9
					c-0.19,3.69-3.31,5.49-2.77,9.15c6.19-0.38,14.2,0.98,18.66-1.85c0-3.1-3.67-7.17-3.79-10.26c-0.13-3.22,2.29-4.19,1.74-6.48
					c-0.26-1.07-1.58-2.05-1.73-2.81c-0.34-1.7,4.19-3,5.62-4.22c-0.86-0.76-2.23-3.76-1.29-4.94c-4.43,1.75-8.26,1.59-9.83,1.93
					c-2.49,0.55-6.72,1.72-9.42,1.92c-1.94,0.14-4.55,2.22-5.62,5.24C55.2,288.52,53.87,292.46,53.87,292.46z"/>
				<path class="st7" d="M53.87,292.46c-0.51,2.16-1.69,8.09-1.68,9.56c0.01,1.91,8.94,4.3,10.91,4.3c2.18,0,3.22-2.93,1.16-3.11
					c-1.35-0.12-0.66,0.37-1.93,0.83c-1.28,0.46-6.38-3.32-6.07-4.03c0.87-1.95,1.53-3.26,2.91-6.48
					C57.74,291.38,54.19,291.11,53.87,292.46z"/>
			</g>
			<g>
				<path class="st10" d="M57.13,272.87c-0.04,3.75,1.15,5.95-0.47,8.27c6.58,3.5,14.6-0.83,15.77-3.19
					c1.86-3.71,0.84-7.95-3.1-11.03c-2.4-1.88-6.61-0.34-9.22,0.96C59.16,268.36,57.16,269.39,57.13,272.87z"/>
				<path class="st7" d="M70.21,271.33c-0.78-1.81-2.04-3.54-3.89-4.24c-1.84-0.7-5.57,0.96-6.31,2.49
					c-1.23,2.52,0.75,5.78,2.78,7.71c2.03,1.93,5.8,2.17,7.4-0.13C71.36,275.49,71.01,273.19,70.21,271.33z"/>
				<path class="st7" d="M70.42,280.85c-1.25-0.19-1.27-1.4-1.77-3c-0.37-1.21-4.04,0.1-4.04,0.1c0.67,1.86,1.07,3.31-0.45,4.28
					c0.83,1.49,1.55,1.86,2.67,2.21c1.12,0.35,2.43,0.27,3.32-0.49C71.05,283.19,71.58,281.02,70.42,280.85z"/>
				<path class="st10" d="M67.08,266.11c-0.98-1.39-3.09-1.17-4.76-0.82c-1.63,0.35-3.08,1.56-4.04,2.93
					c-1.33,1.88-1.4,3.91-0.92,6.17c0.08,0.39,2.11,1.51,2.44,1.43c2.13-0.52,3.52-2.8,3.76-4.98c0.25-2.24,3.03-2.55,3.54-2.23
					c0,0,2.67,4.44,3.87,4.2C70.98,266.82,67.52,266.74,67.08,266.11z"/>
			</g>
		</g>
		<g>
			<g>
				<path class="st11" d="M242.32,175.22c-0.41,8.76-7.82,15.87-16.58,15.95c-3.82,0.03-7.34-1.2-10.17-3.32v48.45h-48.45
					c2.12-2.83,3.35-6.35,3.32-10.17c-0.08-8.77-7.19-16.17-15.95-16.58c-9.63-0.45-17.56,7.21-17.56,16.74
					c0,3.76,1.23,7.23,3.32,10.02H91.79V122.18c0-5.33,4.32-9.66,9.66-9.66h114.12v48.45c2.79-2.09,6.25-3.32,10.02-3.32
					C235.1,157.65,242.77,165.59,242.32,175.22z"/>
				<path class="st12" d="M142.07,202.18h73.49v34.11h-48.45c2.11-2.83,3.35-6.35,3.32-10.17c-0.08-8.77-7.19-16.17-15.96-16.59
					c-9.62-0.45-17.55,7.22-17.55,16.74c0,3.77,1.23,7.23,3.32,10.01H91.79V122.18c0-5.34,4.33-9.66,9.66-9.66h12.06v61.1
					C113.51,189.4,126.3,202.18,142.07,202.18z"/>
			</g>
			<g>
				<path class="st12" d="M188.81,297.38c0.41-8.76,7.82-15.87,16.58-15.95c3.82-0.03,7.34,1.2,10.17,3.32V236.3h48.45
					c-2.12,2.83-3.35,6.35-3.32,10.17c0.08,8.77,7.19,16.17,15.95,16.58c9.63,0.45,17.56-7.21,17.56-16.74
					c0-3.76-1.23-7.23-3.32-10.02h48.45v114.12c0,5.33-4.32,9.66-9.66,9.66H215.56v-48.45c-2.79,2.09-6.25,3.32-10.02,3.32
					C196.02,314.94,188.36,307,188.81,297.38z"/>
				<path class="st13" d="M339.34,338.35v12.07c0,5.33-4.32,9.65-9.65,9.65H215.56v-48.45c-2.8,2.09-6.26,3.32-10.02,3.32
					c-9.52,0-17.18-7.93-16.73-17.55c0.4-8.76,7.81-15.88,16.58-15.95c3.83-0.03,7.35,1.21,10.18,3.32v-48.45h23.41v76.85
					c0,13.92,11.29,25.21,25.21,25.21H339.34z"/>
			</g>
			<g>
				<path class="st14" d="M154.48,209.54c8.76,0.41,15.87,7.82,15.95,16.58c0.03,3.82-1.2,7.34-3.32,10.17h48.45v48.45
					c-2.83-2.12-6.35-3.35-10.17-3.32c-8.77,0.08-16.17,7.19-16.58,15.95c-0.45,9.63,7.21,17.56,16.74,17.56
					c3.76,0,7.23-1.23,10.02-3.32v48.45H101.44c-5.33,0-9.66-4.32-9.66-9.66V236.3h48.45c-2.09-2.79-3.32-6.25-3.32-10.02
					C136.92,216.75,144.86,209.09,154.48,209.54z"/>
				<path class="st15" d="M130.63,339.2h84.94v20.87H101.44c-5.33,0-9.65-4.32-9.65-9.65V236.29h17.09v81.15
					C108.87,329.46,118.61,339.2,130.63,339.2z"/>
			</g>
		</g>
		<g>
			<g>
				<path class="st6" d="M243.71,233.61c-0.41-1-0.2-2.05-0.21-2.36c-1.27,0-2.23-0.08-2.72-0.09c-0.71,1.94-1.6,3.31-1.24,4.53
					c2.11,1.5,4.43,2.4,6.98,2C246.94,236.8,243.8,233.84,243.71,233.61z"/>
				<path class="st6" d="M257.72,236.51c0.34-0.8-1.59-2.91-1.38-4.51c0.12-0.89-0.06-1.88-0.68-2.54
					c-0.43-0.46-1.19-0.61-1.74-0.39c0,0-2.68,2.99-2.33,3.41C253.44,234.7,257.12,237.92,257.72,236.51z"/>
				<path class="st16" d="M240.78,231.16c0.89,1.96,2.29,0.76,2.72,0.09c1.07-3.94,5.67-17.03,6.33-19.16
					c1.18-3.79,1.56-8.08,2.07-13.81c3.31,6.5,4.83,10.22,5.21,13.11c0.24,1.9-3.18,16.9-3.28,18.33c-0.1,1.4,1.8,2.28,2.22,1.26
					c2.45-5.68,7.04-16.59,7.05-21.31c0.02-7.21-3.92-15.6-6.51-24.26c0,0.57-14.27-0.97-15.1,0.76c-1.93,4.01,0.12,9.62,0.74,12.16
					c1.26,5.18,1.65,9.49,1.55,13.35C243.62,217.31,241.5,224.83,240.78,231.16z"/>
			</g>
			<g>
				<path class="st17" d="M235,193.34c-0.1,0.69-0.73,2.83-0.5,3.48c0.42,1.16,2.81,1.51,3.35,0.44c0.89-1.75-0.56-2.54-0.29-4.49
					c0.97-6.85,2.63-11.74,3.55-17.01c-0.68-0.24-4.81-1.47-4.85-0.75c-0.32,5.58-0.61,7.85-0.61,10.34
					C235.66,188.53,235.55,189.5,235,193.34z"/>
				<path class="st10" d="M241.12,175.77l0.85-4.49c-0.63,2.63-0.71,14.04-0.49,14.9c0.3,1.14,13.08,1.89,15.1-0.76
					c0.49-0.64,0.21-12.87,0.2-15.63c-0.02-4.29,3.85-8.85,5.5-14.91c-1.79-1.74-4.98-2.75-4.98-2.75
					c-1.24,1.82-2.34,4.58-3.81,5.96c-2.68,2.51-5.05,1.86-8.34,2.64c-2.89,0.68-5.91,1.84-6.81,4.53
					c-1.06,3.19-1.92,6.05-2.08,9.77C237.43,175.49,240.14,176.22,241.12,175.77z"/>
				<path class="st17" d="M260.15,145.58c0.2-1.52-1.9-7.56-1.96-11.57c-0.02-1.18,0.5,1.06,1.02,0c0.36-0.74,0.85,0.24,0.85,0.24
					c1.58,3.86,2.35,4.76,3.93,8.63c0.4,0.98,0.81,2,0.73,3.06c-0.1,1.38-1.54,7.88-2.43,8.94c-0.76,0.9-5.77-1.11-4.98-2.75
					C258.2,150.29,259.93,147.3,260.15,145.58z"/>
			</g>
			<g>
				<path class="st17" d="M249.53,155.43c-0.68-0.49-3.56,0.22-3.56,0.22c0.39,2.27,0.54,5.13,0.61,5.37
					c0.57,1.95,4.47,2.57,4.47,0.12C250.86,159.8,250.2,155.92,249.53,155.43z"/>
				<path class="st17" d="M244.72,155.86c0,0,1.61,1.93,4.39,2.42c1.25,0.22,2.86,0.19,3.45-0.93c0.6-1.12,0.73-2.43,0.75-3.7
					c0.02-1.29-1.91-4.73-2.4-5.93c-0.75-1.81-1.46-2.27-3.38-2.62c-1.78-0.32-5.51,1.81-6.24,3.84
					C240.42,151.34,242.86,155.58,244.72,155.86z"/>
				<path class="st10" d="M243.3,150.64c0.44-1.09,1.97-2.05,2.99-2.7c0.86-0.55,3.36-2.18,4.62-0.22c0.3-0.94,0.54-2.28-0.21-3.82
					c-0.33-0.69-1.31-2.25-1.82-1.68c-1.68,1.85-5.18,2.97-6.81,4.28c-1.63,1.31-2.27,3.2-1.69,5.2c0.26,0.88,1.38,2.3,1.5,2.44
					c0.26,0.31,1.93,2.08,2.84,1.71c0,0-2.44-2.81-0.47-2.52C243.36,152.08,243.2,150.9,243.3,150.64z"/>
			</g>
		</g>
		<g>
			<path class="st10" d="M318.25,156.34c0.04,1.24-0.88,2.85-1.44,3.96c-0.45,0.89-1.33,1.47-1.96,2.24
				c-2.16,2.66,1.44,8.68-1.74,9.97c-3.47,1.41-2.87,5.3-2.13,7.16c3.1,6.56,4.8-0.96,7.64-0.56c2.87,0.41,5.49-1.8,8.01-3.22
				c2.89-1.63,5.95-3.44,7.34-6.45c0.9-1.94,0.98-4.14,1.05-6.28c0.13-4.07-0.44-7.32-2.31-10.94
				C327.9,142.96,317.96,147.04,318.25,156.34z"/>
			<g>
				<g>
					<path class="st7" d="M319.71,218.72c0.11,9.66-1.05,11.98-1.17,13.27c-0.27,2.96,3.89,4.23,4.12,3.25
						c-0.41-0.71-0.53-1.08-0.98-1.95c-0.89-1.71-0.26-4.36,0.39-7.16c1.19-5.17,2.28-10.37,3.26-15.58
						c0.58-3.09,3.93-11.78-1.92-11.15c-3.65,0.39-2.73,3.37-2.8,6.13C320.5,210.08,319.66,214.07,319.71,218.72z"/>
					<path class="st7" d="M328.99,232.61c-0.03,0.38,0.49,1.6,0.83,1.78c1.72,0.87,2.39,0.26,2.39-1.1
						c-0.2-0.42-1.01-1.54-0.96-4.16c0.13-6.58,1.52-14.96,1.43-21.55c-0.02-1.41-0.15-5.76-1.33-6.54
						c-0.82-0.54-2.01-0.44-2.72,0.24c-2.43,2.3-0.05,18.1,0.13,21.17C328.95,225.83,329.25,228.92,328.99,232.61z"/>
					<path class="st10" d="M317.76,233.6c-0.09,0.73,0.81,1.96,0.85,2.7c0.31,0.08,0.45,0,0.58,0c-0.01-0.65-0.22-1.68-0.02-1.53
						c0.74,0.58,1.11,1.42,1.36,1.47c0.77,0.13,2.89,0.01,3.67,0.05c-0.05-0.68-2.5-3.11-2.52-3c-0.07,0.64-0.73,0.74-1.1,0.64
						c-1.2-0.32-1.72-1.96-2.04-1.94C318.05,232.02,317.81,233.11,317.76,233.6z"/>
					<path class="st10" d="M328.29,233.6c-0.09,0.73,0.81,1.93,0.85,2.66c0.31,0.08,0.44,0.07,0.61,0.03
						c-0.01-0.65-0.25-1.68-0.05-1.53c0.74,0.58,1.28,1.49,1.53,1.53c0.77,0.13,2.72-0.05,3.5-0.01c-0.05-0.68-2.5-3.11-2.52-3
						c-0.07,0.64-0.73,0.74-1.1,0.64c-1.2-0.32-1.72-1.96-2.04-1.94C328.59,232.02,328.35,233.11,328.29,233.6z"/>
				</g>
				<path class="st10" d="M317.53,193.39c1.23,3.69,1.76,7.61,1.55,11.49c3.49,0.14,15.19,0.05,15.16-0.31
					c-0.36-3.71,0.45-8.29,0.8-11.74c0.58-5.74,0.78-10.86-1.98-15.14c-0.17-0.26-12.6-3.2-14.34,0.68
					C316.92,182.38,316.39,189.6,317.53,193.39z"/>
			</g>
			<g>
				<path class="st9" d="M314.38,144.2c-1.6,0.51-2.86,0.88-4.46,1.38c-0.54,2.3,0.73,5.95,1.25,7.57
					c2.31,7.22,7.91,11.17,8.55,18.72c0.19,2.2-0.16,4.45-1.01,6.49c8.09,4.67,15.03,0.75,14.91,0.27
					c-0.91-3.41-0.66-7.51,0.76-10.28c0.61-1.18-1.09-3.29-0.37-4.41c1.45-2.26,7.37-10.75,7.37-20.6
					c-1.23-0.08-2.85,0.24-4.08,0.16c-1.22,3.48-2.13,5.91-3.75,9.25c-0.9,1.85-2.17,4.48-3.1,5.55c-2.01,2.31-6.38,2.65-8.66,0.56
					C318.71,156.04,315.55,148.94,314.38,144.2z"/>
				<path class="st7" d="M313.42,133.66c0.62-0.09,1.1-0.25,1.25,0.36c0.34,1.37-0.03-1.04-0.1,0.6c-0.15,3.74-0.46,6.29-0.28,10.02
					c0.06,1.34-0.14,3.01-1.41,3.45c-0.76,0.26-1.62-0.1-2.16-0.69C307.8,144.2,312.38,133.81,313.42,133.66z"/>
				<path class="st7" d="M337.12,144.04c0.21-4.1,2.05-5.34,0.47-9.7c-0.8-0.26,0.74-0.62,2.47-0.33c2.45,4.27,1.33,7.93,1.33,9.34
					C341.38,149,336.85,149.36,337.12,144.04z"/>
			</g>
			<g>
				<path class="st7" d="M323.75,160.41c-0.05,0.42,0.2,0.81,0.48,1.09c0.98,0.99,2.51,1.18,3.65,0.45
					c0.42-0.27,0.82-0.73,0.78-1.28c-0.05-0.64-0.66-1.04-0.79-1.66c-0.08-0.42-0.11-0.86-0.1-1.28c0.04-1.77-3.69-1.84-3.94-0.45
					c-0.09,0.47,0.09,0.93,0.13,1.39C324.01,159.35,323.82,159.77,323.75,160.41z"/>
				<path class="st7" d="M326.81,147.03c-1.21-0.37-4.84,2.98-5.04,3.65c-0.63,2.11-0.96,3.98,0.04,5.94c0.94,1.84,3,2.99,4.99,2.82
					c1.4-0.12,3.73-2.22,3.66-4.64C330.27,148.96,328.02,147.4,326.81,147.03z"/>
				<g>
					<path class="st10" d="M325.81,145.59c-3.26,0.17-6.73,2.29-7.1,7.11c-0.11,1.47,6.29-0.9,9.2-3.29c1.4-1.15,3.08,2.23,4.8,2.81
						C331.77,148.3,329.07,145.42,325.81,145.59z"/>
				</g>
			</g>
		</g>
		<path class="st18" d="M332.6,356.49c-4.3-38.65-9.65-77.16-15.5-115.54c-0.28-1.8-2.76-1.14-2.48,0.66
			c0.74,4.87,1.48,9.74,2.2,14.61c-4.5,0.36-9,0.54-13.51,0.72c-0.71-5.25-1.42-10.49-2.15-15.74c-0.25-1.81-2.73-1.14-2.48,0.66
			c1.52,10.9,2.98,21.82,4.4,32.74c-0.05,0.34-0.01,0.7,0.13,0.98c3.62,27.88,6.95,55.81,10.02,83.77c0.2,1.81,2.68,1.14,2.48-0.66
			c-0.61-5.57-1.24-11.15-1.87-16.72c4.78-0.41,9.57-1.03,14.31-1.86c0.68,5.68,1.34,11.35,1.97,17.04
			C330.31,358.97,332.8,358.3,332.6,356.49z M309.94,308.83c0.04,0,0.09,0,0.13,0c4.56-0.56,9.13-1.12,13.69-1.68
			c0.08-0.01,0.15-0.03,0.22-0.05c0.61,4.62,1.21,9.24,1.8,13.86c-4.73,0.57-9.44,1.31-14.12,2.24
			C311.09,318.41,310.52,313.62,309.94,308.83z M307.95,292.68c4.61-0.65,9.21-1.3,13.82-1.96c0.63,4.56,1.25,9.12,1.86,13.69
			c-0.14-0.03-0.28-0.05-0.43-0.03c-4.53,0.55-9.06,1.11-13.59,1.66C309.06,301.59,308.51,297.13,307.95,292.68z M305.83,276.11
			c4.58-0.22,9.17-0.49,13.73-0.98c0.61,4.26,1.22,8.53,1.81,12.8c-4.59,0.65-9.19,1.3-13.78,1.95
			C307.02,285.29,306.43,280.7,305.83,276.11z M317.23,259.03c0.66,4.43,1.31,8.87,1.94,13.3c-4.56,0.49-9.13,0.74-13.7,0.95
			c-0.59-4.51-1.18-9.01-1.79-13.51C308.2,259.59,312.72,259.41,317.23,259.03z M313.51,339.17c-0.5-4.38-1-8.76-1.52-13.14
			c4.7-0.94,9.41-1.68,14.15-2.26c0.57,4.51,1.12,9.03,1.67,13.54C323.07,338.15,318.28,338.77,313.51,339.17z"/>
		<path class="st6" d="M196.01,116.16c-1.3,5.91-2.61,11.82-3.92,17.73c-4.99-0.05-9.95-0.68-14.89-1.5
			c1.23-5.26,2.45-10.52,3.69-15.77c0.42-1.79-1.9-2.61-2.32-0.82c-14.7,62.11-28.3,124.57-40.73,187.36
			c-3.5,17.69-6.92,35.41-10.28,53.14c-0.34,1.81,1.98,2.63,2.32,0.82c0.97-5.11,1.95-10.22,2.93-15.33
			c4.84,0.73,9.67,1.58,14.49,2.54c-0.97,5.01-1.93,10.03-2.88,15.04c-0.34,1.81,1.98,2.63,2.32,0.82
			c5.44-28.73,11.25-57.37,17.26-85.94c0.02-0.08,0.04-0.16,0.05-0.24c3.84-18.24,7.75-36.46,11.71-54.67
			c0.09-0.2,0.14-0.43,0.14-0.66c3.33-15.26,6.69-30.51,10.06-45.76c4.12-18.65,8.25-37.29,12.36-55.94
			C198.73,115.18,196.41,114.36,196.01,116.16z M191.46,136.77c-1,4.51-1.99,9.01-2.99,13.51c-5.03-0.58-10.07-0.93-15.1-1.37
			c1.06-4.58,2.12-9.16,3.19-13.74C181.5,136.01,186.46,136.68,191.46,136.77z M180.98,184.16c-5.14-0.24-10.28-0.25-15.4-0.92
			c0.86-3.85,1.71-7.71,2.58-11.56c0.26-1.14,0.52-2.27,0.78-3.41c3.08,0.43,6.16,0.83,9.25,1.12c1.87,0.18,3.99,0.55,5.97,0.37
			C183.1,174.56,182.04,179.36,180.98,184.16z M177.36,200.6c-5.14-0.53-10.29-0.79-15.45-0.79c1.01-4.59,2.02-9.17,3.04-13.75
			c5.11,0.72,10.25,0.74,15.39,0.96C179.35,191.55,178.36,196.07,177.36,200.6z M173.75,217.12c-5.16-0.2-10.31-0.4-15.47-0.61
			c0.99-4.61,2-9.21,3.01-13.82c5.16-0.02,10.31,0.23,15.45,0.74C175.74,208,174.74,212.56,173.75,217.12z M169.74,235.55
			c-5.06-0.86-10.13-1.29-15.25-1.27c1.05-4.97,2.1-9.93,3.17-14.9c5.15,0.2,10.31,0.4,15.46,0.61
			C171.99,225.17,170.86,230.36,169.74,235.55z M165.82,253.81c-3.25-0.81-6.6-1.09-9.91-1.27c-1.64-0.09-3.47-0.36-5.2-0.26
			c1.05-5.04,2.1-10.09,3.17-15.13c0.03,0,0.05,0.01,0.09,0.01c5.09-0.04,10.14,0.37,15.18,1.2
			C168.02,243.5,166.92,248.65,165.82,253.81z M161.97,271.99c-4.83-0.82-10.07-2.26-14.95-1.85c1.02-4.98,2.05-9.95,3.08-14.92
			c1.65-0.23,4.04,0.11,5.75,0.2c3.13,0.17,6.3,0.4,9.37,1.18C164.13,261.73,163.05,266.86,161.97,271.99z M158.12,290.44
			c-5.03,0.1-9.93-0.65-14.77-2.27c1.01-5.03,2.04-10.06,3.07-15.09c4.77-0.72,10.12,0.81,14.96,1.7
			C160.28,280,159.2,285.22,158.12,290.44z M154.82,306.47c-0.13,0.65-0.26,1.3-0.39,1.95c-4.68-1.51-9.84-1.69-14.66-2.26
			c1-5.06,2.01-10.11,3.02-15.17c4.83,1.6,9.72,2.38,14.74,2.34C156.62,297.71,155.71,302.09,154.82,306.47z M184.83,166.76
			c-2.33,0.52-5.14-0.1-7.39-0.33c-2.62-0.26-5.23-0.6-7.85-0.96c1.04-4.57,2.08-9.14,3.13-13.7c5.04,0.44,10.09,0.8,15.13,1.36
			C186.84,157.66,185.83,162.21,184.83,166.76z M139.2,308.99c4.8,0.61,9.99,0.72,14.66,2.25c-1.02,5.05-2.03,10.1-3.03,15.15
			c-4.66-1.71-9.66-1.91-14.45-2.94C137.31,318.62,138.25,313.8,139.2,308.99z M133.36,338.97c0.82-4.24,1.64-8.49,2.46-12.73
			c4.79,1.01,9.81,1.23,14.44,2.96c-0.81,4.1-1.61,8.21-2.41,12.31C143.04,340.56,138.21,339.71,133.36,338.97z"/>
		<g>
			<path class="st9" d="M215.52,48.99c2.26,0.06,3.18,0.2,5.4-0.28c3.85-0.84,6.62-1.95,9.06-3.25c1.53-0.81,8.56-5.07,8.2-6.11
				c-0.36-1.04-0.89-0.91-1.96-0.63c-1.63,0.43-8.32,3.82-11.28,4.56c-2.96,0.74-8.35,0.87-11.25-0.09
				c-1.39,0.08-2.88,0.48-3.28,1.81C209.49,48.19,213.75,49.21,215.52,48.99z"/>
			<g>
				<path class="st19" d="M286.67,160.77c-8.76-0.41-15.87-7.82-15.95-16.58c-0.03-3.82,1.2-7.34,3.32-10.17h-48.45V85.56
					c2.83,2.12,6.35,3.35,10.17,3.32c8.77-0.08,16.17-7.19,16.58-15.95c0.45-9.63-7.21-17.56-16.74-17.56
					c-3.76,0-7.23,1.23-10.02,3.32V10.24h114.12c5.33,0,9.66,4.32,9.66,9.66v114.12h-48.45c2.09,2.79,3.32,6.25,3.32,10.02
					C304.24,153.56,296.3,161.22,286.67,160.77z"/>
				<path class="st20" d="M349.37,134.01h-48.45c2.09,2.8,3.32,6.26,3.32,10.02c0,9.52-7.93,17.18-17.55,16.73
					c-8.76-0.4-15.88-7.81-15.95-16.58c-0.03-3.83,1.21-7.35,3.32-10.18h-48.45V85.56c2.83,2.12,6.35,3.35,10.18,3.32
					c8.76-0.08,16.17-7.18,16.58-15.94c0.46-9.63-7.2-17.57-16.73-17.57c-3.77,0-7.23,1.23-10.02,3.32V10.23h37.12v61.67
					c0,17.45,14.15,31.6,31.6,31.6h55.06V134.01z"/>
			</g>
			<g>
				<g>
					<path class="st17" d="M211.34,36.58c-0.89,1.06-1.78,2.12-2.68,3.19c-0.21,0.25-0.43,0.52-0.44,0.85
						c-0.01,0.28,0.13,0.54,0.27,0.79c0.86,1.46,1.94,2.79,3.19,3.93c0.57-2.02,1.87-3.83,3.61-5c-0.25-1.45-0.7-2.9-1.69-3.99
						C213.04,35.72,211.87,35.94,211.34,36.58z"/>
					<path class="st17" d="M221.3,29.23c-1.14-1.77-3.64-1.36-5.75-1.28c-3.8,0.14-4.95,4.03-4.95,4.03
						c-1.32,3.6,0.99,7.27,4.4,9.02c2.87,1.48,5.32-2.11,5.88-3.7C221.33,35.97,222.91,31.73,221.3,29.23z"/>
					<path class="st10" d="M210.38,34.41c0-0.84,1.15-1.24,1.79-0.67c-0.09-1.67,1.29-2.97,2.96-3.04c1.67-0.07,4.12,1.47,6.85,0.14
						c2.71-1.32,0.97-4.61,0.15-4.92c-1.16-0.44-1.2,0.2-2.23,0.88c-1.29,0.84-4.05,0.22-5.59,0.11s-3.33,0.08-4.16,1.37
						c-0.21,0.33-0.35,0.72-0.61,1.01c-0.22,0.25-0.53,0.42-0.72,0.7c-0.19,0.27-0.25,0.61-0.28,0.95
						c-0.15,1.83,0.81,5.76,2.52,5.26C210.33,35.45,210.38,34.7,210.38,34.41z"/>
				</g>
				<g>
					<path class="st16" d="M211.85,110.6c-0.4-1.29,0.2-1.95-0.38-3.17c-0.64-1.34-1.44-1.22-1.76-0.9c0,0-1.85,2.1-1.79,2.36
						c0.05,0.26,3.16,3.97,4.26,4.3C213.27,113.54,212.34,112.17,211.85,110.6z"/>
					<path class="st16" d="M201.11,112.47c-0.49-0.83,0.27-1.39-0.44-2.04c-0.71-0.65-1.17-1.17-1.92-0.57
						c-0.12,0.33-2.35,2.79-1.3,3.95c0.5,0.55,3.98,1.9,6.11,1.67C204.69,115.08,201.98,113.94,201.11,112.47z"/>
					<path class="st10" d="M221.08,88.26c0,2.74-7.84,16.3-9.28,18.66c-0.54,0.88-1,1.74-1.94,0.51c-1.23-1.6,5.28-17.41,5.09-18.1
						c-0.2-0.72-7.67-8.35-10.07-11.7c-0.95-1.32-1.87-2.87-1.55-4.46c0.83-4,3.97-6.08,6-3.64
						C212.29,73.08,221.08,86.83,221.08,88.26z"/>
					<path class="st10" d="M201.46,85.82c0.75,1.45,3.18,5.39,3.27,7.02c0.09,1.63-6.12,14.91-5.97,17.01
						c0.12,1.67,1.57,1.22,1.92,0.57c0.52-0.97,8.95-12.75,10.08-17.59c1.46-6.2-3.87-13.92-3.88-18.28
						c1.5-1.21,1.67-1.27,2.66-2.92c0.69-1.16,1.2-3.52,0.65-3.66c-2.33-0.59-14-5.33-14.44-4.08
						C193.01,71.69,199.72,82.49,201.46,85.82z"/>
				</g>
				<g>
					<path class="st7" d="M102.93,263.91c-0.26-0.1-4.02,0.86-5.24,1.1c0.37-0.62,0.94-0.88,0.76-1.58
						c-0.92-0.31-3.77,3.51-3.77,3.51c0.29,0.41,0.35,1.89,0.83,1.68c1.74-0.75,5.78-1.71,6.58-2.2
						C103.81,265.36,103.27,264.04,102.93,263.91z"/>
					<path class="st21" d="M198.15,50.62c-1.31,3.87-2.73,10.27-2.68,14.35c4.75,1.29,11.27,2.82,14.72,3.15
						c1.41-4.7,2.24-7.98,3.65-12.69c1.46-4.85,3.12-11.12-1.49-14.63C206.89,36.65,200.45,43.83,198.15,50.62z"/>
					<path class="st9" d="M218.61,53.8c6.73,1.74,6.73,1.74,6.99,0.05c0.54-3.55,0-3.59,0.15-2.97c0.06,0.27,0,0-4.43-1.59
						c-2.27-0.81-7.4-7.65-8.96-8.49c-1.68-0.91-4.66-0.87-5.38,1.73C205.98,46.09,214.53,52.75,218.61,53.8z"/>
				</g>
			</g>
		</g>
	</g>
	<line class="st22" x1="13.69" y1="361.25" x2="412.76" y2="361.25"/>
	<path class="st23" d="M62.14,308.24c1.05,1.72,0.13,4.02,0.77,5.93c0.24,0.72,0.7,1.36,1.01,2.06c0.59,1.32,0.62,2.81,0.65,4.26
		c0.02,0.9,0.03,1.8,0.05,2.7"/>
	<path class="st23" d="M74.27,288.12c0.75,0.66,1.2,1.6,1.41,2.58c0.26,1.25-0.08,2.85-1.29,3.24"/>
	<path class="st23" d="M61.77,288.45c-0.66,0.55-1.87,0.41-2.2,1.2c-0.25-0.02-0.5-0.04-0.75-0.06c0.55-1.06,1.23-2.05,2.01-2.94"/>
	<path class="st23" d="M256.96,205.37c2.31,3.51,2.88,8.1,1.52,12.07"/>
	<path class="st23" d="M242.34,188.2c-0.56,1.69-0.59,3.55-0.09,5.25c0.28,0.93,0.7,1.8,1.03,2.72c0.64,1.79,0.89,3.69,1.13,5.57
		c0.18,1.39,0.36,2.79,0.54,4.18"/>
	<path class="st23" d="M240.8,233.41c-0.28,0.45-0.34,1.04-0.16,1.54c0.62,0.6,1.34,1.1,2.12,1.46"/>
	<path class="st23" d="M253.46,231c-0.48,0.34-0.55,1.06-0.32,1.6c0.23,0.54,0.68,0.95,1.12,1.33"/>
	<path class="st23" d="M252.49,160.98c2.22-1.43,4.07-3.44,5.3-5.78"/>
	<path class="st23" d="M240.71,173.72c0.87-1.27,1.73-2.54,2.6-3.81c0.6,0.44,0.59,1.32,0.52,2.06c-0.28,2.85-0.56,5.71-0.84,8.57"
		/>
	<path class="st23" d="M197.88,57.16c-0.58,1.68-1.03,3.41-1.35,5.16c-0.05,0.27-0.09,0.56,0.04,0.8c0.16,0.29,0.52,0.4,0.84,0.47
		c1.56,0.32,3.4,0.41,4.35,1.69c0-0.16,0-0.31-0.01-0.47"/>
	<path class="st23" d="M204.61,87.21c0.57,1.52,1.13,3.05,1.7,4.57c0.1,0.26,0.19,0.52,0.19,0.79c0,0.28-0.1,0.55-0.2,0.81
		c-0.72,1.87-1.59,3.68-2.62,5.39"/>
	<path class="st23" d="M213.31,85.31c0.58,0.87,1.15,1.74,1.73,2.6c0.49,0.74,1.01,1.59,0.84,2.46c-0.11,0.56-0.48,1.03-0.73,1.53
		c-0.36,0.71-0.51,1.53-0.41,2.32"/>
	<path class="st23" d="M318.74,181.9c-1.31,2.64-1.11,5.77-0.49,8.64s1.63,5.68,1.89,8.61"/>
	<path class="st23" d="M335.15,159.62c0.27,1.56-1.57,2.67-1.94,4.21c-0.16,0.66-0.03,1.35,0,2.03c0.07,1.37-0.23,2.76-0.87,3.98"/>
</g>
<g id="DESIGNED_BY_FREEPIK">
</g>
</svg>
