<?xml version="1.0" encoding="utf-8"?>
<!-- Generator: Adobe Illustrator 25.2.3, SVG Export Plug-In . SVG Version: 6.00 Build 0)  -->
<svg version="1.1" id="Layer_1" xmlns="http://www.w3.org/2000/svg" xmlns:xlink="http://www.w3.org/1999/xlink" x="0px" y="0px"
	 viewBox="0 0 150 70" style="enable-background:new 0 0 150 70;" xml:space="preserve">
<style type="text/css">
	.st0{fill:#030303;}
	.st1{fill:#020202;}
	.st2{fill:#030302;}
	.st3{fill:#040404;}
	.st4{fill:#060606;}
	.st5{fill:#070606;}
	.st6{fill:#070707;}
	.st7{fill:#080707;}
	.st8{fill:#080808;}
	.st9{fill:#0D0C0C;}
	.st10{fill:#090808;}
	.st11{fill:#0F0E0E;}
	.st12{fill:#056666;}
	.st13{fill:#056261;}
	.st14{fill:#056464;}
	.st15{fill:#066869;}
	.st16{fill:#056868;}
	.st17{fill:#063838;}
	.st18{fill:#046464;}
	.st19{fill:#044040;}
	.st20{fill:#066969;}
	.st21{fill:#1E1D1D;}
	.st22{fill:#052E2E;}
	.st23{fill:#033D3D;}
	.st24{fill:#066A6B;}
	.st25{fill:#054242;}
	.st26{fill:#087777;}
	.st27{fill:#044444;}
	.st28{fill:#067575;}
	.st29{fill:#044747;}
	.st30{fill:#086D6D;}
	.st31{fill:#0F7272;}
	.st32{fill:#1A8586;}
	.st33{fill:#0B6666;}
	.st34{fill:#056F6F;}
	.st35{fill:#053A3A;}
	.st36{fill:#0A4B4B;}
	.st37{fill:#097272;}
	.st38{fill:#097373;}
	.st39{fill:#0B4D4D;}
	.st40{fill:#6A6767;}
	.st41{fill:#A29F9F;}
	.st42{fill:#373535;}
	.st43{fill:#FCFCFC;}
	.st44{fill:#F4F3F3;}
	.st45{fill:#FEFEFE;}
	.st46{fill:#F9F9F9;}
	.st47{fill:#071616;}
	.st48{fill:#015353;}
	.st49{fill:#014F4F;}
	.st50{fill:#071F1F;}
	.st51{fill:#061B1A;}
	.st52{fill:#035F5F;}
	.st53{fill:#088181;}
	.st54{fill:#017E7E;}
	.st55{fill:#033433;}
	.st56{fill:#065354;}
	.st57{fill:#072424;}
	.st58{fill:#087A7A;}
	.st59{fill:#017C7B;}
	.st60{fill:#035656;}
	.st61{fill:#025455;}
	.st62{fill:#005252;}
	.st63{fill:#015050;}
</style>
<g>
	<path class="st0" d="M93.4,55.1c-3.2,0.1-3.2,0.1-3.2-3c0-3.9,0-7.7,0-11.6c0-1,0.3-1.4,1.4-1.4c4.1,0,4.1-0.1,5.4,3.8
		c0.8,2.4,1.6,4.8,2.5,7.3c1.2-3.4,2.3-6.5,3.3-9.7c0.3-1.1,0.8-1.4,1.9-1.4c3.8,0,3.8,0,3.8,3.9c0,3.5-0.1,7,0,10.4
		c0,1.4-0.4,1.8-1.7,1.6c-0.6-0.1-1.2-0.1-1.8-0.1c-0.4-3.2-0.1-6.3-0.2-9.5c0-0.5,0.1-1.1-0.1-1.6c0,0-0.1,0-0.1,0
		c-0.1,0.1-0.1,0.2-0.2,0.2c-1.1,3.3-2.3,6.6-3.3,10c-0.4,1.1-1.1,0.9-1.9,0.9c-0.8,0-1.5,0.2-1.9-0.9c-1-3.1-2.2-6.2-3.3-9.3
		c-0.4-0.4-0.5-0.8-0.5-1.3c0,0.2,0,0.3,0,0.5C93.4,47.7,93.8,51.4,93.4,55.1z"/>
	<path class="st1" d="M60.4,39.3c1,0,1.9-0.1,2.9,0c4.1,0.3,6.5,2.4,7.1,6.2c0.6,4.3-1.3,7.8-5,9.1c-2.8,1-5.8,0.4-8.6,0.6
		c-0.7,0-0.6-0.5-0.6-0.9c0-4.7,0-9.3,0-14c0-0.8,0.2-1.1,1-1C58.3,39.3,59.3,39.3,60.4,39.3C60.4,39.3,60.4,39.3,60.4,39.3z"/>
	<path class="st2" d="M123.9,50.8c0.5,1.2,1,2.3,1.5,3.7c1.5-2.4,3-4.6,4.4-6.8c0.4-0.6,0-1-0.2-1.5c-1.1-1.9-2.2-3.9-3.4-5.8
		c-0.6-1-0.3-1.1,0.7-1.2c2.3-0.3,3.8,0.4,4.4,2.7c0.3,1,0.9,1.9,1.4,3c0.7-1.4,1.5-2.6,2.1-4c0.5-1.3,1.3-1.8,2.7-1.6
		c0.7,0.1,1.4-0.1,2.2,0.2c-1.3,2.2-2.6,4.3-3.9,6.4c-0.6,0.9-0.6,1.5,0,2.4c1.4,2.1,2.7,4.3,4.2,6.8c-1.5,0-2.7,0-3.9,0
		c-0.6,0-0.8-0.5-1-0.9c-0.8-1.5-1.6-3-2.6-4.7c-0.8,1.5-1.6,2.7-2.2,4.1c-0.5,1.3-1.4,1.7-2.7,1.6c-1.6-0.1-3.2-0.1-4.8,0
		c-1,0-1.6-0.2-1.7-1.2c-0.2-2-1.4-2.7-3.3-2.3c-0.3,0.1-0.7,0.1-1,0c-1.4-0.3-2.3,0.2-2.7,1.7c-0.6-1.4-0.2-2.2,1.1-2.4
		c1.5-0.2,3-0.1,4.5,0c0.8,0.1,1.3,0.6,1.6,1.4c0.2,0.5,0.3,1,0.6,1.5c0.4,0.6,1,0.7,1.6,0.4c0.6-0.3,0.3-0.8,0.2-1.3
		C123.7,52.2,123.2,51.5,123.9,50.8z"/>
	<path class="st1" d="M123.9,50.8c-0.1,0.8,0.4,1.5,0.5,2.3c0.1,0.5,0.9,1.3-0.1,1.6c-0.8,0.2-2.4,0.6-2.6-0.5
		c-0.5-3.8-3.3-2.9-5.6-3c-1.6-0.1-2.1,0.6-1.9,2.1c0,1.5-0.8,2-2.2,1.8c-0.7-0.1-1.4,0-2.3,0c0.6-1.6,1.1-3.1,1.6-4.5
		c1.2-3.4,2.5-6.8,3.7-10.2c0.3-0.9,0.8-1.2,1.7-1.2c3.1,0,3.1,0,4.1,2.8C121.9,45,122.9,47.9,123.9,50.8z"/>
	<path class="st0" d="M71.9,51.2c1.4,0.8,2.9,1.5,4.5,1.3c0.9-0.1,1.9-0.1,2.2-1.2c0.3-1.1-0.6-1.6-1.5-2c-1-0.5-2.1-0.9-3.1-1.5
		c-1.8-1-2.8-2.5-2.5-4.6c0.3-2.1,1.6-3.2,3.5-3.8c1.6-0.5,3.2-0.4,4.8-0.3c1.5,0.1,2.3,0.6,2,2.3c-0.1,0.4,0,0.8,0,1.4
		c-1.5-0.5-2.8-1.1-4.3-0.9c-0.9,0.1-1.8,0.2-2.1,1.2c-0.3,1.1,0.6,1.5,1.3,1.9c1,0.6,2.2,1,3.2,1.5c2,1.1,2.8,2.8,2.5,4.8
		c-0.3,2.1-1.7,3.2-3.7,3.7c-1.7,0.4-3.4,0.3-5.1,0.1c-1.6-0.2-2.4-0.9-2.1-2.6C71.7,52.2,71.5,51.7,71.9,51.2z"/>
	<path class="st3" d="M50.7,46.8c2.5,1.3,3.2,2.5,2.9,4.6c-0.3,1.9-1.7,3.3-4,3.8c-1.3,0.3-2.7,0.3-4,0.1c-2.1-0.3-2.3-0.7-2.2-2.8
		c0.1-0.9,0.3-0.8,1-0.5c1.1,0.6,2.3,0.8,3.6,0.6c1.1-0.1,2-0.7,2-1.9c0.1-1.1-0.6-1.8-1.7-2c-0.5-0.1-1.1-0.3-1.6-0.2
		c-1,0.1-1.7,0-1.6-1.4c0-1.3,0.5-1.5,1.6-1.5c0.5,0,1.1-0.1,1.6-0.2c0.9-0.3,1.3-0.9,1.2-1.8c0-0.9-0.6-1.4-1.5-1.6
		c-0.7-0.2-1.4-0.1-2.1,0.1c-0.6,0.2-1.2,0.4-1.8,0.6c-0.4-2.9-0.1-3.3,2.6-3.5c1.2-0.1,2.4-0.1,3.5,0.2c1.6,0.5,2.7,1.5,3,3.2
		c0.2,1.7-0.4,3.1-1.9,3.9C51.1,46.5,50.9,46.7,50.7,46.8z"/>
	<path class="st4" d="M84,23.3c0.1-6.5,4.3-10,9.6-8.6c0.2,0.1,0.4,0.1,0.6,0.2c4.1,1.5,5.9,6.8,3.8,11.5c-1.7,3.8-6.5,5.4-10.3,3.3
		C84.9,28.1,84,25.5,84,23.3z"/>
	<path class="st5" d="M101.1,22.3c0-2.1,0-4.3,0-6.4c0-0.9,0.2-1.4,1.2-1.3c1.8,0.1,3.6-0.1,5.3,0.2c3.9,0.7,5.9,2.8,6.1,6.6
		c0.2,4.2-1.7,7.3-5.3,8.4c-2.2,0.7-4.4,0.4-6.6,0.4c-0.8,0-0.8-0.6-0.8-1.1C101.2,26.8,101.1,24.6,101.1,22.3z"/>
	<path class="st6" d="M56.6,30.2c-0.9,0.2-1.2-0.3-1.5-1.1c-1.3-3.2-1.3-3.2-4.8-3.2c-0.1,0-0.1,0-0.2,0c-2.7,0-2.7,0-3.6,2.6
		c-0.1,0.4-0.3,0.8-0.4,1.2c-0.4,0.9-1.3,0.6-1.8,0.4c-0.7-0.2-0.1-0.8,0-1.2c1.7-4.4,3.4-8.8,5.1-13.2c0.3-0.8,0.6-1.1,1.5-1.1
		c0.8,0,1.1,0.4,1.3,1.1c1.7,4.5,3.4,8.9,5.2,13.3C57.5,29.8,57.7,30.3,56.6,30.2z"/>
	<path class="st7" d="M70.8,20.7c-0.1,1.7,0.2,3.6-0.3,5.6c-0.7,2.9-2.7,4.2-6,4.1c-3-0.1-4.8-1.5-5.2-4.5
		c-0.4-3.5-0.1-7.1-0.2-10.6c0-0.9,0.6-0.7,1.1-0.8c0.8-0.1,0.9,0.4,0.9,1c0,2.9,0,5.9,0,8.8c0,1.7,0.5,3.3,2.4,4
		c2.7,0.9,4.9-0.4,5.3-3.2c0.1-0.6,0.1-1.2,0.1-1.8c0-2.6,0-5.1,0-7.7c0-0.8,0.1-1.2,1-1.2c0.9,0,0.9,0.4,0.9,1.1
		C70.7,17.3,70.8,18.8,70.8,20.7z"/>
	<path class="st8" d="M140,21.8c1.9-2.2,3.5-4,5-5.8c1.2-1.4,1.2-1.4,3.4-1.2c-1.9,2.1-3.5,4.1-5.4,5.9c-1.1,1.1-1.1,1.8,0,2.9
		c2,2,3.8,4.2,5.7,6.4c-1.6,0.4-2.7,0.2-3.7-1.1c-1.5-2-3.3-3.9-5.2-6.2c0,2.4,0,4.4,0,6.3c0,0.8-0.2,1.2-1.1,1.2
		c-0.9,0-0.9-0.5-0.9-1.1c0-4.4,0-8.9,0-13.3c0-0.8,0.2-1.1,1.1-1.1c0.9,0,0.9,0.5,0.9,1.1C140,17.6,140,19.5,140,21.8z"/>
	<path class="st9" d="M116.1,22.2c0-2.1,0-4.2,0-6.3c0-0.9,0.2-1.3,1.2-1.3c1.9,0.1,3.9,0,5.8,0c0.6,0,1,0,1,0.8c0,0.8-0.3,1-1,1
		c-1.3,0-2.7,0-4,0c-0.8,0-1,0.2-1,1c-0.2,4-0.2,4,3.7,4c0.4,0,0.8,0,1.1,0c0.6,0,0.9,0.2,0.9,0.8c0,0.7-0.2,1-0.9,1
		c-1.1,0-2.3,0.1-3.4,0c-1-0.1-1.4,0.2-1.4,1.3c0,3.9,0,3.9,3.9,3.9c0.5,0,1.1,0,1.6,0c0.7,0,0.9,0.2,0.9,0.9c0,0.6-0.2,0.8-0.9,0.8
		c-2.2,0-4.4,0-6.6,0c-0.8,0-0.9-0.4-0.9-1.1C116.1,26.8,116.1,24.5,116.1,22.2z"/>
	<path class="st10" d="M126.3,27.5c1.5,0.8,3.1,1.4,4.8,1.2c1.1-0.1,2.2-0.4,2.5-1.7c0.3-1.3-0.3-2.2-1.4-2.8
		c-1.3-0.7-2.6-1.4-3.8-2.1c-1.6-0.9-2.5-2.3-2.1-4.1c0.3-1.8,1.6-2.7,3.2-3.2c1.5-0.5,3.1-0.4,4.6-0.1c1.2,0.2,1.2,1.1,1,1.8
		c-0.3,1.1-0.9,0.1-1.4,0c-1.3-0.3-2.7-0.5-4,0c-1.7,0.7-2.1,2.5-0.6,3.7c0.8,0.7,1.9,1.1,2.8,1.6c0.7,0.4,1.5,0.8,2.2,1.4
		c1.3,1,1.9,2.3,1.5,4c-0.4,1.6-1.4,2.6-3,3c-1.5,0.4-3.1,0.3-4.6,0.1C126.3,30,125.8,29.1,126.3,27.5z"/>
	<path class="st11" d="M76.9,23.2c0-1.8-0.1-3.6,0-5.5c0-1-0.2-1.4-1.2-1.3c-0.7,0.1-1.5,0-2.3,0c-0.8,0-1-0.3-1-1
		c0-0.8,0.5-0.8,1.1-0.8c3,0,5.9,0,8.9,0c0.6,0,1,0.1,1,0.9c0,0.8-0.4,0.9-1.1,1c-1.1,0.1-2.7-0.5-3.2,0.3c-0.6,0.8-0.2,2.3-0.2,3.4
		c0,2.9,0,5.9,0,8.8c0,0.7-0.1,1.2-1,1.2c-1,0-1-0.6-1-1.2C76.9,27,76.9,25.1,76.9,23.2z"/>
	<path class="st12" d="M12.3,43.5c-0.8-1.4-2.2-2.2-3.4-3.3c-1.6-1.5-3.2-3-4.9-4.4c-1-0.8-1.1-1.4,0-2.1c0.4-0.2,0.8-0.6,1.1-0.9
		c1.9,0.4,3.2,1.7,4.4,3c1.1,1.3,2.6,2.2,3.7,3.5c0.5,0.6,1.5,1,2.4,0.5c1-0.6,0.4-1.6,0.5-2.5c0.2-0.6-0.3-1.5,0.9-1.5
		c0.7,1.5,0.2,3,0.3,4.5c0,0.4,0,0.7-0.1,1.1c0,0.2-0.1,0.3-0.2,0.5c-1.1,0.8-2.5,1.1-3.8,1.6C12.9,43.6,12.6,43.7,12.3,43.5z"/>
	<path class="st13" d="M32,25.9c1.6,2.6,3,5.2,4.3,8c-0.1,0.1-0.2,0.2-0.4,0.2c-0.3,0-0.6-0.1-0.9-0.2c-1.1-0.7-2.4-1-3.1-2.3
		c0.6-2.1,0.4-2.6-2-4c-2.9-1.8-5.8-3.5-8.4-5.6c-0.7-0.5-1.4-1-1.8-1.8c-0.1-0.2-0.1-0.3,0-0.5c0.6-0.8,1.1-1.8,2.4-1.8
		c1.8,2,3.9,3.7,6.3,5.2c0.5,0.3,1,0.7,1.6,0.8C30.9,24.1,31.4,25,32,25.9z"/>
	<path class="st14" d="M5.7,54.9c-0.7-1-1.2-2.1-1.6-3.2c-0.1-1.6,1.2-1.4,2-1.4c1.7,0.1,3.4,0,5.1,0.1c3.1,0,6,0.9,9.1,0.8
		c0.3,0,0.5,0,0.8,0c0.2,0,0.3,0,0.5,0.1c1.3,0.8,2.8,1.3,2.9,3.1c-0.2,0.2-0.4,0.2-0.6,0.2c-2.8-1.1-5.7-0.9-8.6-1.1
		c-1.9-0.2-3.9,0-5.7,0.7c-1.1,0.4-2.3,0.6-3.5,0.7C6,54.8,5.9,54.9,5.7,54.9z"/>
	<path class="st15" d="M20.6,51.6c-3.3,0.1-6.6-0.9-9.9-0.8c-1.9,0.1-3.9-0.6-5.8,0.1c-0.4,0.1-0.8,0.2-0.9,0.8
		c-0.7-1-1.2-2.1-1.6-3.3c-0.3-1.2,0.6-1,1.2-1.1c2.4-0.2,4.8,0.4,7.1,1c2.4,0.6,4.8,1.5,7.3,1.9C19.1,50.4,20.2,50.4,20.6,51.6z"/>
	<path class="st16" d="M16.4,37.8c0,1.3,0.4,3-1.7,2.8c-0.8-0.1-2.3,0.1-2.5-1.6c0-0.4-1.2-0.6-1.6-1.1c-1.6-2-3.6-3.5-5.7-4.9
		c0.4-0.8,1.3-1,1.8-1.7c1.8,0.5,3,1.9,4.4,3C13,35.5,14.4,37.2,16.4,37.8z"/>
	<path class="st17" d="M12.5,26.2C9.3,25,6,23.9,2.8,22.7c0.4-1,1.3-0.8,2-0.8c3.1,0.1,6.2,0,9.4,0c0.8,0,1.7-0.1,2.5,0.1
		c0.2,0.1,0.3,0.2,0.4,0.3c0.1,0.2,0,0.3-0.1,0.5c-1.5,1.1-2.7,2.4-4.1,3.5C12.8,26.4,12.6,26.3,12.5,26.2z"/>
	<path class="st18" d="M32,25.9c-1.2-1.7-3.3-1.9-4.9-3c-1.5-1.1-2.9-2.3-4.4-3.4c-0.4-0.3-0.5-0.9-0.8-1.3
		c-0.1-0.5,0.3-0.8,0.5-1.2c0.3-0.3,0.7-0.6,1.2-0.6c2.3,1.5,4.9,2.5,6.1,5.3C30.6,23,31.4,24.4,32,25.9z"/>
	<path class="st19" d="M28.1,51.1c-0.3,0.3-0.2,0.8-0.6,0.9c-2.4-1.1-4.2-2.9-6.3-4.3c-0.8-0.6-1.1-1.5-1.1-2.5
		c0.7-1.1,1.8-1.8,3.2-2c0.6,2.4,2.9,3.5,4.4,5.1C28.7,49.4,28.7,50.1,28.1,51.1z"/>
	<path class="st20" d="M20.6,51.6c-1.3-0.7-2.7-0.8-4-1.1c-1.9-0.5-3.9-1.1-5.8-1.7c-2.4-0.8-5-1.2-7.6-1c-0.5,0-0.7,0.3-0.7,0.7
		c-0.2-0.5-1.1-0.9,0-1.4c4.6-0.1,9.2-0.1,13.8,0c2.4,0.8,4.1,2.3,5.1,4.6C21.1,51.6,20.9,51.6,20.6,51.6z"/>
	<path class="st21" d="M39.4,14.4c0,13.5,0,27.1,0,40.6c-0.1,0-0.2,0-0.3,0c0-13.5,0-27.1,0-40.6C39.2,14.4,39.3,14.4,39.4,14.4z"/>
	<path class="st22" d="M12.3,43.5c0.2-0.1,0.4-0.2,0.6-0.3c1.1,0.9,2,2,3.1,2.9c0.3,0.2,0.7,0.6,0.4,1.1c-0.2,0.1-0.4,0.1-0.5,0.1
		c-3.8,0-7.6,0-11.4,0c-0.5,0-1.1,0.4-1.3-0.4C6.2,45.7,9.2,44.6,12.3,43.5z"/>
	<path class="st23" d="M21.3,51.6c-1.3-1.6-2.7-3.1-4.5-4.2c-0.1-0.1-0.1-0.2-0.1-0.3c0-0.1,0-0.1,0.1-0.1c1.1-0.8,2-1.9,3.6-1.8
		c0.2,1.5,1.2,2.3,2.4,3.2c1.6,1.2,3.5,2.1,4.8,3.7c0.1,0.4,0,0.7-0.3,0.9c-1.8-0.6-3.5-1.6-5.5-1.4C21.5,51.6,21.4,51.6,21.3,51.6z
		"/>
	<path class="st24" d="M16.4,37.8c-2.5,0.3-3.4-1.9-5-3c-1.6-1.1-3-2.3-4.5-3.5c0.4-0.5,0.8-0.9,1.4-1.2c1.5,0,2.4,1.2,3.5,1.9
		c0.7,0.4,1.1,1.1,1.8,1.6c0.5,0.4,1.1,1,1.9,0.7c0.9-0.3,0.5-1.2,0.6-1.8c0-0.5,0-1.1,0.5-1.5c0.2,0,0.4,0.1,0.5,0.2
		c0.3,1.6,0.6,3.1-0.2,4.7C16.2,36.4,16.5,37.1,16.4,37.8z"/>
	<path class="st25" d="M28.1,51.1c0.7-2.6-1.7-3.3-3-4.6c-0.9-1-2.1-1.7-1.9-3.3c0.2-0.8,0.8-1.1,1.6-1.1c1.9,1.4,3.3,3.4,5.2,4.7
		c0.2,0.1,0.1,0.4,0,0.6C29.6,48.8,28.9,50,28.1,51.1z"/>
	<path class="st26" d="M5.1,15.9c0.1-0.5,0.3-0.9,0.6-1.3c0.2-0.2,0.4-0.1,0.7-0.1c2.1,2.3,4.6,4.2,6.9,6.3c1,0.9,0.4,1.2-0.5,1.4
		c-1.2,0-2.3,0-3.5,0c-0.8-0.8,0.2-0.6,0.4-0.8C9,20.3,8,19.5,7,18.7C6.1,18,5.1,17.3,5.1,15.9z"/>
	<path class="st27" d="M30,47.5c-1.7-1.7-3.7-3.2-5.2-5.2c0.4-1,1.2-1.5,2.3-1.5c1.4,0.8,2.6,1.9,3.8,2.9c0.4,0.3,0.7,0.7,0.4,1.2
		C31.1,45.9,30.7,46.7,30,47.5z"/>
	<path class="st28" d="M5.1,15.9c0.7,1.6,2.2,2.5,3.4,3.6c0.7,0.6,1.4,1.1,2.1,1.7C10,21.9,9.3,21.4,9,22c-1.1,0.3-2.3,0.1-3.5,0.1
		c0.8-1.9-1.2-2.2-1.7-3.4C4.2,17.8,4.7,16.9,5.1,15.9z"/>
	<path class="st29" d="M31.4,45c-0.7-1.4-2.1-2-3.1-2.9c-0.4-0.3-0.9-0.6-1.1-1.1c0.5-1.3,1.7-1.8,2.9-2c0.9,0.5,1.6,1.2,2.5,1.8
		c0.4,0.3,0.8,0.6,0.4,1.2C32.5,42.9,32.1,44.1,31.4,45z"/>
	<path class="st30" d="M16.4,32.6c-0.1,0.7,0.4,1.7-0.7,2.1c-1,0.4-1.7-0.1-2.3-0.7c-1.5-1.5-3.2-2.8-5.1-3.9c0.4-0.6,0.9-1,1.5-1.3
		c0.6-0.2,0.9,0.2,1.2,0.5C12.6,30.8,14.1,32.3,16.4,32.6z"/>
	<path class="st31" d="M3.7,18.8c1.4,0.2,1.9,1.5,2.7,2.3c0.6,0.6-0.6,0.4-0.7,0.9c1.1,0,2.2,0,3.2,0c1.4,0,2.8,0,4.2,0
		c0.4-0.2,0.8-0.3,1.2-0.1c0.2,0.1,0.2,0.3,0.1,0.4c-3.3,0-6.7,0-10,0c-0.6,0-1.2-0.2-1.7,0.3c-0.9,0-0.8-0.4-0.5-1
		C2.8,20.7,3.3,19.7,3.7,18.8z"/>
	<path class="st32" d="M6.4,14.6c-0.2,0-0.4,0-0.7,0c0.1-0.3,0.4-0.3,0.7-0.3c6.1,0,12.2,0.1,18.3,0.1c0.3,0,0.5,0.1,0.8,0.1
		c0,1.3-1.1,1.5-2,1.9c-0.3,0.2-0.6,0.4-1,0.7c-2.1-2.6-5.1-1.9-7.9-2.1c-0.9,0-1.9,0-2.8,0c-1.1,0.1-2.1,0-3.2,0
		C7.9,15.1,7.1,15.1,6.4,14.6z"/>
	<path class="st33" d="M23.5,16.5c0.4-0.9,1.6-1,2-1.9c0.4-0.1,0.6,0.1,0.8,0.4c1.2,2.2,2.3,4.4,3.5,6.7
		C28.3,19.2,25.6,18.3,23.5,16.5z"/>
	<path class="st34" d="M16.4,32.6c-1.8,0.3-3.1-0.4-4.2-1.7c-0.7-0.8-1.4-1.6-2.3-2.2c0.1-0.3,0.4-0.5,0.7-0.6
		c0.6-0.2,1,0.1,1.4,0.4c1.3,1,2.6,2.1,4.5,1.8c0.1,0.2,0.1,0.4-0.1,0.6C16.4,31.6,16.4,32.1,16.4,32.6z"/>
	<path class="st35" d="M21.6,51.6c0.1-0.2,0.2-0.4,0.3-0.5c1-0.3,4.6,1,5.2,1.9c0,0.8-0.9,1.2-1,1.9C25.9,55,25.6,55,25.3,55
		c-0.4-0.1-0.6-0.4-0.7-0.8C23.8,53.1,22.7,52.3,21.6,51.6z"/>
	<path class="st36" d="M32.9,41.9c-0.2-1-1.1-1.1-1.7-1.6c-0.5-0.4-0.9-0.7-1.2-1.3c0.5-1.2,1.5-1.6,2.7-1.7c0.6,0.5,2-0.1,1.8,1.4
		C33.7,39.6,33.9,41,32.9,41.9z"/>
	<path class="st37" d="M16.4,30.4c-1,0.6-2,0.5-2.9-0.3c-0.9-0.7-1.9-1.3-2.9-2c0.2-0.4,0.6-0.7,1-0.9c0.5-0.5,1-0.5,1.4,0.2
		c0.8,1.2,1.9,1.7,3.4,1.3c0.2,0.1,0.4,0.2,0.4,0.5C16.9,29.6,16.8,30,16.4,30.4z"/>
	<path class="st38" d="M16.5,28.8c-1.5,0.6-2.7,0.3-3.6-1.1c-0.4-0.6-0.7-0.7-1.2-0.5c0.3-0.3,0.6-0.6,0.9-1c0.1,0,0.2,0,0.4,0
		c1.3,0,2.4,0.6,3.6,1c0.2,0.1,0.4,0.3,0.5,0.5C17,28.2,16.8,28.5,16.5,28.8z"/>
	<path class="st39" d="M34.6,38.7c-0.1-1.2-1.7-0.2-1.9-1.3c0.2-1.2,1.5-1.3,2.3-1.9c0.3-0.2,0.6-0.3,0.8-0.6c0-0.1,0-0.2,0.1-0.4
		c0-0.2-0.1-0.5,0.1-0.7c0.1,0,0.3,0,0.4,0c0.3,0.3,0.7,0.7,0.4,1.2C36,36.3,35.6,37.7,34.6,38.7z"/>
	<path class="st14" d="M25.2,54.8c0.3,0,0.6,0,0.9,0.1c-0.1,0.4-0.5,0.3-0.8,0.3c-6.3,0-12.5,0-18.8,0c-0.3,0-0.7,0.1-0.9-0.3
		c0.1,0,0.1-0.1,0.2-0.1c6.2-0.7,12.5-0.7,18.7-0.2C24.8,54.6,25,54.7,25.2,54.8z"/>
	<path class="st15" d="M16.7,47.1c0,0.1,0,0.2,0.1,0.3c-4.2,0-8.4,0-12.7,0c-0.6,0-1.2,0.2-1.6-0.4c0.2-0.3,0.4-0.3,0.7-0.2
		c0.3,0.4,0.8,0.3,1.2,0.3c4,0,8.1,0,12.1,0C16.6,47,16.7,47,16.7,47.1z"/>
	<path class="st40" d="M104.5,44.3c-0.1-0.5,0.2-0.9,0.6-1.7c0,4.5,0,8.5,0,12.6c-0.7-0.3-0.3-0.9-0.3-1.4c0-2.6,0-5.2,0-7.8
		C104.7,45.4,104.9,44.8,104.5,44.3z"/>
	<path class="st41" d="M93.4,55.1c0-4,0-7.9,0-11.9c0.1-0.1,0.2-0.1,0.3,0c0.1,0.5,0.2,1.1,0.3,1.6c-0.6,2.5-0.1,5-0.3,7.4
		C93.7,53.2,94.2,54.3,93.4,55.1z"/>
	<path class="st42" d="M93.7,43.3l-0.1,0c0,0-0.1,0-0.1,0c-0.2-0.2-0.4-0.4-0.2-0.6c0-0.1,0.3-0.2,0.3-0.2
		C93.8,42.7,93.7,43,93.7,43.3z"/>
	<path class="st43" d="M59.9,47.1c0-0.9,0-1.8,0-2.7c0-2.2,0-2.2,2.2-2.1c3.1,0.2,4.9,2.5,4.4,5.8c-0.5,2.9-3.1,4.7-5.9,4.1
		c-0.7-0.2-0.6-0.6-0.6-1.1C59.9,49.8,59.9,48.4,59.9,47.1z"/>
	<path class="st44" d="M117.5,42.8c0.6,1.9,1.2,3.6,1.7,5.2c0.2,0.5,0.1,0.7-0.5,0.8c-2.9,0.4-3.2,0.1-2.3-2.6
		C116.7,45.2,117.1,44.1,117.5,42.8z"/>
	<path class="st45" d="M96.7,22.4c0,4-2,6.4-5.5,6.3c-0.6,0-1.3-0.1-1.9-0.4c-2.6-1-3.9-4.3-3.2-7.6c0.7-3,2.8-4.7,5.7-4.5
		C94.9,16.3,96.7,18.6,96.7,22.4z"/>
	<path class="st45" d="M103.1,22.4c0-1.7,0-3.3,0-5c0-0.7,0.2-1,0.9-1c1.1,0.1,2.2,0,3.2,0.1c2.7,0.4,4.2,2.1,4.5,5
		c0.3,3.1-1.1,5.6-3.7,6.4c-0.2,0.1-0.4,0.1-0.6,0.2c-3.8,0.9-4.3,0.6-4.3-3.2C103.1,24.1,103.1,23.2,103.1,22.4z"/>
	<path class="st46" d="M50.6,17.1c0.9,2.3,1.6,4.2,2.3,6.2c0.2,0.6,0.1,0.9-0.6,0.9c-0.1,0-0.1,0-0.2,0c-4.2,0.3-4.2,0.3-2.8-3.7
		C49.8,19.4,50.2,18.4,50.6,17.1z"/>
	<path class="st47" d="M16.7,47.1c-0.1,0-0.2,0-0.3-0.1c0-0.1,0-0.2,0-0.3c-0.3-1.2-0.1-2.3-0.3-3.5c-0.1-0.6,0.2-1,0.7-1.4
		c0-0.1,0-0.2,0-0.2c0.7-0.7,1.7-0.8,2.6-1.2c1.3-0.4,2.6-0.8,3.8-1.3c1.5-0.5,3-1,4.4-1.6c0.6-0.3,1.2-0.5,1.8-0.7
		c1.2-0.2,2.4-0.8,3.6-1.2c0.5-0.2,1.1-0.4,1.7-0.4c0.3,0.1,0.7,0.1,0.6,0.6c-0.9,0.5-1.8,0.9-2.6,1.6c-0.9,0.5-1.7,1.1-2.6,1.6
		c-1.1,0.5-2,1.2-2.9,1.9c-0.9,0.2-1.5,0.9-2.3,1.3c-0.5,0.3-1.1,0.6-1.6,1c-0.9,0.7-2.1,1.1-2.9,1.9C19.1,45.8,17.9,46.5,16.7,47.1
		z"/>
	<path class="st48" d="M29.4,37.1c-0.5,0.2-1.1,0.4-1.6,0.6c-0.4,0.2-0.6-0.1-0.8-0.4c-1-1.8-2.7-2.5-4.5-3.1
		c-0.6-0.2-1.2-0.4-1.7-0.9c-1.1-1.1-2.5-1.8-3.6-2.8c0-0.2,0-0.5,0-0.7c0,0.2,0,0.4,0,0.6c0.3,0.9,0.3,1.9,0.3,2.8
		c0,1.9,0.1,3.8,0,5.7c0,0.6,0.2,1.4-0.8,1.7c0-1.6,0-3.2,0-4.8c0-1.6,0-3.2,0-4.8c-0.2-0.6-0.2-1.3,0-1.9c-0.1-0.1-0.2-0.2-0.3-0.3
		c0.1-0.3,0.2-0.6,0.3-1c1.7-0.1,3.2,0.4,4.6,1.4c-0.1,1.3,1,1.6,1.9,1.9c0.3,0.1,0.9-0.1,1.1,0.3c1.2,2,3.6,2.6,5,4.4
		C29.6,36.1,30.1,36.6,29.4,37.1z"/>
	<path class="st49" d="M16.8,40.7c0.7-1.4,0.2-2.9,0.3-4.4c0.1-1.1,0-2.2,0-3.4c0.2-0.1,0.3-0.1,0.4,0c0.2,0.3,0.3,0.6,0.3,0.9
		c-0.3,1.8,0.9,2.8,1.9,3.8c1.8,1.9,1.8,1.9-0.3,3c-0.8,0.6-1.7,0.8-2.6,1C16.8,41.3,16.8,41,16.8,40.7z"/>
	<path class="st50" d="M16.8,41.9c-0.4,0.7-0.3,1.5-0.1,2.3c0.2,0.8,0.2,1.8-0.2,2.6c-1.4-1-2.9-1.8-3.6-3.5
		C14.2,42.8,15.5,42.4,16.8,41.9z"/>
	<path class="st51" d="M21.3,29.4c-1.4-0.8-3-1-4.5-1.6c-0.1-0.1-0.2-0.2-0.3-0.3c-1-1.7-0.1-3.2,0.3-4.8c0.1,0,0.2,0,0.3,0
		c0.8-0.2,1.3,0.3,1.9,0.6c3.9,2.4,7.9,4.8,11.8,7.2c0.5,0.3,0.9,0.6,1.1,1.1c1.1,0.7,2.1,1.3,3.2,2c0.1,0.3-0.1,0.4-0.4,0.5
		c-0.6,0.1-1.1-0.2-1.7-0.3c-3.6-1.2-7.2-2.6-10.8-3.7C21.9,30,21.5,29.9,21.3,29.4z"/>
	<path class="st52" d="M32,31.6c-5-3-9.9-6-14.9-9c0-0.1,0-0.2,0-0.3C17,22.2,16.9,22.1,17,22c0.2-0.5,0.6-0.8,1-1.1
		c0.5-0.3,0.9-0.9,1.7-0.8c3.3,2.8,6.9,5,10.6,7.3c0.9,0.6,2.4,1.1,2.4,2.7C32.6,30.7,32.5,31.2,32,31.6z"/>
	<path class="st53" d="M14.8,14.6c1.9-0.2,3.8,0.4,5.7,0.3c1.5,0,1.5,1.3,2.1,2.2c-0.2,0.3-0.4,0.6-0.7,1c-1,0.2-1.4,1.2-2.2,1.6
		c-1.2-1.4-2.7-2.4-4.1-3.6C15.1,15.8,14.4,15.5,14.8,14.6z"/>
	<path class="st54" d="M14.8,14.6c0.2,1.3,1.6,1.5,2.3,2.3c0.5,0.6,1.3,1.2,2,1.6c0.6,0.3,0.6,0.7,0.6,1.2c0,0.1,0,0.2,0,0.3
		c-0.5,0.3-1,0.7-1.6,1c-1.9-1.7-4.1-3.1-5.8-5c-0.3-0.4-0.8-0.8-0.4-1.4C12.9,14.6,13.9,14.6,14.8,14.6z"/>
	<path class="st55" d="M34.9,33.9c0.1-0.1,0.2-0.2,0.3-0.3c0.2,0.1,0.4,0.2,0.7,0.3c0.1,0.2,0.2,0.4,0.3,0.6
		C35.5,34.9,35,34.7,34.9,33.9z"/>
	<path class="st56" d="M25.2,54.8c-6.4,0-12.9,0-19.3,0c6-2.3,12.1-2.4,18.3-0.5c0.1,0,0.3-0.1,0.4-0.1C24.8,54.4,25,54.6,25.2,54.8
		z"/>
	<path class="st57" d="M16.8,22.7c0.2,1.6-0.7,3.2-0.3,4.8c-1.2-0.3-2.4-0.6-3.6-1.3C13.9,24.7,15.3,23.7,16.8,22.7z"/>
	<path class="st26" d="M17.1,22c0,0.1,0,0.2,0,0.3c-0.9,0-1.7,0-2.6,0c0-0.1,0-0.2,0-0.3c0.4-0.4,0.8-0.4,1.3-0.4
		C16.3,21.6,16.8,21.6,17.1,22z"/>
	<path class="st30" d="M16.8,29.1c0,0.6,0,1.3,0,1.9c-0.1,0-0.2,0-0.3,0c0-0.2,0-0.4,0-0.6C16.5,29.9,16.3,29.4,16.8,29.1z"/>
	<path class="st58" d="M15.8,22c-0.4,0-0.9,0-1.3,0c-0.4,0-0.9,0-1.3,0c0.2-0.3,0.7-0.4,0.1-1c-1.9-1.5-3.9-3-5.7-4.8
		c-0.5-0.5-0.9-1-1.2-1.7c0.8,0,1.5,0,2.3,0c2.3,2.2,4.8,4.1,7.2,6.1C16.4,21.2,16.9,21.7,15.8,22z"/>
	<path class="st59" d="M15.8,22c0.3-0.3,0.5-0.5,0-0.9c-1.7-1.3-3.3-2.7-4.9-4c-0.9-0.7-1.7-1.4-2.1-2.5c1.1,0,2.2,0,3.2,0
		c0.8,2,2.6,3,4.2,4.2c0.8,0.6,1.5,1.3,2,2.2c-0.2,0.4-0.6,0.7-1,1C16.7,22,16.2,22,15.8,22z"/>
	<path class="st60" d="M34.9,33.9c0.4,0.4,0.8,0.6,1.3,0.6c0,0.1,0,0.2,0,0.3c-0.4,0.6-1.1,0.4-1.6,0.7c-0.5,0.1-1,0.2-1.6,0.4
		c-0.9-1.1-0.7-2.1,0.3-2.3C33.8,33.7,34.3,33.8,34.9,33.9z"/>
	<path class="st55" d="M34.6,35.5c0.5-0.4,1.1-0.5,1.6-0.7c0,0.6-0.5,0.8-1,1C35,35.6,34.8,35.5,34.6,35.5z"/>
	<path class="st61" d="M33.3,33.6c-0.8,0.1-0.7,0.9-0.4,1.1c0.6,0.4-0.2,0.8,0.1,1.2c-1.1,0.6-2.3,1.2-3.6,1.3
		c0-1.6-1.3-2.2-2.3-2.8c-1-0.6-1.9-1.1-2.5-2.1c-0.3-0.4-0.5-0.7-1.2-0.6c-1.2,0-1.9-0.9-2.4-2c0.1-0.1,0.3-0.1,0.4-0.2
		C25.4,30.7,29.4,31.9,33.3,33.6z"/>
	<path class="st62" d="M17.4,33.9c0-0.3,0-0.6,0-1c-0.2-0.8-0.2-1.5,0-2.3c0.5,0.2,1.2,0.3,1.6,0.7c1.6,1.8,3.8,2.6,6,3.5
		c1.4,0.6,2,1.8,2.8,2.9c-1.5,0.7-3,1.3-4.5,1.6c-0.4,0.2-0.9,0.1-0.6-0.4c0.7-0.9-0.1-1.1-0.5-1.7C21,35.6,19.1,34.9,17.4,33.9z"/>
	<path class="st63" d="M17.4,33.9c2.7,0.1,4.1,2.3,5.9,3.9c1.1,1-0.2,1-0.4,1.4c0,0,0,0.1,0.1,0.1c0.1,0,0.2,0,0.3,0.1
		c-1.2,0.7-2.5,1-3.9,1.3c-0.1-1,1.7-0.3,1.3-1.4c-0.3-0.7-1.1-1.1-1.6-1.7C18.2,36.5,16.9,35.6,17.4,33.9z"/>
	<path class="st63" d="M17.4,30.7c0,0.8,0,1.5,0,2.3c-0.1,0-0.2,0-0.3,0c0-1.4,0-2.7,0-4.6C17.6,29.4,17.4,30.1,17.4,30.7z"/>
</g>
</svg>
