<?xml version="1.0" standalone="no"?>
<!DOCTYPE svg PUBLIC "-//W3C//DTD SVG 20010904//EN"
 "http://www.w3.org/TR/2001/REC-SVG-20010904/DTD/svg10.dtd">
<svg version="1.0" xmlns="http://www.w3.org/2000/svg"
 width="625.000000pt" height="292.000000pt" viewBox="0 0 625.000000 292.000000"
 preserveAspectRatio="xMidYMid meet">

<g transform="translate(0.000000,292.000000) scale(0.100000,-0.100000)"
fill="#000000" stroke="none">
<path d="M350 2515 c-6 -19 -15 -35 -18 -35 -4 0 -16 -29 -27 -65 -10 -36 -22
-65 -26 -65 -4 0 -15 -24 -25 -52 -9 -29 -20 -55 -24 -58 -13 -10 -39 -90 -34
-105 5 -13 61 -35 91 -35 6 0 18 -6 25 -13 7 -7 34 -19 61 -26 26 -8 47 -17
47 -20 0 -4 32 -15 70 -25 39 -10 70 -22 70 -25 0 -4 28 -16 63 -26 34 -10 65
-23 69 -29 7 -10 -49 -76 -65 -76 -4 0 -47 -40 -95 -90 -49 -49 -92 -90 -96
-90 -5 0 -44 -35 -87 -77 -43 -43 -89 -87 -103 -98 -30 -23 -34 -51 -8 -59 10
-4 56 -42 103 -86 112 -107 221 -210 291 -274 31 -28 54 -57 50 -62 -4 -5 -36
-19 -72 -29 -36 -10 -67 -22 -70 -25 -3 -4 -26 -13 -52 -21 -27 -7 -48 -16
-48 -20 0 -3 -29 -14 -65 -24 -36 -9 -65 -20 -65 -24 0 -4 -32 -15 -70 -26
-39 -11 -70 -23 -70 -27 0 -4 4 -8 9 -8 5 0 17 -23 27 -50 10 -28 21 -50 24
-50 4 0 15 -27 25 -60 10 -33 21 -60 25 -60 4 0 16 -27 26 -60 11 -33 22 -60
26 -60 3 0 12 -16 18 -35 l12 -35 504 0 504 0 6 25 c3 14 10 25 14 25 4 0 16
23 26 50 10 28 21 50 25 50 3 0 14 21 24 47 10 27 21 50 25 53 3 3 12 25 20
49 8 24 19 49 26 55 6 7 17 28 25 49 7 20 16 37 20 37 3 0 14 21 24 47 10 27
21 50 25 53 4 3 15 26 25 53 10 26 21 47 24 47 4 0 15 23 25 50 10 28 21 50
25 50 4 0 15 22 25 50 10 28 21 50 25 50 4 0 14 18 21 40 7 22 16 40 20 40 4
0 15 21 25 48 10 26 22 49 26 52 17 12 26 55 17 82 -6 16 -13 28 -17 28 -4 0
-15 23 -25 50 -10 28 -21 50 -25 50 -4 0 -14 18 -21 40 -7 22 -17 40 -21 40
-4 0 -15 23 -24 50 -9 28 -20 50 -24 50 -4 0 -15 23 -25 50 -10 28 -21 50 -25
50 -4 0 -15 23 -25 50 -10 28 -21 50 -25 50 -4 0 -15 23 -25 50 -10 28 -21 50
-25 50 -4 0 -14 18 -21 40 -7 22 -16 40 -20 40 -4 0 -15 21 -25 48 -10 26 -21
49 -25 52 -4 3 -15 26 -25 53 -10 26 -21 47 -24 47 -4 0 -15 23 -25 50 -10 28
-22 50 -26 50 -4 0 -11 11 -14 25 l-6 25 -504 0 -504 0 -12 -35z"/>
<path d="M2120 1495 c0 -575 3 -1045 8 -1045 4 0 7 470 7 1045 0 575 -3 1045
-7 1045 -5 0 -8 -470 -8 -1045z"/>
<path d="M2615 2154 c-3 -20 -12 -42 -19 -49 -7 -7 -18 -38 -25 -69 -7 -31
-16 -56 -21 -56 -5 0 -14 -25 -21 -56 -7 -31 -18 -61 -24 -68 -6 -6 -19 -40
-29 -76 -10 -36 -22 -67 -26 -70 -5 -3 -11 -22 -15 -43 -6 -30 -4 -37 9 -37 9
0 16 6 16 14 0 19 32 120 40 126 4 3 10 18 14 33 l7 28 116 -3 117 -3 14 -55
c7 -30 17 -57 22 -60 4 -3 12 -21 17 -40 5 -20 17 -36 26 -38 18 -4 24 24 7
30 -6 2 -17 27 -25 57 -8 30 -18 57 -23 60 -5 3 -15 32 -23 65 -7 32 -19 64
-26 71 -7 8 -13 18 -13 23 0 16 -33 117 -40 122 -4 3 -12 27 -19 54 -10 42
-30 76 -44 76 -3 0 -8 -16 -12 -36z m30 -47 c7 -7 18 -39 25 -70 7 -31 16 -57
20 -57 4 0 12 -19 19 -42 7 -24 15 -51 17 -60 5 -16 -4 -18 -94 -18 -99 0
-100 0 -94 23 3 12 8 24 12 27 8 6 40 107 40 126 0 8 4 14 9 14 5 0 12 16 15
35 8 39 11 41 31 22z"/>
<path d="M2940 1983 c0 -120 5 -225 11 -247 22 -78 100 -123 190 -111 41 6 59
15 94 49 27 25 47 56 54 81 14 51 15 435 1 435 -6 0 -10 -72 -10 -195 0 -123
-4 -195 -10 -195 -5 0 -10 -11 -10 -25 0 -54 -51 -115 -97 -115 -7 0 -13 -4
-13 -10 0 -5 -18 -10 -40 -10 -22 0 -40 4 -40 9 0 5 -13 14 -29 19 -16 6 -35
21 -42 34 -6 13 -17 26 -23 30 -7 5 -12 83 -14 233 -2 127 -8 225 -13 225 -5
0 -9 -88 -9 -207z"/>
<path d="M3350 2175 c0 -12 17 -15 95 -15 l95 0 0 -265 c0 -229 2 -265 15
-265 13 0 15 36 15 265 l0 265 85 0 c69 0 85 3 85 15 0 13 -28 15 -195 15
-167 0 -195 -2 -195 -15z"/>
<path d="M3930 2182 c0 -5 -20 -17 -44 -27 -25 -10 -47 -26 -50 -34 -6 -19
-28 -54 -38 -61 -13 -10 -28 -95 -28 -160 0 -77 14 -143 35 -168 63 -73 87
-91 145 -103 54 -12 138 0 166 23 74 60 114 123 114 179 0 11 5 19 10 19 6 0
10 27 10 60 0 33 -4 60 -8 60 -4 0 -14 27 -20 61 -7 33 -19 62 -27 65 -8 3
-17 14 -20 24 -3 10 -26 27 -50 37 -25 10 -45 21 -45 26 0 4 -34 7 -75 7 -41
0 -75 -4 -75 -8z m141 -24 c41 -14 94 -64 104 -98 4 -14 12 -28 17 -31 4 -3
13 -32 18 -65 11 -69 -1 -167 -24 -190 -9 -8 -16 -21 -16 -27 0 -19 -63 -75
-93 -82 -15 -4 -27 -11 -27 -16 0 -5 -20 -9 -45 -9 -25 0 -45 4 -45 8 0 5 -18
15 -41 22 -22 8 -45 23 -51 34 -6 12 -17 26 -25 31 -7 6 -19 34 -25 63 -7 28
-16 52 -20 52 -5 0 -8 27 -8 60 0 33 4 60 10 60 6 0 10 9 10 20 0 59 73 154
128 166 15 3 32 7 37 9 22 7 64 4 96 -7z"/>
<path d="M4370 2180 c0 -5 -7 -10 -15 -10 -13 0 -15 -34 -13 -267 l3 -268 123
0 c78 0 126 4 130 11 4 6 16 14 28 18 11 3 39 24 62 47 67 64 90 186 57 311
-21 83 -96 148 -170 148 -14 0 -25 5 -25 10 0 6 -37 10 -90 10 -53 0 -90 -4
-90 -10z m216 -31 c24 -6 44 -14 44 -18 0 -4 13 -14 29 -24 15 -9 34 -31 42
-49 7 -18 18 -36 23 -40 15 -10 14 -197 0 -206 -6 -4 -14 -17 -18 -29 -20 -63
-112 -123 -188 -123 -16 0 -28 -4 -28 -10 0 -5 -16 -10 -35 -10 -19 0 -35 5
-35 10 0 6 -11 10 -25 10 l-25 0 0 250 0 250 86 0 c47 0 105 -5 130 -11z"/>
<path d="M4860 1910 l0 -280 135 0 c113 0 135 2 135 15 0 13 -20 15 -120 15
l-120 0 0 125 0 125 105 0 c63 0 105 4 105 10 0 6 -42 10 -105 10 l-105 0 0
115 0 115 120 0 c102 0 119 2 114 15 -5 12 -30 15 -135 15 l-129 0 0 -280z"/>
<path d="M5310 2180 c0 -5 -8 -10 -17 -10 -10 0 -29 -9 -42 -19 -19 -15 -25
-30 -29 -75 -4 -54 11 -116 29 -116 4 0 16 -8 26 -18 10 -10 37 -24 61 -31 23
-6 42 -16 42 -21 0 -6 6 -10 13 -10 7 0 25 -11 40 -25 24 -23 27 -33 27 -85 0
-66 -19 -94 -71 -105 -16 -4 -29 -11 -29 -16 0 -5 -16 -9 -35 -9 -19 0 -35 5
-35 10 0 6 -11 10 -24 10 -14 0 -28 5 -31 10 -8 13 -25 13 -25 1 0 -35 93 -59
166 -43 47 11 90 44 98 78 4 13 11 24 16 24 6 0 10 18 10 40 0 22 -4 40 -10
40 -5 0 -10 8 -10 18 0 26 -61 79 -109 94 -22 7 -41 16 -41 19 0 4 -13 12 -30
19 -16 7 -30 19 -30 27 0 7 -7 16 -15 19 -17 7 -21 78 -5 97 6 7 18 23 28 36
15 19 28 24 68 25 27 0 66 -3 87 -8 25 -6 37 -5 37 3 0 6 -9 11 -20 11 -11 0
-20 5 -20 10 0 6 -27 10 -60 10 -33 0 -60 -4 -60 -10z"/>
<path d="M5608 2177 c-12 -29 -10 -547 2 -547 6 0 10 45 10 115 0 77 4 115 11
115 6 0 24 -12 39 -27 16 -16 50 -46 75 -68 25 -22 66 -59 91 -82 51 -48 93
-68 76 -36 -6 10 -25 29 -43 43 -18 14 -53 44 -78 67 -96 88 -125 113 -133
113 -16 0 -7 25 16 50 58 60 123 131 151 165 17 21 42 49 58 63 31 31 34 42 9
42 -10 0 -26 -14 -36 -31 -10 -17 -38 -50 -62 -72 -24 -23 -44 -45 -44 -50 0
-5 -28 -36 -62 -69 l-63 -61 -5 144 c-3 79 -8 136 -12 126z"/>
<path d="M2535 1484 c-99 -14 -95 -12 -95 -55 0 -41 0 -41 33 -34 17 4 34 11
35 16 5 12 122 11 122 -1 0 -5 8 -10 18 -10 56 -1 76 -86 31 -131 -18 -18 -36
-24 -84 -26 -90 -6 -105 -11 -105 -34 0 -34 24 -49 81 -49 72 0 126 -18 133
-44 13 -49 6 -85 -21 -111 -15 -14 -36 -25 -45 -25 -10 0 -18 -4 -18 -10 0 -5
-25 -10 -55 -10 -30 0 -55 4 -55 9 0 5 -18 11 -40 13 l-41 4 3 -41 3 -40 55
-8 c60 -8 170 0 209 14 22 9 45 30 91 85 9 12 15 39 15 74 0 48 -4 59 -30 86
-17 17 -40 34 -53 38 -30 10 -28 22 8 34 16 6 35 22 42 36 6 15 15 26 20 26 4
0 8 23 8 50 0 28 -3 50 -8 50 -4 0 -12 10 -17 22 -6 12 -19 26 -30 32 -10 6
-25 17 -33 24 -7 6 -24 12 -36 12 -13 0 -43 2 -67 4 -24 2 -57 2 -74 0z"/>
<path d="M3632 1479 c-53 -13 -100 -54 -108 -97 -4 -18 -10 -32 -15 -32 -5 0
-9 -11 -9 -25 0 -14 4 -25 9 -25 5 0 12 -12 15 -27 8 -32 72 -93 97 -93 9 0
19 -7 23 -15 3 -8 11 -15 19 -15 28 0 67 -26 78 -53 17 -39 1 -99 -28 -112
-13 -5 -23 -13 -23 -17 0 -11 -108 -10 -112 1 -1 5 -20 12 -40 16 l-38 7 0
-40 c0 -33 4 -41 23 -45 166 -40 301 4 314 101 3 23 10 42 14 42 5 0 9 7 9 15
0 8 -4 15 -10 15 -5 0 -10 9 -10 21 0 32 -31 78 -62 92 -16 6 -28 15 -28 18 0
3 -21 14 -47 24 -26 10 -56 27 -67 37 -11 10 -23 18 -28 18 -4 0 -8 16 -8 35
0 39 25 75 52 75 10 0 18 5 18 10 0 12 97 13 102 1 2 -5 14 -11 28 -13 22 -3
25 1 28 31 2 18 0 37 -5 41 -14 13 -146 19 -191 9z"/>
<path d="M2940 1191 l0 -291 103 1 c118 0 200 12 205 28 2 6 10 11 19 11 8 0
38 24 68 53 47 48 53 60 64 119 6 35 11 77 11 92 0 42 -31 166 -41 166 -5 0
-14 10 -20 23 -10 22 -67 57 -94 57 -7 0 -15 6 -17 12 -3 9 -47 14 -151 16
l-147 4 0 -291z m267 197 c83 -37 119 -133 96 -257 -19 -102 -87 -151 -210
-151 l-53 0 0 210 0 210 70 0 c38 0 82 -6 97 -12z"/>
<path d="M4210 1190 l0 -290 45 0 45 0 1 243 c1 189 3 233 12 202 5 -22 16
-45 23 -52 7 -7 15 -31 19 -53 4 -22 12 -46 19 -53 6 -6 20 -41 31 -77 10 -36
22 -67 25 -70 4 -3 15 -32 25 -65 21 -69 27 -75 78 -75 30 0 37 4 37 20 0 11
4 20 8 20 4 0 14 21 22 48 7 26 19 52 25 58 6 7 17 38 24 70 7 32 19 64 26 71
7 7 16 31 20 53 4 22 13 46 20 54 8 7 17 30 20 50 4 20 10 36 14 36 3 0 6
-107 6 -237 l0 -238 48 -3 47 -3 0 290 0 291 -74 0 -74 0 -13 -45 c-7 -25 -16
-45 -19 -45 -3 0 -14 -31 -25 -70 -11 -38 -22 -70 -26 -70 -3 0 -12 -21 -19
-47 -8 -27 -16 -50 -20 -53 -3 -3 -14 -31 -24 -62 -10 -32 -24 -58 -31 -58 -7
0 -18 22 -25 50 -7 28 -15 50 -20 50 -4 0 -16 32 -26 70 -10 39 -21 70 -25 70
-4 0 -15 29 -24 65 -10 36 -21 65 -25 65 -5 0 -12 17 -17 38 l-9 37 -72 3 -72
3 0 -291z"/>
<path d="M5130 1454 c-6 -14 -10 -32 -10 -40 0 -8 -4 -14 -9 -14 -4 0 -16 -27
-25 -60 -9 -33 -21 -60 -27 -60 -5 0 -9 -6 -9 -14 0 -19 -33 -120 -41 -126 -4
-3 -15 -32 -25 -65 -10 -33 -21 -62 -25 -65 -5 -4 -39 -97 -39 -107 0 -2 23
-3 50 -3 32 0 50 4 50 12 0 7 8 38 17 70 13 42 23 60 38 64 11 3 74 3 140 2
116 -3 120 -4 123 -25 2 -13 8 -23 13 -23 5 0 9 -6 9 -12 0 -7 5 -30 11 -50
10 -37 11 -38 60 -38 43 0 50 2 45 18 -2 9 -10 37 -18 62 -7 25 -18 51 -24 57
-7 7 -15 31 -19 53 -4 22 -11 40 -15 40 -5 0 -17 27 -26 60 -9 33 -20 60 -23
60 -4 0 -16 28 -26 63 -10 34 -24 68 -31 74 -7 7 -15 31 -19 53 l-7 40 -64 0
c-60 0 -65 -2 -74 -26z m89 -91 c6 -21 11 -43 11 -50 0 -6 6 -18 13 -25 13
-13 47 -110 47 -133 0 -7 6 -16 13 -18 6 -3 -38 -6 -99 -6 l-111 -1 5 25 c2
14 7 25 11 25 4 0 13 21 20 48 8 26 17 49 21 52 3 3 14 31 24 63 10 31 22 57
26 57 5 0 14 -17 19 -37z"/>
<path d="M5520 1465 c0 -7 6 -18 14 -22 7 -4 21 -23 30 -40 9 -18 20 -33 25
-33 4 0 16 -18 27 -40 10 -22 22 -40 26 -40 4 0 15 -16 24 -35 9 -19 20 -35
25 -35 5 0 9 -7 9 -15 0 -8 -3 -15 -7 -15 -5 0 -17 -18 -27 -40 -11 -22 -23
-40 -27 -40 -5 0 -16 -15 -25 -32 -9 -18 -23 -37 -30 -41 -8 -4 -14 -14 -14
-22 0 -8 -8 -20 -18 -27 -10 -7 -25 -29 -34 -48 l-17 -35 45 -3 c46 -3 74 10
74 34 0 7 6 17 13 21 7 4 21 25 31 46 9 20 21 37 25 37 5 0 14 13 21 29 6 16
18 32 26 35 8 3 14 12 14 21 0 36 32 11 55 -42 11 -24 22 -43 26 -43 5 0 16
-17 25 -37 10 -21 23 -41 30 -45 6 -4 15 -19 18 -33 6 -23 11 -25 66 -25 33 0
60 4 60 10 0 6 -4 10 -9 10 -5 0 -14 14 -21 30 -7 17 -16 30 -20 30 -4 0 -15
16 -26 35 -10 19 -22 35 -26 35 -4 0 -15 17 -25 37 -9 21 -25 46 -35 58 -40
45 -48 55 -48 60 0 5 10 18 49 62 11 12 27 36 36 52 8 17 19 31 23 31 5 0 15
16 22 36 8 20 22 40 31 45 9 4 19 18 22 29 5 18 0 20 -44 20 -40 0 -50 -4 -60
-22 -7 -13 -15 -25 -18 -28 -3 -3 -15 -21 -25 -40 -11 -19 -28 -44 -38 -54
-10 -11 -18 -26 -18 -33 0 -7 -9 -17 -20 -23 -16 -8 -21 -6 -31 12 -6 12 -20
31 -30 42 -11 11 -19 25 -19 32 0 6 -7 14 -15 18 -8 3 -15 11 -15 18 0 7 -13
28 -28 46 -24 28 -34 32 -75 32 -34 0 -47 -4 -47 -15z"/>
</g>
</svg>
