<?xml version="1.0" encoding="utf-8"?>
<!-- Generator: Adobe Illustrator 25.2.3, SVG Export Plug-In . SVG Version: 6.00 Build 0)  -->
<svg version="1.1" id="Layer_1" xmlns="http://www.w3.org/2000/svg" xmlns:xlink="http://www.w3.org/1999/xlink" x="0px" y="0px"
	 viewBox="0 0 150 70" style="enable-background:new 0 0 150 70;" xml:space="preserve">
<style type="text/css">
	.st0{fill:#FED900;}
	.st1{fill:#FFFFFF;}
	.st2{fill:#FEDB1D;}
	.st3{fill:#282413;}
	.st4{fill:#FEDA00;}
</style>
<g>
	<path class="st0" d="M4.7,17c12.3,0,24.7,0,37,0c0,0.1,0,0.1,0,0.2c0,11.9,0,23.7,0,35.6c0,0.1,0,0.1,0,0.2c-0.1,0-0.1,0-0.2,0
		c-12.2,0-24.5,0-36.7,0c-0.2,0-0.2,0-0.2-0.2c0-11.9,0-23.7,0-35.6C4.7,17.1,4.6,17.1,4.7,17z"/>
	<path class="st1" d="M4.7,17c0,1.7,0,3.4,0,5c0,10.2,0,20.5,0,30.7c0,0.2,0,0.2,0.2,0.2c12.2,0,24.4,0,36.6,0c0.1,0,0.1,0,0.2,0
		c0,0,0,0,0,0c0,0,0,0,0,0c0,0-0.1,0-0.1,0C29.3,53,17,53,4.8,53c-0.1,0-0.1,0-0.1-0.1c0-11.9,0-23.8,0-35.7C4.6,17.1,4.6,17,4.7,17
		z"/>
	<path class="st2" d="M41.7,53C41.7,53,41.7,53,41.7,53c0-12,0-24,0-35.9c0,0,0,0,0,0c0,0,0,0.1,0,0.1C41.7,29.1,41.7,41,41.7,53z"
		/>
	<path class="st3" d="M23.2,50.7c-5.4,0-10.7,0-16.1,0c-0.1,0-0.2,0-0.2-0.2c0-10.4,0-20.7,0-31.1c0-0.1,0-0.2,0.2-0.2
		c10.7,0,21.5,0,32.2,0c0.1,0,0.2,0,0.2,0.2c0,10.4,0,20.7,0,31.1c0,0.2-0.1,0.2-0.2,0.2C33.9,50.7,28.6,50.7,23.2,50.7z"/>
	<path class="st4" d="M24.3,37.5c0-2,0-4,0-5.9c0-0.6,0-1.2-0.1-1.7c0-0.1,0-0.1,0.1-0.1c1.4-0.5,2.7-0.8,4.2-0.8
		c1.2,0,2.4,0.3,3.4,1.1c0.9,0.7,1.4,1.6,1.7,2.7c0.3,1.1,0.4,2.2,0.2,3.3c-0.1,1.1-0.4,2-1,2.9c-0.9,1.4-2.2,2.2-3.7,2.5
		c-0.6,0.1-1.2,0.2-1.8,0.1c-0.1,0-0.1,0.1-0.1,0.1c0,1,0,2,0,3c0,0.3,0.1,0.4-0.4,0.4c-0.7,0.1-1.4,0.1-2.1,0.2
		c-0.2,0-0.3,0-0.3-0.3C24.3,42.5,24.3,40,24.3,37.5z"/>
	<path class="st4" d="M21.5,26.7c0,0.3,0,0.7,0,1c0,0.2-0.1,0.3-0.3,0.2c-1.1-0.6-2.4-0.8-3.7-0.7c-0.6,0-1.1,0.2-1.5,0.6
		c-0.7,0.7-0.7,1.9-0.1,2.6c0.4,0.5,0.9,0.8,1.5,1.1c0.5,0.3,1.1,0.6,1.7,0.9c0.8,0.5,1.5,1,2.1,1.8c0.7,0.9,0.9,2,0.9,3.1
		c0,0.8-0.3,1.5-0.7,2.2c-0.6,1-1.6,1.6-2.7,1.9c-1,0.3-2,0.3-3.1,0.1c-0.8-0.1-1.5-0.3-2.2-0.7c-0.2-0.1-0.3-0.2-0.3-0.5
		c0-0.6,0-1.2,0-1.9c0-0.1,0-0.3,0-0.4c0,0,0-0.1,0-0.1c0,0,0.1,0,0.1,0.1c0.5,0.4,1.1,0.6,1.7,0.8c0.9,0.3,1.9,0.4,2.9,0.2
		c0.8-0.2,1.4-0.7,1.5-1.5c0.1-0.7-0.1-1.4-0.6-1.9c-0.6-0.6-1.3-1.1-2-1.4c-0.9-0.4-1.7-0.9-2.4-1.6c-1-1-1.4-2.2-1.4-3.6
		c0-0.9,0.3-1.8,0.9-2.6c0.7-0.8,1.5-1.3,2.6-1.6c0.8-0.2,1.7-0.2,2.5-0.1c0.7,0,1.3,0.1,1.9,0.3c0.1,0,0.3,0.1,0.4,0.2
		c0.2,0.1,0.2,0.2,0.2,0.4C21.5,26,21.5,26.3,21.5,26.7z"/>
	<path class="st3" d="M31.2,35.2c0,0.8-0.1,1.7-0.6,2.5c-0.7,1.1-2,1.8-3.2,1.5c-0.1,0-0.2-0.1-0.2-0.2c0-2.4,0-4.9,0-7.3
		c0-0.1,0-0.2,0.1-0.2c0.7-0.1,1.4-0.2,2.1,0.1c0.8,0.3,1.2,0.9,1.5,1.7C31.1,33.8,31.2,34.4,31.2,35.2z"/>
</g>
<g>
	<path d="M47.8,36.9l-1.4,4.1h-1.8l4.5-13.1h2l4.5,13.1h-1.8l-1.4-4.1H47.8z M52.1,35.6l-1.3-3.8c-0.3-0.9-0.5-1.6-0.7-2.4h0
		c-0.2,0.8-0.4,1.6-0.7,2.4l-1.3,3.8H52.1z"/>
	<path d="M65.5,27.2v11.4c0,0.8,0,1.8,0.1,2.4H64l-0.1-1.6h0c-0.5,1.1-1.7,1.8-3.2,1.8c-2.3,0-4-1.9-4-4.8c0-3.1,1.9-5.1,4.2-5.1
		c1.4,0,2.4,0.7,2.8,1.4h0v-5.6H65.5z M63.8,35.5c0-0.2,0-0.5-0.1-0.7c-0.3-1.1-1.2-2-2.5-2c-1.8,0-2.8,1.6-2.8,3.6
		c0,1.9,0.9,3.5,2.8,3.5c1.1,0,2.2-0.8,2.5-2c0.1-0.2,0.1-0.5,0.1-0.7V35.5z"/>
	<path d="M76.8,36.3c0,3.5-2.4,5-4.7,5c-2.6,0-4.5-1.9-4.5-4.8c0-3.2,2.1-5,4.7-5C75,31.4,76.8,33.4,76.8,36.3z M69.4,36.4
		c0,2.1,1.2,3.6,2.9,3.6c1.6,0,2.9-1.5,2.9-3.7c0-1.6-0.8-3.6-2.8-3.6C70.2,32.7,69.4,34.6,69.4,36.4z"/>
	<path d="M78.9,41.1c0-0.6,0.1-1.6,0.1-2.4V27.2h1.7v5.9h0c0.6-1.1,1.7-1.7,3.2-1.7c2.3,0,4,1.9,4,4.8c0,3.4-2.1,5-4.2,5
		c-1.4,0-2.5-0.5-3.2-1.8h-0.1l-0.1,1.6H78.9z M80.7,37.3c0,0.2,0,0.4,0.1,0.6c0.3,1.2,1.3,2,2.6,2c1.8,0,2.9-1.5,2.9-3.6
		c0-1.9-1-3.5-2.8-3.5c-1.2,0-2.3,0.8-2.6,2.1c0,0.2-0.1,0.4-0.1,0.7V37.3z"/>
	<path d="M91,36.7c0,2.3,1.5,3.3,3.2,3.3c1.2,0,2-0.2,2.6-0.5l0.3,1.2c-0.6,0.3-1.6,0.6-3.1,0.6c-2.9,0-4.6-1.9-4.6-4.8
		c0-2.8,1.7-5.1,4.4-5.1c3.1,0,3.9,2.7,3.9,4.4c0,0.4,0,0.6-0.1,0.8H91z M96.1,35.4c0-1.1-0.4-2.8-2.4-2.8c-1.7,0-2.5,1.6-2.6,2.8
		H96.1z"/>
	<path d="M103.8,39c0.8,0.5,1.9,0.9,3,0.9c1.7,0,2.7-0.9,2.7-2.2c0-1.2-0.7-1.9-2.5-2.6c-2.1-0.8-3.5-1.9-3.5-3.7
		c0-2,1.7-3.6,4.2-3.6c1.3,0,2.3,0.3,2.9,0.6l-0.5,1.4c-0.4-0.2-1.3-0.6-2.5-0.6c-1.8,0-2.5,1.1-2.5,2c0,1.2,0.8,1.8,2.6,2.5
		c2.2,0.9,3.3,1.9,3.3,3.9c0,2-1.5,3.8-4.6,3.8c-1.3,0-2.6-0.4-3.3-0.8L103.8,39z"/>
	<path d="M113.6,34.7c0-1.2,0-2.2-0.1-3.1h1.5l0.1,1.6h0c0.7-1.1,1.8-1.8,3.3-1.8c2.3,0,4,1.9,4,4.8c0,3.4-2.1,5.1-4.3,5.1
		c-1.2,0-2.3-0.5-2.9-1.5h0v5.1h-1.7V34.7z M115.3,37.2c0,0.3,0,0.5,0.1,0.7c0.3,1.2,1.3,2,2.6,2c1.8,0,2.9-1.5,2.9-3.6
		c0-1.9-1-3.5-2.8-3.5c-1.2,0-2.3,0.8-2.6,2.1c-0.1,0.2-0.1,0.5-0.1,0.7V37.2z"/>
	<path d="M129.9,41.1l-0.1-1.2h-0.1c-0.5,0.7-1.5,1.4-2.9,1.4c-1.9,0-2.9-1.3-2.9-2.7c0-2.3,2-3.5,5.7-3.5v-0.2
		c0-0.8-0.2-2.2-2.1-2.2c-0.9,0-1.8,0.3-2.5,0.7l-0.4-1.1c0.8-0.5,1.9-0.8,3.1-0.8c2.9,0,3.6,2,3.6,3.9v3.5c0,0.8,0,1.6,0.2,2.3
		H129.9z M129.6,36.3c-1.9,0-4,0.3-4,2.1c0,1.1,0.7,1.6,1.6,1.6c1.2,0,2-0.8,2.3-1.6c0.1-0.2,0.1-0.4,0.1-0.5V36.3z"/>
	<path d="M134,34.6c0-1.1,0-2.1-0.1-2.9h1.5l0.1,1.9h0.1c0.4-1.3,1.5-2.1,2.6-2.1c0.2,0,0.3,0,0.5,0.1v1.6c-0.2,0-0.4-0.1-0.6-0.1
		c-1.2,0-2.1,0.9-2.3,2.2c0,0.2-0.1,0.5-0.1,0.8v5H134V34.6z"/>
	<path d="M142.2,36L142.2,36c0.3-0.3,0.6-0.7,0.9-1.1l2.8-3.3h2.1l-3.6,3.9l4.1,5.5h-2.1l-3.3-4.5l-0.9,1v3.5h-1.7V27.2h1.7V36z"/>
</g>
</svg>
