<?xml version="1.0" encoding="utf-8"?>
<!-- Generator: Adobe Illustrator 25.2.3, SVG Export Plug-In . SVG Version: 6.00 Build 0)  -->
<svg version="1.1" id="Layer_1" xmlns="http://www.w3.org/2000/svg" xmlns:xlink="http://www.w3.org/1999/xlink" x="0px" y="0px"
	 viewBox="0 0 150 70" style="enable-background:new 0 0 150 70;" xml:space="preserve">
<style type="text/css">
	.st0{fill:#FAB517;}
	.st1{fill:#282011;}
	.st2{stroke:#000000;stroke-width:0.5;stroke-miterlimit:10;}
</style>
<path class="st0" d="M13.8,12.5h48.9v47.7H13.8V12.5z"/>
<path class="st1" d="M15.8,14.5h44.9v43.6H15.8V14.5z"/>
<path class="st0" d="M26.8,24.4c0-0.2,0-0.2,0.2-0.3c0.9,0,3.5-0.1,5.5-0.1c6.1,0,7.2,3.5,7.2,5.7c0,2.4-1.2,3.8-2,4.5
	c1.2,0.6,3,2.1,3,5.2c0,4.1-3.3,6.7-8.4,6.6c-2.2,0-4.1,0-5.2-0.1c-0.2,0-0.2-0.1-0.2-0.3L26.8,24.4L26.8,24.4z M30.3,33.1h2
	c1,0,2.1-0.1,2.6,0c0.7-0.6,1.2-1.5,1.2-2.9c0-2-1.4-3.1-3.8-3.1c-0.8,0-1.5,0-2.1,0.1V33.1z M30.3,43c0.6,0,1.1,0,1.9,0
	c2.6,0,4.8-1,4.8-3.5c0-1.5-0.8-2.6-2.4-3.1c-0.6-0.2-1.2-0.3-1.9-0.3h-2.3V43z M43.7,33.1c0-0.2,0-0.8-0.1-1.9
	c0-0.2,0.1-0.2,0.2-0.3c1.2-0.5,4-1.4,7.2-1.4c0.2,0,0.2,0,0.2,0.2v2.9c0,0.2,0,0.2-0.2,0.2c-1.2-0.1-3,0.1-3.7,0.4v12.6
	c0,0.2-0.1,0.2-0.2,0.2H44c-0.2,0-0.2-0.1-0.2-0.2L43.7,33.1z"/>
<g>
	<path d="M77.8,26.5l-1.5,4.6h-2l5-14.6h2.3l5,14.6h-2l-1.6-4.6H77.8z M82.5,25.1l-1.4-4.2c-0.3-1-0.5-1.8-0.8-2.7h0
		c-0.2,0.9-0.5,1.8-0.7,2.6l-1.4,4.2H82.5z"/>
	<path d="M97.4,15.7v12.7c0,0.9,0,2,0.1,2.7h-1.7l-0.1-1.8h0c-0.6,1.2-1.9,2.1-3.6,2.1c-2.5,0-4.5-2.1-4.5-5.3
		c0-3.5,2.1-5.6,4.7-5.6c1.6,0,2.7,0.8,3.2,1.6h0v-6.3H97.4z M95.5,24.9c0-0.2,0-0.6-0.1-0.8c-0.3-1.2-1.3-2.2-2.8-2.2
		c-2,0-3.1,1.7-3.1,4.1c0,2.1,1,3.9,3.1,3.9c1.3,0,2.4-0.8,2.8-2.3c0.1-0.3,0.1-0.5,0.1-0.8V24.9z"/>
	<path d="M110,25.8c0,3.9-2.7,5.6-5.2,5.6c-2.8,0-5-2.1-5-5.4c0-3.5,2.3-5.6,5.2-5.6C108,20.4,110,22.6,110,25.8z M101.7,25.9
		c0,2.3,1.3,4,3.2,4c1.8,0,3.2-1.7,3.2-4.1c0-1.8-0.9-4-3.1-4C102.7,21.8,101.7,23.9,101.7,25.9z"/>
	<path d="M112.4,31.1c0-0.7,0.1-1.8,0.1-2.7V15.7h1.9v6.6h0c0.7-1.2,1.9-1.9,3.6-1.9c2.6,0,4.4,2.2,4.4,5.4c0,3.7-2.4,5.6-4.7,5.6
		c-1.5,0-2.7-0.6-3.5-2h-0.1l-0.1,1.7H112.4z M114.3,26.9c0,0.2,0,0.5,0.1,0.7c0.4,1.3,1.5,2.2,2.9,2.2c2,0,3.2-1.6,3.2-4
		c0-2.1-1.1-3.9-3.1-3.9c-1.3,0-2.5,0.9-2.9,2.3c0,0.2-0.1,0.5-0.1,0.8V26.9z"/>
	<path d="M125.8,26.2c0,2.6,1.7,3.6,3.6,3.6c1.4,0,2.2-0.2,2.9-0.5l0.3,1.4c-0.7,0.3-1.8,0.7-3.5,0.7c-3.2,0-5.2-2.1-5.2-5.3
		c0-3.2,1.9-5.7,4.9-5.7c3.4,0,4.3,3,4.3,4.9c0,0.4,0,0.7-0.1,0.9H125.8z M131.4,24.9c0-1.2-0.5-3.1-2.6-3.1c-1.9,0-2.8,1.8-2.9,3.1
		H131.4z"/>
	<path d="M75.4,42.7c0.8-0.2,2.1-0.3,3.4-0.3c1.9,0,3.1,0.3,4,1.1c0.8,0.6,1.2,1.4,1.2,2.6c0,1.4-0.9,2.6-2.5,3.2v0
		c1.4,0.3,3,1.5,3,3.7c0,1.3-0.5,2.2-1.2,2.9c-1,0.9-2.7,1.4-5,1.4c-1.3,0-2.3-0.1-2.9-0.2V42.7z M77.3,48.7H79c2,0,3.2-1,3.2-2.4
		c0-1.7-1.3-2.4-3.2-2.4c-0.9,0-1.4,0.1-1.7,0.1V48.7z M77.3,55.7c0.4,0.1,0.9,0.1,1.6,0.1c2,0,3.7-0.7,3.7-2.8c0-2-1.7-2.8-3.8-2.8
		h-1.6V55.7z"/>
	<path d="M87.1,49.9c0-1.2,0-2.3-0.1-3.3h1.7l0.1,2.1h0.1c0.5-1.4,1.6-2.3,2.9-2.3c0.2,0,0.4,0,0.5,0.1v1.8c-0.2,0-0.4-0.1-0.7-0.1
		c-1.3,0-2.3,1-2.6,2.4c0,0.3-0.1,0.6-0.1,0.9v5.6h-1.9V49.9z"/>
	<path d="M96.4,43.7c0,0.6-0.5,1.2-1.2,1.2c-0.7,0-1.1-0.5-1.1-1.2c0-0.7,0.5-1.2,1.2-1.2C95.9,42.5,96.4,43,96.4,43.7z M94.2,57.1
		V46.6h1.9v10.5H94.2z"/>
	<path d="M108.4,41.7v12.7c0,0.9,0,2,0.1,2.7h-1.7l-0.1-1.8h0c-0.6,1.2-1.9,2.1-3.6,2.1c-2.5,0-4.5-2.1-4.5-5.3
		c0-3.5,2.1-5.6,4.7-5.6c1.6,0,2.7,0.8,3.2,1.6h0v-6.3H108.4z M106.5,50.9c0-0.2,0-0.6-0.1-0.8c-0.3-1.2-1.3-2.2-2.8-2.2
		c-2,0-3.1,1.7-3.1,4.1c0,2.1,1,3.9,3.1,3.9c1.3,0,2.4-0.8,2.8-2.3c0.1-0.3,0.1-0.5,0.1-0.8V50.9z"/>
	<path d="M120.6,46.6c0,0.8-0.1,1.6-0.1,2.9v6.1c0,2.4-0.5,3.9-1.5,4.8c-1,1-2.5,1.3-3.8,1.3c-1.3,0-2.6-0.3-3.5-0.9l0.5-1.5
		c0.7,0.4,1.8,0.8,3.1,0.8c2,0,3.4-1,3.4-3.7v-1.2h0c-0.6,1-1.7,1.8-3.3,1.8c-2.6,0-4.5-2.2-4.5-5.1c0-3.6,2.3-5.6,4.7-5.6
		c1.8,0,2.8,1,3.3,1.8h0l0.1-1.6H120.6z M118.6,50.8c0-0.3,0-0.6-0.1-0.9c-0.3-1.1-1.3-2-2.7-2c-1.8,0-3.1,1.5-3.1,4
		c0,2.1,1,3.8,3.1,3.8c1.2,0,2.2-0.7,2.6-2c0.1-0.3,0.2-0.7,0.2-1V50.8z"/>
	<path d="M124.7,52.2c0,2.6,1.7,3.6,3.6,3.6c1.4,0,2.2-0.2,2.9-0.5l0.3,1.4c-0.7,0.3-1.8,0.7-3.5,0.7c-3.2,0-5.2-2.1-5.2-5.3
		c0-3.2,1.9-5.7,4.9-5.7c3.4,0,4.3,3,4.3,4.9c0,0.4,0,0.7-0.1,0.9H124.7z M130.3,50.9c0-1.2-0.5-3.1-2.6-3.1c-1.9,0-2.8,1.8-2.9,3.1
		H130.3z"/>
</g>
<line class="st2" x1="69.2" y1="12.5" x2="69.2" y2="59.9"/>
</svg>
