<svg id="Layer_1" data-name="Layer 1" xmlns="http://www.w3.org/2000/svg" viewBox="0 0 150 70"><defs><style>.cls-1{fill:#db4b9b;}.cls-2{fill:#efc2db;}.cls-3{fill:#f2cfe3;}.cls-4{fill:#e58fbd;}.cls-5{fill:#29101f;}.cls-6{fill:#231f20;}</style></defs><path class="cls-1" d="M50.13,16.39V55.62c-.05,0-.11,0-.16,0H11.06a.05.05,0,0,1-.05,0,.75.75,0,0,1,0-.21V16.61a.42.42,0,0,1,0-.22.37.37,0,0,1,.18,0H50A.37.37,0,0,1,50.13,16.39Z"/><path class="cls-2" d="M11,55.65s-.07,0-.07,0V16.39s0,0,0,0v39a.74.74,0,0,0,0,.21h0s0,0,0,0Z"/><path class="cls-3" d="M11,16.39h0s0,0,0,0H50c.05,0,.11,0,.15,0H11Z"/><path class="cls-4" d="M11,55.65v0H50.13s0,0,0,0H11Z"/><path class="cls-5" d="M30.56,54H12.85c-.26,0-.22,0-.22-.22V18.29c0-.25,0-.23.22-.23H48.29c.24,0,.21,0,.21.21V53.75c0,.24,0,.2-.2.2Z"/><path class="cls-4" d="M11,16.39h0c0,.09,0,.17,0,.25v39a.11.11,0,0,1,0-.09V16.64C11,16.55,11,16.47,11,16.39Z"/><path class="cls-1" d="M24.62,36.72c-.09.19-.18.39-.26.58-.24.53-.47,1.07-.7,1.6L22.27,42l-.72,1.53,0,.09a.32.32,0,0,1-.31.18H18.5a.12.12,0,0,1-.11-.18l0,0c.36-.7.71-1.4,1.07-2.09.48-1,1-1.93,1.46-2.89.38-.77.77-1.53,1.16-2.3.24-.49.49-1,.74-1.46a.22.22,0,0,0,0-.21c-.39-.78-.77-1.56-1.15-2.34l-1.43-2.91-.83-1.68c-.28-.58-.56-1.17-.86-1.75-.08-.16,0-.27.17-.27h2.84a.23.23,0,0,1,.19.15c.33.72.66,1.44,1,2.16l1.35,3c.22.47.42,1,.64,1.43a.33.33,0,0,0,.09.16,2.2,2.2,0,0,0,.15-.31l.69-1.58c.53-1.2,1.08-2.39,1.63-3.58.16-.35.31-.71.47-1.06l.09-.17a.28.28,0,0,1,.28-.17h2.49c.28,0,.29.11.19.3-.34.67-.68,1.35-1,2l-1.5,3-1.13,2.25-.57,1.12a.24.24,0,0,0,0,.23l.63,1.25c.63,1.26,1.26,2.52,1.9,3.78.27.55.55,1.09.82,1.64l1.15,2.3a.25.25,0,0,1,0,.11c0,.11,0,.17-.14.19H28.19a.32.32,0,0,1-.33-.21l-.5-1.05c-.12-.26-.24-.53-.37-.79-.4-.88-.81-1.75-1.22-2.63l-1.1-2.4A0,0,0,0,0,24.62,36.72Z"/><path class="cls-1" d="M42.37,34.1v7.22a12.07,12.07,0,0,0,.08,1.47c0,.13,0,.16-.12.23a9.06,9.06,0,0,1-1.6.6,8.09,8.09,0,0,1-1.54.31,7.66,7.66,0,0,1-2.86-.18A5.36,5.36,0,0,1,35,43.18,5.2,5.2,0,0,1,33.59,42a6.3,6.3,0,0,1-1.18-2.39,9.53,9.53,0,0,1-.27-3A7.46,7.46,0,0,1,33,33.41a5.85,5.85,0,0,1,3.49-2.89,7,7,0,0,1,2.81-.28c.08,0,.12,0,.11-.09a.48.48,0,0,1,0-.12V26a.56.56,0,0,1,0-.13c0-.11,0-.16.16-.17h2.66a.12.12,0,0,1,.12.13V34.1Z"/><path class="cls-5" d="M39.41,37v4c0,.18,0,.18-.16.22A3.35,3.35,0,0,1,36.69,41a2.73,2.73,0,0,1-1.14-1.28,5.59,5.59,0,0,1-.47-1.88,8.91,8.91,0,0,1,0-1.79A4.49,4.49,0,0,1,36,33.89a2,2,0,0,1,.24-.27,2.87,2.87,0,0,1,1.48-.82,3.42,3.42,0,0,1,1.15-.08,2.07,2.07,0,0,1,.49.12.11.11,0,0,1,.08.11.56.56,0,0,0,0,.13Z"/><path class="cls-6" d="M56.68,36.3l-1.52,4.57H53.22l5-14.55h2.26l5,14.55h-2L61.84,36.3Zm4.77-1.47L60,30.64c-.32-.95-.54-1.81-.75-2.66h-.05c-.21.87-.45,1.75-.73,2.64l-1.43,4.21Z"/><path class="cls-6" d="M76.23,25.54V38.17c0,.93,0,2,.09,2.7H74.61l-.08-1.81h0a3.85,3.85,0,0,1-3.56,2c-2.52,0-4.47-2.14-4.47-5.31,0-3.48,2.14-5.61,4.69-5.61a3.48,3.48,0,0,1,3.15,1.59h0V25.54Zm-1.9,9.14a3.62,3.62,0,0,0-.08-.8,2.8,2.8,0,0,0-2.75-2.2c-2,0-3.13,1.72-3.13,4,0,2.12,1,3.87,3.09,3.87a2.86,2.86,0,0,0,2.79-2.27,3.57,3.57,0,0,0,.08-.82Z"/><path class="cls-6" d="M88.84,35.56c0,3.87-2.68,5.55-5.2,5.55-2.83,0-5-2.07-5-5.37,0-3.5,2.29-5.55,5.18-5.55S88.84,32.37,88.84,35.56Zm-8.29.11c0,2.29,1.32,4,3.17,4S86.9,38,86.9,35.63c0-1.77-.89-4-3.14-4S80.55,33.68,80.55,35.67Z"/><path class="cls-6" d="M91.15,40.87c0-.71.08-1.77.08-2.7V25.54h1.88v6.57h0a3.89,3.89,0,0,1,3.57-1.92c2.59,0,4.42,2.16,4.4,5.33,0,3.73-2.35,5.59-4.68,5.59a3.72,3.72,0,0,1-3.5-2h-.07l-.08,1.72Zm2-4.18a3.18,3.18,0,0,0,.09.69,2.93,2.93,0,0,0,2.85,2.22c2,0,3.17-1.62,3.17-4,0-2.09-1.08-3.88-3.11-3.88A3,3,0,0,0,93.22,34a4,4,0,0,0-.11.78Z"/><path class="cls-6" d="M104.57,36a3.36,3.36,0,0,0,3.59,3.63,6.88,6.88,0,0,0,2.89-.54l.32,1.36a8.47,8.47,0,0,1-3.47.65c-3.22,0-5.14-2.12-5.14-5.27s1.86-5.63,4.9-5.63c3.41,0,4.32,3,4.32,4.92a7.06,7.06,0,0,1-.07.88Zm5.57-1.36c0-1.2-.49-3.08-2.63-3.08-1.92,0-2.77,1.77-2.92,3.08Z"/><path class="cls-6" d="M126.94,40.87l-1.86-3.21c-.76-1.23-1.23-2-1.69-2.87h0c-.41.84-.82,1.61-1.57,2.89L120,40.87h-2.16l4.44-7.36L118,26.32h2.18l1.92,3.41c.54.95,1,1.69,1.34,2.46h.06c.42-.86.78-1.53,1.32-2.46l2-3.41H129l-4.43,7.08,4.54,7.47Z"/><path class="cls-6" d="M131.29,26.52a26,26,0,0,1,4-.31c2.7,0,4.62.63,5.89,1.82a6.67,6.67,0,0,1,2,5.22,7.7,7.7,0,0,1-2.09,5.66c-1.36,1.36-3.61,2.09-6.43,2.09a30.06,30.06,0,0,1-3.42-.17Zm1.88,12.86a11.49,11.49,0,0,0,1.9.11c4,0,6.2-2.24,6.2-6.17,0-3.44-1.92-5.62-5.9-5.62a10.47,10.47,0,0,0-2.2.2Z"/></svg>