<?xml version="1.0" encoding="utf-8"?>
<!-- Generator: Adobe Illustrator 25.2.3, SVG Export Plug-In . SVG Version: 6.00 Build 0)  -->
<svg version="1.1" id="Layer_1" xmlns="http://www.w3.org/2000/svg" xmlns:xlink="http://www.w3.org/1999/xlink" x="0px" y="0px"
	 viewBox="0 0 150 70" style="enable-background:new 0 0 150 70;" xml:space="preserve">
<style type="text/css">
	.st0{fill:#3AC0F0;}
	.st1{fill:#33C5F4;}
	.st2{fill:#081E26;}
	.st3{fill:#010101;}
	.st4{fill:#32C5F4;}
	.st5{fill:#33C5F3;}
	.st6{fill:#010202;}
	.st7{fill:#061115;}
	.st8{fill:#020404;}
	.st9{fill:#020203;}
	.st10{fill:#08171C;}
	.st11{fill:#020304;}
	.st12{fill:#04090C;}
	.st13{fill:#091215;}
	.st14{fill:#050709;}
	.st15{fill:#08181E;}
	.st16{fill:#09171C;}
	.st17{fill:#08181D;}
	.st18{fill:#081F26;}
	.st19{fill:none;}
	.st20{stroke:#000000;stroke-width:0.25;stroke-miterlimit:10;}
</style>
<g>
	<path class="st0" d="M28.8,57.1c-7.1,0-14.3,0-21.4,0c-1.1,0-1.5-0.2-1.4-1.4c0-14,0-28,0-42.1c0-1,0.2-1.4,1.3-1.4
		c14.4,0,28.8,0,43.3,0c1.1,0,1.3,0.4,1.3,1.4c0,14,0,28,0,42.1c0,1.2-0.4,1.4-1.5,1.4C43.1,57.1,36,57.1,28.8,57.1z"/>
	<path class="st1" d="M28.9,56.8c-7.1,0-14.2,0-21.3,0c-1.1,0-1.4-0.3-1.4-1.4c0-13.8,0-27.6,0-41.4c0-1.1,0.3-1.4,1.4-1.4
		c14.2,0,28.4,0,42.6,0c1.1,0,1.3,0.3,1.3,1.4c0,13.8,0,27.7,0,41.5c0,1.2-0.4,1.4-1.5,1.4C43,56.8,35.9,56.8,28.9,56.8z"/>
	<path class="st2" d="M49.6,55.2c-6.8,0-13.5,0-20.3,0c-7.1,0-14.2,0-21.2,0c-0.2-0.4-0.1-0.8-0.1-1.2c0-12.8,0-25.7,0-38.5
		c0-0.4-0.1-0.8,0.1-1.2c6.7,0,13.4,0,20.2,0c7.1,0,14.2,0,21.4,0c0.2,0.4,0.1,0.8,0.1,1.2c0,12.8,0,25.7,0,38.5
		C49.7,54.4,49.8,54.8,49.6,55.2z"/>
	<path class="st3" d="M8.1,14.3c0,13.6,0,27.3,0,40.9c-0.5-0.2-0.2-0.7-0.3-1c0-12.9,0-25.9,0-38.8C7.8,15,7.6,14.5,8.1,14.3z"/>
	<path class="st3" d="M49.6,55.2c0-13.6,0-27.3,0-40.9c0.5,0.2,0.2,0.7,0.3,1c0,12.9,0,25.9,0,38.8C49.9,54.5,50.1,54.9,49.6,55.2z"
		/>
	<path class="st4" d="M24.4,22.5c2.2,0.7,4.2,1.6,5,4.1c0.1,0.4,0.3,0.8,0.4,1.3c0.2,0.8,0.2,1.6,0,2.4C29,34,26.5,35.6,23,36.2
		c-0.7,0.4-1.6,0-2.3,0.2c-0.3,2-0.1,3.9-0.2,5.9c0,0.5,0.2,1-0.2,1.4l0-0.1c-1.2,0.3-2.3,0.3-3.4,0l0.1,0.1
		c-0.3-0.2-0.2-0.6-0.2-0.9c0-6.4,0-12.8,0-19.2c0-0.3,0-0.5,0.1-0.8c0.1-0.1,0.2-0.2,0.3-0.3c1-0.2,2-0.2,2.9-0.1c1,0,2,0,3,0
		C23.5,22.4,24,22.3,24.4,22.5z"/>
	<path class="st5" d="M35.9,30.9c-1.3,0.6-1.5,1.5-0.4,2.3c0.6,0.5,1.3,0.9,2,1.2c2,1,3.5,2.3,3.7,4.8l0,0.1c-0.3,2-1.2,3.5-3.2,4.3
		c-0.4,0.2-0.8-0.1-1.1,0.3c-1,0.3-1.9,0.3-2.9,0c-2.7-0.8-2.7-0.8-2.4-4.1c0.9,0.2,1.5,0.8,2.4,0.9c1-0.2,2,0.2,3-0.2
		c1.1-1.1,0.8-1.8-0.8-2.8c-1-0.6-2.1-1.2-3-1.9c-1.6-1.2-1.9-2.9-1.5-4.7c0.4-1.8,1.7-2.8,3.4-3.2c1.8-0.4,3.6-0.4,5.3,0.4
		c0.2,1.1,0.3,2.1,0,3.2c-0.9,0.4-1.2-0.9-2.1-0.7C37.5,31,36.7,31,35.9,30.9z"/>
	<path class="st3" d="M16.9,22.8c0,6.4,0,12.8,0,19.3c0,0.5,0,1.1,0.1,1.6c-0.5-0.2-0.3-0.7-0.3-1.1c0-6.3,0-12.6,0-18.8
		C16.6,23.4,16.6,23.1,16.9,22.8z"/>
	<path class="st6" d="M20.3,43.7c0-2.1,0-4.2,0.1-6.3c0-0.4-0.3-0.9,0.3-1.2c0.1,0.1,0.1,0.1,0.1,0.2c0,0.1-0.1,0.1-0.1,0.1
		c0,2,0,4,0,6C20.7,42.9,20.8,43.4,20.3,43.7z"/>
	<path class="st7" d="M37.1,40.5c-1,0.7-2,0.3-3,0.2C35,40.2,36.1,40.6,37.1,40.5z"/>
	<path class="st8" d="M16.9,43.6c1.1,0,2.3,0,3.4,0C19.2,44.2,18.1,44.2,16.9,43.6z"/>
	<path class="st9" d="M40.4,31.6c0-1.1,0-2.1,0-3.2C40.9,29.5,41,30.6,40.4,31.6z"/>
	<path class="st10" d="M31.2,42.6c0-0.9,0-1.7,0-2.6C31.4,40.9,31.4,41.7,31.2,42.6z"/>
	<path class="st11" d="M20.1,22.5c-1,0-2,0-2.9,0.1C18.2,22.1,19.1,22.2,20.1,22.5z"/>
	<path class="st12" d="M34.1,43.9c1,0,1.9,0,2.9,0C36,44.4,35.1,44.4,34.1,43.9z"/>
	<path class="st13" d="M20.7,36.5c0-0.1,0-0.2,0-0.3c0.8,0,1.6,0,2.3,0C22.3,36.9,21.4,36.3,20.7,36.5z"/>
	<path class="st3" d="M29.8,30.3c0-0.8,0-1.6,0-2.4C30.2,28.7,30.2,29.5,29.8,30.3z"/>
	<path class="st14" d="M35.9,30.9c0.8-0.2,1.6-0.1,2.4,0C37.5,31.2,36.7,31.2,35.9,30.9z"/>
	<path class="st15" d="M36.3,27.3c0.4,0,0.8,0,1.4,0.1C37.1,27.7,36.6,27.6,36.3,27.3z"/>
	<path class="st16" d="M41.3,39.3L41.3,39.3c0-0.1,0-0.1,0-0.1c0-0.2,0.1-0.4,0.1-0.7c0.3,0.4,0.3,0.8,0.2,1
		C41.3,39.9,41.4,39.4,41.3,39.3z"/>
	<path class="st11" d="M24.4,22.5c-0.4,0-0.9,0-1.3-0.1C23.5,22.2,24,22.1,24.4,22.5z"/>
	<path class="st17" d="M31.3,31.9c0,0.3,0,0.5,0,0.9C31,32.5,31.2,32.2,31.3,31.9z"/>
	<path class="st18" d="M20.5,25.8c1.7-0.4,3.3-0.4,4.7,0.9c1.2,1.1,1.3,2.5,0.9,4c-0.5,1.6-1.7,2.1-3.2,2.3
		c-2.3-0.2-2.2-0.3-2.3-2.7C20.5,28.8,20.6,27.3,20.5,25.8z"/>
	<path class="st3" d="M20.5,25.8c0.4,1.8,0.2,3.5,0.2,5.3c0,1.2,0.2,1.9,1.6,1.7c0.2,0,0.4,0.1,0.6,0.2c-2.4,0.1-2.4,0.1-2.4-2.2
		C20.4,29.1,20.5,27.4,20.5,25.8z"/>
</g>
<g>
	<path d="M61.3,26l-1.3,4h-1.7l4.3-12.7h2L68.8,30h-1.7l-1.4-4H61.3z M65.4,24.7L64.2,21c-0.3-0.8-0.5-1.6-0.7-2.3h0
		c-0.2,0.8-0.4,1.5-0.6,2.3l-1.2,3.7H65.4z"/>
	<path d="M78.3,16.6v11c0,0.8,0,1.7,0.1,2.4h-1.5l-0.1-1.6h0c-0.5,1-1.6,1.8-3.1,1.8c-2.2,0-3.9-1.9-3.9-4.6c0-3,1.9-4.9,4.1-4.9
		c1.4,0,2.3,0.7,2.7,1.4h0v-5.4H78.3z M76.6,24.6c0-0.2,0-0.5-0.1-0.7c-0.2-1.1-1.1-1.9-2.4-1.9c-1.7,0-2.7,1.5-2.7,3.5
		c0,1.8,0.9,3.4,2.7,3.4c1.1,0,2.1-0.7,2.4-2c0.1-0.2,0.1-0.5,0.1-0.7V24.6z"/>
	<path d="M89.3,25.3c0,3.4-2.3,4.8-4.5,4.8c-2.5,0-4.4-1.8-4.4-4.7c0-3,2-4.8,4.5-4.8C87.5,20.7,89.3,22.6,89.3,25.3z M82,25.4
		c0,2,1.1,3.5,2.8,3.5c1.6,0,2.8-1.5,2.8-3.5c0-1.5-0.8-3.5-2.7-3.5S82,23.7,82,25.4z"/>
	<path d="M91.3,30c0-0.6,0.1-1.5,0.1-2.4v-11H93v5.7h0c0.6-1,1.6-1.7,3.1-1.7c2.3,0,3.9,1.9,3.8,4.6c0,3.3-2,4.9-4.1,4.9
		c-1.3,0-2.4-0.5-3-1.7h-0.1L92.7,30H91.3z M93,26.3c0,0.2,0,0.4,0.1,0.6c0.3,1.1,1.3,1.9,2.5,1.9c1.7,0,2.8-1.4,2.8-3.5
		c0-1.8-0.9-3.4-2.7-3.4c-1.1,0-2.2,0.8-2.5,2c0,0.2-0.1,0.4-0.1,0.7V26.3z"/>
	<path d="M103,25.7c0,2.2,1.5,3.2,3.1,3.2c1.2,0,1.9-0.2,2.5-0.5l0.3,1.2c-0.6,0.3-1.6,0.6-3,0.6c-2.8,0-4.5-1.8-4.5-4.6
		s1.6-4.9,4.3-4.9c3,0,3.8,2.6,3.8,4.3c0,0.3,0,0.6-0.1,0.8H103z M107.8,24.5c0-1.1-0.4-2.7-2.3-2.7c-1.7,0-2.4,1.5-2.5,2.7H107.8z"
		/>
	<path d="M59.2,40c0.8-0.1,1.8-0.2,3.1-0.2c1.6,0,2.8,0.4,3.6,1.1c0.7,0.6,1.1,1.5,1.1,2.7c0,1.1-0.3,2-1,2.7
		c-0.9,0.9-2.3,1.4-3.9,1.4c-0.5,0-0.9,0-1.3-0.1v5.1h-1.6V40z M60.8,46.1c0.4,0.1,0.8,0.1,1.4,0.1c2,0,3.2-1,3.2-2.7
		c0-1.7-1.2-2.5-3-2.5c-0.7,0-1.3,0.1-1.5,0.1V46.1z"/>
	<path d="M69.1,39.2h1.7v5.7h0c0.3-0.5,0.7-0.9,1.2-1.2c0.5-0.3,1.1-0.5,1.7-0.5c1.2,0,3.2,0.8,3.2,3.9v5.4h-1.7v-5.2
		c0-1.5-0.5-2.7-2.1-2.7c-1.1,0-1.9,0.8-2.2,1.7c-0.1,0.2-0.1,0.5-0.1,0.8v5.5h-1.7V39.2z"/>
	<path d="M87.7,47.9c0,3.4-2.3,4.8-4.5,4.8c-2.5,0-4.4-1.8-4.4-4.7c0-3,2-4.8,4.5-4.8C86,43.2,87.7,45.1,87.7,47.9z M80.5,48
		c0,2,1.1,3.5,2.8,3.5c1.6,0,2.8-1.5,2.8-3.5c0-1.5-0.8-3.5-2.7-3.5S80.5,46.3,80.5,48z"/>
	<path d="M91.8,40.8v2.6h2.4v1.3h-2.4v4.9c0,1.1,0.3,1.8,1.2,1.8c0.4,0,0.8-0.1,1-0.1l0.1,1.2c-0.3,0.1-0.8,0.2-1.5,0.2
		c-0.8,0-1.4-0.2-1.8-0.7c-0.5-0.5-0.6-1.3-0.6-2.4v-5h-1.4v-1.3h1.4v-2.2L91.8,40.8z"/>
	<path d="M104.1,47.9c0,3.4-2.3,4.8-4.5,4.8c-2.5,0-4.4-1.8-4.4-4.7c0-3,2-4.8,4.5-4.8C102.4,43.2,104.1,45.1,104.1,47.9z M96.9,48
		c0,2,1.1,3.5,2.8,3.5c1.6,0,2.8-1.5,2.8-3.5c0-1.5-0.8-3.5-2.7-3.5S96.9,46.3,96.9,48z"/>
	<path d="M106,50.8c0.5,0.3,1.4,0.7,2.2,0.7c1.2,0,1.8-0.6,1.8-1.4c0-0.8-0.5-1.2-1.7-1.7c-1.6-0.6-2.4-1.5-2.4-2.6
		c0-1.5,1.2-2.7,3.1-2.7c0.9,0,1.7,0.3,2.2,0.6l-0.4,1.2c-0.4-0.2-1-0.5-1.9-0.5c-1,0-1.5,0.6-1.5,1.2c0,0.8,0.5,1.1,1.7,1.5
		c1.6,0.6,2.4,1.4,2.4,2.7c0,1.6-1.2,2.7-3.4,2.7c-1,0-1.9-0.2-2.6-0.6L106,50.8z"/>
	<path d="M113.7,39.2h1.7v5.7h0c0.3-0.5,0.7-0.9,1.2-1.2c0.5-0.3,1.1-0.5,1.7-0.5c1.2,0,3.2,0.8,3.2,3.9v5.4h-1.7v-5.2
		c0-1.5-0.5-2.7-2.1-2.7c-1.1,0-1.9,0.8-2.2,1.7c-0.1,0.2-0.1,0.5-0.1,0.8v5.5h-1.7V39.2z"/>
	<path d="M132.3,47.9c0,3.4-2.3,4.8-4.5,4.8c-2.5,0-4.4-1.8-4.4-4.7c0-3,2-4.8,4.5-4.8C130.6,43.2,132.3,45.1,132.3,47.9z M125.1,48
		c0,2,1.1,3.5,2.8,3.5c1.6,0,2.8-1.5,2.8-3.5c0-1.5-0.8-3.5-2.7-3.5S125.1,46.3,125.1,48z"/>
	<path d="M134.4,46.4c0-1.2,0-2.1-0.1-3h1.5l0.1,1.6h0c0.7-1.1,1.7-1.8,3.2-1.8c2.2,0,3.9,1.9,3.9,4.6c0,3.3-2,4.9-4.1,4.9
		c-1.2,0-2.3-0.5-2.8-1.4h0v4.9h-1.6V46.4z M136.1,48.8c0,0.2,0,0.5,0.1,0.7c0.3,1.1,1.3,1.9,2.5,1.9c1.7,0,2.8-1.4,2.8-3.5
		c0-1.8-1-3.4-2.7-3.4c-1.1,0-2.2,0.8-2.5,2c-0.1,0.2-0.1,0.5-0.1,0.7V48.8z"/>
</g>
<line class="st20" x1="55.9" y1="12.6" x2="55.9" y2="56.3"/>
</svg>
