<svg id="Layer_1" data-name="Layer 1" xmlns="http://www.w3.org/2000/svg" viewBox="0 0 150 70"><defs><style>.cls-1{fill:#fed900;}.cls-2{fill:#fff;}.cls-3{fill:#fedb1d;}.cls-4{fill:#282413;}.cls-5{fill:#feda00;}.cls-6{fill:#231f20;}</style></defs><path class="cls-1" d="M4.67,17h37a.35.35,0,0,1,0,.17V52.79a.43.43,0,0,1,0,.16.32.32,0,0,1-.17,0H4.85c-.22,0-.2,0-.2-.19V17.18A.35.35,0,0,1,4.67,17Z"/><path class="cls-2" d="M4.67,17V52.75c0,.2,0,.2.2.2H41.68s0,0,0,0,0,0,0,0H4.78c-.12,0-.15,0-.15-.14q0-17.85,0-35.7S4.6,17.05,4.67,17Z"/><path class="cls-3" d="M41.72,53h0V17s0,0,0,0a.48.48,0,0,0,0,.12Z"/><path class="cls-4" d="M23.19,50.71H7.1c-.14,0-.18,0-.18-.18V19.44c0-.14,0-.18.17-.18h32.2c.13,0,.18,0,.18.17q0,15.56,0,31.11c0,.15-.06.17-.18.17Z"/><path class="cls-5" d="M24.32,37.54c0-2,0-3.95,0-5.92,0-.58,0-1.16-.07-1.73,0-.07,0-.08.07-.09A12.63,12.63,0,0,1,28.49,29a5,5,0,0,1,5.07,3.77A8.16,8.16,0,0,1,33.79,36a6.65,6.65,0,0,1-1,2.93,5.77,5.77,0,0,1-3.74,2.54,5.13,5.13,0,0,1-1.83.1c-.14,0-.1.07-.1.13v3c0,.32.08.38-.39.43l-2.15.21c-.21,0-.26,0-.26-.27Z"/><path class="cls-5" d="M21.51,26.67v1c0,.2-.13.28-.31.18a6.34,6.34,0,0,0-3.65-.69,2.35,2.35,0,0,0-1.5.62A2,2,0,0,0,16,30.47a5.48,5.48,0,0,0,1.46,1.11c.55.32,1.13.56,1.66.91a7.69,7.69,0,0,1,2.06,1.79,5,5,0,0,1,.18,5.31,4.56,4.56,0,0,1-2.71,1.91,6.78,6.78,0,0,1-3.07.08,8,8,0,0,1-2.18-.69.42.42,0,0,1-.29-.45c0-.62,0-1.24,0-1.86v-.41c0-.05,0-.1,0-.13s.08,0,.11.05a5.87,5.87,0,0,0,1.66.83,5.56,5.56,0,0,0,2.86.17,1.87,1.87,0,0,0,1.54-1.54,2.08,2.08,0,0,0-.6-1.89,7.06,7.06,0,0,0-2-1.42,8.9,8.9,0,0,1-2.37-1.62A4.49,4.49,0,0,1,12.93,29a4.33,4.33,0,0,1,.9-2.57,4.48,4.48,0,0,1,2.56-1.57,8.41,8.41,0,0,1,2.55-.14,7.82,7.82,0,0,1,1.93.35c.15,0,.29.12.43.18a.33.33,0,0,1,.21.35Z"/><path class="cls-4" d="M31.16,35.23a5,5,0,0,1-.6,2.45,3.14,3.14,0,0,1-3.25,1.53c-.14,0-.2-.07-.2-.24q0-3.66,0-7.34c0-.11,0-.19.14-.21a4,4,0,0,1,2.14.11,2.53,2.53,0,0,1,1.48,1.66A6.18,6.18,0,0,1,31.16,35.23Z"/><path class="cls-6" d="M47.82,36.94l-1.36,4.13H44.71L49.17,28h2l4.48,13.12H53.88l-1.4-4.13Zm4.31-1.32-1.29-3.78c-.29-.85-.48-1.63-.68-2.39h0c-.19.78-.41,1.58-.66,2.37l-1.29,3.8Z"/><path class="cls-6" d="M65.47,27.25V38.64c0,.84,0,1.79.07,2.43H64l-.07-1.63h0a3.5,3.5,0,0,1-3.21,1.85c-2.28,0-4-1.93-4-4.79,0-3.14,1.92-5.06,4.22-5.06a3.15,3.15,0,0,1,2.84,1.44h0V27.25Zm-1.72,8.23a3,3,0,0,0-.08-.72,2.51,2.51,0,0,0-2.47-2c-1.77,0-2.82,1.56-2.82,3.64,0,1.91.93,3.48,2.78,3.48a2.57,2.57,0,0,0,2.51-2,2.9,2.9,0,0,0,.08-.74Z"/><path class="cls-6" d="M76.84,36.28a4.61,4.61,0,0,1-4.7,5c-2.55,0-4.51-1.87-4.51-4.85,0-3.16,2.06-5,4.67-5S76.84,33.4,76.84,36.28Zm-7.48.1c0,2.06,1.19,3.62,2.86,3.62s2.86-1.54,2.86-3.66c0-1.6-.79-3.62-2.82-3.62S69.36,34.59,69.36,36.38Z"/><path class="cls-6" d="M78.92,41.07c0-.64.08-1.59.08-2.43V27.25h1.69v5.92h0A3.53,3.53,0,0,1,84,31.44c2.33,0,4,1.94,4,4.8,0,3.37-2.13,5-4.23,5a3.35,3.35,0,0,1-3.15-1.78h-.06l-.08,1.56Zm1.77-3.78a3.19,3.19,0,0,0,.08.63,2.64,2.64,0,0,0,2.57,2c1.79,0,2.86-1.46,2.86-3.62,0-1.89-1-3.5-2.8-3.5a2.73,2.73,0,0,0-2.61,2.1,3.36,3.36,0,0,0-.1.7Z"/><path class="cls-6" d="M91,36.67a3,3,0,0,0,3.23,3.27,6.24,6.24,0,0,0,2.61-.48l.3,1.22a7.54,7.54,0,0,1-3.14.59c-2.9,0-4.63-1.91-4.63-4.75s1.67-5.08,4.42-5.08c3.07,0,3.89,2.7,3.89,4.43a6.25,6.25,0,0,1-.06.8Zm5-1.22c0-1.09-.45-2.79-2.38-2.79-1.73,0-2.49,1.6-2.63,2.79Z"/><path class="cls-6" d="M103.79,39a6,6,0,0,0,3,.86c1.74,0,2.75-.92,2.75-2.24s-.7-1.93-2.47-2.61c-2.15-.76-3.47-1.87-3.47-3.72,0-2.05,1.69-3.56,4.25-3.56a6,6,0,0,1,2.9.64l-.47,1.38a5.3,5.3,0,0,0-2.49-.62c-1.79,0-2.48,1.07-2.48,2,0,1.23.8,1.83,2.61,2.54,2.22.85,3.35,1.92,3.35,3.85s-1.5,3.78-4.59,3.78a6.74,6.74,0,0,1-3.35-.84Z"/><path class="cls-6" d="M113.56,34.73c0-1.21,0-2.19-.08-3.08H115l.08,1.62h0a3.7,3.7,0,0,1,3.35-1.83c2.27,0,4,1.92,4,4.78,0,3.39-2.07,5.07-4.28,5.07a3.33,3.33,0,0,1-2.91-1.48h0v5.12h-1.69Zm1.69,2.51a3.84,3.84,0,0,0,.08.7,2.65,2.65,0,0,0,2.57,2c1.81,0,2.86-1.48,2.86-3.64,0-1.89-1-3.5-2.8-3.5a2.74,2.74,0,0,0-2.59,2.12,2.7,2.7,0,0,0-.12.7Z"/><path class="cls-6" d="M129.86,41.07l-.14-1.19h-.06a3.51,3.51,0,0,1-2.88,1.41,2.69,2.69,0,0,1-2.88-2.71c0-2.28,2-3.52,5.67-3.5v-.2a2,2,0,0,0-2.15-2.18,4.68,4.68,0,0,0-2.45.7l-.39-1.13a5.92,5.92,0,0,1,3.1-.83c2.88,0,3.58,2,3.58,3.85v3.52a12.91,12.91,0,0,0,.16,2.26Zm-.25-4.81c-1.87,0-4,.3-4,2.13A1.51,1.51,0,0,0,127.23,40a2.34,2.34,0,0,0,2.28-1.58,1.71,1.71,0,0,0,.1-.54Z"/><path class="cls-6" d="M134,34.59c0-1.11,0-2.06-.08-2.94h1.5l.06,1.85h.07a2.82,2.82,0,0,1,2.61-2.06,1.85,1.85,0,0,1,.49,0v1.62a2.55,2.55,0,0,0-.59-.06,2.4,2.4,0,0,0-2.29,2.2,4.7,4.7,0,0,0-.08.8v5H134Z"/><path class="cls-6" d="M142.17,36h0c.24-.33.57-.74.84-1.07l2.77-3.25h2.06l-3.64,3.87,4.15,5.55h-2.09L143,36.56l-.87,1v3.54h-1.7V27.25h1.7Z"/></svg>