<svg id="Layer_1" data-name="Layer 1" xmlns="http://www.w3.org/2000/svg" viewBox="0 0 150 70"><defs><style>.cls-1{fill:#b895c5;}.cls-2{fill:#21093f;}.cls-3{fill:#412458;}.cls-4{fill:#231f20;}</style></defs><path class="cls-1" d="M31.65,10H58.08c.59,0,.53,0,.53.53q0,25.76,0,51.52c0,.58,0,.52-.53.52H5.16c-.58,0-.53.06-.53-.53V10.53c0-.58,0-.52.54-.52Z"/><path class="cls-2" d="M31.64,60.35H7.41c-.57,0-.5.07-.5-.5V12.74c0-.56-.07-.49.51-.49H55.84c.57,0,.53-.08.53.52q0,23.54,0,47.07c0,.59,0,.51-.5.51Z"/><path class="cls-1" d="M23.47,22h2.05c.44,0,.45,0,.57.42.81,2.76,1.63,5.51,2.44,8.27q2.28,7.7,4.55,15.4c.19.63.19.63-.46.63H29.46c-.43,0-.44,0-.56-.44l-1.7-6.14c-.13-.46-.08-.38-.5-.38H20.27c-.38,0-.38,0-.47.36q-.81,3-1.6,6l0,.12c-.11.43-.11.43-.56.43h-3c-.44,0-.47,0-.35-.49q1.11-3.86,2.21-7.72,2.05-7.16,4.1-14.3a10,10,0,0,0,.26-1.87c0-.32,0-.34.35-.34Z"/><path class="cls-1" d="M42.53,38.43H38.82c-.57,0-.56,0-.52.56a6.18,6.18,0,0,0,.32,1.65,3.91,3.91,0,0,0,3.21,2.75,8.84,8.84,0,0,0,4.8-.48c.46-.18.46-.18.47.29,0,.82,0,1.64,0,2.45a.66.66,0,0,1-.48.71,9,9,0,0,1-2.74.66,13.26,13.26,0,0,1-2.52,0A7.13,7.13,0,0,1,35,42.41a10.84,10.84,0,0,1-.76-3.32,13.78,13.78,0,0,1,.6-5.49,8.69,8.69,0,0,1,2-3.43,6.52,6.52,0,0,1,4-1.94,7.14,7.14,0,0,1,3.37.34,5.93,5.93,0,0,1,3.43,3.35,9,9,0,0,1,.74,3.84,11.79,11.79,0,0,1-.1,1.88s0,.08,0,.12c-.07.45-.15.54-.6.58s-1,.08-1.46.08Z"/><path class="cls-2" d="M23.56,26c.28,1.09.55,2.19.83,3.28l1.74,6.55a.7.7,0,0,1,0,.33H20.83c.16-.63.33-1.25.49-1.87.69-2.6,1.41-5.2,2-7.83,0-.18.08-.36.13-.54S23.52,25.92,23.56,26Z"/><path class="cls-3" d="M23.56,26l-.15-.08a.41.41,0,0,1,0-.11s0-.11.06-.11a.14.14,0,0,1,.07.08A.82.82,0,0,1,23.56,26Z"/><path class="cls-2" d="M41.39,35.34h-2.8c-.17,0-.29,0-.25-.23a6,6,0,0,1,.82-2.36,2.91,2.91,0,0,1,3.28-1.19,2.56,2.56,0,0,1,1.74,1.59,4.91,4.91,0,0,1,.37,1.6.87.87,0,0,1,0,.23c0,.32-.06.34-.39.35H41.39Z"/><path class="cls-4" d="M66.17,28.35,65,32H63.45L67.34,20.5h1.78L73,32H71.45l-1.22-3.61Zm3.75-1.15L68.8,23.9c-.25-.75-.42-1.43-.59-2.09h0c-.17.68-.35,1.38-.58,2.07L66.47,27.2Z"/><path class="cls-4" d="M81.57,19.89v9.94c0,.73,0,1.57.07,2.13H80.29l-.07-1.43h0a3,3,0,0,1-2.8,1.61c-2,0-3.52-1.68-3.52-4.18,0-2.73,1.68-4.42,3.69-4.42A2.77,2.77,0,0,1,80,24.8h0V19.89Zm-1.5,7.19a2.7,2.7,0,0,0-.07-.63,2.19,2.19,0,0,0-2.16-1.73c-1.54,0-2.46,1.36-2.46,3.18,0,1.66.82,3,2.43,3A2.25,2.25,0,0,0,80,29.15a2.62,2.62,0,0,0,.07-.64Z"/><path class="cls-4" d="M91.5,27.78a4,4,0,0,1-4.1,4.36,3.91,3.91,0,0,1-3.94-4.23,4,4,0,0,1,4.08-4.37A3.9,3.9,0,0,1,91.5,27.78ZM85,27.86c0,1.8,1,3.16,2.5,3.16S90,29.68,90,27.83c0-1.4-.7-3.16-2.47-3.16S85,26.3,85,27.86Z"/><path class="cls-4" d="M93.32,32c0-.56.06-1.4.06-2.13V19.89h1.48v5.17h0a3.06,3.06,0,0,1,2.8-1.52c2,0,3.49,1.7,3.47,4.2,0,2.94-1.85,4.4-3.69,4.4a2.91,2.91,0,0,1-2.75-1.54h0L94.61,32Zm1.54-3.3a3.06,3.06,0,0,0,.07.54A2.31,2.31,0,0,0,97.17,31c1.57,0,2.5-1.27,2.5-3.16,0-1.65-.85-3.06-2.45-3.06A2.38,2.38,0,0,0,95,26.57a2.54,2.54,0,0,0-.09.61Z"/><path class="cls-4" d="M103.89,28.12A2.63,2.63,0,0,0,106.71,31a5.56,5.56,0,0,0,2.28-.42l.25,1.07a6.56,6.56,0,0,1-2.73.51A3.82,3.82,0,0,1,102.46,28c0-2.48,1.46-4.44,3.86-4.44,2.69,0,3.4,2.37,3.4,3.88a5.23,5.23,0,0,1,0,.7ZM108.27,27a2.13,2.13,0,0,0-2.07-2.43A2.48,2.48,0,0,0,103.91,27Z"/><path class="cls-4" d="M66.17,48.75,65,52.36H63.45L67.34,40.9h1.78L73,52.36H71.45l-1.22-3.61Zm3.75-1.15L68.8,44.3c-.25-.75-.42-1.43-.59-2.09h0c-.17.68-.35,1.38-.58,2.07L66.47,47.6Z"/><path class="cls-4" d="M74.7,52.36V45.27H73.54V44.13H74.7v-.39a3.89,3.89,0,0,1,1-2.87,2.84,2.84,0,0,1,2-.77,3.41,3.41,0,0,1,1.27.24l-.2,1.16a2.12,2.12,0,0,0-1-.19c-1.28,0-1.6,1.12-1.6,2.38v.44h2v1.14h-2v7.09Z"/><path class="cls-4" d="M81.5,41.77v2.36h2.14v1.14H81.5v4.44c0,1,.29,1.59,1.12,1.59a3.44,3.44,0,0,0,.87-.1l.07,1.12a3.64,3.64,0,0,1-1.33.21,2,2,0,0,1-1.61-.63A3,3,0,0,1,80,49.76V45.27H78.76V44.13H80v-2Z"/><path class="cls-4" d="M86.06,48.52a2.63,2.63,0,0,0,2.82,2.85A5.43,5.43,0,0,0,91.16,51L91.41,52a6.66,6.66,0,0,1-2.74.51,3.82,3.82,0,0,1-4-4.15c0-2.48,1.46-4.44,3.86-4.44,2.68,0,3.4,2.37,3.4,3.88,0,.31,0,.54,0,.7Zm4.38-1.07A2.13,2.13,0,0,0,88.37,45a2.49,2.49,0,0,0-2.3,2.44Z"/><path class="cls-4" d="M93.74,46.7c0-1,0-1.8-.07-2.57H95l0,1.62h.07a2.47,2.47,0,0,1,2.28-1.81,1.33,1.33,0,0,1,.42.06v1.41a1.91,1.91,0,0,0-.51,0,2.09,2.09,0,0,0-2,1.92,3.58,3.58,0,0,0-.07.69v4.39H93.74Z"/><path class="cls-4" d="M108.89,47h-4.46v4.13h5v1.24H103V40.9h6.19v1.24h-4.71v3.62h4.46Z"/><path class="cls-4" d="M116.35,52.36V45.27H112.9v7.09h-1.48V45.27h-1.16V44.13h1.16v-.27a3.88,3.88,0,0,1,.92-2.81,2.81,2.81,0,0,1,2.07-.76,2.53,2.53,0,0,1,1.17.29l-.3,1.1a2.25,2.25,0,0,0-.89-.2c-1.17,0-1.49,1-1.49,2.29v.36h3.45v-.39a3.86,3.86,0,0,1,1-2.87,2.83,2.83,0,0,1,2-.77,3.36,3.36,0,0,1,1.27.24l-.19,1.16a2.13,2.13,0,0,0-1-.19c-1.26,0-1.6,1.12-1.6,2.38v.44h2v1.14h-2v7.09Z"/><path class="cls-4" d="M121.79,48.52a2.63,2.63,0,0,0,2.82,2.85,5.4,5.4,0,0,0,2.28-.42l.25,1.07a6.56,6.56,0,0,1-2.73.51,3.83,3.83,0,0,1-4-4.15c0-2.48,1.46-4.44,3.86-4.44,2.69,0,3.4,2.37,3.4,3.88a5.23,5.23,0,0,1-.05.7Zm4.38-1.07A2.13,2.13,0,0,0,124.1,45a2.48,2.48,0,0,0-2.29,2.44Z"/><path class="cls-4" d="M135.34,52.05a5.42,5.42,0,0,1-2.37.48,3.9,3.9,0,0,1-4.09-4.2A4.18,4.18,0,0,1,133.3,44a4.9,4.9,0,0,1,2.07.43L135,45.54a3.52,3.52,0,0,0-1.73-.39,2.85,2.85,0,0,0-2.91,3.11,2.82,2.82,0,0,0,2.86,3.08,4.15,4.15,0,0,0,1.83-.41Z"/><path class="cls-4" d="M139.11,41.77v2.36h2.14v1.14h-2.14v4.44c0,1,.29,1.59,1.12,1.59a3.44,3.44,0,0,0,.87-.1l.07,1.12a3.64,3.64,0,0,1-1.33.21,2.06,2.06,0,0,1-1.61-.63,3,3,0,0,1-.58-2.14V45.27h-1.27V44.13h1.27v-2Z"/><path class="cls-4" d="M142.73,50.83a3.93,3.93,0,0,0,2,.59c1.08,0,1.59-.54,1.59-1.22s-.42-1.11-1.53-1.51c-1.48-.53-2.17-1.35-2.17-2.33a2.54,2.54,0,0,1,2.84-2.42,4.13,4.13,0,0,1,2,.51l-.38,1.09a3.21,3.21,0,0,0-1.68-.47c-.88,0-1.37.51-1.37,1.12s.49,1,1.56,1.39c1.43.55,2.16,1.26,2.16,2.48,0,1.45-1.12,2.47-3.08,2.47a4.69,4.69,0,0,1-2.31-.56Z"/></svg>