<svg id="Layer_1" data-name="Layer 1" xmlns="http://www.w3.org/2000/svg" viewBox="0 0 150 70"><defs><style>.cls-1{fill:#b895c5;}.cls-2{fill:#21093f;}.cls-3{fill:#412458;}</style></defs><path class="cls-1" d="M31.6,10H58c.6,0,.5-.1.5.5V62c0,.6,0,.5-.5.5H5.1c-.6,0-.5.1-.5-.5V10.5c0-.6,0-.5.5-.5Z"/><path class="cls-2" d="M31.6,60.4H7.4c-.6,0-.5.1-.5-.5V12.8c0-.6-.1-.5.5-.5H55.8c.6,0,.5-.1.5.5V59.9c0,.6,0,.5-.5.5Z"/><path class="cls-1" d="M23.5,22h2.1c.4,0,.4,0,.6.4.8,2.8,1.6,5.5,2.4,8.3,1.5,5.1,3,10.3,4.5,15.4.2.6.2.6-.5.6H29.4c-.4,0-.4,0-.6-.4-.6-2-1.1-4.1-1.7-6.1-.1-.5-.1-.4-.5-.4H20.2c-.4,0-.4,0-.5.4-.5,2-1.1,4-1.6,6.1v.1c-.1.4-.1.4-.6.4h-3c-.4,0-.5,0-.3-.5.7-2.6,1.5-5.1,2.2-7.7,1.4-4.8,2.7-9.5,4.1-14.3a10.79,10.79,0,0,0,.3-1.9c0-.3,0-.3.3-.3A20.08,20.08,0,0,1,23.5,22Z"/><path class="cls-1" d="M42.5,38.4H38.8c-.6,0-.6,0-.5.6a5.08,5.08,0,0,0,.3,1.7,3.75,3.75,0,0,0,3.2,2.7,8.84,8.84,0,0,0,4.8-.5c.5-.2.5-.2.5.3v2.4c0,.4-.1.6-.5.7a9,9,0,0,1-2.7.7,10.45,10.45,0,0,1-2.5,0,7,7,0,0,1-6.3-4.6,13.23,13.23,0,0,1-.8-3.3,14.57,14.57,0,0,1,.6-5.5,8.3,8.3,0,0,1,2-3.4,6,6,0,0,1,3.9-1.9,7.76,7.76,0,0,1,3.4.3,6.12,6.12,0,0,1,3.4,3.3,8.3,8.3,0,0,1,.7,3.8,12.1,12.1,0,0,1-.1,1.9v.1c-.1.5-.2.5-.6.6s-1,.1-1.5.1Z"/><path class="cls-2" d="M23.6,26c.3,1.1.5,2.2.8,3.3.6,2.2,1.2,4.4,1.7,6.5,0,.1.1.2,0,.3H20.8c.2-.6.3-1.3.5-1.9.7-2.6,1.4-5.2,2-7.8a4.33,4.33,0,0,1,.1-.5C23.5,25.8,23.5,25.9,23.6,26Z"/><path class="cls-3" d="M23.6,26c-.1,0-.1-.1-.2-.1v-.1a.1.1,0,1,1,.2,0Z"/><path class="cls-2" d="M41.4,35.3H38.6c-.2,0-.3,0-.3-.2a7.54,7.54,0,0,1,.8-2.4,3,3,0,0,1,3.3-1.2,2.3,2.3,0,0,1,1.7,1.6,9.36,9.36,0,0,1,.4,1.6v.2c0,.3-.1.3-.4.3H44a21.75,21.75,0,0,1-2.6.1Z"/><path d="M66.2,28.4,65,32H63.5l3.9-11.5h1.8L73,32H71.4l-1.2-3.6Zm3.7-1.2-1.1-3.3a16.55,16.55,0,0,1-.6-2.1h0l-.6,2.1-1.1,3.3Z"/><path d="M81.6,19.9v9.9a13.42,13.42,0,0,0,.1,2.1H80.4l-.1-1.4h0a3.15,3.15,0,0,1-2.8,1.6c-2,0-3.5-1.7-3.5-4.2,0-2.7,1.7-4.4,3.7-4.4a2.71,2.71,0,0,1,2.5,1.3h0V19.9Zm-1.5,7.2a1.27,1.27,0,0,0-.1-.6,2.1,2.1,0,0,0-2.2-1.7c-1.5,0-2.5,1.4-2.5,3.2s.8,3,2.4,3a2.32,2.32,0,0,0,2.2-1.8,1.27,1.27,0,0,0,.1-.6V27.1Z"/><path d="M91.5,27.8a4.07,4.07,0,0,1-4.1,4.4A3.87,3.87,0,0,1,83.5,28c0-2.8,1.8-4.4,4.1-4.4S91.5,25.3,91.5,27.8Zm-6.5.1c0,1.8,1,3.2,2.5,3.2S90,29.8,90,27.9c0-1.4-.7-3.2-2.5-3.2S85,26.3,85,27.9Z"/><path d="M93.3,32c0-.6.1-1.4.1-2.1V20h1.5v5.2h0a3.08,3.08,0,0,1,2.8-1.5c2,0,3.5,1.7,3.5,4.2,0,2.9-1.9,4.4-3.7,4.4a3.22,3.22,0,0,1-2.8-1.5h-.1V32Zm1.6-3.3a.75.75,0,0,0,.1.5A2.44,2.44,0,0,0,97.2,31c1.6,0,2.5-1.3,2.5-3.2,0-1.6-.8-3.1-2.4-3.1A2.43,2.43,0,0,0,95,26.5c0,.2-.1.4-.1.6Z"/><path d="M103.9,28.1a2.65,2.65,0,0,0,2.8,2.9,6.34,6.34,0,0,0,2.3-.4l.3,1.1a7.1,7.1,0,0,1-2.7.5,3.81,3.81,0,0,1-4-4.1c0-2.5,1.5-4.4,3.9-4.4,2.7,0,3.4,2.4,3.4,3.9a1.48,1.48,0,0,1-.1.7h-5.9Zm4.4-1.1c0-1-.4-2.4-2.1-2.4a2.48,2.48,0,0,0-2.3,2.4Z"/><path d="M66.2,48.8,65,52.4H63.5l3.9-11.5h1.8L73,52.4H71.4l-1.2-3.6Zm3.7-1.2-1.1-3.3a16.55,16.55,0,0,1-.6-2.1h0l-.6,2.1-1.1,3.3Z"/><path d="M74.7,52.4V45.3H73.5V44.2h1.2v-.4a4,4,0,0,1,1-2.9,3.18,3.18,0,0,1,2-.8,4.44,4.44,0,0,1,1.3.2l-.2,1.2a2.15,2.15,0,0,0-1-.2c-1.3,0-1.6,1.1-1.6,2.4v.4h2v1.1h-2v7.1H74.7Z"/><path d="M81.5,41.8v2.4h2.1v1.1H81.5v4.4c0,1,.3,1.6,1.1,1.6.4,0,.7-.1.9-.1l.1,1.1a3.92,3.92,0,0,1-1.3.2,2,2,0,0,1-1.6-.6,3.1,3.1,0,0,1-.6-2.1V45.3H78.8V44.2H80v-2Z"/><path d="M86.1,48.5a2.65,2.65,0,0,0,2.8,2.9,6.34,6.34,0,0,0,2.3-.4l.3,1.1a7.1,7.1,0,0,1-2.7.5,3.81,3.81,0,0,1-4-4.1c0-2.4,1.5-4.4,3.9-4.4,2.7,0,3.4,2.4,3.4,3.9a1.48,1.48,0,0,1-.1.7H86.1Zm4.3-1.1c0-1-.4-2.4-2.1-2.4A2.48,2.48,0,0,0,86,47.4Z"/><path d="M93.7,46.7a20.92,20.92,0,0,0-.1-2.6H95l.1,1.6h.1a2.53,2.53,0,0,1,2.3-1.8c.2,0,.3,0,.4.1v1.4c-.2,0-.3-.1-.5-.1a2.05,2.05,0,0,0-2,1.9c0,.2-.1.4-.1.7v4.4H93.8V46.7Z"/><path d="M108.9,47h-4.5v4.1h5v1.2H103V40.9h6.2v1.2h-4.7v3.6H109V47Z"/><path d="M116.3,52.4V45.3h-3.5v7.1h-1.5V45.3h-1.2V44.2h1.2v-.3a3.93,3.93,0,0,1,.9-2.8,2.86,2.86,0,0,1,2.1-.8,3.5,3.5,0,0,1,1.2.3l-.3,1.1a2,2,0,0,0-.9-.2c-1.2,0-1.5,1-1.5,2.3v.4h3.5v-.4a4,4,0,0,1,1-2.9,3.18,3.18,0,0,1,2-.8,4.44,4.44,0,0,1,1.3.2l-.2,1.2a2.15,2.15,0,0,0-1-.2c-1.3,0-1.6,1.1-1.6,2.4v.4h2v1.1h-2v7.1h-1.5Z"/><path d="M121.8,48.5a2.65,2.65,0,0,0,2.8,2.9,6.34,6.34,0,0,0,2.3-.4l.3,1.1a7.1,7.1,0,0,1-2.7.5,3.81,3.81,0,0,1-4-4.1c0-2.4,1.5-4.4,3.9-4.4,2.7,0,3.4,2.4,3.4,3.9a1.48,1.48,0,0,1-.1.7h-5.9Zm4.4-1.1c0-1-.4-2.4-2.1-2.4a2.48,2.48,0,0,0-2.3,2.4Z"/><path d="M135.3,52.1a5.76,5.76,0,0,1-2.4.5,3.91,3.91,0,0,1-4.1-4.2,4.2,4.2,0,0,1,4.4-4.4,5.18,5.18,0,0,1,2.1.4l-.3,1.2a3.53,3.53,0,0,0-1.7-.4,2.83,2.83,0,0,0-2.9,3.1,2.84,2.84,0,0,0,2.9,3.1,4,4,0,0,0,1.8-.4Z"/><path d="M139.1,41.8v2.4h2.1v1.1h-2.1v4.4c0,1,.3,1.6,1.1,1.6.4,0,.7-.1.9-.1l.1,1.1a3.92,3.92,0,0,1-1.3.2,2,2,0,0,1-1.6-.6,3.1,3.1,0,0,1-.6-2.1V45.3h-1.3V44.2h1.3v-2Z"/><path d="M142.7,50.8a3.65,3.65,0,0,0,2,.6c1.1,0,1.6-.5,1.6-1.2s-.4-1.1-1.5-1.5c-1.5-.5-2.2-1.3-2.2-2.3a2.55,2.55,0,0,1,2.8-2.4,3.68,3.68,0,0,1,2,.5l-.4,1.1a3.11,3.11,0,0,0-1.7-.5c-.9,0-1.4.5-1.4,1.1s.5,1,1.6,1.4c1.4.5,2.2,1.3,2.2,2.5,0,1.4-1.1,2.5-3.1,2.5a4.14,4.14,0,0,1-2.3-.6Z"/></svg>