<svg id="Layer_1" data-name="Layer 1" xmlns="http://www.w3.org/2000/svg" viewBox="0 0 150 70"><defs><style>.cls-1{fill:#fff;}.cls-2{fill:#ef4629;}.cls-3{fill:#27100c;}.cls-4{fill:#ef4024;}.cls-5{fill:#ef4225;}.cls-6{fill:#28100c;}.cls-7{fill:#ef4124;}.cls-8{fill:#231f20;}</style></defs><path class="cls-1" d="M5.76,48.71H1.36c-.14,0-.17,0-.17-.16q0-13.54,0-27.09c0-.16.05-.17.18-.17H37.58c.13,0,.18,0,.18.17q0,13.54,0,27.09c0,.14,0,.16-.17.16H33.14a.39.39,0,0,1-.07-.26V21.86c0-.48,0-.45-.44-.45H6.28c-.45,0-.45,0-.45.45V48.22A.75.75,0,0,1,5.76,48.71Z"/><path class="cls-2" d="M5.76,48.71q0-13.55,0-27.1c0-.23,0-.28.28-.28q13.42,0,26.84,0c.23,0,.28.05.28.28q0,13.55,0,27.1Z"/><path class="cls-3" d="M19.45,47.7H7c-.24,0-.28-.07-.28-.29q0-12.39,0-24.79c0-.33,0-.29.29-.29H31.84c.34,0,.3,0,.3.31V47.42c0,.32,0,.28-.3.28Z"/><path class="cls-2" d="M16.17,27c.26.83.51,1.65.76,2.48q1.79,5.89,3.55,11.8l.06.2c0,.09,0,.12-.1.12H18.07c-.15,0-.14-.12-.17-.21-.3-1.15-.61-2.3-.91-3.45a1.81,1.81,0,0,0-.14-.45.28.28,0,0,0-.18,0h-4c-.06,0-.12,0-.17,0l-.87,3.16c-.07.26-.15.52-.21.79s-.08.16-.2.15l-2-.13c-.19,0-.11-.11-.08-.2l1.32-4.73q1.32-4.76,2.66-9.5a.19.19,0,0,1,0-.08,1,1,0,0,1,.39,0h2.34C16,26.93,16.11,26.9,16.17,27Z"/><path class="cls-2" d="M21.55,36.55V31.74c0-.13,0-.23.16-.29a10.12,10.12,0,0,1,4-.75,5.15,5.15,0,0,1,3.09,1,2.48,2.48,0,0,1,1,2.08q0,3.79,0,7.59c0,.21,0,.28-.26.27-.65,0-1.29,0-1.94,0-.2,0-.25-.05-.25-.25,0-2.41,0-4.81,0-7.21a1.29,1.29,0,0,0-1.34-1.46,3.92,3.92,0,0,0-1.56.14.24.24,0,0,0-.21.28q0,4.09,0,8.19c0,.3,0,.31-.31.31-.73,0-1.45,0-2.17,0-.22,0-.26-.07-.26-.27C21.56,39.76,21.55,38.15,21.55,36.55Z"/><path class="cls-4" d="M12.52,37.49c.05-.08.13-.05.2-.05h3.92c.07,0,.15,0,.21.05Z"/><path class="cls-5" d="M16.17,27a.57.57,0,0,0-.29,0H13.19c.06-.09.14-.05.21-.05H16C16,26.9,16.16,26.84,16.17,27Z"/><path class="cls-6" d="M13.11,35.2c.08-.54.25-1.06.38-1.59.35-1.45.72-2.89,1.08-4.34,0,0,0-.08.07-.1.2.74.4,1.48.59,2.23.32,1.2.64,2.4.95,3.6a.46.46,0,0,1,0,.2s-.08,0-.13,0H13.24C13.19,35.23,13.15,35.24,13.11,35.2Z"/><path class="cls-7" d="M13.11,35.2h3.1c-.05.08-.14,0-.21,0H13.32C13.25,35.25,13.16,35.28,13.11,35.2Z"/><path class="cls-8" d="M38.75,36.37l-1,2.89H36.57l3.12-9.19h1.43l3.13,9.19H43l-1-2.89Zm3-.93-.9-2.64c-.2-.6-.34-1.15-.48-1.68h0c-.14.55-.29,1.11-.47,1.67L39,35.44Z"/><path class="cls-8" d="M51.09,29.58v8c0,.59,0,1.26.06,1.71H50.07l0-1.15h0a2.44,2.44,0,0,1-2.25,1.3c-1.59,0-2.82-1.35-2.82-3.35,0-2.2,1.35-3.55,3-3.55a2.21,2.21,0,0,1,2,1h0V29.58Zm-1.2,5.77a2.21,2.21,0,0,0,0-.51,1.77,1.77,0,0,0-1.73-1.39c-1.24,0-2,1.09-2,2.55s.66,2.44,1.95,2.44A1.8,1.8,0,0,0,49.84,37a2.14,2.14,0,0,0,0-.52Z"/><path class="cls-8" d="M59.05,35.91a3.23,3.23,0,0,1-3.28,3.5A3.14,3.14,0,0,1,52.61,36a3.22,3.22,0,0,1,3.27-3.5A3.13,3.13,0,0,1,59.05,35.91ZM53.82,36c0,1.45.83,2.54,2,2.54s2-1.08,2-2.56c0-1.12-.55-2.54-2-2.54S53.82,34.72,53.82,36Z"/><path class="cls-8" d="M60.51,39.26c0-.45.05-1.12.05-1.71v-8h1.19v4.15h0A2.44,2.44,0,0,1,64,32.51c1.64,0,2.8,1.37,2.78,3.37,0,2.36-1.48,3.53-2.95,3.53a2.35,2.35,0,0,1-2.21-1.24h0l-.06,1.09Zm1.24-2.65a3.12,3.12,0,0,0,0,.44,1.86,1.86,0,0,0,1.8,1.4c1.26,0,2-1,2-2.53,0-1.32-.68-2.45-2-2.45a1.91,1.91,0,0,0-1.82,1.47,2.13,2.13,0,0,0-.07.49Z"/><path class="cls-8" d="M69,36.18a2.12,2.12,0,0,0,2.27,2.29,4.35,4.35,0,0,0,1.82-.34l.21.86a5.45,5.45,0,0,1-2.2.4,3.06,3.06,0,0,1-3.24-3.32c0-2,1.17-3.56,3.09-3.56,2.16,0,2.73,1.9,2.73,3.11a5.53,5.53,0,0,1,0,.56Zm3.52-.86a1.71,1.71,0,0,0-1.66-2,2,2,0,0,0-1.84,2Z"/><path class="cls-8" d="M79.56,36.37l-1,2.89H77.38l3.12-9.19h1.43l3.13,9.19H83.8l-1-2.89Zm3-.93-.9-2.64c-.2-.6-.34-1.15-.48-1.68h0c-.14.55-.29,1.11-.47,1.67l-.9,2.65Z"/><path class="cls-8" d="M86.33,34.45c0-.68,0-1.24,0-1.79h1.06l.07,1.09h0a2.44,2.44,0,0,1,2.18-1.24c.92,0,2.33.55,2.33,2.81v3.94H90.75v-3.8c0-1.07-.4-2-1.53-2a1.72,1.72,0,0,0-1.61,1.22,1.89,1.89,0,0,0-.08.56v4h-1.2Z"/><path class="cls-8" d="M95.23,30.81a.75.75,0,0,1-1.49,0,.74.74,0,0,1,.75-.75A.72.72,0,0,1,95.23,30.81Zm-1.34,8.45v-6.6h1.2v6.6Z"/><path class="cls-8" d="M97.08,34.45c0-.68,0-1.24,0-1.79h1l0,1.07h0a2.27,2.27,0,0,1,2.07-1.22,2,2,0,0,1,1.87,1.32h0a2.68,2.68,0,0,1,.73-.85,2.28,2.28,0,0,1,1.46-.47c.87,0,2.17.57,2.17,2.86v3.89h-1.17V35.52c0-1.26-.47-2-1.43-2a1.55,1.55,0,0,0-1.42,1.09,1.89,1.89,0,0,0-.1.6v4.08h-1.17V35.31c0-1.05-.46-1.82-1.38-1.82a1.81,1.81,0,0,0-1.58,1.79v4H97.08Z"/><path class="cls-8" d="M112.1,39.26l-.1-.83h0a2.47,2.47,0,0,1-2,1,1.88,1.88,0,0,1-2-1.9c0-1.59,1.42-2.46,4-2.45v-.14a1.35,1.35,0,0,0-1.49-1.52,3.27,3.27,0,0,0-1.72.49l-.27-.79a4,4,0,0,1,2.16-.59c2,0,2.51,1.38,2.51,2.7v2.47a9.48,9.48,0,0,0,.11,1.58Zm-.18-3.37c-1.31,0-2.79.21-2.79,1.49a1.06,1.06,0,0,0,1.13,1.14,1.63,1.63,0,0,0,1.59-1.1,1.27,1.27,0,0,0,.07-.38Z"/><path class="cls-8" d="M116.41,30.77v1.89h1.71v.92h-1.71v3.55c0,.82.23,1.28.89,1.28a2.73,2.73,0,0,0,.7-.08l0,.9a2.84,2.84,0,0,1-1.06.16,1.63,1.63,0,0,1-1.29-.5,2.44,2.44,0,0,1-.47-1.72V33.58h-1v-.92h1V31.08Z"/><path class="cls-8" d="M120.06,36.18a2.11,2.11,0,0,0,2.26,2.29,4.28,4.28,0,0,0,1.82-.34l.21.86a5.39,5.39,0,0,1-2.19.4,3.06,3.06,0,0,1-3.25-3.32c0-2,1.17-3.56,3.1-3.56,2.15,0,2.72,1.9,2.72,3.11a5.53,5.53,0,0,1,0,.56Zm3.51-.86a1.7,1.7,0,0,0-1.66-2,2,2,0,0,0-1.84,2Z"/><path class="cls-8" d="M135.56,39a5.81,5.81,0,0,1-2.42.43,4.29,4.29,0,0,1-4.54-4.64,4.57,4.57,0,0,1,4.8-4.83,5,5,0,0,1,2.18.41l-.29,1a4.29,4.29,0,0,0-1.85-.38c-2.15,0-3.59,1.37-3.59,3.79a3.34,3.34,0,0,0,3.53,3.69,4.78,4.78,0,0,0,1.94-.38Z"/><path class="cls-8" d="M143.18,39a5.85,5.85,0,0,1-2.42.43,4.29,4.29,0,0,1-4.54-4.64A4.57,4.57,0,0,1,141,29.92a4.94,4.94,0,0,1,2.18.41l-.28,1a4.29,4.29,0,0,0-1.85-.38c-2.16,0-3.59,1.37-3.59,3.79A3.34,3.34,0,0,0,141,38.4a4.82,4.82,0,0,0,1.94-.38Z"/></svg>