<?xml version="1.0" standalone="no"?>
<!DOCTYPE svg PUBLIC "-//W3C//DTD SVG 20010904//EN"
 "http://www.w3.org/TR/2001/REC-SVG-20010904/DTD/svg10.dtd">
<svg version="1.0" xmlns="http://www.w3.org/2000/svg"
 width="625.000000pt" height="292.000000pt" viewBox="0 0 625.000000 292.000000"
 preserveAspectRatio="xMidYMid meet">

<g transform="translate(0.000000,292.000000) scale(0.100000,-0.100000)"
fill="#000000" stroke="none">
<path d="M672 2198 c-19 -32 -75 -148 -128 -266 -77 -172 -209 -554 -284 -822
-35 -124 -90 -345 -90 -360 0 -20 78 -43 169 -50 l95 -8 60 37 61 36 2 60 c4
94 24 223 36 233 7 5 73 17 147 27 74 9 188 25 253 34 65 10 120 15 122 12 11
-19 56 -210 67 -284 l12 -89 44 -30 c43 -30 46 -30 131 -24 91 7 181 25 181
37 0 6 -114 425 -170 625 -15 56 -37 123 -48 150 -11 27 -45 114 -75 194 -78
205 -115 290 -179 410 l-55 105 -166 3 -165 2 -20 -32z m248 -505 c23 -65 44
-122 47 -129 3 -7 -31 -31 -84 -60 -48 -26 -110 -60 -137 -76 -26 -16 -50 -27
-53 -25 -2 3 9 38 25 79 63 159 112 290 112 302 0 18 20 35 35 30 7 -3 31 -57
55 -121z"/>
<path d="M3968 1767 c-61 -18 -88 -36 -122 -85 -37 -54 -45 -96 -46 -228 0
-175 35 -251 137 -296 62 -27 171 -27 233 0 102 45 140 128 140 302 0 162 -37
247 -124 290 -55 26 -156 34 -218 17z m155 -88 c14 -6 35 -30 48 -53 22 -37
24 -52 24 -171 0 -113 -3 -135 -20 -165 -29 -49 -78 -72 -137 -66 -100 11
-123 55 -123 236 0 139 15 188 64 215 31 17 111 19 144 4z"/>
<path d="M4572 1761 c-65 -22 -85 -40 -117 -104 -23 -47 -25 -61 -25 -192 0
-154 7 -190 45 -246 73 -104 300 -111 369 -10 27 39 46 83 46 107 0 10 -13 14
-50 14 -48 0 -49 -1 -68 -44 -23 -52 -67 -72 -132 -61 -55 9 -87 49 -96 121
-9 78 1 253 17 287 39 84 195 74 214 -13 6 -29 9 -30 62 -30 l55 0 -7 33 c-8
37 -36 86 -62 109 -23 21 -117 48 -162 48 -20 -1 -60 -9 -89 -19z"/>
<path d="M2216 1683 c-15 -49 -42 -137 -61 -198 -18 -60 -49 -161 -68 -222
l-35 -113 58 0 c55 0 58 1 64 28 4 15 14 51 22 80 l15 52 108 0 109 0 20 -76
c12 -42 23 -78 25 -81 3 -2 30 -3 60 -1 l56 3 -28 85 c-16 47 -48 146 -71 220
-24 74 -56 174 -73 223 l-30 87 -72 0 -73 0 -26 -87z m139 -133 c19 -63 35
-123 35 -132 0 -16 -10 -18 -75 -18 -51 0 -75 4 -75 12 0 19 74 270 77 261 1
-4 18 -60 38 -123z"/>
<path d="M2674 1756 c-3 -8 -4 -120 -2 -248 l3 -233 28 -48 c55 -94 173 -118
287 -59 l60 31 0 -25 c0 -22 4 -24 50 -24 l50 0 -2 308 -3 307 -52 3 -53 3 0
-239 0 -240 -34 -30 c-56 -49 -153 -54 -192 -10 -17 18 -20 45 -24 267 l-5
246 -53 3 c-39 2 -54 -1 -58 -12z"/>
<path d="M3264 1756 c-3 -8 -4 -27 -2 -43 l3 -28 88 -3 87 -3 0 -264 0 -265
55 0 55 0 0 265 0 265 85 0 85 0 0 45 0 45 -225 0 c-185 0 -227 -3 -231 -14z"/>
<path d="M5139 1743 c-6 -15 -21 -66 -35 -112 -31 -106 -78 -260 -115 -376
-16 -50 -29 -93 -29 -98 0 -4 25 -7 55 -7 l54 0 15 53 c8 28 18 64 22 80 l6
27 109 0 108 0 24 -77 23 -78 57 -3 c31 -2 57 0 57 3 0 8 -155 494 -178 560
l-18 50 -72 3 c-71 3 -72 2 -83 -25z m124 -204 c21 -72 37 -133 34 -135 -2 -3
-38 -4 -79 -2 l-75 3 35 133 c20 72 39 132 42 132 3 0 22 -59 43 -131z"/>
<path d="M5610 1461 l0 -311 123 0 c152 0 208 15 260 68 52 53 67 110 67 246
0 137 -11 176 -62 232 -51 56 -81 64 -250 71 l-138 6 0 -312z m288 196 c41
-38 52 -79 52 -199 0 -172 -32 -216 -159 -226 l-71 -5 0 228 0 227 79 -3 c59
-3 84 -9 99 -22z"/>
</g>
</svg>
