<?xml version="1.0" encoding="utf-8"?>
<!-- Generator: Adobe Illustrator 25.2.3, SVG Export Plug-In . SVG Version: 6.00 Build 0)  -->
<svg version="1.1" id="Layer_1" xmlns="http://www.w3.org/2000/svg" xmlns:xlink="http://www.w3.org/1999/xlink" x="0px" y="0px"
	 viewBox="0 0 150 70" style="enable-background:new 0 0 150 70;" xml:space="preserve">
<style type="text/css">
	.st0{fill:#010101;}
	.st1{fill:#DE2C2A;}
	.st2{fill:#762428;}
	.st3{fill:#962526;}
	.st4{fill:#A22425;}
	.st5{fill:#982526;}
	.st6{fill:#9B2526;}
	.st7{fill:#912F35;}
	.st8{fill:#9F2425;}
	.st9{fill:#912525;}
	.st10{fill:#842C31;}
	.st11{fill:#A52424;}
	.st12{fill:#972E33;}
	.st13{fill:#832426;}
	.st14{fill:#882426;}
	.st15{fill:#8C2425;}
	.st16{fill:#A92325;}
	.st17{fill:#8A2D32;}
	.st18{fill:#E37E77;}
	.st19{fill:#D87871;}
	.st20{fill:#7D292E;}
	.st21{fill:#A82A32;}
	.st22{fill:#AF2C33;}
	.st23{fill:#060606;}
	.st24{fill:#972B30;}
	.st25{fill:#A92A2F;}
	.st26{fill:#A02D31;}
	.st27{fill:#E9827B;}
	.st28{fill:#952B30;}
	.st29{fill:#77282C;}
	.st30{fill:#A02C31;}
	.st31{fill:#71272A;}
	.st32{fill:#A52B31;}
	.st33{fill:#9C2D32;}
	.st34{fill:#B02C32;}
	.st35{fill:#A72B32;}
	.st36{fill:#8E2A2F;}
	.st37{fill:#9A2B31;}
	.st38{fill:#8E2B30;}
	.st39{fill:#BD3336;}
	.st40{fill:#FFFFFF;}
	.st41{fill:#CA2327;}
	.st42{fill:#BC2426;}
	.st43{fill:#BE2527;}
	.st44{fill:#BF2627;}
	.st45{fill:#AD2425;}
	.st46{fill:#C42527;}
	.st47{fill:#C32527;}
	.st48{fill:#B92526;}
	.st49{fill:#C52427;}
	.st50{fill:#B22525;}
	.st51{fill:#B62525;}
	.st52{fill:#7D2426;}
	.st53{fill:#D6756F;}
	.st54{fill:#DE7A74;}
	.st55{fill:#CF706B;}
	.st56{fill:#D87770;}
	.st57{fill:#AA2325;}
	.st58{fill:#A1534E;}
	.st59{fill:#AE2425;}
	.st60{fill:#B42525;}
	.st61{fill:#CA6E67;}
	.st62{fill:#C26A63;}
	.st63{fill:#D0716B;}
	.st64{fill:#CF6C67;}
	.st65{fill:#B82526;}
	.st66{fill:#C36763;}
	.st67{fill:#D5746E;}
	.st68{fill:#D16F69;}
	.st69{fill:#912425;}
	.st70{fill:#CC6F68;}
	.st71{fill:#FEFEFE;}
	.st72{fill:#BA645E;}
	.st73{fill:#AF5D57;}
	.st74{fill:#B5605A;}
	.st75{fill:#BE6760;}
	.st76{fill:#AE292C;}
	.st77{fill:#8A2426;}
	.st78{fill:#C86B66;}
	.st79{fill:#AE5C56;}
	.st80{fill:#B25E59;}
	.st81{fill:#B7615C;}
	.st82{fill:#AA5954;}
	.st83{fill:#BD6660;}
	.st84{fill:#A95853;}
	.st85{fill:#A65651;}
	.st86{fill:#722528;}
	.st87{fill:#B12625;}
	.st88{fill:#B52525;}
	.st89{fill:#AE2525;}
	.st90{fill:#772427;}
	.st91{fill:#B25957;}
	.st92{fill:#CD6C66;}
	.st93{fill:#080707;}
	.st94{fill:#B9605C;}
	.st95{fill:#AE5856;}
	.st96{fill:#6F292E;}
	.st97{fill:#762E33;}
	.st98{fill:#7E3539;}
	.st99{fill:#A14E4E;}
	.st100{fill:#9C4B4C;}
	.st101{fill:#A24F4F;}
	.st102{fill:#8C3E41;}
	.st103{fill:#7C3438;}
	.st104{fill:#964648;}
	.st105{fill:#914244;}
	.st106{fill:#BF615F;}
	.st107{fill:#883B3F;}
	.st108{fill:#B15957;}
	.st109{fill:#A95353;}
	.st110{fill:#863A3E;}
	.st111{fill:#924345;}
	.st112{fill:#B55C5A;}
	.st113{fill:#AD5655;}
	.st114{fill:#B95E5C;}
	.st115{fill:#C96B66;}
	.st116{fill:#82383A;}
	.st117{fill:#C56763;}
	.st118{fill:#CD6F69;}
	.st119{fill:#AA5454;}
	.st120{fill:#D06E68;}
	.st121{fill:#CF6D67;}
	.st122{fill:#FAF9F9;}
</style>
<g>
	<path class="st0" d="M89.1,36.3c0-1.1-0.1-2.1,0.1-3.2c0.4-2.3,2-4,4.3-4.4c1.4-0.3,2.8-0.2,4.1,0.2c2,0.7,3.2,2.2,3.5,4.2
		c0.3,1.4,0.1,2.7,0.1,4.1c0,0.8,0,1.6-0.2,2.4c-0.5,2.3-2.3,3.9-4.6,4.2c-1.4,0.2-2.8,0.1-4.1-0.4c-2-0.8-3-2.4-3.3-4.4
		C89.1,38.1,89.2,37.2,89.1,36.3z"/>
	<path class="st0" d="M132.6,36.3c0-2.4,0-4.7,0-7.1c0-0.3,0.1-0.4,0.4-0.4c1.6,0,3.2,0,4.8,0c1.1,0,2.2,0.3,3.2,0.8
		c1.5,0.9,2.3,2.3,2.4,4.1c0.2,1.6,0.2,3.2,0,4.8c-0.3,2.5-1.7,4.4-4.4,5c-0.7,0.2-1.4,0.2-2.1,0.2c-1.3,0-2.7,0-4,0
		c-0.3,0-0.3-0.1-0.3-0.3C132.6,41,132.6,38.6,132.6,36.3z"/>
	<path class="st0" d="M70.9,42.4c-0.7,0.7-1.5,1.2-2.4,1.4c-1.6,0.4-3.1,0.3-4.5-0.6c-1.2-0.8-1.7-2-1.9-3.3C62,39.4,62,39,62,38.5
		c0-3.1,0-6.2,0-9.3c0-0.3,0.1-0.3,0.3-0.3c0.7,0,1.4,0,2.1,0c0.3,0,0.3,0.1,0.3,0.3c0,3.3,0,6.6,0,9.9c0,0.8,0.1,1.5,0.7,2.1
		c0.4,0.4,0.9,0.7,1.5,0.7c1.4,0.2,2.6-0.2,3.6-1.3c0.2-0.2,0.3-0.4,0.3-0.7c0-3.6,0-7.2,0-10.7c0-0.3,0.1-0.4,0.4-0.3
		c0.7,0,1.3,0,2,0c0.3,0,0.4,0.1,0.4,0.3c0,2.7,0,5.5,0,8.2c0,2,0,4,0,6c0,0.3-0.1,0.3-0.3,0.3c-0.6,0-1.2,0-1.8,0
		c-0.2,0-0.3,0-0.3-0.3C71,43.1,70.9,42.8,70.9,42.4z"/>
	<path class="st0" d="M129.9,43.7c-0.9,0-1.8,0-2.6,0c-0.2,0-0.2-0.2-0.2-0.3c-0.4-1.1-0.7-2.2-1.1-3.3c-0.1-0.2-0.2-0.3-0.4-0.3
		c-1.5,0-3,0-4.5,0c-0.2,0-0.3,0.1-0.4,0.3c-0.3,1.1-0.6,2.2-0.9,3.3c-0.1,0.2-0.2,0.3-0.4,0.3c-0.7,0-1.4,0-2.1,0
		c-0.3,0-0.3-0.1-0.2-0.3c1.3-4.3,2.6-8.6,3.9-12.8c0.2-0.5,0.3-1,0.4-1.5c0.1-0.2,0.2-0.3,0.4-0.3c1,0,2,0,3.1,0
		c0.2,0,0.3,0.1,0.4,0.3c1.1,3.5,2.3,7.1,3.4,10.6c0.4,1.3,0.8,2.5,1.2,3.8C129.9,43.6,129.9,43.7,129.9,43.7z"/>
	<path class="st0" d="M60,43.7c-0.9,0-1.8,0-2.6,0c-0.2,0-0.2-0.2-0.2-0.3c-0.4-1.1-0.7-2.2-1.1-3.3c-0.1-0.2-0.1-0.3-0.4-0.3
		c-1.5,0-3,0-4.5,0c-0.2,0-0.3,0.1-0.4,0.3c-0.3,1.1-0.6,2.2-0.9,3.3c-0.1,0.2-0.1,0.3-0.4,0.3c-0.8,0-1.6,0-2.4,0
		c0.5-1.5,0.9-3,1.4-4.5c1-3.3,2.1-6.7,3.1-10c0.1-0.2,0.2-0.4,0.4-0.3c1,0,2,0,3.1,0c0.2,0,0.3,0,0.3,0.2c1.5,4.8,3.1,9.7,4.6,14.5
		C60,43.6,60,43.6,60,43.7z"/>
	<path class="st0" d="M107,36.5c0,0.8,0,1.7,0,2.6c0.2,2,1.6,3,3.5,2.8c0.9-0.1,1.7-0.4,2-1.4c0.1-0.3,0.2-0.6,0.2-1
		c0-0.2,0.1-0.2,0.2-0.2c0.7,0,1.4,0,2.2,0c0.2,0,0.2,0.1,0.2,0.2c-0.2,2.1-1.3,3.7-3.7,4.3c-1.5,0.3-2.9,0.3-4.3-0.3
		c-1.7-0.7-2.6-2.1-3-3.8c-0.1-0.8-0.1-1.5-0.1-2.3c0-1.3,0-2.6,0-3.9c0.1-2.4,1.8-4.3,4.2-4.7c1.5-0.3,3-0.2,4.5,0.5
		c1.5,0.8,2.3,2.1,2.4,3.8c0,0.2-0.1,0.2-0.2,0.2c-0.7,0-1.4,0-2.1,0c-0.2,0-0.3,0-0.3-0.2c-0.2-1.5-0.8-2.1-2.3-2.3
		c-1.1-0.1-2.1,0.1-2.8,1c-0.5,0.7-0.7,1.5-0.7,2.3C107,34.7,107,35.5,107,36.5z"/>
	<path class="st0" d="M83.1,37.3c0,2,0,4.1,0,6.1c0,0.2-0.1,0.3-0.3,0.3c-0.7,0-1.4,0-2.1,0c-0.3,0-0.3-0.1-0.3-0.3
		c0-4,0-8.1,0-12.1c0-0.3-0.1-0.4-0.4-0.4c-1.2,0-2.3,0-3.5,0c-0.3,0-0.4-0.1-0.3-0.4c0-0.5,0-0.9,0-1.4c0-0.3,0.1-0.3,0.3-0.3
		c3,0,5.9,0,8.9,0c0.5,0,1,0,1.5,0c0.3,0,0.3,0.1,0.3,0.3c0,0.5,0,1,0,1.5c0,0.2-0.1,0.3-0.3,0.3c-1.2,0-2.4,0-3.6,0
		c-0.2,0-0.3,0.1-0.3,0.3C83.1,33.3,83.1,35.3,83.1,37.3z"/>
	<path class="st1" d="M16.3,17.9c1.3,0,2.6,0,4,0c0.5,0,1.1,0,1.6,0c0.2,0,0.4,0.1,0.5,0.3c1.6,2.8,3,5.7,4.2,8.6
		c1.3,3.1,2.4,6.2,3.6,9.4c0.8,2.3,1.4,4.6,2,7c0.4,1.3,0.7,2.6,1.1,3.9c0,0.1,0,0.2,0,0.3c-0.1,0-0.2-0.1-0.2-0.2
		c-0.1-0.3-0.2-0.5-0.3-0.8c-0.3-1-0.7-1.9-1-2.8c-0.1-0.5-0.3-0.9-0.5-1.3c-0.1-0.4-0.3-0.8-0.4-1.1c-0.3-0.7-0.6-1.4-0.8-2.1
		c-0.2-0.5-0.4-1-0.7-1.6c-0.2-0.5-0.4-0.9-0.6-1.4c-0.2-0.6-0.5-1.2-0.8-1.8c-0.2-0.5-0.4-0.9-0.6-1.4c-1.1-2.5-2.3-4.9-3.5-7.4
		C23,23.5,22,21.6,21,19.7c-0.2-0.5-0.5-0.9-0.7-1.4c-0.1-0.2-0.3-0.3-0.5-0.3c-0.2,0-0.5,0-0.7,0c-0.6,0-1.2,0-1.8,0
		C17,17.9,16.7,18,16.3,17.9C16.3,17.9,16.3,17.9,16.3,17.9z"/>
	<path class="st2" d="M3.7,54.5c-0.7-0.2-1.4-0.6-2-0.9c-0.2-0.1-0.1-0.2-0.1-0.4c0.3-1.5,0.7-3,1.1-4.4c0.2-0.8,0.4-1.5,0.6-2.3
		c0.1-0.1,0.1-0.3,0.2-0.4c0.1,0,0.2,0.1,0.3,0.2c0.6,1,1.1,2,1.8,3c0,0,0,0,0,0.1c0,0.2-0.1,0.4-0.2,0.6c-0.2,0.4-0.3,0.8-0.5,1.2
		c-0.1,0.3-0.2,0.5-0.3,0.8c-0.1,0.3-0.2,0.6-0.3,0.9c-0.1,0.4-0.3,0.9-0.4,1.3C3.8,54.2,3.8,54.4,3.7,54.5z"/>
	<path class="st3" d="M18.9,44.8C18,44.9,17,45,16.1,45.2C16,45.1,16,45,16,45c-0.2-1.2-0.4-2.4-0.6-3.6c0-0.1,0-0.2,0.1-0.3
		c0.1-0.1,0.2-0.1,0.3-0.2c0.8-0.2,1.5-0.5,2.3-0.7c0.1,0,0.3-0.1,0.4,0c0.1,0.1,0.1,0.2,0.1,0.3c0.2,1.3,0.4,2.6,0.6,3.8
		C19.2,44.5,19.3,44.8,18.9,44.8z"/>
	<path class="st4" d="M24.5,44.1c-0.1,0-0.2,0-0.3,0c-0.3,0.1-0.3-0.1-0.3-0.3c-0.1-0.4-0.1-0.9-0.2-1.3c-0.1-1-0.3-2-0.5-3
		c0-0.2-0.1-0.4,0-0.6c0.1-0.1,0.2-0.1,0.3-0.2c0.3-0.1,0.7-0.2,1-0.2c0.1,0,0.3,0,0.4,0c0.1,0.2,0.2,0.4,0.2,0.7
		c0.1,1.1,0.4,2.2,0.5,3.4c0.1,0.5,0.2,0.9,0.2,1.4c0,0.1-0.1,0.1-0.3,0.2c-0.3,0-0.5,0.1-0.8,0.1C24.6,44.2,24.5,44.1,24.5,44.1z"
		/>
	<path class="st5" d="M18.9,44.8c0.2-0.1,0.2-0.2,0.2-0.4c-0.2-1.3-0.4-2.6-0.6-3.9c0-0.1,0-0.2-0.1-0.3c0-0.1,0.2-0.2,0.3-0.2
		c0.5-0.1,0.9-0.3,1.4-0.4c0.1,0,0.2,0,0.3,0c0.2,0.5,0.2,1,0.3,1.5c0.1,1,0.3,2,0.5,3c0,0.1,0.1,0.3-0.1,0.4
		C20.3,44.6,19.6,44.7,18.9,44.8z"/>
	<path class="st6" d="M21,44.5c0-0.1,0.1-0.1,0-0.2c-0.2-1.2-0.4-2.3-0.5-3.5c0-0.4-0.1-0.8-0.2-1.1c0-0.1,0.1-0.1,0.2-0.2
		c0.4-0.1,0.8-0.2,1.3-0.3c0.1,0,0.2,0,0.2,0.1c0.2,0.6,0.2,1.2,0.3,1.8c0.2,0.9,0.3,1.9,0.4,2.8c0,0.2,0.1,0.3,0.2,0.4
		C22.3,44.3,21.7,44.4,21,44.5z"/>
	<path class="st7" d="M9.5,27.6c0.5-1.3,1-2.5,1.6-3.8c0,0,0.1,0,0.1,0c0.5,0.3,1,0.6,1.4,1c0,0,0,0.1,0,0.1
		c-0.2,0.6-0.6,1.2-0.8,1.8c-0.2,0.4-0.4,0.7-0.5,1.1c-0.2,0.3-0.2,0.6-0.5,0.8C10.3,28.3,9.9,28.1,9.5,27.6z"/>
	<path class="st8" d="M23,44.2c-0.1,0-0.3,0-0.3-0.2c-0.1-0.8-0.2-1.5-0.3-2.3c-0.1-0.6-0.1-1.2-0.3-1.8C22,39.7,22,39.5,22,39.2
		c0.4-0.3,0.8-0.4,1.2-0.3c0,0.6,0.2,1.2,0.2,1.8c0.1,1,0.3,2,0.4,3c0,0.2,0,0.4,0.3,0.4C23.8,44.2,23.4,44.2,23,44.2z"/>
	<path class="st4" d="M34,49.5c0.2,0.8,0.5,1.6,0.7,2.4c-0.2,0.2-0.6,0.2-0.9,0.3c-0.4,0.1-0.8,0.2-1.3,0.2
		c-0.3-0.1-0.3-0.4-0.4-0.7c-0.1-0.4-0.3-0.7-0.4-1c0-0.2-0.2-0.4-0.2-0.6c0.1-0.1,0.1-0.1,0.2-0.1c0.7,0,1.3-0.2,2-0.4
		C33.8,49.5,33.9,49.5,34,49.5z"/>
	<path class="st9" d="M15.6,41c-0.1,0.4,0.1,0.7,0.1,1.1c0.1,1,0.4,2,0.4,3.1c-0.4,0.1-0.9,0.1-1.3,0.2c-0.1-0.1-0.2-0.2-0.2-0.3
		c-0.2-1.1-0.3-2.2-0.5-3.3c0-0.1,0-0.2,0-0.2c0-0.1,0.1-0.1,0.2-0.2c0.3-0.1,0.7-0.2,1-0.3C15.4,41,15.5,41,15.6,41z"/>
	<path class="st10" d="M7,34.5C7.5,33,8,31.6,8.5,30.2c0,0,0.1-0.1,0.1,0c0.4,0.2,0.8,0.4,1,0.8c0,0.2-0.1,0.4-0.2,0.7
		c-0.2,0.5-0.5,1.1-0.7,1.6c-0.2,0.5-0.4,1-0.7,1.5C8,34.9,8,35.1,7.8,35.1C7.5,34.9,7.2,34.7,7,34.5z"/>
	<path class="st11" d="M34,49.5c-0.7,0.2-1.4,0.5-2.1,0.5c-0.1,0-0.2,0-0.3,0c-0.3-0.2-0.3-0.5-0.4-0.7C31,49.2,31,49.1,30.9,49
		c-0.1-0.3-0.3-0.5-0.3-0.8c0-0.2,0.1-0.2,0.3-0.2c0.7-0.1,1.4-0.2,2.1-0.4c0.2,0,0.3-0.1,0.4,0.2C33.7,48.3,33.8,48.9,34,49.5z"/>
	<path class="st12" d="M12.6,24.9c-0.5-0.4-0.9-0.7-1.5-1c0.3-0.8,0.7-1.5,1.1-2.2c0.5,0.2,1,0.6,1.5,1c0.1,0,0.1,0.1,0.1,0.2
		c0,0.1,0,0.1,0,0.2c-0.3,0.6-0.6,1.2-0.9,1.8C12.8,24.8,12.7,24.9,12.6,24.9z"/>
	<path class="st13" d="M12.5,45.7c-0.2,0-0.5,0.1-0.7,0.1c-0.2,0.1-0.4,0.2-0.6,0.1c-0.1-0.1-0.1-0.2-0.1-0.3
		c-0.1-1-0.3-1.9-0.4-2.9c0-0.1,0.1-0.2,0.2-0.2c0.3-0.1,0.7-0.3,1-0.3c0.1,0,0.1,0,0.2,0.1c0.2,0.5,0.2,1,0.3,1.4
		c0.1,0.5,0.2,1,0.2,1.6C12.6,45.4,12.6,45.6,12.5,45.7z"/>
	<path class="st14" d="M12.5,45.7c-0.1-0.7-0.2-1.4-0.3-2.1c-0.1-0.4-0.1-0.9-0.2-1.4c0.4-0.3,0.7-0.5,1.2-0.4
		c0.1,0.1,0.1,0.2,0.1,0.3c0.1,1,0.3,2,0.5,3c0,0.1,0,0.3-0.1,0.4C13.3,45.6,12.9,45.7,12.5,45.7z"/>
	<path class="st6" d="M32.4,52.3c0.7-0.1,1.5-0.3,2.2-0.5c0.2,0.5,0.3,1.1,0.5,1.6c0,0.1,0,0.2-0.1,0.2c-0.6,0.2-1.3,0.4-1.9,0.6
		c-0.1-0.1-0.2-0.2-0.2-0.3c-0.1-0.3-0.2-0.6-0.3-0.9c-0.1-0.2-0.1-0.4-0.2-0.6C32.4,52.4,32.4,52.4,32.4,52.3z"/>
	<path class="st15" d="M13.7,45.5c-0.1-0.7-0.2-1.4-0.3-2.2c-0.1-0.5-0.1-1-0.2-1.5c0.3-0.3,0.7-0.4,1.1-0.4c0,0.5,0.1,1,0.2,1.5
		c0.1,0.8,0.2,1.6,0.4,2.4C14.4,45.4,14.1,45.5,13.7,45.5z"/>
	<path class="st16" d="M33.5,47.7c-0.3-0.2-0.6,0-0.8,0c-0.5,0.1-1.1,0.2-1.6,0.3c-0.1,0-0.3,0-0.3,0.2c0,0-0.1,0-0.1,0
		c-0.2-0.4-0.4-0.8-0.6-1.2c0-0.1-0.1-0.2,0-0.4c0.4-0.1,0.8-0.1,1.2-0.2c0.4-0.1,0.9-0.1,1.3-0.3c0.1,0,0.3-0.1,0.4,0
		c0.2,0.3,0.2,0.7,0.4,1C33.4,47.4,33.5,47.6,33.5,47.7z"/>
	<path class="st17" d="M9.6,31c-0.3-0.3-0.7-0.6-1.1-0.8c0.3-0.9,0.6-1.7,1-2.6c0.4,0.3,0.8,0.6,1.3,0.9c0.1,0.2-0.1,0.3-0.1,0.5
		c0,0.1-0.1,0.2-0.1,0.4c-0.2,0.4-0.4,0.8-0.6,1.3C9.9,30.8,9.8,30.9,9.6,31C9.7,31,9.7,31,9.6,31z"/>
	<path class="st18" d="M4.3,52.8c0.1-0.3,0.2-0.6,0.3-0.9c0.1,0,0.1,0,0.2,0.1c0.9,0.9,1.9,1.7,3,2.2c0.1,0.1,0.3,0.1,0.3,0.3
		c0,0.1,0,0.2-0.1,0.3c-0.4,0-0.8,0-1.2-0.1c-0.5,0-0.9-0.4-1.3-0.7c-0.1-0.1-0.2-0.2-0.4-0.3C4.8,53.5,4.5,53.1,4.3,52.8z"/>
	<path class="st19" d="M32.7,53.1c0.1,0.4,0.3,0.8,0.4,1.2c-0.6,0.1-1.2,0.1-1.8,0.2c-0.8,0.1-1.7,0.1-2.5,0.2c-0.1,0-0.1,0-0.2,0
		c0-0.1-0.1-0.2,0-0.3c0.2-0.2,0.5-0.2,0.8-0.3c0.6-0.1,1.1-0.3,1.7-0.4c0.5-0.2,1-0.4,1.5-0.6C32.5,53,32.6,53,32.7,53.1z"/>
	<path class="st20" d="M7,34.5c0.3,0.1,0.6,0.3,0.8,0.6c0,0,0,0.1,0,0.1c-0.2,0.7-0.5,1.3-0.8,2c-0.2,0.3-0.2,0.7-0.5,1.1
		c-0.3,0-0.4-0.3-0.7-0.3C6.2,36.7,6.6,35.6,7,34.5z"/>
	<path class="st21" d="M11.2,50.2c0,0.6,0,1.1-0.1,1.7c0,0.1-0.1,0.3-0.2,0.3c-0.4,0.2-0.8,0.5-1.2,0.7c-0.3,0.2-0.7,0.2-1,0.3
		c0,0-0.1,0-0.1-0.1c-0.1-0.3,0.1-0.5,0.2-0.7c0.1-0.2,0.1-0.4,0.2-0.6C9,51.8,9,51.6,9.2,51.5c0.1,0,0.2,0,0.4-0.1
		c0.5-0.2,0.9-0.4,1.3-0.6c0.1-0.1,0.2-0.2,0.2-0.3C11,50.4,11,50.3,11.2,50.2z"/>
	<path class="st22" d="M8.5,53.2c0.4-0.1,0.7-0.2,1.1-0.4c0.3-0.1,0.7-0.4,1-0.6c0.2-0.1,0.4-0.2,0.5-0.4c0.1,0.7-0.1,1.1-0.7,1.4
		c-0.7,0.4-1.4,0.8-2.1,1.3c-0.1,0.1-0.2,0.2-0.3,0.1c0-0.1,0-0.2,0.1-0.3c0-0.3,0.1-0.5,0.2-0.7C8.3,53.6,8.3,53.3,8.5,53.2z"/>
	<path class="st23" d="M148.5,30.7c0,1.2-0.6,1.8-1.7,1.8c-1,0-1.9-0.7-1.8-1.9c0.1-1.1,0.7-1.7,1.9-1.7
		C147.9,28.9,148.5,29.6,148.5,30.7z"/>
	<path class="st24" d="M11.5,47.3c-0.1,0.8-0.3,1.6-0.3,2.4c-0.4,0.3-0.9,0.5-1.4,0.7c-0.1,0-0.1,0-0.2-0.1c0-0.1,0-0.2,0-0.3
		c0.1-0.1,0.1-0.2,0.1-0.4c0.1-0.2,0.1-0.5,0.3-0.7c0.2-0.3,0.2-0.6,0.3-0.9c0.1-0.1,0.1-0.3,0.2-0.4c0.2-0.1,0.4-0.2,0.6-0.3
		C11.3,47.2,11.4,47.2,11.5,47.3z"/>
	<path class="st25" d="M16.3,17.9L16.3,17.9C16.3,17.9,16.3,17.9,16.3,17.9c-0.6,0.2-1.2,0.1-1.7,0.1c0.4,0.2,0.8,0.5,1.1,0.9
		c0,0.5-0.3,0.9-0.6,1.3c-0.5-0.3-1-0.6-1.5-1c-0.1-0.1-0.1-0.2,0-0.3c0.1-0.3,0.3-0.6,0.4-0.8c0-0.1,0.1-0.2,0.2-0.2
		C14.9,17.8,15.6,17.8,16.3,17.9z"/>
	<path class="st26" d="M12.5,21c0.2-0.5,0.4-0.9,0.7-1.4c0.5,0.3,0.9,0.6,1.4,0.9c0.1,0.1,0.2,0.2,0.1,0.3c-0.1,0.4-0.3,0.7-0.5,1.1
		c0,0.1-0.1,0.2-0.2,0.2c-0.4-0.3-0.8-0.6-1.3-0.9C12.7,21.1,12.6,21.1,12.5,21z"/>
	<path class="st27" d="M4.3,52.8c0.2,0.1,0.3,0.3,0.5,0.5c0.5,0.4,1,0.9,1.6,1.3c0.1,0.1,0.2,0.1,0.4,0.1c-1-0.1-2-0.1-3-0.2
		C3.9,53.9,4,53.3,4.3,52.8z"/>
	<path class="st28" d="M27.4,53.8c-0.3-0.2-0.6-0.4-0.9-0.6c-0.1-0.1-0.2-0.1-0.1-0.2c-0.1-0.1,0-0.3,0-0.4c0-0.1,0.1-0.2,0.2-0.3
		c0.4-0.1,0.7-0.3,1.1-0.3c0.2,0.1,0.2,0.2,0.3,0.4c0.1,0.2,0.1,0.4,0.2,0.5c0,0.2,0.2,0.4,0.2,0.7C28,53.7,27.7,53.8,27.4,53.8z"/>
	<path class="st29" d="M5.9,37.9c0.4-0.1,0.5,0.2,0.7,0.3c0.1,0.2-0.1,0.4-0.1,0.6c-0.3,0.8-0.6,1.6-0.9,2.3c0,0.1-0.1,0.2-0.2,0.3
		C5.1,41.3,5,41.1,4.9,41C5.2,40,5.5,38.9,5.9,37.9z"/>
	<path class="st30" d="M9.6,50.3c0.2,0.1,0.3,0,0.4-0.1c0.4-0.2,0.8-0.3,1.2-0.5c0,0.2,0,0.4,0,0.5c0.1,0.7-0.5,0.7-0.9,1
		c-0.3,0.2-0.6,0.3-0.8,0.4c-0.1,0.1-0.2,0.1-0.2-0.1c-0.1-0.1,0-0.2,0-0.3c0.1-0.2,0.1-0.3,0.2-0.5C9.5,50.6,9.4,50.3,9.6,50.3z"/>
	<path class="st31" d="M4.9,41c0.2,0.1,0.4,0.1,0.4,0.4c0,0.4-0.2,0.8-0.4,1.2c-0.1,0.2-0.2,0.5-0.3,0.7C4.3,44.1,4,45,3.7,45.8
		c0,0.1-0.1,0.2-0.2,0.3c-0.1,0.1-0.1,0.3-0.2,0.4c0.2-0.8,0.4-1.6,0.6-2.3C4.2,43.1,4.6,42.1,4.9,41z"/>
	<path class="st32" d="M14.7,20.8c0-0.2-0.1-0.2-0.2-0.3c-0.4-0.3-0.9-0.5-1.2-0.9c0.1-0.3,0.2-0.5,0.4-0.8c0,0.1,0,0.2,0.2,0.3
		c0.4,0.3,0.9,0.6,1.3,0.9c0.1,0.1,0,0.2-0.1,0.3C14.9,20.5,14.9,20.8,14.7,20.8z"/>
	<path class="st33" d="M12.5,21c0.4,0.3,0.8,0.5,1.2,0.8c0.1,0.1,0.3,0.2,0.3,0.4c0,0.3-0.1,0.5-0.3,0.7c-0.2-0.3-0.5-0.4-0.8-0.6
		c-0.2-0.2-0.5-0.3-0.7-0.5C12.3,21.4,12.4,21.2,12.5,21z"/>
	<path class="st34" d="M25.8,49.1c-0.2-0.8-0.4-1.7-0.6-2.5c0.1-0.1,0.2-0.2,0.3-0.2c0.2,0.1,0.2,0.2,0.2,0.4c0.1,0.3,0.3,0.7,0.4,1
		c0.1,0.3,0.2,0.6,0.3,0.9c0,0,0,0.1,0,0.1C26.3,49,26.1,49.2,25.8,49.1z"/>
	<path class="st30" d="M26.3,51.9c-0.1-0.5-0.1-1-0.2-1.4c0.3-0.2,0.5-0.3,0.9-0.3c0.2,0.1,0.2,0.3,0.3,0.4c0.1,0.2,0.3,0.5,0.2,0.7
		c-0.2,0.1-0.5,0.2-0.7,0.3C26.5,51.6,26.4,51.7,26.3,51.9z"/>
	<path class="st35" d="M26.9,50.2c-0.3,0.1-0.6,0.2-0.9,0.3c-0.1-0.4-0.2-0.9-0.3-1.3c0.2-0.1,0.4-0.1,0.6-0.3
		c0.3,0.2,0.3,0.6,0.5,0.9C26.9,49.9,27,50,26.9,50.2z"/>
	<path class="st36" d="M11.5,47.3c-0.3,0-0.5,0.4-0.9,0.4c-0.1-0.3,0-0.5,0.1-0.7c0.2-0.3,0.3-0.7,0.5-1c0,0,0,0,0,0
		c0.2,0,0.4-0.1,0.5-0.1C11.7,46.3,11.6,46.8,11.5,47.3z"/>
	<path class="st37" d="M26.3,51.9c0-0.2,0-0.3,0.2-0.3c0.3-0.1,0.6-0.2,0.9-0.3c0.2,0,0.2,0.2,0.2,0.3c0,0.1,0.1,0.2,0,0.3
		c-0.4,0.1-0.8,0.2-1.2,0.4c-0.1,0-0.1,0.1-0.1,0.2c0,0.1,0,0.2,0,0.4C26.3,52.6,26.3,52.2,26.3,51.9z"/>
	<path class="st38" d="M27.4,53.8c0.3-0.1,0.5-0.2,0.8-0.3c0.1,0,0.1,0,0.1,0.1c0.1,0.2,0.2,0.5,0.2,0.7c0,0.1,0.1,0.2,0,0.3
		C28.2,54.3,27.8,54.1,27.4,53.8z"/>
	<path class="st39" d="M25.5,46.5c-0.1,0-0.2,0.1-0.3,0.1c-0.2-0.8-0.5-1.7-0.7-2.5c0-0.1,0.1,0,0.1,0c0.2,0.1,0.2,0.4,0.3,0.5
		c0.2,0.5,0.4,0.9,0.5,1.3C25.4,46.1,25.6,46.3,25.5,46.5z"/>
	<path class="st40" d="M98.6,36.3c0,0.9,0,1.8-0.1,2.7c-0.2,1.7-1.4,2.8-3.1,2.9c-2,0.1-3.4-1.1-3.6-3.1c-0.1-1.7-0.1-3.3,0-5
		c0.1-2.1,1.8-3.4,3.9-3.1c1.6,0.3,2.5,1.3,2.7,2.9C98.7,34.5,98.6,35.4,98.6,36.3z"/>
	<path class="st40" d="M135.3,36.3c0-1.7,0-3.4,0-5c0-0.2,0.1-0.3,0.3-0.3c0.9,0,1.8-0.1,2.7,0.1c1.3,0.3,2.2,1.2,2.4,2.5
		c0.2,0.9,0.1,1.9,0.1,2.8c0,0.9,0.1,1.7-0.2,2.6c-0.4,1.7-1.5,2.6-3.3,2.6c-0.6,0-1.2,0-1.9,0c-0.2,0-0.3-0.1-0.3-0.3
		C135.4,39.7,135.3,38,135.3,36.3z"/>
	<path class="st40" d="M121.4,37.7c0.6-2.3,1.3-4.5,1.9-6.9c0.4,1.5,0.8,3,1.3,4.4c0.2,0.7,0.4,1.5,0.6,2.2c0,0.2,0.1,0.2-0.1,0.2
		C123.8,37.6,122.6,37.7,121.4,37.7z"/>
	<path class="st40" d="M53.4,30.8c0.5,1.8,1,3.6,1.5,5.3c0.1,0.4,0.2,0.9,0.4,1.3c0.1,0.2,0,0.2-0.2,0.2c-1.2,0-2.4,0-3.6,0
		C52.1,35.4,52.7,33.1,53.4,30.8z"/>
	<path class="st41" d="M19.2,17.9c1-0.1,1-0.1,1.4,0.8c1,1.9,2,3.8,2.9,5.8c1.2,2.4,2.4,4.9,3.5,7.4c0.1,0.3,0.3,0.6,0.4,0.9
		c-0.2,0.1-0.3,0.1-0.5,0.1c-0.4-0.1-0.8-0.2-1.1-0.3c-1.2-0.4-2.2-1.2-3.1-2.1c-0.1-0.1-0.3-0.3-0.5-0.4c-0.2-0.2-0.3-0.4-0.4-0.7
		c-0.7-1.4-1.3-2.8-2-4.1c-0.3-0.5-0.5-1-0.7-1.5c0-0.1-0.1-0.2-0.1-0.3c0-0.6-0.2-1.2-0.2-1.8c0-0.7,0-1.4,0-2.2
		c0-0.4,0.1-0.9,0.2-1.3C19.1,18,19.1,17.9,19.2,17.9z"/>
	<path class="st42" d="M29.4,37.3c0.2,0.5,0.4,1,0.7,1.5c-0.1,0.1-0.2,0.1-0.3,0.1c-1.2,0.2-2.4,0.1-3.5-0.2c-0.2,0-0.2-0.2-0.3-0.3
		c-0.1-0.1-0.2-0.2-0.3-0.2c-0.3,0-0.7,0.2-1,0.1c-0.4-0.3-0.8-0.5-1.2-0.8c-1.2-0.7-2.1-1.7-3.1-2.7c-0.1-0.1-0.1-0.1-0.1-0.3
		c0-0.1,0-0.1,0.1-0.2c0.4-0.2,0.7-0.4,1.2-0.6c0.1,0,0.2,0.1,0.3,0.2c0.9,0.9,1.9,1.7,3,2.2c1.4,0.7,2.9,1,4.4,0.9
		C29.2,37.3,29.3,37.2,29.4,37.3z"/>
	<path class="st43" d="M15,20.4c0-0.1,0.1-0.2,0.1-0.3c0.2-0.4,0.5-0.8,0.6-1.2c0.2-0.3,0.3-0.7,0.6-1c0,0,0,0,0,0
		c0.3,0,0.6,0,0.9,0c0.1,0.1,0.1,0.3,0.1,0.4c-0.1,1.2-0.1,2.4,0,3.7c0.1,0.6,0.2,1.1,0.2,1.7c0,0.1,0,0.2-0.1,0.4
		c-0.3,0.7-0.7,1.4-1,2.1c-0.1,0.1-0.1,0.3-0.3,0.2c-0.2-0.1-0.2-0.3-0.2-0.4c-0.5-1.8-0.8-3.5-0.8-5.4C15,20.4,15,20.4,15,20.4z"/>
	<path class="st44" d="M29.4,37.3c-0.6,0.1-1.3,0.1-1.9,0c-1.4-0.2-2.7-0.7-3.9-1.6c-0.7-0.5-1.4-1-2-1.7c0,0-0.1,0-0.1-0.1
		c0,0,0-0.1,0-0.1c0.4-0.2,0.7-0.4,1.1-0.6c0,0,0.1,0,0.1,0c1.2,1.2,2.7,2,4.4,2.4c0.4,0.1,0.8,0,1.2,0c0.2,0,0.4,0,0.5,0.2
		C29,36.4,29.2,36.8,29.4,37.3z"/>
	<path class="st45" d="M32.9,46.3C32,46.6,31,46.7,30,46.8c0,0-0.1,0-0.1,0c-0.3-0.5-0.6-1.1-0.8-1.7c-0.2-0.3-0.3-0.6-0.4-1
		c0-0.1-0.1-0.2,0-0.3c0.4-0.1,0.8,0,1.1-0.1c0.7,0,1.4-0.2,2-0.3c0.3,0.6,0.5,1.3,0.7,1.9C32.7,45.6,32.8,46,32.9,46.3z"/>
	<path class="st46" d="M17.4,23.7c-0.1-0.7-0.2-1.4-0.3-2.1c-0.1-0.5,0-1,0-1.5c0-0.7,0-1.5,0.1-2.2c0.6,0,1.3,0,1.9,0
		c-0.1,0.4-0.2,0.9-0.2,1.3c-0.1,1.2-0.1,2.3,0.1,3.5c0,0.2,0.1,0.4,0,0.7c-0.2,0-0.2-0.2-0.3-0.3c-0.3-0.5-0.7-0.5-1,0
		c-0.1,0.2-0.2,0.3-0.3,0.5C17.5,23.7,17.5,23.7,17.4,23.7z"/>
	<path class="st47" d="M28.8,35.9c-0.2-0.1-0.4-0.1-0.7-0.1c-1.9,0.1-3.5-0.7-4.9-1.8c-0.2-0.2-0.5-0.3-0.6-0.6
		c0.1-0.2,0.2-0.2,0.4-0.3c0.2-0.1,0.4-0.2,0.5-0.5c0.2-0.1,0.3,0.1,0.4,0.1c0.8,0.6,1.7,1,2.7,1.3c0.5,0.1,0.9,0.1,1.4,0.2
		C28.4,34.7,28.6,35.3,28.8,35.9z"/>
	<path class="st48" d="M26.2,38.7c0.4,0,0.8,0.2,1.3,0.2c0.7,0.1,1.4,0.1,2,0c0.2,0,0.4,0,0.6,0c0.2,0.6,0.5,1.2,0.7,1.9
		c0,0.1,0.1,0.2,0.1,0.3c-0.2,0.2-0.5,0.2-0.7,0.3c-0.9,0.1-1.9,0.2-2.8,0c-0.1,0-0.2-0.1-0.2-0.2c-0.3-0.7-0.7-1.4-1-2.1
		C26.2,38.9,26.1,38.8,26.2,38.7z"/>
	<path class="st49" d="M28,34.2c-0.4,0.2-0.8,0.1-1.2,0c-1.1-0.2-2-0.7-2.9-1.3c-0.1-0.1-0.2-0.2-0.4-0.2c-0.1,0-0.1-0.1-0.2-0.2
		c-0.3-0.7-0.7-1.4-1-2.2c0-0.1-0.1-0.2,0-0.3c0.2-0.1,0.2,0.1,0.3,0.2c0.6,0.6,1.2,1.3,2,1.7c0.9,0.5,1.8,0.9,2.9,0.9
		C27.6,33.2,27.9,33.6,28,34.2z"/>
	<path class="st50" d="M31.9,43.4c-0.3,0.2-0.6,0.2-0.9,0.3c-0.8,0.1-1.6,0.2-2.4,0.2c-0.1,0-0.1-0.1-0.2-0.1
		c-0.2-0.4-0.4-0.8-0.5-1.1c0-0.1-0.1-0.2,0-0.2c0.1,0,0.1-0.1,0.2,0c1,0.1,2,0,3-0.2c0.1,0,0.2,0,0.2,0
		C31.5,42.6,31.8,43,31.9,43.4z"/>
	<path class="st51" d="M31.4,42.1c-1,0.3-2,0.4-3.1,0.3c-0.1,0-0.2,0-0.4,0c-0.3-0.3-0.5-0.7-0.5-1.1c0.3-0.1,0.6,0,0.8,0
		c0.9,0.1,1.8,0,2.7-0.2C31.2,41.3,31.2,41.7,31.4,42.1z"/>
	<path class="st52" d="M3.5,46.1c0.3-0.8,0.6-1.7,0.9-2.5c0-0.1,0.1-0.2,0.2-0.3c0.1,0,0.2,0.1,0.2,0.2c0.5,1,1.1,1.9,1.6,2.8
		c0.1,0.1,0.1,0.2,0.2,0.3c0,0.1,0,0.1,0,0.2c-0.1,0.1-0.1,0.2-0.1,0.3c-0.1,0.3-0.3,0.6-0.4,0.9c-0.1,0.2-0.1,0.4-0.2,0.5
		c-0.1,0.2-0.2,0.5-0.3,0.7c0,0-0.1,0.1-0.1,0.1c-0.7-0.9-1.2-1.9-1.8-2.9C3.7,46.3,3.7,46.1,3.5,46.1z"/>
	<path class="st53" d="M8.5,53.2c-0.1,0.2-0.2,0.4-0.3,0.6c-0.2-0.3-0.5-0.3-0.8-0.5c-1-0.6-1.9-1.3-2.7-2.2
		c0.2-0.4,0.3-0.8,0.5-1.2c0.2-0.1,0.3,0.1,0.4,0.3c0.6,0.7,1.2,1.3,2,1.7c0.2,0.1,0.5,0.3,0.7,0.4c0.1,0,0.2,0,0.2,0.2
		C8.7,52.7,8.6,52.9,8.5,53.2z"/>
	<path class="st54" d="M4.9,51.1c0.4,0.2,0.7,0.6,1,0.9c0.7,0.6,1.4,1.1,2.2,1.4c0.2,0.1,0.3,0.1,0.2,0.3c0,0.3-0.1,0.5-0.3,0.7
		c-0.1-0.3-0.3-0.3-0.5-0.4c-1.1-0.5-2.1-1.3-2.9-2.2C4.7,51.6,4.8,51.4,4.9,51.1z"/>
	<path class="st55" d="M8.8,52.5c-0.6-0.3-1.2-0.5-1.6-0.9c-0.5-0.4-1-0.8-1.4-1.3c-0.1-0.1-0.2-0.3-0.4-0.4
		c0.1-0.2,0.1-0.4,0.2-0.6c0,0,0,0,0.1-0.1c0.2,0,0.3,0.1,0.4,0.2c0.4,0.4,0.7,0.8,1.1,1.2c0.5,0.4,1,0.7,1.6,1
		c0.1,0.1,0.3,0,0.3,0.3C8.9,52.1,8.8,52.3,8.8,52.5z"/>
	<path class="st56" d="M27.4,41.2c0.1,0.4,0.3,0.8,0.5,1.1c0.2,0.5,0.5,1,0.7,1.5c0.4,0.9,0.8,1.7,1.2,2.6c0.1,0.1,0.1,0.2,0.1,0.3
		c0,0.1,0,0.1-0.1,0.1c-0.2-0.2-0.3-0.4-0.4-0.7c-0.1-0.1-0.1-0.3-0.2-0.4c-0.1-0.1-0.1-0.3-0.2-0.4c-0.2-0.4-0.4-0.8-0.6-1.3
		c-0.1-0.2-0.1-0.3-0.2-0.5c-0.7-1.5-1.5-2.9-2.1-4.4C26,39,26,38.7,25.8,38.5c-0.2-0.2-0.5,0-0.8,0c-0.1,0-0.1,0-0.2,0
		c-0.6,0.1-1.1,0.2-1.7,0.4c-0.4,0.1-0.8,0.2-1.2,0.3c-0.5,0.1-1.1,0.2-1.6,0.4c-0.6,0.1-1.3,0.3-1.9,0.5c-1,0.2-1.9,0.6-2.9,0.9
		c-0.5,0.1-0.9,0.3-1.4,0.4c-0.4,0.1-0.7,0.2-1.1,0.4c-0.4,0.1-0.8,0.2-1.1,0.4c0,0-0.1,0-0.1,0c-0.1,0-0.1,0-0.1-0.1
		c0.4-0.3,0.9-0.4,1.4-0.6c0.4-0.2,0.8-0.2,1.1-0.4c0.2-0.1,0.4-0.1,0.6-0.2c0.5-0.2,1-0.3,1.5-0.5c0.5-0.1,0.9-0.3,1.3-0.4
		c0.7-0.2,1.3-0.4,2-0.6c0.4-0.1,0.9-0.2,1.3-0.3c0.4-0.1,0.8-0.2,1.2-0.3c0.6-0.1,1.2-0.3,1.9-0.4c0.1,0,0.3-0.1,0.4,0
		c0.3,0,0.6-0.1,1-0.2c0.3-0.1,0.5,0,0.5,0.3c0,0.1,0.1,0.1,0.1,0.2C26.6,39.5,27,40.4,27.4,41.2z"/>
	<path class="st57" d="M24.9,38.5c0.3-0.1,0.5-0.1,0.8-0.2c0.1,0,0.2,0,0.2,0.1c0.1,0.3,0.2,0.5,0.3,0.8c0.2,1,0.4,2.1,0.5,3.1
		c0.1,0.4,0.1,0.7,0.2,1.1c0,0.2,0.1,0.3-0.1,0.4c-0.4,0.1-0.7,0.2-1.1,0c-0.2-0.4-0.2-0.9-0.3-1.4c-0.1-0.8-0.2-1.6-0.4-2.4
		C25,39.6,24.9,39.1,24.9,38.5z"/>
	<path class="st58" d="M25.7,43.9c0.4,0,0.7-0.1,1.1-0.1c0.2-0.2,0.4-0.1,0.6-0.2c0.3,0,0.6-0.1,0.9,0c0.1,0.1,0.2,0.3,0.2,0.5
		c-0.2,0.2-0.4,0.2-0.7,0.3c-0.9,0.3-1.9,0.4-2.9,0.3c-0.1,0-0.2,0-0.2-0.1c-0.1-0.2-0.2-0.3-0.2-0.5c0.3-0.1,0.6-0.1,0.9-0.1
		C25.6,44,25.7,44,25.7,43.9z"/>
	<path class="st59" d="M11.2,27.8c0-0.1,0-0.2,0.1-0.3c0.4-0.8,0.8-1.7,1.3-2.5c0.2,0,0.2,0.2,0.2,0.3c0.2,0.8,0.4,1.6,0.6,2.3
		c0.2,0.8,0.5,1.6,0.8,2.4c0,0.1,0,0.2-0.1,0.3c-0.3,0.6-0.6,1.3-1,1.9c-0.1,0.1-0.1,0.2-0.2,0.2c-0.4-0.5-0.6-1.1-0.8-1.7
		c-0.3-0.9-0.6-1.8-0.9-2.7C11.3,28,11.2,27.9,11.2,27.8z"/>
	<path class="st60" d="M14.2,30c-0.7-1.5-1.1-3.1-1.5-4.7c0-0.1,0-0.2-0.1-0.3c0,0,0,0,0-0.1c0.3-0.6,0.7-1.3,1-1.9
		c0.3,0.1,0.2,0.3,0.3,0.6c0.2,1.6,0.7,3.2,1.2,4.8c0,0.1,0,0.2-0.1,0.3c-0.2,0.4-0.4,0.8-0.6,1.2C14.4,29.9,14.4,30,14.2,30z"/>
	<path class="st57" d="M11.2,27.8c0.2,0.3,0.3,0.7,0.4,1c0.3,1,0.6,2,1,2.9c0.1,0.2,0.3,0.5,0.3,0.7c0.1,0.2-0.1,0.3-0.1,0.5
		c-0.1,0.3-0.2,0.6-0.4,0.8c-0.1,0.1-0.1,0.2-0.2,0.2c-0.4-0.9-0.8-1.7-1.2-2.6c-0.2-0.6-0.6-1.3-0.6-2c0.1-0.3,0.2-0.5,0.3-0.8
		C10.9,28.3,11.1,28,11.2,27.8z"/>
	<path class="st61" d="M27.6,52c0-0.1-0.1-0.2-0.1-0.3c0-0.2,0.2-0.2,0.3-0.2c0.4-0.1,0.7-0.1,1.1-0.2c0.8-0.1,1.5-0.4,2.2-0.7
		c0.4-0.2,0.4-0.2,0.6,0.1c0.2,0.3,0.3,0.7,0.4,1c0,0.1-0.1,0.1-0.2,0.2c-0.2,0.1-0.5,0.2-0.7,0.4c0,0-0.1,0.1-0.2,0.1
		c-0.4,0-0.7,0.3-1,0.3c-0.6,0.2-1.2,0.4-1.9,0.3c-0.1,0-0.1,0-0.1-0.1C27.9,52.6,27.8,52.3,27.6,52z"/>
	<path class="st62" d="M31.7,50.6c-0.1-0.2-0.3-0.2-0.4-0.1c-0.7,0.3-1.5,0.6-2.3,0.8c-0.3,0.1-0.7,0.1-1,0.2c-0.2,0-0.3,0-0.4,0.1
		c-0.1-0.1-0.1-0.2-0.2-0.3c-0.1-0.2-0.2-0.5-0.2-0.7c0.3-0.2,0.7-0.2,1.1-0.2c0.7-0.1,1.4-0.3,2-0.5c0.1,0,0.1-0.1,0.2-0.1
		c0.2-0.1,0.4-0.1,0.5-0.2c0.2-0.2-0.1-0.3,0-0.5c0,0,0.1,0,0.1,0c0.2,0.3,0.4,0.7,0.5,1C31.6,50.3,31.7,50.4,31.7,50.6z"/>
	<path class="st63" d="M28,52.9c0.4,0,0.9,0.1,1.3-0.1c0.3-0.1,0.6,0,0.9-0.3c0.2-0.2,0.6-0.3,0.9-0.3c0.2,0,0.2-0.2,0.3-0.2
		c0.2-0.1,0.5-0.2,0.7-0.3c0.1,0.2,0.2,0.5,0.3,0.7c0,0,0,0.1,0,0.1c-0.6,0.3-1.1,0.5-1.8,0.7c-0.7,0.2-1.5,0.4-2.2,0.5
		c-0.1,0-0.1,0-0.2-0.1c0,0,0,0-0.1-0.1C28.2,53.3,28,53.1,28,52.9z"/>
	<path class="st4" d="M9.6,31C9.7,31,9.7,31,9.6,31c0.3,0.4,0.4,0.9,0.6,1.3c0.4,0.9,0.8,1.8,1.2,2.7c0.1,0.1,0.1,0.3,0.2,0.4
		c0,0.3-0.1,0.5-0.3,0.8c-0.2,0.3-0.3,0.7-0.6,1c-0.2,0-0.3-0.1-0.4-0.3c-0.5-1-0.9-2-1.4-3c-0.1-0.2-0.2-0.4-0.3-0.7
		c0.1-0.6,0.5-1,0.7-1.6C9.4,31.5,9.5,31.2,9.6,31z"/>
	<path class="st6" d="M8.7,33.3c0.2,0.1,0.2,0.3,0.3,0.4c0.4,0.9,0.8,1.9,1.2,2.8c0.1,0.3,0.1,0.6,0.5,0.7c0.1,0.1,0,0.2,0,0.3
		c-0.2,0.5-0.5,0.9-0.7,1.4c0,0.1-0.1,0.2-0.2,0.2c-0.2-0.1-0.3-0.3-0.4-0.5c-0.5-1-1-2.1-1.5-3.2c0-0.1-0.1-0.2-0.1-0.3
		c0,0,0,0,0-0.1c0.3-0.5,0.4-1,0.7-1.4C8.5,33.5,8.6,33.4,8.7,33.3z"/>
	<path class="st64" d="M31,49C31,49,30.9,49,31,49c-0.2-0.1-0.3-0.3-0.3-0.4c0-0.1-0.1-0.2-0.1-0.4c0,0,0.1,0,0.1,0c0,0,0,0,0,0
		C30.8,48.5,31,48.7,31,49z"/>
	<path class="st65" d="M15.1,28.3c-0.3-0.3-0.3-0.7-0.4-1.1c-0.2-0.8-0.5-1.5-0.6-2.3c-0.1-0.5-0.2-0.9-0.2-1.4
		c0-0.2-0.1-0.4-0.2-0.6c0,0,0-0.1,0.1-0.1c0.2-0.2,0.3-0.4,0.3-0.7c0.3-0.4,0.4-0.9,0.7-1.3c0.2-0.1,0.1-0.4,0.3-0.5
		c0.1,0,0.1,0.1,0.1,0.2c0.1,1.7,0.3,3.4,0.8,5c0.1,0.2,0.1,0.5,0.2,0.7c0.1,0.1,0,0.2,0,0.3c-0.3,0.5-0.5,1-0.8,1.5
		C15.3,28.2,15.2,28.3,15.1,28.3z"/>
	<path class="st52" d="M10.7,42.7c0.2,0.6,0.2,1.2,0.3,1.9c0.1,0.5,0.1,0.9,0.2,1.4c0,0,0,0,0,0c-0.3,0.2-0.6,0.2-0.9,0.3
		c-0.2,0.1-0.4,0.1-0.5,0.1c-0.1,0-0.2,0-0.2-0.1c-0.1-0.1-0.1-0.3-0.1-0.4C9.3,45,9.1,44.2,9,43.3c0-0.2,0.3-0.2,0.4-0.3
		C9.6,43,9.7,43,9.8,42.9C10.1,42.8,10.4,42.6,10.7,42.7z"/>
	<path class="st66" d="M10.7,42.7c-0.3,0.1-0.6,0.2-0.9,0.3c-0.1,0-0.1,0-0.1-0.1c0.1-0.1,0.3-0.2,0.5-0.2c0.5-0.2,0.9-0.4,1.4-0.5
		c0.1,0,0.1,0,0.2,0c0,0,0.1,0,0.1,0.1C11.5,42.4,11.1,42.5,10.7,42.7z"/>
	<path class="st67" d="M28.3,53.6c0.9-0.1,1.7-0.2,2.6-0.6c0.5-0.2,0.9-0.4,1.4-0.6c0.1,0,0.1,0,0.2,0c0.1,0.2,0.2,0.4,0.2,0.6
		c-0.1,0-0.2,0-0.3,0.1c-0.3,0.3-0.7,0.4-1.1,0.5c-0.2,0.1-0.5,0.2-0.7,0.2c-0.2,0-0.4,0.2-0.6,0.2c-0.2,0-0.4,0.1-0.6,0.1
		c-0.2,0-0.5,0.1-0.8,0.2C28.4,54.1,28.4,53.9,28.3,53.6z"/>
	<path class="st68" d="M30.7,48.3C30.6,48.3,30.6,48.3,30.7,48.3c-0.3-0.1-0.3-0.2-0.4-0.4c-0.1-0.3-0.3-0.6-0.4-1c0,0,0-0.1,0-0.1
		c0,0,0,0,0.1-0.1c0,0,0,0,0.1,0C30.2,47.3,30.5,47.8,30.7,48.3z"/>
	<path class="st11" d="M11.5,35.4c-0.3-0.6-0.6-1.2-0.8-1.8c-0.3-0.7-0.6-1.4-0.9-2.1c-0.1-0.2-0.1-0.3-0.1-0.5
		c0.2-0.6,0.5-1.1,0.7-1.6c0.2,0.1,0.1,0.3,0.2,0.5c0.4,1.1,0.8,2.1,1.2,3.1c0.1,0.3,0.4,0.6,0.4,1c0,0,0,0,0,0.1
		C12.1,34.5,11.9,35,11.5,35.4z"/>
	<path class="st5" d="M7.8,35.2c0.3,0.6,0.5,1.2,0.8,1.7c0.4,0.8,0.7,1.5,1.1,2.3c0.1,0.2-0.1,0.4-0.1,0.5C9.5,40,9.4,40.5,9,40.8
		c-0.2,0-0.2-0.1-0.3-0.2c-0.6-1-1.1-2-1.5-3c-0.1-0.2-0.2-0.3-0.2-0.5C7.3,36.5,7.5,35.8,7.8,35.2z"/>
	<path class="st69" d="M7,37.1c0.2,0.1,0.2,0.2,0.3,0.4c0.5,1.1,1,2.1,1.6,3.1c0,0.1,0.1,0.1,0.2,0.2C9.1,40.9,9,41,9,41.1
		c-0.2,0.4-0.3,0.8-0.5,1.1c0,0.1-0.1,0.1-0.2,0.2c-0.1,0-0.2-0.1-0.2-0.2C7.4,41.1,6.9,40,6.4,39c0,0,0-0.1,0-0.2
		c0.1-0.2,0.1-0.4,0.2-0.6C6.7,37.8,6.9,37.5,7,37.1z"/>
	<path class="st70" d="M9,51.9c0-0.1-0.1-0.1-0.1-0.2c-1.2-0.5-2.1-1.2-2.9-2.2c-0.1-0.1-0.2-0.2-0.3-0.3c0.1-0.2,0.2-0.5,0.3-0.7
		c0.2-0.1,0.2,0,0.3,0.1C6.9,49.7,7.9,50.4,9,51c0.1,0,0.2,0.1,0.2,0.2c0,0.1-0.1,0.2-0.1,0.3C9.1,51.7,9,51.8,9,51.9z"/>
	<path class="st71" d="M148.3,30.7c0,1-0.5,1.5-1.4,1.5c-1,0-1.6-0.5-1.6-1.6c0-1,0.6-1.5,1.6-1.5C147.8,29.2,148.3,29.7,148.3,30.7
		z"/>
	<path class="st62" d="M6.1,48c0.1-0.3,0.3-0.6,0.4-1c0.2,0,0.2,0.2,0.3,0.3c0.7,1,1.5,1.8,2.6,2.4c0.1,0.1,0.3,0.1,0.3,0.3
		c0,0.1,0,0.2-0.1,0.3c-0.1,0.1-0.1,0.3-0.2,0.4c-0.4,0-0.7-0.2-1.1-0.5C7.4,49.7,6.6,48.9,6.1,48z"/>
	<path class="st72" d="M10.1,48.9c-0.1,0.2-0.1,0.5-0.3,0.7c-0.7-0.3-1.4-0.8-1.9-1.3c-0.4-0.3-0.7-0.7-1-1.1
		c-0.1-0.1-0.2-0.2-0.1-0.4c0.2-0.1,0.4-0.1,0.6-0.2c0.2,0,0.4,0.1,0.5,0.2c0.6,0.7,1.2,1.3,2.1,1.7C10.1,48.6,10.2,48.7,10.1,48.9z
		"/>
	<path class="st73" d="M9.6,46.3c0.1,0,0.1,0,0.2,0c0.4,0.1,0.7,0.4,1.1,0.6c0.1,0,0.1,0.1,0,0.1c-0.2,0.2-0.1,0.5-0.2,0.7
		c-0.1,0.1-0.1,0.3-0.2,0.3c-0.1,0.1-0.2,0.1-0.3,0c-0.5-0.3-1.1-0.6-1.5-1.1c-0.1-0.1-0.2-0.2-0.2-0.4C8.8,46.3,9.1,46.2,9.6,46.3z
		"/>
	<path class="st74" d="M8.4,46.5c0.3,0.5,0.7,0.8,1.2,1.1c0.3,0.2,0.5,0.4,0.8,0.4c-0.1,0.3-0.2,0.6-0.3,0.9c0-0.1-0.1-0.2-0.2-0.3
		c-0.9-0.4-1.6-1-2.1-1.7c-0.1-0.1-0.2-0.2-0.4-0.2c0.1-0.2,0.3-0.1,0.4-0.2C8,46.5,8.2,46.4,8.4,46.5z"/>
	<path class="st75" d="M6.8,46.9c0.3,0.4,0.6,0.9,0.9,1.2c0.6,0.5,1.2,1.2,2.1,1.5c0,0,0,0.1,0,0.1c0,0.1,0,0.2-0.1,0.3
		c-0.3-0.3-0.7-0.4-1-0.6c-0.9-0.6-1.6-1.4-2.2-2.3c0-0.1,0-0.2,0.1-0.3C6.6,46.8,6.7,46.8,6.8,46.9z"/>
	<path class="st76" d="M16.3,17.9c-0.2,0.3-0.3,0.7-0.6,1c-0.4-0.4-0.8-0.7-1.4-1C15,17.9,15.7,17.9,16.3,17.9z"/>
	<path class="st77" d="M6.3,38.8c0.4,0.6,0.6,1.2,1,1.8c0.3,0.6,0.6,1.2,1,1.8c0.1,0.1,0,0.2,0,0.3c-0.2,0.3-0.3,0.7-0.4,1
		c-0.2,0.3-0.2,0.6-0.5,0.9c-0.3-0.2-0.4-0.5-0.5-0.7c-0.5-0.9-1-1.8-1.5-2.7C5.7,40.4,6,39.6,6.3,38.8z"/>
	<path class="st13" d="M5.4,41.2c0.3,0.3,0.4,0.7,0.6,1c0.5,0.8,0.9,1.6,1.4,2.4c0.1,0.1,0,0.2,0,0.3c0,0.1,0,0.1-0.1,0.2
		c-0.1,0.1-0.1,0.2-0.1,0.3c0,0,0,0.1,0,0.1C7,45.5,7,45.7,7,45.8c-0.1,0.3-0.1,0.6-0.4,0.8c-0.4-0.1-0.4-0.5-0.6-0.7
		c-0.5-0.8-1-1.7-1.5-2.6c0.1-0.5,0.3-0.9,0.5-1.4c0-0.2,0.1-0.3,0.2-0.5C5.3,41.3,5.3,41.2,5.4,41.2z"/>
	<path class="st78" d="M6.1,48c0.2,0.1,0.3,0.3,0.4,0.4c0.8,1,1.7,1.8,2.9,2.3c0,0,0,0,0,0c0,0.2-0.1,0.3-0.2,0.5
		c-1.1-0.4-2-1.1-2.7-2c-0.2-0.2-0.3-0.4-0.4-0.6c-0.1-0.1-0.1-0.2-0.2-0.1C5.9,48.3,6,48.1,6.1,48z"/>
	<path class="st79" d="M29.9,46.9C29.9,46.9,29.9,46.9,29.9,46.9c-0.3,0.4-0.7,0.4-1.1,0.6c-0.8,0.2-1.6,0.3-2.4,0.4
		c-0.1,0-0.2,0-0.3-0.1c-0.2-0.3-0.3-0.6-0.4-1c-0.1-0.2,0.1-0.2,0.2-0.2c0.7,0,1.3-0.1,1.9-0.2c0.5-0.1,1.1-0.2,1.6-0.6
		C29.6,46.1,29.7,46.5,29.9,46.9z"/>
	<path class="st80" d="M26.1,47.8c1.2-0.1,2.4-0.2,3.5-0.8c0.1-0.1,0.2-0.1,0.3-0.1c0.2,0.3,0.3,0.6,0.5,0.9
		c-0.3,0.2-0.6,0.3-0.9,0.4c-0.4,0.2-0.9,0.3-1.3,0.4c-0.4,0.1-0.9,0.1-1.4,0.1c-0.1,0-0.3,0.1-0.4,0C26.3,48.5,26.1,48.1,26.1,47.8
		z"/>
	<path class="st81" d="M26.4,48.8c0.5,0,1.1-0.1,1.6-0.2c0.3,0,0.6-0.1,0.9-0.3c0.1-0.1,0.3,0,0.4-0.1c0.3-0.1,0.7-0.3,1.1-0.4
		c0.1,0.1,0.1,0.3,0.2,0.4c0,0.1,0.1,0.2,0.1,0.3c0,0.2-0.2,0.2-0.3,0.2c-1,0.4-2,0.7-3.1,0.8c-0.2,0-0.4,0.1-0.6,0.1
		C26.7,49.4,26.5,49.1,26.4,48.8C26.4,48.8,26.4,48.8,26.4,48.8z"/>
	<path class="st82" d="M29.4,45.8c0,0.1-0.1,0.2-0.2,0.2c-0.7,0.2-1.4,0.4-2.2,0.6c-0.4,0.1-0.7,0.1-1.1,0.1c-0.1,0-0.2,0-0.3,0.1
		c-0.1-0.1-0.1-0.2-0.2-0.3c0-0.2-0.1-0.3-0.1-0.5c0.1,0,0.1,0,0.2,0c1.1,0,2.2-0.2,3.3-0.5c0.1,0,0.2-0.1,0.4,0
		C29.3,45.5,29.3,45.6,29.4,45.8z"/>
	<path class="st83" d="M26.8,49.7c0.4-0.2,0.8-0.2,1.2-0.2c1-0.1,1.8-0.4,2.7-0.8c0.1,0.1,0.2,0.3,0.2,0.4c0.3,0.5,0.2,0.5-0.3,0.7
		c-0.6,0.2-1.2,0.4-1.8,0.6c-0.6,0.1-1.1,0.2-1.7,0.3c-0.1-0.1-0.1-0.3-0.2-0.4C26.9,50,26.8,49.9,26.8,49.7z"/>
	<path class="st84" d="M10.8,47c-0.2-0.3-0.6-0.3-0.8-0.5c-0.1-0.1-0.2-0.1-0.3-0.2c0.5-0.2,1-0.2,1.5-0.3
		C11.2,46.3,11,46.7,10.8,47z"/>
	<path class="st85" d="M29.2,45.4c-0.8,0.3-1.7,0.5-2.6,0.7c-0.4,0.1-0.8,0.1-1.2,0c-0.2-0.4-0.4-0.9-0.5-1.3c0.6,0,1.3,0.1,1.9,0
		c0.6-0.1,1.3-0.2,1.9-0.5C28.8,44.5,29,45,29.2,45.4z"/>
	<path class="st19" d="M8.4,42.2c0.2-0.5,0.4-1,0.6-1.5c0.3-0.5,0.5-1.1,0.7-1.6c0.3-0.6,0.7-1.3,0.9-2c0.3-0.6,0.6-1.1,0.8-1.7
		c0.2-0.5,0.5-1,0.7-1.5c0.3-0.5,0.5-1,0.8-1.5c0.4-0.8,0.8-1.6,1.2-2.4c0.3-0.6,0.6-1.1,0.9-1.7c0.4-0.6,0.7-1.3,1-2
		c0.5-0.8,0.9-1.7,1.3-2.5c0.2-0.2,0.3-0.5,0.4-0.8c0.3-0.5,0.7-0.5,1,0c0.1,0.1,0.1,0.3,0.2,0.4c1.1,2.2,2.1,4.4,3.2,6.6
		c0.4,0.9,0.8,1.7,1.2,2.6c0.1,0.2,0,0.3-0.1,0.3c-0.3,0.1-0.5,0.3-0.7,0.4c-0.4,0.2-0.8,0.4-1.2,0.7c-0.4,0.2-0.8,0.4-1.2,0.7
		c-0.3,0.3-0.7,0.4-1,0.6c-0.1,0.1-0.3,0.1-0.4,0.2c-0.3,0.1-0.5,0.3-0.8,0.4c-0.3,0.1-0.5,0.3-0.8,0.4c-0.5,0.3-1,0.6-1.6,0.8
		c-0.4,0.2-0.8,0.4-1.2,0.7C14.3,37.9,14.2,38,14,38c-0.1,0-0.1,0-0.1-0.1c0.1-0.1,0.2-0.3,0.3-0.4c0.2,0,0.3-0.1,0.4-0.1
		c2.1-1.2,4.2-2.3,6.3-3.5c0.5-0.2,0.9-0.5,1.4-0.8c0.2-0.1,0.4-0.2,0.6-0.3c0.2-0.1,0.3-0.3,0.2-0.5c-0.2-0.4-0.4-0.7-0.5-1.1
		c-0.1-0.1-0.1-0.3-0.2-0.4c-0.1-0.3-0.3-0.5-0.4-0.8c-0.1-0.3-0.3-0.7-0.5-1c-0.1-0.3-0.3-0.6-0.5-1c-0.2-0.5-0.4-0.9-0.7-1.4
		c-0.2-0.4-0.4-0.8-0.6-1.2c-0.3-0.7-0.6-1.4-1-2c-0.1-0.2-0.2-0.5-0.5-0.5c-0.3,0-0.3,0.3-0.4,0.5c-0.3,0.5-0.5,1.1-0.8,1.6
		c-0.4,0.6-0.7,1.3-1,1.9c-0.2,0.4-0.4,0.8-0.6,1.2c-0.1,0.1-0.1,0.3-0.2,0.4c-0.2,0.2-0.3,0.5-0.4,0.7c-0.1,0.4-0.4,0.7-0.5,1.1
		c-0.1,0.2-0.2,0.5-0.3,0.7c-0.2,0.3-0.3,0.6-0.5,0.9c-0.2,0.3-0.3,0.6-0.5,0.9c-0.2,0.3-0.3,0.6-0.5,0.9c-0.1,0.2-0.2,0.4-0.3,0.7
		c-0.1,0.2-0.2,0.4-0.3,0.5c-0.1,0.2-0.2,0.4-0.3,0.7c-0.1,0.2-0.2,0.4-0.3,0.5c-0.1,0.2-0.2,0.4-0.3,0.5c-0.2,0.4-0.3,0.8-0.5,1.1
		c-0.1,0.2-0.2,0.4-0.3,0.6c-0.2,0.3-0.3,0.7-0.5,1c-0.1,0.3-0.4,0.6-0.4,1c-0.1,0.2-0.3,0.3-0.3,0.5c-0.2,0.3-0.3,0.6-0.5,1
		C8.6,42.2,8.6,42.3,8.4,42.2C8.4,42.3,8.4,42.3,8.4,42.2z"/>
	<path class="st65" d="M18.8,35.4c0.5-0.3,0.9-0.5,1.4-0.8c0.5,0.6,1,1.1,1.5,1.6c0.6,0.6,1.3,1.1,2,1.5c0.2,0.1,0.4,0.2,0.6,0.3
		c0.1,0.1,0.2,0.1,0.2,0.3c-0.8,0.2-1.5,0.4-2.3,0.5c-0.4-0.1-0.6-0.3-0.8-0.6c-0.7-0.7-1.5-1.3-2.1-2.1
		C19.2,36,18.9,35.8,18.8,35.4z"/>
	<path class="st86" d="M6.6,46.6c0.1-0.3,0.2-0.6,0.3-0.9C7,45.6,7,45.5,7.1,45.4l0,0c0.1-0.1,0.1-0.2,0.1-0.4c0,0,0-0.1,0.1-0.1
		c0.1-0.2,0.1-0.3,0.3-0.4c0.1,0.1,0.1,0.2,0.1,0.2c0.1,0.5,0.2,1,0.2,1.5c0,0.1,0,0.3-0.1,0.4c-0.1,0.1-0.3,0-0.4,0.1
		c-0.2,0-0.4,0.1-0.6,0.1c-0.1,0-0.2,0.1-0.3-0.1C6.6,46.7,6.6,46.7,6.6,46.6z"/>
	<path class="st59" d="M15.7,37.1c0.5-0.3,1-0.6,1.6-0.9c0.4,0.5,0.8,1.1,1.2,1.6c0.3,0.4,0.7,0.8,1.1,1.2c0.1,0.1,0.3,0.2,0.2,0.4
		c-0.7,0.2-1.3,0.4-2,0.6c-0.7-0.9-1.4-1.7-2.1-2.7C15.7,37.3,15.6,37.2,15.7,37.1z"/>
	<path class="st57" d="M15.7,37.1c0.2,0.4,0.4,0.7,0.7,1.1c0.5,0.6,0.9,1.2,1.4,1.7c0,0,0,0.1,0.1,0.2c-0.5,0.1-0.9,0.3-1.4,0.4
		c-0.1,0-0.2-0.1-0.3-0.2c-0.6-0.8-1.2-1.6-1.7-2.4c0-0.1-0.1-0.1,0-0.2C14.9,37.5,15.3,37.3,15.7,37.1z"/>
	<path class="st4" d="M15,41c-0.2,0.1-0.4,0.2-0.6,0.2c-0.3,0.1-0.7,0.2-1,0.3c-0.1,0-0.2,0.1-0.3-0.1c-0.5-0.7-1-1.4-1.3-2.1
		c0.1-0.2,0.3-0.3,0.5-0.4c0.3-0.1,0.5-0.3,0.8-0.4c0,0,0.1,0,0.1-0.1c0.1,0,0.2-0.1,0.3,0c0.5,0.8,1,1.5,1.5,2.2
		C14.9,40.8,15,40.9,15,41z"/>
	<path class="st11" d="M15,41c-0.6-0.8-1.1-1.5-1.6-2.4c0-0.1-0.1-0.1-0.1-0.2c0.1-0.3,0.5-0.4,0.7-0.5c0.2-0.1,0.3-0.1,0.5-0.2
		c0.2,0.3,0.4,0.7,0.6,1c0.4,0.5,0.7,1,1.1,1.5c0.1,0.1,0.2,0.2,0.3,0.3C16,40.7,15.5,40.9,15,41z"/>
	<path class="st87" d="M19.8,39.5c-0.1-0.4-0.5-0.6-0.7-0.8c-0.6-0.7-1.1-1.4-1.7-2.1c-0.1-0.1-0.1-0.2-0.1-0.3
		c0.3-0.1,0.5-0.3,0.8-0.4c0.2,0,0.2,0.1,0.3,0.2c0.5,0.8,1.1,1.5,1.8,2.1c0.3,0.3,0.5,0.6,0.8,0.8c0.1,0.1,0.2,0.1,0.1,0.3
		C20.7,39.3,20.2,39.4,19.8,39.5z"/>
	<path class="st88" d="M21.1,39.2c-0.3-0.3-0.7-0.7-1-1c-0.7-0.7-1.4-1.3-1.8-2.2c-0.1-0.1-0.1-0.2-0.2-0.2c0.2-0.2,0.5-0.3,0.7-0.4
		c0.4,0.5,0.8,0.9,1.2,1.4c0.7,0.7,1.4,1.4,2.3,2C21.9,39,21.5,39.1,21.1,39.2z"/>
	<path class="st6" d="M11.7,39.3c0.4,0.7,0.9,1.3,1.3,2c0.1,0.2,0.2,0.2,0.4,0.1c0.3-0.1,0.6-0.3,1-0.3c-0.9,0.3-1.7,0.6-2.6,0.9
		c0,0-0.1,0-0.1,0c-0.1,0-0.2-0.1-0.3-0.2c-0.4-0.6-0.7-1.2-1.1-1.8c0.1-0.3,0.4-0.3,0.5-0.5c0.1-0.1,0.2-0.2,0.4-0.2
		C11.4,39.5,11.5,39.3,11.7,39.3z"/>
	<path class="st89" d="M28.4,43.6c-0.5,0.1-1,0.1-1.5,0.2c-0.1-0.8-0.3-1.7-0.4-2.5c-0.1-0.7-0.3-1.4-0.2-2.1c0.5,1,1,2,1.5,3.1
		C27.9,42.7,28.1,43.2,28.4,43.6z"/>
	<path class="st90" d="M7.8,46.6c-0.1-0.7-0.2-1.4-0.3-2.1c0-0.3,0.2-0.5,0.3-0.7c0,0,0.1-0.1,0.1-0.1c0.2-0.2,0.5-0.2,0.7-0.3
		c0.2,0,0.3-0.2,0.5-0.1c0.1,0.2,0.1,0.4,0.1,0.6c0.1,0.8,0.3,1.6,0.4,2.3c-0.4,0.1-0.8,0.2-1.1,0.3C8.2,46.6,8,46.6,7.8,46.6z"/>
	<path class="st91" d="M9.1,43.3c-0.2,0-0.3,0.1-0.5,0.1c0,0,0-0.1,0-0.1c0.4-0.2,0.8-0.4,1.2-0.5c0,0,0,0,0.1,0.1
		C9.6,43.1,9.3,43.2,9.1,43.3z"/>
	<path class="st5" d="M10.3,40.2c0.3,0.2,0.4,0.5,0.5,0.8c0.3,0.4,0.5,0.8,0.8,1.2c-0.5,0.2-0.9,0.4-1.4,0.5c-0.2,0-0.3-0.1-0.4-0.2
		c-0.2-0.4-0.4-0.7-0.6-1.1c-0.1-0.1-0.2-0.2-0.1-0.4c0-0.2,0.2-0.3,0.3-0.4c0.2-0.2,0.5-0.4,0.7-0.5C10.2,40.2,10.3,40.2,10.3,40.2
		z"/>
	<path class="st9" d="M9.1,41.1c0.2,0.6,0.6,1,0.9,1.6c0.1,0.1,0.2,0,0.3,0.1c-0.2,0.1-0.3,0.1-0.5,0.2c-0.4,0.2-0.8,0.3-1.2,0.5
		c-0.2,0.2-0.5,0.1-0.7,0.3c0,0-0.1-0.1,0-0.1c0.2-0.4,0.3-0.9,0.6-1.3C8.7,41.9,8.8,41.4,9.1,41.1z"/>
	<path class="st92" d="M8.5,42.3c-0.2,0.5-0.5,0.9-0.6,1.4c0,0-0.1,0-0.1,0.1c-0.1,0-0.1,0-0.1-0.1c0.2-0.4,0.4-0.9,0.5-1.3
		C8.3,42.3,8.4,42.3,8.5,42.3C8.4,42.2,8.5,42.3,8.5,42.3z"/>
	<path class="st93" d="M146.2,30.7c0-0.3,0-0.5,0-0.8c0-0.2,0.1-0.3,0.3-0.3c0.2,0,0.3,0,0.5,0c0.2,0,0.5,0.1,0.5,0.4
		c0.1,0.3,0.1,0.6-0.2,0.7c-0.1,0.1-0.1,0.1,0,0.2c0.1,0.2,0.1,0.5,0.4,0.5c0.1,0,0.1,0.1,0,0.1c0,0.1-0.1,0.1-0.2,0.1
		c-0.2,0-0.3-0.1-0.4-0.2c-0.1-0.2-0.2-0.3-0.3-0.5c-0.1-0.2-0.2-0.1-0.3-0.1c-0.2,0-0.1,0.1-0.1,0.2c0,0.1,0,0.2,0,0.4
		c0,0.1,0,0.2-0.1,0.2c-0.2,0-0.2-0.1-0.2-0.2C146.2,31.3,146.2,31,146.2,30.7z"/>
	<path class="st94" d="M7.7,43.7C7.8,43.7,7.8,43.8,7.7,43.7c0,0.3-0.1,0.6-0.2,0.8c-0.1,0.1-0.1,0.3-0.2,0.4
		c-0.2-0.2,0.1-0.2,0.1-0.4C7.5,44.3,7.6,44,7.7,43.7z"/>
	<path class="st95" d="M7.1,45.4c0,0.1,0,0.2-0.1,0.3C6.9,45.6,7,45.5,7.1,45.4z"/>
	<path class="st94" d="M7.2,45c0,0.1,0,0.3-0.1,0.4C7.1,45.3,7.1,45.1,7.2,45z"/>
	<path class="st40" d="M21,34c-0.6,0.4-1.3,0.7-2,1.1c-1.5,0.8-3,1.6-4.4,2.5c-0.1,0-0.2,0.3-0.3,0c0-0.1,0-0.2,0-0.2
		c0.1-0.2,0.2-0.4,0.2-0.7c0.1-0.2,0.2-0.4,0.2-0.6c0.1-0.2,0.2-0.5,0.3-0.7c0.1-0.3,0.3-0.6,0.3-0.9c0.1-0.4,0.3-0.7,0.4-1
		c0.2-0.3,0.3-0.7,0.4-1c0.1-0.2,0.2-0.5,0.3-0.7c0.1-0.4,0.3-0.7,0.4-1.1c0.1-0.2,0.2-0.5,0.3-0.7c0.1-0.1,0.1-0.3,0.1-0.4
		c0.2-0.4,0.3-0.8,0.5-1.2c0-0.1,0.1-0.1,0.1-0.2c0.3-0.4,0.6-0.4,0.9,0c0.3,0.5,0.4,1,0.6,1.4c0.1,0.4,0.3,0.8,0.4,1.1
		c0.1,0.4,0.3,0.7,0.4,1.1c0.1,0.3,0.2,0.5,0.3,0.8c0,0.2,0.1,0.3,0.2,0.5c0.1,0.2,0.1,0.4,0.2,0.7C21,33.8,21,33.9,21,34z"/>
	<path class="st96" d="M17,25.1c0.3-0.6,0.6-1.3,1-1.9c0.2-0.4,0.5-0.4,0.7,0c0.3,0.6,0.6,1.2,0.9,1.8c0.1,0.1,0.1,0.3,0.2,0.5
		c-0.1,0.7-0.9,1.4-1.6,1.4C17.4,26.8,16.8,26,17,25.1z"/>
	<path class="st97" d="M17,25.1c0,0.3,0,0.6,0.1,0.9c0.3,0.7,1.1,1,1.7,0.6c0.4-0.3,0.7-0.7,0.9-1.1c0.2,0.4,0.4,0.8,0.6,1.2
		c0.1,0.1,0,0.2,0,0.3c-0.3,0.5-0.8,0.9-1.3,1.1c-0.1,0.1-0.2,0.1-0.3,0c-0.4-0.4-0.6-0.4-1,0.2c-0.3,0.2-0.6,0-0.8-0.2
		c-0.4-0.3-0.8-0.6-0.9-1.1C16.3,26.3,16.7,25.7,17,25.1z"/>
	<path class="st98" d="M18.7,28.1c0.8-0.2,1.3-0.7,1.7-1.4c0.3,0.5,0.5,0.9,0.7,1.4c-0.3,0.6-1,1-1.5,1.4c-0.1,0.1-0.2,0.1-0.3,0
		C19.1,29,18.9,28.6,18.7,28.1z"/>
	<path class="st99" d="M21,34c-0.1-0.3-0.2-0.7-0.3-1c0.2-0.3,0.5-0.4,0.7-0.6c0.4-0.3,0.7-0.6,1-0.9c0.1-0.1,0.2-0.2,0.3-0.2
		c0.2,0.4,0.4,0.7,0.5,1.1c-0.1,0.3-0.3,0.4-0.5,0.6c-0.1,0.1-0.2,0.1-0.3,0.3C21.9,33.5,21.5,33.8,21,34z"/>
	<path class="st100" d="M15.8,33.5c-0.1,0.4-0.3,0.7-0.4,1c-0.3,0.1-0.5-0.1-0.7-0.1c-0.6-0.2-1.1-0.6-1.6-1
		C13,33.2,12.9,33.2,13,33c0.1-0.3,0.3-0.6,0.5-0.9c0.1,0,0.2,0,0.2,0.1c0.6,0.5,1.2,0.9,1.9,1.1C15.7,33.3,15.8,33.4,15.8,33.5z"/>
	<path class="st101" d="M13,33c0.1,0.3,0.4,0.4,0.7,0.6c0.5,0.4,1.1,0.7,1.8,0.9c0,0.3-0.2,0.6-0.3,0.9c-0.1,0.1-0.2,0.1-0.3,0
		c-0.8-0.2-1.6-0.7-2.2-1.3c-0.1,0-0.1-0.1-0.1-0.2C12.6,33.6,12.8,33.3,13,33z"/>
	<path class="st102" d="M16.9,30.7c-0.1,0.4-0.3,0.8-0.4,1.1c-0.1,0.1-0.2,0.1-0.3,0c-0.7-0.2-1.3-0.6-1.9-1.1
		c-0.1-0.1-0.1-0.1-0.1-0.2c0.1-0.4,0.3-0.7,0.5-1.1c0.3,0.4,0.6,0.7,1,0.9C16.2,30.5,16.5,30.6,16.9,30.7z"/>
	<path class="st103" d="M16,27c0.3,0.3,0.4,0.7,0.8,0.9c0.3,0.2,0.6,0.4,0.9,0.4c-0.1,0.4-0.3,0.8-0.5,1.2c-0.4,0-0.7-0.1-1-0.3
		c-0.4-0.2-0.7-0.5-0.9-0.9C15.6,27.8,15.8,27.4,16,27z"/>
	<path class="st104" d="M15.8,33.5c-0.7-0.2-1.3-0.5-1.9-1c-0.2-0.1-0.3-0.3-0.5-0.5c0.1-0.3,0.3-0.6,0.5-0.9c0.1,0,0.1,0,0.1,0.1
		c0.6,0.6,1.3,1,2.1,1.2c0,0,0,0,0.1,0C16.1,32.8,16,33.2,15.8,33.5z"/>
	<path class="st105" d="M20.1,31.7c-0.2-0.3-0.3-0.7-0.4-1.1c0.1-0.2,0.3-0.3,0.5-0.4c0.5-0.3,0.8-0.7,1.2-1.1c0,0,0.1-0.1,0.2-0.1
		c0.2,0.3,0.4,0.6,0.5,1c0,0.2-0.1,0.3-0.2,0.4c-0.4,0.5-0.9,0.9-1.4,1.3C20.3,31.7,20.2,31.8,20.1,31.7z"/>
	<path class="st106" d="M10.5,38.1c0.1-0.4,0.3-0.8,0.5-1.1c0.7,0.5,1.3,1,2.1,1.3c0,0,0.1,0.1,0.1,0.1c0,0.2-0.2,0.1-0.2,0.2l0,0
		c-0.3,0.1-0.5,0.3-0.8,0.4c-0.3,0.3-0.6,0-0.8-0.1c-0.3-0.2-0.6-0.4-0.8-0.6C10.5,38.2,10.4,38.2,10.5,38.1z"/>
	<path class="st107" d="M21.6,29c-0.4,0.6-1,1.1-1.6,1.5c-0.1,0-0.1,0.1-0.2,0.1c-0.1-0.4-0.3-0.8-0.4-1.1c0.6-0.3,1.2-0.7,1.6-1.2
		c0.1-0.1,0.1-0.2,0.2-0.2C21.3,28.4,21.4,28.7,21.6,29z"/>
	<path class="st108" d="M14.6,36.7c-0.1,0.2-0.2,0.4-0.3,0.7c-0.3,0.1-0.6-0.1-0.9-0.2c-0.6-0.3-1.2-0.6-1.7-1
		c-0.1-0.1-0.2-0.1-0.2-0.3c0.1-0.2,0.2-0.5,0.3-0.7c0.3,0.1,0.4,0.3,0.6,0.5c0.5,0.4,1.1,0.6,1.7,0.8
		C14.4,36.5,14.5,36.6,14.6,36.7z"/>
	<path class="st109" d="M12.5,34c0.6,0.6,1.3,1.1,2.2,1.3c0.1,0,0.3,0.1,0.4,0.1c-0.1,0.2-0.2,0.5-0.3,0.7c-0.3,0.1-0.6-0.1-0.9-0.2
		c-0.5-0.3-1-0.6-1.5-0.9c-0.1-0.1-0.3-0.2-0.2-0.3C12.3,34.4,12.4,34.2,12.5,34z"/>
	<path class="st110" d="M16.9,30.7c-0.3,0.1-0.5,0-0.7-0.1c-0.4-0.2-0.9-0.5-1.2-0.9c-0.1-0.1-0.1-0.2-0.2-0.3
		c0.1-0.3,0.2-0.5,0.4-0.8c0.1,0,0.2,0.1,0.2,0.2c0.4,0.5,0.9,0.9,1.6,1.1c0.1,0,0.1,0,0.1,0.1C17.1,30.2,17,30.4,16.9,30.7z"/>
	<path class="st104" d="M20.1,31.7c0.7-0.5,1.4-1,1.9-1.7c0.2,0.3,0.3,0.5,0.4,0.8c-0.2,0.4-0.6,0.7-1,1c-0.2,0.2-0.5,0.4-0.7,0.5
		c-0.1,0.1-0.2,0.1-0.3,0.1C20.3,32.3,20.2,32,20.1,31.7z"/>
	<path class="st111" d="M16.2,32.5c-0.6,0-1.1-0.4-1.6-0.7c-0.3-0.2-0.5-0.4-0.7-0.7c0.1-0.2,0.2-0.5,0.3-0.7
		c0.6,0.7,1.3,1.2,2.2,1.3C16.4,32,16.3,32.2,16.2,32.5z"/>
	<path class="st112" d="M11.6,35.8c0.4,0.5,1,0.7,1.5,1c0.4,0.2,0.8,0.4,1.3,0.5c0,0.1,0,0.1-0.1,0.2c-0.1,0.1-0.2,0.3-0.3,0.3
		c0,0-0.1,0-0.1,0c-0.2-0.1-0.4-0.2-0.6-0.3c-0.7-0.2-1.2-0.7-1.7-1c-0.1-0.1-0.2-0.1-0.2-0.3C11.4,36.2,11.5,36,11.6,35.8z"/>
	<path class="st113" d="M12.2,34.6c0.8,0.7,1.6,1.2,2.6,1.5c-0.1,0.2-0.1,0.4-0.2,0.6c-0.6-0.2-1.3-0.4-1.8-0.8
		c-0.3-0.2-0.6-0.4-0.9-0.7C12,35,12.1,34.8,12.2,34.6z"/>
	<path class="st114" d="M11.3,36.4c0.5,0.5,1.1,0.9,1.8,1.2c0.3,0.1,0.6,0.1,0.8,0.4c-0.2,0.3-0.4,0.3-0.7,0.4
		c-0.6-0.3-1.2-0.6-1.8-1c-0.2-0.1-0.3-0.2-0.4-0.4C11.1,36.7,11.2,36.5,11.3,36.4z"/>
	<path class="st100" d="M20.4,32.5c0.6-0.4,1.2-0.9,1.7-1.4c0.1-0.1,0.2-0.2,0.3-0.3c0.1,0.1,0.2,0.3,0.2,0.4
		c-0.6,0.7-1.2,1.3-2,1.7C20.5,32.9,20.5,32.7,20.4,32.5z"/>
	<path class="st115" d="M10.3,40.2c0,0-0.1,0-0.1,0c0.1-0.2,0-0.3-0.2-0.4c-0.1,0-0.2-0.1-0.2-0.2c0.1-0.4,0.3-0.7,0.5-1
		c0.3,0.2,0.6,0.3,0.9,0.6c0.1,0.1,0.2,0.2,0.1,0.4C10.9,39.8,10.6,40,10.3,40.2z"/>
	<path class="st116" d="M17.2,29.9c-0.8-0.1-1.3-0.5-1.8-1.1c-0.1-0.1-0.1-0.1-0.1-0.2c0-0.1,0.1-0.3,0.2-0.4c0.2,0,0.2,0.2,0.3,0.3
		c0.4,0.5,1,0.8,1.6,1C17.3,29.7,17.2,29.8,17.2,29.9z"/>
	<path class="st117" d="M11.3,39.6c0-0.4-0.3-0.5-0.5-0.6c-0.2-0.1-0.4-0.2-0.5-0.4c0.1-0.2,0.1-0.4,0.3-0.5
		c0.4,0.4,0.9,0.7,1.4,0.9c0.1,0,0.2-0.1,0.3-0.1c0,0,0,0.1,0,0.1c-0.2,0.1-0.3,0.2-0.5,0.3C11.6,39.4,11.4,39.5,11.3,39.6z"/>
	<path class="st118" d="M9.8,39.6c0.1,0.1,0.2,0.2,0.4,0.2c0.2,0.1,0.2,0.3,0,0.4c-0.2,0.2-0.5,0.3-0.7,0.5
		C9.3,40.2,9.6,40,9.8,39.6z"/>
	<path class="st119" d="M22.4,33.3c0.2-0.4,0.6-0.5,0.8-0.9c0.2,0.2,0.1,0.4-0.1,0.5C22.8,33,22.6,33.2,22.4,33.3z"/>
	<path class="st120" d="M13.2,38.3c0.2-0.1,0.5-0.2,0.7-0.4c0,0,0,0,0.1,0c0,0,0,0,0.1,0.1c-0.2,0.2-0.5,0.3-0.7,0.5
		c-0.1,0-0.2,0.1-0.3,0.1C13,38.4,13.2,38.4,13.2,38.3z"/>
	<path class="st121" d="M12.2,39C12.2,39,12.2,39,12.2,39c0.3-0.2,0.5-0.4,0.8-0.5C12.8,38.8,12.5,38.9,12.2,39z"/>
	<path class="st122" d="M146.7,30.7c-0.3,0.1-0.2-0.2-0.2-0.4c0-0.2-0.1-0.4,0.2-0.4c0.4,0,0.5,0.1,0.5,0.4
		C147.2,30.6,147,30.7,146.7,30.7z"/>
</g>
</svg>
