<?xml version="1.0" encoding="utf-8"?>
<!-- Generator: Adobe Illustrator 25.2.3, SVG Export Plug-In . SVG Version: 6.00 Build 0)  -->
<svg version="1.1" id="Layer_1" xmlns="http://www.w3.org/2000/svg" xmlns:xlink="http://www.w3.org/1999/xlink" x="0px" y="0px"
	 viewBox="0 0 150 70" style="enable-background:new 0 0 150 70;" xml:space="preserve">
<style type="text/css">
	.st0{fill:#6D52A2;}
	.st1{fill:#23BEC9;}
	.st2{fill:#6059A7;}
	.st3{fill:#5D56A5;}
	.st4{fill:#6456A4;}
	.st5{fill:#6854A3;}
	.st6{fill:#1BBECC;}
	.st7{fill:#16BECC;}
	.st8{fill:#565BA8;}
	.st9{fill:#6B52A2;}
	.st10{fill:#6556A5;}
	.st11{fill:#4E65AF;}
	.st12{fill:#6654A3;}
	.st13{fill:#0FBDCF;}
	.st14{fill:#0EBDCF;}
	.st15{fill:#4871B7;}
	.st16{fill:#5A58A6;}
	.st17{fill:#4675BA;}
	.st18{fill:#4578BC;}
	.st19{fill:#10B9CF;}
	.st20{fill:#5F5BA8;}
	.st21{fill:#565EAA;}
	.st22{fill:#14B9CF;}
	.st23{fill:#5D5BA8;}
	.st24{fill:#6359A6;}
	.st25{fill:#5958A6;}
	.st26{fill:#5E59A7;}
	.st27{fill:#4772B8;}
	.st28{fill:#585BA8;}
	.st29{fill:#5F57A6;}
	.st30{fill:#0DB7CF;}
	.st31{fill:#545DAA;}
	.st32{fill:#5062AD;}
	.st33{fill:#5260AB;}
	.st34{fill:#4D68B1;}
	.st35{fill:#11ACD3;}
	.st36{fill:#0AB4D0;}
	.st37{fill:#4B6DB4;}
	.st38{fill:#515FAB;}
	.st39{fill:#4970B7;}
	.st40{fill:#5162AD;}
	.st41{fill:#4870B7;}
	.st42{fill:#4C69B1;}
	.st43{fill:#5068B0;}
	.st44{fill:#4775BA;}
	.st45{fill:#12AED2;}
	.st46{fill:#506CB3;}
	.st47{fill:#4D67B0;}
	.st48{fill:#3F82C4;}
	.st49{fill:#11B1D2;}
	.st50{fill:#13A9D4;}
	.st51{fill:#5460AC;}
	.st52{fill:#427FC1;}
	.st53{fill:#3B87C7;}
	.st54{fill:#4F65AF;}
	.st55{fill:#1E9CD8;}
	.st56{fill:#4A71B7;}
	.st57{fill:#4876BB;}
	.st58{fill:#2898D4;}
	.st59{fill:#5462AD;}
	.st60{fill:#4A6CB4;}
	.st61{fill:#11B0D2;}
	.st62{fill:#17A6D3;}
	.st63{fill:#4774BA;}
	.st64{fill:#496EB5;}
	.st65{fill:#2E93D1;}
	.st66{fill:#10AAD4;}
	.st67{fill:#5265AF;}
	.st68{fill:#4F6EB5;}
	.st69{fill:#437CBF;}
	.st70{fill:#4A76BA;}
	.st71{fill:#5C5EA9;}
	.st72{fill:#4D6EB5;}
	.st73{fill:#4C71B7;}
	.st74{fill:#15A7D5;}
	.st75{fill:#4E6CB3;}
	.st76{fill:#427DC0;}
	.st77{fill:#358CCC;}
	.st78{fill:#1CA0D7;}
	.st79{fill:#4C68B1;}
	.st80{fill:#1E9DD8;}
	.st81{fill:#18A4D5;}
	.st82{fill:#14A4D6;}
	.st83{fill:#3889C9;}
	.st84{fill:#17A3D6;}
	.st85{fill:#17A6D5;}
	.st86{fill:#3290CE;}
	.st87{fill:#4081C3;}
	.st88{fill:#12B2D1;}
	.st89{fill:#2698D5;}
	.st90{fill:#5A61AC;}
	.st91{fill:#457ABE;}
	.st92{fill:#1F9BD7;}
	.st93{fill:#427CC0;}
	.st94{fill:#4181C3;}
	.st95{fill:#4678BC;}
	.st96{fill:#2B96D3;}
	.st97{fill:#3191CF;}
	.st98{fill:#0FB7CF;}
	.st99{fill:#5A5EAA;}
	.st100{fill:#368CCB;}
	.st101{fill:#3D84C5;}
	.st102{fill:#417FC2;}
	.st103{fill:#3B86C7;}
	.st104{fill:#5468B0;}
	.st105{fill:#4677BB;}
	.st106{fill:#3988C9;}
	.st107{fill:#437BBF;}
	.st108{fill:#3A87C7;}
	.st109{fill:#4B6BB3;}
	.st110{fill:#388AC9;}
	.st111{fill:#3E83C4;}
	.st112{fill:#15AAD4;}
	.st113{fill:#5862AD;}
	.st114{fill:#2D95D2;}
	.st115{fill:#398BCA;}
	.st116{fill:#4E71B7;}
	.st117{fill:#535DAA;}
	.st118{fill:#417EC1;}
	.st119{fill:#457ABD;}
	.st120{fill:#2F93D0;}
	.st121{fill:#2798D4;}
	.st122{fill:#1CA1D6;}
	.st123{fill:#348ECD;}
	.st124{fill:#5665AE;}
	.st125{fill:#1E9ED6;}
	.st126{fill:#2499D6;}
	.st127{fill:#2D94D2;}
	.st128{fill:#338FCE;}
	.st129{fill:#239CD6;}
	.st130{fill:#3D85C6;}
	.st131{fill:#4080C2;}
	.st132{fill:#4679BD;}
	.st133{fill:#3E84C5;}
	.st134{fill:#437DC0;}
	.st135{fill:#3988C8;}
	.st136{fill:#447CBF;}
	.st137{fill:#4A79BD;}
	.st138{fill:#18A8D4;}
	.st139{fill:#B8C4E4;}
	.st140{fill:#A9AAD5;}
	.st141{fill:#FFFFFF;}
	.st142{fill:#FEFEFF;}
</style>
<g>
	<path class="st0" d="M142.1,38c-0.4,1.9-0.9,3.8-1.1,5.7c-0.2,1.3-0.3,2.6-0.2,3.8c0.1,0.7,0.1,1.4,0.9,1.7
		c0.7,0.3,1.3-0.1,1.9-0.5c1.3-1.1,2.1-2.5,2.8-4c0.3-0.7,0.6-1.4,0.8-2.1c0.1-0.3,0.2-0.5,0.6-0.6c0.4,0,0.6,0.2,0.7,0.5
		c0.4,0.7,0.3,1.5,0.2,2.3c-0.6,4-4.4,7.6-8.3,8.1c-2.6,0.3-4.6-0.8-5.7-3.3c-0.2-0.6-0.4-1.2-0.7-1.8c-0.5,0.6-0.9,1.3-1.4,1.8
		c-1.8,2.1-4,3.5-6.8,3.4c-0.4,0-0.9,0-1.3-0.2c0.7-1,1.6-1.9,2.3-2.8c0.4-0.4,0.7-0.9,0.9-1.4c0.1,0,0.2,0,0.3,0
		c1.4,0.6,2.4-0.1,3.2-1.1c1.3-1.6,2.2-3.4,2.8-5.3c0.2-0.5,0.2-1,0.6-1.4c1.6-0.6,3.1-1.3,4.6-2c0.6-0.3,1.2-0.6,1.8-0.8
		C141.5,38,141.8,37.8,142.1,38z"/>
	<path class="st1" d="M10.5,18.4c1.7-2.1,3.8-3.8,6.2-5.2c3.7-2.2,7.6-3.2,11.9-2.9c0.5,0,1.1,0.1,1.6,0.2c0,0.6-0.5,1.4-1.2,1.7
		c-0.3,0.1-0.5,0.2-0.5,0.6c0,0.4-0.6,0.3-0.8,0.5c0.3,0.2,0.8-0.2,0.9,0.3c-2.8-0.2-5.2,0.8-7.4,2.3c-0.2,0.2-0.5,0.3-0.7,0.5
		c-1.2,0.3-2.3,0.7-3.4,1.1c-1.7,0.6-3.5,0.7-5.2,1C11.4,18.6,10.9,18.7,10.5,18.4z"/>
	<path class="st2" d="M134.5,26.9c0.8,0.3,1.4,0.8,1.9,1.6c0,0.5-0.4,0.5-0.7,0.6c-0.7,0.3-1.4,0.6-1.9,1.1
		c-0.6,0.3-1.3,0.4-1.8,0.8c-1.1,0.8-1.7,1.9-2.4,2.9c-0.2,0.3-0.3,0.6-0.6,0.7c-0.9,0.1-1.8,0.5-2.6,0.9c-0.4,0.2-0.8,0.4-1.2,0.6
		c-0.1,0.1-0.3,0.1-0.4,0.2c-0.6,1-1.9,1.1-2.7,1.9c-0.4,0.4-1,0.6-1.7,0.7c0.1-0.8,0.5-1.5,0.7-2.3c0,0-0.1-0.1-0.1,0
		c-1.7,1-3.5,1.4-5.5,1.2c-0.1,0-0.2,0-0.3,0c0-0.2,0.2-0.3,0.3-0.3c1,0.2,1.6-0.6,2.3-1.1c0.5-0.3,0.8-0.7,1-1.2
		c1.6-0.5,2.8-1.4,4-2.5c1.2-0.2,2.2-0.8,3.1-1.5c0.9-0.6,1.8-1,2.7-1.5c1.3-0.6,2.5-1.4,3.8-1.8c0.5-0.2,0.9-0.6,1.4-0.8
		C134.1,27,134.3,26.8,134.5,26.9z"/>
	<path class="st3" d="M110.1,46c-1.6,2.3-3.5,4.4-5.8,6c-2.5,1.7-4.2,1.3-5.7-1.4c-0.3-0.6-0.6-1.1-0.8-1.8
		c-0.1-0.3,0.2-0.3,0.3-0.4c1.4-1,3-1.6,4.6-2.3c0.2-0.1,0.5-0.2,0.7,0c0.2,0.4,0.3,0.7,0.5,1.1c0.4,0.8,0.8,0.9,1.6,0.3
		c0.6-0.4,1.1-1,1.6-1.5c0.2-0.2,0.3-0.4,0.5-0.5c0.2-0.2,0.3-0.3,0.4-0.5l0,0c0.3-0.2,0.7-0.3,1.1-0.4c0.4,0,0.5,0.1,0.3,0.5
		c-0.1,0.1-0.1,0.2-0.2,0.3c-0.1,0.1-0.2,0.2-0.1,0.3c0.1,0.2,0.2,0.1,0.3,0c0.1,0,0.2-0.1,0.4-0.1C110.1,45.5,110.3,45.6,110.1,46z
		"/>
	<path class="st4" d="M120.4,38.8c1.3-0.4,2.2-1.5,3.5-1.9c0.4-0.1,0.3-0.6,0.7-0.8c1.3-0.7,2.7-1.3,4.1-1.8
		c0.2-0.1,0.2,0.1,0.3,0.2c0.1,0.4-0.1,0.7-0.3,1.1c-0.7,1.6-1.3,3.3-1.7,5.1c0,0.2-0.1,0.4-0.3,0.4c-0.2-0.1-0.2-0.2-0.1-0.4
		c-0.5,0.2-0.9,0.5-1.3,0.8c-0.3,0.2-0.5,0.4-0.6,0.7c-0.1,0.4-0.4,0.7-0.8,0.8c-0.6,0.1-1.1,0.4-1.5,0.9c-0.3,0.4-0.9,0.6-1.3,0.8
		c-0.5,0.3-0.9,0.6-1.2,1.2c-0.3-2-0.2-3.9,0.2-5.9C120.1,39.6,120.2,39.1,120.4,38.8z"/>
	<path class="st5" d="M142.1,38c-2.3,0.7-4.4,1.9-6.6,2.8c-0.2,0.1-0.4,0.4-0.6,0.1c-0.1-0.1-0.1-0.3-0.1-0.4c0.5-1.8,0.8-3.7,1-5.6
		c0.1-0.3,0.4-0.4,0.7-0.5c2.2-1.1,4.4-2.1,6.7-3.1c0.3-0.1,0.7-0.4,0.7,0.3c-0.5,2-1.1,4-1.6,6C142.2,37.7,142.2,37.8,142.1,38z"/>
	<path class="st6" d="M10.5,18.4c1.8,0,3.6-0.3,5.4-0.8c1.2-0.3,2.4-0.6,3.5-1.1c0.3-0.1,0.7-0.2,1-0.1c-2,1.7-3.7,3.6-5.2,5.7
		c-1,0.4-2,0.6-3,0.7c-1.6,0.3-3.1,0.8-4.7,0.9c-0.3,0-0.5,0.1-0.7-0.2C7.8,21.7,9,20,10.5,18.4z"/>
	<path class="st7" d="M28.5,13.6c-0.3-0.3-0.7-0.1-1.1-0.1c-0.1,0-0.3,0-0.3-0.2c0-0.1,0.1-0.2,0.3-0.2c0.3,0,0.5-0.2,0.7-0.2
		c0.1,0,0.3,0,0.1-0.2c-0.4-0.4,0.1-0.6,0.3-0.6c0.9-0.2,1.2-0.9,1.6-1.6c3.6,0.5,6.9,2.7,7.8,6.1c0,0.1,0,0.2,0,0.3
		c-0.5,0.4-1-0.2-1.4-0.1c0.1,0.1,0.2,0,0.3,0.1c0.2,0,0.3,0.1,0.4,0.2c0,0.2-0.2,0.3-0.3,0.3c-0.3,0.1-0.6,0.2-0.8,0.1
		c-0.8-0.2-1.5,0-2.2,0.3c-0.5,0.2-1,0.3-1.4-0.2c-0.2-0.8-0.4-1.6-0.9-2.3C30.9,14.4,29.8,13.9,28.5,13.6z"/>
	<path class="st8" d="M86.8,47.5c0.7,0.5,1.4,0.3,2.1-0.1c1.1-0.6,1.8-1.6,2.6-2.6c0.8-0.4,1.6-0.9,2.4-1.1c0.2-0.1,0.6-0.3,0.7,0.2
		c-0.6,1.3-1.2,2.6-2.1,3.7c-0.7,0.2-1.2,0.7-1.9,1c-1.6,0.7-3.1,1.4-4.7,2c-1,0.4-1.9,0.8-2.8,1.3c-0.2,0.1-0.4,0.2-0.6,0.3
		c-1-0.6-1.7-1.4-2-2.5c0.2-0.3,0.6-0.5,0.9-0.6c1.5-0.5,3.1-1.1,4.6-1.7C86.3,47.3,86.6,47.3,86.8,47.5z"/>
	<path class="st9" d="M127.9,48.6c0.2,0.6-0.3,0.9-0.5,1.2c-0.7,0.9-1.6,1.8-2.3,2.7c-0.1,0.1-0.2,0.2-0.4,0.2
		c-1.8-0.4-2.9-1.6-3.8-3.1c-0.1-0.3-0.2-0.6-0.4-0.9c0.2-0.2,0.5-0.4,0.8-0.5c1-0.4,1.9-1.1,2.6-1.9c0.6-0.6,1.4-0.9,2.1-1.3
		c0.1-0.1,0.3-0.1,0.4,0c0.1,0.1,0.2,0.2,0.2,0.3C126.7,46.5,127.3,47.6,127.9,48.6z"/>
	<path class="st10" d="M143.9,31.5c-0.1-0.4-0.3-0.3-0.5-0.2c-1.6,0.7-3.1,1.4-4.7,2.1c-0.9,0.4-1.8,0.9-2.7,1.3
		c-0.3-0.5-0.2-1.1-0.3-1.7c-0.1-0.3-0.1-0.6-0.1-1c0-0.7,0.6-0.9,1.1-1.2c1.1-0.5,2.2-1,3.2-1.5c1.3-0.7,2.6-1.3,3.9-1.8
		c0.2-0.1,0.5-0.3,0.7-0.1c0.3,0.5,0.2,1,0.1,1.5C144.5,29.8,144.2,30.7,143.9,31.5z"/>
	<path class="st11" d="M64.4,48.7c-0.2-0.3,0-0.7-0.1-1c-0.5,0.4-0.7,1-1.2,1.4c-1.4,0.3-2.7,1.1-4,1.7c-1.4,0.6-2.7,1.2-3.9,2.1
		c0.2-0.1,0.3-0.2,0.4,0.1c-0.9,0-1.6-0.3-2.3-0.9c-0.4-0.5,0.1-0.7,0.4-0.8c1.3-0.6,2.5-1.3,3.8-1.8c0.4-0.2,0.8-0.4,1.2-0.2
		c1-0.1,1.7-0.6,2.5-1.2c2.1-0.8,4.1-1.6,6.2-2.3c1.5-0.5,3-1,4.5-1.5c0.2-0.1,0.5-0.3,0.7,0.1c-0.2,0.6-0.3,1.2-0.6,1.7
		c-0.6,0-1.1,0-1.6,0.3c-1.4,0.7-2.9,1.1-4.4,1.6C65.3,48,64.8,48.2,64.4,48.7z"/>
	<path class="st12" d="M126.4,45c-1.2,0.5-2.3,1.1-3.1,2.1c-0.3,0.3-0.5,0.6-0.9,0.7c-0.7,0.2-1.2,0.8-1.9,0.9
		c-0.4-0.9-0.6-1.9-0.6-2.9c-0.1-0.5,0.2-0.8,0.6-1.1c0.7-0.5,1.6-0.8,2.2-1.5c0.2-0.2,0.5-0.4,0.8-0.4c0.6-0.1,0.9-0.4,1.2-1
		c0.3-0.6,1.1-0.9,1.8-1.2c0.4-0.1,0.2,0.3,0.3,0.4c0,0.1,0,0.1,0,0.2c0,0.2,0,0.5,0,0.7c0,0.8-0.2,1.7-0.1,2.5
		C126.6,44.7,126.6,44.9,126.4,45z"/>
	<path class="st13" d="M6.8,23.6c0.6,0.2,1.2,0,1.7-0.1c1.8-0.5,3.6-0.8,5.4-1.1c0.4-0.1,0.8-0.5,1.3-0.3c-0.8,1.1-1.2,2.3-1.9,3.4
		c-0.8,0.3-1.6,0.4-2.3,0.7c-1.4,0.4-2.8,0.5-4.2,1c-0.6,0.2-1.1,0.3-1.7,0.2C5.5,26.1,6.1,24.8,6.8,23.6z"/>
	<path class="st14" d="M32.5,17.7c0.8,0.5,1.5,0,2.2-0.2c0.3-0.1,0.6-0.2,0.9-0.1c0.5,0.2,1.1,0.1,1.6-0.2c-0.2-0.2-0.4-0.1-0.6-0.1
		c-0.2,0-0.4,0-0.4-0.2c0-0.3,0.2-0.3,0.5-0.2c0.5,0.1,0.9,0.4,1.4,0.3c0.4,1.5,0.4,3-0.1,4.5c-0.7,0.4-1.4,0.8-2.3,0.4
		c-0.2-0.1-0.3,0-0.5,0c-0.7,0.4-1.6,0.3-2.3,0.5c-0.2,0.1-0.4,0-0.6-0.1C32.6,20.8,32.6,19.3,32.5,17.7z"/>
	<path class="st15" d="M57.4,44.9c0,0.9,0,1.7,0,2.6c-0.4-0.1-0.2-0.5-0.3-0.7c0-0.1,0-0.1,0-0.2c0-0.8,0-0.8-0.8-0.5
		c-1.8,0.7-3.5,1.6-5.3,2.4c-0.1-0.2-0.2-0.4-0.3-0.7c-0.5,0.4-0.6,1-1.1,1.3c-2.2,0.9-4.3,2-6.5,2.9c-0.3,0.1-0.6,0.2-0.9,0.3
		c-0.3,0.1-0.5,0.2-0.6,0.6c-0.9-0.1-1.6-0.4-2.3-0.9c-0.2-0.4,0.2-0.5,0.4-0.6c0.9-0.3,1.7-0.7,2.5-1c1.1-0.4,2.2-0.8,3.3-1.5
		c0.5-0.2,1.1-0.4,1.6-0.6c0.9-0.2,1.7-0.6,2.5-1c2.2-0.9,4.4-2,6.6-2.9c0.1,0,0.2-0.1,0.4-0.1C57.4,44.1,57.5,44.1,57.4,44.9z"/>
	<path class="st16" d="M103.5,46.1c-0.1,0-0.3,0-0.4,0c-0.8,0.5-1.8,0.6-2.6,1c-0.9,0.5-1.7,1.1-2.6,1.6c-0.5-1-0.8-2.1-0.9-3.2
		c-0.2-0.5,0-0.8,0.4-1c1.1-0.6,2.1-1.2,3.3-1.6c0.4-0.1,0.7-0.3,1-0.6c0.3-0.4,0.7-0.5,1.2-0.2C103,43.4,103.3,44.8,103.5,46.1z"/>
	<path class="st17" d="M9.7,53.7c-0.3-0.2-0.7-0.5-0.9-0.8c0-0.4,0.3-0.5,0.6-0.5c2-0.2,4.1-0.2,6.1,0.1c1.8,0.3,3.7,0.7,5.5,0.9
		c1.5,0.2,3.1,0.1,4.6-0.1c0.9-0.1,1.8-0.1,2.7-0.3c0.3-0.1,0.7-0.2,0.8,0.3c-0.8,0.7-1.7,1.3-2.7,1.7c-0.9-0.1-1.9,0-2.8,0.1
		c-2.2,0.2-4.3-0.2-6.4-0.7c-2.2-0.6-4.4-0.9-6.6-0.9C10.4,53.5,10.1,53.7,9.7,53.7z"/>
	<path class="st18" d="M29.2,53.3c-0.3-0.3-0.7-0.2-1.1-0.1c-1.1,0.3-2.2,0.2-3.3,0.4c-1.2,0.2-2.4,0-3.6,0.1c-0.3,0-0.6-0.2-1-0.2
		c-2.4-0.4-4.8-0.9-7.2-1c-1.2-0.1-2.4,0.2-3.6,0.1c-0.2,0-0.5,0.1-0.6,0.4c-0.4-0.2-0.7-0.6-0.9-0.9c0.1-0.4,0.4-0.4,0.6-0.4
		c1.5-0.3,2.9-0.5,4.4-0.5c1.1,0,2.2,0.1,3.2,0.1c0.2,0,0.3,0,0.5,0.1c0.9,0.4,1.8,0.7,2.8,0.9c1.9,0.5,3.9,0.4,5.8,0.3
		c1.6-0.1,3.2-0.2,4.7-0.6c0.3-0.1,0.6,0,0.7,0.3C30.1,52.5,29.8,53.1,29.2,53.3z"/>
	<path class="st19" d="M5.1,27.5c1.4-0.3,2.7-0.8,4.1-0.9c0.4,0,0.7-0.2,1-0.3c1-0.3,2.1-0.4,3.1-0.6c-0.4,1.1-0.9,2.2-1.3,3.3
		c-1.4,0.2-2.7,0.5-4.1,0.8c-1.3,0.3-2.5,0.8-3.8,0.8C4.3,29.5,4.7,28.4,5.1,27.5z"/>
	<path class="st20" d="M134.5,26.9c-0.6,0.3-1.2,0.5-1.7,0.9c-0.3,0.3-0.7,0.2-1,0.4c-1.3,0.6-2.6,1.3-3.9,2
		c-1.3,0.6-2.4,1.4-3.7,2.1c-0.4,0.2-0.9,0.8-1.6,0.4c1.2-1.5,2.3-3,3.9-4.2c2-1.5,4.1-2.4,6.7-1.9
		C133.8,26.6,134.2,26.7,134.5,26.9z"/>
	<path class="st21" d="M94.7,44c-0.6-0.3-1.1,0.2-1.6,0.3c-0.5,0.2-0.9,0.6-1.5,0.6c0.6-1.1,1.3-2.2,1.9-3.3
		c1.9-0.9,3.9-1.8,5.9-2.7c0.8-0.3,1.4-1.1,2.2-1.3c0.3-0.1,0.5-0.2,0.8-0.2c0.2,0,0.1,0.2,0.2,0.3c0,0.9,0.1,1.9,0.1,2.8
		c-0.3,0-0.3-0.2-0.3-0.4c0-0.3-0.2-0.5-0.5-0.3c-1.7,1.3-3.8,1.8-5.5,3c-0.2-0.5-0.2-1-0.3-1.5c-0.1-0.1-0.2-0.1-0.2,0
		C95.5,42.2,95.2,43.1,94.7,44z"/>
	<path class="st22" d="M32.1,22.3c1-0.2,2.1-0.1,3-0.7c0.2-0.1,0.3,0,0.5,0.1c0.5,0.2,1,0.4,1.5-0.1c0.2-0.2,0.5-0.1,0.7-0.1
		c-0.4,1.5-1.1,2.9-2.3,4c-1.5,0-2.9,0.1-4.4,0.4c-0.2,0-0.5,0-0.7-0.1C31.1,24.6,31.6,23.4,32.1,22.3z"/>
	<path class="st23" d="M117.5,32c-0.3,1-0.5,1.9-0.9,2.9c-0.2,0.4,0.2,0.3,0.3,0.5c-1,0.5-2,0.8-3,1.2c-0.5,0.2-1,0.5-1.5,0.7
		c0.1-0.3-0.1-0.5-0.3-0.6c-0.6-0.4-1.2-0.8-1.7-1.3c-0.1-0.3,0-0.5,0.2-0.6c0.9-0.6,1.7-1.3,2.8-1.5c0.3,0.1,0.4-0.1,0.6-0.2
		c0.8-0.4,1.7-0.7,2.5-1C116.8,31.7,117.2,31.5,117.5,32z"/>
	<path class="st24" d="M144.5,27.5c-1.7,0.7-3.4,1.5-5,2.3c-1.1,0.5-2.2,1.1-3.3,1.6c-0.3,0.1-0.5,0.3-0.4,0.6
		c-0.2,0-0.3-0.2-0.3-0.3c-0.3-0.7-0.7-1.2-1.4-1.4c-0.1,0-0.2-0.1-0.2-0.2c0.6-0.8,1.5-0.9,2.3-1.3c0.1-0.1,0.3-0.1,0.4-0.3
		c0.4,0.5,0.5,1.1,0.8,1.7c0.4-0.5,0.7-1,1.1-1.5c1.3-1.6,2.9-2.5,5.1-2.1C143.8,26.7,144.3,26.9,144.5,27.5z"/>
	<path class="st25" d="M82.5,52.2c0.1-0.2,0.3-0.3,0.5-0.4c2.1-1.1,4.3-1.8,6.4-2.8c0.8-0.4,1.7-0.7,2.5-1.3
		c0.2-0.1,0.4-0.3,0.6-0.1c-0.8,1.1-1.5,2.2-2.5,3.1c-1.6,1.4-3.2,2.4-5.4,2.2C83.9,52.8,83.1,52.7,82.5,52.2z"/>
	<path class="st26" d="M112.4,37.2c0.2-0.4,0.5-0.6,1-0.7c0.9-0.2,1.8-0.7,2.6-1c0.3-0.1,0.6-0.1,0.9-0.2c0,0,0.1,0,0.1,0
		c0.4,0.1,0.7,0.1,1.1,0c0.3,0.1,0.5-0.1,0.8-0.1c0.1,0.9-0.7,1.1-1.2,1.6c0,0-0.1,0-0.1,0c-0.6,0.7-1.5,0.8-2.4,0.9
		c-0.3,0.7-0.6,1.4-1.1,2c-0.5,0.1-1,0.3-1.4,0.6c-0.6,0.4-1.4,0.8-2.2,0.6C111.1,39.6,111.7,38.4,112.4,37.2z"/>
	<path class="st27" d="M9.7,53.7c0.1-0.4,0.5-0.4,0.8-0.4c1.2,0,2.5,0.1,3.7,0.3c2.3,0.3,4.6,1.2,6.9,1.3c1.5,0.1,3-0.1,4.4-0.1
		c0.3,0,0.5,0,0.8-0.1c0.2,0,0.2,0.2,0.1,0.3c-0.9,0.6-1.9,1-2.9,1.2c-2.9,0.3-5.7-0.5-8.4-1.2c-1.5-0.4-3-0.6-4.5-0.6
		C10.4,54.1,10,53.9,9.7,53.7z"/>
	<path class="st28" d="M96.4,42.8c0.3-0.5,0.9-0.7,1.4-1c1.3-0.6,2.7-1.1,3.9-2.1c0.1-0.1,0.3-0.1,0.4-0.2c0.4-0.2,0.5-0.1,0.5,0.3
		c0,0.2-0.1,0.4,0.1,0.6c0.1,0.5,0.2,1.1,0.1,1.6c-0.5,0-0.9,0-1.2,0.5c-0.2,0.3-0.5,0.4-0.8,0.5c-1.3,0.3-2.3,1.1-3.5,1.6
		c-0.3,0.2-0.4,0.5-0.4,0.8C96.6,44.7,96.5,43.7,96.4,42.8z"/>
	<path class="st29" d="M110.5,40.9c0.8-0.3,1.8-0.2,2.4-1c0.2-0.3,0.8-0.4,1.2-0.2c-1,2.1-2.3,4-3.6,5.9c-0.1,0.1-0.2,0.3-0.3,0.4
		c0-0.4-0.2-0.5-0.5-0.3c-0.2,0.1-0.5,0.4-0.7,0.1c-0.3-0.4,0.1-0.5,0.3-0.7c0.1-0.1,0.2-0.2,0.2-0.4c-0.5-0.1-0.9,0.3-1.4,0.2
		C108.8,43.5,109.7,42.2,110.5,40.9z"/>
	<path class="st30" d="M4.2,30.5c0.1-0.1,0.2-0.3,0.4-0.3c1.1,0.1,2-0.5,3-0.7c0.9-0.2,1.8-0.4,2.8-0.6c0.5-0.1,1,0,1.5-0.3
		c0.1-0.1,0.2,0.1,0.3,0.2c-0.2,0.6-0.2,1.2-0.5,1.8c-0.3,0.2-0.6,0.4-0.9,0.4c-1.8,0.2-3.5,0.9-5.2,1.2c-0.5,0.1-1.1,0.3-1.7,0.2
		C3.8,31.8,3.9,31.2,4.2,30.5z"/>
	<path class="st31" d="M86.8,47.5c-0.5-0.2-1,0.1-1.4,0.2c-1.6,0.7-3.3,1-4.8,1.9c-0.1,0-0.1,0-0.2,0C80.2,49,80,48.3,80,47.6
		c0-0.1,0-0.1,0-0.2c0.6-0.3,1.2-0.6,1.7-0.8c1.3-0.5,2.5-1.1,3.9-1.3c0.6-0.1,0.7-0.1,0.7,0.5c0,0.2-0.1,0.5,0.1,0.7
		C86.6,46.8,86.7,47.2,86.8,47.5z"/>
	<path class="st32" d="M64.4,48.7c0-0.3,0.2-0.4,0.4-0.6c0.8-0.4,1.7-0.5,2.5-0.8c1-0.4,2.1-0.7,3.1-1.2c0.4-0.2,0.9-0.1,1.3-0.3
		c0.2-0.1,0.2,0.1,0.2,0.3c-0.3,0.8-0.5,1.6-0.8,2.3c-1-0.1-1.9,0.4-2.8,0.6c-1,0.2-1.9,0.7-2.9,0.9c-0.3,0.1-0.5,0.3-0.7,0.5
		C64.4,49.8,64.4,49.2,64.4,48.7z"/>
	<path class="st33" d="M86.4,46.5c0,0-0.1-0.1-0.1-0.1c-0.1-0.3,0.2-0.8-0.2-1c-0.3-0.2-0.6,0.1-0.9,0.2c-1.4,0.4-2.7,0.9-4,1.5
		c-0.4,0.2-0.8,0.3-1.2,0.3c-0.2-0.7-0.1-1.5-0.1-2.2c0-0.3,0.3-0.3,0.5-0.4c1.2-0.4,2.4-0.7,3.6-1.1c0.5-0.2,1-0.3,1.5-0.5
		c0.8-0.3,0.9-0.2,0.9,0.6c0,0.2,0,0.3-0.1,0.5C86.4,45,86.4,45.7,86.4,46.5z"/>
	<path class="st34" d="M80.5,41.3c0.1-0.6,0.3-1.2,0.4-1.9c0.1-0.3,0.3-0.4,0.6-0.5c1.8-0.7,3.8-1.1,5.6-1.8
		c0.3-0.1,0.5-0.1,0.7,0.1c-0.2,0.7-0.2,1.5-0.6,2.2c-0.2-0.1-0.4,0-0.6,0.1c-1.8,0.8-3.7,1.3-5.5,1.9C81,41.4,80.7,41.5,80.5,41.3z
		"/>
	<path class="st35" d="M38.9,33.7c0.2-0.5,0.5-0.9,0.8-1.3c1.6-0.3,3-1,4.5-1.5c2-0.7,4-1.6,6.1-2.1c0.5-0.1,1-0.4,1.6-0.6
		c0.3-0.1,0.6-0.2,0.9,0.1c0.2,0.2,0.4,0.5,0.5,0.8c-0.3,0.6-1,0.6-1.5,0.8c-0.3,0.1-0.6,0.2-0.9,0.5c-0.9,0.1-1.8,0.2-2.5,0.8
		c-0.1,0.1-0.2,0-0.3,0c-0.3-0.2-0.5-0.1-0.8,0c-2.3,0.9-4.6,1.6-7,2.2C39.8,33.5,39.4,33.9,38.9,33.7z"/>
	<path class="st36" d="M3.7,32.5C5.8,32,7.8,31.4,9.9,31c0.5-0.1,1.1-0.2,1.6-0.3c-0.1,0.7-0.3,1.3-0.4,2C10,32.9,9,33.3,8,33.4
		c-1.2,0.2-2.3,0.6-3.5,0.9c-0.3,0.1-0.7,0.2-1,0C3.5,33.7,3.6,33.1,3.7,32.5z"/>
	<path class="st37" d="M87.9,37.2c-0.6-0.2-1.1,0.3-1.6,0.4c-1.6,0.4-3.2,1-4.8,1.5c-0.2,0.1-0.4,0.2-0.6,0.3
		c0.1-0.8,0.3-1.6,0.5-2.4c1.1-0.6,2.3-0.7,3.5-1.1c0.9-0.3,1.8-0.7,2.8-0.8c0.2,0,0.6-0.2,0.6,0.2C88.2,36,88.1,36.6,87.9,37.2z"/>
	<path class="st38" d="M64.7,50.4c0-0.3,0.2-0.5,0.4-0.6c1.8-0.5,3.6-1.2,5.4-1.7c0.2-0.1,0.5-0.2,0.6,0.2c-0.3,0.9-0.5,1.8-0.8,2.7
		c-0.2-0.2-0.4-0.3-0.8-0.2c-0.9,0.3-1.9,0.5-2.8,0.8C66.3,51.8,66,52,66,52.5C65.2,52,64.8,51.3,64.7,50.4z"/>
	<path class="st39" d="M76.1,37.6c-0.5,0.4-0.5,1.2-1,1.6c-1,0.1-2,0.5-2.9,0.9c-2,0.7-3.9,1.5-5.9,2.2c-0.5,0.2-1.1,0.3-1.6,0.2
		c0.1-0.4,0.3-0.8,0.5-1.2c0.1-0.2,0.3-0.3,0.5-0.4c3.2-1,6.3-2.2,9.5-3.3C75.5,37.3,75.8,37.2,76.1,37.6z"/>
	<path class="st40" d="M86.4,44.3c0-1.2,0-1.1-1.2-0.8c-1.6,0.5-3.2,1-4.8,1.5c-0.4,0.1-0.5,0.2-0.4,0.6c0,0.6,0,1.2,0,1.9
		c0,0.1,0,0.1,0,0.2c-0.3-1.4-0.1-2.8,0.1-4.2c0.1-0.4,0.4-0.6,0.8-0.7c1.6-0.5,3.3-1,4.9-1.5c0.2-0.1,0.4-0.1,0.6-0.1
		c0.4,0,0.6,0.2,0.4,0.6C86.7,42.6,86.6,43.4,86.4,44.3z"/>
	<path class="st41" d="M10.7,54.4c0-0.1,0.1-0.3,0.2-0.3c0.5,0.2,1.1,0,1.6,0.1c2.2,0.4,4.4,1,6.5,1.5C20,56,21,56.2,22,56
		c0.5-0.1,1.1-0.1,1.6,0.2c-0.6,0.3-1.2,0.4-1.8,0.4c-0.3,0.2-0.7,0-1,0.1C17.2,57,13.8,56.4,10.7,54.4z"/>
	<path class="st42" d="M62.4,46.4c0.3-0.5,0.7-1.1,1-1.6c0.8-0.3,1.6-0.6,2.4-0.8c1.2-0.4,2.5-0.9,3.7-1.3c1.2-0.4,2.4-0.8,3.6-1.1
		c0.2-0.1,0.5-0.2,0.6,0.2c-0.2,0.5-0.3,1-0.7,1.4c-1.2,0.1-2.2,0.6-3.3,1c-2.2,0.7-4.4,1.5-6.6,2.2C62.9,46.4,62.7,46.6,62.4,46.4z
		"/>
	<path class="st43" d="M95.2,36.5c0.1-0.6,0.2-1.2,0.3-1.9c0.8-0.5,1.6-0.7,2.5-1.1c1.2-0.5,2.3-1.1,3.5-1.7
		c0.3-0.2,0.7-0.4,1.1-0.1c0,0.6,0,1.2,0,1.8c-0.4,0.4-0.9,0.4-1.3,0.6c-1.6,1-3.3,1.6-5,2.3C95.8,36.6,95.5,36.8,95.2,36.5z"/>
	<path class="st44" d="M76.1,37.6c-0.7-0.4-1.2,0.2-1.8,0.4c-1.4,0.4-2.8,1-4.2,1.5c-1.2,0.4-2.5,0.9-3.7,1.4
		c-0.4,0.1-0.8,0.1-1.1,0.4c0.1-0.5,0.3-0.9,0.5-1.3c1.2-0.5,2.4-1,3.7-1.4c1.3-0.3,2.4-1,3.7-1.4c0.1,0,0.2-0.1,0.2-0.2
		c0.1-0.1,0.2-0.1,0.4-0.2c1-0.4,2-0.6,3-1c0.2-0.1,0.5-0.2,0.6,0.2C76.8,36.4,76.5,37.1,76.1,37.6z"/>
	<path class="st45" d="M52.8,28.3c-0.2-0.1-0.5,0-0.7,0c-2.4,0.8-4.7,1.6-7.1,2.5c-1.5,0.6-3.1,1.2-4.6,1.7c-0.2,0.1-0.4,0.1-0.6,0
		c0.2-0.4,0.5-0.9,0.9-1.2c0.2-0.1,0.3-0.2,0.4-0.3c1.6-0.3,3.1-0.9,4.6-1.5c1.9-0.8,3.9-1.3,5.8-2.2c0.1,0,0.1,0,0.2,0
		C52.1,27.4,52.5,27.8,52.8,28.3z"/>
	<path class="st46" d="M115.9,21.7c0.6,0.2,1,0.5,1.3,1c-0.6,0.7-1.4,1-2,1.5c-0.3,0.2-0.5,0.4-0.8,0.6c-1,0-1.4,0.7-1.7,1.5
		c-0.1,0.2-0.1,0.5-0.4,0.6c-0.2-0.2-0.4-0.2-0.7,0c-0.8,0.7-1.7,1.1-2.6,1.6c-0.5,0.3-0.8,0.5-0.8,1.1c0,0.1,0,0.3-0.2,0.4
		c-0.2-0.6-0.1-1.3,0-1.9c0.2-0.3,0-0.6,0.1-0.8c0,0,0-0.1,0-0.1c1.9-0.9,3.5-2.2,5.1-3.5C114.2,22.9,115,22.2,115.9,21.7z"/>
	<path class="st47" d="M62.4,46.4c1.2-0.2,2.3-0.7,3.5-1.1c2.2-0.7,4.4-1.5,6.6-2.2c0.2-0.1,0.5-0.2,0.6,0.1
		c-0.2,0.4-0.2,0.9-0.5,1.2c-0.2-0.2-0.3-0.1-0.5,0c-2.2,0.7-4.4,1.3-6.5,2.1c-1.2,0.5-2.5,0.7-3.7,1.4c-0.2,0.1-0.5,0.1-0.8,0.1
		C61.5,47.4,61.9,46.9,62.4,46.4z"/>
	<path class="st48" d="M76.1,32.8c0.3-0.5,0.6-0.9,1-1.3c0.8-0.6,1.7-0.7,2.6-1c1.5-0.5,2.9-1.2,4.3-1.7c1-0.4,2-0.6,3-1
		c0.1-0.1,0.3,0,0.5,0c0.3,0.3,0.6,0.6,0.6,1.1c-1.3,0.5-2.5,1.3-3.9,1.5c-1.4,0.2-2.7,0.9-4,1.4c-1.2,0.4-2.3,0.8-3.5,1.2
		C76.6,32.9,76.3,33,76.1,32.8z"/>
	<path class="st49" d="M3.5,34.2c0.7,0.1,1.4-0.2,2.1-0.4c1.2-0.4,2.5-0.5,3.8-0.9c0.6-0.2,1.1-0.4,1.7-0.3c0,0.5-0.1,1.1-0.2,1.6
		c-0.5,0.4-1.1,0.3-1.7,0.5c-1.8,0.6-3.7,0.8-5.4,1.4c-0.1,0-0.2,0-0.3,0C3.3,35.5,3.4,34.9,3.5,34.2z"/>
	<path class="st45" d="M3.4,36.1c0.6-0.4,1.3-0.5,2-0.6c0.9-0.1,1.6-0.6,2.6-0.5c0.4,0.1,0.9-0.4,1.4-0.5c0.5-0.1,1-0.2,1.6-0.3
		c0,0.6,0,1.2-0.1,1.7c-0.5,0.3-1.1,0.3-1.7,0.5c-1.6,0.3-3.2,0.8-4.8,1.3c-0.3,0.1-0.6,0.2-0.8,0C3.3,37.2,3.4,36.6,3.4,36.1z"/>
	<path class="st50" d="M38.9,33.7c1.4-0.6,3-0.9,4.4-1.4c1.3-0.4,2.6-0.8,3.8-1.3c0.2-0.1,0.5-0.2,0.8-0.2c0.2,0,0.2,0.1,0.1,0.3
		c-0.3,0.7-0.9,1.3-1.4,1.8c-1.6,0.5-3.2,0.8-4.8,1.4c-1,0.4-2.1,0.6-3.1,1c-0.2,0.1-0.4,0.1-0.6,0C38.3,34.6,38.6,34.2,38.9,33.7z"
		/>
	<path class="st51" d="M102.4,37.4c-0.7,0.4-1.5,0.6-2.1,1.1c-0.8,0.6-1.8,0.9-2.7,1.3c-1,0.5-2,0.9-3.1,1.4
		c-0.3,0.2-0.7,0.3-1.1,0.3c0.3-0.6,0.5-1.2,0.8-1.9c0.8-0.6,1.8-0.7,2.7-1.2c1.3-0.6,2.6-1.1,3.9-1.8c0.3-0.2,0.7-0.4,1.1-0.4
		c0.2,0,0.4-0.1,0.6,0.1C102.4,36.8,102.5,37.1,102.4,37.4z"/>
	<path class="st52" d="M76.1,32.8c0.9-0.1,1.7-0.5,2.6-0.8c1.1-0.3,2.2-0.7,3.2-1.2c1.7-0.7,3.6-0.8,5.2-1.7c0.3-0.2,0.6-0.7,1-0.3
		c0,0.3,0.4,0.5,0.3,0.8c-0.2,0.3-0.5,0.4-0.9,0.5c-1.4,0.2-2.6,0.9-3.9,1.4c-0.8,0.3-1.6,0.4-2.4,0.8c-0.6,0-1,0.4-1.5,0.6
		c-1.1,0.4-2.3,0.5-3.4,1.1c-0.4,0.2-0.8,0.3-1.2,0.1C75.5,33.5,75.8,33.1,76.1,32.8z"/>
	<path class="st53" d="M87.5,27.7c-0.7,0.3-1.3,0.6-2,0.8c-1.9,0.4-3.5,1.4-5.3,1.9c-0.8,0.3-1.7,0.5-2.5,0.9
		c-0.1,0.1-0.3,0.1-0.4,0.1c0.3-0.5,0.7-0.9,1.2-1.3c0.5-0.6,1.2-0.9,1.9-1.2c1.2-0.4,2.3-0.9,3.5-1.4c0.8-0.4,1.6-0.7,2.5-0.7
		C86.8,27,87.2,27.2,87.5,27.7z"/>
	<path class="st54" d="M86.8,41.7c0-0.7-0.5-0.5-0.9-0.4c-0.7,0.2-1.3,0.5-1.9,0.6c-1,0.3-2,0.6-3,0.9c-0.3,0.1-0.6,0.3-0.8,0.5
		c0-0.7,0.2-1.4,0.4-2.1c1.1,0,2-0.5,3-0.8c0.8-0.2,1.5-0.5,2.3-0.7c0.4-0.1,0.6-0.5,1-0.5c0.2,0,0.5-0.2,0.4,0.2
		C87.1,40.2,87.1,41,86.8,41.7z"/>
	<path class="st55" d="M36,40.4c0.2-0.5,0.4-1,0.7-1.5c0.1-0.1,0.2-0.2,0.3-0.2c2.3-0.5,4.5-1.5,6.8-2c0.2-0.1,0.5-0.2,0.7,0.1
		c0,0.6,0,1.2-0.5,1.7c-1.2,0.3-2.4,0.7-3.6,1.1c-1.2,0.4-2.4,0.7-3.6,1C36.5,40.5,36.2,40.6,36,40.4z"/>
	<path class="st56" d="M88.3,35.3c-0.4-0.3-0.8-0.1-1.2,0.1c-1,0.3-1.9,0.6-2.9,0.9c-0.9,0.3-1.8,0.6-2.7,0.7c0-0.5,0.1-1,0.3-1.5
		c0.1-0.2,0.3-0.5,0.5-0.5c0.7-0.2,1.3-0.5,2-0.6c0.8-0.1,1.4-0.4,2.1-0.7c0.6-0.3,1.3-0.4,1.9-0.6c0.6-0.2,0.3,0.3,0.3,0.6
		C88.6,34.3,88.5,34.8,88.3,35.3z"/>
	<path class="st57" d="M88.6,33.7c0-0.4,0-0.5-0.5-0.3c-1.8,0.6-3.6,1.3-5.4,1.7c-0.3,0.1-0.6,0.3-0.8,0.5c0-0.4,0.1-0.7,0.2-1.1
		c0.1-0.3,0-0.6,0.1-0.9c0.5-0.3,1.1-0.4,1.7-0.6c1.4-0.4,2.8-1.1,4.2-1.4c0.3-0.1,0.6-0.2,0.8,0.1C88.7,32.4,88.7,33.1,88.6,33.7z"
		/>
	<path class="st58" d="M36,40.4c0.7,0.1,1.4-0.3,2.1-0.3c1-0.1,1.9-0.7,2.9-0.9c0.8-0.1,1.6-0.5,2.4-0.8c0.2,0,0.3-0.2,0.5,0
		c0.1,0.8,0,1.4-0.5,2c-0.4-0.4-0.9-0.3-1.3-0.1c-2,0.6-3.9,1.3-6,1.8c-0.3,0.1-0.6,0.2-0.9-0.1C35.5,41.4,35.7,40.9,36,40.4z"/>
	<path class="st32" d="M55.5,52.9c-0.1-0.2-0.3-0.1-0.4-0.2c1.5-1.3,3.4-1.9,5.1-2.7c0.8-0.3,1.5-0.8,2.3-1c0.2-0.1,0.4-0.2,0.6,0
		c-0.1,0.1-0.3,0.3-0.4,0.4c-0.1,0.2-0.3,0.3-0.4,0.5c-1.6,1.8-3.5,2.9-5.9,3C56,53,55.7,53,55.5,52.9z"/>
	<path class="st59" d="M102.4,36.4c-0.6,0-1.1,0.2-1.6,0.5c-1.3,0.7-2.6,1.2-4,1.8c-0.9,0.4-1.7,0.7-2.6,1c0.1-0.4,0.2-0.9,0.4-1.3
		c0.7-0.5,1.4-0.8,2.1-1.2c1.6-0.9,3.5-1.4,5.1-2.4c0.2-0.1,0.4-0.3,0.6,0.1C102.4,35.4,102.6,35.9,102.4,36.4z"/>
	<path class="st60" d="M73.7,41.7c-0.2-0.2-0.4-0.1-0.6,0c-2.3,0.6-4.5,1.5-6.7,2.2c-1,0.3-1.9,0.9-3,0.9c0.2-0.4,0.4-0.8,0.7-1.2
		c0.6-0.3,1.2-0.5,1.8-0.7c2-0.5,3.8-1.3,5.8-2c0.8-0.3,1.5-0.4,2.3-0.7c0.2-0.1,0.4-0.1,0.5,0.1C74.3,40.8,74.1,41.3,73.7,41.7z"/>
	<path class="st61" d="M51.6,27.2c-0.7,0.7-1.8,0.8-2.7,1.2c-2.3,0.9-4.6,1.7-6.9,2.5c-0.5,0.2-1,0.1-1.4,0.3c0.4-0.7,1-1.2,1.6-1.7
		c1-0.2,1.8-0.7,2.8-0.9c1.2-0.4,2.3-0.8,3.5-1.1c0.5-0.1,0.9-0.4,1.4-0.5c0.3-0.1,0.5-0.2,0.8-0.1C51,26.9,51.3,27.1,51.6,27.2z"/>
	<path class="st62" d="M53.6,30.1c0.3,0.2,0.3-0.1,0.4-0.2c0.2-0.2,0.3-0.4,0.4-0.6c1.6-0.6,3.3-1.3,5-1.8c0.3-0.1,0.5-0.2,0.8-0.3
		c0.2-0.1,0.4-0.2,0.6-0.1c0.4,0.4,0.6,0.8,0.4,1.4c-0.1-0.1-0.1-0.2-0.1-0.4c-0.4,0.5-6.6,2.8-9,3.4c-0.4-0.2-0.6-0.5-0.6-0.9
		C52.2,30.3,52.8,29.9,53.6,30.1z"/>
	<path class="st63" d="M57.4,44.9c0-0.2,0-0.4,0-0.6c-1.3,0.4-2.5,0.8-3.6,1.5c-1.1,0.6-2.4,1-3.5,1.5c-1,0.5-1.9,1-3,1.2
		c0-0.3,0.1-0.4,0.3-0.5c0.5-0.4,0.8-1,1.3-1.3c0.7-0.3,1.4-0.6,2.1-0.9c1.2-0.6,2.4-1,3.7-1.5c0.8-0.3,1.4-0.9,2.2-1
		c0.2,0,0.5-0.2,0.7,0.1c0,0.2,0,0.4,0,0.6C57.5,44.2,57.5,44.6,57.4,44.9z"/>
	<path class="st64" d="M41.6,52.9c-0.4-0.4,0-0.5,0.2-0.6c1-0.4,2-0.9,3-1.2c0.7-0.3,1.4-0.6,2.1-1c0.8-0.4,1.7-0.5,2.5-1
		c0,0,0.1,0,0.2,0.1c-1.8,2.5-4.1,3.9-7.2,3.9C42.1,53,41.9,53,41.6,52.9z"/>
	<path class="st64" d="M74.5,40.3c-1,0.1-1.8,0.5-2.7,0.8c-1.9,0.6-3.8,1.5-5.8,2c-0.6,0.2-1.2,0.7-1.9,0.6c0.2-0.4,0.4-0.8,0.6-1.2
		c2.4-0.3,4.5-1.5,6.8-2.2c1-0.3,2-0.7,3.1-1.1c0.2-0.1,0.4-0.2,0.6,0.1C74.9,39.5,74.7,39.9,74.5,40.3z"/>
	<path class="st65" d="M35.2,42c0.9,0.1,1.7-0.3,2.5-0.5c1.2-0.3,2.5-0.7,3.7-1.1c0.5-0.2,0.9-0.4,1.4-0.4c0.5-0.1,0.5,0.2,0.5,0.5
		c0.2,0.2,0.1,0.4,0,0.6c-1,0.7-2.2,0.8-3.4,1.2c-1.3,0.4-2.6,0.7-3.9,1.2c-0.6,0.2-1.1,0.4-1.7,0.3C34.6,43,34.9,42.5,35.2,42z"/>
	<path class="st66" d="M3.3,37.7c1.2-0.3,2.4-0.7,3.6-1c0.9-0.2,1.8-0.4,2.8-0.6c0.3,0,0.6-0.2,1-0.1c0,0.5,0,1.1,0,1.6
		c-1.5,0.1-2.9,0.6-4.3,0.9c-0.6,0.2-1.2,0.4-1.9,0.5c-0.6,0.1-0.9,0.3-0.9,0.9c0,0.1,0,0.3-0.2,0.3C3.3,39.4,3.3,38.6,3.3,37.7z"/>
	<path class="st67" d="M102.4,34.8c-0.9,0.4-1.7,1-2.7,1.3c-1,0.3-1.9,0.8-2.8,1.2c-0.7,0.4-1.4,0.9-2.2,1.1
		c0.2-0.6,0.3-1.2,0.5-1.9c0.9,0,1.6-0.6,2.4-0.8c1.5-0.4,2.8-1.3,4.2-2c0.2-0.1,0.4-0.1,0.6,0C102.5,34.1,102.5,34.4,102.4,34.8z"
		/>
	<path class="st68" d="M115.9,21.7c-0.6,0.5-1.2,1-1.8,1.5c-0.8,0.7-1.8,1.4-2.6,2.1c-0.7,0.7-1.7,1-2.5,1.6
		c-0.2,0.1-0.4,0.2-0.7,0.2c0.1-0.6,0.2-1.1,0.5-1.6c1.7-0.9,3.2-2.3,4.7-3.5c0.4-0.3,0.9-0.7,1.5-0.5
		C115.3,21.4,115.6,21.5,115.9,21.7z"/>
	<path class="st69" d="M66.1,38.6c0.1-0.4,0.2-0.8,0.4-1.2c0.1-0.2,0.2-0.4,0.4-0.5c1.9-0.8,3.9-1.6,5.8-2.3
		c0.8-0.3,0.9-0.2,0.8,0.7c-0.1,0.3-0.1,0.7-0.2,1c-0.1,0.1-0.1,0.1-0.2,0c-0.2-0.1-0.4-0.1-0.6,0c-1.4,0.7-3.1,1-4.5,1.8
		c-0.4,0.2-0.9,0.4-1.3,0.5C66.6,38.8,66.4,38.9,66.1,38.6z"/>
	<path class="st70" d="M96,30.5c0.1-0.8,0.4-1.5,0.9-2.1c0.7-0.6,1.6-0.8,2.4-1.2c0.4-0.2,0.7-0.3,1.1-0.5c0.4-0.3,0.8-0.3,1.3-0.2
		c0.6,0.1,1.2,0.1,1.2,0.9c-1.2,0.8-2.5,1.4-3.8,1.9c-0.9,0.4-1.8,0.9-2.8,1.1C96.2,30.5,96.1,30.6,96,30.5z"/>
	<path class="st71" d="M117.5,32c-0.4-0.3-0.8,0-1.1,0.1c-0.8,0.3-1.6,0.6-2.4,1c-0.1-0.9,0.2-1.7,0.6-2.6c1-0.6,1.9-1.3,2.8-2
		c0.2-0.1,0.3-0.3,0.5-0.3c0.4-0.2,0.5,0,0.4,0.4C118.2,29.7,117.9,30.9,117.5,32z"/>
	<path class="st72" d="M102.4,34.8c0-0.4,0-0.7,0-1.1c0-0.7,0-1.3,0-2c-0.1-0.1-0.1-0.3-0.2-0.4c-0.1-0.6-0.2-0.7-0.8-0.4
		c-1.7,0.8-3.4,1.5-5.2,2.2c-0.4,0.1-0.5,0.4-0.5,0.7c0,0.2,0.1,0.6-0.3,0.6c0-0.7,0-1.3,0.1-2c0-0.6,0.3-0.8,0.8-1.1
		c1.8-0.8,3.5-1.5,5.3-2.3c0.9-0.4,0.9-0.4,0.9,0.5c0,0.1,0,0.2-0.1,0.3c0,2.6,0,5.1,0,7.7c0-0.1-0.1-0.2-0.1-0.3c0-0.4,0-0.7,0-1.1
		C102.4,35.8,102.4,35.3,102.4,34.8z"/>
	<path class="st73" d="M102.6,30c0-0.3,0-0.7,0-1.1c-0.4,0.2-0.8,0.3-1.1,0.5c-0.8,0.4-1.7,0.6-2.5,1c-1,0.5-1.9,0.9-2.9,1.3
		c-0.3,0.1-0.1,0.5-0.3,0.7c0-0.7,0.1-1.4,0.4-2c0.3-0.4,0.8-0.3,1.2-0.5c1.7-0.8,3.4-1.5,5.1-2.3c0.2-0.1,0.4-0.1,0.6-0.2
		C102.9,28.3,102.7,29.2,102.6,30z"/>
	<path class="st74" d="M3.5,40.3c0-1.2,0.1-1.2,1.2-1.5c1.8-0.5,3.5-1,5.4-1.4c0.3-0.1,0.5,0,0.6,0.2c0,0.4,0,0.8,0,1.2
		c-0.4,0.3-1,0.3-1.5,0.4C7.4,39.5,5.7,40,4,40.5c-0.2,0-0.3,0.1-0.5,0C3.5,40.4,3.5,40.3,3.5,40.3z"/>
	<path class="st75" d="M95.5,34.5C95.5,34.5,95.6,34.4,95.5,34.5c-0.2-1.4,0.9-1.6,1.7-1.9c1.4-0.6,2.7-1.2,4.1-1.8
		c1-0.5,1.1-0.5,1.1,0.7c0,0.1,0,0.2,0,0.3c-1.3,0.4-2.3,1.2-3.5,1.6c-1.1,0.4-2.2,1.1-3.4,1.3C95.5,34.6,95.5,34.6,95.5,34.5z"/>
	<path class="st76" d="M58.2,40.2c0,0.5-0.1,0.9-0.3,1.3c-1.5,0.6-3.1,1.1-4.6,1.8c-0.9,0.4-1.8,0.6-2.6,1.1
		c-0.2,0.1-0.4,0.1-0.6-0.1c0-0.7,0.3-1.2,0.7-1.7c1.9-0.8,3.8-1.4,5.7-2.2C57,40.3,57.5,39.9,58.2,40.2z"/>
	<path class="st77" d="M36.4,46c-0.1-0.2-0.1-0.5-0.1-0.7c-0.1-0.3-0.2,0-0.3,0c-0.8,0-1.5,0.3-2.2,0.5c-0.3,0.1-0.7,0.2-1,0
		c0.2-0.3,0.4-0.7,0.7-0.9c0.2-0.2,0.3-0.4,0.6-0.4c1.7-0.3,3.2-0.9,4.9-1.4c1.2-0.3,2.4-0.6,3.5-1c0.4-0.1,0.6,0,0.6,0.4
		c0,0.2,0,0.4,0,0.5c0,0.3,0,0.5-0.1,0.7c0,0-0.1,0.1-0.2,0c-0.3-0.6-0.8-0.4-1.3-0.3c-1.3,0.5-2.6,0.9-3.9,1.3
		C36.9,44.9,36.6,45.3,36.4,46z"/>
	<path class="st78" d="M10.8,40.4c0,0.4,0.1,0.8,0.1,1.2C10,41.5,9.1,41.7,8.2,42c-1.1,0.3-2.2,0.5-3.3,0.9c-0.3,0.1-0.7,0.2-1,0.4
		c-0.2-0.5-0.3-1-0.3-1.5c0.4-0.5,1-0.5,1.5-0.6c1-0.1,1.9-0.5,2.8-0.8c0.7-0.2,1.5-0.3,2.2-0.6C10.7,39.5,10.8,39.9,10.8,40.4z"/>
	<path class="st79" d="M58.6,49.1c-0.8,0-1.4,0.5-2.1,0.8c-1,0.4-1.9,0.9-2.8,1.4c-0.3,0.1-0.5,0.2-0.4,0.6
		c-0.5-0.3-0.9-0.7-1.2-1.2c-0.2-0.3,0-0.5,0.3-0.6c1.5-0.8,2.9-1.5,4.4-2.1c0.3-0.1,0.7-0.2,0.8,0.2C57.7,48.7,58.1,49,58.6,49.1z"
		/>
	<path class="st80" d="M3.9,43.2c0-0.2,0.1-0.4,0.3-0.4c1.2-0.2,2.4-0.6,3.6-0.9c0.7-0.1,1.5-0.4,2.2-0.6c0.3-0.1,0.7-0.1,0.9,0.2
		c0.1,0.3,0.2,0.6,0.2,0.9c-0.7,0.4-1.6,0.4-2.4,0.7c-0.9,0.2-1.9,0.5-2.8,0.8c-0.6,0.2-1.2,0.2-1.7,0.5C3.9,44,3.9,43.6,3.9,43.2z"
		/>
	<path class="st81" d="M52.1,31.6c0.7-0.5,1.6-0.7,2.3-1c1.6-0.6,3.2-1.2,4.9-1.8c0.6-0.2,1.1-0.3,1.6-0.6c0.4-0.2,0.2,0.2,0.2,0.3
		c0,0.4,0,0.8-0.3,1.2c-0.4-0.1-0.6,0.2-0.9,0.2c-1,0.2-1.9,0.6-2.8,0.9c-0.8,0.2-1.6,0.7-2.5,0.9c-0.8,0.2-1.5,0.6-2.3,0.8
		C52.1,32.3,52,32,52.1,31.6z"/>
	<path class="st78" d="M44.4,36.8c-0.2-0.3-0.4,0-0.6,0c-2,0.6-4,1.2-6,1.9c-0.4,0.1-0.8,0-1.2,0.2c0.1-0.5,0.3-0.9,0.5-1.3
		c0.1-0.2,0.4-0.3,0.6-0.3c1.3-0.2,2.5-0.7,3.8-1.1c1-0.3,2-0.7,3-1c0.2-0.1,0.5-0.3,0.5,0.2C45,35.8,45.1,36.5,44.4,36.8z"/>
	<path class="st82" d="M10.8,40.4c-0.1-0.5-0.3-0.6-0.9-0.4c-2.1,0.6-4.2,1.2-6.3,1.7c-0.2-0.4-0.1-0.8-0.1-1.2
		c2.3-0.8,4.7-1.5,7.2-1.7C10.7,39.3,10.8,39.8,10.8,40.4z"/>
	<path class="st83" d="M74.2,31.1c0,0.6,0.1,1.2-0.1,1.9c-0.1-0.3-0.3-0.5-0.8-0.3c-1.3,0.4-2.5,1.1-3.7,1.5
		c-0.8,0.3-1.5,0.8-2.3,0.9c0.1-0.6,0.2-1.2,0.4-1.7c0.9-0.6,2-0.9,3-1.3c1-0.4,2-0.9,3-1.2C73.8,30.7,74.2,30.5,74.2,31.1z"/>
	<path class="st84" d="M45.1,35.3c-0.3-0.2-0.6,0.1-0.8,0.1c-1.3,0.4-2.6,0.9-3.9,1.3c-1,0.3-2.1,0.6-3.1,0.9
		c0.1-0.4,0.2-0.7,0.4-1.1c0.3-0.5,0.8-0.6,1.4-0.7c1.7-0.4,3.3-0.9,4.8-1.5c0.6-0.2,1.2-0.6,2-0.3C45.8,34.6,45.6,35.1,45.1,35.3z"
		/>
	<path class="st85" d="M45.8,34c-0.8,0-1.5,0.3-2.2,0.6c-0.9,0.4-1.8,0.6-2.7,0.9c-1.1,0.4-2.3,0.4-3.3,1c0.1-0.5,0.3-0.9,0.6-1.3
		c0.6,0,1-0.3,1.5-0.5c1.4-0.5,2.9-0.8,4.3-1.4c0.8-0.3,1.7-0.3,2.5-0.7c0,0,0,0.1,0,0.1C46.4,33.3,46.3,33.8,45.8,34z"/>
	<path class="st86" d="M43,42.9c0-0.9,0-0.9-0.9-0.7c-2.1,0.6-4.2,1.2-6.3,1.8c-0.8,0.2-1.6,0.2-2.3,0.6c0.2-0.4,0.5-0.8,0.8-1.2
		c1.5-0.4,2.9-0.8,4.4-1.2c1.5-0.5,3.1-0.8,4.6-1.4C43.4,41.6,43.5,42.3,43,42.9z"/>
	<path class="st87" d="M58.2,40.2c-1,0.1-1.9,0.5-2.8,0.9c-0.9,0.4-1.9,0.7-2.8,1.1c-0.5,0.2-1.1,0.6-1.8,0.5
		c-0.2-0.5,0.1-0.8,0.3-1.2c0.6-0.5,1.3-0.7,1.9-0.9c1.5-0.5,2.9-1.1,4.3-1.7c0.6-0.3,0.8-0.2,1.1,0.1
		C58.4,39.5,58.3,39.9,58.2,40.2z"/>
	<path class="st88" d="M50.7,26.8c-0.5,0-0.9,0.3-1.4,0.5c-1,0.4-2,0.7-3,1c-1.2,0.3-2.3,0.8-3.4,1.2c-0.2,0.1-0.5,0.1-0.7,0
		c1.9-1.8,4-3.1,6.7-3C49.5,26.4,50.1,26.5,50.7,26.8z"/>
	<path class="st89" d="M60,32.9c0,0.3-0.1,0.6-0.3,0.9c-0.2,0-0.4-0.1-0.7,0c-1.4,0.5-2.8,0.9-4.2,1.5c-0.8,0.3-1.7,0.6-2.4,1.1
		c0,0-0.1,0-0.2-0.1c-0.2-0.5-0.1-1,0.1-1.5c1.1-0.6,2.2-1,3.4-1.4c1.1-0.4,2.2-0.8,3.4-1.2C59.8,32.2,60,32.4,60,32.9z"/>
	<path class="st90" d="M118.3,28.5c0-0.4-0.1-0.4-0.4-0.2c-0.9,0.6-1.7,1.3-2.6,1.9c-0.2,0.1-0.4,0.3-0.7,0.3
		c-0.3-0.6,0-1.1,0.1-1.6c0.2-0.3,0.1-0.6,0.2-0.9c0-0.1,0-0.1,0.1-0.2c0.9-0.6,1.7-1.3,2.6-1.9c0.2-0.2,0.5-0.4,0.8-0.3
		C118.6,26.7,118.5,27.6,118.3,28.5z"/>
	<path class="st91" d="M30.5,52.2C30.3,52,30.1,52,29.8,52c-1.3,0.3-2.7,0.5-4.1,0.5c-1,0-2,0.2-3,0.2c-0.9,0-1.7,0.2-2.5-0.4
		c-0.2-0.2-0.6,0.1-0.8-0.2c2.1,0.3,4.2,0,6.2-0.7c1.7-0.1,3.5-0.3,5.2-0.7c0.3-0.1,0.8-0.2,1,0.2C31.3,51.5,31.1,52,30.5,52.2z"/>
	<path class="st92" d="M60,32.9c0-0.5-0.4-0.6-0.7-0.4c-1.7,0.6-3.4,1.1-5.1,1.9c-0.5,0.2-1,0.6-1.7,0.6c-0.3-0.3-0.2-0.7-0.1-1.1
		c0.6-0.5,1.4-0.7,2.1-0.9c0.9-0.3,1.7-0.8,2.6-0.9c1-0.1,1.9-0.8,2.9-0.9c0.3,0,0.5-0.1,0.4,0.3C60.4,32,60.2,32.5,60,32.9z"/>
	<path class="st93" d="M16.6,51.3c-1.3,0.3-2.7-0.1-4,0c-0.4,0-0.9,0-1.3,0.1c-1.1,0.1-2.3,0.2-3.4,0.6c-0.2-0.2-0.4-0.4-0.5-0.7
		c0-0.4,0.3-0.5,0.5-0.6c0.5-0.2,1-0.2,1.5-0.3c0.7-0.1,1.5-0.2,2.2-0.4c0.3-0.1,0.7-0.1,1.1,0c0.6,0.1,1.3,0.2,1.9,0
		c0.1,0,0.3,0,0.4,0.1C15.5,50.5,16,50.9,16.6,51.3z"/>
	<path class="st93" d="M31.7,51.1c-0.5-0.2-1-0.1-1.5,0.1c-1.1,0.3-2.3,0.3-3.4,0.5c-0.4,0.1-0.8,0-1.2-0.1c1-0.5,2-1,2.9-1.6
		c1.3-0.1,2.5-0.6,3.8-0.7c0.3,0,0.7-0.2,0.7,0.3C32.7,50.1,32.3,50.7,31.7,51.1z"/>
	<path class="st94" d="M73.6,35.3c0-0.8-0.1-0.8-0.8-0.5c-1.9,0.8-3.9,1.6-5.9,2.3c-0.2,0.1-0.3,0.2-0.4,0.3
		c0.1-0.5,0.2-0.9,0.4-1.3c0.3-0.4,0.7-0.5,1.1-0.6c1.6-0.7,3.2-1.3,4.8-2c0.2-0.1,0.4-0.2,0.6-0.2c0.4,0,0.6,0.1,0.4,0.5
		C73.9,34.4,73.8,34.9,73.6,35.3z"/>
	<path class="st44" d="M45.6,49c-0.1,0.3-0.3,0.4-0.6,0.5c-1.7,0.7-3.5,1.3-5.2,2c-0.2,0.1-0.5,0.1-0.5,0.4c-0.4-0.2-0.7-0.5-1-0.9
		c-0.1-0.5,0.3-0.5,0.5-0.7c0.6-0.3,1.2-0.4,1.8-0.6c1-0.4,2-0.8,3.1-1.2c0.2-0.1,0.4-0.1,0.6-0.1C44.8,48.6,45.3,48.6,45.6,49z"/>
	<path class="st95" d="M66.1,38.6c0.5,0,0.9-0.1,1.3-0.3c1.7-0.9,3.6-1.3,5.3-2.1c0.3-0.1,0.5-0.2,0.6,0.2c0.1,0.2,0,0.4,0,0.5
		c-0.2,0.6-0.9,0.5-1.3,0.7c-1.8,0.9-3.8,1.2-5.6,2.1c-0.2,0.1-0.4,0.1-0.7,0.1C65.8,39.4,66,39,66.1,38.6z"/>
	<path class="st96" d="M4.7,46.2c-0.2-0.2-0.2-0.5-0.3-0.8c-0.2-0.5,0.1-0.7,0.5-0.8c1.9-0.6,3.8-1.1,5.8-1.4c0.3-0.1,0.5,0,0.6,0.3
		c0.1,0.3,0.2,0.7,0.3,1.1c-1.7,0-3.2,0.7-4.8,1C6.1,45.8,5.4,46,4.7,46.2z"/>
	<path class="st97" d="M59.5,34.8c0,0.4-0.1,0.7-0.3,1c-2.2,0.8-4.3,1.6-6.5,2.4c-0.2,0.1-0.4,0.2-0.6,0c-0.2-0.3-0.1-0.6,0-0.8
		c0.2-0.6,0.7-0.7,1.2-0.9c1.2-0.5,2.5-0.9,3.7-1.4c0.7-0.2,1.4-0.4,2.1-0.7C59.4,34.4,59.6,34.5,59.5,34.8z"/>
	<path class="st98" d="M30.5,25.7c0.8,0,1.5-0.3,2.3-0.3c0.9-0.1,1.8-0.3,2.7,0.1c-1,1.2-2.3,1.9-3.9,2
		C30.5,27.5,30.1,26.9,30.5,25.7z"/>
	<path class="st99" d="M113.4,33.2c-1,0.3-1.8,0.9-2.6,1.4c-0.2,0.2-0.4,0.3-0.4,0.6c-0.5-0.5-0.9-1-1.2-1.6c-0.2-0.3,0-0.5,0.3-0.7
		c0.9-0.5,1.8-1.1,2.7-1.6c0.1-0.1,0.2-0.1,0.3,0c0.3,0.5,0.5,0.9,0.8,1.4C113.5,32.8,113.6,33,113.4,33.2z"/>
	<path class="st100" d="M12.1,46.1c0.1,0.3,0.3,0.6,0.4,0.9c-0.5,0.5-1.2,0.6-1.8,0.6C9.9,47.7,9,48,8.1,48.2
		c-0.8,0.2-1.5,0.5-2.4,0.6c-0.2-0.2-0.3-0.5-0.4-0.8c0-0.4,0.2-0.5,0.5-0.6c1.9-0.8,3.9-1,5.9-1.4C11.9,46,12,46,12.1,46.1z"/>
	<path class="st64" d="M50.9,48.5c0.3-0.6,0.9-0.6,1.4-0.8c1.3-0.7,2.7-1.2,4-1.7c0.9-0.4,0.9-0.3,0.9,0.6c0,0.1,0,0.2,0,0.3
		c-0.2,0.3-0.5,0.4-0.8,0.5c-1.7,0.6-3.3,1.7-5,2.3C51.1,49.2,51,48.9,50.9,48.5z"/>
	<path class="st101" d="M73.9,33.9c0-0.5-0.3-0.5-0.6-0.3c-1.2,0.5-2.4,0.9-3.6,1.4c-0.9,0.4-1.8,0.8-2.7,1.2c0-0.4,0.1-0.7,0.3-1.1
		c0.2-0.3,0.5-0.3,0.7-0.4c1.1-0.5,2.3-0.9,3.4-1.5c0.8-0.4,1.7-0.6,2.6-1c0,0.3,0,0.5,0,0.8C74,33.3,74,33.6,73.9,33.9z"/>
	<path class="st102" d="M14.9,50.1c-0.7,0.3-1.5,0.3-2.3,0.2c-1.2-0.2-2.4,0.3-3.6,0.5c-0.6,0.1-1.3,0-1.7,0.6
		c-0.2-0.2-0.4-0.5-0.5-0.8C6.7,50.1,7,50,7.3,49.9c0.6-0.2,1.2-0.3,1.7-0.4c1.6-0.3,3.1-0.5,4.7-0.5c0.1,0,0.2,0,0.2,0.1
		C14.3,49.5,14.6,49.8,14.9,50.1z"/>
	<path class="st103" d="M58.4,39.1c-0.4-0.3-0.7-0.1-1,0c-1.4,0.6-2.7,1.2-4.2,1.7c-0.7,0.2-1.4,0.5-2,0.9c-0.2-0.5,0.1-1,0.3-1.4
		c1.4-0.7,2.8-1.2,4.3-1.7c0.8-0.3,1.5-0.8,2.4-0.9c0.2,0,0.5-0.2,0.5,0.3C58.4,38.3,58.7,38.7,58.4,39.1z"/>
	<path class="st104" d="M108.1,29.9c-0.1-0.8,0.2-1.4,1-1.8c0.9-0.4,1.8-0.8,2.5-1.5c0.3-0.2,0.6-0.4,0.6,0.2c0.3,0.6,0,1.2,0,1.8
		c-1.1,0.1-2,0.8-2.9,1.3c-0.4,0.2-0.9,0.5-1.1,1C108.1,30.6,108.1,30.3,108.1,29.9z"/>
	<path class="st105" d="M57.5,43.2c-0.6,0.2-1.2,0.3-1.8,0.7c-0.4,0.3-0.8,0.4-1.2,0.6c-1,0.3-1.8,0.8-2.8,1.1
		c-0.8,0.2-1.5,0.7-2.2,1c-0.2,0.1-0.4,0.2-0.7,0.2c-0.1-0.6,0.3-0.9,0.6-1.2c2.4-1.2,4.9-2.3,7.4-3.2c0.7-0.3,0.9-0.1,0.8,0.7
		c0,0,0,0.1,0,0.1C57.6,43.2,57.5,43.2,57.5,43.2z"/>
	<path class="st106" d="M36.4,46c-0.1-0.8,0.2-1.2,0.9-1.4c1.5-0.4,3-1,4.5-1.5c0.6-0.2,1-0.2,1.1,0.5c0.2,0.2,0.2,0.5,0.1,0.7
		c-1.5-0.2-2.7,0.7-4.1,1c-0.3,0.1-0.6,0.2-1,0.3c-0.7,0.1-1.3,0.3-1.5,1.1C36.4,46.5,36.4,46.3,36.4,46z"/>
	<path class="st107" d="M37.6,50c-0.2-0.3-0.4-0.5-0.4-0.9c-0.1-0.3,0.1-0.4,0.3-0.5c0.5-0.3,1.2-0.4,1.8-0.6
		c1.1-0.4,2.1-0.7,3.2-1.1c0.2-0.1,0.5-0.2,0.8-0.1c0.4,0.2,0.5,0.6,0.5,1c-0.1,0.2-0.3,0.3-0.5,0.4c-1.7,0.6-3.4,1.2-5.2,1.8
		C37.9,49.9,37.7,50,37.6,50z"/>
	<path class="st108" d="M5.7,48.8c1.5-0.6,3-1,4.5-1.3c0.8-0.1,1.5-0.3,2.3-0.5c0.2,0.3,0.5,0.7,0.6,1.1c-0.2,0.3-0.5,0.3-0.8,0.4
		c-2.1,0.2-4.2,0.6-6.2,1.3C6,49.4,5.8,49.1,5.7,48.8z"/>
	<path class="st109" d="M51.3,49.6c0.1-0.1,0.2-0.2,0.3-0.3c1.2-0.4,2.2-1.2,3.4-1.6c0.8-0.3,1.4-0.7,2.2-0.9
		c0.1,0.3-0.1,0.6,0.1,0.8c0.1,0.2,0.1,0.4,0.2,0.7c-0.2-0.2-0.3-0.3-0.6-0.1c-1.6,0.7-3.1,1.5-4.7,2.2C52,50.4,52,50.6,52,50.8
		C51.7,50.4,51.5,50,51.3,49.6z"/>
	<path class="st110" d="M58.7,37.9c-0.5-0.4-0.9,0-1.3,0.2c-1.3,0.6-2.7,1-4,1.5c-0.6,0.2-1.1,0.5-1.7,0.7c-0.2-0.4,0-0.8,0.2-1.1
		c0.3-0.3,0.8-0.5,1.2-0.6c1.3-0.5,2.7-1,3.9-1.6c0.6-0.3,1.2-0.3,1.8-0.5c0.1,0,0.3,0,0.3,0.2C58.9,37.2,58.9,37.6,58.7,37.9z"/>
	<path class="st111" d="M6.3,49.7c0.2-0.5,0.8-0.5,1.2-0.6c1.6-0.4,3.3-0.8,5-0.9c0.3,0,0.5-0.1,0.8-0.2c0.3,0.4,0.5,0.7,0.8,1.1
		c-0.4,0.2-0.8,0.1-1.2,0.1c-1.9,0-3.7,0.4-5.5,0.9c-0.2,0-0.5,0.1-0.5,0.4C6.6,50.3,6.4,50,6.3,49.7z"/>
	<path class="st112" d="M60.8,27.2c-1.9,0.7-3.7,1.3-5.6,2c-0.3,0.1-0.5,0.2-0.8,0.2c1.2-1.9,2.9-2.9,5.3-2.7
		C60.1,26.7,60.6,26.7,60.8,27.2z"/>
	<path class="st95" d="M37.6,50c0.1-0.2,0.3-0.2,0.5-0.3c1.7-0.5,3.3-1.3,5.1-1.7c0.1,0,0.3-0.2,0.4-0.2c0.4,0.2,0.8,0.4,0.8,0.9
		c-0.6,0-1.1,0.3-1.7,0.5c-1.2,0.5-2.4,0.9-3.6,1.3c-0.3,0.1-0.7,0.2-0.7,0.6C38,50.8,37.8,50.4,37.6,50z"/>
	<path class="st113" d="M112.5,31.3c-1,0.5-1.8,1.2-2.8,1.6c-0.3,0.1-0.5,0.3-0.5,0.6c-0.3-0.5-0.6-1-0.7-1.6
		c-0.1-0.2-0.1-0.4,0.2-0.6c0.5-0.3,0.9-0.7,1.5-0.9c0.5-0.1,0.9-0.4,1.3-0.7c0.4-0.3,0.7-0.3,0.9,0.3
		C112.5,30.5,112.8,30.9,112.5,31.3z"/>
	<path class="st114" d="M59.5,34.8c0-0.3-0.2-0.2-0.4-0.1c-1.2,0.4-2.4,0.9-3.7,1.2c-0.9,0.3-1.8,0.8-2.8,1.1
		c-0.1,0-0.2,0.3-0.3,0.5c-0.2-0.4-0.2-0.7,0.1-0.9c0.3-0.6,0.9-0.7,1.4-0.9c0.9-0.4,1.9-0.8,2.8-1.1c0.9-0.3,1.7-0.6,2.6-0.9
		c0.2-0.1,0.4-0.1,0.5,0.2C59.7,34.2,59.7,34.5,59.5,34.8z"/>
	<path class="st115" d="M86.2,26.8c-1.9,0.7-3.8,1.5-5.7,2.2c-0.8,0.3-1.6,0.5-2.2,1.1c1.6-1.7,3.3-3.2,5.6-3.6
		C84.7,26.3,85.5,26.4,86.2,26.8z"/>
	<path class="st116" d="M115,21.5c-0.7-0.1-1.1,0.4-1.5,0.7c-1.2,1-2.5,2-3.7,2.9c-0.3,0.2-0.7,0.3-1,0.4c0.8-2.4,3.1-4.1,5.5-4.1
		C114.5,21.4,114.8,21.3,115,21.5z"/>
	<path class="st117" d="M66,52.5c-0.3-0.3-0.3-0.6,0.2-0.8c1.2-0.5,2.4-0.8,3.7-1.1c0.5-0.1,0.4,0.2,0.4,0.5c-0.1,1-0.5,1.5-1.5,1.7
		C67.9,53,66.9,53.1,66,52.5z"/>
	<path class="st118" d="M43.2,46.8c-1.3,0.3-2.6,0.9-3.9,1.3c-0.6,0.2-1.3,0.2-1.9,0.6c-0.2,0.1-0.3,0.1-0.3,0.4
		c-0.2-0.3-0.3-0.7-0.4-1.1c-0.1-0.2-0.1-0.4,0.2-0.5c1.4-0.4,2.8-0.9,4.2-1.3c0.3-0.1,0.6-0.1,0.8-0.2c0.4-0.2,0.8-0.2,1.1,0.1
		C43.3,46.3,43.4,46.5,43.2,46.8z"/>
	<path class="st119" d="M57.6,43.1c0-0.8-0.1-0.8-0.7-0.5c-1.6,0.6-3.2,1.3-4.8,2c-0.8,0.4-1.7,0.8-2.6,1.1c0-0.6,0.1-1,0.7-1.3
		c0.1,0,0.2,0.1,0.4,0c2.2-1.1,4.5-1.8,6.8-2.8c0.2-0.1,0.4-0.3,0.6,0c0,0,0,0,0,0c-0.2,0.2,0,0.5-0.1,0.7
		C57.8,42.5,57.8,42.8,57.6,43.1z"/>
	<path class="st120" d="M4.7,46.2C4.8,46,5,45.9,5.3,45.9c1.7-0.5,3.4-0.9,5.1-1.3c0.4-0.1,0.9-0.3,1.3,0.1c0.1,0.2,0.2,0.3,0.2,0.5
		c-0.5,0.4-1.2,0.4-1.8,0.6c-1.4,0.4-2.8,0.8-4.3,1.1C5.4,47,5.2,47.1,4.9,47C4.8,46.8,4.7,46.5,4.7,46.2z"/>
	<path class="st121" d="M68,30.7c0-0.2,0-0.4,0-0.5c-0.1-0.9,0.4-1.2,1.1-1.6c1-0.5,1.9-1,2.9-1.4c0.2-0.1,0.5-0.3,0.7-0.1
		c0.4,0.2,0.7,0.5,0.8,0.9c-1.8,1-3.7,1.8-5.5,2.7C68.1,30.7,68,30.7,68,30.7z"/>
	<path class="st122" d="M52.4,32.5c1.4-0.9,3.1-1.1,4.6-1.8c0.8-0.4,1.8-0.7,2.7-0.8c0.3,0,0.5-0.2,0.7-0.3c0.2-0.1,0.5-0.3,0.5,0.2
		c0,0.3-0.1,0.6-0.3,0.9c-0.2-0.2-0.5-0.2-0.7,0c-1.1,0.7-2.5,0.9-3.7,1.3c-0.9,0.3-1.8,0.7-2.7,1c-0.4,0.1-0.7,0.5-1.1,0.7
		C52.2,33.2,52.2,32.9,52.4,32.5z"/>
	<path class="st119" d="M88.7,31.7c-0.8-0.2-1.6,0.2-2.3,0.5c-1.2,0.5-2.4,0.9-3.6,1.2c-0.3,0.1-0.5,0.4-0.8,0.2
		c-0.2-0.2,0-0.5-0.1-0.7c0-0.2,0.2-0.3,0.4-0.3c1.6-0.7,3.3-1.1,4.9-1.7c0.1-0.1,0.3-0.1,0.4-0.2c0.7-0.5,0.9-0.4,1,0.4
		C88.7,31.3,88.7,31.5,88.7,31.7z"/>
	<path class="st123" d="M74.2,31.1c0-0.3-0.1-0.3-0.4-0.2c-1.3,0.7-2.8,1.1-4.1,1.8c-0.6,0.3-1.3,0.7-2,0.7c0-0.3,0-0.5,0.1-0.8
		c0.1-0.2,0.3-0.3,0.6-0.4c1.6-0.8,3.2-1.5,4.8-2.1c0.3-0.1,0.5-0.2,0.8-0.2c0.1,0,0.2,0.1,0.2,0.2C74.1,30.4,74.3,30.7,74.2,31.1z"
		/>
	<path class="st124" d="M118.4,25.7c-0.8,0.4-1.5,1-2.3,1.5c-0.3,0.3-0.6,0.5-1.1,0.6c-0.1-0.1-0.1-0.2-0.1-0.3c0-0.2,0.1-0.4,0-0.5
		c-0.1-0.9,0.3-1.5,1-2c0.5-0.3,1-0.6,1.4-1c0.2-0.1,0.4-0.2,0.6-0.1C118.3,24.5,118.4,25.1,118.4,25.7z"/>
	<path class="st125" d="M52.5,33.6c0.2-0.8,0.9-0.8,1.4-1c0.9-0.3,1.8-0.7,2.8-1c0.8-0.3,1.7-0.3,2.5-0.8c0.3-0.2,0.6-0.4,1-0.5
		c0.4-0.1,0.4,0,0.4,0.3c0,0.3-0.1,0.6-0.3,0.8c0-0.1-0.1-0.3-0.2-0.2c-0.3,0.2-0.8,0-1,0.2c-1.2,0.8-2.7,0.7-3.9,1.4
		c-0.8,0.4-1.8,0.5-2.6,1c-0.1,0-0.2-0.1-0.3-0.1L52.5,33.6L52.5,33.6z"/>
	<path class="st126" d="M11.3,43.6c-0.1-0.1-0.2-0.3-0.5-0.2c-2,0.5-3.9,1-5.9,1.4c-0.3,0.1-0.6,0.3-0.5,0.7c-0.2-0.3-0.3-0.7-0.3-1
		c0-0.2,0.1-0.3,0.3-0.3c1.5-0.2,2.8-0.8,4.2-1.1c0.7-0.1,1.4-0.2,2-0.5c0.2-0.1,0.3-0.1,0.4,0C11.2,42.8,11.3,43.2,11.3,43.6z"/>
	<path class="st127" d="M68,30.7c0.7-0.5,1.5-0.8,2.2-1.2c1-0.5,2.1-0.9,3.1-1.5c0.1-0.1,0.2,0,0.3,0c0.2,0.3,0.4,0.7,0.4,1.1
		c-1.7,0.7-3.4,1.5-5.1,2.2c-0.3,0.1-0.6,0.4-1.1,0.3C67.9,31.3,67.9,31,68,30.7z"/>
	<path class="st128" d="M4.9,47c0.6-0.4,1.3-0.5,2-0.6c1.2-0.2,2.2-0.7,3.4-0.9c0.5-0.1,1-0.3,1.5-0.3c0.1,0.3,0.4,0.6,0.4,0.9
		c-1.5,0.2-3,0.5-4.5,0.9c-0.8,0.2-1.7,0.3-2.3,1C5.2,47.7,5,47.4,4.9,47z"/>
	<path class="st123" d="M59,36.8c-0.7-0.1-1.5,0.1-2.1,0.4c-1.2,0.6-2.4,1-3.6,1.5c-0.5,0.2-0.9,0.4-1.4,0.6
		c-0.2-0.4-0.2-0.8,0.2-1.1c0.9-0.3,1.7-0.6,2.6-0.9c1.4-0.6,2.9-1.1,4.3-1.6c0,0,0.1,0,0.2,0.1C59,36.1,59.2,36.5,59,36.8z"/>
	<path class="st129" d="M72.8,27.1c-0.8,0.4-1.7,0.7-2.5,1.1c-0.4,0.2-0.8,0.5-1.2,0.6c-0.6,0.2-1,0.6-1.1,1.3c0-0.5,0-1,0-1.5
		c0-0.7,0.3-1.2,0.9-1.5C70.2,26.6,71.5,26.3,72.8,27.1z"/>
	<path class="st130" d="M36.5,46.8c0-0.8,0.2-1.1,1.1-1.2c1.2-0.2,2.3-0.7,3.4-1c0.5-0.1,0.9-0.2,1.4-0.5c0.4-0.3,0.3,0.3,0.5,0.4
		c0.2,0.1,0.2,0.3,0.1,0.5c-1.6,0.6-3.2,1.2-4.9,1.6c-0.6,0.1-1.1,0.4-1.4,0.9C36.5,47.2,36.5,47,36.5,46.8z"/>
	<path class="st131" d="M33.1,49.6c-0.1-0.1-0.2-0.3-0.4-0.2c-1,0.3-2.1,0.3-3.2,0.6c-0.4,0.1-0.7,0.1-1.1-0.1
		c0.6-0.5,1.2-1,1.8-1.4c1.2-0.2,2.3-0.4,3.4-0.8c0.3-0.1,0.8-0.3,0.6,0.4C33.9,48.6,33.6,49.2,33.1,49.6z"/>
	<path class="st48" d="M36.7,47.4c-0.1-0.6,0.5-0.8,0.9-0.9c1.6-0.4,3.2-0.9,4.7-1.5c0.2-0.1,0.5-0.2,0.7,0c0.3,0.3,0.4,0.7,0.1,1.1
		c-0.4-0.2-0.7-0.1-1.2,0.1c-0.4,0.3-1,0.2-1.5,0.4c-1.1,0.4-2.3,0.8-3.4,1c-0.3,0-0.2,0.2-0.2,0.3C36.7,47.8,36.7,47.6,36.7,47.4z"
		/>
	<path class="st104" d="M118,24c-1.1,0.5-2,1.1-2.7,2.1c-0.1,0.2,0,0.6-0.1,0.8c0,0.2,0.1,0.5-0.1,0.7c-0.1-0.1-0.2-0.2-0.2-0.3
		c0-0.9-0.2-1.7-0.5-2.5c0.2-0.6,0.8-0.7,1.2-1c0.5-0.4,1.1-0.7,1.6-1C117.6,23,117.9,23.5,118,24z"/>
	<path class="st124" d="M112.3,30.1c-0.1-0.3-0.3-0.4-0.6-0.2c-0.9,0.7-2,0.9-2.8,1.6c-0.2,0.1-0.4,0.2-0.3,0.5
		c-0.2-0.3-0.3-0.7-0.3-1.1c0-0.3,0.1-0.6,0.4-0.7c0.9-0.6,1.9-1.1,2.9-1.6c0.4-0.2,0.5-0.1,0.6,0.2
		C112.4,29.2,112.6,29.6,112.3,30.1z"/>
	<path class="st97" d="M67.9,31.6c1.2-0.7,2.5-1.1,3.8-1.7c0.5-0.3,1.1-0.5,1.7-0.7c0.2-0.1,0.4-0.3,0.7-0.1c0,0,0,0.1,0,0.1
		c0.1,0.2,0.1,0.5,0,0.7c-1.6,0.4-3.1,1.2-4.5,1.9c-0.6,0.3-1.2,0.5-1.7,0.8C67.7,32.2,67.8,31.9,67.9,31.6z"/>
	<path class="st132" d="M77.2,35.8c-0.5-0.4-0.8,0.2-1.2,0.3c-0.8,0.2-1.6,0.6-2.4,0.7c0,0,0-0.1,0-0.1c0,0,0-0.1,0-0.1
		c0.3-0.4,0.5-0.8,0.8-1.2c0.3-0.3,0.7-0.5,1.1-0.6c0.7-0.2,1.5-0.4,2.2-0.7c0.2-0.1,0.4-0.1,0.6,0.1c0.2,0.2,0,0.3-0.1,0.5
		C77.9,35.1,77.6,35.5,77.2,35.8z"/>
	<path class="st133" d="M34.3,48.1c0-0.2,0-0.4-0.3-0.3c-0.4,0.1-0.8,0.2-1.3,0.4c-0.7,0.3-1.4,0.3-2.1,0.4c-0.1,0-0.2-0.1-0.3-0.1
		c0.4-0.4,0.9-0.9,1.3-1.3c1.1-0.2,2.2-0.6,3.2-0.8c0.2-0.1,0.5,0,0.4,0.4C35,47.2,34.7,47.6,34.3,48.1z"/>
	<path class="st134" d="M78.1,34.6c0.1-0.3,0.1-0.6-0.4-0.4c-1.1,0.5-2.4,0.6-3.4,1.2c0.3-0.5,0.6-1,0.9-1.5
		c0.9,0.1,1.6-0.6,2.4-0.8c0.5-0.1,1.1-0.1,1.6-0.5c0.1-0.1,0.4-0.1,0.5,0.1C79.3,33.4,78.7,34,78.1,34.6z"/>
	<path class="st135" d="M35.2,46.6c0-0.2-0.1-0.3-0.3-0.2c-0.4,0.1-0.8,0.2-1.1,0.3c-0.7,0.3-1.4,0.4-2.2,0.4c0.4-0.5,0.8-1,1.2-1.5
		c1,0,1.9-0.5,2.8-0.6c0.2,0,0.3,0,0.4,0.1C35.8,45.7,35.6,46.2,35.2,46.6z"/>
	<path class="st69" d="M81.3,32.2c0.3-0.5,0.9-0.5,1.3-0.6c1.3-0.4,2.5-0.9,3.8-1.4c0.6-0.2,1.4-0.3,2-0.6c0,0.2,0,0.4,0.1,0.5
		c-0.7,0.4-1.5,0.6-2.2,0.9c-1.5,0.5-3,1.1-4.5,1.7C81.7,32.4,81.6,32.3,81.3,32.2z"/>
	<path class="st136" d="M81.9,32.7c0-0.2,0.1-0.3,0.2-0.4c2.1-0.7,4.2-1.6,6.3-2.2c0,0,0.1,0,0.1,0c0.2,0.3,0.1,0.6,0.1,0.9
		c-0.1-0.5-0.3-0.7-0.8-0.4c-1.1,0.6-2.2,1-3.4,1.3c-0.8,0.2-1.7,0.6-2.5,0.8C81.9,32.8,81.9,32.7,81.9,32.7L81.9,32.7z"/>
	<path class="st137" d="M101.7,26.5c-0.5-0.1-0.9,0.2-1.3,0.4c-1.1,0.5-2.3,1-3.4,1.4C97.8,26.9,99.9,26.1,101.7,26.5z"/>
	<path class="st138" d="M53.6,30.1c-0.7,0.1-1.4,0.3-2,0.7c-0.4,0-0.6-0.2-0.8-0.6c0.2-0.7,0.9-0.4,1.3-0.7c0.3-0.2,0.7-0.3,1.1-0.5
		C53.5,29.4,53.6,29.7,53.6,30.1z"/>
	<path class="st69" d="M81.9,32.7c0,0,0.1,0.1,0.1,0.1c0,0.3,0,0.5,0,0.8c-0.1,0.3,0.1,0.6-0.1,0.9C81.9,33.9,81.9,33.3,81.9,32.7z"
		/>
	<path class="st2" d="M118,35.3c-0.4,0.2-0.7,0.2-1.1,0C117.3,35.3,117.7,35.3,118,35.3z"/>
	<path class="st27" d="M20.8,56.7c0.3-0.2,0.6-0.1,1-0.1C21.5,56.8,21.1,56.8,20.8,56.7z"/>
	<path class="st29" d="M108,44.9c0,0.3-0.2,0.5-0.4,0.5C107.7,45.2,107.8,45,108,44.9z"/>
	<path class="st68" d="M108.3,27.2c0,0.3,0.1,0.6-0.1,0.8C108.1,27.7,108.1,27.4,108.3,27.2z"/>
	<path class="st11" d="M62.3,49.9c0-0.3,0.2-0.4,0.4-0.5C62.7,49.7,62.5,49.8,62.3,49.9z"/>
	<path class="st127" d="M74,29.9c0-0.2,0-0.5,0-0.7c0.2,0.3,0.1,0.5,0.1,0.8C74.1,29.9,74.1,29.9,74,29.9z"/>
	<path class="st139" d="M73.6,36.6c0,0,0,0.1,0,0.1c-0.1,0.1-0.2,0.1-0.3,0.2c-0.2-0.2,0.1-0.4,0-0.5c0,0,0.1,0,0.1,0
		C73.5,36.5,73.5,36.5,73.6,36.6z"/>
	<path class="st140" d="M95.9,41.3c0-0.1,0-0.3,0.2-0.3c0.2,0,0.1,0.2,0.1,0.3C96,41.3,96,41.3,95.9,41.3z"/>
	<path class="st76" d="M57.8,42.3c0-0.2-0.1-0.5,0.1-0.7C57.9,41.8,57.9,42,57.8,42.3z"/>
	<path class="st119" d="M57.5,43.2c0,0,0.1,0,0.1,0c0,0.2,0,0.5-0.1,0.7C57.5,43.6,57.5,43.4,57.5,43.2z"/>
	<path class="st141" d="M133.7,30.1c1.2,0.1,1.6,0.9,2,1.9c0.2,0.9,0.3,1.8,0.3,2.8c-0.1,2.1-0.6,4.1-1.1,6.1
		c-0.6,1.7-1.2,3.3-2.1,4.9c-0.4,0.7-0.8,1.3-1.3,1.9c-1.2,1.3-2,1.6-3.7,1c-0.9-0.8-1.1-1.9-1.3-3c0-0.2-0.1-0.4-0.1-0.6
		c0-1.1,0.1-2.1,0.1-3.2c0.1-0.2,0-0.5,0.1-0.7c0,0,0-0.1,0-0.1c0.5-2.3,1.3-4.4,2.2-6.6c0.4-0.7,0.9-1.4,1.4-2
		C131.2,31.3,132.2,30.3,133.7,30.1z"/>
	<path class="st4" d="M126.7,41.2c0,0.2,0,0.5-0.1,0.7C126.6,41.6,126.4,41.4,126.7,41.2z"/>
	<path class="st141" d="M50.8,30.2c0.3,0.2,0.5,0.4,0.8,0.6c0.2,0.3,0.3,0.6,0.5,0.8c0.1,0.3,0.2,0.6,0.3,0.9c0,0.4,0,0.7,0.1,1.1
		c0,0,0,0.1,0,0.1c0,0.4,0,0.8,0,1.2c0,0.5-0.1,1.1-0.1,1.6c-0.1,0.3-0.1,0.6-0.1,0.9c-0.1,0.2-0.1,0.5-0.1,0.8
		c-0.2,0.3-0.2,0.7-0.2,1.1c-0.1,0.3-0.2,0.7-0.3,1.1c-0.2,0.4-0.3,0.9-0.4,1.3c-0.2,0.3-0.3,0.7-0.4,1.1c-0.2,0.5-0.4,1.1-0.7,1.6
		c-0.2,0.4-0.5,0.9-0.7,1.3c-0.2,0.4-0.4,0.7-0.7,1.1c-0.5,0.6-1,1.2-1.6,1.7c-0.5,0.3-1,0.5-1.6,0.5c-0.4-0.1-0.8-0.3-1.2-0.4
		c-0.2-0.3-0.6-0.5-0.8-0.9c-0.1-0.3-0.2-0.6-0.4-0.9c0-0.2,0-0.5-0.1-0.7c0-0.4,0-0.7-0.1-1.1c0-0.2,0-0.4,0-0.5c0-0.3,0-0.5,0-0.8
		c0-0.3,0-0.5,0-0.8c0.1-0.7,0.2-1.3,0.3-2c0.1-0.2,0.1-0.3,0.1-0.5c0.2-0.7,0.4-1.3,0.5-2c0.3-0.5,0.3-1.1,0.5-1.6
		c0.4-0.4,0.4-1,0.7-1.5c0.3-0.4,0.5-0.8,0.7-1.3c0.3-0.4,0.5-0.8,0.8-1.2c0.5-0.6,1-1.1,1.5-1.7c0.5-0.2,0.8-0.5,1.3-0.7
		C49.8,30.2,50.3,30.2,50.8,30.2z"/>
	<path class="st142" d="M112.3,30.1c0-0.4-0.1-0.9-0.1-1.3c0.1-0.7,0.1-1.3,0.2-2c0.2-0.5,0.3-1,0.6-1.5c0.4-0.6,0.8-0.9,1.5-0.7
		c0.6,0.6,0.7,1.3,0.7,2.1c0,0.3,0,0.5,0,0.8c0,0.1,0,0.2,0,0.3c0,0,0,0.1,0,0.1c-0.2,0.3,0.1,0.7-0.1,1c-0.1,0.5-0.2,1.1-0.3,1.6
		c-0.2,0.8-0.4,1.7-0.7,2.5c-0.2,0.1-0.2,0.7-0.5,0.1c-0.2-0.7-0.8-1.1-0.9-1.9C112.4,30.9,112.4,30.5,112.3,30.1z"/>
	<path class="st124" d="M114.9,28.9c0-0.3,0-0.7,0.1-1C115,28.3,115.2,28.6,114.9,28.9z"/>
</g>
</svg>
