<?xml version="1.0" standalone="no"?>
<!DOCTYPE svg PUBLIC "-//W3C//DTD SVG 20010904//EN"
 "http://www.w3.org/TR/2001/REC-SVG-20010904/DTD/svg10.dtd">
<svg version="1.0" xmlns="http://www.w3.org/2000/svg"
 width="625.000000pt" height="292.000000pt" viewBox="0 0 625.000000 292.000000"
 preserveAspectRatio="xMidYMid meet">

<g transform="translate(0.000000,292.000000) scale(0.100000,-0.100000)"
fill="#000000" stroke="none">
<path d="M4663 1935 c-49 -21 -88 -61 -119 -123 -27 -53 -29 -65 -29 -172 0
-101 3 -121 24 -164 29 -59 74 -112 112 -132 16 -8 29 -21 29 -29 0 -25 -71
-157 -145 -270 -72 -109 -141 -185 -169 -185 -21 0 -52 57 -65 116 -20 100
-33 322 -29 539 l3 220 -55 3 c-83 5 -116 -5 -155 -45 -43 -44 -59 -97 -80
-258 -9 -66 -20 -136 -26 -155 -76 -249 -219 -440 -313 -416 -56 14 -50 134
23 452 45 196 37 315 -24 382 -29 32 -39 36 -93 40 -89 6 -153 -26 -256 -131
-83 -83 -114 -122 -183 -234 -21 -35 -41 -63 -44 -63 -3 0 0 31 7 69 7 38 15
105 16 148 l3 78 -29 -2 c-16 -1 -32 -6 -35 -11 -3 -5 -28 -17 -56 -27 -27
-11 -52 -21 -55 -24 -3 -4 -22 -14 -42 -23 -26 -12 -38 -24 -38 -38 0 -12 -7
-45 -16 -73 -90 -302 -155 -439 -256 -539 -50 -50 -82 -64 -122 -54 -35 9 -47
75 -35 191 5 49 12 97 15 105 7 20 54 250 54 264 0 6 -5 4 -10 -4 -5 -8 -10
-11 -10 -6 0 5 -6 3 -14 -3 -8 -6 -18 -11 -22 -9 -16 4 -74 -13 -70 -21 3 -4
-5 -8 -16 -8 -12 -1 -34 -7 -50 -13 -15 -5 -41 -15 -57 -21 -23 -8 -30 -19
-35 -47 -10 -54 -71 -220 -106 -283 -34 -64 -91 -126 -128 -140 -90 -34 -158
70 -150 232 2 43 0 79 -3 79 -7 0 -72 -19 -158 -46 -25 -8 -53 -14 -63 -14
-10 0 -18 -4 -18 -9 0 -5 -23 -13 -52 -18 -48 -7 -55 -12 -97 -68 -79 -104
-182 -197 -263 -237 -100 -50 -151 -61 -261 -56 -77 3 -103 9 -153 33 -72 35
-149 113 -187 189 -26 52 -31 56 -63 56 -19 0 -42 -4 -52 -9 -17 -10 -157 -44
-179 -44 -14 0 -7 -20 34 -98 74 -138 180 -226 338 -280 61 -21 88 -24 210
-24 124 0 147 3 205 25 69 26 140 64 199 108 75 56 198 192 223 248 6 13 14
24 18 24 4 0 15 18 25 40 20 45 35 44 35 -4 0 -44 38 -153 69 -197 71 -100
202 -123 331 -59 53 27 103 73 162 150 l26 35 7 -30 c15 -59 63 -129 109 -158
39 -24 56 -28 115 -28 107 0 193 52 284 170 l42 54 7 -60 c7 -68 38 -137 67
-153 11 -5 42 -10 69 -10 71 0 93 21 116 112 62 242 228 562 362 695 95 96
124 65 98 -105 -8 -58 -19 -113 -23 -121 -18 -35 -44 -212 -45 -301 -1 -104
12 -156 52 -208 57 -76 171 -95 269 -46 105 54 210 185 292 367 24 53 46 95
48 93 2 -2 9 -36 14 -76 13 -90 64 -264 91 -310 12 -19 35 -50 52 -67 63 -68
158 -35 292 101 71 72 197 234 228 293 9 18 26 47 39 66 12 18 33 56 46 84
l25 51 75 4 c64 4 108 16 163 46 4 2 -1 -26 -12 -62 -34 -120 -45 -235 -31
-327 31 -205 111 -293 266 -293 112 0 193 50 297 184 15 19 28 29 28 21 0 -8
14 -43 31 -77 23 -48 41 -70 76 -93 99 -66 260 -31 371 80 92 92 152 267 107
313 -10 9 -22 15 -27 14 -6 -2 -27 -41 -48 -87 -47 -103 -90 -165 -132 -191
-44 -27 -74 -25 -94 5 -22 34 -14 216 15 340 47 197 93 373 112 423 39 107 18
152 -71 152 -78 -1 -144 -43 -201 -130 l-16 -24 -20 45 c-40 91 -135 132 -250
109 -110 -23 -167 -65 -305 -222 -32 -36 -77 -77 -101 -91 -54 -32 -128 -51
-162 -43 l-25 6 24 63 c36 97 56 198 56 289 -1 148 -48 208 -165 208 -33 -1
-74 -7 -92 -15z m113 -122 c14 -15 16 -31 11 -118 -6 -101 -36 -231 -53 -229
-23 2 -58 99 -62 173 -8 146 44 234 104 174z m832 -236 c30 -32 42 -78 42
-163 0 -193 -91 -454 -192 -550 -54 -52 -78 -60 -122 -39 -56 27 -92 129 -82
232 33 320 247 634 354 520z"/>
</g>
</svg>
