<svg id="Layer_1" data-name="Layer 1" xmlns="http://www.w3.org/2000/svg" viewBox="0 0 150 70"><defs><style>.cls-1{fill:#16acdf;}.cls-2{fill:#049648;}.cls-3{fill:#4db74e;}.cls-4{fill:#34a048;}.cls-5{fill:#676666;}.cls-6{fill:#add138;}.cls-7{fill:#069550;}.cls-8{fill:#0c9b49;}.cls-9{fill:#cbd72c;}.cls-10{fill:#d6d827;}.cls-11{fill:#98ca3d;}.cls-12{fill:#e23d2b;}.cls-13{fill:#bed631;}.cls-14{fill:#74368a;}.cls-15{fill:#32c5ee;}.cls-16{fill:#e55626;}.cls-17{fill:#e34a29;}.cls-18{fill:#3ac0c9;}.cls-19{fill:#e66425;}.cls-20{fill:#23a4dd;}.cls-21{fill:#b4d335;}.cls-22{fill:#f09921;}.cls-23{fill:#b9212b;}.cls-24{fill:#ea7624;}.cls-25{fill:#7e327f;}.cls-26{fill:#9b2051;}.cls-27{fill:#1bb5da;}.cls-28{fill:#95255f;}.cls-29{fill:#8f2a6b;}.cls-30{fill:#a11e44;}.cls-31{fill:#ed8823;}.cls-32{fill:#aa1f39;}.cls-33{fill:#3399d5;}.cls-34{fill:#862e77;}.cls-35{fill:#008b5c;}.cls-36{fill:#57c3b7;}.cls-37{fill:#4185c6;}.cls-38{fill:#a11f44;}.cls-39{fill:#4180c2;}.cls-40{fill:#d62927;}.cls-41{fill:#db3128;}.cls-42{fill:#95265f;}.cls-43{fill:#ea7625;}.cls-44{fill:#d72a27;}.cls-45{fill:#e23e2b;}.cls-46{fill:#de3729;}.cls-47{fill:#3f90ce;}.cls-48{fill:#c6d72e;}.cls-49{fill:#9b2050;}.cls-50{fill:#e65726;}.cls-51{fill:#c4d62f;}.cls-52{fill:#2d9ed8;}.cls-53{fill:#48c1c2;}.cls-54{fill:#20b5d9;}.cls-55{fill:#c52529;}.cls-56{fill:#e34b2a;}.cls-57{fill:#d72c28;}.cls-58{fill:#d1d729;}.cls-59{fill:#35bcce;}.cls-60{fill:#a51f40;}.cls-61{fill:#e3402c;}.cls-62{fill:#c4252a;}.cls-63{fill:#922966;}.cls-64{fill:#b12132;}.cls-65{fill:#4193ce;}.cls-66{fill:#e66326;}.cls-67{fill:#b42331;}.cls-68{fill:#b32331;}.cls-69{fill:#a52040;}.cls-70{fill:#c6282a;}.cls-71{fill:#4a9ed7;}.cls-72{fill:#b12233;}.cls-73{fill:#a0254c;}.cls-74{fill:#e56c4d;}.cls-75{fill:#e0583d;}.cls-76{fill:#83b2e0;}.cls-77{fill:#e17f64;}.cls-78{fill:#81cadd;}.cls-79{fill:#1ab2db;}.cls-80{fill:#c5d62e;}.cls-81{fill:#cfd72a;}.cls-82{fill:#d0d729;}.cls-83{fill:#b02033;}.cls-84{fill:#982358;}.cls-85{fill:#912867;}.cls-86{fill:#922866;}.cls-87{fill:#a41f3f;}.cls-88{fill:#231f20;}</style></defs><path class="cls-1" d="M20.16,9.11a5.33,5.33,0,0,1,1.6.84l.07.07a.53.53,0,0,1-.07.54c-.1,0-.1,0-.1-.1s0-.23,0-.34c0,.12,0,.24,0,.36s0,.13.13.08.08.1.07.17a3.76,3.76,0,0,0,0,.75,6,6,0,0,1-.05,1c0,.13.08.25,0,.38a.28.28,0,0,1-.22,0,.81.81,0,0,1,0-.51c-.08.07-.05.18-.05.27s-.07.22-.22.22h-.8a1.15,1.15,0,0,0-.31,0,.51.51,0,0,1-.34,0,.22.22,0,0,1-.05-.16c0-.33,0-.66,0-1a.24.24,0,0,1,.12-.25v1c0-1,0-2.07,0-3.2,0,0,0-.08.09-.11,0,.25,0,.5,0,.7a6.31,6.31,0,0,1,0-.74v0Z"/><path class="cls-2" d="M21.58,12.86h.25a.56.56,0,0,1,.42,0c.43,0,.86,0,1.29.07a1.24,1.24,0,0,1,.5.1,12.41,12.41,0,0,1,.87,2.71,30.29,30.29,0,0,1,.66,5.78,55.11,55.11,0,0,1-.22,6.3c0,.36-.07.72-.11,1.08-.1.06-.17,0-.24-.06q-1.14-.76-2.34-1.44c-1.12-.62-2.26-1.2-3.42-1.73s-2.46-1.05-3.7-1.52a4.86,4.86,0,0,1-.85-.34,23.44,23.44,0,0,1,0-2.78,27.15,27.15,0,0,1,.83-6.09,8,8,0,0,1,.58-1.66c.11-.11.26-.09.4-.13.49-.07,1-.13,1.47-.17a1.75,1.75,0,0,0,.4,0c.42,0,.85,0,1.27-.08a.4.4,0,0,1,.26,0h.38A11.1,11.1,0,0,1,21.58,12.86Z"/><path class="cls-3" d="M14.69,23.76a7.54,7.54,0,0,1,1.21.42c1,.37,2,.78,3,1.22,1.15.52,2.28,1.07,3.39,1.68s1.92,1.1,2.84,1.72a.69.69,0,0,0,.13.05,3.19,3.19,0,0,1-.06.54c-.29.21-.62.35-.91.54a17.66,17.66,0,0,0-1.79,1.16,18.48,18.48,0,0,0-1.82,1.49c-.08.08-.18.13-.26.21l-.26.27c-.51.49-1,1-1.45,1.56a1,1,0,0,0-.16.2,5.05,5.05,0,0,1-.53.6h-.06a4.19,4.19,0,0,1-.39-.45c-.33-.41-.67-.81-1-1.21s-.75-.8-1.08-1.24c-.17-1.2-.34-2.4-.46-3.61-.09-.95-.18-1.89-.23-2.84C14.72,25.3,14.67,24.53,14.69,23.76Z"/><path class="cls-4" d="M29.84,27.49c.09-.77.2-1.54.27-2.32a21.83,21.83,0,0,0-.05-4.12,19.77,19.77,0,0,0-.92-4.37,15.19,15.19,0,0,0-1.46-3.14l-.05-.09c.07-.07.15,0,.23,0l1.05.19a2.8,2.8,0,0,0,.28.06c.48.1,1,.19,1.46.32a.84.84,0,0,1,.25.09,10.85,10.85,0,0,1,1.45,2,12,12,0,0,1,1.58,5,18.28,18.28,0,0,1-.09,3.47c-.08.67-.19,1.32-.32,2a.31.31,0,0,1-.07.18.29.29,0,0,1-.21.08,28.13,28.13,0,0,0-3.16.66C30,27.53,29.91,27.58,29.84,27.49Z"/><path class="cls-5" d="M20.14,51.47h3.25c.17,0,.22,0,.17.2-.29,1.24-.57,2.48-.85,3.72,0,.14-.08.19-.23.18H17.75c-.13,0-.19,0-.21-.16-.29-1.25-.57-2.51-.87-3.77,0-.16,0-.17.15-.17Z"/><path class="cls-6" d="M29.84,27.49l1.54-.36a20.36,20.36,0,0,1,2.07-.37c0,.17,0,.32-.07.48a38.65,38.65,0,0,1-1.62,5.27c-.4,1.05-.82,2.09-1.3,3.11-.09.09-.16,0-.23,0a6.45,6.45,0,0,0-.66-.62c-.33-.3-.65-.61-1-.88a.47.47,0,0,1-.2-.4c.18-.64.37-1.29.54-1.94a38.21,38.21,0,0,0,.91-4.22A.05.05,0,0,1,29.84,27.49Z"/><path class="cls-7" d="M12.13,14.29a17.77,17.77,0,0,0-1.87,6.11c-.07.56-.12,1.13-.17,1.69,0,.22-.06.25-.28.18-.66-.19-1.32-.34-2-.51-.42-.11-.84-.2-1.26-.29a.46.46,0,0,1-.27-.13,11.94,11.94,0,0,1,1.46-5,5.61,5.61,0,0,1,1-.6,21.88,21.88,0,0,1,3.08-1.4C11.9,14.29,12,14.2,12.13,14.29Z"/><path class="cls-3" d="M6.31,21.34l2.92.71a6.29,6.29,0,0,1,.62.17c.15.06.21,0,.24-.13,0,.67,0,1.34,0,2a31.72,31.72,0,0,0,.44,4c-.08,0-.14,0-.2-.08A32.16,32.16,0,0,0,6.7,25.75a.32.32,0,0,1-.14-.12,20.58,20.58,0,0,1-.29-3.32C6.27,22,6.3,21.66,6.31,21.34Z"/><path class="cls-8" d="M35,26.55a22.51,22.51,0,0,0,.52-4.41,12.72,12.72,0,0,0-1.93-6.81l-.4-.63s0,0,.07,0a3.36,3.36,0,0,1,1.07.35,12.74,12.74,0,0,1,2,3.44,9.81,9.81,0,0,1,.56,4.77c-.12,1-.27,2-.48,3a1.17,1.17,0,0,1,0,.2c-.2.13-.42.05-.63.1s-.38,0-.58,0A.15.15,0,0,1,35,26.55Z"/><path class="cls-9" d="M18.65,34.61A13.75,13.75,0,0,1,20.12,33c.1-.05.19-.09.26,0s.05,0,.08,0,.16,0,.14.08.07.22.17.28a1.41,1.41,0,0,1,.44.4,3.11,3.11,0,0,0,.79.7c.08-.11,0-.23,0-.35s.08-.1.15-.07.06.08.07.13a.78.78,0,0,1-.06.37c.05-.14.11-.11.18,0a.23.23,0,0,1,.07.17c0,.12,0,.05.07,0s.09,0,.11.09.11.25.28.28,0,.12.05.17,0,0,0,0,0,0,0,0,.06-.11.13,0a.41.41,0,0,1,.1.13.6.6,0,0,0,.36.37.37.37,0,0,1,.25.25.19.19,0,0,0,.17.16c.1,0,.13.07.16.14-.18,1-.4,2-.63,2.93-.08.09-.16.14-.22,0,0,0,0,0-.05,0S23.05,39.1,23,39c-.05-.28-.08-.55-.4-.66-.09,0-.12-.14-.18-.21s-.16-.13-.27,0-.07.12-.14.09,0-.1-.05-.15,0-.19-.15-.22-.09-.12-.09-.2,0-.16-.13-.13-.18-.06-.17-.13c0-.24-.19-.3-.29-.44s-.23-.2-.33-.33-.17,0-.25,0-.2,0-.23-.14a.74.74,0,0,0-.38-.66.36.36,0,0,1-.15-.15c0-.1-.11-.11-.2-.08s-.14,0-.13-.08a.37.37,0,0,0-.21-.33c-.16-.09-.25-.28-.46-.31S18.69,34.71,18.65,34.61Z"/><path class="cls-10" d="M21.79,37.62a.19.19,0,0,0,.12.18.27.27,0,0,1,.12.35s0,0,0,0c.26-.29.29-.28.51.05,0,0,0,.09.13.07s.24.19.25.24.19.33.11.53c0,0,0,.08.06.11s.05,0,.06,0,.14,0,.13,0c0,.22.09.1.17.09-.15.65-.3,1.29-.46,1.94-.11.46-.23.92-.35,1.39-.17-.12-.2-.32-.31-.48s-.17-.3-.25-.45c-.25-.44-.5-.88-.78-1.3a14.63,14.63,0,0,0-.79-1.25c-.15-.28-.34-.52-.51-.78s-.45-.64-.67-1c-.44-.58-.87-1.17-1.32-1.75,0-.05-.12-.1-.06-.19l.51-.62h0c0,.24.19.31.3.45a.1.1,0,0,0,.15,0c.09-.06.15,0,.12.08a.22.22,0,0,0,.16.26,1.06,1.06,0,0,1,.29.2s.05.07.1,0,.08-.08.13,0,0,.09,0,.13,0,0-.06.1.22-.13.27.06a.28.28,0,0,0,.15.13.22.22,0,0,1,.15.24c0,.13.06,0,.1,0s.18,0,.21.13a2,2,0,0,1,.24.33c.1.14.26.24.35.38s.35.18.38.4c0,.05.06.1.12.11S21.61,37.62,21.79,37.62Z"/><path class="cls-11" d="M35,26.55c.45,0,.9-.08,1.36-.08a26.54,26.54,0,0,1-1,3.38A38.85,38.85,0,0,1,33.18,35c-.13.26-.27.51-.41.76a.09.09,0,0,1-.1,0q-.31-.29-.6-.6a.09.09,0,0,1,0-.1c.33-.75.68-1.5,1-2.26A34,34,0,0,0,35,26.55Z"/><path class="cls-12" d="M19.16,48.22c-.29-.89-.56-1.8-.79-2.71,0-.06,0-.07.08-.09a.68.68,0,0,0,.32-.23.21.21,0,0,1,.19-.1.1.1,0,0,0,.1-.06c.09-.18.09-.18.24,0,.08-.09.12-.25.29-.15.06-.1.18-.08.26-.14a3.24,3.24,0,0,0,.74-.48.42.42,0,0,0,.06-.14c.05-.08.08-.22.22-.11s.05,0,.07,0a.37.37,0,0,1,.44-.21c.16,0,.27,0,.35-.22s.06-.24.24-.14.11,0,.13-.09a.58.58,0,0,1,.39-.31c.09,0,.08,0,.05.08-.13.63-.32,1.25-.49,1.86s-.38,1.36-.57,2a.94.94,0,0,1-.06.15c-.05,0-.12,0-.14,0s-.19.06-.3,0,0,0,0,0c.06.19,0,.25-.16.27a.35.35,0,0,0-.21.07c-.08.09-.15.08-.24,0,0,.09.11.3-.15.17a.17.17,0,0,0-.21.14c0,.1-.07.13-.18.1s-.32,0-.35.18,0,.17-.17.08S19.21,48.23,19.16,48.22Z"/><path class="cls-13" d="M22.33,34.61s0,0-.08,0,0,0,0,.07.09,0,.06.12-.19-.1-.14-.25a.64.64,0,0,0,0-.24c0-.16-.07-.13-.16-.06-.24-.3-.6-.47-.81-.8a.3.3,0,0,0-.18-.13.13.13,0,0,1-.1-.06.87.87,0,0,0-.58-.43,15.34,15.34,0,0,1,1.29-1.13,7.86,7.86,0,0,1,.8-.59c.13.14.35.13.47.3a5.51,5.51,0,0,0,.43.41,8.44,8.44,0,0,0,.78.68c.15.12.24.29.39.41a.21.21,0,0,1,.07.17c0,.09,0,.18.06.25-.14.91-.28,1.82-.48,2.71a.18.18,0,0,1-.28-.06c-.13-.26-.39-.38-.57-.59s-.36-.23-.45-.44a.19.19,0,0,0-.13-.13.55.55,0,0,1-.31-.18C22.39,34.54,22.37,34.6,22.33,34.61Z"/><path class="cls-14" d="M6.56,25.63a18.93,18.93,0,0,1,1.65.93c.79.48,1.55,1,2.3,1.54l.17.92a1.76,1.76,0,0,1-.6.29c-.35.14-.69.29-1,.42s-.69.29-1,.4c-.1,0-.17.16-.3.1a31.32,31.32,0,0,1-1-3.92C6.63,26.08,6.6,25.86,6.56,25.63Z"/><path class="cls-14" d="M4.9,24.77a32,32,0,0,0,1.44,5.85c0,.06.07.12,0,.2a5.6,5.6,0,0,0-.68.26.53.53,0,0,0-.33.25,24.08,24.08,0,0,1-1-2.74,25.39,25.39,0,0,1-1-4.4.16.16,0,0,1,.1,0A6.74,6.74,0,0,1,4.9,24.77Z"/><path class="cls-15" d="M12.13,14.29a4.23,4.23,0,0,0-1,.35A21.93,21.93,0,0,0,7.85,16.3l-.08,0A13.88,13.88,0,0,1,11.56,12c.45.29.89.6,1.34.9a.08.08,0,0,1,0,.1C12.66,13.39,12.38,13.83,12.13,14.29Z"/><path class="cls-16" d="M21.38,40.33c.29.41.53.86.78,1.3a.64.64,0,0,1-.56.37.57.57,0,0,0-.34.14c-.14.11-.17.3-.35.37a1.4,1.4,0,0,1-.47.12c-.07,0-.07.06-.07.11s0,.13-.05.14c-.35.06-.57.38-.92.48a.39.39,0,0,0-.27.21c-.05.1-.11.08-.15,0s0-.1-.06-.09-.06.06-.07.11-.05.18-.17.09a.07.07,0,0,0-.1,0c0,.09-.16.09-.18.2l0,0c-.24-.12-.25.15-.38.21-.14-.48-.28-1-.38-1.46a1.09,1.09,0,0,0,0-.18.05.05,0,0,1,0-.07.33.33,0,0,0,.37-.3c0-.08.1-.06.14-.11s.08,0,0,0-.05-.09,0-.12.1,0,.14,0,.21.11.29-.07.13-.14.17-.23.08-.07.11,0,.15,0,.23,0,.07-.09.08-.15a.49.49,0,0,0,0-.12c0-.06,0-.13.08-.14s.08.06.08.11,0,.06.05.06.1,0,.1-.08c0-.2.17-.25.3-.35S20,41,20,40.9s.16,0,.2-.14.09-.07.11,0,0-.08.06,0,0,0,0,0a.13.13,0,0,1,0-.17,0,0,0,0,1,.06,0c.06.06,0,.13,0,.19s0-.22.12-.29.07.07.09.11.06.07.13,0a1.07,1.07,0,0,0,.44-.28A.1.1,0,0,1,21.38,40.33Z"/><path class="cls-17" d="M18,44.17c0-.09,0-.19.15-.23s0,0,0-.15.13.11.21.15c0-.16.2-.23.27-.36.06,0,.07.11.14.11s-.05-.24.1-.28.19.06.16.23c.07-.25.27-.28.43-.36a2,2,0,0,0,.65-.42c0-.06.07,0,.09,0s.2,0,.11-.13,0-.13.06-.17.08,0,.11.06.06.07.09,0,.35-.17.5-.29-.09-.11,0-.17c.23.07.17-.12.19-.26.11.09.23.19.25,0,0,0,.05,0,.07,0s.28,0,.38-.07.2-.05.22-.18c.18.31.36.62.52.95a2,2,0,0,1-.14.47.25.25,0,0,0-.25.06.7.7,0,0,0-.15.2c-.05.15-.08.23-.25.08s-.12.12-.12.13c-.08.23-.14.28-.4.25A.35.35,0,0,0,21,44s0,.07,0,.06-.05,0-.08-.05,0-.12-.07-.06-.14,0-.1.12.12.22-.09.13l0,0a2.44,2.44,0,0,1-.78.5c-.09,0-.16,0-.16.16-.28-.22-.23.16-.38.17s0-.21-.15-.2c.06.18,0,.29-.19.23a.09.09,0,0,0-.09,0c-.08.21-.28.25-.45.34C18.22,45.07,18.1,44.62,18,44.17Z"/><path class="cls-15" d="M3.47,19.82c.92-4.11,4.76-7.74,7-8.6a13.71,13.71,0,0,0-5.19,6.94L4,19.32a4,4,0,0,0-.28.3C3.68,19.71,3.63,19.84,3.47,19.82Z"/><path class="cls-13" d="M29.55,37.54c-.29.66-.64,1.3-1,2l-.17.31c-.07.07-.12.06-.23,0s-.28-.32-.46-.45-.54-.5-.83-.72a.37.37,0,0,1-.13-.31c.22-.59.44-1.18.65-1.77.1-.28.21-.55.31-.83.06,0,.09.06.12.1s.22.38.46.43h0c.16.25.43.36.61.59s.35.32.45.55c0,0,0,0,0,0S29.52,37.44,29.55,37.54Z"/><path class="cls-10" d="M23.83,44.91l1.23-2.61c.21-.44.41-.89.61-1.34.14,0,.16.12.23.2s0,.11.12.11.13.16.17.26a1.25,1.25,0,0,0,.54.95s.06,0,.07.07a20.67,20.67,0,0,1-1.41,2.05A15.83,15.83,0,0,1,24.3,46,3.83,3.83,0,0,1,23.83,44.91Z"/><path class="cls-18" d="M28.93,13.65l-1.07-.18a.6.6,0,0,0-.23,0A17.3,17.3,0,0,0,26.54,12a15.82,15.82,0,0,0-1.29-1.3.74.74,0,0,1-.05-.36c0-.05,0-.1,0-.13s.09,0,.12.07c.09-.14-.16-.19-.06-.33a13.46,13.46,0,0,1,2.58,1.41,7.41,7.41,0,0,1,1,.76c0,.09-.1.22.08.27s0,.08,0,.13a.91.91,0,0,0-.07.89C28.94,13.48,29,13.56,28.93,13.65Z"/><path class="cls-19" d="M21.38,40.33l-.07,0c-.12.22-.36.27-.55.37s-.1-.13-.16-.2l-.12.34c-.08-.08.05-.19-.05-.27-.09.08,0,.18,0,.26s-.14,0-.17-.13c0,.19-.38.08-.23.36-.07,0-.06-.17-.18,0s-.22.14-.24.29-.08.1-.18.1,0-.15-.12-.17,0,.23,0,.35,0,.11-.09.07a.19.19,0,0,0-.14,0c-.09.05-.14,0-.2-.17,0,.2-.18.25-.16.43s-.16,0-.22.09c0-.09-.09.14-.09,0s-.08-.12-.16-.17c0,.12.1.19,0,.29s0-.06,0-.08-.13,0-.12.09c0,.22-.2.23-.28.36s-.09,0-.15,0,0,.16,0,.22a15,15,0,0,1-.38-1.5.14.14,0,0,0,0-.06c0-.1.18-.1.17-.25s.13-.09.2,0,.25,0,.31-.13.05-.19.18-.1.05,0,.06,0a.17.17,0,0,1,.14-.14c.1,0,.13-.13.2-.19a.23.23,0,0,1,.25-.06.54.54,0,0,0,.5-.27c0-.07,0-.15.14-.13a.21.21,0,0,0,.25-.14.24.24,0,0,1,.28-.13c.11,0,.22,0,.26-.17s0-.16.15-.08h0c0-.1.17-.12.2-.22A9.24,9.24,0,0,1,21.38,40.33Z"/><path class="cls-20" d="M19.91,12.86l-1.54.08c-.07,0-.07-.08-.07-.14,0-.48,0-1,0-1.45a9.14,9.14,0,0,0,0-1.28,4.07,4.07,0,0,1,1.72-.93V10h0V9.23H20a25.55,25.55,0,0,1,0,3.5V11.54h-.05Z"/><path class="cls-21" d="M29.55,37.54c0-.06-.06-.06-.18,0h0c0-.2-.19-.29-.31-.4s-.24-.39-.48-.46-.11-.14-.18-.2-.4-.23-.52-.45a1.2,1.2,0,0,0-.15-.24l.66-2c.16.36.49.55.75.81s.38.32.56.5.42.4.63.6c.05,0,.1,0,.15,0C30.18,36.27,29.89,36.91,29.55,37.54Z"/><path class="cls-22" d="M18,35.41c.22.36.51.67.76,1l.66.9a13.21,13.21,0,0,1-1.38.86c-.26.15-.52.31-.79.44-.07,0-.08.19-.21.07v0c0,.32-.25,0-.36.11-.09-.4-.2-.79-.26-1.2,0-.21.21-.35.3-.54.35-.53.72-1.05,1.11-1.55,0,0,.07-.12.15-.13Z"/><path class="cls-3" d="M4.9,24.77c-.32-.08-.6-.26-.91-.37s-.36-.14-.54-.21a13.2,13.2,0,0,1-.14-3.44.17.17,0,0,1,.14,0q.59.09,1.17.21a.19.19,0,0,1,.12.07,15,15,0,0,0,.09,3.14C4.85,24.35,4.88,24.56,4.9,24.77Z"/><path class="cls-23" d="M13.6,38.58l.88,2.17c.08.18-.11.12-.13.11s-.18,0-.28,0-.4.07-.47.31c0,.06-.08,0-.12,0s-.19-.15-.25.06-.13.14-.15.23H13c0-.18-.19-.17-.34-.17a22,22,0,0,1-1.08-2c0-.09.07-.09.11-.11a.2.2,0,0,0,.11-.24c0-.08,0-.25.17-.08s0,0,.07,0c.17.22.33,0,.5,0,0,0,0,0,0,0s-.09-.07-.11-.13.07-.09.13-.11.08,0,.07-.05,0-.13.06-.13a.17.17,0,0,1,.15.13c0,.13.07.17.19.1a.45.45,0,0,0,.3-.1C13.47,38.46,13.53,38.51,13.6,38.58Z"/><path class="cls-24" d="M20.58,39.07v.2l-.05-.12c-.06.11-.05.36-.25.13-.07.11,0,.31-.19.3s-.17.1-.24-.06c0,.12-.13.12-.12.23l0-.1c0,.09,0,.22-.11.23s-.15,0-.25,0a.48.48,0,0,1-.23.27c-.15.1-.24,0-.36,0a.34.34,0,0,0-.33.36l-.06-.15,0,.18,0-.12c-.05.11,0,.35-.29.07.08.28-.14.32-.23.45s-.07,0-.08,0-.14-.07-.19-.07,0,.12,0,.13-.13.14-.22.17A9.06,9.06,0,0,1,17,40c.08,0,.08-.14.11-.21s.11-.09.15,0a.17.17,0,0,0,.06-.16s0-.08,0-.09a.35.35,0,0,0,.34-.18s.08.05.14.08c0-.13,0-.23.14-.21,0-.15.2-.13.29-.2s.19-.24.37-.13.08,0,.09-.07,0-.19.16-.1h0c-.05-.21.18-.15.26-.25a.43.43,0,0,1,.33-.18h0c.15-.31.39,0,.56-.08A5.49,5.49,0,0,1,20.58,39.07Z"/><path class="cls-9" d="M26.17,41.54l-.5-.58.87-2.1a.35.35,0,0,1,.3.12c.18.26.49.38.68.63s.15.21.29.21a.1.1,0,0,1,.09.08.57.57,0,0,0,.28.31c-.36.7-.76,1.38-1.18,2-.19-.09-.27-.3-.45-.4S26.34,41.6,26.17,41.54Z"/><path class="cls-21" d="M24.66,33.28c-.07-.05-.18-.07-.12-.22s0-.07-.14-.2-.07-.15-.13-.22-.46-.32-.61-.57c-.23,0-.23-.26-.4-.33s-.31-.3-.46-.44-.3-.06-.34-.24a12.48,12.48,0,0,1,1.36-.92l.43-.25c.21.1.3.31.45.47s.21.23.33.33C24.93,31.56,24.81,32.42,24.66,33.28Z"/><path class="cls-25" d="M7.69,30.23c.23-.1.44-.21.67-.3l.75-.29.74-.3c.28-.12.55-.22.83-.32l.26,1.21c0,.19,0,.22-.19.21s-.18,0-.22,0-.1.15-.22.09c-.06.18-.28.06-.36.2s-.2,0-.3.07-.24.08-.33.2a.52.52,0,0,1-.33.13c-.08,0-.13.11-.23.06s-.16.07-.23.13,0,0,0,0-.24.06-.34.13A12.5,12.5,0,0,1,7.69,30.23Z"/><path class="cls-26" d="M10,36.12a9.72,9.72,0,0,1-.47-1,2.63,2.63,0,0,0,.08-.3c0-.12.1-.12.16,0s0,0,0,.06,0,0,0,0,.42,0,.47-.28c.07-.11.21-.12.29-.21s0,0,.07,0,.1,0,.16-.07a.24.24,0,0,1,.2-.14c.07,0,.07.08.07.14s-.1-.18,0-.22.16.05.19.13c.14-.3.41-.17.64-.18l.45,1.37c0,.12-.15,0-.2.08s0,.17-.1.24a.23.23,0,0,1-.36,0s0-.07,0,0-.21.09-.15.25,0,.07-.11.05l-.09-.08c-.05,0-.1-.15-.13-.11s-.25,0-.27.19a.24.24,0,0,1-.23.2c-.11,0-.25,0-.33.14s-.06,0-.09,0,0-.07-.07-.06S10.09,36.19,10,36.12Z"/><path class="cls-27" d="M24,13l-2.21-.12c-.13-.13-.06-.28-.06-.42,0-.43.07-.84,0-1.27a.87.87,0,0,1,0-.48s0-.09-.05-.12h0a1.44,1.44,0,0,0,.08-.55,7,7,0,0,1,1.77,2.09A5.92,5.92,0,0,1,24,13Z"/><path class="cls-28" d="M12,34c-.08.06-.18,0-.27,0-.25,0-.26,0-.37.2-.06-.11-.06-.11-.19-.2,0,.12.09.23,0,.33-.08-.06,0-.17-.08-.24-.12.13-.27.23-.29.43-.1-.05,0-.17-.1-.2a1,1,0,0,1-.31.21.57.57,0,0,0-.43.17.14.14,0,0,1-.15,0c-.06-.07-.14,0-.11,0s0,.21-.11.28a14.71,14.71,0,0,1-.62-1.47,1.21,1.21,0,0,0,.21-.24.19.19,0,0,1,.26,0c.11.14.15,0,.22,0a1.56,1.56,0,0,0,.7-.25s0-.08.1-.09a.72.72,0,0,0,.63-.28h0c.14,0,.3.06.31-.17,0-.08.05-.11.11,0Z"/><path class="cls-29" d="M11.1,32.69H11a2.43,2.43,0,0,0-.52.3l-.09.08c-.09-.07-.19-.12-.29,0s-.06,0-.1,0a.4.4,0,0,0-.32.24c-.07.07-.09.36-.27.06,0,0-.25,0-.27.14s-.1.08-.17.09a9.79,9.79,0,0,1-.46-1.17.2.2,0,0,1,.14-.17c.12,0,.26-.06.31-.2.15.09.21-.22.37-.09s0,0,0,0c.14-.18.36-.19.55-.28h0s0,0,0,0,0-.16.12-.17.17,0,.24,0,.11,0,.16,0,0-.11.1-.13a.06.06,0,0,1,.09,0c.09.15.18,0,.19,0s.11-.22.26-.1c0,0,.07,0,.11,0,.12.4.24.8.33,1.21,0,0-.09,0-.08.05S11.19,32.59,11.1,32.69Z"/><path class="cls-30" d="M10.35,36.28c.12.06.14,0,.17-.11s.08-.14.12,0,0,.07,0,0,0,0,0,0c.26.1.23-.1.27-.24s.15,0,.22-.09.17,0,.23.08a.2.2,0,0,0,.13.11c.07-.06,0-.09,0-.13s-.08-.13.06-.1.12-.1.15-.16c.09.18.11.13.27.08s.1-.1.12-.18.09-.14.19-.08.06,0,.1,0L13,37a0,0,0,0,1-.07,0c-.3-.15-.32-.15-.54.05-.19-.09-.33.08-.5.11s-.25.21-.43.17c0,0,0,0,0,0-.09.2-.27.2-.44.2s-.11.14-.22.12a13.08,13.08,0,0,1-.6-1.25A.17.17,0,0,1,10.35,36.28Z"/><path class="cls-31" d="M20.07,38.29c-.12,0-.24.14-.37,0,0,0,0,0-.07,0s0,.2-.13.12c0,.11-.22-.14-.12.1,0,0,0,.07-.15,0s-.11,0-.07.06-.05,0-.08.06-.22-.07-.11.12c0,0,0,.09-.07.09s-.06-.1-.16-.09.05.17,0,.24-.14-.11-.25-.08,0,.18-.16.13-.09,0-.06,0-.07.05-.09.09-.19-.13-.1.09c0,.06-.15,0-.23,0s.11.21,0,.26-.08-.14-.19-.14l0,0c0,.21-.11.15-.21.16s-.11,0-.08,0-.06.18-.07.27-.06-.1-.1-.13.06.3-.19.25a11.86,11.86,0,0,1-.29-1.21c.1-.1.19,0,.29,0s0-.18.05-.25.07.11.16.11c0-.21.17-.2.26-.23.27-.1.47-.31.73-.43a4.78,4.78,0,0,0,.65-.38,1.18,1.18,0,0,0,.43-.31s.12,0,.18,0Z"/><path class="cls-32" d="M12.4,37.08s0-.08,0-.11,0-.21.16-.06c.19-.16.26.1.4.13l.46,1.21c0,.12-.08.24-.26.21s-.15.1-.14.2c-.16.12-.21.11-.24-.07a.18.18,0,0,0-.14-.16c0,.11.08.11.07.19s-.21,0-.28.08,0,.1,0,.12-.06,0-.06-.06c-.05.2-.26-.06-.32.11-.05,0,0,.14-.09.06s-.1,0-.12.07a.31.31,0,0,1-.42,0,9.65,9.65,0,0,1-.58-1.16c0-.09.06-.08.11-.1s.34-.1.45-.26.05,0,.09,0a.63.63,0,0,0,.45-.18.08.08,0,0,1,.09,0A.43.43,0,0,0,12.4,37.08Z"/><path class="cls-33" d="M18,13l-1.5.17a.12.12,0,0,1,0-.14,1.82,1.82,0,0,0,0-.57,7,7,0,0,1,1.65-2.16c.11,0,.12,0,.12.1,0,.25.05.49.05.74a1.2,1.2,0,0,1-.07.46,1,1,0,0,0,0,.56,2.32,2.32,0,0,1,.05.53C18.26,12.9,18.23,12.93,18,13Z"/><path class="cls-34" d="M11.19,31.27c-.09,0,0,.11-.09.15s0-.22-.16-.13l0,0c-.08.05.12.2,0,.17s-.1.13-.18.1,0-.16-.12-.13-.09,0-.07.21c-.07,0-.06,0-.07-.07s-.1,0-.15,0c0,.14-.06.06-.11.05s-.17,0-.11.17-.08-.15-.11,0c-.06-.07-.09.05-.15,0s-.15.07-.24.1,0,0,0,.05,0-.11-.1-.05-.13,0-.09.09.07.09,0,.13,0-.16-.13-.14,0,.17-.07.22-.06,0-.06-.06,0-.11-.05-.09-.1,0-.13.08,0,.31-.19.13c0,0-.18.08-.24.17a5.81,5.81,0,0,1-.33-.91c.13-.05,0-.15,0-.23a1.68,1.68,0,0,1,.24.06.08.08,0,0,0,.12,0c0-.21.17-.17.25-.14s.13,0,.12-.11,0,.11.15.07,0-.11.06-.16.18.17.21-.05c0-.05.16-.1.25-.1s.17-.19.26,0c0-.08.13-.1.16-.14s.14-.09.22,0,0-.2.12-.22,0,.11.1.12c0-.24.19-.23.33-.19s.16-.06.18-.16C11,30.57,11.12,30.92,11.19,31.27Z"/><path class="cls-35" d="M4.74,21l-1.43-.26a7.54,7.54,0,0,1,.16-.93l1.11-1.08.67-.58s0,0,.07,0A12.54,12.54,0,0,0,4.74,21Z"/><path class="cls-13" d="M31,38.88c-.49.82-1,1.61-1.59,2.38-.12,0-.14-.14-.18-.2s-.32-.14-.38-.31l1.55-2.55a.07.07,0,0,1,.08,0C30.62,38.47,30.83,38.66,31,38.88Z"/><path class="cls-10" d="M28,43.1c-.37.51-.78,1-1.18,1.48-.65.8-1.34,1.57-2,2.34l-.08.06c-.13-.06-.14-.17-.12-.29L25.92,45c.53-.72,1-1.45,1.58-2.18.08,0,.07.11.12.15s-.06-.11,0-.16.11,0,.14,0A3.71,3.71,0,0,0,28,43.1Z"/><path class="cls-36" d="M34.36,15c-.38-.1-.75-.25-1.14-.32A18.21,18.21,0,0,0,31.78,13a13.52,13.52,0,0,0-2.08-1.77,1.51,1.51,0,0,1,.51.2,12.67,12.67,0,0,1,3.43,2.75A7.45,7.45,0,0,1,34.36,15Z"/><path class="cls-32" d="M18,35.41l-1.22,1.71c-.08,0-.15-.07-.25,0s-.14-.08-.22-.1A11.06,11.06,0,0,1,16,35.76c0-.1.05-.11.12-.12s.24-.07.28-.21,0,0,0,0c0-.19.19-.07.27-.12l.08,0a.51.51,0,0,0,.57-.21c.05-.15.12-.09.19,0a.14.14,0,0,1,0-.08A3.4,3.4,0,0,1,18,35.41Z"/><path class="cls-37" d="M13.19,10.84a8.88,8.88,0,0,1,1.5-.78.48.48,0,0,1,.08.43c0,.12,0,.23.1.29a17,17,0,0,0-1.72,1.88.89.89,0,0,1-.06-.6c0-.33,0-.65,0-1A.44.44,0,0,1,13.19,10.84Z"/><path class="cls-19" d="M15.2,42.38l.53,1.13s0,.05,0,.08-.21,0-.26.15a.72.72,0,0,1-.18.25.92.92,0,0,1-.35.24.22.22,0,0,0-.19.2,14.87,14.87,0,0,1-.86-1.22c0-.07,0-.16.11-.19s.33,0,.34-.23c0,0,0-.08,0-.07.18.11.22-.09.32-.12s.18-.17.32-.08.07-.08.08-.13S15.16,42.33,15.2,42.38Z"/><path class="cls-16" d="M14.73,44.43a1.52,1.52,0,0,1,0-.21s0-.09,0-.07c.15.17.24-.07.36,0s.09,0,.07-.07,0-.11.07-.12.14-.17.19-.26,0-.09.08,0,.16-.07.22-.13l.67,1.37c0,.41-.38.52-.67.67l-.08.05A13.16,13.16,0,0,1,14.73,44.43Z"/><path class="cls-38" d="M17.58,34.94v.13c-.12,0-.05-.13-.12-.14-.2.17-.47.2-.67.35,0,0-.11,0-.18,0a.2.2,0,0,0-.15.12.48.48,0,0,0-.35.06s-.05.09-.12.06c-.1-.46-.19-.93-.25-1.41a.09.09,0,0,1,.1-.13c.16,0,.18-.05.2-.17s0-.07.06-.08,0,0,0,.08v0c-.06-.18.16-.06.17-.15s.1-.19.21-.06,0,0,.07,0C16.92,34.13,17.27,34.52,17.58,34.94Z"/><path class="cls-39" d="M13.19,10.84c0,.61-.07,1.22,0,1.82l-.21.29-1.23-.85c-.05,0-.14-.06-.15-.15A11.41,11.41,0,0,1,13.19,10.84Z"/><path class="cls-23" d="M11.39,42a23.76,23.76,0,0,1-1.37-2c0-.15,0-.23.16-.25a1.57,1.57,0,0,0,.51-.19l1.25,2c0,.12-.06.17-.19.19s-.23,0-.22.17S11.44,42,11.39,42Z"/><path class="cls-40" d="M14,43.05c-.06,0,0,.13-.11.16a16.55,16.55,0,0,1-1-1.54c0-.07.14-.11.12-.21h0s.12,0,.12,0,.14-.14.23-.14.14,0,.19-.06.11,0,.17,0,.27,0,.28-.16a.05.05,0,0,1,.09,0,.24.24,0,0,0,.27,0c.11,0,.19,0,.22.11s0,.16,0,.24c-.19.5-.38,1-.53,1.51A.23.23,0,0,1,14,43.05Z"/><path class="cls-40" d="M12.16,41.91l1.54,2.22a1.11,1.11,0,0,1-.08.44c0,.06,0,.15-.13.11-.69-.81-1.35-1.64-2-2.5,0,0,0-.11,0-.09C11.8,42.2,12,42,12.16,41.91Z"/><path class="cls-41" d="M19.16,48.22c.09-.15.18-.07.27.05,0-.08-.12-.21.06-.2s0,0,0-.07.07-.16.12-.12.2,0,.29,0,.07,0,.07-.08,0-.12.06-.12.21-.23.31,0c0-.06,0-.09,0-.11s-.1-.09,0-.15.09,0,.13,0,.06.09.11,0a.27.27,0,0,1,.29-.1s0,0,.07,0c.08-.18.08-.18-.07-.25.09-.06.2-.1.28-.16s.19.08.3.1a6.36,6.36,0,0,1-.25.85c-.09,0,0,.13-.12.15s-.16-.22-.34-.19a.45.45,0,0,1,.05.36s0,.1-.11.07-.08-.13-.13-.06-.18,0-.21.16a.31.31,0,0,1-.22.2c-.23,0-.27.23-.41.39l.88,0c.09,0,.18,0,.26.05a2.66,2.66,0,0,1-.69,0,1.35,1.35,0,0,1-.67,0c-.17-.1-.16-.41-.23-.62A2,2,0,0,1,19.16,48.22Z"/><path class="cls-21" d="M31,38.88a2.6,2.6,0,0,1-.6-.68l.92-1.67a.15.15,0,0,1,.13,0c.16.22.39.39.54.62C31.68,37.78,31.34,38.33,31,38.88Z"/><path class="cls-9" d="M28,43.1c-.09-.06-.2-.08-.25-.2s-.11-.11-.13-.1,0,.11,0,.19-.13-.14-.17-.21l1.34-2a1.86,1.86,0,0,1,.41.28.83.83,0,0,1,.15.23C29,41.89,28.51,42.5,28,43.1Z"/><path class="cls-6" d="M32,37.2a2.23,2.23,0,0,1-.48-.49,1.07,1.07,0,0,0-.19-.18l.75-1.46a6,6,0,0,0,.71.71A15.11,15.11,0,0,1,32,37.2Z"/><path class="cls-26" d="M8.26,37.2c-.3-.49-.58-1-.83-1.5,0-.08,0-.13.06-.16s.15,0,.2.09,0,.09.09.08,0-.1,0-.14c.12-.23.32-.19.53-.17l.73,1.43c-.08.1-.08.1-.17,0,0,.13-.12.16-.19.23s-.15,0-.22-.06c0,.08.05.18-.06.19s-.07-.11-.08-.18C8.33,37.06,8.33,37.15,8.26,37.2Z"/><path class="cls-25" d="M5.38,31.33c0-.21.16-.24.3-.3l.61-.26c.06,0,.06,0,.1.05.17.39.32.79.46,1.2,0,0,0,.07,0,.06s-.25.17-.41.08,0,0,0,.05-.23.17-.39.07,0,.17-.13.16A10.8,10.8,0,0,1,5.38,31.33Z"/><path class="cls-42" d="M7.68,35.66c-.1-.07-.2-.2-.25,0-.23-.39-.44-.8-.63-1.21,0-.05,0-.08,0-.1a.88.88,0,0,0,.8-.34l.06,0,.65,1.37c-.09,0-.16.08-.26,0s-.16.11-.25.14S7.69,35.55,7.68,35.66Z"/><path class="cls-17" d="M15.65,45.6s-.09-.12.07-.09.56-.36.61-.55c0,0,.05-.05.07-.08.25.47.5.93.72,1.41,0,0,0,.1,0,.11-.19.09-.3.32-.55.28A11.91,11.91,0,0,1,15.65,45.6Z"/><path class="cls-38" d="M8.26,37.2l.09-.38c.11.11,0,.23.1.34.08-.1,0-.2.05-.29s.05.15.16.14.14-.08.13-.18c.15.05.08-.09.11-.13s0,.23.19.13L9.74,38s0,0,0,0a1.5,1.5,0,0,1-.79.3C8.69,38,8.47,37.59,8.26,37.2Z"/><path class="cls-32" d="M9.88,38.25l.69,1.15c0,.12,0,.09-.1.13s-.12,0-.16.1a.24.24,0,0,1-.27.11c-.09,0-.09.1-.15.11a11,11,0,0,1-.8-1.25c0-.15.13-.14.21-.19a1.61,1.61,0,0,0,.28-.17C9.66,38.15,9.78,38.22,9.88,38.25Z"/><path class="cls-36" d="M30.9,14.07c-.37,0-.72-.16-1.09-.23-.21,0-.42-.09-.63-.14a1.16,1.16,0,0,0-.09-.66s0-.12,0-.13.07-.35.26-.42A10.59,10.59,0,0,1,30.9,14.07Z"/><path class="cls-29" d="M6.85,34.41l0,.08a10.67,10.67,0,0,1-.54-1.13c.09-.06.1-.17.15-.27.12.09.19-.25.34,0,0,.05.12,0,.15-.06.16-.19.16-.19.32,0l0,0,.39.91a.33.33,0,0,1-.27.29c-.12,0-.23.13-.38.1A.11.11,0,0,0,6.85,34.41Z"/><path class="cls-34" d="M7.25,33c-.06,0-.15.06-.14-.07s0-.1-.07-.05-.12,0-.08.1.07.08,0,.12c-.06-.2-.21.29-.26,0,0,0,0,0-.07,0s-.1,0-.08.08.06.09,0,.13,0-.13-.11-.15,0,.23-.18.26a7,7,0,0,1-.42-.92c.08-.07,0-.18.08-.27l.06,0c.08,0,.06.24.19.06s.19,0,.15-.13,0-.11.12,0,0,.12.07.09A.11.11,0,0,0,6.58,32s0,0,0-.08c0,.2.13.14.23.09Z"/><path class="cls-43" d="M14,43.05a13.47,13.47,0,0,1,.59-1.76.94.94,0,0,0,0-.16,0,0,0,0,1,0,0l.55,1.25s-.07-.06-.08,0-.06.2-.22.13-.05.1-.1.13l-.05-.1,0,.14c-.05,0,0-.08-.06-.09,0,.15-.07.24-.22.18s-.09-.06-.08,0A.27.27,0,0,1,14,43.05Z"/><path class="cls-44" d="M23.92,46.4c-.41.52-.86,1-1.31,1.47-.27.29-.55.57-.82.85,0,0-.06,0-.05,0,.45-.7.84-1.43,1.25-2.14a.14.14,0,0,1,.11.11c.06-.11.11-.23.26-.23l.25-.18h0c.1,0,.16.08.27.07S23.94,46.36,23.92,46.4Z"/><path class="cls-45" d="M16.57,46.68s0-.1.09,0,.1,0,.14-.07.12-.13.17-.12.13-.07.15-.15l1,1.74.39.64s0,.06-.05.06C17.8,48.06,17.17,47.39,16.57,46.68Z"/><path class="cls-46" d="M23.92,46.4c-.06-.1-.22,0-.26-.18-.05.11.11.13.05.22s-.1-.09-.17-.11c0,.25-.42.07-.4.42L23,46.54l.84-1.63A8.21,8.21,0,0,1,24.3,46,2.27,2.27,0,0,1,23.92,46.4Z"/><path class="cls-44" d="M20.82,49.1l-1.08,0s-.1,0-.13,0,0-.09.06-.12.12-.25.26-.3.05-.06.06,0c.2.09.13-.1.16-.17s0,.07.08.1l.1-.27c.07,0,0,.08.06.1s.13-.15.2-.18,0,.14.12.16.06-.21,0-.33-.11-.08,0-.12a.16.16,0,0,1,.2,0c.09,0,.17.09.19.22,0-.06,0-.12.05-.16s0,0,.07,0C21.07,48.34,21,48.72,20.82,49.1Z"/><path class="cls-47" d="M14.87,10.78c-.16,0-.18-.13-.15-.26a1,1,0,0,0,0-.46,10.35,10.35,0,0,1,1.88-.7c.1.05.07.12,0,.2A13.94,13.94,0,0,0,14.87,10.78Z"/><path class="cls-48" d="M28.18,40.21a.19.19,0,0,1-.25-.15c0-.16-.21-.15-.28-.24-.23-.3-.58-.48-.81-.78-.06-.09-.2-.12-.3-.18a3.08,3.08,0,0,1,.21-.53c.09.07,0,.25.15.25s.15.19.28.26a1,1,0,0,1,.33.33c.07.09.21.13.31.2s0,.06.06.1a.31.31,0,0,0,.24.18s.06.06.08.09.12.11.2.06Z"/><path class="cls-49" d="M16.58,33.74s0,.09-.09,0,0-.11-.13-.13,0,.21-.05.29-.08-.09-.15-.11l0,.18h0l0-.17h0s0,.12,0,.16,0,.21-.16.08a.14.14,0,0,0-.17.1c-.11-.49-.16-1-.24-1.48l0-.16A3.44,3.44,0,0,1,16,33C16.18,33.25,16.37,33.5,16.58,33.74Z"/><path class="cls-50" d="M14,44.59l1,1.38a.36.36,0,0,1-.38.09,13.6,13.6,0,0,1-1-1.21l0-.05c0-.07,0-.15,0-.16s0,.09.07.18C13.76,44.61,13.84,44.56,14,44.59Z"/><path class="cls-51" d="M22.33,34.61l.05-.13c.13.08.19.23.38.22s.14.11.18.18a1.16,1.16,0,0,0,.48.43s.07,0,.07.07.16.13.22.22.18.13.21.26a.18.18,0,0,0,.26.13,1.14,1.14,0,0,1-.06.33c-.06,0-.07-.12-.18-.07s-.15-.08-.16-.14-.19-.21-.26-.33-.1.08-.18,0-.17-.31-.28-.44,0-.05-.07,0,.1.09.06.17-.12,0-.12-.06-.11-.19-.21-.24-.1-.25-.2-.34.08.15,0,.15-.09-.1-.09-.17S22.35,34.67,22.33,34.61Z"/><path class="cls-6" d="M25,30.69c-.11.06-.14-.05-.19-.11a3.07,3.07,0,0,1-.49-.59l0,.09c-.08,0,0-.12-.06-.19a4.63,4.63,0,0,1,.93-.5C25.16,29.83,25.09,30.26,25,30.69Z"/><path class="cls-52" d="M18,13a.3.3,0,0,0,.22-.34c0-.26-.07-.51-.08-.77s.15-.5.12-.77a2.35,2.35,0,0,1-.05-.75s0-.07-.08-.07a.79.79,0,0,1,.24-.21.43.43,0,0,1,.07.41,2.58,2.58,0,0,0,0,.48,7,7,0,0,1,0,1,7.69,7.69,0,0,0,0,1A1.23,1.23,0,0,1,18,13Z"/><path class="cls-53" d="M29.34,12.49c-.06,0-.06.07-.06.13s0,.19-.12.24,0,.16,0,.25a.68.68,0,0,1,0,.59.51.51,0,0,1-.25,0c0-.23-.21-.44-.14-.69s-.06-.38.17-.47c0,0,0-.09,0-.1-.35,0,0-.19,0-.28A2.67,2.67,0,0,1,29.34,12.49Z"/><path class="cls-54" d="M23,9.18a8.89,8.89,0,0,1,1.62.48c.05.08.08.18.17.23a.12.12,0,0,1,.06.16c-.06.13.05.11.11.12s.13-.05.17.05a.14.14,0,0,1,0,.15c-.06.08-.12,0-.19,0a12.61,12.61,0,0,0-1.39-.89L23,9.23s0,0,0,0S23,9.18,23,9.18Z"/><path class="cls-55" d="M14.65,41.13h0a.16.16,0,0,0-.23,0c-.13.12-.2,0-.29-.06,0,.08.1.19,0,.2s-.14.17-.27.07-.13,0-.21,0-.1.08-.14,0-.23-.09-.21.11c0,0,0,.08-.05.1s-.1,0-.14-.09,0-.21.13-.21v0c0-.08,0-.24.1-.22s.28,0,.23.23c0-.34.29-.33.49-.39s.12-.13.25-.09.09.11.17.06,0,0,0-.06A1.3,1.3,0,0,1,14.65,41.13Z"/><path class="cls-56" d="M14.69,46.06,15,46l.09,0,.9,1.17c0,.08-.13.08-.19.13A15.66,15.66,0,0,1,14.69,46.06Z"/><path class="cls-57" d="M24.62,46.69l.12.29c-.53.6-1.09,1.17-1.65,1.74l-.05,0Z"/><path class="cls-58" d="M26.17,41.54s-.05-.08,0-.06.18.18.28.26a1.62,1.62,0,0,1,.5.51l-.2.3a.32.32,0,0,1-.24-.17c0-.07-.14-.11-.18-.17A.82.82,0,0,1,26.17,41.54Z"/><path class="cls-59" d="M24.87,10.37s0,0,.05,0a.08.08,0,0,0,.13,0s0-.07,0-.11a.48.48,0,0,0-.12,0c-.08,0-.13,0-.19,0s-.06,0,0-.06.09,0,.08-.12-.11,0-.14-.09a.35.35,0,0,1-.06-.24,3.7,3.7,0,0,1,.72.28s0,.09,0,.1c.2.1.08.22,0,.35-.09,0,0-.15-.12-.17v.47Z"/><path class="cls-60" d="M12.4,37.08c0,.23-.2.23-.38.21s0,.08-.11.11a.84.84,0,0,1-.44.1c-.07,0-.06.12-.16.15a3.71,3.71,0,0,0-.46.19.18.18,0,0,1-.08-.14c.07-.13.15-.23.32-.16.05-.14.1-.15.15,0l.12-.16c.05-.06.07-.19.17-.05s.06-.08.09,0c.06-.27.41-.1.51-.32,0-.06.17.05.26,0Z"/><path class="cls-61" d="M15.78,47.27c0-.15.12-.1.19-.13l1.26,1.56-.05,0C16.7,48.26,16.22,47.79,15.78,47.27Z"/><path class="cls-62" d="M12.16,41.91c0,.22-.19.15-.28.23a.21.21,0,0,1-.31,0s0,0-.05,0L11.39,42s0-.09,0-.09.07,0,.06,0-.05-.17.12-.15.28,0,.33-.17A1.36,1.36,0,0,1,12.16,41.91Z"/><path class="cls-60" d="M9.88,38.25a1.49,1.49,0,0,0-.79.35.92.92,0,0,1-.16-.27L9.74,38A.66.66,0,0,1,9.88,38.25Z"/><path class="cls-63" d="M6.85,34.41c-.15-.14,0-.19.07-.18a.78.78,0,0,0,.72-.33l.07.13,0,.07c-.06,0,0,.15-.06.15C7.35,34.27,7.15,34.59,6.85,34.41Z"/><path class="cls-64" d="M9.89,39.85c0-.07,0-.23.18-.14s.36-.21.38-.33l0,.18.08-.16a.48.48,0,0,1,.12.21s-.14,0-.11.13-.06.09-.09.07-.27.13-.43.06,0,.13,0,.18A.44.44,0,0,1,9.89,39.85Z"/><path class="cls-65" d="M16.47,12.44a.67.67,0,0,1,0,.5.38.38,0,0,0,0,.21,2.33,2.33,0,0,1-.38.08A3.76,3.76,0,0,1,16.47,12.44Z"/><path class="cls-66" d="M14,44.59a.38.38,0,0,0-.33.23l0-.15h0l0,.17a.49.49,0,0,1-.15-.17c.13,0,.08-.18.11-.27s0-.2.1-.28A3,3,0,0,1,14,44.59Z"/><path class="cls-67" d="M16.27,37c.07-.07.09,0,.13,0s.05.07.1,0,.17,0,.24.06l-.34.51A2.63,2.63,0,0,1,16.27,37Z"/><path class="cls-68" d="M13.07,38.66c-.09-.06-.06-.11,0-.2s.09,0,.14,0a.43.43,0,0,0,.3-.18l.13.33c-.14-.13-.22.05-.33.07S13.14,38.69,13.07,38.66Z"/><path class="cls-69" d="M16,35.57a.35.35,0,0,1,.38-.19s.05,0,.08-.05,0,.08,0,.12c0,.2-.17.18-.29.22s-.12,0-.14.09A.41.41,0,0,1,16,35.57Z"/><path class="cls-70" d="M13,41.46c.08.21.07.24-.12.21a1.72,1.72,0,0,1-.22-.37c.08-.08.19,0,.26,0S13,41.38,13,41.46Z"/><path class="cls-71" d="M16.61,9.56c0-.06,0-.14,0-.2a4.35,4.35,0,0,1,.71-.18,0,0,0,0,1,0,0v0Z"/><path class="cls-72" d="M11.43,39a.33.33,0,0,0,.33,0s.06,0,.09,0c.11.25-.14.24-.25.33A1.29,1.29,0,0,1,11.43,39Z"/><path class="cls-73" d="M10.35,36.28l-.18.17a1,1,0,0,1-.15-.33.58.58,0,0,0,.32.07C10.39,36.18,10.37,36.25,10.35,36.28Z"/><path class="cls-74" d="M18.45,48.73l.05-.06.17.23A.35.35,0,0,1,18.45,48.73Z"/><path class="cls-75" d="M21.74,48.68l.05,0c-.05.08-.09.15-.2.17Z"/><path class="cls-76" d="M17.28,9.23V9.18a.1.1,0,0,1,.14,0A.18.18,0,0,1,17.28,9.23Z"/><path class="cls-77" d="M22.82,48.94c.06-.07.08-.14.17-.13A.22.22,0,0,1,22.82,48.94Z"/><path class="cls-78" d="M23,9.18v.05l-.14-.05C22.88,9.12,22.92,9.15,23,9.18Z"/><path class="cls-79" d="M21.62,12.18c-.06,0-.06,0-.06-.09V11s0-.11.05-.1.07,0,.07.1c0,.32,0,.64,0,1A.46.46,0,0,1,21.62,12.18Z"/><path class="cls-79" d="M21.58,12.86H20.29a3.71,3.71,0,0,1,.88,0c.34,0,.34,0,.35-.33a.34.34,0,0,1,0-.1c0-.08.1,0,.12-.08a.07.07,0,0,1,0,.12c-.09.09,0,.2,0,.28S21.6,12.81,21.58,12.86Z"/><path class="cls-79" d="M21.75,10.57s-.05.11-.12.1,0-.09,0-.13v-.43s0-.11,0-.1.08.05.06.12a1.79,1.79,0,0,0,0,.4l.05,0Z"/><path class="cls-80" d="M20.37,32.78c.15,0,.28-.06.33.13.25,0,.21.33.47.36s.18.22.29.33.35.24.47.43.11.09.11.17a.65.65,0,0,1,.05.2.23.23,0,0,1-.06.22c-.06,0-.09-.07-.15-.1a5.69,5.69,0,0,1-1-.93.33.33,0,0,0-.13-.09c-.19-.07-.25-.2-.22-.44q-.07,0-.09.09c0,.09-.08.08-.09,0s-.14-.16-.26-.14A.85.85,0,0,1,20.37,32.78Z"/><path class="cls-81" d="M20.37,36.49c-.05,0,0,.16-.08.14a.12.12,0,0,1-.07-.19c0-.06,0-.11-.1-.16s-.29-.09-.22-.3c-.09,0-.18.15-.24.08s.12-.13.11-.25-.09.07-.14.11,0,.06-.08,0,0-.08,0-.09-.15-.17-.18-.17c-.19,0-.22-.15-.33-.23s.08-.11,0-.21c-.15.23-.23.06-.33,0a.7.7,0,0,0-.19-.15c-.17,0,0-.19-.06-.29a.49.49,0,0,1,.15-.17c.07.06.16.09.17.21s.17.07.26.14l.49.43c.08.08-.08.1,0,.19.17-.12.27,0,.37.12a.69.69,0,0,0,.27.24C20.42,36.07,20.35,36.29,20.37,36.49Z"/><path class="cls-82" d="M21.79,37.62c-.09,0-.06.09,0,.15s0,.1,0,.14-.09,0-.11,0-.23-.11-.14-.28,0,0-.07,0-.21,0-.21-.17,0,0-.06,0a.05.05,0,0,1-.08,0c-.12-.27-.39-.44-.47-.74,0-.06.08-.18.1-.18a.42.42,0,0,1,.25.18c.11.2.38.25.43.5.18,0,.15.08.12.21s0,.15.16.12S21.79,37.47,21.79,37.62Z"/><path class="cls-83" d="M12.06,38.87c.06-.06,0-.11,0-.17s.1,0,.14.07.11,0,.16,0,0,0,.05,0,0-.07.08-.07,0,.18.1,0,0,.06,0,.09a1.15,1.15,0,0,1-.36.2C12.19,39,12,39.06,12.06,38.87Z"/><path class="cls-84" d="M9.77,34.78c.07-.06.2-.05.19-.2.13,0,.26-.11.39,0s-.22.35-.32.3-.12,0-.15.05a.15.15,0,0,1-.11,0C9.71,34.88,9.78,34.83,9.77,34.78Z"/><path class="cls-85" d="M9.64,33.32c0-.25.18-.28.33-.3s.09-.1.21-.08.15,0,.17.13-.11.12-.16.14-.33.14-.51.16S9.65,33.34,9.64,33.32Z"/><path class="cls-86" d="M10.44,33c0-.06.07-.18.09-.17.21,0,.32-.21.51-.18,0,0,0,0,0,0a.28.28,0,0,1-.23.23,1.37,1.37,0,0,1-.36.11C10.42,33,10.44,33,10.44,33Z"/><path class="cls-86" d="M11.1,32.69a.35.35,0,0,1,.34-.16c0,.12,0,.22-.15.2S11.12,32.91,11.1,32.69Z"/><path class="cls-87" d="M16.78,35.28a1.12,1.12,0,0,1,.51-.25h0c.17-.44.17,0,.25,0s0,.07,0,.06-.08-.08-.11-.18c0,.3-.25.34-.46.39,0,0,0,0-.07,0S16.81,35.42,16.78,35.28Z"/><path class="cls-84" d="M7.68,35.66l-.07-.21.24.12c0,.08.07.18,0,.22S7.69,35.73,7.68,35.66Z"/><path class="cls-88" d="M50,41.05a9.89,9.89,0,0,1-4,.72c-4.31,0-7.55-2.72-7.55-7.73a7.6,7.6,0,0,1,8-8A8.1,8.1,0,0,1,50,26.7l-.48,1.61a7.06,7.06,0,0,0-3.08-.64c-3.58,0-6,2.29-6,6.3,0,3.75,2.16,6.15,5.88,6.15a7.85,7.85,0,0,0,3.22-.64Z"/><path class="cls-88" d="M62,36c0,4.06-2.81,5.83-5.47,5.83-3,0-5.26-2.18-5.26-5.65,0-3.67,2.41-5.83,5.45-5.83S62,32.61,62,36Zm-8.71.11c0,2.41,1.38,4.22,3.34,4.22S60,38.51,60,36c0-1.86-.93-4.22-3.29-4.22S53.33,34,53.33,36.08Z"/><path class="cls-88" d="M64.55,34c0-1.3,0-2.41-.09-3.43h1.75l.07,2.16h.09a3.29,3.29,0,0,1,3-2.41,2.38,2.38,0,0,1,.56.07v1.88a3.37,3.37,0,0,0-.68-.06,2.79,2.79,0,0,0-2.67,2.56,5.15,5.15,0,0,0-.09.93v5.85h-2Z"/><path class="cls-88" d="M72.85,36.42a3.52,3.52,0,0,0,3.77,3.81,7.31,7.31,0,0,0,3-.56L80,41.09a8.91,8.91,0,0,1-3.66.68C73,41.77,71,39.55,71,36.24s2-5.92,5.14-5.92c3.59,0,4.54,3.16,4.54,5.17a7.9,7.9,0,0,1-.07.93ZM78.7,35c0-1.27-.52-3.25-2.76-3.25-2,0-2.91,1.86-3.07,3.25Z"/><path class="cls-88" d="M83.1,25.45h2v16.1h-2Z"/><path class="cls-88" d="M88.52,26.47a28.38,28.38,0,0,1,4.19-.32c2.84,0,4.85.66,6.19,1.91a7,7,0,0,1,2.16,5.48,8.06,8.06,0,0,1-2.2,5.94c-1.43,1.43-3.79,2.2-6.76,2.2a30.19,30.19,0,0,1-3.58-.18Zm2,13.51a12.44,12.44,0,0,0,2,.12c4.21,0,6.5-2.36,6.5-6.49,0-3.6-2-5.89-6.19-5.89a11.47,11.47,0,0,0-2.31.2Z"/><path class="cls-88" d="M103.62,26.47a20.75,20.75,0,0,1,3.78-.32c2.11,0,3.47.39,4.42,1.25A3.81,3.81,0,0,1,113,30.3a4,4,0,0,1-2.88,3.9v.07c1.18.41,1.88,1.5,2.24,3.08a24.33,24.33,0,0,0,1.18,4.2h-2a19.78,19.78,0,0,1-1-3.65c-.45-2.11-1.27-2.9-3.06-3h-1.86v6.62h-2Zm2,7h2c2.1,0,3.44-1.16,3.44-2.9,0-2-1.43-2.84-3.51-2.86a8.21,8.21,0,0,0-2,.18Z"/><path class="cls-88" d="M118.4,36.74l-1.59,4.81h-2L120,26.27h2.38l5.22,15.28h-2.11l-1.63-4.81Zm5-1.54-1.5-4.4c-.34-1-.56-1.9-.79-2.79h-.05c-.22.91-.47,1.84-.77,2.77l-1.49,4.42Z"/><path class="cls-88" d="M131.09,41.55l-3.87-15.28h2.08L131.12,34c.45,1.9.86,3.81,1.13,5.28h0c.25-1.52.73-3.33,1.25-5.31l2-7.7h2.07L139.51,34c.43,1.81.83,3.63,1.06,5.24h.05c.31-1.68.75-3.38,1.22-5.29l2-7.7h2l-4.33,15.28h-2.07l-1.92-8a44.34,44.34,0,0,1-1-5h-.05a46.3,46.3,0,0,1-1.18,5l-2.17,8Z"/></svg>