<?xml version="1.0" standalone="no"?>
<!DOCTYPE svg PUBLIC "-//W3C//DTD SVG 20010904//EN"
 "http://www.w3.org/TR/2001/REC-SVG-20010904/DTD/svg10.dtd">
<svg version="1.0" xmlns="http://www.w3.org/2000/svg"
 width="625.000000pt" height="292.000000pt" viewBox="0 0 625.000000 292.000000"
 preserveAspectRatio="xMidYMid meet">

<g transform="translate(0.000000,292.000000) scale(0.100000,-0.100000)"
fill="#000000" stroke="none">
<path d="M595 2791 c-46 -6 -66 -14 -160 -64 -38 -20 -100 -83 -125 -128 -56
-96 -62 -120 -63 -236 0 -110 1 -115 37 -188 57 -115 129 -180 244 -220 40
-14 83 -25 97 -25 51 0 23 -16 -50 -29 -63 -12 -88 -22 -144 -62 -73 -51 -146
-147 -171 -224 -17 -52 -18 -207 -1 -265 22 -79 98 -179 177 -233 96 -65 159
-76 456 -77 l227 0 1 880 0 880 -237 -1 c-131 -1 -260 -5 -288 -8z"/>
<path d="M2150 1565 l0 -545 70 0 70 0 0 260 0 260 170 0 170 0 0 70 0 70
-170 0 -170 0 0 150 0 150 223 0 222 0 0 65 0 65 -292 0 -293 0 0 -545z"/>
<path d="M2950 2071 c-15 -4 -32 -21 -43 -41 -31 -62 -1 -117 70 -127 35 -5
45 -1 72 24 50 48 39 108 -26 142 -24 12 -35 12 -73 2z"/>
<path d="M3480 1767 c-66 -21 -158 -112 -190 -187 -34 -80 -34 -221 1 -301 26
-61 121 -154 168 -166 14 -3 29 -11 33 -17 4 -6 40 -11 86 -11 60 0 83 4 95
17 10 9 27 20 40 24 12 3 34 15 50 26 l27 19 0 -52 c0 -29 -7 -79 -16 -111
-13 -46 -25 -65 -59 -93 -24 -19 -55 -39 -70 -45 -38 -15 -116 -12 -165 5 -24
8 -44 14 -45 13 -2 -2 -17 -29 -34 -61 l-31 -58 47 -20 c74 -32 176 -36 259
-11 67 20 154 73 154 94 0 5 13 23 30 39 59 60 64 94 68 512 l3 377 -70 0 -71
0 0 -30 c0 -35 -4 -36 -37 -10 -14 11 -32 20 -39 20 -8 0 -14 4 -14 10 0 27
-152 39 -220 17z m196 -152 c16 -14 34 -25 41 -25 18 0 60 -79 67 -125 9 -62
-17 -145 -56 -178 -18 -15 -45 -33 -60 -40 -16 -6 -28 -15 -28 -19 0 -5 -20
-8 -45 -8 -25 0 -45 4 -45 9 0 5 -10 11 -22 15 -42 10 -105 79 -118 126 -23
85 7 184 66 221 19 11 34 24 34 29 0 12 26 17 86 19 41 1 57 -4 80 -24z"/>
<path d="M4385 1768 c-16 -6 -43 -24 -60 -40 -38 -36 -49 -35 -41 2 l6 30 -75
0 -75 0 2 -367 3 -368 68 0 67 0 3 250 c2 268 3 270 58 335 19 22 29 25 88 25
56 0 70 -4 94 -25 55 -48 57 -58 57 -335 l0 -255 70 0 70 0 0 244 c0 135 4
256 9 269 5 13 28 42 52 65 39 39 46 42 96 42 50 0 56 -3 100 -47 l48 -47 3
-263 3 -263 69 0 70 0 0 263 c0 254 -6 320 -33 355 -41 53 -117 121 -146 131
-58 19 -201 7 -201 -17 0 -4 -15 -16 -32 -26 -18 -11 -42 -30 -54 -44 l-21
-25 -22 32 c-12 17 -28 31 -35 31 -7 0 -22 9 -34 20 -12 11 -33 25 -47 30 -34
13 -122 11 -160 -2z"/>
<path d="M5573 1769 c-18 -5 -33 -13 -33 -18 0 -5 -11 -12 -25 -15 -13 -3 -48
-27 -77 -53 -159 -140 -166 -419 -15 -576 109 -113 293 -135 433 -51 31 19 58
34 60 34 2 0 4 -16 4 -35 l0 -35 70 0 70 0 0 370 0 370 -70 0 -70 0 0 -40 c0
-42 -9 -50 -31 -24 -7 8 -26 22 -43 31 -17 9 -34 20 -37 25 -16 25 -170 36
-236 17z m189 -143 c8 -7 24 -16 36 -20 32 -10 89 -82 96 -122 4 -19 11 -34
16 -34 12 0 14 -127 3 -132 -5 -2 -22 -30 -40 -63 -25 -48 -40 -65 -77 -84
-162 -84 -336 24 -340 212 -1 90 23 147 85 193 27 21 49 41 49 45 0 21 152 25
172 5z"/>
<path d="M2910 1390 l0 -370 70 0 70 0 0 370 0 370 -70 0 -70 0 0 -370z"/>
</g>
</svg>
