<?xml version="1.0" encoding="utf-8"?>
<!-- Generator: Adobe Illustrator 25.2.3, SVG Export Plug-In . SVG Version: 6.00 Build 0)  -->
<svg version="1.1" id="Layer_1" xmlns="http://www.w3.org/2000/svg" xmlns:xlink="http://www.w3.org/1999/xlink" x="0px" y="0px"
	 viewBox="0 0 150 70" style="enable-background:new 0 0 150 70;" xml:space="preserve">
<style type="text/css">
	.st0{fill:#FEFEFE;}
	.st1{fill:#F04F23;}
	.st2{fill:#F27264;}
	.st3{fill:#FFFFFF;}
	.st4{fill:#9A82BC;}
	.st5{fill:#F47A49;}
	.st6{fill:#79C798;}
	.st7{fill:#FDDED4;}
	.st8{fill:#DAECF9;}
	.st9{fill:#8ACCA2;}
	.st10{fill:#ACD9BB;}
	.st11{fill:#D0C6E2;}
	.st12{fill:#FCCFB7;}
	.st13{fill:#FEE3D3;}
	.st14{fill:#C8BDDD;}
	.st15{fill:#B8DFC5;}
	.st16{fill:#F79B8A;}
	.st17{fill:#FDD8CD;}
	.st18{fill:#F58659;}
	.st19{fill:#DBEEE0;}
	.st20{fill:#B4DDC1;}
	.st21{fill:#AFDBBD;}
	.st22{fill:#DCEFE1;}
	.st23{fill:#FAB492;}
	.st24{fill:#FBC1A3;}
	.st25{fill:#F9AF8B;}
	.st26{fill:#FEE0CF;}
	.st27{fill:#F79B73;}
	.st28{fill:#8062AA;}
	.st29{fill:#47BA7E;}
	.st30{fill:#46B7E9;}
	.st31{fill:#A2D3F2;}
	.st32{fill:#E4B9B4;}
	.st33{fill:#E0E6E6;}
	.st34{fill:#A7D5F2;}
</style>
<g>
	<g>
		<path class="st0" d="M42.7,35c0,9.8,0,19.5,0,29.3c-9.6,0-19.3,0-28.9,0c0,0,0,0,0,0c0.1,0,0.2-0.1,0.2-0.1c2.1-0.2,3.9-1,5.5-2.4
			c1.9-1.7,3-3.7,3.3-6.2c0.1-0.4,0.1-0.8,0.1-1.2c0-3.3,0-6.6,0-9.9c0-0.2,0-0.4,0-0.6c0-2.7,0-5.4,0-8.1c0-0.1,0-0.2,0-0.3
			c0,0,0,0,0,0c0.1,0,0.1,0.1,0.1,0.1c0.1,0.7,0.2,1.5,0.5,2.2c0.4,1.3,1.1,2.4,2,3.4c0.9,1,1.9,1.7,3.1,2.3c1,0.5,2.1,0.8,3.2,0.9
			c0.4,0,0.8,0.1,1.2,0.1c1.2,0,2.4-0.3,3.6-0.8c0.9-0.4,1.7-0.9,2.5-1.5c0.9-0.8,1.7-1.7,2.3-2.7c0.6-1,1-2.1,1.2-3.3
			c0.1-0.4,0.1-0.7,0.1-1.1C42.6,35.2,42.6,35.1,42.7,35C42.7,35,42.7,35,42.7,35z"/>
		<path class="st1" d="M12.8,5c3.4,0,6.8,0,10.1,0c0,0,0,0.1,0.1,0.2c0,0.1,0,0.1,0,0.2c0,6.4,0,12.7,0,19.1c0,0.1,0,0.2,0,0.4
			c-0.1,0.1-0.1,0.1-0.2,0.1c-3.4,0-6.7,0-10.1,0c-0.1,0-0.2-0.1-0.4,0c-0.8-0.1-1.7-0.2-2.5-0.5C8.9,24,8,23.5,7.2,22.9
			c-1.1-0.8-2-1.8-2.7-3c-0.7-1.1-1.1-2.4-1.3-3.7c0-0.1,0-0.3,0-0.4c0-0.1,0-0.1,0-0.2c0-0.4,0-0.8,0-1.3c0-0.1,0-0.1,0-0.2
			c0-0.7,0.2-1.3,0.4-2c0.3-0.9,0.7-1.8,1.2-2.6C5,9,5.4,8.6,5.8,8.2c0.7-0.7,1.4-1.3,2.3-1.8c1.2-0.7,2.4-1.1,3.8-1.3
			c0.1,0,0.3,0,0.4,0c0,0,0.1,0,0.1,0c0.1,0,0.1,0,0.2,0C12.6,5,12.7,5.1,12.8,5z"/>
		<path class="st2" d="M22.9,24.8c0-0.1,0-0.2,0-0.2c0-6.4,0-12.9,0-19.3c0-0.1,0-0.2,0-0.2c3.4,0,6.8,0,10.1,0c0.1,0,0.2,0,0.2,0
			c0.1,0,0.1,0,0.2,0c0.7,0,1.5,0.2,2.2,0.4c1.3,0.4,2.5,1,3.5,1.9c0.9,0.8,1.6,1.7,2.2,2.7c0.7,1.2,1.1,2.4,1.2,3.7
			c0,0.3,0,0.6,0,0.9c0,0.2,0,0.4,0,0.7c0,1.7-0.5,3.3-1.4,4.8c-0.9,1.5-2.2,2.7-3.7,3.6c-1.2,0.7-2.5,1-3.8,1.2c-0.2,0-0.3,0-0.5,0
			c-0.3,0-0.7,0-1,0c-0.6,0-1.2,0-1.9,0c-2.4,0-4.8,0-7.2,0C23.2,24.8,23.1,24.9,22.9,24.8C22.9,24.8,22.9,24.8,22.9,24.8z"/>
		<path class="st3" d="M3.2,15.8c0.1,0.9,0.3,1.7,0.6,2.5c1.1,3,3.7,5.4,6.8,6.2c0.5,0.1,1.1,0.2,1.7,0.3c0,0,0.1,0,0.2,0.1
			c-0.1,0.1-0.3,0.1-0.4,0.1c-1,0.1-2,0.4-2.9,0.8c-0.9,0.4-1.7,0.9-2.5,1.6C5.7,28,5,28.8,4.5,29.8c-0.6,1.1-1,2.3-1.2,3.6
			c0,0.1,0,0.3-0.1,0.4c0,0.1,0,0.1,0,0.2c0,0,0,0,0,0c0,0,0,0,0,0c0-6.1,0-12.3,0-18.4C3.2,15.7,3.1,15.8,3.2,15.8z"/>
		<path class="st3" d="M3.1,53.9c0-6.2,0-12.3,0-18.5c0.1,0,0.1,0.1,0.1,0.2c0.1,0.7,0.2,1.4,0.4,2c0.4,1.3,1,2.4,1.8,3.4
			C6.2,41.8,7,42.6,8,43.2c1.1,0.7,2.4,1.1,3.7,1.3c0.2,0,0.4,0,0.5,0.1c0,0.1-0.1,0.1-0.1,0.1c-0.2,0.1-0.5,0.1-0.7,0.1
			C9.8,45,8.3,45.7,7,46.7c-1.3,1-2.3,2.2-3,3.7c-0.4,0.9-0.7,1.9-0.8,2.9c0,0.1,0,0.2,0,0.4C3.2,53.7,3.2,53.8,3.1,53.9z"/>
		<path class="st3" d="M33.3,24.8c0.3,0,0.6-0.1,0.9-0.1c0.9-0.1,1.8-0.4,2.6-0.7c2.3-1,3.9-2.7,5-4.9c0.4-0.9,0.7-1.9,0.8-2.8
			c0-0.3,0.1-0.6,0.1-0.9c0,0,0,0,0,0c0,6.3,0,12.7,0,19c0,0,0,0,0,0c-0.1-0.2,0-0.4-0.1-0.6c-0.2-1.6-0.7-3-1.5-4.3
			c-0.5-0.7-1-1.4-1.6-1.9c-0.9-0.9-2-1.5-3.1-1.9c-0.8-0.3-1.7-0.5-2.6-0.6c-0.1,0-0.2,0-0.2,0C33.4,24.9,33.3,24.9,33.3,24.8z"/>
		<path class="st3" d="M12.3,64.3c-3.1,0-6.1,0-9.2,0c0-3.1,0-6.2,0-9.3c0,0,0,0,0,0c0,0,0,0,0,0c0,0.1,0,0.1,0,0.2
			c0.1,1,0.3,2,0.7,2.9c0.5,1.1,1.1,2.1,1.9,3c0.7,0.7,1.4,1.3,2.3,1.8c1.1,0.6,2.3,1.1,3.6,1.2C11.9,64.2,12.1,64.2,12.3,64.3
			C12.3,64.3,12.3,64.3,12.3,64.3z"/>
		<path class="st3" d="M12.3,5.1c-0.5,0.1-1,0.1-1.5,0.2C8.1,6,6,7.5,4.6,9.8c-0.7,1.1-1.1,2.3-1.3,3.6c0,0.2-0.1,0.4-0.1,0.6
			c0,0.1,0,0.2-0.1,0.2c0-3.1,0-6.1,0-9.2C6.2,5,9.2,5,12.3,5.1C12.3,5,12.3,5,12.3,5.1C12.3,5,12.3,5.1,12.3,5.1z"/>
		<path class="st3" d="M42.7,14.5c0-1.5-0.4-2.9-1.1-4.3c-1.4-2.6-3.6-4.3-6.5-5c-0.5-0.1-1-0.2-1.5-0.2c0,0,0,0,0,0c0,0,0,0,0,0
			c3.1,0,6.1,0,9.2,0C42.7,8.2,42.7,11.4,42.7,14.5C42.7,14.6,42.7,14.6,42.7,14.5z"/>
		<path class="st4" d="M3.1,35.1c0-0.3,0-0.5,0-0.8c0-0.1,0-0.2,0-0.3l0,0c0,0,0,0,0.1,0c0,0.1,0,0.2,0,0.3c0,0.2,0,0.5,0,0.7
			c0,0.1,0,0.2,0,0.3c0,0-0.1,0-0.1,0C3.1,35.2,3.2,35.1,3.1,35.1z"/>
		<path class="st5" d="M3.2,14.3c0,0.1,0,0.3,0,0.4c0,0.1,0,0.3,0,0.5c0,0.1,0,0.3,0,0.4c-0.1,0,0,0,0-0.1c0-0.1,0-0.1,0-0.2
			c0,0,0-0.1,0-0.1c0-0.2,0-0.4,0-0.6c0-0.1,0-0.1,0-0.2C3.2,14.4,3.1,14.3,3.2,14.3z"/>
		<path class="st6" d="M3.1,54.8c0-0.2,0-0.4,0-0.7c0-0.1,0-0.1,0-0.2c0,0,0-0.1,0.1,0c0,0.1,0,0.1,0,0.2c0,0.2,0,0.4,0,0.7
			c0,0.1,0,0.2,0,0.2c0,0,0,0-0.1,0l0,0C3.1,55,3.2,54.9,3.1,54.8z"/>
		<path class="st7" d="M42.7,14.5C42.7,14.5,42.7,14.5,42.7,14.5c0,0.2,0,0.5,0,0.7l0,0c0,0,0,0,0,0C42.7,15,42.7,14.8,42.7,14.5z"
			/>
		<path class="st8" d="M42.7,34.3C42.7,34.3,42.7,34.3,42.7,34.3c0,0.2,0,0.5,0,0.7c0,0,0,0,0,0c-0.1-0.2,0-0.3-0.1-0.5
			C42.6,34.5,42.6,34.4,42.7,34.3z"/>
		<path class="st9" d="M13.4,64.3c-0.2,0-0.4,0-0.7,0c0,0,0,0,0-0.1C12.9,64.2,13.1,64.2,13.4,64.3C13.4,64.3,13.4,64.3,13.4,64.3z"
			/>
		<path class="st10" d="M3.2,53.9c-0.1,0.1,0,0.2-0.1,0.2C3.1,54,3.1,54,3.2,53.9c0-0.1-0.1-0.2,0-0.2C3.3,53.7,3.3,53.8,3.2,53.9z"
			/>
		<path class="st11" d="M3.1,35.1c0.1,0.1,0,0.2,0.1,0.2c0.1,0.1,0.1,0.1,0,0.2c-0.1,0,0-0.1-0.1-0.2C3.1,35.3,3.1,35.2,3.1,35.1z"
			/>
		<path class="st12" d="M3.2,14.3c0,0,0,0.1,0,0.1c0,0,0,0,0,0C3.1,14.4,3.1,14.3,3.2,14.3c0-0.1-0.1-0.2,0-0.2
			C3.2,14.1,3.2,14.2,3.2,14.3z"/>
		<path class="st13" d="M3.2,15.5C3.2,15.5,3.2,15.6,3.2,15.5c0,0.1,0,0.2,0,0.3c-0.1,0,0-0.1-0.1-0.2C3.1,15.6,3.1,15.5,3.2,15.5
			C3.1,15.5,3.1,15.5,3.2,15.5z"/>
		<path class="st14" d="M3.2,34.1c0,0.1,0,0.2,0,0.3C3.1,34.2,3.1,34.1,3.2,34.1C3.1,34.1,3.2,34.1,3.2,34.1z"/>
		<path class="st15" d="M3.1,54.8c0.1,0.1,0,0.2,0,0.3c0,0,0,0,0,0C3.1,55,3.1,54.9,3.1,54.8z"/>
		<path class="st16" d="M33.3,5.1c-0.1,0-0.2,0-0.2,0C33.1,5,33.2,5,33.3,5.1C33.3,5,33.3,5,33.3,5.1C33.3,5,33.3,5.1,33.3,5.1z"/>
		<path class="st17" d="M33.3,5.1C33.3,5,33.3,5,33.3,5.1c0.1,0,0.1,0,0.2,0c0,0,0,0,0,0C33.5,5.1,33.4,5.1,33.3,5.1z"/>
		<path class="st18" d="M12.8,5c-0.1,0.1-0.1,0-0.2,0c0,0,0,0,0,0c0,0,0,0,0,0C12.6,5,12.7,5,12.8,5z"/>
		<path class="st19" d="M12.3,64.3C12.3,64.3,12.3,64.3,12.3,64.3c0.1-0.1,0.1-0.1,0.2,0c0,0,0,0,0,0C12.4,64.3,12.4,64.3,12.3,64.3
			z"/>
		<path class="st20" d="M12.5,64.3C12.5,64.3,12.5,64.3,12.5,64.3c0.1-0.1,0.1-0.1,0.2,0c0,0,0,0,0,0C12.6,64.3,12.6,64.3,12.5,64.3
			z"/>
		<path class="st21" d="M13.4,64.3C13.4,64.3,13.4,64.3,13.4,64.3c0.1-0.1,0.1-0.1,0.2,0c0,0,0,0,0,0C13.5,64.3,13.4,64.3,13.4,64.3
			z"/>
		<path class="st22" d="M13.6,64.3C13.6,64.3,13.6,64.3,13.6,64.3c0.1-0.1,0.1-0.1,0.2,0c0,0,0,0,0,0C13.7,64.3,13.6,64.3,13.6,64.3
			z"/>
		<path class="st23" d="M12.6,5C12.6,5,12.6,5,12.6,5c-0.1,0-0.1,0-0.2,0c0,0,0,0,0,0c0,0,0,0,0,0C12.5,5,12.5,5,12.6,5z"/>
		<path class="st24" d="M3.2,15.5C3.1,15.5,3.1,15.5,3.2,15.5c0-0.1,0-0.1,0-0.2c0,0,0,0,0,0C3.2,15.4,3.2,15.4,3.2,15.5z"/>
		<path class="st25" d="M3.1,14.4C3.1,14.4,3.1,14.4,3.1,14.4c0,0.1,0,0.1,0,0.2C3.1,14.5,3.1,14.5,3.1,14.4z"/>
		<path class="st26" d="M12.4,5C12.4,5,12.4,5,12.4,5c0,0-0.1,0-0.1,0c0,0,0,0,0,0C12.3,5,12.4,5,12.4,5z"/>
		<path class="st27" d="M3.2,15.3C3.1,15.3,3.1,15.3,3.2,15.3c0,0,0-0.1,0-0.1C3.2,15.2,3.2,15.3,3.2,15.3z"/>
		<path class="st28" d="M3.2,35.5c0-0.1,0-0.1,0-0.2c0-0.2,0-0.3,0-0.5c0-0.2,0.1-0.5,0-0.7c0-0.1,0-0.1,0-0.2
			c0.2-2.1,0.9-3.9,2.3-5.5c1.4-1.6,3.1-2.7,5.1-3.2c0.6-0.2,1.2-0.2,1.8-0.3c0.1,0,0.1,0,0.2,0c3.4,0,6.7,0,10.1,0
			c0.1,0,0.1,0,0.2,0c0,0,0,0,0,0C23,24.9,23,25,23,25.1c0,1.8,0,3.6,0,5.3c0,1.1,0,2.3,0,3.4c0,0.1,0,0.2,0,0.3c0,0.4,0,0.7,0,1.1
			c0,0.1,0,0.2,0,0.3c0,0.1,0,0.2,0,0.3c0,2.9,0,5.7,0,8.6c0,0.1,0,0.1,0,0.2c-0.1,0.1-0.2,0.1-0.3,0.1c-2.1,0-4.2,0-6.2,0
			c-1.2,0-2.3,0-3.5,0c-0.1,0-0.2,0-0.3,0c-0.1-0.1-0.2,0-0.3-0.1c-0.9-0.1-1.7-0.3-2.6-0.6c-1.2-0.4-2.3-1.1-3.3-1.9
			c-1.3-1.2-2.2-2.6-2.8-4.3c-0.2-0.6-0.3-1.3-0.4-1.9C3.2,35.7,3.2,35.6,3.2,35.5z"/>
		<path class="st29" d="M12.6,44.6c3.4,0,6.9,0,10.3,0c0,0.1,0,0.1,0,0.2c0,3.2,0,6.4,0,9.6c0,2.3-0.7,4.4-2.1,6.2
			c-1.5,1.9-3.5,3.1-5.9,3.6c-0.4,0.1-0.8,0.1-1.2,0.2c-0.1,0-0.1,0-0.2,0c-0.1,0-0.1,0-0.2,0c-0.2,0-0.4,0-0.7,0
			c-0.1,0-0.1,0-0.2,0c-0.1,0-0.1,0-0.2,0c-1.1-0.1-2.2-0.3-3.3-0.8c-2.9-1.4-4.8-3.6-5.6-6.7c-0.1-0.5-0.2-1-0.2-1.5
			c0-0.1,0-0.1,0-0.2c0-0.2,0-0.4,0-0.7c0-0.2,0.1-0.3,0-0.5c0-0.1,0-0.2,0-0.2c0.1-1.8,0.7-3.4,1.7-4.8c1.5-2.2,3.5-3.5,6.1-4.1
			c0.4-0.1,0.8-0.1,1.2-0.2C12.3,44.6,12.4,44.5,12.6,44.6z"/>
		<path class="st30" d="M22.9,35.2c0-0.4,0-0.7,0-1.1c0-0.1,0-0.2,0-0.3c0-0.7,0.2-1.5,0.4-2.2c0.4-1.3,1.1-2.5,1.9-3.5
			c0.7-0.9,1.6-1.6,2.6-2.2c1.1-0.6,2.2-1,3.4-1.2c0.3-0.1,0.7,0,1-0.1c0.3,0,0.7,0,1,0c0,0,0.1,0,0.1,0c0.7,0,1.4,0.2,2.1,0.4
			c1.3,0.4,2.5,1,3.6,1.9c0.9,0.8,1.7,1.7,2.3,2.7c0.5,0.8,0.8,1.7,1,2.5c0.1,0.4,0.2,0.9,0.2,1.4c0,0.2,0,0.4,0,0.6
			c0,0.2,0,0.5,0,0.7c0,1-0.2,2-0.6,3c-0.4,1.1-0.9,2.1-1.7,2.9c-1,1.2-2.2,2.1-3.6,2.7c-0.8,0.4-1.6,0.6-2.5,0.7
			c-0.6,0.1-1.1,0.1-1.7,0.1c-1.2,0-2.4-0.3-3.6-0.7c-1-0.4-1.9-1-2.8-1.7c-1.1-1-2-2.2-2.6-3.5c-0.4-0.8-0.6-1.7-0.7-2.5
			c0-0.2-0.1-0.4-0.1-0.6C22.9,35.4,23,35.3,22.9,35.2z"/>
		<path class="st31" d="M22.9,35.2c0.1,0.1,0,0.2,0,0.3c0,0,0,0,0,0C22.9,35.4,22.9,35.3,22.9,35.2z"/>
		<path class="st32" d="M12.6,24.8c-0.1,0-0.1,0-0.2,0c0,0-0.1,0-0.2-0.1C12.3,24.8,12.5,24.8,12.6,24.8z"/>
		<path class="st3" d="M32.3,24.8c-0.2,0-0.3,0-0.5,0c-1,0.1-1.9,0.4-2.8,0.7c-0.9,0.4-1.6,0.8-2.4,1.4c-0.9,0.8-1.7,1.7-2.3,2.7
			c-0.5,0.8-0.8,1.7-1,2.7c-0.1,0.5-0.2,0.9-0.2,1.4c0,0,0,0,0,0c0-0.1,0-0.2,0-0.3c0-2.9,0-5.7,0-8.6c0-0.1,0-0.1,0-0.2
			c0.1,0,0.1,0,0.2,0c3,0,6,0,9,0C32.2,24.8,32.2,24.8,32.3,24.8z"/>
		<path class="st14" d="M3.2,33.9c0,0.1,0,0.1,0,0.2c0,0,0,0,0,0C3.2,34,3.1,33.9,3.2,33.9z"/>
		<path class="st33" d="M12.6,44.6c-0.1,0-0.3,0-0.4,0c0,0,0.1,0,0.1-0.1C12.4,44.5,12.5,44.5,12.6,44.6z"/>
		<path class="st15" d="M3.2,55.1c0,0.1,0,0.1,0,0.2C3.1,55.2,3.2,55.1,3.2,55.1C3.2,55,3.2,55,3.2,55.1z"/>
		<path class="st34" d="M22.9,33.9C22.9,33.9,22.9,33.9,22.9,33.9c0,0.1,0.1,0.2,0,0.3C22.9,34,22.9,33.9,22.9,33.9z"/>
	</g>
</g>
<g>
	<path d="M47.3,20.1h14.6v3.1H50.8v9.5h10.2v3H50.8v12.9h-3.5V20.1z"/>
	<path d="M69.6,22.4c0,1.3-0.8,2.3-2.2,2.3c-1.2,0-2.1-1-2.1-2.3c0-1.3,0.9-2.3,2.2-2.3C68.8,20.1,69.6,21.1,69.6,22.4z M65.7,48.6
		V28.2h3.5v20.4H65.7z"/>
	<path d="M91.8,28.2c-0.1,1.5-0.2,3.1-0.2,5.6v11.9c0,4.7-0.9,7.6-2.8,9.3c-1.9,1.9-4.6,2.4-7.1,2.4c-2.3,0-4.9-0.6-6.5-1.7l0.9-2.8
		c1.3,0.8,3.3,1.6,5.7,1.6c3.6,0,6.3-2,6.3-7.1v-2.3h-0.1C87,47,85,48.5,81.9,48.5c-4.8,0-8.3-4.3-8.3-10c0-6.9,4.3-10.9,8.7-10.9
		c3.4,0,5.2,1.9,6.1,3.5h0.1l0.2-3.1H91.8z M88.2,36.2c0-0.6,0-1.2-0.2-1.7c-0.6-2.2-2.4-3.9-4.9-3.9c-3.4,0-5.8,3-5.8,7.7
		c0,4,1.9,7.3,5.7,7.3c2.2,0,4.1-1.4,4.9-3.8c0.2-0.6,0.3-1.4,0.3-2V36.2z"/>
	<path d="M97.3,33.7c0-2.1,0-3.8-0.2-5.5h3.1l0.2,3.3h0.1c1.1-1.9,2.9-3.8,6.1-3.8c2.6,0,4.7,1.7,5.5,4.1h0.1c0.6-1.1,1.4-2,2.2-2.7
		c1.2-0.9,2.4-1.4,4.3-1.4c2.6,0,6.4,1.8,6.4,8.9v12h-3.4V37c0-3.9-1.4-6.3-4.2-6.3c-2,0-3.6,1.6-4.2,3.4c-0.2,0.5-0.3,1.2-0.3,1.9
		v12.6h-3.4V36.4c0-3.3-1.4-5.6-4-5.6c-2.2,0-3.8,1.9-4.4,3.7c-0.2,0.5-0.3,1.2-0.3,1.8v12.3h-3.4V33.7z"/>
	<path d="M141.5,48.6l-0.3-2.6h-0.1c-1.1,1.6-3.2,3-5.9,3c-3.9,0-5.9-2.9-5.9-5.9c0-4.9,4.2-7.6,11.7-7.6v-0.4
		c0-1.7-0.4-4.7-4.4-4.7c-1.8,0-3.7,0.6-5.1,1.5l-0.8-2.4c1.6-1.1,3.9-1.8,6.4-1.8c5.9,0,7.4,4.3,7.4,8.4v7.6c0,1.8,0.1,3.5,0.3,4.9
		H141.5z M140.9,38.2c-3.8-0.1-8.2,0.6-8.2,4.6c0,2.4,1.5,3.5,3.3,3.5c2.5,0,4.1-1.7,4.7-3.4c0.1-0.4,0.2-0.8,0.2-1.2V38.2z"/>
</g>
</svg>
