<svg id="Layer_1" data-name="Layer 1" xmlns="http://www.w3.org/2000/svg" viewBox="0 0 150 70"><defs><style>.cls-1{fill:#f47c20;}.cls-2{fill:#27180d;}.cls-3{fill:none;stroke:#231f20;stroke-miterlimit:10;stroke-width:0.62px;}.cls-4{fill:#231f20;}</style></defs><path class="cls-1" d="M28.52,56.81h-22c-.49,0-.42,0-.42-.42V13.54c0-.47-.07-.41.42-.41h44c.48,0,.43-.05.43.41V56.39c0,.47.05.42-.43.42Z"/><path class="cls-2" d="M28.5,15H48.62c.5,0,.44-.06.44.44V54.52c0,.49,0,.43-.44.43H8.41C7.94,55,8,55,8,54.51V15.43c0-.5,0-.44.44-.44Z"/><path class="cls-1" d="M24.61,23.09h1.74c.36,0,.36,0,.46.36l2.37,8,3.45,11.7c.13.45.13.46-.34.46H29.6c-.38,0-.38,0-.48-.38q-.71-2.52-1.39-5c0-.07-.05-.14-.07-.22a.16.16,0,0,0-.19-.13H22c-.33,0-.34,0-.42.31l-1.35,5.12c-.1.35-.1.35-.44.35H17.14c-.13,0-.17-.08-.16-.2s0-.19.07-.29l3.12-10.94L22.24,25a4.92,4.92,0,0,0,.21-1.32v-.16c0-.4,0-.4.42-.4Z"/><path class="cls-1" d="M35.5,36.05V28.81c0-.31,0-.33.34-.33h2.68c.3,0,.34.05.35.35V43.11c0,.63,0,.53-.54.53H35.94c-.42,0-.44,0-.44-.45Z"/><path class="cls-1" d="M37.16,22.57a1.83,1.83,0,0,1,1.89,2.17,1.8,1.8,0,0,1-2,1.62,2,2,0,0,1-.7-.16,1.59,1.59,0,0,1-.91-1A2.35,2.35,0,0,1,35.32,24,1.76,1.76,0,0,1,37.16,22.57Z"/><path class="cls-2" d="M24.62,26.12c.69,2.91,1.5,5.78,2.23,8.7H22.44C23.2,31.92,24,29.05,24.62,26.12Z"/><line class="cls-3" x1="55.21" y1="13.13" x2="55.21" y2="56.81"/><path class="cls-4" d="M63.86,25.25l-1.47,4.46h-1.9l4.83-14.2h2.21l4.84,14.2h-2L68.9,25.25Zm4.66-1.44-1.39-4.08c-.32-.93-.53-1.77-.74-2.6h0c-.21.85-.44,1.71-.72,2.57l-1.39,4.11Z"/><path class="cls-4" d="M83,14.75V27.08C83,28,83,29,83,29.71H81.37l-.08-1.77h-.05a3.77,3.77,0,0,1-3.47,2c-2.47,0-4.37-2.09-4.37-5.19,0-3.39,2.09-5.48,4.58-5.48a3.4,3.4,0,0,1,3.07,1.56h0V14.75ZM81.1,23.67a3.39,3.39,0,0,0-.09-.78,2.72,2.72,0,0,0-2.68-2.15c-1.91,0-3,1.68-3,3.94,0,2.06,1,3.77,3,3.77A2.78,2.78,0,0,0,81,26.24a3.44,3.44,0,0,0,.09-.8Z"/><path class="cls-4" d="M95.25,24.53c0,3.77-2.61,5.42-5.08,5.42-2.76,0-4.88-2-4.88-5.25,0-3.41,2.23-5.42,5-5.42S95.25,21.41,95.25,24.53Zm-8.09.11c0,2.23,1.29,3.91,3.1,3.91s3.1-1.66,3.1-4c0-1.72-.87-3.92-3.06-3.92S87.16,22.7,87.16,24.64Z"/><path class="cls-4" d="M97.51,29.71c0-.69.08-1.72.08-2.63V14.75h1.83v6.41h0a3.79,3.79,0,0,1,3.47-1.88c2.53,0,4.32,2.11,4.3,5.21,0,3.64-2.3,5.46-4.57,5.46A3.64,3.64,0,0,1,99.25,28h-.06l-.08,1.68Zm1.91-4.08a3.61,3.61,0,0,0,.09.67,2.85,2.85,0,0,0,2.78,2.17c1.94,0,3.1-1.58,3.1-3.92,0-2-1.06-3.79-3-3.79A3,3,0,0,0,99.53,23a3.84,3.84,0,0,0-.11.76Z"/><path class="cls-4" d="M110.61,25a3.26,3.26,0,0,0,3.5,3.54,6.58,6.58,0,0,0,2.82-.53l.32,1.33a8.21,8.21,0,0,1-3.39.63c-3.15,0-5-2.06-5-5.14s1.81-5.5,4.78-5.5c3.33,0,4.22,2.93,4.22,4.81a5.34,5.34,0,0,1-.07.86Zm5.44-1.33c0-1.18-.49-3-2.57-3-1.88,0-2.7,1.73-2.85,3Z"/><path class="cls-4" d="M63.4,40.79V55H61.56V40.79Z"/><path class="cls-4" d="M66.75,40H68.6V55H66.75Z"/><path class="cls-4" d="M71.72,40h1.85V55H71.72Z"/><path class="cls-4" d="M85.22,52.21c0,1.06,0,2,.09,2.79H83.67l-.11-1.67h0a3.85,3.85,0,0,1-3.37,1.9c-1.61,0-3.52-.89-3.52-4.47v-6h1.85v5.64c0,1.94.59,3.25,2.28,3.25A2.69,2.69,0,0,0,83.2,52a2.59,2.59,0,0,0,.17-1V44.8h1.85Z"/><path class="cls-4" d="M88.05,53.1a4.79,4.79,0,0,0,2.44.74c1.35,0,2-.68,2-1.52s-.53-1.37-1.89-1.88c-1.84-.65-2.7-1.66-2.7-2.88,0-1.65,1.33-3,3.52-3a5,5,0,0,1,2.5.64l-.46,1.34A4,4,0,0,0,91.35,46c-1.09,0-1.7.63-1.7,1.39s.61,1.22,1.94,1.72c1.77.68,2.67,1.56,2.67,3.08,0,1.79-1.39,3.06-3.81,3.06a5.85,5.85,0,0,1-2.87-.7Z"/><path class="cls-4" d="M98.88,41.87V44.8h2.65v1.41H98.88v5.5c0,1.26.35,2,1.39,2a4.21,4.21,0,0,0,1.07-.13l.08,1.39a4.39,4.39,0,0,1-1.64.26,2.59,2.59,0,0,1-2-.78,3.78,3.78,0,0,1-.72-2.66V46.21H95.48V44.8h1.58V42.35Z"/><path class="cls-4" d="M103.62,48c0-1.2,0-2.24-.09-3.18h1.62l.07,2h.08a3.06,3.06,0,0,1,2.82-2.24,1.7,1.7,0,0,1,.53.07v1.75a2.38,2.38,0,0,0-.63-.07,2.61,2.61,0,0,0-2.49,2.38,5.61,5.61,0,0,0-.08.87V55h-1.83Z"/><path class="cls-4" d="M116.05,55l-.15-1.29h-.07a3.78,3.78,0,0,1-3.11,1.52,2.91,2.91,0,0,1-3.12-2.93c0-2.47,2.19-3.82,6.13-3.8v-.21a2.1,2.1,0,0,0-2.32-2.36,5.08,5.08,0,0,0-2.65.76l-.43-1.22a6.35,6.35,0,0,1,3.36-.91c3.11,0,3.87,2.13,3.87,4.18v3.81a15.11,15.11,0,0,0,.17,2.45Zm-.28-5.21c-2,0-4.32.32-4.32,2.3a1.64,1.64,0,0,0,1.75,1.77,2.55,2.55,0,0,0,2.47-1.71,2,2,0,0,0,.1-.59Z"/><path class="cls-4" d="M122.7,41.87V44.8h2.66v1.41H122.7v5.5c0,1.26.36,2,1.39,2a4.24,4.24,0,0,0,1.08-.13l.08,1.39a4.39,4.39,0,0,1-1.64.26,2.59,2.59,0,0,1-2-.78,3.78,3.78,0,0,1-.72-2.66V46.21h-1.58V44.8h1.58V42.35Z"/><path class="cls-4" d="M136.55,49.81c0,3.77-2.62,5.42-5.08,5.42-2.76,0-4.89-2-4.89-5.25,0-3.41,2.23-5.42,5.06-5.42S136.55,46.69,136.55,49.81Zm-8.1.11c0,2.23,1.29,3.92,3.1,3.92s3.1-1.67,3.1-4c0-1.73-.86-3.92-3.06-3.92S128.45,48,128.45,49.92Z"/><path class="cls-4" d="M138.88,48c0-1.2,0-2.24-.08-3.18h1.62l.06,2h.09a3.06,3.06,0,0,1,2.82-2.24,1.74,1.74,0,0,1,.53.07v1.75a2.38,2.38,0,0,0-.63-.07,2.6,2.6,0,0,0-2.49,2.38,5.61,5.61,0,0,0-.08.87V55h-1.84Z"/></svg>