<?xml version="1.0" encoding="utf-8"?>
<!-- Generator: Adobe Illustrator 25.2.3, SVG Export Plug-In . SVG Version: 6.00 Build 0)  -->
<svg version="1.1" id="Layer_1" xmlns="http://www.w3.org/2000/svg" xmlns:xlink="http://www.w3.org/1999/xlink" x="0px" y="0px"
	 viewBox="0 0 150 70" style="enable-background:new 0 0 150 70;" xml:space="preserve">
<style type="text/css">
	.st0{fill:#EE4592;}
	.st1{fill:#FFFFFF;}
	.st2{fill:#140A0B;}
	.st3{fill:#1E0D0D;}
	.st4{fill:#2B1019;}
	.st5{fill:#ED4592;}
	.st6{fill:#240D14;}
	.st7{fill:#1A0C0C;}
	.st8{fill:#1B0C0D;}
	.st9{fill:#EE4897;}
	.st10{fill:#230D12;}
	.st11{fill:#16090B;}
	.st12{fill:#230D13;}
	.st13{fill:#1A0C0D;}
	.st14{fill:#160A0B;}
	.st15{fill:#160B0B;}
	.st16{fill:#190B0C;}
	.st17{fill:none;stroke:#000000;stroke-width:0.5;stroke-miterlimit:10;}
</style>
<g>
	<path class="st0" d="M34.2,48.9c-9.9,0-19.9,0-29.8,0c-0.5,0-0.6-0.1-0.6-0.6c0-9.9,0-19.9,0-29.8c0.2-0.1,0.4-0.1,0.7-0.1
		c9.7,0,19.4,0,29,0c0.8,0,0.8,0,0.8,0.8c0,9.7,0,19.4,0,29C34.3,48.4,34.3,48.6,34.2,48.9z"/>
	<path class="st1" d="M34.2,48.9c0-9.9,0-19.8,0-29.6c0-0.6-0.2-0.8-0.8-0.8c-9.9,0-19.8,0-29.6,0c0-0.2,0.1-0.1,0.2-0.1
		c10,0,20,0,30,0c0.3,0,0.3,0.1,0.3,0.3c0,10,0,20,0,30C34.3,48.7,34.4,48.9,34.2,48.9z"/>
	<path class="st2" d="M32.7,19.8c0.3,0.1,0.1,0.4,0.1,0.6c0,8.8,0,17.6,0,26.5c0,0.5-0.1,0.6-0.6,0.6c-8.8,0-17.6,0-26.5,0
		c-0.2,0-0.4,0.2-0.6-0.1c0.1-0.1,0.1-0.1,0.2-0.2c0.4-0.2,0.8-0.1,1.3-0.1c8.1,0,16.3,0,24.4,0c1.3,0,1.3,0,1.3-1.3
		c0-8.2,0-16.3,0-24.5c0-0.4-0.1-0.8,0.1-1.2C32.6,20,32.7,19.9,32.7,19.8z"/>
	<path class="st3" d="M32.7,19.8c0,0,0,0.1,0,0.1c-0.3,0.4-0.8,0.3-1.2,0.3c-5.5,0-11,0-16.5,0c-2.8,0-5.6,0-8.4,0
		c-1,0-1.1,0.1-1.1,1.1c0,8.3,0,16.5,0,24.8c0,0.4,0.1,0.9-0.3,1.3c0,0-0.1,0-0.1,0c0-1.6,0-3.1,0-4.7c0-7.4,0-14.8,0-22.1
		c0-0.6,0.1-0.7,0.7-0.7c8.8,0,17.5,0,26.3,0C32.3,19.8,32.5,19.8,32.7,19.8z"/>
	<path class="st4" d="M5.3,47.4c0-8.8,0-17.7,0-26.5c0-0.9,0-0.9,0.9-0.9c8.8,0,17.7,0,26.5,0c0,8.8,0,17.7,0,26.5
		c0,0.9,0,0.9-0.9,0.9C23,47.4,14.2,47.4,5.3,47.4z"/>
	<path class="st0" d="M22.3,29c0.2,0,0.4,0.1,0.6,0.1c0.3-0.1,0.2-0.4,0.2-0.6c0-0.8,0-1.5,0-2.3c0-0.2-0.1-0.4,0.1-0.5
		c0,0,0.1,0,0.1,0c0.7,0.1,1.3-0.1,2,0.1c0,3.1,0,6.3,0,9.4c0,0.8-0.1,1.6,0,2.4c0.1,0.8-0.2,1.2-0.9,1.4c-0.6,0.2-1.2,0.4-1.8,0.6
		c-0.6,0.1-1.2,0.1-1.7,0c-2.3-0.7-3.5-2.2-3.5-4.3c0.1-0.5,0.1-1.1,0-1.6c0.1-2.4,2-4.4,4.3-4.6C21.9,29.1,22.1,29.1,22.3,29
		L22.3,29z"/>
	<path class="st5" d="M12.9,25.9c0,0,0.1-0.1,0.1-0.1c0.7-0.1,1.3-0.1,2,0c0,0.3,0,0.7,0,1c0,4,0,8,0,12c0,0.6-0.2,0.8-0.7,0.7
		c-0.5-0.1-1,0-1.5-0.1c-0.1-0.1-0.1-0.3-0.1-0.4c0-4.2,0-8.4,0-12.7C12.8,26.2,12.8,26,12.9,25.9z"/>
	<path class="st2" d="M12.9,25.9c0,4.5,0,9,0,13.5c-0.2-0.2-0.2-0.5-0.2-0.7c0-4,0-8.1,0-12.1C12.7,26.4,12.7,26.1,12.9,25.9z"/>
	<path class="st6" d="M15.2,39.2c0-4.4,0-8.7,0-13.1c0,0,0,0,0.1,0C15.3,30.5,15.3,34.8,15.2,39.2C15.2,39.2,15.2,39.2,15.2,39.2z"
		/>
	<path class="st7" d="M23.2,25.8c0,1,0,1.9,0,2.9c0,0.2,0.1,0.5-0.3,0.4c0.3-0.8,0.1-1.7,0.1-2.5C23,26.3,22.9,26,23.2,25.8z"/>
	<path class="st8" d="M15,25.8c-0.7,0-1.3,0-2,0C13.7,25.6,14.4,25.5,15,25.8z"/>
	<path class="st9" d="M25.3,25.9c-0.7-0.1-1.3,0.1-2-0.1C24,25.8,24.6,25.6,25.3,25.9z"/>
	<path class="st10" d="M13.2,39.6c0.5,0,1.1,0,1.6,0c0,0,0,0,0,0.1C14.3,39.6,13.8,39.6,13.2,39.6C13.2,39.6,13.2,39.6,13.2,39.6z"
		/>
	<path class="st11" d="M20.9,39.7c0.6,0,1.2,0,1.7,0C22,39.9,21.4,39.9,20.9,39.7z"/>
	<path class="st9" d="M17.4,33.7c0.2,0.5,0.2,1.1,0,1.6C17.3,34.8,17.2,34.3,17.4,33.7z"/>
	<path class="st12" d="M22.3,29L22.3,29C22.3,29.1,22.2,29,22.3,29c-0.2,0-0.3,0-0.5-0.1c0.3-0.1,0.5-0.1,0.7,0c0,0,0,0,0,0.1
		C22.4,29,22.3,29,22.3,29z"/>
	<path class="st4" d="M22.6,31.1c0.2,0,0.3,0,0.4,0.1c0.2,0.8,0.1,1.6,0.1,2.5c0,1.1,0,2.1,0,3.2c0,0.2,0,0.5-0.2,0.7
		c-0.1,0.1-0.2,0.1-0.3,0.1c-0.4-0.1-0.8-0.1-1.2,0c-1.2-0.4-1.9-1.3-1.9-2.8c0.1-0.3,0.1-0.5,0-0.8c0.1-1.7,0.9-2.7,2.3-3
		C22.1,31.1,22.3,31.1,22.6,31.1z"/>
	<path class="st13" d="M22.9,37.5c0.1-0.3,0.1-0.6,0.1-0.9c0-1.8,0-3.6,0-5.4c0.3,0.1,0.1,0.3,0.2,0.5c0,1.8,0,3.5,0,5.3
		C23.2,37.2,23.3,37.5,22.9,37.5z"/>
	<path class="st14" d="M21.4,37.6c0.4-0.2,0.8-0.2,1.2,0C22.2,37.7,21.8,37.7,21.4,37.6z"/>
	<path class="st15" d="M22.6,31.1c-0.3,0.2-0.5,0.2-0.8,0C22.1,31.1,22.3,31.1,22.6,31.1z"/>
	<path class="st16" d="M19.5,34c0.2,0.3,0.2,0.5,0,0.8C19.5,34.5,19.5,34.3,19.5,34z"/>
</g>
<line class="st17" x1="37.3" y1="18.4" x2="37.3" y2="48.7"/>
<g>
	<path d="M41.7,36.1l-1.1,3.4h-1.5l3.7-10.9h1.7l3.7,10.9h-1.5l-1.2-3.4H41.7z M45.3,35l-1.1-3.1c-0.2-0.7-0.4-1.4-0.6-2h0
		c-0.2,0.6-0.3,1.3-0.6,2L42,35H45.3z"/>
	<path d="M56.4,28v9.5c0,0.7,0,1.5,0.1,2h-1.3l-0.1-1.4h0c-0.4,0.9-1.4,1.5-2.7,1.5c-1.9,0-3.4-1.6-3.4-4c0-2.6,1.6-4.2,3.5-4.2
		c1.2,0,2,0.6,2.4,1.2h0V28H56.4z M55,34.9c0-0.2,0-0.4-0.1-0.6c-0.2-0.9-1-1.7-2.1-1.7c-1.5,0-2.4,1.3-2.4,3c0,1.6,0.8,2.9,2.3,2.9
		c1,0,1.8-0.6,2.1-1.7c0-0.2,0.1-0.4,0.1-0.6V34.9z"/>
	<path d="M65.9,35.5c0,2.9-2,4.2-3.9,4.2c-2.1,0-3.8-1.6-3.8-4c0-2.6,1.7-4.2,3.9-4.2C64.4,31.5,65.9,33.1,65.9,35.5z M59.7,35.6
		c0,1.7,1,3,2.4,3c1.4,0,2.4-1.3,2.4-3c0-1.3-0.7-3-2.4-3C60.4,32.5,59.7,34.1,59.7,35.6z"/>
	<path d="M67.6,39.5c0-0.5,0.1-1.3,0.1-2V28h1.4v4.9h0c0.5-0.9,1.4-1.4,2.7-1.4c1.9,0,3.3,1.6,3.3,4c0,2.8-1.8,4.2-3.5,4.2
		c-1.1,0-2-0.4-2.6-1.5h0l-0.1,1.3H67.6z M69.1,36.4c0,0.2,0,0.4,0.1,0.5c0.3,1,1.1,1.7,2.1,1.7c1.5,0,2.4-1.2,2.4-3
		c0-1.6-0.8-2.9-2.3-2.9c-1,0-1.9,0.7-2.2,1.8c0,0.2-0.1,0.4-0.1,0.6V36.4z"/>
	<path d="M77.7,35.8c0,1.9,1.3,2.7,2.7,2.7c1,0,1.6-0.2,2.2-0.4l0.2,1c-0.5,0.2-1.4,0.5-2.6,0.5c-2.4,0-3.9-1.6-3.9-4
		c0-2.4,1.4-4.2,3.7-4.2c2.6,0,3.2,2.3,3.2,3.7c0,0.3,0,0.5,0,0.7H77.7z M81.9,34.8c0-0.9-0.4-2.3-2-2.3c-1.4,0-2.1,1.3-2.2,2.3
		H81.9z"/>
	<path d="M89.9,28.6v10.9h-1.4V28.6H89.9z"/>
	<path d="M92.5,33.8c0-0.8,0-1.5-0.1-2.1h1.3l0.1,1.3h0c0.4-0.7,1.3-1.5,2.6-1.5c1.1,0,2.8,0.6,2.8,3.3v4.7h-1.4V35
		c0-1.3-0.5-2.3-1.8-2.3c-0.9,0-1.7,0.7-1.9,1.5c-0.1,0.2-0.1,0.4-0.1,0.7v4.7h-1.4V33.8z"/>
	<path d="M101.6,28.7c0.9-0.1,1.9-0.2,3-0.2c2,0,3.5,0.5,4.4,1.4c1,0.9,1.5,2.2,1.5,3.9c0,1.8-0.6,3.2-1.6,4.2c-1,1-2.7,1.6-4.8,1.6
		c-1,0-1.8,0-2.6-0.1V28.7z M103,38.4c0.4,0.1,0.9,0.1,1.4,0.1c3,0,4.7-1.7,4.7-4.6c0-2.6-1.4-4.2-4.4-4.2c-0.7,0-1.3,0.1-1.7,0.1
		V38.4z"/>
	<path d="M113.2,35.8c0,1.9,1.3,2.7,2.7,2.7c1,0,1.6-0.2,2.2-0.4l0.2,1c-0.5,0.2-1.4,0.5-2.6,0.5c-2.4,0-3.9-1.6-3.9-4
		c0-2.4,1.4-4.2,3.7-4.2c2.6,0,3.2,2.3,3.2,3.7c0,0.3,0,0.5,0,0.7H113.2z M117.4,34.8c0-0.9-0.4-2.3-2-2.3c-1.4,0-2.1,1.3-2.2,2.3
		H117.4z"/>
	<path d="M120.3,38c0.4,0.3,1.2,0.6,1.9,0.6c1,0,1.5-0.5,1.5-1.2c0-0.7-0.4-1.1-1.5-1.4c-1.4-0.5-2.1-1.3-2.1-2.2
		c0-1.3,1-2.3,2.7-2.3c0.8,0,1.5,0.2,1.9,0.5l-0.4,1c-0.3-0.2-0.9-0.5-1.6-0.5c-0.8,0-1.3,0.5-1.3,1.1c0,0.6,0.5,0.9,1.5,1.3
		c1.4,0.5,2.1,1.2,2.1,2.4c0,1.4-1.1,2.4-2.9,2.4c-0.9,0-1.7-0.2-2.2-0.5L120.3,38z"/>
	<path d="M128.5,29.4c0,0.5-0.3,0.9-0.9,0.9c-0.5,0-0.9-0.4-0.9-0.9c0-0.5,0.4-0.9,0.9-0.9C128.2,28.6,128.5,28.9,128.5,29.4z
		 M126.9,39.5v-7.9h1.4v7.9H126.9z"/>
	<path d="M137.5,31.7c0,0.6-0.1,1.2-0.1,2.2v4.6c0,1.8-0.4,2.9-1.1,3.6c-0.8,0.7-1.9,0.9-2.9,0.9c-0.9,0-2-0.2-2.6-0.6l0.4-1.1
		c0.5,0.3,1.3,0.6,2.3,0.6c1.5,0,2.5-0.8,2.5-2.7v-0.9h0c-0.4,0.7-1.3,1.3-2.5,1.3c-1.9,0-3.3-1.7-3.3-3.8c0-2.7,1.7-4.2,3.5-4.2
		c1.4,0,2.1,0.7,2.4,1.4h0l0.1-1.2H137.5z M136,34.8c0-0.2,0-0.5-0.1-0.6c-0.3-0.8-1-1.5-2-1.5c-1.4,0-2.3,1.2-2.3,3
		c0,1.5,0.8,2.8,2.3,2.8c0.9,0,1.7-0.6,2-1.5c0.1-0.2,0.1-0.5,0.1-0.8V34.8z"/>
	<path d="M139.7,33.8c0-0.8,0-1.5-0.1-2.1h1.3L141,33h0c0.4-0.7,1.3-1.5,2.6-1.5c1.1,0,2.8,0.6,2.8,3.3v4.7H145V35
		c0-1.3-0.5-2.3-1.8-2.3c-0.9,0-1.7,0.7-1.9,1.5c-0.1,0.2-0.1,0.4-0.1,0.7v4.7h-1.4V33.8z"/>
</g>
</svg>
