<?xml version="1.0" standalone="no"?>
<!DOCTYPE svg PUBLIC "-//W3C//DTD SVG 20010904//EN"
 "http://www.w3.org/TR/2001/REC-SVG-20010904/DTD/svg10.dtd">
<svg version="1.0" xmlns="http://www.w3.org/2000/svg"
 width="625.000000pt" height="292.000000pt" viewBox="0 0 625.000000 292.000000"
 preserveAspectRatio="xMidYMid meet">

<g transform="translate(0.000000,292.000000) scale(0.100000,-0.100000)"
fill="#000000" stroke="none">
<path d="M200 1470 l0 -1050 1080 0 1080 0 0 1050 0 1050 -1080 0 -1080 0 0
-1050z"/>
<path d="M2590 1436 c0 -684 3 -1036 10 -1036 14 0 14 2056 0 2065 -7 4 -10
-342 -10 -1029z"/>
<path d="M3730 2205 c0 -74 -3 -135 -8 -135 -4 0 -13 9 -20 20 -7 11 -19 20
-27 20 -8 0 -15 5 -15 10 0 6 -30 10 -70 10 -38 0 -70 -4 -70 -9 0 -5 -14 -12
-30 -16 -17 -4 -35 -16 -42 -28 -6 -12 -17 -28 -25 -35 -8 -8 -17 -27 -20 -43
-3 -16 -9 -29 -14 -29 -5 0 -9 -36 -9 -80 0 -44 4 -80 9 -80 5 0 12 -16 15
-36 4 -19 14 -38 22 -41 7 -3 14 -12 14 -19 0 -8 12 -19 27 -25 15 -6 31 -16
35 -22 10 -17 150 -16 156 1 2 6 9 12 16 12 7 0 23 12 37 28 l24 27 3 -37 c3
-37 4 -38 44 -38 l41 0 -7 46 c-3 26 -6 179 -6 340 l0 294 -40 0 -40 0 0 -135z
m-67 -144 c14 -5 31 -23 38 -40 8 -17 17 -31 21 -31 5 0 8 -43 8 -95 0 -52 -3
-95 -8 -95 -4 0 -13 -14 -21 -31 -16 -38 -52 -52 -113 -46 -51 4 -89 32 -102
75 -4 12 -12 22 -17 22 -5 0 -9 29 -9 65 0 36 4 65 9 65 5 0 11 12 14 28 14
71 103 112 180 83z"/>
<path d="M4390 2000 l0 -340 35 0 c32 0 35 2 35 29 0 17 5 33 10 36 6 3 10 0
10 -8 0 -7 12 -20 28 -28 15 -8 30 -18 34 -24 11 -15 160 -13 166 3 2 6 9 12
15 12 21 0 77 66 83 99 4 17 10 31 15 31 5 0 9 38 9 85 0 47 -4 85 -9 85 -5 0
-11 14 -15 31 -6 33 -62 99 -83 99 -7 0 -13 5 -13 10 0 6 -32 10 -75 10 -41 0
-75 -4 -75 -9 0 -5 -13 -14 -30 -20 -16 -5 -30 -17 -30 -25 0 -9 -7 -16 -15
-16 -13 0 -15 22 -15 140 l0 140 -40 0 -40 0 0 -340z m283 59 c14 -6 31 -23
38 -38 8 -14 20 -32 27 -39 7 -8 12 -42 12 -87 0 -45 -5 -79 -12 -87 -7 -7
-19 -25 -27 -39 -16 -33 -50 -49 -102 -49 -46 0 -67 10 -106 48 -27 26 -28 32
-28 120 0 51 5 96 10 100 6 4 16 19 24 33 21 41 111 62 164 38z"/>
<path d="M3063 2304 c-6 -3 -17 -30 -24 -60 -7 -30 -15 -54 -19 -54 -4 0 -13
-27 -20 -60 -7 -33 -16 -60 -20 -60 -3 0 -13 -22 -20 -50 -7 -27 -17 -50 -20
-50 -4 0 -13 -27 -20 -60 -7 -33 -16 -60 -20 -60 -4 0 -13 -26 -20 -57 -7 -32
-16 -60 -20 -63 -4 -3 -11 -20 -15 -37 -7 -33 -6 -33 33 -33 41 0 52 11 52 51
0 10 4 19 8 19 5 0 15 26 22 58 7 31 17 60 24 64 21 14 226 9 241 -5 7 -7 18
-39 25 -70 7 -31 16 -57 20 -57 4 0 10 -13 14 -30 5 -28 9 -30 47 -30 l41 0
-7 37 c-4 21 -10 40 -15 43 -4 3 -13 31 -20 63 -7 31 -17 57 -21 57 -4 0 -13
25 -20 55 -7 30 -15 55 -19 55 -4 0 -13 27 -20 60 -7 33 -16 60 -20 60 -4 0
-13 27 -20 60 -7 33 -16 60 -21 60 -5 0 -13 19 -20 43 -6 23 -16 45 -23 49
-12 8 -64 9 -83 2z m62 -140 c4 -30 13 -61 20 -68 7 -7 18 -38 25 -69 7 -31
17 -57 22 -57 4 0 8 -9 8 -20 0 -19 -7 -20 -95 -20 -88 0 -95 1 -95 20 0 11 4
20 9 20 4 0 14 27 21 60 7 33 16 60 20 60 4 0 13 29 20 65 16 83 36 87 45 9z"/>
<path d="M4068 2133 c-21 -3 -38 -8 -38 -14 0 -5 -6 -9 -13 -9 -26 0 -67 -26
-79 -50 -7 -14 -18 -28 -25 -33 -6 -4 -15 -28 -19 -52 -3 -25 -10 -45 -15 -45
-5 0 -9 -18 -9 -40 0 -22 3 -40 8 -40 4 0 13 -22 19 -49 8 -36 23 -60 49 -85
21 -20 44 -36 50 -36 7 0 14 -6 17 -12 5 -17 164 -18 175 -2 4 6 20 15 35 20
16 5 36 23 45 39 9 17 20 32 24 35 17 13 28 67 28 135 0 68 -11 122 -28 135
-4 3 -15 18 -24 35 -9 16 -29 34 -45 39 -15 5 -30 12 -33 16 -7 10 -78 17
-122 13z m126 -94 c14 -13 28 -39 32 -56 3 -18 10 -33 15 -33 5 0 9 -29 9 -65
0 -36 -4 -65 -9 -65 -5 0 -13 -10 -17 -22 -14 -47 -51 -72 -113 -76 -55 -4
-59 -3 -97 33 -38 36 -39 39 -43 116 -3 85 7 126 43 164 29 31 43 35 103 31
38 -2 58 -9 77 -27z"/>
<path d="M5000 2122 c0 -4 -15 -14 -34 -20 -22 -8 -39 -24 -48 -42 -7 -17 -16
-30 -19 -30 -11 0 -29 -60 -29 -96 0 -19 -4 -34 -10 -34 -5 0 -10 -9 -10 -20
0 -11 4 -20 9 -20 5 0 11 -22 15 -50 4 -27 12 -55 20 -62 7 -8 18 -23 24 -35
6 -11 24 -24 39 -28 15 -3 31 -12 35 -18 10 -17 210 -16 216 1 2 6 10 12 19
12 9 0 13 8 11 23 -3 21 -6 22 -99 18 -62 -2 -104 1 -118 9 -42 22 -61 44 -67
77 -3 18 -10 33 -15 33 -5 0 -9 9 -9 20 0 19 7 20 154 20 85 0 161 3 170 6 11
4 16 19 16 50 0 24 -4 44 -9 44 -5 0 -12 15 -15 34 -7 39 -41 81 -73 91 -13 3
-23 11 -23 16 0 5 -34 9 -75 9 -41 0 -75 -4 -75 -8z m133 -61 c16 -6 28 -21
32 -40 4 -17 11 -31 16 -31 5 0 9 -11 9 -25 l0 -25 -132 0 c-73 0 -128 4 -122
8 6 4 14 20 18 36 4 16 19 42 34 57 22 24 35 29 74 29 26 0 58 -4 71 -9z"/>
<path d="M2890 1035 l0 -365 55 0 55 0 0 365 0 365 -55 0 -55 0 0 -365z"/>
<path d="M3900 1277 l0 -123 -93 1 c-76 0 -97 -3 -111 -17 -10 -10 -23 -18
-29 -18 -15 0 -57 -44 -57 -58 0 -6 -8 -15 -17 -21 -16 -8 -18 -26 -18 -127 0
-85 3 -118 13 -121 6 -3 12 -10 12 -16 0 -17 64 -77 83 -77 8 0 17 -6 19 -12
3 -9 44 -14 146 -16 l142 -4 0 366 0 366 -45 0 -45 0 0 -123z m-22 -203 c22
-6 22 -9 22 -166 l0 -160 -89 4 c-80 3 -91 5 -110 28 -11 14 -20 31 -21 38 0
6 -4 12 -10 12 -15 0 -13 148 3 167 55 69 77 83 130 83 28 0 62 -3 75 -6z"/>
<path d="M4938 1331 c-35 -34 -12 -91 35 -91 25 0 57 32 57 55 0 21 -36 55
-57 54 -10 0 -26 -8 -35 -18z"/>
<path d="M3286 1153 c-19 -5 -32 -14 -67 -45 -18 -17 -19 -17 -19 12 0 29 -2
30 -45 30 l-45 0 0 -240 0 -240 45 0 45 0 2 181 c3 170 4 183 23 193 11 6 24
17 28 24 8 12 83 17 111 6 9 -3 16 -12 16 -19 0 -7 6 -15 13 -17 9 -4 13 -52
15 -186 l3 -182 46 0 45 0 -4 199 -3 199 -42 42 c-37 36 -50 42 -95 45 -29 2
-62 1 -72 -2z"/>
<path d="M4226 1153 c-16 -2 -35 -10 -43 -16 -54 -45 -81 -75 -88 -97 -4 -14
-12 -28 -18 -32 -15 -9 -15 -177 -1 -186 6 -4 14 -20 18 -35 4 -16 26 -48 50
-71 37 -37 51 -44 98 -50 67 -9 175 2 191 18 7 7 20 15 30 19 12 5 17 17 17
47 0 45 -7 49 -39 20 -27 -22 -94 -35 -156 -28 -52 6 -102 50 -111 97 -4 17
-10 31 -15 31 -5 0 -9 5 -9 10 0 6 65 10 175 10 168 0 175 1 175 20 0 11 -4
20 -10 20 -5 0 -10 15 -10 34 0 34 -18 97 -30 106 -4 3 -12 15 -19 28 -6 12
-18 22 -26 22 -8 0 -18 6 -22 14 -9 16 -107 27 -157 19z m134 -101 c15 -15 31
-42 35 -60 l7 -32 -117 0 -117 0 6 30 c3 17 18 44 33 60 23 24 36 29 76 30 40
0 53 -5 77 -28z"/>
<path d="M4626 1153 c-10 -3 -24 -9 -30 -14 -6 -5 -20 -16 -30 -23 -15 -10
-21 -29 -24 -76 l-5 -62 52 -49 c29 -27 56 -49 61 -49 5 0 15 -6 22 -12 8 -7
27 -21 43 -30 36 -20 46 -65 19 -85 -31 -23 -137 -11 -154 17 -3 5 -18 12 -33
15 -26 7 -27 6 -27 -39 0 -34 4 -46 15 -46 8 0 15 -4 15 -8 0 -11 91 -32 138
-32 111 0 177 71 151 164 -10 37 -52 88 -81 99 -10 3 -18 11 -18 16 0 5 -13
12 -30 16 -16 4 -33 12 -37 19 -5 7 -16 15 -25 19 -23 8 -23 50 -1 72 24 24
113 15 142 -14 31 -31 41 -26 41 23 0 38 -4 46 -22 52 -13 4 -25 10 -28 15 -7
10 -128 20 -154 12z"/>
<path d="M5218 1153 c-16 -2 -28 -8 -28 -13 0 -5 -14 -11 -30 -15 -17 -4 -35
-16 -42 -28 -6 -12 -16 -25 -22 -29 -16 -10 -14 -140 2 -145 6 -3 12 -10 12
-17 0 -13 33 -45 66 -64 18 -11 18 -11 -3 -12 -47 0 -72 -70 -38 -104 20 -20
19 -26 -5 -26 -11 0 -20 -4 -20 -9 0 -5 -9 -13 -20 -16 -11 -3 -20 -11 -20
-16 0 -6 -7 -18 -16 -27 -12 -12 -15 -27 -11 -63 6 -51 36 -91 77 -104 14 -4
28 -13 32 -19 10 -15 216 -15 226 0 4 6 22 17 40 25 17 8 32 17 32 21 0 3 7
14 16 22 9 10 15 34 16 66 0 47 -3 54 -40 90 -33 30 -51 39 -94 45 -29 4 -55
10 -58 14 -3 4 -23 11 -45 16 -30 8 -41 15 -43 33 -2 15 2 22 12 22 9 0 16 4
16 9 0 6 21 13 48 17 83 12 122 36 136 82 4 12 12 22 17 22 5 0 9 18 9 40 0
22 -4 40 -8 40 -5 0 -13 16 -19 35 l-11 35 44 0 44 0 0 40 0 40 -122 -1 c-68
-1 -135 -4 -150 -6z m109 -99 c37 -40 39 -73 7 -111 -23 -29 -33 -33 -74 -33
-37 0 -51 5 -68 25 -39 45 -23 117 29 138 37 15 82 6 106 -19z m-17 -403 c0
-5 14 -11 31 -15 19 -4 33 -13 36 -26 3 -11 9 -20 14 -20 17 0 9 -21 -18 -48
-25 -25 -33 -27 -113 -27 -75 0 -88 3 -107 23 -34 33 -31 77 7 94 17 7 30 16
30 20 0 5 27 8 60 8 33 0 60 -4 60 -9z"/>
<path d="M5703 1154 c-13 -3 -23 -10 -23 -15 0 -5 -6 -9 -13 -9 -7 0 -23 -9
-35 -20 l-22 -21 0 31 c0 29 -2 30 -45 30 l-45 0 0 -240 0 -240 45 0 45 0 0
180 c0 175 1 180 22 191 13 7 29 18 36 26 14 13 70 17 108 7 34 -9 44 -66 44
-243 l0 -161 50 0 50 0 0 180 c0 113 -4 180 -10 180 -5 0 -10 10 -10 23 0 13
-16 40 -36 61 -31 33 -42 38 -87 41 -29 2 -62 1 -74 -1z"/>
<path d="M4920 910 l0 -240 45 0 45 0 0 240 0 240 -45 0 -45 0 0 -240z"/>
</g>
</svg>
