<svg id="Layer_1" data-name="Layer 1" xmlns="http://www.w3.org/2000/svg" viewBox="0 0 150 70"><defs><style>.cls-1{fill:#061f34;}.cls-2{fill:#fff;}.cls-3{fill:#cbcbd1;}.cls-4{fill:#a7a9b4;}.cls-5{fill:#c6c3ca;}.cls-6{fill:#4a4e5f;}.cls-7{fill:#363d4f;}.cls-8{fill:#323d4f;}.cls-9{fill:#464d5f;}.cls-10{fill:#c7c5cb;}.cls-11{fill:#a0a3ae;}.cls-12{fill:#9c9ba6;}.cls-13{fill:#9e9ca7;}.cls-14{fill:#797887;}.cls-15{fill:#7b7b89;}.cls-16{fill:#58596a;}.cls-17{fill:#52586a;}.cls-18{fill:#737787;}.cls-19{fill:#767a89;}.cls-20{fill:#caccd3;}.cls-21{fill:#55a1d8;}.cls-22{fill:#231f20;}</style></defs><path class="cls-1" d="M30.72,25.71V42.17s0,.06,0,.1v.23a3.27,3.27,0,0,1-.3,1.34,4.48,4.48,0,0,1-1,1.51,4.56,4.56,0,0,1-2.51,1.28,3.77,3.77,0,0,1-.67,0h-17a4.37,4.37,0,0,1-3-1.14A4.56,4.56,0,0,1,4.69,43a1.81,1.81,0,0,1,0-.4,1.11,1.11,0,0,0,0-.19v-.06s0-.07,0-.1V25.69s0-.09,0-.13v-.11a.55.55,0,0,0,0-.18A3.73,3.73,0,0,1,5,24a4.66,4.66,0,0,1,.93-1.38,4.6,4.6,0,0,1,2.63-1.34,4.16,4.16,0,0,1,.61,0h17a4.45,4.45,0,0,1,3,1.16,4.61,4.61,0,0,1,1.46,2.48,2.28,2.28,0,0,1,0,.52v.25S30.7,25.68,30.72,25.71Z"/><path class="cls-2" d="M30.7,25.39a4.32,4.32,0,0,0-.78-2.17,4.57,4.57,0,0,0-3-1.92,4.08,4.08,0,0,0-.85-.08H9.27a4.61,4.61,0,0,0-4.48,3.46,4.11,4.11,0,0,0-.12.61s0,.09,0,.1v-4.2h26.1v4.2Z"/><path class="cls-2" d="M4.67,42.57a4.63,4.63,0,0,0,3.25,3.89,5.38,5.38,0,0,0,1.2.2v0H4.62V42.47C4.69,42.47,4.64,42.54,4.67,42.57Z"/><path class="cls-2" d="M26.25,46.66a5.38,5.38,0,0,0,1.2-.2A4.64,4.64,0,0,0,30.63,43a3.21,3.21,0,0,0,.07-.53s0,0,0,0v4.2H26.25v0Z"/><path class="cls-3" d="M26.25,46.66v0H9.12v0H26.25Z"/><path class="cls-4" d="M4.67,42.57s0-.08,0-.1v-.1s0,0,0,0A.65.65,0,0,1,4.67,42.57Z"/><path class="cls-5" d="M4.62,25.39s0-.08,0-.1a.32.32,0,0,1,0,.17s0,0,0,0Z"/><path class="cls-6" d="M4.65,25.56c0,.05,0,.09,0,.13v-.13Z"/><path class="cls-7" d="M30.72,25.71s0-.06,0-.1h0Z"/><path class="cls-8" d="M30.7,42.27s0-.07,0-.1v.1Z"/><path class="cls-9" d="M4.62,42.22s0,.06,0,.1h0Z"/><path class="cls-10" d="M30.7,25.39h0v.07s0,0,0,0Z"/><path class="cls-11" d="M30.7,42.44v-.07s0,0,0,0v.07S30.71,42.45,30.7,42.44Z"/><path class="cls-12" d="M4.62,25.46h0v.05h0Z"/><path class="cls-13" d="M30.7,25.46h0v.05h0Z"/><path class="cls-14" d="M4.62,25.51h0v0h0Z"/><path class="cls-15" d="M30.7,25.51h0v0s0,0,0,0Z"/><path class="cls-16" d="M30.7,25.56h0v.05h0Z"/><path class="cls-17" d="M30.7,42.27h0v0h0Z"/><path class="cls-18" d="M4.62,42.32h0v0h0Z"/><path class="cls-19" d="M30.7,42.32h0v0h0Z"/><path class="cls-20" d="M30.7,42.44h0v.05h0Z"/><path class="cls-21" d="M11.28,33.45V28a.33.33,0,0,1,0-.1c0-.08.05-.12.13-.13s.05,0,.07,0h2s.05,0,.07,0,.1,0,.11.11v9c0,.18,0,.16.16.16h4.9c.07,0,.09,0,.09.11s0,.17,0,.25c-.09.55-.18,1.1-.28,1.65,0,.15-.06.18-.21.19H11.42a.13.13,0,0,1-.14-.13.75.75,0,0,1,0-.15Z"/><path class="cls-21" d="M22.37,31.62a.25.25,0,0,0,.11-.09,3.9,3.9,0,0,1,1.55-1,3.07,3.07,0,0,1,1.09-.16c.13,0,.17,0,.17.18,0,.38,0,.77,0,1.15v.88c0,.18,0,.2-.19.2a4.45,4.45,0,0,0-.73,0,4.25,4.25,0,0,0-1.45.42,1.78,1.78,0,0,0-.36.25.22.22,0,0,0-.08.19v5.45c0,.1,0,.13-.14.14H20.2c-.1,0-.15-.05-.15-.16a.4.4,0,0,1,0-.11c0-2.16,0-4.33,0-6.5,0-.49,0-1-.05-1.46l0-.32c0-.11,0-.16.13-.16H22a.26.26,0,0,1,.24.16,1.87,1.87,0,0,1,.15.7C22.36,31.44,22.36,31.53,22.37,31.62Z"/><path class="cls-22" d="M36,35l-1.09,3.3h-1.4L37,27.85h1.63l3.58,10.49H40.8L39.68,35Zm3.44-1-1-3c-.24-.69-.39-1.31-.55-1.92h0c-.16.62-.33,1.26-.53,1.9l-1,3Z"/><path class="cls-22" d="M50.07,27.29V36.4c0,.67,0,1.43.06,1.94H48.9L48.84,37h0a2.78,2.78,0,0,1-2.57,1.47C44.42,38.51,43,37,43,34.69c0-2.51,1.54-4,3.37-4a2.52,2.52,0,0,1,2.28,1.15h0v-4.5ZM48.7,33.88a2.86,2.86,0,0,0-.06-.58,2,2,0,0,0-2-1.59c-1.42,0-2.26,1.25-2.26,2.91s.75,2.79,2.23,2.79a2.06,2.06,0,0,0,2-1.64,2.68,2.68,0,0,0,.06-.59Z"/><path class="cls-22" d="M59.16,34.51a3.68,3.68,0,0,1-3.75,4,3.58,3.58,0,0,1-3.61-3.87,3.68,3.68,0,0,1,3.73-4A3.56,3.56,0,0,1,59.16,34.51Zm-6,.08c0,1.65,1,2.9,2.29,2.9s2.29-1.23,2.29-2.93c0-1.27-.64-2.89-2.26-2.89S53.18,33.16,53.18,34.59Z"/><path class="cls-22" d="M60.83,38.34c0-.51.06-1.27.06-1.94V27.29h1.35V32h0a2.82,2.82,0,0,1,2.57-1.38c1.87,0,3.19,1.56,3.18,3.84,0,2.7-1.7,4-3.38,4a2.69,2.69,0,0,1-2.52-1.41h0L62,38.34Zm1.41-3a2,2,0,0,0,.07.5,2.11,2.11,0,0,0,2,1.61c1.43,0,2.29-1.17,2.29-2.9,0-1.51-.78-2.8-2.24-2.8a2.19,2.19,0,0,0-2.09,1.68,2.68,2.68,0,0,0-.08.56Z"/><path class="cls-22" d="M70.51,34.83a2.41,2.41,0,0,0,2.58,2.61,4.93,4.93,0,0,0,2.09-.39l.23,1a6,6,0,0,1-2.5.47,3.51,3.51,0,0,1-3.71-3.8c0-2.27,1.34-4.06,3.54-4.06,2.45,0,3.11,2.16,3.11,3.55a4.34,4.34,0,0,1,0,.64Zm4-1a2,2,0,0,0-1.9-2.23,2.26,2.26,0,0,0-2.1,2.23Z"/><path class="cls-22" d="M80.89,27.85h1.36v9.36h4.48v1.13H80.89Z"/><path class="cls-22" d="M89.72,28.69a.81.81,0,0,1-.87.84.82.82,0,0,1-.83-.84.83.83,0,0,1,.86-.85A.81.81,0,0,1,89.72,28.69ZM88.2,38.34V30.81h1.37v7.53Z"/><path class="cls-22" d="M98.33,30.81c0,.54-.06,1.15-.06,2.07v4.37c0,1.73-.35,2.79-1.08,3.44a4,4,0,0,1-2.74.91A4.78,4.78,0,0,1,92,41l.34-1a4.28,4.28,0,0,0,2.21.59c1.4,0,2.43-.73,2.43-2.63v-.84h0a2.69,2.69,0,0,1-2.4,1.26c-1.87,0-3.21-1.59-3.21-3.67,0-2.55,1.67-4,3.4-4A2.51,2.51,0,0,1,97,32h0l.06-1.14Zm-1.42,3a1.76,1.76,0,0,0-.08-.62,2,2,0,0,0-1.91-1.45c-1.31,0-2.24,1.11-2.24,2.85,0,1.48.75,2.71,2.22,2.71a2,2,0,0,0,1.9-1.4,2.31,2.31,0,0,0,.11-.73Z"/><path class="cls-22" d="M100.54,27.29h1.37V32h0a2.51,2.51,0,0,1,1-1,2.78,2.78,0,0,1,1.4-.39c1,0,2.63.62,2.63,3.22v4.48h-1.37V34c0-1.22-.45-2.24-1.74-2.24A2,2,0,0,0,102,33.15a1.76,1.76,0,0,0-.09.65v4.54h-1.37Z"/><path class="cls-22" d="M110.77,28.65v2.16h2v1h-2v4.07c0,.93.26,1.46,1,1.46a3.42,3.42,0,0,0,.79-.09l.06,1a3.27,3.27,0,0,1-1.21.19,1.88,1.88,0,0,1-1.48-.58,2.77,2.77,0,0,1-.53-2V31.85h-1.17v-1h1.17V29Z"/><path class="cls-22" d="M114.27,33.16c0-.89,0-1.65-.06-2.35h1.2l0,1.48h.06a2.25,2.25,0,0,1,2.08-1.65,1.15,1.15,0,0,1,.39.05V32a2.12,2.12,0,0,0-.47-.05,1.92,1.92,0,0,0-1.83,1.76,4,4,0,0,0-.06.64v4h-1.36Z"/><path class="cls-22" d="M126,34.51a3.68,3.68,0,0,1-3.75,4,3.58,3.58,0,0,1-3.61-3.87,3.68,3.68,0,0,1,3.74-4A3.56,3.56,0,0,1,126,34.51Zm-6,.08c0,1.65,1,2.9,2.29,2.9s2.28-1.23,2.28-2.93c0-1.27-.63-2.89-2.25-2.89S120.05,33.16,120.05,34.59Z"/><path class="cls-22" d="M134.57,34.51a3.68,3.68,0,0,1-3.75,4,3.58,3.58,0,0,1-3.61-3.87,3.68,3.68,0,0,1,3.74-4A3.56,3.56,0,0,1,134.57,34.51Zm-6,.08c0,1.65.95,2.9,2.29,2.9s2.29-1.23,2.29-2.93c0-1.27-.64-2.89-2.26-2.89S128.59,33.16,128.59,34.59Z"/><path class="cls-22" d="M136.3,32.85c0-.78,0-1.42-.06-2h1.2L137.5,32h.05a2.6,2.6,0,0,1,2.36-1.38A2.21,2.21,0,0,1,142,32.15h0a2.92,2.92,0,0,1,.84-1,2.58,2.58,0,0,1,1.66-.53c1,0,2.48.65,2.48,3.27v4.43h-1.34V34.08c0-1.45-.53-2.32-1.64-2.32A1.79,1.79,0,0,0,142.46,33a2.39,2.39,0,0,0-.1.69v4.65H141V33.83c0-1.2-.53-2.07-1.57-2.07a1.87,1.87,0,0,0-1.7,1.37,1.81,1.81,0,0,0-.11.67v4.54H136.3Z"/></svg>