<?xml version="1.0" standalone="no"?>
<!DOCTYPE svg PUBLIC "-//W3C//DTD SVG 20010904//EN"
 "http://www.w3.org/TR/2001/REC-SVG-20010904/DTD/svg10.dtd">
<svg version="1.0" xmlns="http://www.w3.org/2000/svg"
 width="625.000000pt" height="292.000000pt" viewBox="0 0 625.000000 292.000000"
 preserveAspectRatio="xMidYMid meet">

<g transform="translate(0.000000,292.000000) scale(0.100000,-0.100000)"
fill="#000000" stroke="none">
<path d="M2150 1505 c0 -577 3 -875 10 -875 7 0 10 298 10 875 0 577 -3 875
-10 875 -7 0 -10 -298 -10 -875z"/>
<path d="M210 1525 l0 -825 843 2 842 3 0 820 0 820 -842 3 -843 2 0 -825z
m709 469 c109 -32 169 -135 159 -273 -11 -155 -108 -237 -288 -244 l-75 -3 -3
-152 -3 -152 -64 0 -65 0 0 420 0 420 143 0 c101 0 159 -5 196 -16z m574 -213
c25 -10 27 -15 27 -67 0 -54 -1 -56 -22 -50 -118 34 -192 27 -204 -19 -9 -37
11 -61 91 -105 132 -73 168 -131 150 -240 -9 -56 -65 -114 -125 -130 -55 -15
-174 -9 -215 11 -28 13 -30 18 -33 78 -3 58 -1 63 15 56 50 -22 120 -44 139
-45 37 0 83 21 89 42 14 42 -4 66 -78 109 -39 23 -88 58 -109 77 -101 95 -53
257 87 293 38 10 151 4 188 -10z"/>
<path d="M710 1746 l0 -156 58 0 c115 0 186 63 179 160 -8 99 -54 140 -168
148 l-69 5 0 -157z"/>
<path d="M3120 2160 c0 -60 -2 -110 -5 -110 -3 0 -19 9 -34 21 -69 51 -175 27
-227 -51 -31 -46 -42 -134 -25 -198 18 -64 72 -119 126 -127 59 -9 100 1 134
35 31 31 41 30 41 -7 0 -19 5 -23 30 -23 l30 0 0 285 0 285 -35 0 -35 0 0
-110z m-59 -133 c46 -31 64 -84 55 -161 -11 -81 -47 -121 -110 -121 -38 0 -51
5 -78 32 -28 28 -33 40 -36 96 -5 78 14 129 60 157 43 26 67 25 109 -3z"/>
<path d="M3680 2016 c0 -139 -3 -268 -6 -285 -6 -29 -5 -31 25 -31 26 0 31 4
31 25 0 31 5 31 41 0 16 -13 45 -27 64 -31 136 -25 235 103 203 262 -26 130
-163 188 -257 109 -16 -14 -32 -25 -35 -25 -3 0 -6 52 -6 115 l0 115 -30 0
-30 0 0 -254z m231 18 c62 -32 86 -140 49 -221 -35 -79 -126 -95 -184 -34 -23
24 -29 41 -33 93 -7 79 12 129 59 158 40 24 69 25 109 4z"/>
<path d="M2453 1970 l-93 -271 37 3 c36 3 36 3 62 85 l26 83 100 0 101 0 28
-85 c27 -85 27 -85 62 -85 19 0 34 3 34 8 0 4 -40 124 -89 267 l-88 260 -44 3
-44 3 -92 -271z m177 78 c21 -62 36 -116 33 -120 -5 -9 -147 -11 -155 -2 -4 3
10 53 29 112 19 59 37 113 39 121 7 22 14 9 54 -111z"/>
<path d="M3354 2081 c-83 -38 -128 -136 -107 -236 22 -103 79 -150 183 -150
77 0 117 20 158 79 24 35 27 48 27 121 0 72 -3 86 -27 122 -50 75 -149 102
-234 64z m138 -52 c74 -53 79 -201 8 -264 -32 -29 -110 -28 -143 3 -48 45 -61
146 -27 212 35 68 105 89 162 49z"/>
<path d="M4195 2087 c-57 -23 -73 -37 -99 -89 -66 -132 -4 -281 125 -303 44
-8 136 1 158 14 8 5 11 17 7 28 -6 18 -11 19 -55 10 -72 -15 -127 0 -163 44
-16 20 -30 49 -31 65 l-2 29 140 5 140 5 -3 40 c-9 122 -111 193 -217 152z
m106 -47 c22 -12 49 -61 49 -90 0 -19 -6 -20 -104 -20 -58 0 -107 4 -110 8 -8
13 25 71 52 92 27 22 82 26 113 10z"/>
<path d="M2850 1185 l0 -325 55 0 55 0 0 156 0 156 31 29 c35 32 68 37 104 13
36 -24 45 -65 45 -215 l0 -139 55 0 55 0 0 159 c0 91 -5 172 -11 192 -34 102
-153 138 -241 73 l-33 -25 -3 126 -3 125 -54 0 -55 0 0 -325z"/>
<path d="M4780 1185 l0 -325 50 0 50 0 0 140 c0 153 8 183 54 214 32 20 60 20
91 0 36 -24 45 -65 45 -215 l0 -139 55 0 55 0 0 153 c0 83 -5 170 -11 191 -29
106 -169 149 -247 76 -11 -11 -26 -20 -32 -20 -6 0 -10 45 -10 125 l0 125 -50
0 -50 0 0 -325z"/>
<path d="M2423 1473 c-10 -4 -13 -75 -13 -309 l0 -304 50 0 49 0 3 113 3 112
77 6 c144 12 215 70 225 186 8 91 -33 160 -114 189 -37 13 -252 19 -280 7z
m230 -84 c55 -28 73 -98 42 -158 -22 -44 -118 -75 -169 -55 -13 5 -16 24 -16
108 0 57 3 106 7 109 11 11 113 8 136 -4z"/>
<path d="M3830 1408 c-49 -14 -60 -26 -60 -64 0 -31 -3 -34 -30 -34 -28 0 -30
-2 -30 -40 0 -37 2 -40 29 -40 l28 0 5 -142 c5 -159 16 -196 68 -223 33 -17
102 -20 131 -5 13 8 19 21 19 45 0 34 -1 35 -39 35 -60 0 -66 14 -66 159 l0
126 53 3 52 3 0 40 0 39 -55 0 -55 0 0 55 c0 30 -3 55 -7 54 -5 0 -24 -5 -43
-11z"/>
<path d="M3451 1309 c-107 -20 -171 -106 -171 -229 0 -79 23 -133 73 -177 101
-88 277 -60 344 54 23 40 28 59 28 123 0 62 -5 84 -26 125 -45 85 -139 125
-248 104z m99 -79 c37 -20 64 -79 64 -144 0 -69 -16 -110 -56 -139 -73 -54
-168 19 -168 129 0 117 82 196 160 154z"/>
<path d="M4157 1309 c-111 -18 -177 -104 -177 -229 0 -80 24 -135 74 -177 92
-75 230 -70 312 13 52 51 68 103 62 194 -11 147 -116 225 -271 199z m118 -103
c86 -91 43 -276 -63 -276 -72 0 -122 63 -122 155 0 129 110 201 185 121z"/>
<path d="M4565 1311 c-77 -19 -115 -62 -115 -131 0 -63 23 -91 108 -131 70
-33 82 -43 82 -71 0 -45 -83 -64 -154 -34 l-33 14 -10 -40 c-10 -38 -9 -40 16
-50 14 -6 56 -13 93 -15 111 -9 189 43 192 126 1 71 -19 98 -106 139 -58 27
-80 43 -85 60 -12 50 54 78 123 52 31 -12 32 -12 44 29 7 25 5 33 -8 40 -26
13 -113 20 -147 12z"/>
<path d="M5381 1309 c-129 -25 -196 -151 -164 -309 9 -47 87 -125 138 -139 87
-24 175 -4 233 52 53 50 65 83 66 167 0 133 -56 208 -173 230 -30 5 -54 10
-55 9 0 -1 -21 -5 -45 -10z m105 -86 c42 -38 56 -74 56 -138 -1 -98 -44 -159
-112 -157 -107 3 -150 187 -65 278 37 39 89 46 121 17z"/>
<path d="M5898 1311 c-20 -4 -52 -19 -71 -34 -37 -28 -47 -26 -47 10 0 21 -5
23 -45 23 l-45 0 0 -315 0 -315 55 0 55 0 0 111 0 110 32 -22 c66 -47 175 -32
234 33 77 84 83 242 13 337 -39 52 -108 76 -181 62z m66 -102 c54 -43 72 -128
42 -200 -22 -52 -49 -72 -102 -73 -40 -1 -50 3 -75 32 -27 30 -29 38 -29 113
0 79 1 82 34 115 41 41 89 46 130 13z"/>
</g>
</svg>
