<svg id="Layer_1" data-name="Layer 1" xmlns="http://www.w3.org/2000/svg" viewBox="0 0 150 70"><defs><style>.cls-1{fill:#777c82;}.cls-2{fill:#737883;}.cls-3{fill:#6f7783;}.cls-4{fill:#4c627a;}.cls-5{fill:#4d647c;}.cls-6{fill:#6d7683;}.cls-7{fill:#4e677f;}.cls-8{fill:#7c7e82;}.cls-9{fill:#6b7583;}.cls-10{fill:#6b7582;}.cls-11{fill:#697483;}.cls-12{fill:#4e657e;}.cls-13{fill:#677383;}.cls-14{fill:#647283;}.cls-15{fill:#647184;}.cls-16{fill:#747983;}.cls-17{fill:#657185;}.cls-18{fill:#616e81;}.cls-19{fill:#5d6c7d;}.cls-20{fill:#5e6c7e;}.cls-21{fill:#586676;}.cls-22{fill:#4c6179;}.cls-23{fill:#4e5c6e;}.cls-24{fill:#4f5c67;}.cls-25{fill:#505e6b;}.cls-26{fill:#48566c;}.cls-27{fill:#49566c;}.cls-28{fill:#49586f;}.cls-29{fill:#4a5c72;}.cls-30{fill:#4b5f74;}.cls-31{fill:#4b5f77;}.cls-32{fill:#647084;}.cls-33{fill:#f9fbfc;}.cls-34{fill:#cbd8c2;}.cls-35{fill:#c8d5c4;}.cls-36{fill:#4e5c6b;}.cls-37{fill:#b9c6c9;}.cls-38{fill:#b7c3c9;}.cls-39{fill:#4e5b60;}.cls-40{fill:#4e5c66;}.cls-41{fill:#4e5958;}.cls-42{fill:#4f5b61;}.cls-43{fill:#4f5b5d;}.cls-44{fill:#5c6161;}.cls-45{fill:#c7d5c4;}.cls-46{fill:#bac8c8;}.cls-47{fill:#c2cfc5;}.cls-48{fill:#becbc6;}.cls-49{fill:#c0cdc6;}.cls-50{fill:#d7c4ca;}.cls-51{fill:#969ac2;}.cls-52{fill:#9497bf;}.cls-53{fill:#d1b1c8;}.cls-54{fill:#9293bc;}.cls-55{fill:#d4bac8;}.cls-56{fill:#d0abc7;}.cls-57{fill:#52c3d9;}.cls-58{fill:#5bc5db;}.cls-59{fill:#d6bec9;}.cls-60{fill:#b2d7dc;}.cls-61{fill:#63c8de;}.cls-62{fill:#d2b6c8;}.cls-63{fill:#e966a1;}.cls-64{fill:#49c0d7;}.cls-65{fill:#6ccadf;}.cls-66{fill:#873052;}.cls-67{fill:#73cce0;}.cls-68{fill:#8b375e;}.cls-69{fill:#7d989c;}.cls-70{fill:#caa4c3;}.cls-71{fill:#41bbd3;}.cls-72{fill:#8ed2e4;}.cls-73{fill:#a96180;}.cls-74{fill:#a96a83;}.cls-75{fill:#819ca1;}.cls-76{fill:#893356;}.cls-77{fill:#ea6ca3;}.cls-78{fill:#eb7fac;}.cls-79{fill:#59585c;}.cls-80{fill:#4d4d53;}.cls-81{fill:#9a9fc6;}.cls-82{fill:#9da3c9;}.cls-83{fill:#b9dfe8;}.cls-84{fill:#7ad0e3;}.cls-85{fill:#b6dbe0;}.cls-86{fill:#aed4d7;}.cls-87{fill:#bb416d;}.cls-88{fill:#bd4473;}.cls-89{fill:#81d1e4;}.cls-90{fill:#88d3e5;}.cls-91{fill:#c24d82;}.cls-92{fill:#be4676;}.cls-93{fill:#c04a7d;}.cls-94{fill:#e972a5;}.cls-95{fill:#e887ac;}.cls-96{fill:#e979a8;}.cls-97{fill:#e981aa;}.cls-98{fill:#ea90af;}.cls-99{fill:#5f6162;}.cls-100{fill:#ee88b2;}.cls-101{fill:#a0a9cd;}.cls-102{fill:#ceebf1;}.cls-103{fill:#cae7ec;}.cls-104{fill:#8bd4e5;}.cls-105{fill:#e4f3f3;}.cls-106{fill:#badde5;}.cls-107{fill:#e2acbc;}.cls-108{fill:#dfa5b7;}.cls-109{fill:#e5b3c1;}.cls-110{fill:#e9bfca;}.cls-111{fill:#e6b9c5;}.cls-112{fill:#e9bec9;}.cls-113{fill:#ebc5cf;}.cls-114{fill:#efa2bf;}.cls-115{fill:#f0abc3;}.cls-116{fill:#ee91b6;}.cls-117{fill:#ef9abb;}.cls-118{fill:#f1b2c7;}.cls-119{fill:#78787a;}.cls-120{fill:#d5edf1;}.cls-121{fill:#96d7e5;}.cls-122{fill:#fff;}.cls-123{fill:#dcf0f3;}.cls-124{fill:#9ca2a2;}.cls-125{fill:#f2bbcc;}.cls-126{fill:#da9db2;}.cls-127{fill:#f3c4d0;}.cls-128{fill:#878889;}.cls-129{fill:#d88fab;}.cls-130{fill:#a0d9e6;}.cls-131{fill:#909291;}.cls-132{fill:#999;}.cls-133{fill:#231f20;}</style></defs><path class="cls-1" d="M13,33.21c0-3.47-.05-6.95,0-10.42a3.78,3.78,0,0,1,.87-1c2.72-2.6,5.37-5.27,8-7.94a2.47,2.47,0,0,1,.95-.52,7.39,7.39,0,0,1,1.82-.08H40.37a1.54,1.54,0,0,1,.76.09c-.25.28-.59.23-.91.23-1,0-2.09,0-3.13,0s-2.25,0-3.37,0a1.49,1.49,0,0,0-1.09.55l-7.89,7.79a5.69,5.69,0,0,0-1,1.06,4.74,4.74,0,0,1-.89.84,6.49,6.49,0,0,0-.73.66c-2.77,2.77-5.53,5.53-8.31,8.29C13.57,32.93,13.41,33.28,13,33.21Z"/><path class="cls-2" d="M13,33.21c.48-.45,1-.89,1.43-1.36,2.58-2.56,5.15-5.14,7.73-7.71.18-.18.39-.33.58-.5.2.37-.12.54-.31.74A7.09,7.09,0,0,0,21,26.59a11.14,11.14,0,0,0-1.4,6.78A13.43,13.43,0,0,1,19.77,35a1.41,1.41,0,0,1-.45.62c-1.83,1.83-3.66,3.66-5.51,5.48-.2.21-.38.58-.8.38C12.94,38.75,13,36,13,33.21Z"/><path class="cls-3" d="M41.23,13.34a9.74,9.74,0,0,1,5.64,1.28,1,1,0,0,1-.39.65c-2.14,2-4.23,4.14-6.33,6.22a1.39,1.39,0,0,1-1.08.57c-1.14-.5-2.26-1.06-3.43-1.5-.35-.23-.78-.2-1.14-.37-.12-.11-.07-.21,0-.29,2.19-1.93,4.15-4.09,6.25-6.13A4.57,4.57,0,0,0,41.23,13.34Z"/><path class="cls-3" d="M13,41.52c.33,0,.48-.28.67-.48l5.38-5.35c.18-.18.38-.34.57-.51.36,0,.36.32.42.54a12.73,12.73,0,0,0,.54,1.5,11.36,11.36,0,0,0,1,1.8,1.52,1.52,0,0,1,.37.8c-1.12,1-2.14,2.2-3.29,3.22s-2.42,2.34-3.63,3.5c-.23.21-.42.55-.83.35a7.66,7.66,0,0,1-1.09-4.2c-.13-.28,0-.6-.11-.88Z"/><path class="cls-4" d="M50.84,34.05a.08.08,0,0,1,0,.11,22.27,22.27,0,0,1,.06,2.31c0,.28-.18.42-.34.58-4.47,4.42-8.91,8.88-13.37,13.31-.24.24-.39.61-.79.66H34.09c-.35,0-.31-.22-.21-.43a2.56,2.56,0,0,1,.51-.58l15.54-15.5a1.47,1.47,0,0,1,.72-.53A.34.34,0,0,1,50.84,34.05Z"/><path class="cls-5" d="M36.57,51c0-.27.2-.41.37-.57q6.81-6.8,13.63-13.57a.76.76,0,0,0,.26-.61c0-.68,0-1.36,0-2a42,42,0,0,1,0,5.38,4.74,4.74,0,0,1-.66.82L40.07,50.45c-.26.25-.49.59-.93.57A20.06,20.06,0,0,1,36.57,51Z"/><path class="cls-6" d="M39.11,22a1.47,1.47,0,0,0,.88-.53l6.42-6.29c.17-.16.21-.42.46-.51a6.09,6.09,0,0,1,2.28,2.11,2.08,2.08,0,0,1-.67.88c-2.11,2-4.11,4.08-6.18,6.11-.23.22-.42.51-.78.56-.68-.41-1.1-1.13-1.8-1.52C39.58,22.45,39.07,22.4,39.11,22Z"/><path class="cls-7" d="M50.82,41.38c.08,3-.57,5.66-3,7.67A9.35,9.35,0,0,1,41.41,51a.4.4,0,0,1-.3,0c-.17-.32.11-.47.27-.64Q45.7,46,50,41.73C50.25,41.52,50.46,41.27,50.82,41.38Z"/><path class="cls-6" d="M14.22,46.89c.3,0,.46-.22.64-.4,2.1-2.05,4.21-4.09,6.29-6.15.23-.22.51-.32.74-.51.35,0,.4.34.63.47l.2.2c.36.44.92.73,1.12,1.32a.84.84,0,0,1-.3.61c-2.34,2.33-4.66,4.67-7,7A7,7,0,0,1,14.22,46.89Z"/><path class="cls-8" d="M22.87,13.33a6.16,6.16,0,0,0-1.11.93c-1.78,1.79-3.55,3.59-5.37,5.34-1.11,1.07-2.16,2.22-3.37,3.19,0-3.14.76-5.94,3.47-7.89a9.25,9.25,0,0,1,4.9-1.55C21.89,13.32,22.38,13.34,22.87,13.33Z"/><path class="cls-2" d="M41.23,13.34c0,.3-.22.45-.4.62-1.87,1.87-3.74,3.73-5.59,5.6a5.1,5.1,0,0,1-.79.55c-.17.15-.34.05-.51,0a1.76,1.76,0,0,0-.76-.07c-.76,0-1.52,0-2.29,0a1.12,1.12,0,0,1-.44-.09c-.28-.29,0-.47.15-.63,1.92-1.86,3.79-3.76,5.73-5.6a3.64,3.64,0,0,1,.52-.35l4.28,0A.07.07,0,0,1,41.23,13.34Z"/><path class="cls-9" d="M41.52,24.2l3.82-3.75,3.81-3.72a5.15,5.15,0,0,1,1.26,2.82c-2.08,2.11-4.2,4.2-6.29,6.3-.29.28-.57.51-1,.19a3.62,3.62,0,0,1-.6-.5C42.23,25.07,41.57,24.87,41.52,24.2Z"/><path class="cls-10" d="M16.53,49.41c0-.32.26-.48.46-.67l6.27-6.27c.19-.19.46-.34.47-.67.48,0,.62.42.94.63.32.46.94.64,1.15,1.2s-.22.69-.49,1l-4.78,4.77a16.22,16.22,0,0,0-1.2,1.29A5.89,5.89,0,0,1,16.53,49.41Z"/><path class="cls-11" d="M43.19,25.89c.33.31.54.12.8-.14q2.86-2.88,5.75-5.74c.19-.19.35-.46.67-.46a11.94,11.94,0,0,1,.41,3.66c-1.51,1.58-3.07,3.1-4.62,4.63a1.11,1.11,0,0,1-.86.41,1,1,0,0,1-.53-.31c-.44-.45-.9-.88-1.33-1.34C43.3,26.41,43,26.24,43.19,25.89Z"/><path class="cls-11" d="M19.35,50.65c-.05-.36.22-.54.43-.75q2.74-2.76,5.51-5.5c.21-.21.47-.4.41-.76.32-.1.46.16.63.33.44.41.86.84,1.29,1.27a.86.86,0,0,1,.28.52,1.91,1.91,0,0,1-.59.93C26,48,24.76,49.23,23.49,50.51a5.41,5.41,0,0,1-.61.46A13.09,13.09,0,0,1,19.35,50.65Z"/><path class="cls-12" d="M50.82,41.38a3.87,3.87,0,0,0-.58.38q-4.59,4.58-9.15,9.16a3.27,3.27,0,0,1-1.7,0c.37-.39.74-.78,1.12-1.16l9.7-9.69c.2-.19.42-.36.64-.55A10.27,10.27,0,0,1,50.82,41.38Z"/><path class="cls-13" d="M45.31,28.14a1.48,1.48,0,0,0,.93-.56l4-3.95c.18-.18.32-.41.62-.42.06,1.22.07,2.44,0,3.66a19.28,19.28,0,0,1-3.52,3.47c-.5-.1-.72-.56-1.09-.85S45.26,28.83,45.31,28.14Z"/><path class="cls-13" d="M22.88,51c1.24-1.43,2.65-2.69,4-4a5.76,5.76,0,0,0,1-1.19c.38-.18.54.15.75.33s.4.38.6.58.52.46.61.82a2,2,0,0,1-.89,1.44A18.44,18.44,0,0,0,27,50.75a.63.63,0,0,1-.54.27c-1,0-2,.07-3.05-.05Z"/><path class="cls-14" d="M47.29,30.26l2.92-2.83c.2-.2.41-.37.62-.56v3.81a4.64,4.64,0,0,1-1.69,1.63c-.5-.11-.73-.56-1.08-.86C47.87,31,47.3,30.81,47.29,30.26Z"/><path class="cls-15" d="M49.13,32.23l1.7-1.55v3.37h-.15c-.38-.3-.68-.68-1-1a3.78,3.78,0,0,1-.56-.64A.17.17,0,0,1,49.13,32.23Z"/><path class="cls-11" d="M23.4,51l3.3,0a2.1,2.1,0,0,1,1.21-.21c.85,0,1.71,0,2.56,0s1.86,0,2.79,0a.89.89,0,0,1,.63.2h5.5l1.7,0,.32,0a18.34,18.34,0,0,1-3.23.11q-7.05,0-14.09,0A5.4,5.4,0,0,1,23.4,51Z"/><path class="cls-2" d="M13,41.81c.22.27.09.58.11.88A1.28,1.28,0,0,1,13,41.81Z"/><path class="cls-16" d="M36.85,13.36c-.9,1.08-2,2-3,2.94l-3.52,3.53a1.14,1.14,0,0,1-.76.32,12.3,12.3,0,0,0-5.47,2.55c-.15.13-.3.31-.55.23.26-.75,1-1.11,1.48-1.63,2.49-2.5,5-4.95,7.54-7.44a1.51,1.51,0,0,1,1.23-.51C34.83,13.39,35.84,13.36,36.85,13.36Z"/><path class="cls-17" d="M23.58,22.93a12.75,12.75,0,0,1,6.78-3.1h.42a.15.15,0,0,1,0,.18.57.57,0,0,1-.4.11c.24,0,.52-.1.72.13,0,.37-.32.28-.53.31a11.34,11.34,0,0,0-8.34,4.91c-.29.4-.46.88-.91,1.15a.23.23,0,0,1-.24-.18c0-.91.73-1.43,1.19-2.09.17-.24.49-.37.51-.72Z"/><path class="cls-18" d="M21,26.45l.16.19a25.12,25.12,0,0,0-1,3.37,2.42,2.42,0,0,0-.06.89,18.55,18.55,0,0,1-.06,2.36c-.11.48-.4,0-.57.09A2.13,2.13,0,0,1,19.36,32a12.21,12.21,0,0,1,1.24-5.06C20.7,26.74,20.74,26.47,21,26.45Z"/><path class="cls-19" d="M19.49,33.35c0-.17,0-.37.2-.46.19.16,0,.48.24.59l.07.08c.12.25.06.54.2.79A26.73,26.73,0,0,1,21,37a.6.6,0,0,1-.5.35c-.47-.63-.45-1.46-.85-2.12A15.93,15.93,0,0,1,19.49,33.35Z"/><path class="cls-20" d="M39.11,22c.15.32.6.34.7.7-.36.29-.69-.11-1.05-.06-1.08-.57-2.17-1.14-3.27-1.68-.12-.26-.17-.49.23-.51A28,28,0,0,1,39.11,22Z"/><path class="cls-18" d="M35.72,20.4c-.26.08-.21.27-.15.46a3.59,3.59,0,0,1-1.83-.31,3.12,3.12,0,0,0-1.05-.13l-.21,0a4.72,4.72,0,0,0-1.3-.09l-.1,0h-.86c.07-.35.45-.21.56-.43h2.54c.21.17.5,0,.71.13l.42.14A2.33,2.33,0,0,1,35.72,20.4Z"/><path class="cls-21" d="M20.48,37.3a.42.42,0,0,1,.41-.29,9.9,9.9,0,0,1,1.35,2.08c-.12.46.46.82.22,1.3-.28-.1-.36-.39-.57-.56A15.27,15.27,0,0,1,20.48,37.3Z"/><path class="cls-22" d="M33.89,51h-.55c-.42-.22-.83-.45-.91-1a2.39,2.39,0,0,1,.54-.64L48.74,33.59c.27-.28.5-.64,1-.66.38.33.83.6,1,1.12-.19.17-.4.33-.58.51L34.41,50.23C34.2,50.44,33.9,50.6,33.89,51Z"/><path class="cls-23" d="M38.82,22.53c.38-.31.64.26,1,.12a6.83,6.83,0,0,1,1.71,1.55c.37.42.75.84,1.12,1.27.14.48.57.84.65,1.36a2.51,2.51,0,0,1-.24,1.2c-.53-.29-.6-.91-.92-1.35-.44-.63-.87-1.28-1.3-1.92-.44-.91-1.33-1.37-2-2.05A.17.17,0,0,1,38.82,22.53Z"/><path class="cls-24" d="M24.58,42.5l-.85-.7L22.6,40.54a.5.5,0,0,1,0-.59c.21-.05.31.1.43.22s.05.54.45.43c.69.4,1.23,1,1.94,1.39.16.14.39.23.43.49a3.14,3.14,0,0,1-.38.52C25.07,43.06,24.89,42.66,24.58,42.5Z"/><path class="cls-25" d="M22.74,40c-.21.15-.12.37-.14.57l-.14-.15c0-.45-.61-.74-.3-1.26l.1,0C22.56,39.34,22.83,39.55,22.74,40Z"/><path class="cls-17" d="M34,20c-.24,0-.51.1-.71-.13C33.56,19.87,33.83,19.74,34,20Z"/><path class="cls-26" d="M43.2,26.87c-.07-.51-.75-.78-.56-1.4l.55.42c.23.62.82.92,1.21,1.4.16.2.33.38.5.57.11.69-.46.87-.87,1.17-.17,0-.23-.15-.28-.29C43.58,28.12,43.33,27.51,43.2,26.87Z"/><path class="cls-27" d="M24.58,42.5c.37,0,.59.43,1,.43a18.3,18.3,0,0,1,3,1.36,1.14,1.14,0,0,1-1,1L25.7,43.64C25.42,43.16,24.82,43,24.58,42.5Z"/><path class="cls-28" d="M44.05,29c.2-.44.77-.6.85-1.13l.41.28c.2.54.72.81,1,1.27,0,.05.1.13.07.18a4.78,4.78,0,0,1-1.83,1.82c-.06,0-.13,0-.17-.09A4.43,4.43,0,0,1,44.05,29Z"/><path class="cls-28" d="M27.54,45.32a4.38,4.38,0,0,0,1-1c.32-.21.66,0,1,0,.49.17,1.05,0,1.5.34.05.05.11.13.08.18a4.51,4.51,0,0,1-2,1.89c-.48-.25-.69-.85-1.26-1Z"/><path class="cls-29" d="M44.47,31.38a7.34,7.34,0,0,0,1.84-2c.33.28.66.56,1,.85s.7.65.86,1.12c.08.28-.13.43-.29.58q-1.61,1.62-3.22,3.21c-.17.16-.32.44-.64.26a.59.59,0,0,1,0-.32c.13-.56.18-1.13.26-1.69a5.25,5.25,0,0,0,.07-1.25C44.29,31.89,44.24,31.6,44.47,31.38Z"/><path class="cls-29" d="M29.08,46.73a16.1,16.1,0,0,0,2-2,.33.33,0,0,1,.23-.14c1.13,0,2.25-.28,3.38-.28.52.33.06.56-.12.74-.91,1-1.85,1.87-2.78,2.79-.28.28-.5.65-1,.66a2.15,2.15,0,0,1-1.16-1.1Z"/><path class="cls-14" d="M29.66,47.43l1.13,1c.4.28.87.49,1.09,1-.17.78-.79,1.14-1.37,1.54H26.7a7.54,7.54,0,0,1,1.85-2A2.79,2.79,0,0,0,29.66,47.43Z"/><path class="cls-30" d="M44.05,35.46q2.13-2,4.1-4.08l1,.85v.13c.09.32-.16.47-.34.64-1.83,1.84-3.66,3.68-5.51,5.5-.18.18-.34.48-.69.31.07-.74.6-1.3.77-2C43.71,36.42,43.56,35.78,44.05,35.46Z"/><path class="cls-31" d="M42.64,38.84c1.19-1,2.24-2.18,3.35-3.28s2.1-2.13,3.14-3.2a1.56,1.56,0,0,1,.57.57c-.3.27-.6.53-.88.81L33.1,49.41c-.2.2-.42.37-.63.56s-.43-.15-.5-.41.36-.59.61-.83c1.94-2,4-3.89,5.86-5.9A15.57,15.57,0,0,0,42.28,39,.3.3,0,0,1,42.64,38.84Z"/><path class="cls-32" d="M32.05,49.55a1,1,0,0,0,.42.42l.87,1H30.51c.33-.58,1.06-.84,1.26-1.53C31.93,49.33,32,49.44,32.05,49.55Z"/><path class="cls-33" d="M38.82,22.53a.29.29,0,0,1,0,.09A1.09,1.09,0,0,1,39,24a1.68,1.68,0,0,1-1.67.93c-1-.38-1.81-1-2.81-1.28a9,9,0,0,0-11.59,7.55,9.18,9.18,0,0,0,1.25,5.66,2.07,2.07,0,0,1,.29.64,1.57,1.57,0,0,1-.53,1.63,1.3,1.3,0,0,1-1.72,0l0,0A13.37,13.37,0,0,1,20.89,37l-.83-2.67c-.17-.27,0-.59-.14-.86h0V30.86c.15-.28,0-.61.13-.89a8.79,8.79,0,0,1,1.14-3.33A12.46,12.46,0,0,1,27,21.31a13.94,13.94,0,0,1,4.12-1h0a2.51,2.51,0,0,1,1.41,0,.06.06,0,0,0,.09,0c.38.16.8,0,1.18.12l1.82.47A14.69,14.69,0,0,1,38.82,22.53Z"/><path class="cls-15" d="M20.06,30a1.93,1.93,0,0,1-.13.89C20,30.56,19.8,30.24,20.06,30Z"/><path class="cls-18" d="M19.92,33.48a1.82,1.82,0,0,1,.14.86C19.8,34.08,20,33.77,19.92,33.48Z"/><path class="cls-17" d="M32.48,20.27H31.07A1.44,1.44,0,0,1,32.48,20.27Z"/><path class="cls-17" d="M33.75,20.39a4.27,4.27,0,0,1-1.18-.12C33,20.3,33.38,20.12,33.75,20.39Z"/><path class="cls-34" d="M40.94,24.62A17.59,17.59,0,0,1,43.06,28c.28.24.31.6.44.92A11.58,11.58,0,0,1,44,32.36a11.84,11.84,0,0,1-.33,2.58A12.83,12.83,0,0,1,42.91,37a16.27,16.27,0,0,1-1.19,2.11,2.41,2.41,0,0,1-.85.8c-.62.17-.53-.32-.54-.62,0-1.31,0-2.62,0-3.92a14.06,14.06,0,0,0,.43-4.09c-.07-.82-.37-1.59-.43-2.4,0-1.18-.06-2.36,0-3.54C40.34,25,40.29,24.49,40.94,24.62Z"/><path class="cls-35" d="M40.94,24.62c-.43,0-.42.36-.42.67,0,1.24,0,2.48,0,3.72-.21,0-.26-.16-.33-.31a10.15,10.15,0,0,0-2.58-3.44c-.14-.13-.37-.23-.32-.49,1.39-.12,1.86-.76,1.56-2.15A6.38,6.38,0,0,1,40.94,24.62Z"/><path class="cls-36" d="M43.33,28.85a1.85,1.85,0,0,1-.27-.83,2.5,2.5,0,0,1,.14-1.15,5.58,5.58,0,0,1,.71,1.84C43.76,28.92,43.63,29.2,43.33,28.85Z"/><path class="cls-37" d="M25.82,42.51l-.41-.38a1.05,1.05,0,0,1-.34-.88c.09-.76-.25-1.58.29-2.28a.4.4,0,0,1,.46,0,9.4,9.4,0,0,1,1.92,1.45,13.43,13.43,0,0,1,.11,3A2.41,2.41,0,0,1,25.82,42.51Z"/><path class="cls-38" d="M25.6,39c-.16.07-.31.17-.3.34a11.1,11.1,0,0,0,.11,2.82,11.09,11.09,0,0,1-2-1.46c-.2-.07-.3-.25-.43-.41L22.74,40c-.06-.36-.44-.52-.54-.86,1.42.45,2.14-.12,2.09-1.67A2.71,2.71,0,0,1,25.6,39Z"/><path class="cls-39" d="M25.82,42.51a11.08,11.08,0,0,0,2,.81,4,4,0,0,1,1.8.46c.19.26,0,.47-.1.7a2.94,2.94,0,0,1-1-.14L26,43.3c-.19-.08-.39-.15-.48-.37S25.54,42.53,25.82,42.51Z"/><path class="cls-25" d="M23,40.26a.79.79,0,0,1,.43.41C23,40.84,23.1,40.46,23,40.26Z"/><path class="cls-40" d="M43.33,28.85c.25.17.4-.06.58-.14a.29.29,0,0,0,.14.28l.42,2.39a6.58,6.58,0,0,1-.13,2.12,2.89,2.89,0,0,1-.26-1.57s-.12.1,0,.08,0,.2-.28.36A16.63,16.63,0,0,0,43.33,28.85Z"/><path class="cls-41" d="M29.51,44.48c-.18-.25.08-.39.14-.58a1,1,0,0,1,.85-.15,8,8,0,0,0,2.49,0,15.69,15.69,0,0,0,1.67-.27,10.54,10.54,0,0,0,2.54-1A15.22,15.22,0,0,0,41,39.7,12.35,12.35,0,0,0,42.77,37c.2-.14.21-.4.37-.57s.24-.25.41-.17,0,.27,0,.41,0,.13,0,.19a9.85,9.85,0,0,1-.85,2c-.59.69-1.08,1.46-1.73,2.11a19.25,19.25,0,0,1-2.36,2,7,7,0,0,1-3.67,1.55,23.2,23.2,0,0,1-3.81.29C30.57,44.53,30,44.73,29.51,44.48Z"/><path class="cls-42" d="M43.77,32.37c.23,0,.21-.33.39-.44a6.47,6.47,0,0,1,.18,1.57,3.46,3.46,0,0,1-.29,1.68.43.43,0,0,1,0-.6c-.23.14-.2.55-.57.46A21.85,21.85,0,0,0,43.77,32.37Z"/><path class="cls-43" d="M43.45,35c.24-.14.22-.5.6-.57v1c-.23.46-.16,1-.56,1.41-.2-.16.13-.32,0-.48-.39,0-.32.59-.72.62Z"/><path class="cls-30" d="M34.88,44.47a24.61,24.61,0,0,0,3.67-1.55c-1,1.15-2.11,2.14-3.15,3.22s-2.23,2.27-3.35,3.41l-.28-.14c-.27-.39-.78-.54-1-1,.1,0,.24-.05.31-.13C32.36,47,33.69,45.82,34.88,44.47Z"/><path class="cls-44" d="M25.6,39l-1.31-1.53a10.53,10.53,0,0,1-1.62-4.66,9.24,9.24,0,0,1,8.57-9.73,9.94,9.94,0,0,1,6,1.72A10.38,10.38,0,0,1,40.51,29a10.34,10.34,0,0,1,0,6.3A7.46,7.46,0,0,1,38,39.16a7,7,0,0,1-.59.49,11.46,11.46,0,0,1-3.33,1.63c-.63.13-1.27.15-1.9.27a3.08,3.08,0,0,1-.91,0,4.63,4.63,0,0,0-1-.14l-.22,0A11.89,11.89,0,0,1,28,40.73c-.17-.06-.37-.09-.38-.34Z"/><path class="cls-45" d="M37.41,39.51a10.77,10.77,0,0,0,3.11-4.2c0,1.37,0,2.74,0,4.11,0,.53.19.44.49.28a9.91,9.91,0,0,1-3.67,3c-.44,0-.52-.3-.49-.6.06-.6.07-1.21.1-1.81C37,39.92,37.2,39.73,37.41,39.51Z"/><path class="cls-46" d="M27.64,40.39l2.58.85c-.19.92-.55,1.87.29,2.69l-.86,0a15.09,15.09,0,0,1-1.84-.58A17.88,17.88,0,0,1,27.64,40.39Z"/><path class="cls-47" d="M37.41,39.51a2,2,0,0,0-.31,1.24,2,2,0,0,1-.07,1,.62.62,0,0,0,.3.89,7.23,7.23,0,0,1-2.57,1c-.79.11-.78.11-.71-.63s0-1.27.12-1.9A15.75,15.75,0,0,0,37.41,39.51Z"/><path class="cls-48" d="M30.51,43.93c-.1-.17-.28-.15-.44-.16s-.37-.1-.31-.19c.31-.54-.14-1.12.13-1.63a.61.61,0,0,0,0-.51c-.08-.32.2-.15.31-.2h0c.32.18.7,0,1,.13h1a2,2,0,0,1,.1,1.23,1,1,0,0,0,.78,1.33A7.39,7.39,0,0,1,30.51,43.93Z"/><path class="cls-49" d="M33.08,43.93c-1.09,0-1.07,0-.94-1.2,0-.45-.17-.91.06-1.36l2-.26a6.33,6.33,0,0,1,0,2.49l.6,0A4,4,0,0,1,33.08,43.93Z"/><path class="cls-50" d="M37.89,26.32a1.29,1.29,0,0,1,.52.54.85.85,0,0,1,.07.8c-.82,2.08-1.67,4.15-2.52,6.22a1.63,1.63,0,0,1-.38.66.77.77,0,0,1-.33.12,4.92,4.92,0,0,1-1.91-.14c-.23-.38,0-.66.19-1s.35-.6.51-.9a4.24,4.24,0,0,0,.46-.77c.31-.53.65-1,.94-1.59s.55-.9.77-1.38c.41-.65.76-1.33,1.16-2C37.51,26.71,37.59,26.42,37.89,26.32Z"/><path class="cls-51" d="M39.93,34.62a1.21,1.21,0,0,1-.24.71c-.76.59-1.65,1-2.46,1.48-1.09.68-2.2,1.33-3.32,2a3.14,3.14,0,0,1-1,.41.82.82,0,0,1-.53-.76.76.76,0,0,1,.38-.63,15.83,15.83,0,0,1,2.2-1.23,5.79,5.79,0,0,0,.65-.37,10.06,10.06,0,0,1,3.49-1.71A.94.94,0,0,1,39.93,34.62Z"/><path class="cls-52" d="M32.9,39.13c1.27-.73,2.55-1.44,3.8-2.19.85-.52,1.7-1,2.59-1.49a2.34,2.34,0,0,1,.4-.12,4,4,0,0,1-.84,1.55c-1.26.85-2.63,1.54-3.94,2.31a14.13,14.13,0,0,0-1.46,1C33,39.94,32.74,39.65,32.9,39.13Z"/><path class="cls-53" d="M39.64,28.85a4,4,0,0,1,.42,1.27c-.34,1-.74,2-1.17,2.92a8.27,8.27,0,0,0-.53,1.64c-.22,0-.42.13-.64.12a1,1,0,0,1-.44-.1c-.27-.2-.19-.44-.1-.69.56-1.6,1.3-3.14,1.89-4.73C39.15,29.06,39.23,28.71,39.64,28.85Z"/><path class="cls-54" d="M33.46,40.12c.09-.53.59-.64.95-.85,1.3-.79,2.65-1.53,4-2.29a.77.77,0,0,1,.47-.1A8,8,0,0,1,34,40.38l-.48.12A.25.25,0,0,1,33.46,40.12Z"/><path class="cls-55" d="M38.83,27.43a.7.7,0,0,1,.28.43,1.31,1.31,0,0,1,0,1.26c-.66,1.55-1.3,3.1-1.9,4.68-.28.76-.51.88-1.16.71a.75.75,0,0,1,0-.74c.82-2,1.58-3.91,2.39-5.86C38.54,27.71,38.6,27.5,38.83,27.43Z"/><path class="cls-56" d="M38.41,34.61c-.06-.13-.31-.16-.22-.39.57-1.34,1.12-2.68,1.69-4,0-.05.12-.07.18-.09a3.31,3.31,0,0,1,.2,1.25c.12,1.11-.52,2-.92,2.94-.11.26-.43.24-.66.36S38.48,34.7,38.41,34.61Z"/><path class="cls-57" d="M28.66,40a1.24,1.24,0,0,1-.7-.31,3.45,3.45,0,0,1-.75-1.92,8.31,8.31,0,0,0-.59-2c-.06-.36.17-.57.39-.79s.53-.24.61.15c.35,1.62,1.14,3.14,1.08,4.84C28.7,40,28.67,40,28.66,40Z"/><path class="cls-58" d="M28.66,40a1.62,1.62,0,0,1-.19-1c-.08-1.37-.83-2.57-1-3.92,0-.31-.25,0-.39,0-.1-.17,0-.29.12-.38a.9.9,0,0,1,.85.14c.71,1.16.69,2.54,1.09,3.79.17.53.59,1,.21,1.66A1.06,1.06,0,0,1,28.66,40Z"/><path class="cls-59" d="M38.83,27.43l-2.82,7-.07.07a.3.3,0,0,1-.36-.07c.31-1,.76-2,1.16-3,.56-1.35,1.11-2.69,1.64-4.05a2,2,0,0,0,0-.55A1.14,1.14,0,0,1,38.83,27.43Z"/><path class="cls-60" d="M25.52,37.73a3.23,3.23,0,0,1-.67-.85.91.91,0,0,1-.12-.31c-.26-1.92-.89-3.8-.77-5.77,0-.23,0-.47.28-.58.33.2.33.55.38.86.38,2.07.75,4.13,1.16,6.19A.45.45,0,0,1,25.52,37.73Z"/><path class="cls-61" d="M29.37,40.25A10.17,10.17,0,0,0,28.8,38a8,8,0,0,1-.34-1.63c0-.55-.42-.94-.36-1.47a.48.48,0,0,1,.51-.1.56.56,0,0,1,.34.42c.35,1.72,1,3.39,1.16,5.15,0,0,0,0,0,.06A1.33,1.33,0,0,1,29.37,40.25Z"/><path class="cls-62" d="M36,34.48a.81.81,0,0,0,1-.58c.67-1.68,1.32-3.37,2-5a1.93,1.93,0,0,0,.12-1,2.64,2.64,0,0,1,.53,1c-.7.49-.67,1.34-1,2-.52,1-.87,2.15-1.3,3.23-.07.17-.18.33,0,.52a1.16,1.16,0,0,1-1.19.09.21.21,0,0,1-.08-.22Z"/><path class="cls-63" d="M37.89,26.32A25.84,25.84,0,0,1,36.32,29c-.44-.06-.32-.39-.27-.63.2-1,.37-2,.47-3a.12.12,0,0,1,.19,0A4.32,4.32,0,0,1,37.89,26.32Z"/><path class="cls-64" d="M26.68,35.74a.29.29,0,0,1,.31.32c0,.62.41,1.11.39,1.78A5.77,5.77,0,0,0,28,39.68a2.9,2.9,0,0,1-1.13-.7,10.44,10.44,0,0,1-.47-1.63.88.88,0,0,0-.27-.61.41.41,0,0,1-.05-.19C26.15,36.2,26.23,35.82,26.68,35.74Z"/><path class="cls-65" d="M30.07,40.43c-.32-1.28-.6-2.56-1-3.81a9.21,9.21,0,0,0-.43-1.72.43.43,0,0,1,.49-.09,4.17,4.17,0,0,1,.6,1.83c.24,1.33.71,2.6,1,3.91A1.17,1.17,0,0,1,30.07,40.43Z"/><path class="cls-66" d="M26.24,25.88a7,7,0,0,1,3.7-1.95c.23.13.38.3.29.59-.76.53-1.66.76-2.45,1.22a1.28,1.28,0,0,1-.39.13C27,25.78,26.63,26.11,26.24,25.88Z"/><path class="cls-67" d="M30.78,40.55a1.59,1.59,0,0,1-.38-.7c-.44-1.64-.89-3.27-1.17-5a.33.33,0,0,1,.43,0,5,5,0,0,1,.45,1.6c.31,1.07.61,2.15.87,3.24.08.36.21.62.62.62h.45l.46,0a.52.52,0,0,1,.41.19A4.43,4.43,0,0,1,30.78,40.55Z"/><path class="cls-68" d="M23.75,29.55a8,8,0,0,1,1.69-3c0-.19.3.15.37-.17s.21-.16.39.42c0,.32-.26.5-.4.75a5.22,5.22,0,0,0-.45.6c-.35.42-.46,1-.83,1.39a.76.76,0,0,1-.18.09A.58.58,0,0,1,23.75,29.55Z"/><path class="cls-69" d="M24.86,36.59v.29a6.15,6.15,0,0,1-1.33-3,7,7,0,0,1,.19-4.12c.25.22.16.51.17.79A22.1,22.1,0,0,0,24,33.53C24.32,34.54,24.47,35.6,24.86,36.59Z"/><path class="cls-70" d="M38.69,34.61a1.31,1.31,0,0,0,.84-1c.18-.76.72-1.41.73-2.23a6,6,0,0,1-.33,3.25H39A.19.19,0,0,1,38.69,34.61Z"/><path class="cls-71" d="M26.11,36.73c.13,0,.37-.12.36,0-.07.77.49,1.44.36,2.21a3.57,3.57,0,0,1-1.31-1.25c.06-.15.12-.29.17-.44C25.58,36.92,25.77,36.77,26.11,36.73Z"/><path class="cls-72" d="M32.92,40.55l-.44,0a7.34,7.34,0,0,1-.6-2.34.32.32,0,0,1,.17-.36c.41,0,.28.41.42.61a1.32,1.32,0,0,0,.43.7,2.18,2.18,0,0,0,.56,1c0,.12,0,.25,0,.38Z"/><path class="cls-73" d="M36.71,25.33l-.14,0a.64.64,0,0,1-.48-.09,9.92,9.92,0,0,0-1-.4A4.35,4.35,0,0,0,34,24.6c-.27-.07-.55-.08-.82-.14s-.48-.08-.71-.16-.51-.24-.16-.53a8.06,8.06,0,0,1,4,1.23C36.5,25.09,36.66,25.15,36.71,25.33Z"/><path class="cls-74" d="M32.34,23.77c-.16.21,0,.3.14.43-.16.19-.4.17-.61.21a8.42,8.42,0,0,1-1.5.18.36.36,0,0,1-.18-.12l-.25-.54A4.77,4.77,0,0,1,32.34,23.77Z"/><path class="cls-75" d="M23.87,33.63a15,15,0,0,1-.19-3,5.71,5.71,0,0,1,0-.83,2.34,2.34,0,0,0,0-.26l.69,0a.51.51,0,0,1-.16.66c-.17.15-.13.36-.14.56A8,8,0,0,0,24,32.93.8.8,0,0,1,23.87,33.63Z"/><path class="cls-76" d="M26.13,26.88c-.18.09-.05-.73-.41-.14l-.28-.15a1.54,1.54,0,0,1,.8-.71c.39,0,.76-.3,1.17-.13.05.3-.21.37-.36.52C26.73,26.46,26.59,26.92,26.13,26.88Z"/><path class="cls-46" d="M31.24,41.37c-.34,0-.71.14-1-.13A2.22,2.22,0,0,1,31.24,41.37Z"/><path class="cls-77" d="M36.15,25.18l.42.18a8.19,8.19,0,0,1-.35,3c0,.23-.15.44.1.62a7.35,7.35,0,0,1-.76,1.37c-.45-.16-.14-.46-.12-.71a2.1,2.1,0,0,0,.1-1A22.42,22.42,0,0,1,35.66,26C35.69,25.65,35.66,25.24,36.15,25.18Z"/><path class="cls-78" d="M35.58,29.69c0,.23-.29.45,0,.69a8.06,8.06,0,0,1-1,1.61c-.2,0-.3-.12-.39-.27a.59.59,0,0,1-.07-.39,8.68,8.68,0,0,0,1-4.61c0-.17-.14-.48.27-.39a1.83,1.83,0,0,1,.31,1.24A12.53,12.53,0,0,1,35.58,29.69Z"/><path class="cls-79" d="M34.3,31.66l.28.33a1.28,1.28,0,0,1-.38.7,11.65,11.65,0,0,1-1.82,1.46,6.83,6.83,0,0,1-1.08.45.82.82,0,0,1-.49,0c-.21-.08-.26-.24-.06-.36A18.24,18.24,0,0,0,34,31.66.23.23,0,0,1,34.3,31.66Z"/><path class="cls-80" d="M31.36,34.47a6.3,6.3,0,0,0,2.53-1.8c.12-.17.22-.12.31,0l-.87,1.66a.49.49,0,0,1-.27.26A2.44,2.44,0,0,1,31.36,34.47Z"/><path class="cls-59" d="M33.17,34.48l.16-.13a6.2,6.2,0,0,0,2,.13.15.15,0,0,1,0,.21,3.55,3.55,0,0,1-2,0A.21.21,0,0,1,33.17,34.48Z"/><path class="cls-55" d="M35.3,34.61v-.13H36s0,.09,0,.13a.3.3,0,0,1-.08.08A.49.49,0,0,1,35.3,34.61Z"/><path class="cls-81" d="M32.47,38.43l-.42-.57a.57.57,0,0,1-.34-.71,23.49,23.49,0,0,1,2.79-1.72,5.73,5.73,0,0,1,1.27-.73h.33a8.57,8.57,0,0,0,1.6-.06l.71,0h.28l.28,0a14.6,14.6,0,0,0-3.39,1.77A29.4,29.4,0,0,1,33,37.82C32.73,38,32.5,38.1,32.47,38.43Z"/><path class="cls-82" d="M37.7,34.63c-.55.27-1.13.06-1.69.13,0,0-.07-.06,0-.09s0,0,0,0v0h1.28Z"/><path class="cls-83" d="M26.68,35.74l-.57.84a.19.19,0,0,1-.24-.09,3.7,3.7,0,0,1-.37-2.55c.29-.17.47.07.68.19a1.91,1.91,0,0,0,.68.31.77.77,0,0,1,.39.14.13.13,0,0,1,0,.18.32.32,0,0,0-.15.28A1.57,1.57,0,0,0,26.68,35.74Z"/><path class="cls-84" d="M27.25,34.76a.33.33,0,0,0,0-.14.65.65,0,0,1,.43-.66,4.82,4.82,0,0,1,2,.84l0,.1H28.1A2.45,2.45,0,0,0,27.25,34.76Z"/><path class="cls-85" d="M25.56,33.92a4.81,4.81,0,0,0,.55,2.66v.15c-.14.18-.36.31-.42.56A13.56,13.56,0,0,1,25,34.21c-.32-1.31-.5-2.65-.74-4,.06-.22.11-.44.16-.66l0,0a1.22,1.22,0,0,1,1.17-.07.2.2,0,0,1,.1.19c-.81.45-.82.45-.57,1.43.18.7.07,1.44.23,2.14C25.48,33.45,25.67,33.65,25.56,33.92Z"/><path class="cls-86" d="M23.87,33.63a7.35,7.35,0,0,1,.27-2.83,14,14,0,0,0,.48,3.92c.13.61.16,1.24.24,1.87A6.39,6.39,0,0,1,24,34.24C24,34,23.91,33.84,23.87,33.63Z"/><path class="cls-87" d="M27.68,25.62a17.77,17.77,0,0,1,2.51-1.15l.08,0a1,1,0,0,1,.54,1.12A2.82,2.82,0,0,1,30,26l-.46.16a1.23,1.23,0,0,1-.56.15A1.92,1.92,0,0,1,27.68,25.62Z"/><path class="cls-88" d="M27.68,25.62l1.27.55a.12.12,0,0,1,0,.12s0,.06,0,.06a5,5,0,0,1-.73.46.45.45,0,0,1-.28,0c-.24-.35-.69-.37-1-.65l.42-.43Z"/><path class="cls-84" d="M31.63,40.53c-.41.06-.7,0-.81-.51-.35-1.46-.71-2.91-1.08-4.36a3.29,3.29,0,0,1-.09-.76h0a.48.48,0,0,1,.56-.26.52.52,0,0,1,.2.09,1,1,0,0,1,.25.6,32.34,32.34,0,0,0,.93,4C31.67,39.7,32.07,40.11,31.63,40.53Z"/><path class="cls-89" d="M31.63,40.53c.15-.3,0-.54-.11-.8-.31-1.13-.61-2.26-.94-3.39a4,4,0,0,1-.07-1c.5,0,.51.49.68.8.35,1.33.58,2.69,1,4,.05.17.06.32-.13.41Z"/><path class="cls-90" d="M32.06,40.52c-.21-.91-.35-1.84-.64-2.73-.18-.54-.15-1.1-.35-1.63a.17.17,0,0,1,.18,0,1.62,1.62,0,0,1,.51,1l.29.7a5.06,5.06,0,0,0,.23,1.59,2.3,2.3,0,0,1,.2,1.07Z"/><path class="cls-91" d="M25.7,29.57l-1.23,0a3.84,3.84,0,0,1,.8-1.4c.56-.37.73-.33,1.19.29,0,.46-.34.77-.57,1.13A.18.18,0,0,1,25.7,29.57Z"/><path class="cls-92" d="M27,26.18c.4.08.89,0,1,.57,0,.38-.32.54-.56.74a.6.6,0,0,1-.19.06c-.52.11-1.05-.07-1.57,0,0-.31.35-.43.45-.69Z"/><path class="cls-93" d="M25.68,27.57c.49-.39,1-.07,1.56-.14.13.24-.09.35-.19.51s-.28.52-.65.48a.94.94,0,0,0-1.13-.28A.78.78,0,0,1,25.68,27.57Z"/><path class="cls-94" d="M35.58,29.69c0-.77,0-1.53,0-2.3a1.52,1.52,0,0,0-.41-1.08.35.35,0,0,1-.24-.28,3.34,3.34,0,0,1-.12-1c0-.21.06-.42.37-.27a2.1,2.1,0,0,1,1,.42c-.37.3-.33.73-.35,1.14,0,1.07-.07,2.14-.1,3.2C35.69,29.58,35.62,29.64,35.58,29.69Z"/><path class="cls-95" d="M31.79,24.24l.69,0c.23.05.5-.07.71.13a7.74,7.74,0,0,0,.58,1.28.5.5,0,0,1-.4.14c-.24,0-.47-.11-.71-.16-.46-.1-.84-.26-.7-.85C32,24.54,31.78,24.43,31.79,24.24Z"/><path class="cls-96" d="M35.17,24.76a.56.56,0,0,0-.19.74c.05.18.16.34,0,.53a.26.26,0,0,1-.26.08,1.51,1.51,0,0,1-.35-.14,1.12,1.12,0,0,1-.33-.2c-.44-.42-.22-.87,0-1.31A2,2,0,0,1,35.17,24.76Z"/><path class="cls-97" d="M34,24.46c.12.42-.26.89.14,1.28a.19.19,0,0,1-.16.08.27.27,0,0,1-.26-.21c-.7-.21-.57-.77-.56-1.28C33.47,24.36,33.78,24.26,34,24.46Z"/><path class="cls-98" d="M31.79,24.24c.22.09.45.25.35.48-.22.53.18.59.48.74a.49.49,0,0,1-.18.14,14.46,14.46,0,0,1-1.47.07.24.24,0,0,1-.2-.08c0-.42-.36-.71-.5-1.08Z"/><path class="cls-99" d="M33.17,34.48v.12l-.09.1a7,7,0,0,1-2.73,0,.69.69,0,0,1-.53-.68.71.71,0,0,1,.46-.57,7.83,7.83,0,0,0,2.78-2.2c.18-.23.39-.56.8-.42a.8.8,0,0,1,.21.2.61.61,0,0,1,.11.35l.12.28c-.6.19-.82.79-1.29,1.14a11.82,11.82,0,0,1-2.28,1.57c.23.18.43.08.63.1Z"/><path class="cls-100" d="M34.18,31.38c-.15,0-.13-.17-.15-.28a.43.43,0,0,1-.06-.46A9.73,9.73,0,0,0,34.74,26H35l.14.28A7.17,7.17,0,0,1,34.18,31.38Z"/><path class="cls-101" d="M31.2,36.18l-.13,0c-.18-.29-.24-.66-.56-.85-.05-.19-.1-.37-.16-.55a14.55,14.55,0,0,1,2.09-.07c.24,0,.51.09.74-.09H35.3l.71,0v.13h-.29a1,1,0,0,1-.66.18,4.74,4.74,0,0,0-3.15,1A1.15,1.15,0,0,1,31.2,36.18Z"/><path class="cls-82" d="M31.2,36.18a5.79,5.79,0,0,1,4.52-1.42,23.47,23.47,0,0,1-4,2.4A3.41,3.41,0,0,1,31.2,36.18Z"/><path class="cls-102" d="M27.67,34.05l-.42.57h-.42A2.48,2.48,0,0,1,26,33.8c-.13-.18-.21-.36,0-.53a.49.49,0,0,1,.47,0c.39.31.86.25,1.3.36C27.92,33.81,27.8,33.93,27.67,34.05Z"/><path class="cls-103" d="M26.13,33.35c-.05.58.5.83.7,1.27-.51-.07-.84-.47-1.27-.7l-.28-.57a2.38,2.38,0,0,1-.06-.92A1,1,0,0,1,26.13,33.35Z"/><path class="cls-104" d="M27.67,34.05l.14-.42a.13.13,0,0,1,0-.17c.69-.06,1.25.44,1.93.41a.15.15,0,0,1,.16.07,1.22,1.22,0,0,0,.32.64.12.12,0,0,1,0,.18,1,1,0,0,0-.58.14Z"/><path class="cls-105" d="M25.7,29.57l.12,0a2.43,2.43,0,0,1,1.78-.08.5.5,0,0,1,.25.46,5.67,5.67,0,0,0,.31,1.63c0,.2-.19.24-.31.15a2.89,2.89,0,0,0-1.17-.42,1.36,1.36,0,0,1-1.09-1.41.62.62,0,0,1,.11-.17Z"/><path class="cls-106" d="M25.7,29.69v.14c-.15.35,0,.73-.17,1.08s.11,1-.25,1.46v1c0-.05-.12-.11-.12-.16a14.37,14.37,0,0,0-.28-2.61C24.7,29.71,24.78,29.69,25.7,29.69Z"/><path class="cls-107" d="M29.49,26a.49.49,0,0,1,.41-.15c.82-.12,1-.05,1.26.69a3.75,3.75,0,0,1-.27,3,.24.24,0,0,1-.26.13c-.2-.23-.17-.53-.27-.78a1,1,0,0,1-.05-.49A2.21,2.21,0,0,0,29.49,26Z"/><path class="cls-108" d="M30.79,29.56c0-.56.37-1,.4-1.63A3.67,3.67,0,0,0,31,26.65a1,1,0,0,0-1.12-.78,2,2,0,0,1,.87-.28h.15l.09,0a7.11,7.11,0,0,1,1,1.61.67.67,0,0,1,0,.2,10,10,0,0,1-.37,1.6c-.1.23-.18.47-.44.58A.36.36,0,0,1,30.79,29.56Z"/><path class="cls-109" d="M29.49,26a2,2,0,0,1,1.07,2.11,1.44,1.44,0,0,0-.07.74c-.18.12-.32,0-.46-.09a.5.5,0,0,1-.16-.26,1.86,1.86,0,0,0-.95-2.22l0-.13Z"/><path class="cls-110" d="M29.94,28.56l.14.14c-.28.27-.64.18-1,.2s-.88,0-.64-.75-.11-.85-.73-.67c-.14,0-.27.07-.38-.06.21-.22.43-.44.64-.67l.22,0c.72-.28,1.3.15,1.37,1.09C29.62,28.12,29.62,28.4,29.94,28.56Z"/><path class="cls-111" d="M29.94,28.56c-.41,0-.69.06-.49-.58s-.49-1.33-1.23-1.26a1.16,1.16,0,0,1,.7-.42C29.87,26.39,30.34,27.43,29.94,28.56Z"/><path class="cls-82" d="M30.23,34.76v-.18l2.94,0c-.52.33-1.09.11-1.63.15s-.8,0-1.2,0Z"/><path class="cls-112" d="M27.68,29.56l-1.86,0,.58-1.11.56-.59c.16.44.3.89.8,1.1.16.06.2.3.15.49S27.8,29.59,27.68,29.56Z"/><path class="cls-113" d="M27.82,29.4c0-.18-.06-.43-.23-.46-.7-.11-.67-.6-.63-1.11.09-.13.19-.26.28-.4h.12a.81.81,0,0,0,.27-.05c.27-.14.53-.45.84-.1a.85.85,0,0,1,.15,1.05c-.32.54.13.35.34.39A1.57,1.57,0,0,1,27.82,29.4Z"/><path class="cls-114" d="M33.75,25.61l.28.14c.42.43.21,1,.23,1.47a6.22,6.22,0,0,1-.47,2.58.36.36,0,0,1-.63.11.54.54,0,0,1-.11-.18.72.72,0,0,1,0-.5c.7-1.07.46-2.22.31-3.36,0-.09-.06-.17,0-.26Z"/><path class="cls-115" d="M33.32,25.61c.36.18.22.51.25.79a5.22,5.22,0,0,1,0,2.19c-.09.29-.11.61-.49.68a.43.43,0,0,1-.34-.44,8.66,8.66,0,0,0,.37-1.89,1.61,1.61,0,0,0-.59-1.47h.14A1.2,1.2,0,0,1,33.32,25.61Z"/><path class="cls-116" d="M34.74,26a5.88,5.88,0,0,1-.12,3.22c-.12.65-.51,1.2-.59,1.85L33.87,31c-.07-.22-.39-.32-.29-.62a6.62,6.62,0,0,0,.73-3.66c0-.26-.1-.56.14-.79A.31.31,0,0,1,34.74,26Z"/><path class="cls-117" d="M34.45,25.89a8.26,8.26,0,0,1-.24,3.35,2.36,2.36,0,0,1-.57,1.15.27.27,0,0,1-.22-.4c.52-.45.48-1.12.59-1.7a9,9,0,0,0,0-2.54h.14A.31.31,0,0,1,34.45,25.89Z"/><path class="cls-118" d="M32.48,25.47a.89.89,0,0,1,.73,1.1,4.11,4.11,0,0,1-.45,2.28.62.62,0,0,1-.41-.38.5.5,0,0,1-.05-.38,3.63,3.63,0,0,0,.2-1.73c0-.56-.42-.59-.85-.57a1,1,0,0,1-.72-.18h0C31.42,25.31,32,25.53,32.48,25.47Z"/><path class="cls-119" d="M33.42,30l.22.4c0,.21.27.33.23.57-.33-.15-.5.16-.62.31a8,8,0,0,1-3.08,2.43,1.13,1.13,0,0,0-.25.24l-.12,0c-.33-.12-.39-.45-.52-.72a.61.61,0,0,1,0-.3.57.57,0,0,1,.27-.32,8.83,8.83,0,0,0,3.09-2.47c.14-.17.29-.39.58-.28Z"/><path class="cls-120" d="M25.28,32.37c.07-.52-.16-1.06.14-1.55.22.63.79.95,1.26,1.34a1.27,1.27,0,0,0,1.13.17c.25-.06.5-.17.74,0s0,.52-.17.75a.91.91,0,0,1-.55.41.51.51,0,0,1,0,.13c-.64.39-1.1-.29-1.68-.28C26,32.86,25.42,32.82,25.28,32.37Z"/><path class="cls-121" d="M27.83,33.5l.41-.43c.4-.1.74.33,1.14.12a2,2,0,0,1,.42.72c0,.19-.11.22-.28.16Z"/><path class="cls-122" d="M27.82,29.4c.29-.37.76-.46,1.14-.69h1.12l.41.17a1.42,1.42,0,0,1,.17.81.33.33,0,0,1,.07.29A6.22,6.22,0,0,1,30,31.31a2,2,0,0,1-1.1.66c-.31,0-.63.05-.8-.31a3.08,3.08,0,0,1-.42-2.1Z"/><path class="cls-123" d="M28.1,31.66a1.65,1.65,0,0,0,.87.16.33.33,0,0,1-.09.31.64.64,0,0,1-.36.24,1.8,1.8,0,0,0-.6.1,2.08,2.08,0,0,1-2.5-1.65,1.46,1.46,0,0,1,.28-1,1.45,1.45,0,0,0,1.55,1.36C27.6,31.19,27.78,31.57,28.1,31.66Z"/><path class="cls-124" d="M30.63,30l0-.29.13-.12h.41a.61.61,0,0,1,.67-.07.18.18,0,0,1,.07.2.61.61,0,0,1-.4.19C31.23,29.84,31,30.19,30.63,30Z"/><path class="cls-125" d="M31.77,25.61c.82.05,1,.18.9,1-.06.52.28,1.15-.33,1.56a.65.65,0,0,1-.43-.7V27.3C32,26.72,31.68,26.18,31.77,25.61Z"/><path class="cls-126" d="M31.91,27.44l.43.7.14.28c-.22.35-.17.79-.39,1.14a.19.19,0,0,1-.18,0l-.71,0a3.79,3.79,0,0,0,.52-1.73C31.73,27.63,31.73,27.51,31.91,27.44Z"/><path class="cls-127" d="M31.77,25.61c.16.55.56,1.09.14,1.69a7.92,7.92,0,0,1-1-1.69Z"/><path class="cls-128" d="M33.21,29.82a18.47,18.47,0,0,1-2.92,2.59c-.3.19-.77.11-.93.54-.29,0-.37-.19-.4-.42A.53.53,0,0,1,29.3,32a8,8,0,0,0,2.76-2.16.83.83,0,0,1,.28-.21.89.89,0,0,1,.32-.08.77.77,0,0,1,.53.15Z"/><path class="cls-129" d="M33.19,29.67h-.58c-.16-.16-.41.07-.56-.13.1-.39-.11-.9.43-1.13l.28.43.28.42Z"/><path class="cls-130" d="M29.09,32.52a.56.56,0,0,0,.27.43l0,.24c-.45.62-.76-.06-1.14-.12l.28-.7.29-.28C29.05,32.13,29,32.38,29.09,32.52Z"/><path class="cls-131" d="M29.09,32.52l-.28-.43.16-.27a2.82,2.82,0,0,0,.92-.6c.49-.25.73-.87,1.35-.95,0,0,.07-.41.25-.57h.42a.36.36,0,0,1,.43,0,7.12,7.12,0,0,1-2.9,2.37A.46.46,0,0,0,29.09,32.52Z"/><path class="cls-132" d="M31.49,29.7a2.37,2.37,0,0,1-1.6,1.52L30.63,30C31,30,31.14,29.6,31.49,29.7Z"/><path class="cls-132" d="M32.34,29.69h-.43v-.1l.14,0c.19,0,.41-.05.56.13Z"/><path class="cls-133" d="M58.1,20.65a38.32,38.32,0,0,1,6.29-.49c3.24,0,5.61.76,7.12,2.11a6.84,6.84,0,0,1,2.22,5.31,7.49,7.49,0,0,1-2,5.43C70,34.85,67.21,35.8,64,35.8a11.24,11.24,0,0,1-2.64-.23V45.74H58.1ZM61.37,32.9a11.48,11.48,0,0,0,2.72.26c4,0,6.36-1.92,6.36-5.43,0-3.35-2.37-5-6-5a13.91,13.91,0,0,0-3.09.26Z"/><path class="cls-133" d="M81.41,20.35V45.74H78.14V20.35Z"/><path class="cls-133" d="M101,45.74,97.8,40.13c-1.32-2.15-2.15-3.54-2.94-5h-.07c-.72,1.47-1.44,2.82-2.75,5.05L89,45.74H85.22L93,32.9,85.52,20.35h3.8l3.36,5.95c.94,1.66,1.65,2.94,2.33,4.3h.11c.72-1.51,1.36-2.68,2.3-4.3l3.47-5.95h3.77L96.93,32.71l7.92,13Z"/><path class="cls-133" d="M108.65,20.35h3.27V43h10.86v2.75H108.65Z"/><path class="cls-133" d="M126.43,20.69a34,34,0,0,1,6.29-.53c3.5,0,5.76.64,7.34,2.07a6.31,6.31,0,0,1,2,4.83,6.68,6.68,0,0,1-4.78,6.48v.11c2,.68,3.12,2.49,3.73,5.12a39.38,39.38,0,0,0,2,7h-3.39a32.5,32.5,0,0,1-1.7-6.06c-.75-3.51-2.11-4.83-5.09-4.94H129.7v11h-3.27Zm3.27,11.56h3.36c3.5,0,5.72-1.92,5.72-4.82,0-3.28-2.37-4.71-5.84-4.74a13.58,13.58,0,0,0-3.24.3Z"/></svg>