<?xml version="1.0" standalone="no"?>
<!DOCTYPE svg PUBLIC "-//W3C//DTD SVG 20010904//EN"
 "http://www.w3.org/TR/2001/REC-SVG-20010904/DTD/svg10.dtd">
<svg version="1.0" xmlns="http://www.w3.org/2000/svg"
 width="625.000000pt" height="292.000000pt" viewBox="0 0 625.000000 292.000000"
 preserveAspectRatio="xMidYMid meet">

<g transform="translate(0.000000,292.000000) scale(0.100000,-0.100000)"
fill="#000000" stroke="none">
<path d="M4120 1590 l0 -410 45 0 44 0 3 141 3 141 119 -141 119 -141 54 0 54
0 -126 145 c-69 80 -125 148 -125 151 0 4 50 60 110 124 61 65 110 121 110
124 0 3 -21 6 -47 6 l-48 -1 -105 -119 c-58 -65 -108 -119 -112 -120 -5 0 -8
115 -8 255 l0 255 -45 0 -45 0 0 -410z"/>
<path d="M2030 1941 c-104 -34 -160 -105 -160 -203 0 -113 61 -165 237 -201
134 -28 173 -49 191 -103 43 -128 -92 -227 -250 -184 -53 15 -95 59 -109 114
l-12 47 -41 -3 c-39 -3 -41 -4 -38 -33 5 -48 41 -113 80 -145 53 -44 129 -63
221 -58 86 5 138 27 188 80 41 43 53 76 53 149 0 124 -65 179 -254 214 -117
21 -161 44 -176 90 -25 77 15 142 102 166 88 23 178 -14 213 -88 18 -38 23
-42 58 -43 32 0 37 3 37 23 0 13 -15 47 -32 77 -45 73 -101 102 -206 106 -42
2 -88 0 -102 -5z"/>
<path d="M5015 1623 c-60 -175 -119 -346 -131 -380 l-23 -63 44 0 43 0 33 98
c17 53 36 103 42 110 7 8 51 12 158 12 l148 0 14 -27 c8 -16 27 -65 41 -110
l28 -83 45 0 c32 0 44 4 41 13 -3 6 -61 177 -129 379 l-124 368 -61 0 -62 0
-107 -317z m230 50 c33 -97 61 -182 63 -190 3 -10 -23 -13 -127 -13 -72 0
-131 4 -131 9 0 4 25 80 56 167 30 88 58 169 61 182 3 12 8 22 12 22 3 0 33
-79 66 -177z"/>
<path d="M5600 1560 l0 -380 50 0 50 0 0 165 0 165 58 0 58 0 112 -165 113
-165 50 0 50 0 -105 154 c-59 85 -109 161 -111 168 -4 9 8 19 32 27 121 43
177 171 124 286 -44 97 -119 125 -333 125 l-148 0 0 -380z m371 263 c59 -58
47 -165 -23 -217 -22 -16 -48 -20 -138 -24 l-110 -5 0 143 0 142 120 -4 c119
-3 120 -3 151 -35z"/>
<path d="M2705 1721 c-22 -11 -52 -31 -67 -45 -15 -14 -30 -26 -33 -26 -3 0
-5 18 -5 40 l0 40 -40 0 -40 0 0 -375 0 -375 40 0 40 0 0 141 0 141 35 -31
c77 -68 181 -81 273 -35 95 47 135 124 136 259 0 109 -25 177 -85 229 -67 57
-176 73 -254 37z m149 -65 c97 -40 137 -225 73 -338 -56 -101 -225 -102 -291
-1 -48 72 -45 214 6 286 41 58 141 83 212 53z"/>
<path d="M3270 1725 c-61 -28 -110 -87 -110 -135 0 -17 6 -20 39 -20 36 0 41
4 58 37 10 21 29 43 43 50 30 15 99 17 135 3 30 -11 55 -63 55 -113 l0 -35
-87 -6 c-154 -12 -221 -44 -262 -123 -18 -36 -13 -97 12 -133 37 -55 70 -74
141 -78 73 -5 124 9 166 45 l30 25 0 -31 c0 -30 1 -31 45 -31 l45 0 0 193 c-1
249 -10 286 -84 341 -37 28 -174 34 -226 11z m220 -330 c0 -102 -56 -155 -165
-155 -46 0 -60 4 -80 25 -44 43 -28 122 29 149 45 20 63 24 144 25 l72 1 0
-45z"/>
<path d="M3925 1726 c-17 -7 -45 -30 -63 -50 l-32 -37 0 46 0 45 -45 0 -45 0
0 -275 0 -275 44 0 44 0 4 193 c3 180 4 194 25 223 24 33 86 64 128 64 22 0
25 4 25 40 0 37 -2 40 -27 40 -16 -1 -42 -7 -58 -14z"/>
<path d="M655 1709 c-22 -10 -69 -31 -105 -47 -261 -116 -430 -196 -425 -200
3 -3 132 -63 287 -133 l283 -129 3 136 c1 74 1 193 0 264 l-3 128 -40 -19z"/>
<path d="M1270 1443 c-8 -3 -37 -15 -65 -28 -27 -13 -72 -33 -100 -45 -27 -12
-74 -33 -102 -46 -50 -23 -92 -42 -215 -98 -29 -13 -83 -38 -120 -55 -37 -17
-69 -31 -72 -31 -3 0 -34 -13 -68 -30 -34 -16 -67 -30 -75 -30 -7 0 -13 -4
-13 -10 0 -5 -8 -10 -19 -10 -10 0 -24 -7 -31 -15 -7 -8 -18 -15 -25 -15 -7 0
-30 -9 -52 -19 -52 -27 -165 -78 -181 -83 -8 -2 10 -14 40 -27 29 -13 85 -38
123 -56 39 -18 88 -40 110 -50 22 -9 63 -28 90 -40 28 -13 73 -33 100 -45 28
-12 63 -28 78 -36 18 -8 35 -10 45 -4 9 4 42 19 72 33 79 35 155 70 232 106
37 17 69 31 72 31 3 0 43 18 88 40 46 22 89 40 95 40 10 0 13 59 13 265 0 146
-1 265 -2 264 -2 0 -10 -3 -18 -6z"/>
</g>
</svg>
