<?xml version="1.0" encoding="utf-8"?>
<!-- Generator: Adobe Illustrator 25.2.3, SVG Export Plug-In . SVG Version: 6.00 Build 0)  -->
<svg version="1.1" id="Layer_1" xmlns="http://www.w3.org/2000/svg" xmlns:xlink="http://www.w3.org/1999/xlink" x="0px" y="0px"
	 viewBox="0 0 150 70" style="enable-background:new 0 0 150 70;" xml:space="preserve">
<style type="text/css">
	.st0{fill:#FFFFFF;}
	.st1{fill:#F05D84;}
	.st2{fill:#212121;}
	.st3{fill:#57C1AB;}
	.st4{fill:#222121;}
	.st5{fill:#4890CD;}
	.st6{fill:#287ABF;}
	.st7{fill:#222221;}
	.st8{fill:#222222;}
	.st9{fill:#5790CB;}
</style>
<g>
	<path class="st0" d="M148.4,42.2c0,4.1,0,8.3,0,12.4c0,0.5-0.1,0.6-0.6,0.6c-9.8,0-19.6,0-29.4,0c-35.2,0-66.3,0-101.6,0
		c0.1-0.6,0.7-0.7,1.1-0.9c4.1-1.9,8.1-3.7,12.2-5.5c0.8-0.4,1.1-0.8,1-1.7c-0.1-3.9,0-7.8,0-11.8c-0.1-0.4-0.5-0.5-0.8-0.6
		c-4.2-1.9-8.4-3.8-12.6-5.7c-0.3-0.1-0.5-0.2-0.8-0.3c-0.2-0.1-0.4-0.2-0.3-0.5c1.2-0.9,2.7-1.4,4-2c3.2-1.4,6.3-2.9,9.5-4.3
		c0.2-0.1,0.3-0.1,0.4-0.3c-0.9-0.6-2-1-3.1-1.5c-3.4-1.5-6.8-3.1-10.2-4.6c-0.6-0.2-1-0.3-1.6,0c-4.4,2-8.8,4-13.2,6
		C2.2,21.7,2,21.9,2,22.4c0,4.1,0,8.1,0,12.2c0,0.1,0.1,0.3,0.1,0.4C4,35.9,6,36.7,8,37.6c2.6,1.2,5.2,2.4,7.8,3.5
		c0.2,0.1,0.5,0.2,0.6,0.4c0,0.1,0,0.2,0,0.2c-0.4,0.5-1.1,0.7-1.7,1c-3.9,1.8-7.8,3.5-11.7,5.3c-0.2,0.1-0.4,0.1-0.5,0.4
		c1,0.6,2,1,3,1.4c3.3,1.5,6.5,3,9.8,4.4c0.4,0.2,1,0.2,1,0.8c-4.7,0-9.4,0-14.2,0c-0.5,0-0.6-0.1-0.6-0.6c0-13.1,0-26.1,0-39.2
		c0-0.5,0.1-0.6,0.6-0.6c49.9,0,95.7,0,145.6,0c0.5,0,0.6,0.1,0.6,0.6c0,8.9,0,17.7,0,26.6c-0.5,0-0.6-0.3-0.8-0.6
		c-1.6-2.2-3.1-4.4-4.6-6.6c-0.6-0.8-0.5-1.1,0.5-1.4c1.5-0.5,2.8-1.3,3.3-2.9c1-3.6-0.3-6.3-4.4-6.9c-2.1-0.3-4.2-0.2-6.4-0.2
		c-0.7,0-0.9,0.3-0.9,0.9c0,5.6,0,11.2,0,16.8c0,0.6,0.2,0.9,0.9,0.9c0.8,0,1-0.1,1-0.9c0-2,0-3.9,0-5.9c0-1.3,0.1-1.4,1.4-1.4
		c0.3,0,0.6,0,0.9,0c0.7,0,1.2,0.3,1.6,0.8c1.4,2.1,2.9,4.1,4.2,6.2c0.5,0.8,1.1,1.3,2.1,1.1C147.6,41.9,148,41.9,148.4,42.2z"/>
	<path class="st1" d="M16.3,55.2c-1.8-1-3.8-1.8-5.6-2.6c-2.8-1.3-5.6-2.5-8.4-3.8c-0.1-0.1-0.2-0.1-0.5-0.3c5-2.3,9.8-4.4,14.6-6.6
		c0.1-0.3,0.4-0.4,0.7-0.5c4.2-1.9,8.4-3.8,12.6-5.7c0.5-0.2,1-0.6,1.6-0.5c0,0.4,0.1,0.7,0.1,1.1c0,3.8,0,7.7,0,11.5
		c0,0.6-0.2,0.9-0.7,1.1c-4.3,1.9-8.6,3.9-12.9,5.8c-0.3,0.1-0.7,0.2-0.9,0.5C16.7,55.2,16.5,55.2,16.3,55.2z"/>
	<path class="st2" d="M148.4,42.2c-0.7,0-1.3,0-2,0.1c-0.4,0-0.7-0.1-1-0.5c-1.6-2.4-3.2-4.7-4.8-7.1c-0.3-0.5-0.7-0.7-1.3-0.7
		c-0.7,0.1-1.5-0.2-1.9,0.1c-0.5,0.4-0.1,1.3-0.2,2c0,1.8,0,3.6,0,5.4c0,0.5-0.1,0.7-0.7,0.7c-1.7,0-1.7,0-1.7-1.7
		c0-5.5,0-11,0-16.5c0-0.7,0.2-0.9,0.8-0.8c1.7,0,3.3,0,5,0c1.5,0,3,0.2,4.3,1c1.8,1.1,2.4,2.8,2.2,4.9c-0.1,2-1.2,3.4-3,4.2
		c-0.1,0.1-0.3,0.1-0.4,0.2c-1.2,0.5-1.2,0.5-0.5,1.6c1.5,2.2,3.1,4.4,4.6,6.6c0.1,0.1,0.1,0.3,0.3,0.3
		C148.4,42,148.4,42.1,148.4,42.2z"/>
	<path class="st3" d="M1.9,35.1c-0.3-0.2-0.2-0.5-0.2-0.8c0-4,0-8,0-12c0-0.6,0.2-0.8,0.7-1.1c4.5-2,9-4.1,13.5-6.1
		c0.4-0.2,0.7-0.2,1.1-0.1c4.6,2.1,9.3,4.2,13.9,6.3c0.1,0,0.1,0.1,0.3,0.2c-4.9,2.2-9.8,4.5-14.6,6.7c-0.1,0.1-0.1,0.2-0.2,0.3
		c-0.9,0.6-2,1-3,1.4c-3.5,1.5-6.9,3.1-10.3,4.7C2.7,35,2.4,35.2,1.9,35.1z"/>
	<path class="st4" d="M60.1,40.1c0,2.2,0,4.2,0,6.1c0,0.6-0.1,0.8-0.8,0.8c-1.5,0-1.5,0-1.5-1.5c0-5.4,0-10.9,0-16.3
		c0-0.7,0.1-1,0.9-0.9c1.4,0.1,1.4,0,1.4,1.4c0,0.2,0,0.4,0,0.7c1-1.2,2.2-2,3.6-2.3c3.3-0.6,6.2,1.3,7,4.5c0.5,2,0.5,4-0.2,5.9
		C68.8,43.3,62.6,43.6,60.1,40.1z"/>
	<path class="st2" d="M47.8,23c2.4,0.1,4.6,0.7,5.8,3c0.1,0.2,0.2,0.5,0.3,0.7c0.5,1.6,0.5,1.6-1.2,1.6c-0.4,0-0.6-0.1-0.7-0.6
		c-0.4-1.8-1.6-2.6-3.4-2.8c-1.1-0.1-2.1-0.1-3.1,0.4c-1.2,0.5-1.8,1.5-1.7,2.9c0,1.3,0.6,2,1.9,2.5c1.4,0.5,2.9,0.6,4.3,1
		c0.4,0.1,0.9,0.2,1.3,0.4c2,0.6,3.3,1.8,3.5,4c0.3,2.4-0.6,4.3-2.7,5.5c-2.7,1.5-5.6,1.4-8.3,0c-1.8-1-2.5-2.7-2.8-4.6
		c0-0.1,0-0.3,0-0.3c0.6-0.2,1.3-0.1,1.9-0.1c0.4,0,0.3,0.3,0.4,0.5c0.8,3.4,5.1,4.9,8,2.7c1.2-0.9,1.5-2.1,1.2-3.5
		c-0.2-1.2-1.1-1.8-2.1-2.2c-1.4-0.5-2.9-0.6-4.3-1c-0.5-0.1-0.9-0.3-1.4-0.4c-1.9-0.7-3.1-2.1-3.1-4.2c-0.1-2.1,1.1-3.9,3-4.8
		C45.6,23.2,46.7,22.9,47.8,23z"/>
	<path class="st2" d="M124.4,23.2c1.9,0,1.4-0.3,2,1.3c1.9,5.6,3.8,11.3,5.8,16.9c0.2,0.6,0.2,0.8-0.5,0.8c-1.5,0-1.5,0-2-1.4
		c-0.4-1.2-0.8-2.3-1.2-3.5c-0.1-0.4-0.3-0.6-0.8-0.6c-2.2,0-4.5,0-6.7,0c-0.4,0-0.6,0.2-0.8,0.6c-0.4,1.3-0.9,2.7-1.3,4
		c-0.2,0.7-0.5,0.9-1.2,0.9c-1.4-0.1-1.3,0-0.9-1.2c1.9-5.6,3.9-11.2,5.8-16.8c0.3-0.8,0.6-1.1,1.4-1
		C124,23.2,124.2,23.2,124.4,23.2z"/>
	<path class="st5" d="M31.3,35.1c-4.4,2-8.8,4-13.3,6c-0.3,0.1-0.7,0.3-1,0.4c-0.4,0.2-0.5-0.1-0.6-0.4c-0.1-0.2,0-0.4,0-0.7
		c0-3.6,0-7.2,0-10.8c0-0.2,0-0.4,0-0.7c0.1-0.3,0.2-0.6,0.6-0.4c1.3,0.4,2.6,1.1,3.9,1.7c3.3,1.5,6.6,3,9.9,4.5
		C31,34.9,31.2,34.9,31.3,35.1z"/>
	<path class="st6" d="M1.9,35.1c2.1-1.1,4.3-2,6.5-3c2.7-1.2,5.4-2.4,8.1-3.7c0.2,0.2,0.1,0.5,0.1,0.7c0,3.9,0,7.8,0,11.7
		c0,0.2,0.2,0.6-0.2,0.8C11.5,39.5,6.7,37.3,1.9,35.1z"/>
	<path class="st7" d="M100.1,34.6c1.8-2,3.4-3.7,5-5.5c0.5-0.6,1-0.9,1.8-0.8c0.4,0.1,0.9,0,1.5,0c-0.7,1-1.5,1.7-2.2,2.5
		c-1,1.1-2.1,2.3-3.1,3.4c-0.4,0.4-0.5,0.7,0,1.1c1.9,2.1,3.7,4.2,5.6,6.3c0.1,0.1,0.2,0.3,0.4,0.5c-0.9,0.2-1.7,0.1-2.5,0.1
		c-0.3,0-0.4-0.3-0.6-0.5c-1.7-1.9-3.3-3.9-5-5.8c-0.2-0.2-0.4-0.4-0.6-0.6c-0.3,0.2-0.1,0.5-0.1,0.7c0,1.8,0,3.6,0,5.4
		c0,0.5-0.1,0.8-0.7,0.8c-1.6,0-1.6,0-1.6-1.6c0-6,0-12.1,0-18.1c0-0.7,0.1-1,0.9-0.9c1.4,0.1,1.4,0,1.4,1.4c0,3.5,0,7,0,10.4
		C100.1,33.8,100.1,34.1,100.1,34.6z"/>
	<path class="st2" d="M82.1,40.6c-1.6,1.8-3.6,2.2-5.7,1.8c-2-0.4-3.1-1.6-3.3-3.7c-0.2-1.7,0.8-3.2,2.6-3.9
		c1.8-0.7,3.6-0.8,5.5-0.8c0.8,0,1-0.2,0.9-1C82,32,82,30.9,80.9,30.3c-1.2-0.6-2.5-0.5-3.8,0.1c-0.6,0.3-0.9,0.8-1,1.4
		c-0.1,0.5-0.3,0.6-0.8,0.6c-0.1,0-0.1,0-0.2,0c-1.6,0-1.7-0.1-1-1.6c0.6-1.4,1.8-2.2,3.3-2.5c1.1-0.3,2.3-0.3,3.4-0.1
		c2.1,0.4,3.4,1.8,3.5,4c0.1,2.6,0.1,5.2,0.1,7.8c0,0.3,0,0.5,0,0.8c0,1.5,0,1.5-1.5,1.5c-0.7,0-0.9-0.2-0.8-0.9
		C82.1,41.2,82.1,41,82.1,40.6z"/>
	<path class="st8" d="M90.6,30.7c1-1.6,2.2-2.4,3.9-2.6c0.5-0.1,0.7,0.1,0.6,0.6c0,0.1,0,0.2,0,0.3c0.2,0.9-0.1,1.2-1.1,1.3
		c-2.3,0.2-3.4,1.5-3.5,3.9c0,2.4,0,4.8,0,7.3c0,0.7-0.2,0.8-0.8,0.8c-1.5,0-1.5,0-1.5-1.5c0-3.9,0-7.8,0-11.7
		c0-0.5,0.1-0.8,0.7-0.8c1.6,0,1.6,0,1.6,1.6C90.6,30,90.6,30.2,90.6,30.7z"/>
	<path class="st9" d="M16.3,41.7c0.2-0.2,0.2-0.5,0.2-0.7c0-4.2,0-8.3,0-12.5c0.1,0,0.1-0.1,0.2-0.1c0.1,0.1,0.2,0.2,0.3,0.3
		c-0.4,0.1-0.4,0.3-0.4,0.6c0,3.9,0,7.8,0,11.6c0,0.3,0,0.6,0.4,0.6c-0.2,0.1-0.4,0.2-0.6,0.3C16.4,41.8,16.4,41.7,16.3,41.7z"/>
	<path class="st0" d="M137.2,28.6c0-1,0-1.9,0-2.9c0-0.3-0.1-0.6,0.4-0.6c1.5,0.1,3.1-0.1,4.6,0.1c1.9,0.3,2.7,1.3,2.7,3.4
		c0,1.9-1,3.1-2.8,3.4c-1.5,0.3-3,0.1-4.5,0.1c-0.4,0-0.4-0.2-0.4-0.5C137.2,30.6,137.2,29.6,137.2,28.6z"/>
	<path class="st0" d="M60,35.3c0-0.7,0.1-1.4,0.3-2.1c0.7-2.2,2.3-3.3,4.7-3.2c1.9,0.1,3.4,1.7,3.7,3.8c0.2,1.4,0.2,2.7-0.2,4
		c-0.6,1.8-1.8,2.7-3.8,2.8c-2,0.1-3.5-0.9-4.2-2.6C60.1,37.1,60,36.2,60,35.3z"/>
	<path class="st0" d="M127.5,34.9c-2.1,0-4.1,0-6,0c-0.6,0-0.4-0.3-0.3-0.6c0.8-2.5,1.7-4.9,2.5-7.4c0.2-0.5,0.3-0.9,0.6-1.6
		C125.4,28.6,126.5,31.7,127.5,34.9z"/>
	<path class="st0" d="M80.4,35.6c1.7,0,1.7,0,1.7,1.7c-0.1,1.8-1.4,3.1-3.6,3.3c-0.3,0-0.7,0-1,0c-1.2-0.1-1.9-0.7-2.1-1.7
		c-0.2-1.1,0.2-2.1,1.2-2.6C77.4,35.9,78.6,35.6,80.4,35.6z"/>
</g>
</svg>
