<?xml version="1.0" encoding="utf-8"?>
<!-- Generator: Adobe Illustrator 23.0.1, SVG Export Plug-In . SVG Version: 6.00 Build 0)  -->
<svg version="1.1" xmlns="http://www.w3.org/2000/svg" xmlns:xlink="http://www.w3.org/1999/xlink" x="0px" y="0px"
	 viewBox="0 0 110.1 27.43" style="enable-background:new 0 0 110.1 27.43;" xml:space="preserve">
<style type="text/css">
	.st0{display:none;}
	.st1{display:inline;}
	.st2{fill:none;stroke:#ED1C24;stroke-miterlimit:10;}
	.st3{fill:#0E6849;}
</style>
<g id="_x31_20x55" class="st0">
</g>
<g id="logos">
	<g>
		<path class="st3" d="M86.1,27.42c0-9.12,0-18.25,0-27.37c0.07,0,0.15-0.01,0.22-0.01c7.8,0,15.6,0,23.41,0
			c0.07,0,0.16,0.04,0.22-0.03c0.13-0.03,0.15,0.02,0.15,0.15c-0.01,1.96,0,3.93,0,5.89c-5.68,0-11.37,0-17.05,0
			c-0.24,0-0.24,0-0.24,0.24c-0.03,1.21,0.06,2.43,0.04,3.64c0,0.06,0,0.12,0,0.18c0,0.28,0,0.28,0.28,0.28c5,0,10,0,14.99,0
			c0.29,0,0.29,0,0.29,0.28c0,1.82,0,3.64,0,5.46c0,0.29,0,0.29-0.29,0.29c-5,0-10,0-14.99,0c-0.28,0-0.28,0-0.28,0.27
			c0,1.4,0,2.8,0,4.19c0,0.28,0,0.28,0.28,0.28c5.66,0,11.32,0,16.98,0c0,2.04,0,4.07,0,6.11c0,0.13-0.02,0.15-0.15,0.15
			C102,27.42,94.05,27.42,86.1,27.42z"/>
		<path class="st3" d="M57.7,27.42c0-9.01,0-18.02,0-27.03c0-0.06,0-0.12,0-0.18c0-0.09,0.04-0.13,0.13-0.13c0.06,0,0.12,0,0.18,0
			c5.07,0,10.14-0.01,15.22,0.01c1.03,0,2.06,0.15,3.07,0.37c0.85,0.19,1.66,0.46,2.43,0.87c0.59,0.31,1.14,0.69,1.61,1.18
			c0.87,0.91,1.36,2,1.58,3.23c0.12,0.69,0.14,1.38,0.1,2.07c-0.08,1.32-0.49,2.54-1.34,3.58c-0.66,0.81-1.48,1.42-2.45,1.82
			c-0.03,0.01-0.06,0.03-0.11,0.06c0.11,0.09,0.24,0.11,0.35,0.16c0.73,0.34,1.41,0.77,1.97,1.35c0.78,0.81,1.29,1.76,1.45,2.89
			c0.04,0.32,0.07,0.64,0.07,0.97c0,2.83,0,5.67,0,8.5c0,0.25,0,0.25-0.25,0.25c-2.02,0-4.04,0-6.05,0c-0.24,0-0.25,0-0.25-0.24
			c0-2.37,0.01-4.75,0-7.12c0-0.84-0.31-1.59-0.83-2.25c-0.61-0.78-1.42-1.22-2.39-1.38c-0.19-0.03-0.39-0.05-0.58-0.05
			c-1.3,0-2.6-0.03-3.9,0.01c-1.04,0.03-2.07,0.01-3.11,0.02c-0.2,0-0.19,0.11-0.19,0.24c0,3.6,0,7.2,0,10.8
			C62.16,27.42,59.93,27.42,57.7,27.42z M69.19,6.08c-1.52,0-3.04,0-4.56,0c-0.27,0-0.27,0-0.27,0.28c0,1.26,0,2.53,0,3.79
			c0,0.27,0,0.27,0.27,0.27c2.97,0,5.95,0,8.92,0c0.44,0,0.85-0.09,1.22-0.33c0.92-0.62,1.19-1.36,0.99-2.37
			c-0.19-0.97-1.08-1.64-2.08-1.64C72.19,6.08,70.69,6.08,69.19,6.08z"/>
		<path class="st3" d="M29.8,0.05c0.05,0,0.1-0.01,0.15-0.01c5.09,0,10.18,0,15.27,0c0.05,0,0.1,0,0.15,0.01
			c0.23,0.07,0.46,0.04,0.69,0.06c1.53,0.14,3.01,0.42,4.42,1.07c0.84,0.39,1.6,0.89,2.23,1.58c0.67,0.74,1.1,1.6,1.31,2.57
			c0.18,0.8,0.18,1.61,0.12,2.43c-0.05,0.69-0.17,1.36-0.38,2.01c-0.28,0.84-0.73,1.58-1.37,2.19c-0.57,0.55-1.24,0.95-1.99,1.22
			c-0.06,0.02-0.12,0.05-0.19,0.08c-0.01,0-0.01,0.02-0.03,0.04c0.5,0.23,0.98,0.48,1.42,0.79c0.85,0.61,1.55,1.35,2.06,2.28
			c0.39,0.72,0.63,1.49,0.71,2.3c0.19,1.93-0.22,3.71-1.4,5.28c-0.59,0.78-1.32,1.39-2.16,1.88c-1.18,0.69-2.46,1.09-3.8,1.31
			c-0.77,0.13-1.55,0.19-2.33,0.22c-1.73,0.07-3.47,0.02-5.2,0.03c-3.15,0.01-6.3,0-9.46,0.01c-0.17,0-0.23-0.04-0.23-0.22
			C29.8,18.13,29.8,9.09,29.8,0.05z M41.24,16.42c-1.48,0-2.95,0-4.43,0c-0.19,0-0.24,0.05-0.24,0.24c0.01,1.36,0,2.72,0,4.08
			c0,0.25,0,0.25,0.25,0.25c2.85,0,5.7,0,8.55,0c0.14,0,0.28-0.01,0.42-0.03c0.95-0.12,1.58-0.65,1.93-1.51
			c0.25-0.61,0.21-1.24-0.11-1.81c-0.47-0.83-1.2-1.22-2.15-1.22C44.06,16.42,42.65,16.42,41.24,16.42z M41.39,6.01
			c-1.53,0-3.07,0-4.6,0c-0.18,0-0.23,0.05-0.23,0.23c0.01,1.33,0,2.66,0,3.99c0,0.24,0,0.24,0.25,0.24c2.99,0,5.98,0,8.98,0
			c0.06,0,0.12,0,0.18-0.01c1.53-0.23,2.47-1.96,1.7-3.32c-0.4-0.71-1.02-1.12-1.85-1.13C44.35,6,42.87,6.01,41.39,6.01z"/>
		<path class="st3" d="M0,14.8c0-0.72,0-1.45,0-2.17c0.01-0.03,0.03-0.06,0.03-0.09c0.01-0.4,0.08-0.8,0.15-1.2
			C0.38,10.1,0.75,8.91,1.3,7.77C1.82,6.7,2.46,5.71,3.23,4.81c0.53-0.62,1.1-1.2,1.73-1.71c0.61-0.5,1.25-0.94,1.93-1.33
			c0.83-0.49,1.71-0.85,2.64-1.1c1.1-0.3,2.22-0.47,3.36-0.55c0.22-0.02,0.44,0.01,0.65-0.06c0.05,0,0.1-0.01,0.15-0.01
			c3.96,0,7.92,0,11.89,0c0.05,0,0.1,0,0.15,0.01c-0.07,2.01-0.02,4.02-0.03,6.03c0,0.19-0.1,0.18-0.23,0.18
			c-3.08,0-6.17-0.01-9.25,0c-0.8,0-1.6,0.03-2.4,0.07c-1.36,0.08-2.65,0.41-3.83,1.09c-1.29,0.74-2.26,1.78-2.85,3.16
			c-0.3,0.72-0.48,1.46-0.54,2.23c-0.12,1.45,0.14,2.83,0.81,4.12c0.59,1.15,1.46,2.06,2.59,2.7c0.95,0.54,1.96,0.84,3.04,0.97
			c0.48,0.06,0.96,0.09,1.44,0.11c0.87,0.05,1.74,0.05,2.6,0.07c1.97,0.06,3.93,0.03,5.9,0.02c0.86-0.01,1.73,0,2.59-0.03
			c0.14,0,0.17,0.03,0.17,0.17c-0.01,2.05,0,4.11,0,6.16c0,0.25,0,0.25-0.25,0.25c-2.92,0-5.84,0.01-8.76-0.01
			c-0.54,0-1.09,0-1.63-0.03c-0.86-0.06-1.73-0.13-2.59-0.24c-1.01-0.14-2.02-0.32-3-0.6c-1-0.29-1.96-0.67-2.85-1.2
			c-0.95-0.56-1.82-1.21-2.62-1.97c-0.99-0.94-1.8-2.01-2.46-3.2c-0.64-1.17-1.09-2.41-1.35-3.71c-0.1-0.48-0.16-0.98-0.17-1.47
			C0.03,14.9,0.04,14.85,0,14.8z"/>
	</g>
</g>
</svg>
